<?xml version="1.0" standalone="no"?>
<!DOCTYPE svg PUBLIC "-//W3C//DTD SVG 1.1//EN" "http://www.w3.org/Graphics/SVG/1.1/DTD/svg11.dtd" >
<svg xmlns="http://www.w3.org/2000/svg" xmlns:xlink="http://www.w3.org/1999/xlink" version="1.1">
<metadata>
Created by FontForge 20161013 at Tue Oct 23 14:21:44 2012
 By ,,,
ArchiFont
</metadata>
<defs>
<font id="ADayInAutumn" horiz-adv-x="660" >
  <font-face 
    font-family="ADayInAutumn"
    font-weight="500"
    font-stretch="normal"
    units-per-em="1000"
    panose-1="2 0 6 3 0 0 0 0 0 0"
    ascent="800"
    descent="-200"
    x-height="521"
    cap-height="716"
    bbox="-107 -253 869 790"
    underline-thickness="50"
    underline-position="-200"
    unicode-range="U+0020-3000"
  />
<missing-glyph horiz-adv-x="364" 
d="M66 33h199v600h-199v-600zM33 0v666h265v-666h-265z" />
    <glyph glyph-name=".notdef" horiz-adv-x="364" 
d="M66 33h199v600h-199v-600zM33 0v666h265v-666h-265z" />
    <glyph glyph-name=".null" horiz-adv-x="0" 
 />
    <glyph glyph-name="nonmarkingreturn" horiz-adv-x="333" 
 />
    <glyph glyph-name="space" unicode=" " horiz-adv-x="300" 
 />
    <glyph glyph-name="exclam" unicode="!" horiz-adv-x="290" 
d="M145 730l-3 8l13 5l14 -3l16 1l1 -19v-13l1 -15l1 -22v-16v-19v-21v-19l1 -21v-22v-21v-22l1 -22v-30v-18v-19v-17l-2 -18v-16l-3 -15v-16l-1 -15l-2 -15l-1 -14v-13v-14l-1 -12l-1 -11l-2 -11l-3 -15l-1 -3l1 -1l-2 -3l-1 -6l-2 -11l-20 4l2 8l-9 12l-5 13l-3 9h-13v17
l1 21l1 13v15v14v19v17v19v20v17v16v17v15v15v16v18l-1 19v20v19l-4 20v20l-3 17l-3 22l-1 31v13l4 20l4 -1l-1 1l7 9l11 8zM150 720l1 -9h-7l-5 -4l-5 -7l-1 1l-2 -11v-11l1 -29l3 -20l3 -19v-20l4 -20v-21v-20l1 -19v-18v-16v-15v-15v-17v-16v-17v-20v-19v-17v-19v-14v-15
l-1 -15l-1 -19v-13l12 4l2 -11l2 -2v2l2 9l1 11l1 10v14v13l1 16l2 15l1 13v18l3 15v16l2 18v15v19v18v30l-1 22v22v21v22l-1 21v19v21v19v16l-1 20l-1 17v13v4l-2 -6l-7 3zM114 54l-2 8l-1 -1v-5zM157 64l1 -8l-13 -17l12 15l5 8l2 2h-7zM148 84h12l22 -10l-2 -20l-7 -12
l-20 -21h-25l-35 27v21l14 15l8 -8l4 11l19 2z" />
    <glyph glyph-name="quotedbl" unicode="&#x22;" horiz-adv-x="359" 
d="M71 707l36 -18l-14 -25l-15 -53l-5 -41l-1 -18l1 -41l6 -26l13 -34l-38 -14l-13 36l-8 32l-1 47l1 22l5 45l19 61zM206 706l38 -14l-12 -31l-5 -23v-34l1 -19l4 -20l4 -22l3 -20l3 -22l7 -20l11 -26l-38 -16l-11 28l-7 24l-5 26l-3 20l-4 20l-4 24l-1 23v38l7 31z" />
    <glyph glyph-name="numbersign" unicode="#" horiz-adv-x="601" 
d="M254 643l-2 -3l-3 -9l-3 -8l-1 -2l-4 -17l-6 -23l-8 -22l-1 -1v-6l-2 -14l-1 -8l1 3l3 12l5 20l3 11l3 11l3 12l6 19l4 14zM131 223l-2 -1l-2 -3l-4 -13l-6 -13l-5 -14l-5 -12l-6 -16l-7 -14l-7 -13l-7 -11l-7 -19l-3 -12l-3 -11v-13l-1 -10l2 -3l3 2l6 7l8 15l6 10l3 11
l5 10l3 11l2 9l4 14l4 13l3 14l4 13l3 13l4 14l3 13zM214 599l2 4l4 12l6 11l2 4l4 14l3 12l-4 -7l-6 -9l-5 -17l-5 -19zM402 524l2 4l4 11l6 12l5 11l7 17l4 10l5 10l4 10l4 12l4 11l2 9l2 19l1 9l-5 4h-7l-7 -11l-4 -3l-2 -11l-7 -30l-4 -14l-5 -13l-6 -15l-4 -12l-7 -18
l-6 -14l-3 -11l7 2zM383 572l4 10l6 15l3 13v1l-8 -13l-3 -9v-10zM381 500v-12v-6l5 11l5 9zM345 313l-7 -1l-2 -14l-1 -16l2 5l3 13zM346 333h1h3l2 14v3l-4 -12zM302 195l-19 1l-3 -7l-3 -9l-3 -13l-4 -12l-5 -13l-5 -13l-3 -11l-4 -13l-4 -17l-4 -13l-3 -13l-1 -9l-1 -8
l3 2l7 7l8 9l10 13l9 19l7 19l3 13l3 9l2 12l2 13l3 11l3 13zM308 237l-5 1l-2 -6l-6 -10l-4 -6l12 -1h2l2 8zM88 476l-4 -2l12 1h18h10h12h12l13 -1l15 -2h3l3 5l1 3l-2 1l-11 3h-15h-20l-17 -1l-19 -4zM456 455l7 7l4 9l1 7l-4 8l-6 7l-12 6l-9 5l-12 1h-10l-5 -10l-6 -10
l-6 -14l-7 -14l-1 -2h4h13h17h15h16h1zM261 472l6 -3l16 -5l15 -4l16 -3l11 -1l17 -1h3l1 6l4 20l5 12v2l-9 -2l-18 -3l-19 -3l-17 -5l-18 -7l-10 -3h-3zM154 454l-6 1h-12h-12h-10h-18l-10 -1l-9 -2l-7 -1l6 -6l5 -4h9l12 2l15 2l15 3l17 5zM57 298l2 -1l14 -8l15 -10l8 -6
l8 -5l14 -8l5 -1l1 2l5 14l2 7l-3 1l-11 3l-13 4l-12 4l-11 3l-13 1h-11zM403 231h-5h-20l-21 1l-14 1l-1 -8l-3 -10h7l10 3l13 3l11 3l10 3l9 2zM431 252l3 2l10 10l5 14v7l-3 8l-11 6l-12 7l-11 2l-19 4l-8 1h-12h-6v-1l-7 -18l-3 -13l-5 -16l-3 -13h8l21 -1h20h18z
M223 273l6 -1l12 -1l21 -5l13 -2l12 -4l4 -1l2 4l5 8l3 9l5 14l6 13l-6 -2l-11 -4l-17 -4l-15 -6l-17 -7l-11 -5l-11 -5zM197 259l-4 -3l-10 -6l-13 -6l6 -1l10 -2l10 -2l11 -3l12 -3l11 -5l19 -6l10 -2l10 -2h1l1 2l6 12l5 8l-11 4l-13 2l-21 5l-10 1l-12 2zM193 280l1 1
l10 5l12 6l11 5l11 5l17 7l17 6l17 6l11 4l11 3l9 2v6l2 16l4 19l4 18l3 17l4 18v1l-15 1h-16l-15 4h-12l-13 3l-12 4l-20 4l-11 4l-10 2l-4 -8l-1 -2l2 -25l-10 -1l-1 -5l-5 -16l-4 -13l-6 -14l-4 -10l-4 -11l-1 -4l-4 -14l-3 -14l-4 -14l-1 -6l11 -3l12 -4zM440 233l-1 -1
l-9 -9l-11 -7l-12 -5l-11 -4l-10 -3l-13 -3l-13 -3l-12 -3h-12h-1l-5 -18l-6 -15l-4 -14l-3 -15l-5 -14l-4 -14l-3 -12l-3 -10l-3 -11l-6 -16l-4 -11l-14 6l-1 -2l-10 -9l-9 -9l-17 -6l-16 12l-1 16l1 13l3 13l4 15l4 17l4 13l5 13l5 11l3 13l4 12l3 13l5 11l1 2l-8 1l-12 2
l-19 8l-11 3l-12 3l-9 3l-10 2l-10 2l-12 2l-6 2l-1 -10l-3 -15l-4 -18l-1 -12l-3 -12l-4 -13l-3 -10l-3 -11l-3 -12l-7 -21l-7 -14l-4 -18l-6 2l-2 -4l-10 -17l-12 -13l-21 -2l-12 15l-1 16v15l3 13l3 14l9 21l7 13l7 13l7 12l6 16l5 12l5 14l4 10l-4 -2l-13 -5l-12 -3
l-12 -3l-19 -3h-17l-18 7l-13 15l-4 11l-7 18l-5 20l-1 14l1 19l15 10l17 5l12 3l20 1h14h11l15 -1l15 -3l12 -4l13 -4l13 -5h1l1 1l4 12l1 5l1 12l2 15l4 17l3 15l5 20l6 19l4 21l-13 -5l-19 -5l-15 -3l-17 -2l-12 -2h-17l-13 8l-10 12l-8 16v1l1 16l12 12l14 5l11 5l13 3
l21 4l19 1h20h17l16 -5v3l1 16v14l1 14v15l1 14l2 18l2 15l5 21l7 19l6 11l11 17l9 14l9 10l1 6l6 -1l6 4l13 4l1 -2l15 -8l-3 -17l-1 -12l-1 -10l-2 -14l-3 -13l-3 -11l-4 -14l-6 -19l-3 -12l-3 -11l-3 -11l-5 -18l-3 -14l-4 -13l-5 -13l-5 -13l-1 -5l2 -1l8 3l19 7l10 3
l18 5l19 7l19 3l18 3l17 3h2v13v21v16l4 15v12l5 13l8 15l8 11l7 11l7 12l6 8l4 5l1 10l12 20l12 -7h20l15 -14l1 -17l-2 -21l-2 -13l-6 -13l-4 -10l-4 -12l-5 -10l-4 -10l-7 -17l-5 -11l-6 -12l-2 -6h1l18 -1l13 -7l14 -8l10 -11l8 -16l-1 -17l-5 -9l16 3l4 -20l-24 -4h-15
l-3 -2l-15 -8l-19 -3h-12h-11h-13l-9 1v-6l-2 -19l-2 -15l-3 -19l-2 -19l-2 -12h3h12l12 -1l19 -4l13 -4l16 -7l15 -10l9 -18v-15l-6 -15l16 5l6 -20l-29 -8zM171 267h-3l-8 3v-4l-1 -5zM26 297l-9 -3l-15 -3l-5 -2l1 -9l1 -10l5 -18l5 -16l4 -9l7 -9l10 -3h11l17 3l10 3
l12 3l11 3l11 5l13 5l1 2v1l-6 2l-16 8l-10 7l-8 6l-13 8l-14 8l-14 9z" />
    <glyph glyph-name="dollar" unicode="$" horiz-adv-x="587" 
d="M463 232l2 -4v2zM219 374l-7 2l-11 3l-18 7l-20 9l-11 5l-11 8l-9 6l-14 13l-13 16l-7 19l-5 15l-2 18v12v12l1 12l5 13l5 13l10 14l8 10l8 9l10 12l11 9l8 8l9 9l9 8l8 8l10 8l-9 -2l-10 -2l-16 -7l-17 -10l-9 -8l-11 -11l-9 -10l-7 -10l-8 -10l-5 -10l-5 -8l-2 -8
l-2 -11l-2 -11v-10v-13v-14v-12v-14l3 -12l6 -12l5 -10l7 -10l6 -8l9 -7l14 -13l8 -4l12 -5l11 -5l11 -4l11 -3l18 -4l9 -2l8 -1v3zM394 594l2 -8l3 -12l3 -14l2 -11l5 -13l3 -11l3 -10l2 -9l5 -7l7 -8l3 -8l5 -1h4l2 2l-1 7l-1 11l-4 13l-1 6l-10 -2l-3 12l-2 22h-1l-7 14
l-10 13zM218 396v12v17v18l-1 17v17v20v17l-2 19l-1 16v16v14v15v15l1 14v17v2l-10 -6l-8 -6l-8 -8l-9 -8l-9 -9l-8 -8l-11 -9l-8 -11l-8 -8l-8 -10l-8 -12l-5 -11l-3 -9l-1 -8v-12v-10l2 -16l3 -13l7 -15l9 -12l12 -11l9 -6l9 -6l9 -5l20 -9l16 -5zM259 384v4l-1 13l-1 16
v13l-1 12l-1 16v15l-1 16l-1 14l-1 17l-1 15v13v16v13v11v14v11v13v14v15v2l-9 -3l-4 -2l-3 -14v-15l-1 -14v-15v-15v-14v-16l1 -14l2 -19v-19v-20v-17l1 -17v-18v-17v-18l18 -5zM75 128v4v18l2 18l3 16l3 16l1 17v16v13v6l-6 3h-6l-11 -1l-9 -7l-6 -8l-1 -14v-14l1 -11
l2 -14l4 -16l7 -14l7 -11l5 -11zM279 343v-6l1 -14l1 -18v-17v-16v-16v-16v-15v-16v-14v-14v-15v-16v-11v-17v-15v-15v-13v-15v-14v-11v-16v-8l3 1l19 4l17 4l14 4l20 5l17 6l17 7l12 6l8 5h1l10 9l10 7l12 9l9 8l9 13l2 6l3 16l2 9v11l-1 9l-1 16l-3 14l-2 9l-6 15l-5 10
l-5 10l-5 10l-7 9l-7 7l-7 9l-8 9l-11 12l-9 6l-16 11l-15 10l-18 10l-12 5l-20 9l-11 3l-12 3zM251 735l-1 -5l-2 -19l-3 -20l-3 -13h3h6v2v14v12v19v10zM261 57v7v15v13v15v15v17v11v16v15v14v14v16v15v16v16v16v17l-1 16l-1 16v10l-14 1l-5 1v-4l1 -21l1 -23l2 -21l1 -22
v-15l3 -19l1 -16v-16v-20v-17l3 -19l1 -19l3 -18l2 -18l2 -18zM264 780l16 -12l-6 -8l-1 -8l-2 -12v-15v-19v-12v-12h4h3h3l16 1h11l4 -1l18 -2l17 -5l7 -4l-4 17l20 4l8 -37l14 -13l8 -9l9 -10l7 -11l7 -15l5 -10l5 -10l7 -18l6 -12l5 -10l6 -16l4 -15l1 -15l-1 -13
l-10 -14l-16 -2l-15 5l-7 12l-7 8l-7 11l-4 11l-3 10l-3 11l-5 13l-2 13l-3 14l-3 12l-2 10l-2 10l-5 16v3l-7 7l-10 8l-13 9l-13 8l-10 8l-4 1h-1h-20h-8h-1h-3l-6 -1v-6v-15v-14v-13v-11v-14v-11v-13v-16v-13l1 -13l1 -17l1 -14l1 -18v-15l1 -14l1 -14v-13l1 -14l1 -15v-9
l4 -1l13 -4l13 -5l11 -4l12 -6l9 -5l10 -5l11 -5l14 -8l16 -10l8 -7l9 -7l11 -7l9 -7l9 -6l10 -10l18 -18l10 -15l7 -11l4 -14l1 -13v-11v-13v-18l-1 -21l-1 -15v-4l-1 -21l-8 -14l-1 -4l-13 -18l-14 -13l-12 -9l-15 -9l-2 -1l-9 -7l-15 -9l-16 -8l-17 -8l-17 -6l-15 -7
l-17 -7l-14 -3l-16 -3h-5v-10l-2 -11l-2 -17l-2 -14v-10h-4v-1h-20v12v16v11v11l-1 11h-5h-12l-15 3l-11 5l-12 4l-19 5l-11 4l-16 8l-14 8l-16 16l-7 10l-5 10l-6 10l-3 6l-2 2l-12 13l-10 14l-9 13l-10 13l-5 11l-7 11l-7 18l-6 18l-2 16l-1 13v16l3 20l10 14l15 11l17 3
h14l16 -11l4 -16v-15v-16l-1 -19l-3 -18l-3 -16l-2 -16v-16v-9l6 -21l5 -8l5 -11v-1l8 -8l13 -12l8 -8l11 -9l12 -9l13 -10l11 -6l10 -7l11 -4l4 -2h8l13 -1h14v6l-3 14l-1 18l-3 17l-2 18l-2 18l-3 18l-1 19l-3 19v19v20v16l-1 14l-3 19v17l-1 20l-2 21l-1 25l-1 21v6h-1
l-10 1l-11 2l-20 4l-11 5l-13 4l-11 5l-12 5l-12 6l-16 13l-9 9l-8 10l-9 12l-5 12l-6 14l-5 16v16v12v14v13v12l2 13l2 11l4 12l5 10l7 12l8 10l7 10l11 12l11 11l11 10l21 12l18 7l12 4l18 4l12 1l11 1h1l3 19l3 18l2 19l3 16l1 21l4 15l20 -6l-4 -13l-1 -8l3 11z" />
    <glyph glyph-name="percent" unicode="%" horiz-adv-x="894" 
d="M228 385l5 4l9 8l6 12l8 16l6 15l4 16l2 11l2 13l2 11l1 13l1 15v15v12l-1 9l-9 15l-7 13l-8 11l-7 10l-15 13l-9 6l-9 7l-3 1l-1 -8l-12 3h-22h-14h-19l-14 -1l-14 -3l-14 -5l-7 -6l-14 -14l-11 -15l-11 -15l-4 -13l-3 -18l-1 -18v-19l4 -17l7 -17l10 -15l10 -10l15 -14
l12 -9l16 -10l13 -8l15 -4l13 -4l14 -3l15 -3h11h12h14h2zM85 634l4 3l16 11l18 8l20 5h19h15l14 -1l13 -5l15 -9l11 -7l9 -6l17 -15l9 -12l8 -13l5 -7l20 6l4 -13l4 -14l1 -15v-15v-15v-12v-14l-1 -12v-11l-2 -14l-2 -16l-5 -16l-10 -22l-8 -10l-9 -10l-20 -15l-15 -2
l-11 -6l-18 -5h-19l-17 1l-14 2l-17 6l-16 6l-14 9l-18 11l-13 13l-15 16l-13 18l-1 1l-12 15l-10 18l-6 20l-1 19v18l4 17l4 15l6 14l1 3l8 18l9 14l18 16zM509 208l3 6l14 21l12 19l-3 -1l-8 -6l-9 -12l-6 -12l-2 -11zM657 280l-4 2l-7 2h-12h-15l-18 -5l-17 -12l-17 -13
l-13 -12l-12 -17l-12 -21l-10 -19l-3 -15l-4 -15l4 -8l12 -21l11 -21l11 -16l10 -11l10 -14l7 -7l3 -2l18 -7l16 -5l18 -3l14 -1h18l18 1l20 8l17 9l12 10l12 13l11 16l8 14l5 16l4 18v17v3l-8 12l-8 10l-15 18l-12 9l-11 13l-11 10l-8 9l-10 9l-8 9l-9 7l-10 7l-4 3h-1z
M746 225l-7 7l4 -5zM621 711l-7 -2l-15 -11l-18 -14l-17 -15l-10 -12l-12 -18l-11 -20l-13 -22l-11 -27l-9 -26l-9 -27l-9 -27l-10 -28l-9 -27l10 17l14 19l15 22l16 22l18 26l13 22l18 32l18 34l18 31l10 22l6 16l3 11zM147 -59l1 31l14 38l18 40l23 36l24 37l27 35l34 41
l32 37l32 35l18 27l18 28l6 9l1 1l16 33l15 33l13 32l13 34l10 28l9 27l9 27l9 26l11 29l13 24l11 20l14 20l12 14l19 17l18 14l19 13l20 4l15 -13l-1 -11l-5 -15l-6 -18l-10 -24l-18 -31l-18 -34l-18 -32l-15 -22l-18 -28l-16 -22l28 37l27 36l30 44l29 54l25 66l23 52
l18 -8l-23 -52l-25 -66l-29 -56l-32 -46l-27 -36l-29 -39l-31 -40l-33 -46l-37 -45l-32 -40l-1 -1l-15 -27l-15 -26l-14 -28l-14 -29l-10 -26l-13 -35l-13 -34l-12 -26l-13 -26l-15 -21l-14 -23l-15 -21l-24 -23l-18 -13l-18 -7l-12 -2zM683 328l4 -20l-16 -3l-14 -4l4 -1
l4 -2l13 -6l11 -4l12 -5l16 -6l15 -11l14 -13l15 -15l8 -8l14 -17l6 -16l3 -26v-10l3 -17v-14l-1 -14l-2 -16l-4 -17l-8 -20l-12 -16l-14 -12l-16 -8l-17 -7l-17 -4l-16 -4l-15 -1h-17l-11 1h-13l-17 1l-12 4l-12 6l-13 7l-11 10l-1 1l-9 6l-16 10l-14 11l-14 16l-10 17
l-10 22v19v9l-4 9l-1 21v17l2 18l4 15l8 14l11 16l10 8l12 10l16 10l16 7l18 6l16 5l18 6l19 4l13 4l16 4zM198 -6l-16 10l13 20l14 22l14 21l14 25l21 31l19 30v2l-7 -9l-27 -35l-24 -35l-21 -36l-18 -38l-12 -34l-3 -20l3 2l14 5l16 11l20 21l15 19l14 21l13 21l13 24
l12 26l13 34l13 35l2 5h-1l-19 -29l-19 -30l-19 -31l-14 -25l-16 -23l-14 -20z" />
    <glyph glyph-name="ampersand" unicode="&#x26;" horiz-adv-x="710" 
d="M368 576v7v17v15l-1 10l-4 10l-4 9l-8 9l-15 6l-9 6l-12 3l-21 5h-19h-18l-12 -3l-11 -4l-2 -1l10 1h10h19l16 -8l11 -8l12 -9l14 -8l10 -8l11 -10l12 -14l6 -13zM202 376l3 1l9 2l-3 4l-5 -4zM68 191l3 -7l9 -19l5 -10l11 -18l5 -11l5 -9l5 -9l11 -15l7 -7l9 -12l7 -7
l8 -7l12 -10l15 -4h9h12h11h11l13 1l11 1l10 1l18 4l10 2l10 2l9 2l11 5l10 5l9 5l11 7l10 4l8 6l15 11l8 7l8 8l10 17l5 9l-12 10l-11 10l-11 11l-12 12l-10 11l-10 10l-11 11l-8 13l-7 11l-7 11l-8 11l-5 11l-9 13l-7 10l-10 13l-9 10l-10 10l-10 12l-8 9l-7 9l-3 -1
l-15 -3l-13 -3l-18 -5l-9 -4l-11 -5l-8 -1l-9 -6l-14 -11l-10 -9l-10 -13l-5 -8l-8 -17l-5 -10l-3 -15l-6 -14l-4 -13l-4 -11l-2 -9l-1 -10zM121 63l-6 9l-9 7l-11 19l-7 9l-5 11l-5 9l-10 17l2 -7l6 -11l4 -12l5 -11l5 -10l7 -8l13 -14l7 -5zM276 31l3 2l-18 -4l-4 -1h10z
M439 167l-2 -6l4 4zM254 393l-9 13l-10 -5l-8 -6l6 -8l2 -2zM271 403l6 5l13 9l11 9l12 8l13 10l11 9l1 2l-7 -5l-11 -6l-9 -6l-10 -5l-12 -6l-10 -4l-11 -5l-5 -3zM252 432l8 4l11 5l10 4l10 6l10 5l9 6l11 6l15 10l9 7l7 12l5 14v12v14l-3 14l-4 13l-5 16l-4 11l-10 10
l-9 8l-10 8l-12 8l-14 9l-9 6l-10 6h-15h-10l-11 -1l-8 -1l-11 -6l-1 -2l-9 -24l-3 -21l-2 -17v-21l1 -19l4 -22l9 -17l9 -18l13 -17l14 -21zM449 186l3 -1l3 -2l4 6l8 7l7 10l7 11l7 11l6 11l5 11l4 14l3 17l2 13l1 11l1 17v11l-1 15l-3 8l-5 9l-3 2l-4 -2v-6l-2 -12
l-4 -16l-3 -14l-5 -12l-6 -17l-5 -9l-4 -9l-5 -18l-5 -16l-3 -10l-2 -12l-5 -19v-3l2 -3zM514 75l8 -6l12 -10l14 -7l-6 -11l9 -8l8 -6l9 -3l6 -2l8 10l6 11l2 10v13v12l-3 14l-6 12l-6 7l-15 11l-8 1l-11 3l-22 7l-13 3l-18 6l-15 7l2 -3l8 -11l8 -17l7 -17l4 -9l6 -7z
M472 172l11 -5l13 -7l16 -4l13 -3l22 -7l9 -3l12 -3l21 -15l8 -11l8 -16l5 -18v-14v-15l-4 -14l-8 -17l-18 -16h-16l-15 5l-10 8l-14 11l-10 10l-9 13l-7 11l-3 3l-10 10l-14 10l-12 12l-16 15l-12 12l-2 2l-5 -5l-10 -12l-9 -9l-9 -9l-8 -8l-11 -11l-12 -10l-10 -8l-11 -7
l-12 -6l-9 -6l-12 -8l-15 -8l-13 -6l-13 -5h-14h-25l-14 3l-14 1l-12 4l-12 3l-11 2l-11 2l-18 8l-18 7l-17 12l-9 7l-15 16l-7 10l-7 12l-5 11l-4 12l-6 11l-4 12l-1 12v10v11v11l1 5l-2 9l-3 15v13v15v16v16l6 14l7 14l7 12l10 10l10 7l10 8l24 10l12 4l11 4h3l1 1l8 7
l9 6l8 7l17 11l8 6l7 5l-3 4l-9 16l-9 19l-7 19l-8 18l-4 19l-4 14l-3 13l-2 20v11v12v16l2 14l5 14l8 13l9 13l10 11l11 7l6 12l9 10l12 9l15 6l16 3h20h21l25 -5l14 -5l11 -6l17 -8l12 -15l6 -11l6 -14l1 -14v-15v-17l-1 -17l-2 -20l-1 -21l-4 -20l-5 -20l-6 -16l-7 -15
l-11 -15l-13 -11l-13 -10l-12 -8l-11 -9l-13 -9l-6 -4l10 -14l14 -14l14 -18l14 -18l17 -16l12 -11l11 -11l11 -12l8 -10l7 -8l8 -10l7 -12l7 -11l5 -10h1l1 5l2 12l3 12l5 16l7 18l4 11l5 9l6 15l3 12l3 12l4 16l2 12l4 14l18 10l17 -6l11 -15l5 -14l1 -19v-11l-1 -19
l-1 -11l-2 -15l-3 -19l-6 -14l-5 -15l-8 -11l-7 -11l-7 -11l-7 -12l-8 -9zM63 246l3 10l5 15l5 12l8 19l7 10l-6 -4l-6 -6l-5 -10l-7 -12l-4 -10v-12v-12zM417 163l1 2l2 11l1 2l-5 3l-19 10l8 18l4 -2l-4 6l-7 11l-5 10l-8 10l-7 8l-8 10l-9 10l-11 11l-12 11l-17 16
l-16 20l-14 16l-14 16l-10 14l-1 1l-4 -2l-15 -7l3 -4l8 -9l8 -10l10 -10l11 -12l10 -13l7 -10l11 -15l5 -11l6 -11l7 -11l7 -11l8 -11l9 -9l10 -10l10 -11l12 -12l11 -11l11 -8zM444 140l2 -2l12 -12l13 -12l-6 11l-6 9l-8 12v1l-4 -4zM217 412l8 7l9 4l-3 4l-14 21l-13 19
l-11 18l-9 21l-6 26l-1 21v23l2 17l2 14l-4 -6l-3 -10l-2 -12v-14v-12v-9l2 -18l3 -13l4 -14l4 -17l6 -16l7 -19l9 -17l9 -16z" />
    <glyph glyph-name="quotesingle" unicode="'" horiz-adv-x="226" 
d="M74 477l3 9l3 10v20l1 3l-1 -1l-3 -12l-3 -10v-10v-9zM84 607v2v12v12v14v17v16l2 14l8 18l1 -1v3l10 10l19 -6l3 -11v-15v-17l-1 -19l-6 -18l-3 -14l-5 -18l-5 -16l-1 -3v-4v-11v-12v-14l-2 -13l-2 -9v-9v-11v-14v-12l-1 -12l-9 1l-4 -9l-8 -16l-22 4l-4 18v11v11v12
l3 14l5 14l6 13l5 14l6 14l3 13l1 2v16z" />
    <glyph glyph-name="parenleft" unicode="(" horiz-adv-x="376" 
d="M255 714l2 -1v3l3 4h-2zM232 657l5 9l6 10l5 9l6 16l1 5l-4 -9l-11 -22zM209 -127l3 -6l6 -15l6 -6l7 -6l4 -1l-2 8l-5 7l-8 7zM119 -36l-7 16l-6 18l-6 14l-1 11l-6 14l-2 16l-1 15v5l-1 2l-5 20l-5 21l-5 28l-4 27l-2 25l-2 22v21v15v16l1 20l4 19l4 17l3 14l4 18
q1 3 1 4l3 14h1v3l3 13l3 14l5 13l4 10l3 16l7 28l7 20l7 18l6 12l6 8l4 12l6 14l7 12l7 11l5 11l10 14l10 18l12 18l10 17l8 14l5 14l9 24l5 10l14 18l26 -6l1 -18l-3 -19l-8 -18l-5 -11l-6 -10l-12 -20l-12 -14l-7 -9l-7 -8l-9 -11l-8 -12l-7 -12v-1l-9 -19l-9 -19l-7 -17
l-7 -16l-4 -11l-3 -17l-4 -16l-5 -18l-3 -19l-4 -17l-3 -12l-4 -18l-4 -15l-3 -20l-3 -14l-2 -21l-3 -13l-1 -16l-2 -19l-1 -19l-1 -21l-1 -20v-20v-17v-18l3 -20l4 -21l2 -14v-2l5 -12l7 -17l3 -11l3 -12l4 -11l4 -11l4 -10l5 -10l6 -17l2 -4l3 -4l7 -9l10 -11l8 -10
l11 -15l12 -17l7 -7l14 -17l8 -7l9 -13l5 -18v-12l-5 -18l-18 -1l-12 4l-12 7l-7 7l-1 1l-9 8l-12 11l-10 14l-9 15l-9 14l-8 17l-9 21l-9 21l-6 16zM120 412l-3 -7l-5 -18l-5 -15l-3 -16l-1 -19v-4l1 6l3 20l4 15l4 18l3 12z" />
    <glyph glyph-name="parenright" unicode=")" horiz-adv-x="337" 
d="M97 -56l-11 -13l-9 -12l-7 -11l-8 -14l-4 -14l-3 -18l-2 -25v-3l5 3l14 9l3 4l-8 7l1 11l3 15l5 11l5 11l5 8l5 12l5 17zM171 333l1 23v23v21l1 24v20l-4 8l-11 20l-9 16l-10 18l-8 16l-9 16l-10 18l-9 17l-9 17l-9 16l-6 15l-8 17l-8 18l-1 1l8 -20l10 -22l10 -23l8 -21
l8 -22l6 -19l10 -23l5 -21l8 -23l8 -24l9 -25l9 -25l6 -27l3 -21zM167 524l-4 16l-5 18l-8 21l-10 20l-7 17l-10 16l-10 16l-8 14l-11 15l-15 19l-13 17l-5 5l2 -10l3 -12l7 -16l8 -16l8 -18l8 -17l6 -15l9 -14l9 -17l9 -17l10 -18l9 -16l8 -16l10 -18l5 -10v5l-4 26z
M188 118v-1v-22v-16v-22v-21l-2 -19l-2 -15l-4 -18l-5 -17l-7 -18l-9 -21l-4 -5l6 6l9 13l10 12l7 11l7 13l5 14l6 12l2 13l4 15l2 12l1 15l1 15l1 15l1 15v16v15v16v16v15v15v14v17v19l-1 15l-1 20l-3 19l-2 21l-3 17v-10v-21v-20v-19l-1 -22v-21l-3 -19l-2 -19l-2 -18
l-4 -18l-3 -20zM187 298l-2 -19l-1 -21l1 -3l1 -8l1 22v19v10zM192 495v-2l2 -22l3 -27v-4l6 -12l7 -18l8 -20l5 -22l3 -23l4 -21l2 -21l3 -19l1 -20l1 -17v-19v-17v-14v-15v-15v-16v-16v-15v-16l-1 -17l-1 -15l-1 -15l-1 -15l-2 -14l-4 -15l-4 -15l-6 -14l-5 -14l-7 -15
l-9 -13l-10 -12l-9 -13l-15 -16l-15 -15l-10 -10l-11 -11l-11 -6l-9 -7l-4 -2l-7 -9l-11 -11l-18 -11l-19 -3l-14 15l2 33l3 20l6 18l8 16l9 13l9 12l11 13l12 15l10 14l4 5l5 13l5 16l3 12l4 15l5 18l3 17l4 18l3 17l4 19l4 18l3 19l4 20l4 25l3 19l3 21l-5 21l-3 21l-3 20
l-3 20l-3 19l-6 25l-7 25l-9 25l-8 24l-10 23l-5 21l-8 23l-6 19l-8 20l-8 21l-10 23l-10 22l-9 23l-10 25l-1 18l1 28l13 18l23 -3l11 -11l4 3l7 -14l7 -6l15 -12l8 -8l8 -9l10 -12l10 -15l7 -17l8 -17l7 -17l7 -20l5 -21l2 -22l2 -12l1 -4l3 -20zM126 -18l-2 -13l-4 -17
l-4 -16l-7 -17l-5 -14l-5 -10l-5 -9l-3 -9l-3 -11l1 1l10 10l10 12l12 16l11 18l9 15l9 19l7 16l3 15l4 18l2 13l2 19v19v3l-9 -20l-10 -19l-8 -18l-11 -16zM169 163l-2 -14l-4 -18l-4 -19l-3 -17l-4 -18l-2 -8l7 14l5 17l5 18l1 2v13l1 19v11z" />
    <glyph glyph-name="asterisk" unicode="*" horiz-adv-x="378" 
d="M137 576l-1 -9h1l14 -8l9 -5l-2 2l-5 13l-4 7h-5h-7zM204 553l-7 -4l-6 -3v-1l6 -8l9 -8l10 -12l5 -8l-2 6l-5 14l-5 12zM193 576h-4h-11h-6l4 -10l3 -4l8 5l9 4l-1 2zM182 596l-5 10l-4 11l-5 11l-3 6l-2 -5l-3 -8v-11l1 -12l1 -2h5h11h4zM144 540l-3 1l-10 6l-1 -8
l-3 -14l5 5zM108 445l-20 4l2 10l2 11l-5 -4l-14 14l9 9l15 12l2 2l3 11l4 13l4 16l2 14v1l-14 8l-10 5l-11 5l-10 4l-9 1l-11 4l-14 3l2 20l18 -2l19 -6l11 -2l17 -2h19h2l1 5l3 16l4 14l2 10l4 19l5 10l4 15l5 12l12 -2v3l6 11l18 -10l-4 -7l-1 -9l-3 -10l-1 -10l-1 -3
l1 -3l10 -21l5 -11l4 -11l6 -10l4 -8l9 2l11 1l20 1h16h16l2 -20l-16 -2l-9 -2l-14 -5l-10 -4l-9 -5l6 -13l5 -12l7 -16l3 -15l3 -11l-1 -15l-7 -12l-19 2l-3 8l-8 7l-18 16l-8 8l-6 8l-13 10l-4 -2l-14 -11l-13 -11l-13 -11l-2 -1l-2 -8l-4 -28z" />
    <glyph glyph-name="plus" unicode="+" horiz-adv-x="612" 
d="M274 248h-14v-3h1h13v2v1zM94 258l4 -1l12 -3l19 -5l12 -2l13 -1h15l15 -1h14h15h16h11v3h-12l-17 1l-19 2h-18l-21 4h-20l-20 1zM27 255l-4 20l17 3h15h20h19l21 -2l18 -1h22l21 -4h16l21 -2l15 -1h12v13v20v21v23v23v22v21v20v24l2 25l20 -2l-2 -23v-24v-20v-21v-22
v-23v-23v-21v-20v-13h14v16l-1 22l-1 18l-2 28l-2 24l-1 22l-3 22l-2 30v13l5 13l18 -6l-3 -11v-9l2 -28l3 -22l1 -22l2 -24l2 -28l1 -20l1 -22v-17h5h19h15h20h14h18h15h14h15h15h15h15h17h11v-20h-11h-17h-15h-15h-15h-15h-14h-15h-18h-14h-20h-15h-19h-5v-2h11h14h12h17
h14h11h16h13h15h15h15h16h15h18h16v-20h-16h-18h-15h-16h-15h-15h-15h-13h-16h-11h-14h-17h-12h-14h-11v-18v-16v-17v-17v-16v-16v-15v-14l-1 -10v-10l-1 -17v-10h-20v10l1 17v10l1 10v14v15v16v16v17v17v16v18h-13h-1v-9l1 -18l1 -20v-16l1 -18v-15v-18v-17v-12v-13v-13
l2 -12l-20 -4l-2 14v15v13v12v17v18v15l-1 18v16l-1 18l-1 20v9h-11h-16h-15h-14l-15 1h-15l-15 1l-14 2l-21 5l-10 3l-18 4l4 17h-5h-20h-13z" />
    <glyph glyph-name="comma" unicode="," horiz-adv-x="265" 
d="M72 69v1l-2 -3l1 -1zM127 30h1l-1 1v-1zM142 -8v-8v-14l-5 -13l-4 -13l-2 -4l8 5l8 9l-1 7v12l-1 9zM141 50v-2v-1l4 -7l10 -21l6 -17l4 -16l1 -13v-12l-1 -13l-12 -17l-15 -10l-10 -9l-17 -15l-8 -8l-8 -10l-15 -9l-13 -4l-3 7l-2 4l-8 9l2 1l-2 4l11 6l8 10l8 7l5 7
l11 17l8 14l7 13l4 12l5 10l1 5v5v17l-2 7l-7 -6l-2 -1h-1l-23 -6l-17 17l-1 17l-19 21l6 17l7 -3l4 -9l2 -1v7l4 -2l1 3l3 2l4 8l-1 3l-1 6l1 1h4l-2 2l-3 3l-3 18l7 3l12 -8l12 -13l2 -3h2l2 -1l4 3l-4 1l-4 -3l1 -2l3 1l8 -1h1l3 -1l16 -15l1 -14v-4l3 14l-4 16l6 -2
l2 -16v-14zM117 99l4 1l12 -5zM133 95l8 -4l-1 2zM79 100l-2 1l-15 3l-3 -7l1 -13l3 -7l6 -3l1 7l9 13v3v3z" />
    <glyph glyph-name="hyphen" unicode="-" horiz-adv-x="377" 
d="M2 244v20l20 1l-14 2l1 2h-2h-1l-21 -4l-4 20l23 4h16h16h17l20 1h14h15h13h13l17 -1h15l16 -1l13 -1h11h14l15 -1l9 -1h17l15 -1l-1 -12l9 -1l-2 -20l-12 1h-19l-5 -1h-14h-18h-16h-21h-17l-16 -2h-17l-12 -1l-19 -2h-13l-13 -1h-16h-13h-10z" />
    <glyph glyph-name="period" unicode="." horiz-adv-x="261" 
d="M82 89l4 8h-1l-10 -1l-2 -4zM86 40l-6 2l-1 -2l-3 -4v-1zM81 -2v2h-3h-17l-17 10l-1 15l1 8l-1 4l4 26l3 15l1 14l7 16l9 -4l-1 12l17 1l12 1h11l8 10l14 -7l8 1l9 5l16 -12l-2 -15v-12v-10v-12v-14v-28l-7 -21l-17 -2h-10h-15h-4l-6 -9zM119 22v-1h6h10l5 -2l-1 7v2
l-12 -5zM137 74l-6 -2v-6l6 -4l-2 -9l4 4v9v4l2 -7l2 -3l9 9l-13 13l-2 -6l2 -6v8v4l-1 1l-3 -3l2 -4v-2z" />
    <glyph glyph-name="slash" unicode="/" horiz-adv-x="371" 
d="M121 427l21 45l24 54l18 43l19 42l13 34l5 25l2 20l-12 -15l-26 -46l-22 -45l-14 -40l-12 -42l-11 -48zM110 349l-8 -52l-10 -56l-6 -21l3 6l17 47l16 40l12 35l12 36l14 37l11 42l13 50l4 15l-4 -10l-24 -54l-28 -60zM73 252l-18 -49l-28 -65l-25 -63l-17 -45l-9 -34
l-2 -11l7 8l14 27l3 4l1 4l9 19l15 32l2 4l3 7l15 49l15 55l14 51zM90 355l7 53l9 50l11 48l12 44l16 42l22 47l28 48l32 39l19 -7l7 18l18 -8l-16 -40l-18 -44l-2 -5v-2l-7 -32l-10 -44l-14 -55l-13 -50l-13 -42l-14 -37l-12 -36l-12 -35l-16 -42l-17 -47l-19 -41l-15 -38
l-30 -64l-12 -31l-15 -28l-3 -11l-3 1l-13 -25l-15 -18l-11 -5l-16 12l1 28l9 38l19 47l25 63l28 65l25 66l26 72z" />
    <glyph glyph-name="zero" unicode="0" horiz-adv-x="590" 
d="M181 634l-4 -5l-19 -23l-8 -10l-7 -10l-8 -10l-10 -11l-6 -10l-5 -12l-6 -17l-6 -17l-7 -16l-6 -16l-7 -18l-6 -19l-6 -18l-3 -19v-20l-2 -19v-20v-20v-20v-20l1 -18l1 -18l2 -16l3 -18l4 -17l4 -15l5 -17l4 -16l4 -12l7 -14l6 -11l8 -12l8 -11l8 -11l7 -8l9 -10l7 -6
l16 -9l14 -2l9 -1h14h11l12 1l14 4l13 4l13 4l15 4l10 6l11 6l14 8l11 8l9 7l10 11l10 12l10 13l7 15l9 17l6 16l7 17l7 17l7 16l4 18l5 15l1 15l3 18l1 16l3 17l1 16v18l1 21v20v19l-1 18l-3 17l-3 17l-5 17l-3 16l-8 15l-6 15l-7 13l-5 12l-6 12l-6 13l-10 12l-8 9l-7 7
l-10 7l-10 7l-9 6l-9 4l-11 3l-13 3l-13 3l-13 1l-13 2l-10 1h-22l-14 -3l-12 -7zM129 49l-6 7l-9 10l-8 11l-8 11l-10 14l-6 11l-7 16l-6 14l-4 16l-5 17l-4 17l-4 17l-3 20l-2 16l-1 18l-1 20v20v20v20v22l2 19v20l3 21l8 20l3 13l-5 -11l-7 -16l-5 -16l-4 -16l-3 -16
l-1 -15l-1 -16v-17v-18v-16v-16v-17v-14l2 -17l2 -15l3 -14l3 -17l4 -15l5 -16l5 -15l5 -13l9 -16l7 -14l6 -11l10 -13l8 -10l9 -8l8 -7zM416 552l4 -8l6 -15l8 -17l5 -16l5 -19l3 -17l3 -19l1 -20v-19v-20l-1 -21v-18l-1 -18l-3 -17l-1 -16l-3 -18l-1 -17l-5 -17l-6 -18
l-7 -18l-7 -17l-7 -17l-1 -3l6 8l5 10l5 10l6 11l5 12l6 12l4 13l4 14l7 17l4 14l2 14l3 16l3 14l1 16l1 14v16v14v15v13l-3 14l-3 14l-4 14l-4 13l-5 12l-5 12l-7 13l-5 10l-7 12l-6 11zM168 650l1 1h1l14 8l16 7l18 5h24l12 -1l13 -2l13 -1l8 -2v19h18l16 -7l14 -9l17 -11
l14 -13l11 -11l12 -12l8 -11l8 -11l9 -12l9 -10l7 -11l6 -11l8 -11l7 -12l5 -12l7 -13l5 -12l5 -14l4 -13l6 -14l3 -16l3 -16v-15v-15v-14v-16l-1 -16l-1 -16l-3 -16l-3 -16l-2 -14l-6 -16l-5 -17l-4 -14l-6 -15l-6 -12l-5 -12l-6 -11l-5 -12l-7 -10l-6 -10l-7 -10l-9 -11
l-5 -10l-7 -11l-8 -9l-8 -11l-8 -10l-8 -8l-8 -9l-10 -9l-10 -7l-11 -8l-11 -7l-11 -6l-12 -4l-10 -4l-11 -5l-18 -4l-19 -3h-19l-20 1l-19 2l-11 1l-11 4l-21 8l-12 6l-11 7l-10 9l-9 8l-10 12l-10 13l-8 13l-7 14l-9 18l-5 15l-5 15l-7 16l-4 17l-3 17l-3 14l-2 17l-2 17
v16v17v16v16v18v17l1 18l1 15l3 18l4 18l7 18l7 16l8 16l5 15l7 16l5 13l7 15l7 16l8 13l8 14l9 16l11 13l12 15l15 12l13 11z" />
    <glyph glyph-name="one" unicode="1" horiz-adv-x="470" 
d="M255 629v2v18v3l-2 -3l-5 -12l-7 -15l-5 -15l-10 -16l-4 -6l6 5l6 8l8 10l9 15zM275 49l-1 7h-2l-11 2h-9v-8l8 -1h12h3zM273 76l-1 10v10v10v10v11v17v11v12v11v12v12v13l1 11v11l1 14v14l1 12v15l1 15l1 16l1 15l2 13l2 18l2 17l2 15l4 19l2 15l2 16l3 16l2 13l1 13v14
v13v15v10l-2 12l-1 15v13l-1 13l-1 13v14v14v10v13l-6 -9l-7 -12l-4 -11l-3 -6l-1 -10l-3 -21l-3 -21l-3 -26l-4 -25l-1 -22l-4 -26v-23l-2 -25v-23l-1 -22l-1 -20v-21l-2 -19v-20v-19l-1 -19v-15v-18v-14v-15v-14v-14v-11v-11l1 -11v-18v-18l1 -15l1 -10h11zM310 33l8 -1
l13 -1l10 -2l8 -2l2 3l-1 8l1 7l-3 3h-7l-20 2l-16 2l-10 2v-4l-16 -2h6l11 -1h14v-14zM188 51h5l10 -1h11h11h7v8h-6h-12l-8 1v-4l-8 1l-10 -4v-1zM129 25l6 20l12 -4l1 19l13 3l11 4l10 3l5 3l2 9l15 -3l10 -1h12h6l-1 8l-1 17v18v18l-1 11v11v11v14v14v15v14v18v15l1 19
v19v22l2 19v19l1 20l1 22v23l2 25v25l4 26l1 22l4 25l3 26l2 12l-8 -10l-10 -9l-11 -10l-11 -7l-13 -8l-10 -7l-12 -7l-2 -1l-4 -3l-15 -10l-15 -7l-18 -5h-16h-15l-15 1l-14 4l-14 9l-7 13l18 8l3 -7l8 -5l10 -2h4l-11 5l-12 11l-7 14l18 8l5 -10l8 -7l11 -6l12 -2h18h11
l20 6l7 3l4 3l12 13l10 11l11 14l8 15l10 14l5 15l7 15l5 12l6 11l4 11l5 12l20 -2l5 -14v-7l6 10l5 9h20l8 -16l1 -22v-10v-14v-14l1 -11l1 -15v-13l1 -13l2 -12v-12v-15v-13v-14l-1 -15l-2 -15l-3 -16l-2 -14l-2 -17l-4 -19l-2 -13l-2 -17l-2 -18l-2 -13l-1 -15l-1 -16
l-1 -13v-15l-1 -12v-14l-1 -14v-11l-1 -11v-13v-12v-12v-11v-12v-11v-17v-11v-10v-10v-10l1 -9v-3h2l12 -2l16 -2l20 -2l15 -2l11 -15l1 -13l-1 -14l-12 -15h-18l-10 2l-13 1l-14 2l-14 1l-18 2l-18 2h-6l-4 -3l-3 4h-8h-17h-18h-18l-15 1h-17z" />
    <glyph glyph-name="two" unicode="2" horiz-adv-x="596" 
d="M410 519l1 4l1 15l2 17v13l-3 13l-6 13l-8 13l-12 16l-7 8l-10 11l-11 10l-7 7l-10 8l-11 6l-10 5l-10 6l-10 5l-13 3l-8 1l20 -9l18 -9l20 -10l14 -10l14 -12l11 -12l9 -13l10 -15l4 -13l6 -14l4 -16l1 -16l1 -16v-9zM443 42l4 3l9 7l7 8l8 10l5 8v5l-3 -5l-12 -16
l-14 -16zM118 117l-10 6l-13 3h-13h-17l-16 -2l-19 -4l-14 -7l-15 -11l-12 -11l-2 -10l3 -6l11 1h13l10 1l13 1h9l11 4l13 2l13 8l16 9l13 11zM139 135l-14 9l-16 10l-17 7l-17 5l-13 3l-14 2h-11h-12l-8 -1l-8 -4l-11 -13l-6 -10l-6 -13l-6 -15l-2 -8l11 11l17 13l18 7
l21 6l18 2h19h15l19 -5l14 -7l5 -3zM79 500v7h4l-5 15l-1 17v14v14l1 15l3 18l3 7l-1 -1l-7 -12l-10 -19l-5 -17v-16v-14l2 -13l3 -9l3 -7l9 1h1zM114 507v-20h-2l-18 -8l-1 3l-9 -1l-5 -15l-14 5l-13 16l-4 11l-5 13l-2 15v16v20l7 21l10 21l9 14l14 15l14 14l16 11h1l6 8
l10 8l10 7l12 7l11 8l15 7l13 6l13 5l18 1h14h11h14l15 -1l16 -2l15 -5l14 -5l10 -6l10 -5l11 -8l14 -8l7 -9l11 -10l10 -11l9 -10l12 -16l10 -15l8 -17l3 -17v-17l-2 -17l-1 -17l-6 -19l-9 -19l-7 -11l-6 -10l-5 -10l-6 -10l-8 -17l-7 -10l-5 -10l-2 -2l-1 -3l-12 -19
l-1 -3l-5 -9l-9 -13l-6 -12l-8 -11l-8 -11l-6 -11l-10 -11l-7 -11l-11 -13l-1 -1l-1 -2l-1 -2l-7 -9l-6 -7l-7 -10l-11 -14l-7 -9l-2 -3l-11 -15l-11 -13l-13 -16l-14 -16l-11 -15l-8 -10l5 -4l12 -10l12 -10l13 -11l10 -10l11 -7l10 -8l10 -9l9 -5l11 -7l10 -5l10 -4l11 -4
l11 -3l8 -2l3 -1h11h15h12h11l17 4l8 3l14 9l14 12l12 14l12 14l8 15l1 9l2 14v13l20 4l7 -15l1 -19l1 -12v-12l-3 -13l-7 -14l-8 -10l-9 -10l-11 -9l-10 -7l-17 -8l-17 -5l-16 -1l-16 -1h-17l-18 1l-13 2l-13 3l-9 2l-15 4l-12 5l-16 6l-15 7l-14 9l-14 9l-12 9l-13 8
l-14 7l-14 8l-12 7l-16 7l-8 -9l-11 -9l-11 -8l-12 -9l-12 -5l-14 -6l-14 -5l-15 -5h-15h-15l-13 1l-11 1l-22 7l-17 15l-1 20l2 19l5 13l6 17l6 15l8 12l15 17l14 8l14 1h12h13l16 -2l15 -3l17 -7l21 -7l16 -12l17 -10l1 -1l1 1l13 11l8 11l11 11l10 10l10 12l10 11l10 12
l3 4l9 13l11 14l6 7l2 3l9 12l2 3l9 14l11 13l10 13l9 17l11 14l11 17l9 14l1 2l6 12l8 11l8 15l10 21l10 21l5 16l4 16v13v15l-1 14l-1 14l-4 14l-4 14l-4 11l-8 11l-9 13l-9 10l-12 10l-12 8l-20 10l-16 9l-18 7l-16 3h-17h-18l-19 -3l-17 -4l-18 -5l-16 -7l-14 -8l-12 -6
l-4 -5l-9 -18l-5 -9l-6 -17l-3 -14l-1 -13v-14v-14l1 -13l4 -14l2 -5h10z" />
    <glyph glyph-name="three" unicode="3" horiz-adv-x="615" 
d="M391 489l-5 -7l8 9l7 11l6 10l5 12l4 10l3 12l3 10l1 10l2 12v9v11v11v11l-2 11l-3 12l-3 9l-8 7l-7 10l-6 7l-8 6l-11 10l-11 4l-11 7l-13 6l-17 7l-16 8l-11 2l-11 2l-13 2l-9 3h-15l-13 3l-10 1h-14l-10 1h-12h-11h-13l-9 -1l-8 -3l-8 -5l-8 -6l-8 -6l-7 -9l-7 -9
l-6 -11l-8 -11l-7 -8l-7 -15l-8 -13l-1 -3l1 1l11 11l14 12l14 11l16 11l16 8l19 6l14 3l15 2l17 2l16 1h17h15l15 -1l14 -4l15 -5l10 -5l13 -5l12 -5l11 -8l13 -9l9 -10l7 -11l8 -8l11 -20l6 -21l2 -12l1 -12v-10v-17v-11l-5 -20l-5 -12zM261 396l15 3l7 6l2 1l-11 -1
l-7 -5zM403 60l8 6l10 7l7 6l14 13l10 11l8 9l6 10l7 12l7 13l8 14l3 17l2 9l1 10v19l1 11v10v10v11v12l-1 9l-1 8l-9 14l-6 12l-8 10l-7 8l-8 12l-9 9l-11 11l-11 11l-11 12l-12 9l-13 9l-12 8l-15 8l-14 5l-8 2h-1l-8 -8l-9 -9l-12 -10h4h17h17l16 -3l14 -5l11 -9l13 -7
l13 -12l14 -12l13 -18l10 -19l5 -10l6 -11l10 -21l6 -20l3 -21l1 -17v-10v-17l-5 -19l-7 -19l-5 -12l-9 -14l-5 -9l-7 -10l-10 -14l-8 -9l-8 -7l-7 -8zM99 66l1 -1l12 -10l7 -6l15 -7l15 -8l18 -6l19 -3l18 -3l17 -1l18 -2h15h17h18h17l10 2l10 2l11 3l17 6l14 7l-16 -6
l-17 -5l-15 -2l-16 -3h-18h-17h-21h-20h-12l-13 2l-20 4l-13 3l-11 4l-22 9l-11 4l-11 7l-11 7zM275 425l4 1l10 3l7 3h-11l-8 -5zM95 497l-14 -14l-11 11l-12 19l-4 16l-1 6l-3 5l-1 11l-1 5v3v9v9v3v13l2 15v12l3 15l5 14l8 15l9 17l7 8l8 11l6 9l7 11l9 11l10 8l8 6l10 7
l14 5l13 1h13h11h12l10 -1h14l14 -1l11 -3h15l11 -3l13 -2l11 -2l13 -4l18 -8l17 -7l15 -6l11 -7l11 -6l13 -10l10 -8l8 -9l7 -10l8 -9l5 -13l5 -14l2 -13v-13v-11v-11v-11l-2 -12l-1 -12l-3 -12l-5 -12l-4 -12l-5 -12l-6 -12l-9 -13l-10 -11l-11 -9l-14 -10l-13 -8l7 -3
l17 -8l14 -10l13 -9l14 -11l11 -12l11 -11l11 -11l11 -11l8 -12l7 -8l8 -12l8 -12l9 -18l3 -12l1 -11v-12v-11v-10v-10l-1 -11v-19l-1 -12l-2 -11l-5 -19l-8 -18l-7 -13l-7 -12l-8 -12l-10 -11l-10 -11l-14 -13l-9 -8l-10 -7l-17 -11l-10 -7l-16 -10l-18 -8l-19 -8l-13 -3
l-10 -2l-12 -2h-19h-18h-17h-17l-18 2l-17 1l-20 3l-19 3l-22 8l-17 8l-15 9l-9 6l-14 12l-13 17l-6 9l-7 10l-5 10l-4 12l-5 11l-3 12l-4 13l-2 15v4l-5 14l-1 11l-2 14v17v12v2v17h20v-17l2 -17v-11l1 -11l2 -10l2 -12v-6l2 -3l3 -18l8 -16l10 -15l6 -9l6 -8l7 -7l18 -12
l9 -7l9 -5l11 -4l20 -9l11 -2l11 -3l20 -4l11 -2h10h20h21h17h16l14 3l15 2l15 5l14 4l11 6l13 8l13 10l7 8l8 7l6 7l10 14l5 8l5 9l9 14l5 10l5 17l5 15v15v10l-1 15l-3 19l-4 16l-10 19l-6 11l-5 10l-10 19l-9 14l-14 12l-11 10l-11 7l-11 7l-10 3l-12 3h-15h-17h-10h-11
h-8l-6 -4l-17 -10l-11 -4l-18 -7l-18 -7l-14 -2l-11 -3l-10 17l11 12l16 5l14 6l16 5l11 5l9 2l-14 11l5 12l6 12l12 13l14 9h17h12l15 -2h10l6 7l7 9l8 8l7 9l7 9l7 9l4 7l3 10l5 16v9v17v10l-1 10l-2 10l-4 17l-9 16l-8 8l-7 11l-7 6l-11 9l-9 6l-10 5l-13 5l-10 5l-13 3
l-12 4l-11 1h-15h-17l-14 -1l-17 -2l-13 -2l-14 -3l-15 -4l-14 -8l-14 -9l-14 -11l-12 -10l-11 -11l-11 -14l-7 -11l-3 -10l-1 -10v-3v-9v-7l1 -6l1 -6l2 -9l3 -7l-1 -1l2 -11l10 -15z" />
    <glyph glyph-name="four" unicode="4" horiz-adv-x="614" 
d="M337 643l-2 -3h-1l-9 -17l-7 -8l-10 -16l-7 -11l-6 -10l-6 -11l-7 -11l-8 -12l-5 -9l-7 -13l-7 -13l-10 -14l-8 -14l-8 -16l-13 -17l-11 -15l-11 -16l-12 -19l-14 -17l-10 -14l-14 -19l-10 -13l-9 -14l-10 -12l-8 -12l-9 -11l-10 -10l-5 -9l-11 -9l-8 -8l-6 -7h1l14 -3
l13 -4l12 -3l14 -3l18 -3l12 -2l16 -2l18 -2l15 -3l16 -3l18 -3l13 -2l16 -1l14 -2l16 -1l15 -1l15 -2h3v1v13v2v14v2v15v1v14v2v16v3v14v5v14v7v17v19v20v22v21v22v22v21l1 21v21l4 20l3 20l4 22l4 20l3 20zM388 708l-2 3l-2 -4l-10 -10l-8 -8l-2 -15v-29v-16v-16l-1 -21
v-17l-4 -20l-1 -15l-1 -17l-1 -20l-1 -18l-2 -21l-2 -22l-2 -21l-2 -24l-3 -21l-2 -21l-3 -19l-2 -19v-12v-5v-14v-3v-16v-2v-14v-1v-15v-2v-14v-2v-13v-1h6h12v6v10v10v11v11l-1 12v11v12v12v13v11v13v15v12v13v10v11v18v10v10l1 12l1 12l1 11v13v12l2 13l2 14v14l1 15
l1 14l1 13l1 14l3 14l1 10l3 12l2 11l1 10l3 18l2 15v13l6 15zM428 711l-6 -18l-11 3l-8 2l-3 -8v-11l-2 -15l-3 -18l-1 -10l-2 -13l-3 -12l-1 -10l-3 -12l-1 -14l-1 -13l-1 -14l-1 -13v-16l-2 -14l-2 -13v-10v-13l-1 -13l-1 -12l-1 -10v-10v-10v-18v-11v-10v-13v-12v-15
v-13v-11v-13v-12v-12v-11l1 -12v-11v-11v-10v-10v-6h10h14l13 4l15 3l14 4l12 4l15 7l12 7l11 6l14 8l10 -18l-14 -8l-11 -6l-14 -7l-15 -7l-14 -6l-16 -4l-15 -3l-15 -4h-16h-10v-3v-16v-17v-16v-17v-17v-17v-16v-12v-11h-20v11v12v16v17v17v17v16v17v16v3h-12h-5v-11
l2 -13l3 -14l1 -11l2 -14l1 -12v-10v-9l2 -15l1 -10l1 -11v-10v-10h-20v10v10v4h-18v15l1 12l1 10v12l1 12v12l1 13v16v15v9h-5l-15 2l-15 1l-16 1l-14 2l-16 1l-15 2l-18 3l-16 3l-15 3l-16 2l-16 2l-14 2l-18 3l-14 3l-14 3l-13 4l-12 3l-10 2h-9l-13 -11l-12 -7l-18 -6
l-19 3l-3 21l16 15l17 5h21h3l5 4l10 7l7 8l8 8l9 7l5 9l12 12l7 9l8 12l10 12l9 14l10 13l14 19l10 14l14 17l12 17l11 18l11 15l11 15l8 16l10 14l8 14l7 13l7 13l7 11l8 10l5 11l6 11l8 12l7 9l10 18l7 8l7 14l8 16l5 13l4 15l3 11l14 -3l10 10l12 12l16 8l13 -9l6 -5
l10 -1z" />
    <glyph glyph-name="five" unicode="5" horiz-adv-x="641" 
d="M127 609l-1 5l-1 15l-1 8l-4 1h-6l-9 -2l-4 -1l1 -3l4 -8l6 -6l12 -7zM201 27l4 -1l13 -2l16 -3h18l19 -1h11h21l9 1l11 3l14 5l10 5l12 6l12 6l21 10l10 4l10 4l15 8l14 11l8 7l14 11l6 8l5 9l7 9l7 9l10 17l5 10l4 11l4 9l2 9l2 10l3 12l1 9l2 11l1 9v17v11l-1 15
l-5 15l-8 13l-8 13l-11 11l-11 13l-10 12l-11 12l-9 6l-14 10l-7 6l-18 9l-14 9l-10 3l-18 5l-9 3l-18 4h-10l-11 1l-9 1h-10h-18h-17l-8 -1l-20 -6l-12 -3l-12 -5l-11 -3l-18 -5l-11 -4l-10 -4l-19 -9l-9 -6l-8 -4l8 3l13 7l16 5l16 6l17 6l16 7l16 3l14 3l14 2l14 1h14h13
h13l17 -1l14 -4l12 -4l14 -5l13 -6l12 -6l12 -6l11 -7l10 -8l8 -10l6 -9l7 -10l8 -11l7 -16l5 -11l5 -15l5 -13l3 -14l2 -13l2 -11l1 -11l1 -12v-10v-12v-11l-3 -14l-6 -12l-4 -13l-12 -16l-7 -9l-7 -8l-8 -10l-8 -8l-10 -9l-11 -11l-9 -8l-12 -10l-11 -7l-12 -5l-12 -5
l-20 -7l-11 -4l-11 -2l-10 -1l-12 -1l-11 -1l-12 -1h-14h-11h-13h-15h-13zM160 623v-6l-3 -12l-1 -7h2l9 -2h10h10h10l-7 5l-14 9l-12 9zM352 577l-2 6l13 3l11 4l11 4l11 5l13 6l-21 -7l-11 -4l-10 -2l-22 -5l-13 -2l-13 -3l-14 -2h-6l4 -1l11 -1h10h15zM479 638l-9 -6
l-10 -9l-11 -12l-15 -12l-15 -12l3 1l15 8l15 8l12 9l6 8l6 9zM495 670l5 -11l1 -14l-2 -13l-5 -12l-8 -11l-8 -10l-16 -11l-15 -10l-17 -8l-17 -7l-19 -5l-20 -1h-19l-16 1h-15h-10l-15 1l-13 3l-14 2l-14 5l-16 6l-5 1h-5h-11h-11h-12h-11h-10h-12l-11 2l-1 -6l-1 -15
l-2 -11l-2 -10v-1l-2 -15l-2 -12l-2 -13l-4 -12l-1 -12l-2 -15l-4 -12l-1 -13l-3 -13l-3 -11l-2 -5l3 2l9 6l21 9l12 4l11 4l18 7l11 3l12 3l12 5l22 6l12 1h17h18h10l11 -1l9 -1h12l20 -4l11 -3l18 -5l12 -5l16 -9l18 -11l9 -6l14 -10l9 -6l13 -14l12 -12l11 -13l11 -13
l10 -15l8 -15l7 -19l1 -19v-11v-17l-1 -11l-2 -11l-1 -11l-3 -12l-2 -10l-4 -11l-4 -11l-4 -11l-5 -12l-12 -19l-7 -9l-7 -9l-5 -9l-8 -10l-16 -13l-8 -7l-16 -11l-17 -10l-10 -4l-10 -4l-21 -10l-12 -6l-12 -6l-10 -5l-16 -5l-13 -5l-13 -1h-21h-11l-19 1h-20l-18 3l-13 2
l-13 2l-10 5l-11 3l-10 5l-11 6l-9 5l-10 7l-8 6l-12 8l-11 7l-11 8l-8 9l-7 10l-4 12l-5 12l-3 16l-1 14v12v14v14v20l4 17l20 2l6 -18l1 -18v-10v-11v-12l2 -9l2 -11l3 -11l3 -10l5 -11l4 -10l5 -8l12 -14l6 -5l10 -3l13 -4l11 -3l13 -3l13 -2h11h13h15h13h11h14l10 1
l11 1l12 1l10 1l9 2l9 2l18 7l12 5l10 5l9 5l12 10l7 6l11 11l10 9l8 8l6 8l7 8l7 9l10 14l4 11l6 10l1 10v9v12v10l-1 10l-1 11l-2 9l-2 13l-3 12l-3 13l-5 13l-5 11l-7 14l-6 9l-7 10l-6 9l-6 8l-8 6l-9 5l-12 6l-10 6l-13 6l-12 3l-12 4l-12 4l-13 1h-13h-13h-14l-12 -1
l-12 -2l-14 -3l-14 -3l-16 -5l-17 -6l-16 -6l-14 -5l-13 -7l-12 -5l-11 -6l-8 -6l-9 -6l-8 -8l-1 -2l-6 -10l-8 -16l-20 4v18l15 15l4 3l4 10l6 10l-7 5l5 12l2 14l3 17l3 11l2 10l3 11l5 13l8 20l5 19l4 17l5 17l1 4v10v11v13v13v1l-14 7l-14 9l-10 10l-8 16l1 17l14 9
l15 4h14l14 -9l2 -8l1 6l19 6l8 -10l8 -10l10 -7l12 -9l17 -9l14 -9l10 -3h1l11 1l14 1h11l11 1l14 1l12 2l13 3l13 2l22 5l10 2l9 2l21 9l10 2l16 10l7 6l6 6l11 15l6 12l17 -8z" />
    <glyph glyph-name="six" unicode="6" horiz-adv-x="591" 
d="M90 159l3 -7l-3 11l-5 12zM95 246v-6l2 -19l2 -10l3 -19l3 -11l3 -12l5 -11l2 -11l6 -9l5 -12l6 -10l5 -10l8 -9l8 -8l7 -9l9 -6l8 -7l10 -5l10 -6l16 -9l11 -6h2l22 -4l11 -2l11 -1l10 -1h11h8l8 2l11 5l10 2l9 5l19 10l10 6l10 5l9 7l9 9l9 9l6 7l5 10l5 11l7 18l2 9
l2 17l2 19v10v11v11v11l-1 9l-2 8l-4 11l-4 18l-4 9l-9 20l-7 16l-8 15l-9 15l-9 14l-11 12l-11 12l-14 11l-11 11l-14 8l-12 7h-5h-10h-13h-10h-10l-10 -2l-17 -5l-11 -4l-10 -6l-10 -5l-11 -10l-14 -11l-10 -11l-7 -10l-6 -11l-6 -12l-3 -11l-4 -13l-5 -14l-6 -14l-4 -13
l-3 -11l-4 -12zM112 305q0 -1 -1 -1h1v1zM448 145l4 4l4 9l6 11l6 18l3 10l1 11v12v15v11l-2 12l-2 12l-3 12l-2 12l-3 10l-3 10l-10 17l-7 9l-6 8l-6 9l-6 9l-6 7l-7 8l-8 7l-10 7l-9 6l-11 5l-11 3l-8 3l1 -1l14 -11l11 -12l13 -14l9 -16l11 -15l8 -17l7 -16l9 -20l4 -11
l6 -18l4 -11l2 -12l1 -11v-11v-11v-11v-10l-2 -21zM178 637l4 5l7 9l16 15l9 6l7 6l-12 -6l-10 -8l-10 -10l-9 -10l-9 -12l-9 -12l7 7l7 8zM410 554l2 3l13 -4l-1 7l-2 16l-2 10l-2 10l-2 8l-6 9l-5 11l-6 8l-7 11l-12 13l-7 5l-10 6l-8 7l-9 4l-11 4l-11 4l-9 2l-10 2h-2
l-12 -2l-11 -4l-12 -3l-2 -2l9 2h14h15l12 -2l14 -4l11 -6l9 -8l10 -10l7 -8l10 -11l6 -8l8 -12l7 -12l4 -14l5 -11l3 -14v-7zM410 527h-20v13v10v9l-3 10l-3 11l-4 12l-5 10l-8 10l-6 8l-8 9l-7 8l-10 10l-7 6l-7 4l-10 2l-10 2h-13h-12l-12 -2l-12 -3l-13 -4l-12 -4
l-11 -6l-8 -5l-11 -9l-5 -5l-6 -7l-10 -16l-8 -9l-5 -9l-5 -9l-6 -10l-7 -11l-5 -13l-5 -12l-7 -13l-5 -11l-4 -10l-3 -13l-3 -11l-3 -13l-4 -15l-2 -14l-3 -14l-2 -14l-2 -13l-1 -15l-1 -12l-1 -11v-12v-10v-7l2 6l8 16l6 11l13 18l12 14l17 14l12 7l11 8l9 5l1 1l16 12
l17 11l17 9l14 1h13h13l16 -3l15 -6h4l15 -3l14 -3l13 -4l13 -4l13 -5l13 -5l11 -8l10 -7l10 -9l9 -8l6 -9l6 -9l6 -9l6 -8l7 -9l12 -21l5 -12l3 -12l2 -12l3 -12l2 -12l2 -14v-13v-15v-12l-1 -15l-3 -12l-8 -20l-6 -11l-6 -13l-13 -14l-11 -14l-13 -14l-6 -7l-7 -11l-8 -10
l-7 -9l-9 -11l-10 -6l-11 -8l-12 -5l-12 -4l-20 -8l-14 -3h-13h-2l-15 -2l-16 -1h-18l-15 6l-16 5l-3 1l-5 1l-11 3l-22 8l-11 5l-10 5l-11 5l-11 8l-9 7l-9 9l-9 10l-7 9l-8 12l-5 9l-7 15l-5 11l-5 12l-7 18l-3 12l-5 16l-3 14l-1 14l-1 14v15v14v17v18l1 18l1 17v16l3 19
l1 15l3 16l3 15l3 14l4 16l4 18l6 18l6 15l5 16l5 14l5 15l6 17l7 14l7 16l6 12l8 15l10 13l9 12l9 12l11 12l12 12l12 8l12 8l13 6l12 5l16 3l15 1h13h14l8 -1l20 4h20l18 -3l14 -9l15 -12l12 -19l8 -17l6 -8l10 -16l9 -13l7 -17l5 -18v-14v-11l-1 -9l2 -9l-2 -1v-5h-4h-12
l-10 -1l-9 12v-4v-13zM85 175l-3 13l-3 19l-2 12l-2 19v20v11v10v11v12v12v12v10v12l1 13l-2 -9v-14l-1 -19l-1 -16v-18v-17v-14v-15l1 -12l1 -12l3 -12l5 -16z" />
    <glyph glyph-name="seven" unicode="7" horiz-adv-x="593" 
d="M149 597l8 -3l11 -2l12 -2l-12 3zM303 388l-5 -9l-5 -11l-4 -11l-2 -10l-7 -18l-1 -4l2 5l6 14l5 15l6 14zM320 424l-2 -3l-4 -9l2 3zM394 575l-9 -1l-2 -2l-9 -10l-10 -14l-11 -14l-10 -15l-9 -13l-8 -16l-9 -16l-8 -15l-8 -16l-7 -15l-6 -16l-6 -16l-7 -14l-6 -15
l-6 -15l-6 -16l-7 -15l-6 -14l-6 -13l-4 -13l-5 -14l-4 -13l-5 -14l-3 -13l-4 -14l-3 -13l-3 -12l-1 -14l-3 -12l-2 -13l-2 -11l-2 -11h1l3 10l4 12l4 10l6 12l5 11l5 14l4 17l5 15l7 18l5 16l5 18l3 12l1 10l1 11l2 11l2 11l7 18l2 10l6 13l5 11l7 14l7 14l6 14l7 14l7 13
l10 15l9 15l11 16l8 12l13 17l10 15l8 10l7 14zM73 658l1 -4l5 -10l4 -2l12 -5l9 -6l12 -3l13 -3l13 -4l13 -4l17 -4l12 -3l18 -3l13 -3l14 -2l19 -2l16 -1l17 -1l19 -1l16 -1h20h16l17 4l13 3l4 1l3 3l11 11l10 10l12 10l11 10l12 9l10 7h2l2 3l5 9l20 -4v-2l4 -1l6 -19
l-6 -7l-15 -14l-4 -3l-5 -4l-9 -8l-8 -6l-9 -9h-1l-2 -5l-1 -2l2 -4l-6 -3l-2 -4l-6 -10l-5 -9l-6 -9l-5 -9l-5 -10l-5 -9l-5 -10l-7 -11l-4 -10l-10 -13l-6 -12l-6 -12l-6 -11l-4 -10l-7 -13l-7 -16l-6 -12l-7 -15l-5 -15l-6 -14l-5 -15l-6 -14l-5 -12l-4 -13l-3 -14
l-4 -13l-3 -12l-4 -14l-4 -12l-2 -13l-7 -15l-4 -13l-4 -12l-5 -13l-5 -11l-4 -11l-4 -13l-4 -13l-8 -12l-5 -11l-9 -14l-7 -10l-2 -4v-4l-3 -10l-1 -13l-3 -10v-9h-15l-4 -12l-20 5l2 13l2 12l2 17l3 13l4 14l3 14l3 15l2 14l2 16l2 11l2 13l3 12l1 14l3 12l3 13l4 14l3 15
l7 14l4 13l5 14l4 13l6 15l6 14l7 15l6 16l6 15l6 15l7 14l6 16l6 16l7 15l8 16l8 17l9 16l8 16l11 15l10 15l11 14l7 9h-2h-13l-14 -2h-16l-17 -1l-17 -1h-17h-11h-10h-11h-13l-14 2l-10 1l-14 2l-12 2l-13 2l-20 8l-16 7l-17 8l-14 10l-14 10l-7 14l-2 1l-16 15l-10 16
l8 5l-1 2l17 10l9 -12l4 -9zM180 590l12 -2z" />
    <glyph glyph-name="eight" unicode="8" horiz-adv-x="556" 
d="M161 560v-1l4 -13l5 -18l5 -9l8 -16l11 -14l6 -7l11 -11l14 -12l15 -7l15 -8l16 -8l10 -6l4 -2l6 7l8 12l7 9l8 14l8 13l6 11l5 10l3 11l3 10l5 19l2 15v9v16l-6 14l-8 14l-9 14l-8 6l-7 7l-15 12l-15 8l-11 1l-11 2l-9 2h-19l-8 -1l-8 -4l-7 -5l-8 -7l-8 -11l-10 -10
l-5 -8l-8 -14l-3 -19l-1 -11zM199 454l2 -2l10 -9l8 -7l11 -8l11 -10l8 -7l11 -8l1 1l9 9l-9 5l-16 8l-15 8l-15 9zM294 672l9 -5l17 -12l9 -7l8 -8l13 -18l8 -16l8 -18v-20v-11l-2 -17l-5 -21l-3 -10l-5 -13l-5 -10l-6 -13l-10 -13l-8 -14l-6 -9l7 5l10 7l9 6l14 13l8 7
l6 8l11 15l8 14l5 12l3 12l1 9v13v8l-3 10l-4 10l-6 11l-5 11l-7 11l-10 11l-14 11l-13 12l-15 9l-14 8zM141 314l-4 -2l-7 -5l-6 -6l-6 -8l-6 -9l-8 -13l-9 -11l-9 -14l-8 -12l-6 -13l-6 -14l-4 -15l-1 -13v-18l1 -14l1 -15l2 -5l-2 20v18v10v14l3 13l4 13l9 17l7 12l8 10
l6 9l6 10l14 17l7 9l8 7l8 8h-2zM301 397l-10 -7l-5 -5l4 -2l11 -7l11 -9l9 -9l9 -7l10 -8l16 -14l8 -8l8 -9l7 -9l8 -12l6 -11l5 -10l7 -11l7 -9l5 -11l5 -12l6 -17l3 -11l1 -16l2 -16v-18l-2 -15l-6 -16l-5 -9l4 5l5 8l4 12l3 12v17l-1 19v9l-2 10l-1 10l-3 12l-1 10
l-3 10l-7 20l-3 10l-4 16l-7 14l-7 13l-8 11l-9 11l-11 12l-7 6l-16 11l-8 7l-8 4l-10 6l-12 6zM141 563v14l1 17l1 11l4 17l4 15l6 14l7 14l10 10l11 9l15 8l20 4h11h10h21l12 -1l20 -2l19 -5l18 -8l17 -11l15 -12l14 -13l12 -13l9 -13l5 -13l6 -11l4 -12l5 -12v-12v-13
l-1 -13l-5 -14l-5 -14l-10 -16l-11 -17l-8 -10l-8 -7l-16 -15l-9 -6l-10 -7l-9 -7l-9 -6l-2 -2l4 -5l10 -4l12 -6l10 -6l8 -7l16 -11l9 -8l13 -12l9 -13l10 -13l7 -15l7 -14l6 -18l3 -10l5 -20l5 -12l1 -10l3 -12l1 -12l2 -10v-11l1 -19v-19l-3 -16l-6 -14l-7 -12l-9 -11
l-8 -8l-15 -16l-9 -6l-17 -11l-17 -11l-11 -3l-10 -4l-11 -4l-12 -5l-12 -5l-13 -4l-10 -2l-10 -2l-19 -2h-11h-19h-7h-1h-11h-10h-10h-13l-12 4l-12 4l-11 5l-11 5l-11 7l-2 1l-4 2l-18 10l-14 12l-11 13l-6 10l-9 14l-5 17l-7 16l-1 17l-1 16v18l1 17l6 17l6 16l6 15
l10 14l9 14l9 11l8 11l6 11l6 8l8 10l11 7v2l9 1l2 1h1h1l13 3l18 5l19 8l13 7l12 7l11 9l14 10l5 6l-8 6l-10 9l-9 8l-11 8l-10 9l-10 9l-9 10l-8 10l-7 9l-7 10l-7 9l-9 20v12v10v11v11l1 12v1zM268 373l-3 -2l-9 -7l-10 -7l-9 -6l-15 -11l-15 -7l-13 -7l-13 -8l-13 -10
l-9 -6l-10 -10l-8 -7l-5 -7l-14 -17l-6 -8l-6 -11l-8 -10l-5 -10l-9 -15l-2 -11l-3 -9v-12v-10v-18l2 -19l4 -18l3 -12l3 -10l9 -15l12 -12l7 -6l4 -3l11 -4l18 -6l18 -6l18 -4l10 -2l9 -2h4h5l9 1l17 2l17 1l16 3l14 4l16 4l14 9l13 7l13 7l10 5l9 5l8 6l7 8l7 6l5 9l6 10
l7 11l4 12l2 13v14l-2 16l-1 14l-3 9l-4 17l-5 10l-5 9l-5 9l-8 11l-6 10l-6 11l-6 10l-7 9l-6 7l-8 8l-14 12l-10 8l-11 9l-9 9l-9 7l-9 5l-10 7z" />
    <glyph glyph-name="nine" unicode="9" horiz-adv-x="584" 
d="M77 587l1 5l5 23l-2 -4l-5 -10l-6 -11l-6 -12l-6 -10l-5 -11l-2 -10l-6 -17v-14v-10l2 -19l2 -8l4 -10l5 -10l5 -10l5 -10l6 -8l7 -10l6 -7l6 -6l-7 12l-9 15l-5 13l-7 13l-1 13l-1 15v14v17l2 16l2 16l5 16l2 10zM424 141l2 4l7 12l5 11l6 13l3 12l4 13l3 11l3 14l2 13
l1 11l1 12l1 11l1 11l1 10v11v10v10v11l-1 19l-2 11l-1 11l-1 10l-2 11l-2 11l-3 13l-3 12l-4 13l-4 12l-3 11l-4 12l-5 20l-3 10l-4 17l-6 17l-2 5v-2l-1 -16l-1 -9l1 -4l3 -14l2 -12l2 -14l3 -13l2 -21l1 -12l1 -13l1 -11l1 -13l2 -15v-12v-13l3 -14l1 -13v-16v-13v-14
v-15v-16v-11v-14v-15v-13v-16l-2 -13l-2 -13l-4 -10zM375 82l6 12l7 11l6 12l5 12l5 15l3 18l4 10l2 11l2 11v14v13v15v14v11v16v15v14v13v16l-1 11l-3 14v15v10l-2 15l-1 13l-1 11l-1 13l-1 12l-2 19l-3 13l-1 -5l-4 -11l-4 -11l-9 -22l-6 -8l-4 -11l-12 -15l-13 -14l-9 -7
l-11 -7l-9 -5l-11 -6l-20 -8l-12 -3l-7 -1l-17 -4h-12h-10h-15l-12 1l-10 2l-11 1l-19 4l-19 7l-21 8l-12 4l-10 8l-9 6l-10 8l-8 8l-8 9l-7 10l-6 10l-7 10l-5 12l-5 10l-6 12l-2 12l-2 21v10v18l6 19l4 10l5 13l6 12l6 12l6 11l5 10l6 10l5 9l7 10l6 10l9 12l3 7l12 20
l9 8l9 10l9 6l11 7l12 4l11 2l11 2h13h11h22l18 -3h10l18 -3l18 -6l15 -8l15 -10l15 -10l9 -6l13 -13l8 -8l11 -14l5 -4l4 -4l10 -16l7 -10l6 -10l5 -10l7 -16l7 -16l4 -14l8 -17l4 -17l3 -10l5 -20l4 -12l3 -11l4 -12l4 -13l3 -14l3 -13l2 -11l2 -13l1 -10l1 -11l2 -11
l1 -21v-11v-10v-10v-11l-1 -12l-1 -11l-1 -11l-1 -12l-1 -11l-2 -15l-3 -14l-3 -13l-4 -13l-5 -14l-6 -13l-5 -11l-7 -14l-7 -12l-7 -11l-8 -12l-13 -13l-10 -10l-8 -7l-1 -1l-8 -11l-10 -10l-9 -8l-14 -7l-15 -5l-10 -2l-6 -3l-11 -6l-13 -5h-16h-11l-7 1l-3 -1l-16 -2
l-17 -2h-18h-10h-10h-17l-18 2l-20 7l-9 8l-9 6l-10 6l-7 9l-15 15l-13 17l-9 23l-2 11l-2 20v11v16v14l2 15l5 13l7 14l21 1l9 -16l3 -13l3 -10l5 -14l3 -18l5 -17l6 -15l7 -12l7 -10l8 -11l10 -8l8 -5l15 -6l18 -8l16 -8l17 -6l11 -3l17 -3h2l12 2l18 4l17 4l11 2v1l11 7
l14 6l8 7l12 7zM365 643l-13 14l-6 8l-11 11l-9 6l-13 10l-15 8l-13 8l-14 4l-16 3h-10l-18 3h-20h-11h-11l-9 -2l-11 -2l-8 -2l-7 -5l-3 -2l10 1h10h10h20l18 -2l18 -2l10 -1l16 -2l16 -5l16 -7l15 -7l9 -7l13 -9l18 -13l14 -15l6 -5l-1 2v10zM80 192l-3 -8l-2 -13v-12v-16
v-9l2 -18l2 -9l7 -19l11 -13l13 -15l7 -7l8 -6l9 -6l7 -6l14 -5l16 -2h15h10h7l-14 7l-18 8l-15 6l-12 7l-12 10l-10 13l-7 12l-9 14l-6 17l-7 19l-3 16l-5 14l-3 10zM153 663l4 -20l-14 -2l-12 -9l-6 -6l-10 -14l-11 -13l-6 -13l-1 -4l-4 -26l-3 1l-3 -9l-2 -14l-2 -16v-15
v-14l1 -13l1 -9l5 -11l5 -11l9 -15l7 -13l10 -12l10 -10l11 -7l13 -8l15 -6l17 -4l19 -2l10 -1h12h12h13h10h2l1 1l9 2l9 5l16 9l11 7l12 10l6 7l11 14l9 15l7 9l5 9l10 18l9 16l3 8l1 5l2 10l1 16v17l-1 3l-2 12l-2 10l-1 2l-7 16l-10 13l-9 13l-9 8l-14 13l-16 13l-13 9
l-7 5l-13 7l-14 7l-14 3l-14 2l-10 1l-18 2l-18 2h-18h-10h-10l-7 -1l-14 -6l-13 -8l-9 -9v-1l-3 -12l-3 -12l1 1l10 10l16 11z" />
    <glyph glyph-name="colon" unicode=":" horiz-adv-x="300" 
d="M195 435v-1v-13l-1 -16l-15 -10h-17l-15 1h-16h-17h-14h-14l-14 10l-3 16v12v10l1 14l2 14l1 16l4 18l2 13l14 -3v2h10h12h13h15h15h14l18 -4l3 -17l1 -9l1 -16v-18v-6l6 -10zM97 17l-3 2l-1 -2h4zM144 119h2l13 1l13 3l13 -1l12 -16l-1 -3v-1v-1l-1 -2v-13l-2 -14v-15
v-10v-18v-12l-4 -17l-17 -3h-12h-11h-14h-13h-12h-17l-16 8l-2 17v11v13v13l1 15l2 13l1 15l2 11l20 -4l-2 9l14 3h15h16v-2zM107 487l11 11h-3h-7zM108 419l-7 -1l-6 6l-6 1v-3l-1 -6h4h8h9zM117 478l-10 8v-7h1v-19l2 2l1 16h6zM139 461l-4 -2l-4 7v-2l1 -6l5 -2l1 4z
M107 45l-7 1l-4 -9h-1v-3l10 10zM129 90l8 9h-5h-12h-10v1l-7 -2l-2 11l-2 -9l-1 -15l-1 -7h9l5 14zM138 31l-9 -12l-15 5l-4 -4l-3 -3h3h12h13h3v14zM157 90l12 12l-6 -2l-17 -1h-2l13 -4v-5zM158 24v-7h2h12l3 -3l-2 3v12v18v2h-14l1 -5l7 -2l-8 -18h-1zM131 421v-5h16
l15 -1h11h3l-1 6v13v7l-13 9l-5 3l-1 -3l-8 -8h12v-20h-14l-14 -1h-1zM132 491h13h2h18l1 -15l8 -8l-1 -2l2 -1v7l-1 14l-1 11l3 3l-4 -2h-14h-9v-3h-20v3h-1h-3zM165 69h8v2h-6z" />
    <glyph glyph-name="semicolon" unicode=";" horiz-adv-x="306" 
d="M122 496l-4 -1l-6 -3v-8v-3l1 1l9 13v1zM92 469v5v10v14l9 18l7 -4l6 3l14 1h10h10l3 2l7 -2h3l11 -1h12l16 -9l5 -16l1 -13v-11v-11v-10v-10v-13v-14l-8 -18l-18 -2h-11h-10h-15l-14 2l-13 2l-16 5l-10 15v13v12v14v12l-1 3zM118 88h-5l-3 -10l-2 -12l-2 -12l-2 -13v-2
l3 11l5 12l3 11zM161 460l-2 2l-2 2l-2 -5l-1 -3l7 -2v1v5zM145 490l5 3l11 -6v5v4h-9zM181 466l3 -5l1 -18l-3 -17l-7 -15l-3 -3h8l6 -2v6v10v13v10v10v11v11l-1 9l-1 8l-3 1v-1v-13v-15zM117 445l-4 3h-2v-11v-12v-7l2 -5l8 -1l13 -2l12 -2h8l-6 3v3l-9 -3l-20 8l-3 17z
M134 66l17 17l16 -7l6 -4v2l1 7l-3 3l-7 2l-10 2h-10h-10l4 -1l-3 -18zM130 35l-10 -10l-16 11l-1 -7v-8l1 -5l6 1l17 -2l6 -1l-3 14v7zM161 57l-4 3l-2 3l-4 -6v-5l1 -1l2 -1l-1 3zM102 -116v8l-3 -2l-9 -2l-6 -2l4 -2h9h5zM139 -89l5 8l2 5l-2 -3l-10 -10l-7 -5l5 1z
M182 -34l-2 -11l6 10v10v10l-1 -6zM158 -102l-2 -4l-9 -9l-9 -7l-1 -1l-12 -5l-12 -7l-16 -1l-17 2l-14 12l1 19l15 9l11 4l11 3l8 6l8 6l8 8l7 11l8 14l6 13v15v4h-1l-15 3l-10 2l-15 2l-14 3l-11 15v14l1 14l2 15l2 12l2 12l-7 12l21 14h16h10h14h12l14 -2l13 -6l9 -13
l1 -13l-1 -11v-10v-12l-1 -13l-2 -6l11 -9l5 -15l1 -13v-10v-16l-8 -14l-7 -11l-8 -13l-9 -11l-10 -9z" />
    <glyph glyph-name="less" unicode="&#x3c;" horiz-adv-x="645" 
d="M252 338l17 4l16 7l22 8l24 12l25 12l11 6l-5 -2l-14 -7l-14 -5l-15 -7l-14 -6l-14 -6l-12 -5l-13 -5l-12 -5zM417 429l-11 -3l-13 -6l-15 -3l-15 -4l-13 -5l-17 -3l-15 -4l-14 -5l-12 -5l-15 -6l-17 -8l-16 -8l-16 -10l-16 -7l-18 -10l-19 -10l-19 -9l-19 -11l-21 -10
l-19 -11l-17 -9l-14 -7l8 3l4 2h1l1 1l12 5l19 10l11 5l12 5l10 6l15 8l12 4l14 7l12 6l13 5l11 4l12 6l13 5l12 5l13 5l12 5l14 6l14 6l15 7l14 5l14 7l16 5l14 6l14 6l14 6zM316 130l4 -2l-14 11l-8 8l-11 8l-14 8l-14 7l-14 8l-15 8l-15 9l-17 7l-16 7l-18 6l-17 5l-17 6
l-16 6l-15 5l-20 9l-6 10h-1l-12 -5h-4l1 -1l14 -6l17 -7l18 -7l23 -10l18 -10l19 -11l16 -7l22 -9l17 -7l19 -8l21 -10l20 -10l17 -8zM246 143l-14 7l-19 8l-17 7l-22 9l-16 7l-21 11l-18 10l-21 10l-18 7l-17 7l-14 6l-13 7l-11 7v1l-4 -2l3 -1l9 -4l13 -9l13 -7l20 -8
l9 -6l9 -4l11 -6l11 -5l11 -7l11 -5l12 -5l12 -5l11 -6l13 -5l11 -6l13 -5l12 -3l16 -4zM527 482l6 -18l-22 -8l-16 -20l-16 -10l-23 -13l-20 -12l-24 -13l-22 -13l-26 -12l-25 -12l-24 -12l-22 -8l-18 -7l-19 -6l-17 -6l-18 -8l-17 -6l-17 -7l-17 -6l-13 -3l-11 -2l-10 -2
l-17 -4l-19 -9l-9 -1l-2 -1l2 -1l16 -7l13 -5l16 -6l17 -4l17 -7l18 -6l18 -7l17 -7l17 -9l15 -8l14 -8l14 -7l14 -10l13 -8l10 -8l12 -11l11 -6l13 -8l12 -7l11 -5l13 -6l9 -7l11 -6l10 -5l11 -7l10 -6l9 -5l10 -5l17 -6l21 -5l19 -5l16 -2l11 -2l-4 -20l-11 2l-16 2l-8 2
l5 -3l1 -1l13 -7l13 -12l-12 -16l-13 9l-12 9l-18 11l-9 5l-10 5l-11 5l-7 3l-7 3l-7 3l-11 5l-6 3l-16 7l-11 4l-12 7l-15 6l-13 6l-15 5l-12 5l-14 6l-11 4l-15 4l-14 4l-16 5l-15 2l-18 4l-12 5l-15 5l-11 6l-13 5l-11 6l-12 5l-12 5l-13 5l-11 7l-11 5l-9 6l-11 4l-9 6
l-18 8l-15 7l-13 9l-13 8l-9 17l17 18l11 8l13 8l12 10l16 9l17 9l19 11l21 10l19 11l21 9l17 10l20 10l14 7l16 10l18 8l17 8l15 6l14 5l14 5l17 6l17 3l11 3l15 6l15 3l13 4l16 6l13 3l15 6l12 5l18 5l13 3l16 2z" />
    <glyph glyph-name="equal" unicode="=" horiz-adv-x="630" 
d="M254 357l-15 1h-12l18 -1h9zM431 353l-5 1l-11 1l-13 2h-19h-21h-14h-22h-12h-14h-16h-14l15 -1l18 -1h22h21l22 -1l15 -1h18h20h10zM459 331h-8h-11h-12h-14h-16h-16h-22h-16l10 -2l13 -1h13h14h13h12h11h11l10 1zM349 152l-14 3l-18 3h-22h-31h-20l-14 -1l18 -3l22 -1
h22l24 -1h29h4zM114 152h1h17l-12 2l-14 2l3 -2zM282 117l-11 2l-18 2l-21 2l-24 3l5 -1l19 -3l20 -2l20 -2zM7 395l20 4v-8l8 -4l20 -6l11 -3l13 -3l15 -1l6 -1l15 6l17 1h14h13h15l12 -1h13l11 -1h14h15l15 -1h16h14h16h14h12h22h14h21h21l13 -2l11 -1l10 -2l10 -1l11 -2
l11 -2l22 -8l3 -6h15l15 2l6 -19l-20 -11l-17 -6l-15 -4l-12 -3l-12 -3l-14 -1h-11h-11h-12h-13h-14h-13l-15 1l-15 3h-16l-15 2l-16 1l-14 1l-15 3h-15l-16 1l-17 2l-15 1l-15 3l-16 1l-15 2l-14 2l-11 2h-10h-22l-20 3l-14 3l-24 10l5 15l-15 5l-16 12zM63 155l-2 20l15 1
l5 3l20 -1l10 -1l10 -2l9 -1h12h15h17h19l20 1l31 3h20h31h24l20 -3l18 -4l19 -2l16 -1l16 -1l16 -2l14 -3l11 -4l13 -1h13h3h11h3h8h2h16v-20h-16h-2h-8h-3h-11h-3h-13h-1l-21 -1l-19 -1l-22 -2l-26 -1h-9v-8h-19l11 -1h21h16l17 1h20h11l15 6l33 -1l2 -20l-18 -2l-12 -2
l-13 -1l-18 -3l-19 -2l-19 -3l-21 -1h-21h-21l-19 1h-19l-21 2l-20 2l-20 2l-19 3l-21 2l-20 5l-20 5l-18 7l-15 5l-5 2h-6h-23h-17h-21v20l24 1h3v4z" />
    <glyph glyph-name="greater" unicode="&#x3e;" horiz-adv-x="618" 
d="M134 97l9 4l28 12l24 11l-14 -5l-22 -5l-18 -6l-18 -7l-21 -6l-2 -1l11 1zM124 66l16 8l-11 -3l-22 -8l-22 -11l-21 -9l-7 -3l-11 -5l4 1l13 6l16 7l19 7l18 7zM-43 520l18 8l5 -14l6 -4l13 -9l14 -10l15 -11l18 -14l2 -2l4 6l10 -2l11 -2l13 -2l18 -3l17 -4l21 -4l19 -7
l17 -8l16 -7l20 -8l21 -11l20 -13l18 -12l18 -10l19 -11l19 -12l19 -13l16 -10l16 -9l17 -9l12 -7l16 -7l17 -7l17 -10l15 -8l14 -7l10 -4l16 -8l-6 -13l10 -3v-20l-24 -9l-24 -7l-17 -7l-10 -3l-30 -19l-32 -18l-31 -15l-33 -14l-26 -8l-28 -11l-5 -2l-18 -7l-4 -2l-33 -16
l-3 -1l-6 -4l-24 -12l-24 -10l-14 -6l-11 -5l-25 -12l-25 -11l-17 -8l-17 -1l-4 20l7 2l-20 -2l-4 20l16 4l11 2l6 2l3 1l19 9l2 1l-6 -1l-16 -1l-20 -2l-4 20l18 4l15 7l18 9l16 7l23 8l18 5l18 8l22 5l26 7l27 10l26 11l25 10l26 6l19 2l9 1l2 1l25 11l23 9l23 11l21 9
l13 6l14 5l1 -1l2 1l8 3l-7 4l-17 7l-20 8l-23 10l-23 10l-25 11l-26 11l-26 11l-29 11l-26 11l-30 14l-33 14l-27 11l-25 11l-25 13l-20 14l-19 15l-9 10l-3 1l-18 12l-18 14l-15 11l-14 10l-13 9l-10 8zM299 349l-18 10l-18 12l-18 12l-20 11l-19 11l-20 8l-16 7l-17 8
l-17 5l-19 4l-17 4l-17 3l17 -10l21 -9l21 -9l22 -11l22 -10l22 -11l23 -10l23 -9l23 -10z" />
    <glyph glyph-name="question" unicode="?" 
d="M271 197v2l6 15l4 11l6 19l7 14l7 14l8 18l4 10l9 19l3 6l-7 -8l-6 -8l-9 -13l-10 -12l-8 -12l-7 -12l-4 -10l-5 -11l-3 -11l-5 -15l-3 -15l-2 -9l-1 -12l1 1l9 11zM328 284l12 16l10 13l6 11l11 15l7 9l6 9l13 17l6 9l7 9l6 9l6 8l3 6l-9 -8l-10 -7l-8 -8l-9 -9v-1
l-8 -10l-8 -16l-12 -15l-7 -14l-5 -9l-5 -9l-9 -17zM266 159l-4 -3l-10 -9l-18 7v11l1 12l1 14l2 11l3 15l5 17l5 13l5 11l4 12l9 12l8 14l10 12l9 13l6 8l7 8l8 10l15 14l7 8l7 8l17 14l7 6l2 2l7 9l7 9l8 10l8 9l8 11l11 12l10 9l9 9l10 9l8 7l11 11l9 9l7 10l11 11l10 12
v1l5 17l4 15l1 13v15v15l-2 12l-5 11l-7 13l-7 9l-7 8l-10 9l-8 9l-10 9l-9 7l-13 8l-12 7l-12 6l-14 4l-18 6l-7 2h-11h-16h-17l-14 -1l-15 -1l-14 -3l-16 -4l-15 -3l-15 -5l-16 -5l-14 -6l-16 -8l-12 -4l-14 -6l-12 -5l-11 -6l-5 -3l-3 -3l-9 -10l-7 -12l-4 -13v-13l1 -17
l6 -18l5 -10l6 -10l5 -9l6 -7l13 -11l13 -4h7l15 2l17 10l17 -17l-6 -15l-7 -11l-9 -10l-10 -9l-16 -6l-16 -2h-2h-1l2 -8l-13 -3h-15l-16 1l-15 12l-8 14l-8 12l-7 12l-7 16l-5 17l-2 11l-1 19v10v11v13l6 15l6 12l5 11l7 12l11 12l10 9l10 4l12 7l10 7h1l1 1l14 9l14 10
l17 8l13 5l16 5l16 5l18 4l6 1l1 1l15 3l13 3l16 2l14 1l16 1h15h16h15l15 -1l12 -2l16 -4l12 -5l13 -4l13 -6l13 -5l10 -8l10 -7l3 -2l4 -3l8 -6l10 -9l3 -4v-1l6 -9l6 -8l12 -17l7 -20l4 -11l1 -17l1 -12v-11v-13l-4 -22l-6 -11l-4 -11l-9 -10l-7 -10l-8 -10l-8 -10
l-8 -10l-8 -8l-7 -5l-6 -8l-6 -9l-6 -9l-7 -9l-8 -10l-6 -8l-6 -11l-7 -8l-6 -9l-6 -10l-6 -9l-7 -9l-6 -9l-13 -17l-6 -9l-7 -9l-11 -15l-6 -9l-10 -15l-12 -15l-4 -9l-9 -15l-6 -9l-11 -16l-8 -12l-9 -14l-8 -10l-2 -12l-4 -20zM463 725l9 -7l12 -11l8 -9l10 -9l9 -10
l7 -11l3 -3l-2 5l-7 16l-4 7l-7 7l-8 7l-6 5l-4 3l-10 5zM203 529l-20 -4h-13l-19 6l-17 15l-8 9l-7 11l-6 10l-5 12l-8 22l-1 21v3l-1 -2l-3 -10l-2 -17v-19l4 -16l3 -15l8 -11l7 -9l7 -8l12 -11l10 -7l9 -2h11l14 2l10 4l6 5l7 8zM209 108l3 6l7 -3l11 3l12 2l14 2h15h10
h12l13 -1l14 -10l7 -12l7 -13l4 -13v-11v-13l-1 -12l-2 -13l-1 -17l-13 -12l-16 -1h-13h-16l-11 2l-9 2h-10h-12l-19 3l-14 12l-1 16l1 15l1 11l3 15l1 9v14v13l1 2l-1 4h3zM228 24l9 13l1 3l-18 -18l-1 -5l4 -2l13 -1h5zM288 86l9 -2l12 -12l3 3l-1 5l-3 5l-8 2h-9zM269 71
l-5 -3l-2 -3l1 -1v-1l6 4l17 -10v-6l3 1l1 6l1 6l-4 2l-11 3zM264 93l5 5h-11l-12 -2l-12 -2l-8 -2v-3v-14l-1 -11l-1 -5l7 10l19 21l3 -4l2 10zM294 27l-19 -15l-16 12l5 10l-2 1l-4 -5l-12 -16h12l11 -2l9 -2h14h13l8 -1l3 2l-1 11l2 13l1 10v6l-1 -1l-7 -8l4 -6l-2 -20
l-17 -4z" />
    <glyph glyph-name="at" unicode="@" horiz-adv-x="968" 
d="M343 363l-1 -6v-13v-15v-13l2 -14l2 -13l3 -14l3 -12l4 -12l5 -12l5 -12l5 -9l4 -6l4 -3l9 -2h14h13l-9 3l-13 7l-9 10l-7 11l-7 12l-5 11l-6 16l-2 13l-4 17l-3 14l-3 14l-3 16zM590 325v-6v-19v-2l8 16l8 14l7 15l4 16l3 14l4 17l1 13l2 16v14l1 12l1 17l1 15l-4 -8
l-4 -17l-5 -15l-4 -14v-7v-13l-2 -14l-2 -15l-4 -14l-5 -12l-6 -16zM456 201l-1 -1l-16 -7l-18 -6h-19h-6l7 -4l9 -3l21 -3h13h13l15 3l14 7l15 8l11 7l14 8l7 7l7 8l7 10l7 9v1v1l1 15l2 16l1 4l-4 -5l-6 -9l-10 -11l-14 -15l-8 -7l-13 -13l-15 -10l-14 -7l-18 -3h-2z
M741 223l-8 -6l-14 -8l-12 -9l-11 -5l-7 -3h9l8 3l10 4l7 6l11 10zM847 466v-3v-16v-16l-1 -17l-3 -16l-2 -14l-2 -8l2 5l4 15l3 14l1 15v15v17zM616 232l12 -6l10 -5l9 -3l13 -1h14h12l10 3l8 5l14 10l7 8l8 7l8 9l9 12l5 9l8 15l8 14l5 10l3 11l3 12l1 11l4 13l3 18l3 13
l4 16l1 14l2 14l2 15l1 14v16v15v14v14l-1 11l-2 12l-4 13l-3 16l-6 12l-5 10l-7 9l-4 6l-8 9l-11 11l-12 11l-14 9l-12 10l-5 3l-5 3l-13 4l-11 3l-12 3l-12 4l-9 2l-11 2l-10 2l-12 2l-9 2h-10l-14 1l-11 1l-11 1h-14h-14h-14h-16l-14 -3l-18 -4l-17 -4l-13 -3l-18 -5
l-11 -6l-16 -10l-16 -9l-16 -9l-18 -13l-13 -10l-16 -12l-13 -12l-13 -13l-12 -13l-12 -17l-11 -14l-11 -14l-9 -14l-8 -15l-9 -15l-8 -15l-7 -14l-3 -17l-5 -15l-5 -17l-4 -15l-2 -16l-3 -19l-3 -14l-2 -20l-1 -19v-19v-18v-17l2 -18l4 -15l4 -17l7 -15l6 -16l7 -14l9 -11
l9 -13l10 -10l11 -12l11 -13l12 -10l11 -10l12 -8l13 -6l14 -7l13 -6l16 -5l15 -5l16 -4l10 -3l10 -1l13 -3l16 -1h22v-4h3l15 -1l13 -1h15h15h12h15h14h11h13h10l8 1l23 5l19 4l11 3l18 6l10 4l10 5l10 4l10 4l16 9l13 9l15 11l9 7l13 11l13 10l11 8l4 3l2 2l11 10l8 8
l10 12l16 -12l-11 -17l-10 -7l-8 -8l-5 -4l-7 -7l-13 -12l-11 -12l-17 -12l-9 -8l-14 -9l-12 -8l-12 -6l-13 -6l-14 -6l-13 -4l-12 -5l-14 -4l-11 -3l-13 -1l-24 -4l-14 -1h-3l-10 -1l-12 -2l-10 -1l-11 -1l-21 -1l-19 -2h-11h-11h-11h-10h-11h-11l-13 1l-14 3l-10 3l-13 2
l-12 4l-12 4l-12 5l-11 5l-1 1l-11 1l-12 4l-11 5l-10 4l-13 5l-10 7l-11 5l-10 7l-11 7l-10 10l-10 9l-8 7l-9 10l-10 9l-12 12l-7 10l-9 13l-8 13l-8 15l-6 14l-7 15l-5 16l-6 15l-7 12l-4 14l-5 11l-3 13l-2 14l-1 13v13v14v12l2 14l1 15l2 15l2 15l3 14l4 14l3 14l7 17
l5 12l8 14l6 10l8 12l9 13l8 11l8 10l7 9l8 11l11 12l11 10l12 11l12 8l13 10l12 8l14 8l10 7l8 5l3 4l13 8l14 10l13 8l10 7l14 7l11 6l12 7l12 5l13 5l13 5l14 5l17 5l13 3l17 4l14 3l14 2l15 2h15h14h11h15h13h13l12 -2l11 -2l11 -4l12 -4l10 -4l10 -4l12 -4l10 -4l10 -5
l10 -7l18 -12l9 -9l9 -8l12 -9l11 -12l10 -11l11 -11l10 -11l9 -13l8 -13l9 -14l6 -15l4 -15l1 -5l5 -13l6 -16l6 -16l3 -15l3 -15l3 -14v-19v-15l-1 -17l-3 -16l-6 -19l-8 -17l-9 -21l-12 -25l-14 -20l-12 -18l-13 -18l-12 -15l-10 -14l-10 -13l-11 -11l-11 -10l-11 -10
l-12 -4l-12 -5h-15h-12h-12l-13 1l-14 4l-12 6l-12 8l-9 10l-9 10l-7 14l-5 13l-3 5l-1 -16l-4 -15l-15 2l-1 -1l-9 -10l-9 -9l-16 -10l-11 -7l-17 -8l-16 -7l-19 -5h-15h-15l-23 3l-13 5l-11 6l-9 8l-8 10l-6 8l-5 3l-15 12l-9 17l-7 18l-8 18l-6 12v12v11v11v11v14l1 14
l2 15l3 12l4 13l5 12l4 13l8 14l6 12l7 15l8 15l8 13l10 11l8 9l2 3l5 7l10 15l8 13l10 11l8 10l15 10h17h12l18 -3l20 -7l9 -3l13 -6l10 -11h1v-1l9 -8l9 -8l9 -10l7 -9l8 -7l8 -11l8 -10l4 -11l3 7l5 13l5 14l3 13l4 13l4 11l3 21l20 -2v-20v-13v-13v-15l-2 -21l-1 -16
l-1 -17l-1 -10v-16l-2 -16l-1 -13l-4 -19l-3 -14l-6 -18l-7 -17l-8 -16l-10 -19l-13 -19l1 -9l6 -11l5 -13l5 -9zM799 324l3 7l4 10l5 12l3 10l3 12l4 13l2 14l3 14l1 15v16v16v14v14l-1 13l-1 16l-1 16l-1 6v1l-2 4l1 -5l1 -13v-14v-14v-15v-16l-1 -16l-2 -15l-2 -14
l-1 -16l-4 -16l-3 -13l-3 -18l-4 -13l-1 -11zM307 635l-4 -5l-13 -11l-13 -11l-13 -11l-11 -12l-15 -16l-14 -14l-13 -13l-11 -13l-12 -14l-9 -9l-7 -8l-7 -9l-5 -10l-5 -11l-4 -12l-6 -13l-3 -12l-4 -12l-3 -14l-1 -12v-14v-14l1 -15v-14l1 -15l2 -14l3 -15l3 -14l2 -15
l4 -13l3 -12l3 -5l-2 16v19v18v19l1 21l2 20l3 16l3 17l2 18l4 17l5 17l5 15l5 17l7 16l8 17l9 15l8 15l11 16l11 14l11 14l12 17l14 15l13 13l15 14l16 12l-9 -5zM496 541l-20 -2v5l-14 -3l-16 -9l-7 -7l-12 -11l-11 -9l-9 -9l-7 -9l-4 -5l-9 -14l-12 -19l-2 -5l-5 -11
l-3 -12l-2 -9v-10v-12v-11v-14l1 -12l3 -14l3 -14l3 -14l4 -17l2 -13l4 -12l5 -11l5 -10l7 -9l5 -6l9 -5l16 -5l18 -2h2l11 7l8 6l11 9l10 8l8 7l9 7l8 9l9 9l7 9l7 9l5 11l5 9l7 14l7 14l6 15v3l3 20l2 12l1 12l1 12v10l-1 8l-3 8l-5 10l-8 19l-8 17l-6 9l-6 14l-9 10l-8 7
l-8 4l-10 5h-1h-6v-3z" />
    <glyph glyph-name="A" unicode="A" horiz-adv-x="780" 
d="M161 280l3 6l2 11l6 13l4 13l6 14l5 12l5 13l5 12l3 12l4 13l4 12l4 12l3 12l2 10l2 14l3 12l3 12l4 11l4 12l5 11l2 11l6 17l1 3l-3 -5l-4 -11l-4 -12l-4 -12l-4 -12l-4 -12l-5 -10l-6 -13l-4 -11l-7 -12l-4 -10l-3 -10l-3 -12l-4 -15l-4 -13l-5 -15l-6 -15l-4 -16
l-4 -17l-5 -17l-5 -13l-1 -3l3 -1zM433 260l-2 9l-1 11l-2 7l-3 10l-1 5l-2 6l-3 13l-1 3v1l-1 2l-4 15l-5 16l-5 17l-6 16l-7 17l-5 17l-4 17l-2 10l-4 16l-4 16l-5 17l-5 17l-4 16l-3 16l-1 10l-3 13l-2 8l-5 14l-7 16l-6 11l-5 12l-9 20l-5 11l-1 2v-4l-5 -8l-6 -11
l-7 -17l-7 -17l-3 -11l-4 -10l-2 -9l-2 -11l-6 -17l-2 -11l-6 -19l-4 -11l-5 -11l-2 -12l-4 -11l-3 -12l-3 -10l-2 -14l-2 -10l-3 -14l-6 -12l-2 -12l-4 -13l-5 -12l-5 -14l-5 -13l-5 -12l-6 -14l-4 -11l-4 -13l-4 -11l-1 -5l9 -3l16 -4l16 -3l15 -3l10 -1l13 -1l17 -3
l13 -2l13 -2l12 -1l13 -1h14h14h14h12h12l11 1l10 2l10 3zM59 259l-6 -18l-19 7l-8 21l4 21l22 12l15 4h17l17 -2l15 -8l13 -6l6 -2l2 3l3 13l5 17l4 17l6 16l6 15l3 15l4 13l4 13l3 14l5 12l4 10l7 12l4 11l6 13l5 10l4 10l4 12l4 12l4 12l4 13l7 13l4 13l5 11l4 11l6 12
l4 10l4 12l4 12l5 12l6 12l9 13l11 11l15 3l17 -3l11 -10l7 -10l5 -13l5 -14l4 -12l2 -15l2 -13l4 -14l3 -13l2 -8l5 -15l7 -13l6 -15l5 -15l5 -14l2 -14l4 -13l2 -12l2 -11l2 -12l2 -10l3 -12l3 -11l4 -11l3 -13l3 -13l2 -12l3 -13l2 -12l1 -4l4 -12l1 -7l3 -9l1 -6l2 -6
v-2l1 -2l6 -16l7 -17l4 -16l5 -14l6 -17l6 -16l4 -15l3 -15l7 -16l7 -13l6 -13l6 -10l6 -10l5 -9l8 -11l6 -9l8 -10l7 -8l9 -9l11 -8l10 -6l7 -3h8l8 -1l5 5l7 7l4 11l3 10l1 11v10v5l-6 2l10 18l12 -8l4 -15v-12l-1 -15l-5 -14l-6 -13l-9 -11l-11 -9l-16 -1h-12l-13 5
l-12 8l-11 8l-11 11l-9 10l-8 10l-6 9l-8 11l-7 11l-6 10l-6 12l-6 13l-4 7l1 -4l3 -11l7 -17l7 -18l8 -13l7 -12l6 -9l7 -12l9 -10l11 -8l12 -11l9 -9l11 -5l13 -3l12 -1h8l15 5l7 4l14 11l6 7l4 6l1 11v7l-4 7l-7 5l14 16l9 -9l8 -13v-15l-3 -15l-6 -12l-8 -9l-16 -13
l-11 -6l-19 -7h-12l-16 1l-15 5l-15 7l-13 9l-12 11l-11 10l-11 12l-7 14l-6 7l-9 14l-8 15l-7 18l-7 19l-5 13l-2 11l-3 10l-2 10l-3 12l-2 12l-3 11l-2 10l-3 11l-3 10l-3 13l-2 12l-5 -3l-12 -3l-12 -2l-13 -1h-12h-12h-14h-14h-14l-15 1l-12 1l-13 2l-15 2l-15 3l-13 1
l-10 1l-17 3l-16 3l-18 4l-11 4l-4 -10l-5 -11l-3 -9l-5 -20l-7 -19l-7 -19l-6 -17l-7 -15l-7 -15l-8 -16l-7 -13l-6 -16l-5 -14l-5 -15l-6 -12l-7 -11l-9 -13l-15 -6l-14 15l5 12l13 -4l4 6l5 11l6 10l5 13l5 14l6 18l7 15l8 14l7 15l7 15l6 15l7 19l5 19l5 20l5 11l5 11
l3 7h-1l-6 2l-1 -5l-5 -14l-7 -13l-5 -11l-7 -12l-6 -11l-4 -11l-6 -12l-5 -11l-4 -10l-8 -14l-6 -15l-5 -14l-3 -11l-3 -10l-2 -11l-3 -16l-4 -13l-9 -14l-16 12l7 10l2 9l3 16l2 11l3 12l5 11l5 14l6 17l8 14l4 10l5 11l6 12l4 11l6 13l7 12l5 11l7 11l3 12l2 5l-7 3
l-13 6l-13 6l-13 2h-13l-11 -2l-12 -6v-7l2 -9z" />
    <glyph glyph-name="B" unicode="B" 
d="M75 398l-3 -5v-7l3 -3v3v10v2zM520 544l2 4l4 15l3 14v15v15v13l-3 11l-4 11l-6 10l-8 10l-8 10l-11 11l-11 9l-12 8l-8 7l-11 5l-12 6l-10 3l-13 4l-12 1h-15h-14h-14h-15l-13 -1l-13 -1l-11 -1l-13 -3l-13 -2l-15 -3l-12 -4l-15 -4l-12 -4l8 1l10 3l18 1l12 1h11h10
l19 1h10h19l20 -3l20 -7l19 -8l17 -8l14 -9l15 -9l9 -6l15 -12l10 -10l8 -7l9 -11l11 -16l5 -16l3 -13l2 -15zM269 20h15l19 1h17l16 1l16 2l11 1l14 2l12 1l11 4l11 3l10 3l11 5l10 6l11 5l9 4l10 9l10 7l5 4l-12 -4l-17 -8l-19 -7l-18 -5l-18 -6l-13 -4l-13 -3l-14 -2
l-10 -3l-14 -3l-12 -3l-13 -3l-12 -2l-12 -2l-14 -2zM96 371v8v16v3h-1v-2v-10v-11v-3zM116 368h8h16l19 2l9 1l12 3l11 2l10 2l18 4l-6 1l-19 2l-10 1l-15 1l-15 1l-12 2l-14 2l-12 4v-1v-16v-11zM155 660l-1 -1l-6 -10l-5 -9l-6 -11l-6 -11l-3 -13l-4 -14l-4 -14l-3 -13
l-1 -15l-1 -14v-15v-17v-10v-10v-10v-10v-20v-18v-9h3l14 -4l14 -2l10 -2l15 -1l15 -1l10 -1l19 -2l13 -2l9 -1h13l10 -2l10 -1l11 -1l5 -1l2 1l10 1l14 4l17 5l13 5l10 4l13 5l15 8l14 7l14 7l8 5h1l4 2l13 9l12 8l12 7l6 5l8 6l2 2l7 7l9 11l7 12l3 12v15l-1 15l-2 13
l-3 13l-3 12l-9 12l-7 9l-8 7l-10 10l-13 10l-7 6l-15 7l-14 9l-15 8l-19 8l-16 5l-18 3h-17h-10l-19 -1h-10h-11l-10 -1l-16 -1l-10 -3l-18 -2l-15 -3l-13 -3l-12 -5l-13 -5zM134 51l-18 -8l-6 11l-1 18v13l-2 14l-1 10l-2 17l-1 17l-1 11v16v20l-1 15v18l-1 16l-1 17
l-1 16l-1 16v16l-1 17v15v15h-1v-8v-10v-11v-11v-11v-10v-10v-10v-11v-17v-11v-17v-19v-17v-11v-11v-10v-17v-10v-17v-16l1 -10l2 -16l4 -11l-18 -8l-6 15l-2 18l-1 12v16v17v10v17v10v11v11v17v19v17v11v17v11v10v10v10v11v11v11v10v11v3l-11 8l-10 15l-2 17l11 17l12 3v1
v11l1 11v11l1 11v11l2 10l1 15v12l2 17l2 17l2 15l2 14l2 14l3 14l3 13l5 12l5 11l7 13l8 9l12 9l9 8l8 7l9 6l9 7l9 7l15 7l12 5l13 6l14 6l15 4l14 4l15 3l13 2l13 3l13 1l13 1l15 1h15h14h14h15l16 -1l15 -4l12 -5l12 -6l13 -7l10 -7l12 -8l13 -11l11 -11l10 -12l8 -10
l8 -14l4 -13l5 -13v-17v-15v-17l-3 -16l-6 -19l-9 -16l-10 -15l-10 -15l-13 -14l-12 -10l-4 -4l-5 -4l-4 -3l-13 -8l-13 -8l-10 -7l-10 -6l-1 -1l-8 -5h-1l-4 -3l-12 -6l-11 -6l-11 -5l-11 -5l-9 -5l-10 -5l-11 -3l-6 -3l10 -1l12 -5l6 -2l4 -1l15 -3l11 -2l15 -4l12 -5
l14 -7l10 -6l11 -8l13 -8l11 -8l12 -10l6 -5l4 -3l5 -6l5 -4l10 -10l7 -10l8 -8l6 -9l8 -12l5 -14l4 -13l3 -15l1 -15v-14v-13v-15l-5 -13l-6 -10l-6 -9l-5 -7l-6 -10l-8 -11l-9 -10l-10 -9l-11 -10l-10 -7l-12 -9l-11 -6l-9 -5l-12 -6l-11 -5l-12 -5l-11 -3l-13 -4l-14 -1
l-14 -2l-11 -1l-16 -2l-18 -1h-17l-19 -1h-21h-12l-11 -1h-12h-14h-14h-11h-11h-12v13h-9l-11 -1h-13h-12h-11h-12l-11 1h-12l-18 7l-14 10l-10 12l-7 17l-1 15l2 15l21 12h26v-20h-22l-9 -2l2 -5l1 -11l5 -11l6 -8l10 -6l12 -5h8l11 -1h12h11h12h13l11 1h11h14l13 1l15 1
l13 1l15 1l10 2l14 1l10 2l14 2l12 2l12 2l13 3l12 3l14 3l10 3l14 2l11 3l13 4l18 6l18 5l17 5l17 8l13 5l11 6l10 6l9 8l9 10l7 11l6 12l1 12v17l-1 15l-3 15l-3 16l-7 15l-6 15l-9 14l-6 7l-9 9l-5 4l-4 3l-11 9l-17 12l-10 5l-12 6l-10 6l-10 5l-11 5l-11 4l-9 4l-11 2
l-12 5l-2 1l-10 2l-16 4l-12 2l-10 1l-12 2l-15 2v4l-16 -4l-19 -4l-12 -2l-9 -1l-18 -4l-10 -2l-11 -2l-12 -3l-11 -1l-19 -2h-18h-8v-12v-15l1 -17v-16l1 -14l1 -16l1 -17l1 -18v-18l1 -15v-20v-16l1 -9l1 -17l2 -17l1 -10l2 -14v-15l1 -12z" />
    <glyph glyph-name="C" unicode="C" horiz-adv-x="802" 
d="M563 623l-4 -6l-8 -15l-4 -10l-6 -16l-1 -13v-16l1 -9l4 -12l3 -12l6 -9l5 -9l5 -7l7 -5l9 1l8 1l4 6l6 9l2 11v14l-2 15l-3 15l-5 17l-5 16l-7 14l-8 12zM576 231v1l-1 9l13 1l1 1h1h5l1 -7l7 -7l-7 -7v-10l-1 -14l-5 -12l-6 -12l-7 -12l-7 -12l-9 -16l-14 -16l-8 -10
l-8 -8l-8 -8l-17 -14l-8 -6l-9 -6l-15 -10l-15 -10l-14 -8l-19 -10l-15 -6l-18 -7l-16 -3l-15 -4l-19 -3h-20l-18 -1h-10h-10h-18l-19 1l-12 4l-17 7l-20 8l-8 7l-18 9l-19 12l-8 9l-15 14l-10 8l-15 17l-4 8l-1 -2l-5 -10l-5 -12l-10 -14l-6 -8l-11 -12l-12 -9l-11 -9
l-13 -8l-13 -9l-12 -6l-12 -5l-13 -3h-13h-11l-16 4l-13 8l-11 12l-6 13l-4 18l-1 12l2 17l28 8l4 -20h-16l2 -5l1 -10l2 -14l4 -7l7 -8l9 -6l10 -2h9h11l9 3l10 3l10 6l13 7l11 8l11 9l10 7l9 10l6 8l8 12l5 10l5 10l3 10l1 6l-5 8l-7 11l-6 11l-6 10l-5 12l-4 11l-3 12
l-4 10l-7 21l-2 10l-2 12l-1 11l-1 14l-1 14v14v11v12v15v12l1 15l1 14l2 14l2 12l2 15l3 12l3 11l4 13l3 11l5 12l5 11l5 11l6 13l8 13l6 11l7 11l7 10l7 11l9 9l8 9l8 8l8 8l15 15l10 7l8 7l10 7l12 8l10 6l11 6l15 7l14 7l16 7l18 8l19 4l16 4l18 3l17 1l18 1h7l4 1l11 2
l13 2l1 -5h6h11l14 -2l12 -3l10 -2l11 -4l11 -4l20 -6l17 -9l10 -6l17 -11l16 -14l2 -2l1 1l8 6l13 9l16 8l18 2l18 1h12h15l19 -2l19 -14l-12 -16l-15 12h-11h-15h-12l-16 -1l-14 -2l-12 -6l-11 -7l-6 -5l8 -9l10 -14l7 -16l7 -18l5 -19l3 -15l2 -17v-18l-4 -17l-8 -13
l-8 -10l-16 -5l-19 -1l-15 11l-7 9l-7 11l-6 11l-5 14l-4 14l-1 13v16l1 17l8 20l4 10l8 17l7 10l-1 1l-14 12l-15 9l-10 6l-15 9l-18 6l-11 4l-9 2l-10 2l-12 3l-12 2h-9h-13h-16h-4l-10 -2l-14 -3l-9 -3l-18 -5l-11 -3l-11 -5l-20 -9l-21 -8l-11 -5l-14 -8l-13 -7l-13 -10
l-12 -8l-10 -9l-9 -9l-9 -9l-11 -10l-12 -12l-9 -11l-9 -12l-11 -12l-9 -13l-5 -10l-7 -12l-5 -9l-5 -11l-6 -10l-3 -9l-2 -14l-3 -11v-13v-13v-14v-14l1 -13v-12l2 -13l1 -13v-11l2 -12l2 -12v-11l1 -10l2 -13l3 -9l4 -15l2 -10l3 -10l3 -11l4 -11l6 -10l6 -12l4 -9l7 -11
l5 -10l7 -8l8 -9l8 -8l10 -9l10 -8l10 -9l7 -7l10 -8l14 -7l9 -6l12 -6l11 -3l14 -2h12h12h11l14 1l10 1l10 1l12 2l11 3l11 3l10 3l10 4l12 6l8 7l12 8l10 6l9 5l11 8l11 8l11 8l11 8l11 9l10 8l10 8l8 9l9 8l8 6l9 11l9 10l6 10l6 8zM562 177l-9 -9l-10 -8l-7 -6l-8 -9
l-12 -10l-10 -8l-11 -9l-11 -8l-11 -8l-11 -8l-11 -8l-11 -7l-10 -6l-10 -6l-10 -7l-14 -8l-10 -4l-12 -5l-11 -3l-13 -3l-14 -2l-10 -1l-10 -1l-16 -1h-11h-12h-14l-16 2l-15 5l-14 6l-9 6l-14 9l-12 8l-9 9l-8 7l-10 8l-12 11l-8 8l-8 9l-9 10l-7 12l-7 11l-4 11l-6 10
l-6 12l-4 13l-5 11l-3 12l-2 10l-4 13l-3 11l-2 15l-1 12v9l-2 10l-2 14v13l-1 11l-2 13v14l-1 13v14l-2 -6l-1 -14l-1 -13v-12v-15v-12v-11v-14l1 -12l1 -14l1 -11l2 -10l2 -10l5 -19l4 -10l5 -12l2 -9l5 -10l6 -10l6 -11l5 -11l2 -1l9 -1l-1 -11l3 -6l7 -9l4 -8l13 -15
l8 -6l17 -16l6 -7l17 -10l18 -11l8 -5l18 -8l15 -7l10 -2l15 -1h18h10h10l18 1h18l17 3l15 4l14 3l16 5l15 6l17 10l14 8l15 8l13 10l9 6l8 6l15 14l8 6l8 8l6 8l14 16l7 14l7 12z" />
    <glyph glyph-name="D" unicode="D" horiz-adv-x="727" 
d="M66 123l-7 -6l-1 -9l1 -14l2 -7v3l3 14l1 12zM114 41l5 -3l12 -4l14 -4l12 -3l19 -4l13 -3l14 -3l13 -3l13 -2l15 -2l14 -3h11h11h11h13h10h12l9 1l10 1l11 1l10 1l9 2l11 3l18 5l10 5l18 9l11 6l8 5l12 9l11 8l10 9l9 7l10 11l12 11l9 12l12 12l10 14l7 9l6 12l7 12
l8 14l6 12l6 16l5 12l3 13l3 14l3 15l4 16l3 14v13v16v16v15v16l-2 15l-2 13l-3 13l-4 15l-4 12l-5 14l-7 13l-6 13l-8 10l-8 10l-9 12l-9 11l-8 10l-10 8l-13 10l-9 9l-9 9l-11 8l-12 7l-11 8l-11 8l-9 5l-13 8l-10 6l-11 5l-11 5l-12 5l-12 4l-15 4l-17 5l-13 3l-18 4
l-12 2l-14 4l-14 2l-11 1l-13 2l-15 2h-14h-16h-13h-12h-16h-12l4 -10l4 -11l5 -21l1 -13v-12l1 -11l1 -11l1 -13v-13v-12v-16v-14v-15v-15v-12v-15l1 -14v-15v-16v-17v-18v-16v-17l-2 -16l-2 -16l-1 -15l-2 -16l-2 -15l-2 -15l-3 -20l-2 -13l-3 -15l-2 -13l-2 -15l-3 -11
v-1h8l15 -1l19 -10l8 -15l-18 -8l-4 9l-11 4l-9 1h-10l-1 -3l-1 -11l-3 -11l-1 -10l-3 -10v-12l-4 -11l-1 -10l-4 -19zM112 139l-11 -1l-10 -2l-4 -1l-1 -7l-1 -14l-1 -14l-3 -12v-14l-2 -12l1 -1l8 -6l7 -5l4 17l1 10l4 11v10l3 12l1 10l3 11zM120 669h-3h-13l-9 -1l-6 -1
l1 -2l6 -15l6 -16l4 -19l3 -20l3 -20l1 -11l2 -20l1 -12l1 -12v-11v-11v-12v-12v-11v-13v-11v-12v-11v-11v-11v-11v-12l-2 -12l-1 -11l-1 -12l-1 -11l-1 -11l-2 -20l-2 -9l-1 -11l-1 -10l-1 -11l-3 -19l-3 -17l-1 -10l-2 -16l-3 -17l-1 -15v-2l8 1l16 2v4l3 13l2 13l2 15
l3 15l2 13l3 18l2 15l2 15l2 16l1 15l2 16l2 16v15v16v18v17v16v15l-1 14v15v12v15v15v14v16v12v13l-1 11l-1 11l-1 13v12l-1 9l-5 19l-2 11l-7 13zM49 658l-6 20l15 4l18 10l3 -6l14 2l11 1l-1 1l-10 8l-5 1l-9 -3l-6 18l13 5l15 -3l16 -12l12 -14l1 -1h12h13h16h12h13h16
h16l15 -2l13 -2l11 -1l16 -2l14 -4l12 -2l18 -4l13 -3l19 -5l15 -6l12 -4l14 -5l11 -5l11 -5l12 -6l13 -8l11 -7l11 -8l11 -8l10 -7l13 -8l11 -11l9 -7l11 -10l12 -10l10 -12l9 -11l9 -12l8 -10l8 -12l8 -13l7 -15l5 -16l4 -12l6 -15l3 -15l2 -15l2 -15v-18v-15v-16v-16v-15
l-3 -16l-4 -16l-3 -15l-3 -14l-5 -15l-5 -14l-6 -16l-6 -14l-8 -14l-7 -12l-8 -12l-7 -11l-10 -14l-12 -14l-11 -12l-12 -11l-10 -11l-11 -9l-10 -9l-11 -8l-12 -9l-10 -7l-11 -6l-20 -9l-10 -5l-20 -7l-13 -3l-11 -2l-10 -1l-11 -1l-10 -1l-11 -1h-12h-10h-13h-11h-11h-13
l-16 3l-13 2l-15 2l-13 3l-14 3l-13 3l-19 4l-14 3l-14 6l-14 4h-1l-2 -13l-2 -12l-20 4l2 12l3 16v3l-3 1l-12 8h-1v-3l-1 -14l-4 -11v-12l-2 -11l-20 4l2 9v14l4 11l1 12l2 15v2l-11 14l-7 21l-1 18l3 19l13 12l14 10h1l2 12l1 15l3 17l2 16l1 10l3 19l3 17l1 11l1 10
l1 11l2 11l2 18l1 11l1 11l1 12l1 11l2 12v10v11v11v11v11v12v11v13v11v12v12v11v11l-1 10l-1 12l-2 20l-1 11l-3 18l-3 20l-4 17l-4 16l-6 13l-3 6l-7 -1z" />
    <glyph glyph-name="E" unicode="E" horiz-adv-x="756" 
d="M307 632h15l19 1h16h10h15h10l19 1h12l17 1h10h10h17h15l19 1l15 2l11 2l17 4l14 6l12 7l8 7l1 2l-13 -6l-14 -4l-14 -2l-10 -1l-11 -1l-12 -1h-12l-13 -1l-14 -2l-15 -1l-16 -2l-15 -2l-18 -3l-17 -1l-10 -1l-19 -1l-11 -1l-22 -1l-12 -1l-11 -1zM88 58h-4l-13 -2
l-11 -3l-14 -4l-9 -3l-2 -7v-11l2 -8l5 -2h7l7 2l8 6l10 10l10 15zM111 662l-1 8l-2 10l-2 4l-6 -1h-6l-6 -3l2 -4l4 -5l7 -5zM254 349l7 -3l12 -4l12 -3l13 -3h9h15l9 1l12 2l6 3l1 6v9l-2 7l-7 -7l-10 -9l-15 -4h-13l-15 1l-16 2zM602 685l16 -10l-7 -11l-7 -12l-12 -11
l-16 -9l-16 -6l-19 -6l-11 -2l-17 -2l-21 -1h-15h-17h-10h-10l-17 -1h-12l-19 -1h-10h-15h-10h-16l-19 -1h-15h-16l-16 -1h-11h-14h-12h-11l-13 1l-10 3l-20 3l1 13h-3h-15l-15 3l-17 1v-12v-11l2 -11l1 -13v-13v-13v-15v-14v-16l1 -15v-14l1 -16v-18v-10v-17v-10v-10v-8h7
l14 -1l13 -4l22 -9l11 -3l9 -2l11 -3l12 -3l9 -3l10 -2l16 -2l16 -2l13 -1h11l7 2l6 5l6 6l1 9l19 7l8 -8l5 -13l4 -13v-13l-5 -16l-14 -9l-16 -4l-13 -1h-15h-11l-17 3l-12 5l-12 4l-14 4l-14 4l-10 3l-12 5l-12 3l-13 5l-15 5l-13 3l-12 2v-1v-16v-11v-10l-1 -12l-1 -16
l-1 -15v-13v-14v-14v-16l-2 -13v-13l-2 -14l-2 -15l-1 -14l-3 -14l-2 -13l-1 -15l-4 -13l-2 -12l-2 -10h15h19h10l19 -1l20 -3l10 -2l16 -2l17 -4l17 -4l16 -3l18 -2l15 -2l16 -2l13 -3l9 -1l15 -2l18 -3l14 -1l17 -2l13 -2l13 -3l12 -1l13 -2l12 -1h13h11h13h13h12h14l13 3
l15 7l11 7l10 6l11 5l27 16l1 -1l8 5l12 -7l-8 -18v-10l-6 -18l-7 -13l-15 -12l-17 -11l-12 -5l-17 -3l-17 -1l-16 -1h-16h-16l-18 1l-16 3l-10 1l-10 1l-11 2l-16 2l-11 2l-11 1l-18 3l-11 1l-12 1l-11 2l-13 2l-9 2l-14 1l-19 3l-13 3l-20 3l-12 2l-10 2l-12 1l-10 3
l-11 1l-13 2l-12 1l-13 3l-14 1l-11 2l-10 1l2 20l10 -1l11 -2l14 -1l15 -3l10 -1l13 -2l13 -1l10 -3l10 -1l12 -2l12 -2l20 -3l13 -3l17 -3l14 -1l11 -2l13 -2l9 -2l12 -1l11 -1l18 -3l11 -1l11 -2l18 -2l9 -2l10 -1l10 -1l16 -3l16 -1h16h16l14 1l17 1l13 3l8 3l15 9l11 8
l5 9l4 14l-10 -7l-11 -5l-10 -6l-11 -7l-19 -7l-17 -5h-16h-12h-13h-13h-11h-13l-14 1l-13 2l-14 1l-13 3l-11 2l-17 2l-14 1l-18 3l-15 2l-11 1l-13 3l-14 2l-15 2l-18 2l-18 3l-17 4l-17 4l-16 2l-10 2l-18 3l-17 1h-10h-19h-18h-3l-1 -1l-7 -16l-12 -17l-14 -14l-12 -8
l-13 -4h-13l-17 10l-6 18v17l8 17l17 7l14 6l13 3l15 2h14l2 14l2 12l4 13l1 13l2 15l3 12l1 14l2 15l2 14v13l2 13v14v14v14v13l1 17l1 16l1 10v10v11v16v4h-13h-16h-7l-28 -20l-2 2l-8 -4l-5 14l12 30l20 10l15 2h14h12h6v8v10v10v17v10v18l-1 16v14l-1 15v16v14v15v13v13
l-1 11l-2 11v13v10l-1 7l-7 2l-16 6l-11 9l-8 11l-2 18l16 15l14 2l14 -1l12 -14l4 -14l1 -15l1 -3l4 -1l18 -1l15 -3h13h14h16h16h14h10h19h17l10 1l10 1l11 1l12 1l22 1l11 1l19 1l10 1l17 1l18 3l15 2l16 2l15 1l14 2l15 1h12l10 1l11 1l10 1l12 2l12 2l10 5l9 8l9 -12z
" />
    <glyph glyph-name="F" unicode="F" horiz-adv-x="680" 
d="M148 655l6 -1l16 -6l14 -6l11 -2l14 -3l15 -2l14 -3l17 -1l17 -3h16h10h16h20h19h15h17h15l15 1l15 3l17 4l18 4l14 4l15 5l14 6l11 5l10 6l11 7l7 6l6 7l7 10l1 6l-5 -3l-10 -6l-13 -8l-15 -8l-17 -7l-9 -6l-18 -7l-20 -6l-10 -2l-18 -2l-20 -1h-20h-10h-10h-11h-10h-11
h-11l-11 1l-19 1h-10l-12 1l-19 1l-10 1h-18h-17h-10l-17 1l-17 2zM366 342h9h15l10 1l7 2l6 6l-1 6v11l-3 -3l-13 -10l-10 -7l-12 -5zM83 355l-20 4l3 14l11 10l17 11l9 3v1v11v11v11v10v11v11v11v10l1 18v20l1 18l2 18v16l2 15l2 16v11l2 15v16v17v3l-4 2l-11 9l-12 15
l-1 21l17 12l15 -9l9 -12l5 -12l2 -13l5 -2l12 -3l15 -1l17 -2l15 -1h10h17h18l12 -1l19 -1l10 -1h10l21 -1l9 -1h11h11h10h11h10h10h20l18 1l16 2l10 2l18 4l14 7l11 6l17 7l13 8l13 8l10 6l18 11l7 -13l9 1l1 -12l-3 -16l-9 -14l-8 -9l-9 -8l-13 -9l-12 -6l-11 -5l-14 -6
l-17 -7l-16 -4l-18 -4l-17 -4l-17 -3l-17 -1h-15h-17h-15h-19h-20h-16h-10h-18l-17 3l-17 1l-16 3l-15 2l-14 3l-13 4l-14 6l-16 4l-11 3l-4 1v-9l-2 -15v-11l-2 -16l-2 -15v-16l-2 -18l-1 -16v-20l-1 -18v-10v-11v-11v-11v-10v-11v-11v-9h5h10h18l17 -4l11 -2l10 -2l13 -3
l10 -5l10 -2l10 -3l10 -2l21 -6l11 -3l12 -2l10 -3h9l14 -1l10 -1h11h13l10 2l8 3l8 5l11 8l7 9l5 9l19 -2l5 -14l1 -13v-11l-1 -14l-12 -14l-15 -6l-14 -1h-15h-13l-12 1l-13 2l-14 2l-15 4l-16 4l-17 7l-15 5l-11 3l-9 2l-10 3l-21 4l-11 3l-18 3l-17 4l-20 1l-20 -2v-8
v-12v-14v-13v-14v-15v-12v-11v-12v-12v-11l-1 -16l-1 -11l-1 -12v-16l-2 -13l-1 -12l-1 -11v-18v-14v-11l-1 -12l-1 -10l-1 -10v-14v-13v-13v-9l2 -10l-20 -4l-2 12v11v13v13v14l1 12l1 10l1 10v11v14v18l1 13l1 12l2 13v14l1 14l1 11l1 14v11v12v12v11v12v15v14v13v14v12
v12v4h-1l-13 -9l-5 -4z" />
    <glyph glyph-name="G" unicode="G" horiz-adv-x="751" 
d="M595 327l-2 2l-7 6l-9 7l-8 7l-10 6l-13 7l-12 4l-17 5l-16 5l-17 4h-9h-11h-13h-11h-13l-12 -1l-12 -3l-13 -3l-12 -5l-13 -5l-10 -4l-11 -8l-6 -7l-1 -7l1 -9l1 -3l2 4l10 8l13 5l12 5l12 5l13 5l15 3h16h15h11h18l15 -2l17 -1l15 -2l15 -3l15 -5l15 -5l15 -7zM63 244
v-5l2 -6zM584 133l6 -8l8 -11l5 -12l6 -12l3 -12h1v3v13l1 13v13l1 12l1 10l2 14l1 12l3 15l7 15l2 9v11v11v12l-1 9l-2 14l-2 10l-4 9l-5 11l-5 9l-6 9l-3 4l7 -14v-15v-14l-1 -16l-2 -12l-1 -14l-1 -14l-3 -13l-2 -13l-2 -14l-6 -14l-5 -12l-8 -14l-5 -5zM564 471l-14 16
l10 8l11 4l7 5l9 10l6 9l3 9l3 10v12v10l-3 11l-8 12l-11 14l-6 7l-14 10l-9 7l-9 7l-12 6l-10 6l-11 5l-13 6l-13 5l-13 5l-15 6l-13 6l-11 2l-16 3l-15 1l-16 1h-17h-20h-15l-13 -1l-17 -5l-16 -4l-15 -5l-14 -3l-10 -7l-13 -5l-14 -9l-2 -1l-3 -1l-10 -7l-11 -8l-9 -8
l-11 -11l-14 -13l-10 -12l-6 -9l-9 -13l-11 -15l-8 -15l-7 -16l-7 -17l-8 -17l-4 -9l-2 -9l-4 -13l-2 -16l-2 -15l-1 -15v-16l-1 -16v-15v-15v-14v-15v-15v-15l2 -15l4 -13l4 -17l4 -15l6 -15l5 -14l7 -13l6 -13l6 -13l8 -10l8 -11l9 -10l10 -10l8 -8l10 -8l10 -7l9 -7
l11 -5l14 -7l11 -5l12 -5l10 -4l9 -2l10 -2l12 -2l10 -2l10 -1h10l13 -1l17 -1h12h12h11l9 1l9 1l10 3l11 3l11 3l11 3l11 5l10 2l8 5l10 5l9 5l11 5l16 10l14 8l10 10l11 11l8 11l9 10l6 10l5 12l4 12l2 12l2 13l3 13l1 12l1 14l2 12l1 14v14v11l-4 8l-5 6l-8 5l-13 7
l-13 3l-15 5l-13 3l-13 2l-17 1l-15 2h-16h-11h-15h-14l-11 -3l-11 -3l-12 -5l-12 -5l-11 -5l-6 -4l-3 -3l1 -3l3 -2h1h10h14l11 1h2l3 3l7 10l17 -10l-8 -16l-9 -4l-4 -3l-15 -2h-11h-11l-12 2l-10 1l-14 9l-7 16l-2 12l-1 13l3 13l10 13l15 12l12 4l13 5l14 5l13 5l16 3
l14 1h13h11h13h11h11l19 -4l18 -5l17 -7l14 -4l15 -7l12 -8l8 -7l9 -7l9 -8l8 -11l7 -8l8 -11l5 -11l5 -11l4 -11l4 -12l2 -16l1 -11v-12v-11v-13l-4 -13l-5 -15l-3 -13l-1 -10l-2 -14l-1 -10l-1 -10v-13l-1 -13v-13l-1 -13v-12v-12v-11v-11l1 -15l-19 -6l-7 13l-3 13l-3 14
l-1 10l-3 11l-3 10l-3 10l-6 12l-5 10l-3 5l-3 -8l-9 -13l-8 -9l-12 -12l-12 -11l-16 -11l-17 -9l-14 -6l-11 -6l-13 -4l-12 -5l-13 -3l-15 -3l-16 -1l-20 -2l-11 -1h-10l-19 -2h-12h-10h-10h-11h-11h-19l-18 2l-12 4l-15 7l-14 7l-15 8l-15 10l-10 6l-13 9l-15 11l-14 11
l-7 8l-14 13l-12 14l-13 19l-5 8l-8 10l-7 20l-5 12l-5 11l-5 12l-5 19l-3 13v13l-2 9l-2 13v11v13l-1 11v11v12v10v10v12l2 10l1 12l2 11l2 10l2 11l3 12l4 13l3 12l5 14l5 11l1 3l2 5l7 18l6 16l8 18l6 11l8 14l8 13l8 12l7 10l10 13l10 10l10 9l13 10l12 8l11 8l10 5l6 4
h1l10 7l13 5l12 7l16 5l15 5l16 4l19 5l17 1h15h20h17l18 -1l15 -1l18 -3l13 -4l15 -6l15 -6l13 -5l13 -5l13 -6l11 -5l12 -6l12 -8l11 -7l9 -7l16 -12l8 -9l11 -14l10 -16l5 -17v-12v-14l-3 -14l-5 -13l-8 -11l-11 -12l-11 -9l-11 -4zM65 233l1 -3l5 -19l3 -10l5 -11l5 -12
l7 -18l6 -8l5 -10l13 -17l10 -12l14 -13l7 -8l12 -9l15 -11l13 -9l8 -6l15 -8l15 -8l12 -7l15 -7l8 -2l16 -2h17h11h11h10h10h10l19 2h12l9 1l20 2l16 1l13 3l11 3l12 3l11 4l11 6l14 6l15 9l14 9l10 9l12 12l6 7l5 7l-5 -4l-12 -12l-16 -10l-16 -10l-11 -5l-9 -5l-10 -5
l-10 -5l-12 -4l-11 -3l-11 -5l-11 -3l-11 -3l-12 -3l-11 -1l-11 -1h-11h-12h-12l-19 1l-11 1h-10l-12 1l-12 2l-12 2l-10 2l-11 4l-12 4l-12 5l-11 5l-16 7l-11 7l-11 7l-10 7l-12 10l-8 8l-10 10l-11 12l-8 11l-10 12l-6 15l-6 13l-7 13l-5 16l-6 15z" />
    <glyph glyph-name="H" unicode="H" horiz-adv-x="732" 
d="M97 17l-1 13l-2 12l-1 15v18v17v17l-1 16v18l-2 20v20l-1 10v19v11v10v10v11v11v10l1 11v11l1 14l1 10v11l1 12l1 11l2 10l-2 -6l-1 -11l-4 -13l-2 -12l-2 -12l-1 -12l-3 -13l-1 -12l-1 -12l-2 -12l-1 -12l-2 -12l-1 -12l-1 -12l-2 -11l-1 -11l-2 -12v-11l-2 -11l-2 -17
v-19l-2 -15l-2 -16l-2 -16l-1 -14l-1 -13v-10l-1 -5h7l8 -2l10 -1h11zM555 128v-6l-2 -15l-1 -14l-3 -14l-2 -12l-1 -10l-2 -12l-2 -11l-2 -9l-2 -5h4l8 -1l7 1l8 4l3 5v8l-2 13l-3 14l-3 18l-2 17l-1 11l-1 10zM-51 350l-3 7l-2 16l1 18l16 11l13 4l16 1h17h10h11h14h11h11
h17l1 5l-12 3l-13 4l-13 4h-16h-18h-14l-13 -1l-14 -3l-13 -7l-11 -9l-7 -5l1 -7v-12l1 -11l1 -11l3 -5zM428 301l7 -3h10l13 -1l11 -1h13h13l28 5l26 4v3h-1l-10 -3l-12 -2l-15 -2h-14h-14h-13h-15h-14h-13zM-26 359l20 -6l-6 -15l-10 -4l-2 -5l-6 1h-14h-13l-13 8l-7 13
l-3 15l-1 13v12l1 15l11 13l15 11l17 7l16 5l17 1h14h18h18l17 -4l13 -4l10 -4l1 4l3 14l2 14l2 15l3 15l1 11l2 13l3 12l1 14v13v14v16v12v12v12v9l-2 11l-2 14l-1 9l-8 13l-5 9l-11 14l-10 10l14 14l10 -10l13 -16l7 -11v-1l15 7l5 -11l6 -15l4 -16l2 -18v-11v-19v-11v-10
v-10v-10l-1 -11l-2 -19v-18l-2 -10l-1 -10l-3 -18l-1 -11l-4 -19l-3 -16l-1 -11l-1 -4l15 -8l14 -8l17 -8l17 -8l15 -7l11 -3l10 -5l18 -10l19 -7l14 -6l13 -3l13 -3l14 -4l14 -2l15 -2l11 -4l14 -2l13 -1l12 -2l12 -1l14 -1h11h13h14h15h13h14h12l13 2l12 2l10 3h5l1 12v11
l1 13l2 12l1 11v12l1 12v12v1v15l1 15v15v15v15v15v15l-1 15v14v15v12v12v12v13v11v10v10v11v13v13l-1 11l20 2l1 -13v-13v-2h10v-10v-16v-18v-10v-11v-11l-1 -14l-1 -11v-11l-1 -14l-1 -12v-12v-11l-1 -12v-12l-1 -10v-11l-1 -11l-1 -12l-1 -11l-1 -12v-12v-3v-15v-14
l-1 -17l-2 -16l-1 -12l4 1l17 6l12 7l6 7l6 8l16 -12l-6 -8l-10 -11l-16 -9l-17 -6l-11 -5h-2l-1 -5v-7v-14v-13v-12v-13l1 -11l1 -15v-12v-12l1 -11l1 -12l1 -12v-12l1 -10v-10l1 -9l1 -10l1 -11l2 -17l3 -16l3 -14l2 -15v-16l-9 -13l-16 -10l-13 -1l-14 1l-16 10v17l2 11
l2 11l2 10l1 10l2 14l3 12l1 14l2 15l1 17l2 10v11l2 19l1 10l2 11v11l1 13l1 11l1 13l1 11v14v9l-20 -3l-30 -5h-15h-13l-13 1l-11 1h-12l-17 3l-10 1l-11 1l-19 4l-18 4l-19 5l-18 6l-11 4l-15 8l-10 5l-18 7l-2 1l-11 3l-12 3l-14 6l-11 5l-13 5l-12 6l-13 5l-12 5l-11 5
l-13 3l-11 3l-13 4l-2 1v-6l-1 -12l-2 -10l-1 -11l-1 -10v-11l-1 -12l-1 -12v-11l-1 -11v-10v-11v-11v-10v-10v-11v-19l1 -10v-20l2 -20v-18l1 -16v-17v-17v-18l1 -13l2 -12l1 -13l3 -7l-12 -16l-8 1l-10 1h-11l-12 1l-12 2l-17 8l-3 17v10l1 15l1 14l2 16l2 16l2 15v19
l2 17l2 11v11l2 12l1 11l2 11l1 12l1 12l2 12l1 12l2 12l1 12l1 14l3 13l1 10l2 14l2 12l4 13l1 11l3 12l2 12h-15h-11h-11h-14h-11h-10h-17l-12 -1l-9 -2l-6 -3l1 -6l2 -12l3 -8l3 -4l2 1v7z" />
    <glyph glyph-name="I" unicode="I" horiz-adv-x="396" 
d="M112 48h-1l-9 2h-2l-1 -8l-1 -6h3l11 -2v3v11zM113 68v8l2 15v12l1 15l2 13l1 14l3 12l1 14l2 14l1 16l3 17l2 16l1 10l2 19l2 10l2 12l2 11l2 12l1 11l2 13l2 10l1 12l2 11v10l1 13l2 11v12l1 11v11l1 10v12v10v10v11v20v11v12v11l-1 9l-1 21v10l-1 9l-1 10l-1 10l-1 17
l-1 10l-3 15l-2 14l-4 9l-4 6v-16v-15l3 -14l2 -16l2 -18v-11v-21v-18v-11l-2 -11l-1 -13l-1 -9v-12l-1 -15l-2 -14l-3 -12l-1 -14l-2 -13l-1 -11l-1 -14v-12l-1 -12l-2 -15v-11v-16l-3 -14l-1 -12l-1 -11l-2 -11l-1 -11v-12l-1 -12l-1 -11l-1 -11v-10l-1 -11l-1 -10l-1 -16
v-10l-1 -12l-1 -16l-2 -15l-1 -16l-1 -14l-2 -12v-10l-1 -9h3zM-14 24l2 2l11 7l23 6l14 1h12h13h15h3v4l1 7h-8h-11l-18 -1h-10h-9l-13 -4l-9 -5l-8 -4l-8 -8v-5zM194 28l-8 2l-15 4l-12 3l-19 5l-8 2v-7v-5h7l14 -2l15 -2h15h11zM34 688l-5 -1l-10 -6l-1 -3l1 -1l7 5z
M34 658l-20 -2v12l-8 -6l-8 14l5 17l18 12l11 4l14 3l11 1l15 1l13 1l11 1h12h13h11h14h12l14 -2l11 -2l13 -2l13 -2l12 -3l12 -2l11 -1l8 -1l7 3l2 -4h7h15h13v-20h-13h-15h-12h-1l-7 -3h-13h-10h-10l-13 1l-13 1l-22 2l-10 2l6 -12l2 -16l3 -17l1 -10l1 -17l1 -10l1 -10
l1 -11v-10l1 -19l1 -11v-11v-12v-11v-20v-11v-10v-10v-12l-1 -10v-11l-1 -11v-14l-2 -11l-1 -11v-12l-2 -11l-1 -12l-2 -12l-2 -11l-1 -11l-2 -14l-2 -11l-2 -12l-2 -10l-2 -17l-1 -10l-2 -16l-3 -17l-1 -16l-2 -14l-1 -14l-3 -14l-1 -12l-2 -13l-1 -13v-14l-2 -15v-10h1
l10 -2l19 -5l12 -3l17 -4l9 -3l14 -1l14 -2h13h12l10 1l1 -8l19 11l10 -18l-21 -12l-10 -5l-12 -5h-13h-13h-11h-15h-16h-17l-15 2l-14 2h-12l-12 2l-16 2l-11 2l-12 2h-13h-13h-12l-10 -1l-19 -4l-7 -5l-7 -7l-4 4l-17 -8l-6 14l2 24l14 16l10 6l11 5l17 6h13h10l18 1h11h9
l1 8v12l2 12l1 14l1 16l2 15l1 16l1 10v10l1 18l1 10l1 9v10l1 13l1 11l1 10v12l1 13l2 11l1 11l1 14l3 12v14v13l2 15l1 10v12l1 16l1 11l2 13l1 14l3 14l2 12l1 13v12l1 11l1 13l2 11v9v18v21v9l-2 18l-2 14l-3 16v17v18l-1 4h-8l-12 -1l-11 -1l-14 -3l-11 -3l-12 -6
l-8 -6l-6 -2z" />
    <glyph glyph-name="J" unicode="J" horiz-adv-x="683" 
d="M369 637l1 -2l1 -6h1h11h11h18l19 1l16 2l18 5l18 6l12 6l12 5l10 6l11 5l8 7l8 6l11 11l-10 -7l-10 -6l-10 -7l-12 -6l-12 -7l-13 -4l-13 -5l-12 -5l-15 -3l-18 -2h-16h-16h-15h-14zM339 638h-6l6 -2v2zM295 52l3 2l14 9l14 11l12 11l10 11l9 14l10 13l7 14l8 17l5 10
l5 10l5 10l4 11l4 12l4 11l4 11l2 9l1 10l2 14v10v11v10v11v11v10v11l-3 11v9l-4 10l-1 11l-3 10l-3 19l-3 12l-2 12l-3 11l-3 13l-3 12l-2 10l-2 12l-2 9l1 -13l2 -16l1 -18v-19v-19v-19v-15v-18v-17v-17v-16v-17l-1 -17l-2 -17l-4 -14l-2 -16l-2 -15l-4 -19l-5 -16l-6 -17
l-6 -16l-4 -10l-6 -13l-7 -15l-10 -15l-7 -10l-10 -14zM32 143v12l3 18l4 16l4 12l3 10l2 6h-1l-9 -1l-6 -5l-8 -11v-7v-10v-11v-10l3 -12l2 -12zM136 14l-17 6l-11 5l-12 6l-11 7l-2 1l3 -3l8 -7l8 -5l9 -4l9 -5l9 -1h7zM353 700v-20l-4 3l3 -7v-1l11 2l3 -15v-5h1h16h15
h16h14l16 2l13 3l12 3l13 5l11 4l10 7l12 6l10 5l8 6l11 8l8 7l14 8l18 -14l-4 -21l-11 -11l-11 -11l-10 -8l-10 -7l-11 -7l-12 -6l-12 -5l-12 -6l-20 -8l-20 -5l-18 -2l-21 -1h-18h-11h-9v-3l3 -9l6 -20l2 -9l3 -11l7 -20l3 -11l2 -12l4 -11l2 -11l2 -12l2 -10l3 -12l3 -13
l3 -11l2 -12l3 -12l3 -19l3 -10l1 -11l4 -10v-11l3 -11v-13v-10v-11v-11v-10v-11v-12l-2 -14l-1 -12l-4 -11l-4 -11l-4 -11l-4 -12l-4 -13l-5 -10l-5 -10l-5 -10l-8 -17l-9 -16l-10 -15l-9 -14l-12 -13l-14 -13l-14 -11l-16 -11l-9 -5l-9 -5l-17 -9l-17 -8l-16 -3h-13
l-10 -5l-11 -2l-11 -2l-10 -1l-12 -2h-13h-20h-13l-13 3l-11 5l-11 4l-10 7l-10 9l-8 7l-8 10l-7 10l-8 12l-8 12l-7 13l-5 12l-4 13l-5 10l-3 13l-2 12l-3 14v12v11v10l2 13l12 19l12 9l15 3h12l10 1l9 -18l-8 -7l-4 -8l-1 -10l-4 -12l-4 -14l-3 -16v-10v-18v-8l6 -15
l9 -18l5 -8l6 -8l9 -7l8 -7l11 -5l10 -6l11 -5l19 -6l10 -2l10 -2h9l11 -1l10 -1h11h16l14 8l11 6l10 5l15 14l8 7l15 15l10 14l7 10l8 13l7 13l6 13l4 10l6 14l4 17l5 16l4 17l2 13l2 18l4 14l2 15l1 15v17v16v17v17v18v15v19v19v19l-1 16l-2 16l-1 17l-3 15l-2 16l-2 15
l-3 13l-2 15l-2 13l-3 13l-2 13v2l-7 1l-11 3l-18 7l-21 8l-10 4l-19 8l-10 5l-11 4l-16 10l-3 1l-11 5l-11 4l-20 10l-9 5l10 18l9 -5l18 -10l4 -1l3 4l8 -6l8 -6l8 -3l13 -5l11 -4l13 -3l16 -4l15 -2l14 -3l17 -1h1l-4 16l3 23z" />
    <glyph glyph-name="K" unicode="K" horiz-adv-x="913" 
d="M118 257l-9 -13l-1 -2v-27v-27l-3 -26l-1 -20l-2 -17l-1 -17l-1 -15l-1 -14l-2 -13v-7l9 10l6 10l1 8l2 10v10v15v16v14v21v17l2 22l1 20v22v3zM122 304l-14 9v-19v-18l4 4l9 11l1 5v8zM122 338v1v21v21l-1 19l-3 20l-2 19l-3 20l-2 19l-4 20l-3 23l-1 21l-3 22v20v19v19
v15v16v12v11v19l1 6l-3 -1l-13 -2h-9l11 -6l-5 -8v-8l3 -11l1 -16l1 -16l1 -21l1 -19l3 -23l2 -23l2 -24l1 -22l3 -23l2 -22l2 -28l1 -28l1 -28l1 -28l1 -26zM356 289l-5 11l-7 18l-4 14l-8 13l-6 12l-8 12l-8 12l-9 12l-9 10l-9 7l-7 5l-10 1h-8l-11 -13l-3 -3h8l20 -11
l10 -7l9 -8l8 -8l9 -9l7 -9l7 -9l6 -10l5 -9l10 -15l12 -15zM688 559h12l13 1l9 6l13 10l6 7l4 8l2 8v12v15v9l-3 10l-9 13l-9 7l-10 9l-13 6l-11 3l-14 4h-12h-15h-16h-13l-18 -2l-13 -2l-13 -3l-13 -4l-11 -3l-16 -7l-18 -7l-15 -10l-18 -9l-14 -10l-16 -13l-17 -12
l-17 -13l-16 -15l-18 -16l-17 -17l-16 -16l-14 -17l-17 -16l-15 -16l-11 -13l-13 -15l-13 -15l-1 -1l10 -2l13 -7l11 -9l11 -12l9 -12l8 -12l10 -14l6 -12l8 -15l4 -16l7 -16l7 -16l8 -20l5 -19l5 -19l4 -17l6 -15l7 -15l8 -14l11 -18l9 -13l11 -13l10 -12l11 -12l9 -9
l13 -9l12 -8l13 -7l10 -2l8 -3h10l11 -1h13l9 1l9 3l8 8l10 12l10 17l7 17l12 17l16 -10l-10 -17l-7 -17l-12 -19l-12 -14l-12 -10l-13 -7l-15 -1h-13l-11 1h-12l-12 3l-12 4l-15 7l-14 10l-13 9l-11 11l-13 12l-10 14l-11 13l-9 15l-13 18l-8 16l-7 15l-6 17l-4 13l-2 -1
l-9 17l-9 13l-4 9l-7 8l-6 8l-12 15l-10 17l-7 9l-4 8l-7 9l-7 7l-7 9l-8 8l-7 6l-8 5l-16 9h-7h-11l-9 -12l-15 -15l-12 -14l-14 -17l-16 -16l-14 -17l-7 -7l-1 -9l-2 -19v-22l-1 -22l-2 -20v-17v-21v-14v-16v-15v-12l-2 -12l-3 -12l-8 -14l-11 -12l-14 -13l-13 -6l-11 -6
l-13 -2l-4 20l11 2l9 4l-1 1l2 11v12l2 13l1 14l1 15l1 17l2 17l1 20l3 26v25v21l-3 2l3 8v23v25v23l-1 27l-1 28l-1 28l-1 26l-2 28l-2 22l-3 23l-1 22l-2 24l-2 23l-3 23l-1 21l-1 19l-1 16l-1 14l-3 13v14l5 9l-4 -1l-4 20l13 2h11l17 2l17 -7l3 -18v-19v-11v-12v-16v-15
v-19v-19v-18l3 -22l1 -21l3 -21l4 -22l2 -19l3 -20l2 -19l3 -20l1 -21v-10l7 13l14 20l14 22l15 19l16 20l16 17l14 19l17 19l16 18l18 17l16 16l16 16l17 13l16 16l19 15l14 13l14 11l16 11l17 11l14 8l20 14l16 8l18 9l17 7l15 5l17 5l17 4l19 5l18 1h16h16h16l19 -1
l16 -3l16 -1l15 -3l14 -3l12 -5l12 -4l12 -7l10 -7l17 -15l13 -14l5 -19l-1 -20l-3 -18l-7 -20l-5 -11l-8 -10l-5 -9l-6 -9l-7 -9l-8 -8l-11 -9l-19 -7h-14l-20 2l-17 5l-18 13l12 16zM213 414l-2 20l19 2h12h7l8 12l13 17l15 15l11 13l15 16l17 16l14 17l16 16l17 17l18 16
l18 17l17 13l17 12l16 13l16 12l18 9l17 10l18 7l16 7l13 5l15 4l13 3l15 2l18 2h15h16h15h14l18 -4l13 -5l15 -6l14 -11l9 -9l13 -19l5 -14v-13v-15v-14l-4 -14l-6 -12l-8 -9l-10 -8l4 2l7 5l6 8l7 7l6 7l5 9l6 10l5 9l5 16l3 16l1 16l-3 11l-9 10l-15 13l-8 7l-10 5l-10 4
l-12 3l-12 3l-13 3l-16 1l-16 3l-17 1h-16h-16h-16l-14 -1l-19 -5l-15 -4l-17 -5l-15 -3l-15 -7l-16 -9l-16 -8l-20 -12l-14 -10l-17 -9l-14 -11l-14 -11l-14 -13l-17 -13l-16 -16l-17 -15l-16 -14l-16 -16l-18 -17l-16 -18l-15 -17l-14 -19l-16 -19l-16 -18l-15 -19
l-14 -20l-12 -20l-16 -29l-9 -13v-16v-3l6 7l16 16l12 15l14 16l13 15l7 7l-2 2l7 4l1 2l15 18l1 1z" />
    <glyph glyph-name="L" unicode="L" horiz-adv-x="698" 
d="M69 86l1 3l4 11l3 9l2 11l3 13l3 12l2 14l2 14l2 14l1 15l1 15v14l1 17l2 14v13l1 18l1 15l2 15v16l1 16l3 15v14l1 16l2 16l2 15l2 15l4 17l3 16l1 19l1 14v17v14v8l-11 -2l-10 1v-8v-12v-11v-11v-10v-10v-11v-11v-11l-1 -14l-3 -12l-2 -12l-3 -10l-2 -11v-10l-1 -15
l-1 -14v-15v-12l-1 -15v-11l-1 -12l-1 -11l-2 -10v-10l-4 -19l-1 -17l-2 -10l-1 -19l-1 -14v-17l-2 -16l-1 -14l-2 -15l-2 -12l-2 -11l-1 -11h3h4zM102 65l3 -1l9 -9l10 -8l8 -8l14 -12l9 -6l9 -5l10 -5l12 -6l11 -6l13 -5l11 -4l12 -3l15 -3l11 -2l15 -3l15 -1l13 -1l13 -1
l15 -1h12h15h15h14h14l13 1l11 2l10 2l11 3l19 6l9 2l16 8l14 7l14 9l14 9l9 8l10 10l9 8l6 9l6 7l4 8l3 10v9l-10 -7l-33 -24l-28 -21l-23 -11l-20 -9l-26 -9l-20 -4l-28 -1h-22l-23 1h-23l-21 4l-19 2l-18 4l-18 5l-18 7l-14 6l-17 5l-15 5l-15 4l-16 4l-18 4l-13 4l-12 3
h-6zM53 54l-9 -2l-10 -3l-7 -4v-6l-5 1v-5v-5l3 2l10 3l8 6l6 5zM97 574l5 -6l5 1l9 2l4 1v14l-1 10l-1 15v9l-3 9l-5 11l-5 10l-2 6l-4 1l-3 -1l2 -12l-1 -23v-17v-10v-10v-10zM8 582l-10 -18l-12 7l-12 15l-6 15l-5 20l-2 17v17v20l13 22l22 24l23 17l24 11l17 5l17 3h15
h15l17 -2l14 -8l11 -11l9 -11l8 -12l6 -10l6 -11l6 -13l4 -12l1 -12l1 -13v-15l-1 -13l-7 -17l-7 -10l-11 -11l-8 -9l-10 -6l-6 -2v-1v-15v-14v-17l-1 -16l-1 -19l-3 -18l-4 -17l-2 -13l-2 -15l-2 -16l-1 -14v-16l-3 -15l-1 -14v-18l-2 -15l-1 -15l-1 -16v-15l-2 -14l-1 -15
v-14l-1 -17l-1 -15l-2 -14l-2 -14l-2 -16l-3 -12l-3 -13l-2 -13l-5 -11l-2 -6h4l16 -1l16 -3l13 -4l16 -4l16 -4l17 -4l15 -7l17 -5l16 -6l16 -5l16 -5l18 -4l19 -2l19 -4h21l23 -1h22l26 1l16 4l24 7l20 9l21 11l26 19l33 24l30 21l12 -16l-3 -2h3v-12v-11l-5 -16l-6 -10
l-6 -9l-8 -11l-9 -8l-10 -10l-11 -10l-16 -9l-14 -11l-16 -7l-16 -8l-11 -4l-19 -6l-13 -3l-10 -2l-13 -2l-15 -1h-14h-14h-15h-15h-12l-17 1l-13 1l-13 1l-15 1l-17 3l-11 2l-15 3l-14 5l-11 4l-15 5l-13 6l-10 6l-12 5l-9 7l-11 6l-16 14l-8 8l-10 8l-7 7l-14 7h-2l-1 -2
l-11 -19l-10 -9l-12 -8l-16 -5l-17 2l-8 17v15l7 21l18 16l13 3h1h1l1 13l2 13l2 12l2 13l1 14l2 16v15l1 16l1 19l2 10l1 17l4 19v10l2 10l1 11l1 10v11l1 15v12v15l1 16l1 13v12l2 13l3 10l2 12l3 12l1 10v11v11v11v10v10v11v11v12v10l-1 10v5l-5 7l-6 11l-5 15l-1 22v12
l3 21l18 17l15 5l20 -5l6 -14l5 -10l5 -11l5 -13v-13l1 -13l1 -12v-5l4 2l6 7l9 9l5 8l5 11l1 9v15l-1 11l-1 10l-2 8l-6 11l-6 11l-6 10l-6 10l-7 9l-9 9l-8 4l-13 2h-13h-13l-15 -3l-15 -3l-20 -11l-19 -13l-20 -22l-9 -16v-14v-15l2 -15l5 -18l4 -11l8 -9z" />
    <glyph glyph-name="M" unicode="M" horiz-adv-x="824" 
d="M629 510l2 3l4 14l4 16l4 15l4 13l3 14l3 13l1 11l2 12l2 17l1 15l1 16v13v10l-1 8l-6 2h-10l-6 -1l-6 -16l-3 -11l-4 -19l-3 -11v-11v-11v-14v-11v-15v-12l3 -14v-11l3 -14l1 -13zM660 231l-1 -5v-13l-1 -14l-1 -10l-1 -14v-12l-1 -13v-13v-11l-1 -11v-11l-1 -15l-1 -18
v-11v-19v-19v-11l4 -5l6 -3h9h13l11 2l8 1l4 -1l-3 5l-1 10l-3 11l-4 15l-3 13l-3 14l-4 15l-3 14l-3 17l-3 16l-3 18l-4 19l-3 19l-2 11l-2 11l-2 10zM82 30v-2h-1l-2 -6l-2 -2l7 1h12l7 3l4 9v11v18v11l1 12v12v14l1 12v15v14v13v15v12v13v15v15v14v12l-1 -8l-2 -14
l-3 -20l-3 -15l-1 -15l-1 -15l-1 -14l-2 -14l-2 -12l-2 -14l-3 -12l-3 -13l-1 -10l-1 -11l-1 -10l-1 -15l1 -15l1 -1zM168 635l7 -11l8 -12l8 -12l9 -13l9 -14l8 -14l8 -12l8 -12l7 -12l7 -12l7 -12l8 -12l7 -11l6 -13l5 -9l6 -11l5 -10l5 -9l8 -14l9 -15l10 -14l7 -15
l9 -11l8 -13l8 -13l5 -14l6 -10l6 -11l10 -10l6 -10l-11 -6h5h16l7 2l15 9l10 6l11 7l10 6l10 5l8 6l10 7l7 7l11 10l11 8l8 8l12 11l9 10l9 11l9 11l11 12l10 11l7 10l9 13l9 14l7 13l6 10v1l-2 14l-2 12l-2 14l-1 13l-3 14v11l-3 14v14v15v11v14v11v13l3 13l4 21l5 13
l10 22l16 7h18l18 -10l5 -18v-12v-13l-1 -18l-1 -15l-2 -17l-2 -12l-1 -13l-3 -13l-3 -14l-4 -15l-4 -15l-4 -16l-6 -14l-5 -14l-5 -11l-4 -9l2 -8l1 -14l3 -13l3 -15l1 -13l1 -5l10 6l6 -12l5 -19v-16v-11v-13v-11v-11v-11v-6l3 -13l2 -14l3 -12l2 -13l2 -11l2 -11l2 -10
l2 -11l2 -11l3 -19l4 -19l3 -18l3 -16l3 -17l3 -14l4 -15l3 -14l3 -13l4 -13l3 -13l1 -12l1 -15l-16 -11l-12 -1l-11 -2h-15h-15l-14 9l-8 13l-2 17v19v19v11l1 20l1 13v11l1 11v11v13l1 13v12l1 16l1 10l1 12v15l2 14l2 10v10l1 13l3 10v11v2l-4 10l-4 14l-3 13l-1 14
l-3 14l-2 14l-3 15l-2 16l-1 13l-3 13l-2 10l-2 -2l-9 -14l-9 -15l-7 -10l-10 -13l-11 -12l-9 -11l-11 -11l-9 -10l-12 -11l-10 -10l-11 -8l-9 -8l-9 -9l-10 -7l-10 -6l-10 -7l-10 -6l-11 -7l-10 -6l-17 -9l-13 -4h-18h-18l-16 3l-16 5l-14 7l-15 10l-10 12l-7 9l-8 11
l-10 16l-7 16l-5 10l-8 18l-4 10l-10 17l-5 10l-6 10l-5 11l-5 10l-5 12l-6 11l-6 10l-8 14l-6 12l-6 11l-6 12l-6 11l-6 10l-2 3l-1 -13l-1 -12l-2 -12l-2 -11l-1 -13l-2 -11l-1 -10l-1 -11l-2 -11l-1 -13l-4 -13l-2 -12l-2 -13l-1 -11l-2 -14v-12v-16l-1 -12l-1 -13v-14
v-15v-16v-12v-14v-15v-15v-13v-12v-15v-13v-14v-15l-1 -12v-14v-12l-1 -12v-11v-18v-15l-10 -19l-17 -9h-18l-21 5l-2 20l3 7l-1 16l1 17l1 10l1 11l1 12l3 13l3 12l2 14l2 12l2 12l1 14l1 15l1 15l3 17l3 18l2 14l2 16l4 18l3 17l5 17l2 18l3 19l3 15l2 20l4 17l2 15l4 19
l3 18l2 17l1 16l2 19l1 14l3 20l1 18v6l-5 10l-7 11l-7 14l-6 12l-5 11l-7 16l-4 16v15v13v17l2 10l1 15l5 15l19 11l16 -13l9 -11l6 -13l5 -18v-16v-17v-15v-7l1 -1l8 -10l2 -3v-1zM162 608l-1 -14l-1 -15l-1 -7l1 -2l7 -13l7 -9l8 -12l6 -11l6 -12l6 -11l6 -12l8 -14
l6 -10l6 -13l5 -12l5 -10l5 -9l6 -10l5 -10l10 -19l4 -10l8 -18l5 -10l7 -14l8 -14l8 -11l7 -9l8 -8l11 -8l12 -7l12 -3l14 -3h1h1l-2 4l-10 10l-8 13l-6 12l-5 14l-6 11l-8 11l-9 13l-9 15l-8 14l-9 15l-10 14l-5 9l-5 10l-6 11l-5 11l-6 11l-5 11l-8 10l-9 14l-7 12l-7 12
l-6 12l-8 12l-10 14l-7 14l-9 11l-8 14zM122 658l14 14l1 -1v1v17v14l-3 14l-4 9l-7 7l-4 7l-1 -3l-1 -7l-1 -13l-2 -10v-15v-13v-13l2 -12l7 -14l5 -11l6 -10l3 -7v10v18v3l-2 3z" />
    <glyph glyph-name="N" unicode="N" horiz-adv-x="840" 
d="M536 534l-1 -5l-4 -19l-2 -17v-10l-2 -11l-1 -10v-11v-11l-1 -11v-18l1 -16l1 -17l2 -17l1 -10l2 -16l2 -17l2 -17v12v20v22v20v22v17v22v21v21v17v21v18zM72 -13l-20 6l3 9l1 12l1 10l2 12l2 13l4 17l2 19l2 10l3 13l1 10l1 12l2 11l1 11l2 14l1 13l2 14l2 14l4 14l2 15
l3 13l2 13v8v15v15v13v15v13v16v15v15v15l-1 14l-1 14v13l-1 15v10v13v14v12v11v13v10v10v11l1 11v12l2 10l1 10l4 22l3 13l1 10l1 11l1 7v4l-1 13h2v2l2 13l10 16l22 -1l3 -19l-1 -13v-10v-12v-4l5 -9l7 -11l7 -12l8 -15l7 -11l10 -14l7 -16l8 -14l8 -15l10 -16l8 -15
l11 -15l9 -17l9 -14l8 -15l8 -16l8 -15l8 -16l10 -15l9 -14l8 -17l9 -13l11 -17l10 -15l8 -13l8 -13l6 -14l10 -11l8 -15l10 -13l5 -11l8 -12l8 -12l7 -8l7 -11l7 -11l6 -10l8 -10l7 -8l8 -10l7 -8l7 -11l5 -8l7 -9l9 -11l14 -16l7 -9l6 -7l1 -1l-1 6v18v18v15v17v10v15
l-1 16l-1 18l-2 15v19l-2 15l-1 16l-1 18l-3 18l-2 17l-2 17l-2 17l-2 16l-1 10l-2 17l-1 17l-1 18v18l1 11v11v11l1 12l2 11v10l2 19l4 19l4 17l3 9l3 15l5 15l6 16l5 17l6 13l5 14l2 2l2 7l11 15l11 13l4 3l2 3l10 11l11 9l16 7h14h14l16 -1h10h16l15 -3l14 -7l13 -12
l8 -13v-16l-3 -16l-3 -8v-13l-6 -14l-10 -10l-13 -7l-14 -4l-15 -1l-18 11l-6 14l16 12l10 -8l7 -2l8 -1l5 5l8 8l8 12v11l-1 10l-3 8l-6 9l-9 7l-11 2h-14l-16 -1l-10 -1l-9 -2l-16 -4l-10 -2l-10 -5l-4 -2l-4 -6l-7 -10l-9 -11l-4 -6l-2 -4l-4 -11l-3 -13l-3 -12v-14
l-4 -17v-18v-18v-19v-21v-17v-21v-21v-22v-17v-22v-20v-22v-20v-21l2 -19l1 -23l1 -23v-22l1 -20l1 -19l1 -19v-21v-15l1 -19l1 -14l1 -15v-14l1 -11v-17l-2 -13l-19 -5l-7 8l-11 11l-13 13l-8 9l-7 9l-14 16l-9 11l-7 9l-5 10l-7 9l-7 8l-8 10l-7 8l-8 10l-6 12l-7 9l-7 11
l-7 8l-8 12l-10 14l-5 11l-8 13l-8 13l-10 13l-8 14l-8 13l-8 13l-8 15l-11 15l-11 15l-8 17l-7 14l-12 15l-8 16l-8 15l-8 16l-8 15l-9 14l-9 17l-9 15l-10 15l-10 16l-8 15l-8 16l-7 14l-8 12l-9 13l-8 15l-1 2v-6l-1 -20v-11l-1 -11l-1 -11l-1 -12l-1 -11v-11v-13l-1 -17
l-1 -12l-1 -14v-14l-2 -15l-2 -14v-14l-3 -14l-1 -15l-1 -4v-4v-25v-24v-23v-23v-21v-25v-25l-1 -22v-22l-1 -21v-18l-1 -18l-3 -19l-4 -17l-1 -18v-10v-4v-11v-2v-16h-20v16v2v11v4v10v8v11v11v11v12v12v12v4l-1 -6l-1 -12l-1 -12l-3 -13l-2 -10l-2 -19l-4 -17l-2 -13
l-2 -10l-1 -10l-1 -14z" />
    <glyph glyph-name="O" unicode="O" horiz-adv-x="792" 
d="M56 284l-1 11l-1 15l-2 18v-6v-14l1 -12zM489 667l-6 1h-11l-9 -1l-5 -4l-5 -6v-8v-10l6 -8l7 -7l11 -8l9 -7l10 -3l12 -3l10 -1l10 -1h10l7 1l11 6l3 3l-6 10l-5 8l-7 7l-8 6l-5 5l-5 2l-18 10l-15 7zM564 590h2l7 1l-2 4l-5 -3zM625 585l5 -6l10 -16l10 -15l9 -17
l7 -11l5 -15l4 -15l6 -15l4 -18l4 -19l2 -20l1 -12v-11v-12v-11v-12v-12v-12v-15l-3 -14l-1 -12l-3 -13l-4 -13l-3 -12l-4 -12l-4 -13l-4 -12l-5 -12l-6 -12l-5 -11l-6 -11l-6 -11l-6 -10l-8 -11l-7 -12l-7 -9l-9 -11l-9 -9l-6 -8l-9 -10l-8 -7l-8 -8l-8 -9l-9 -7l-10 -7
l-10 -7l-9 -8l-10 -7l-11 -6l-10 -5l-20 -10l-18 -7l-20 -8l-13 -3l-16 -4l-11 -1l-11 -1l-11 -1l-11 -1h-12h-13h-11h-11l-15 1l-22 7l-15 7l-17 7l-5 3h-1l-12 6l-14 6l-12 9l-14 10l-12 10l-17 12l-13 15l-10 14l-7 9l-6 9l-7 11l-5 8l-8 11l-5 10l-5 9l-8 14l-4 11
l-6 12l-7 16l-5 13l-4 17l-3 14l-5 15l-6 16l-3 16l-1 14v14v12v11v16l2 14l2 14l2 12l2 15l3 11l3 14l1 2v4l3 17l6 15l6 15l7 15l5 6v1l6 11l7 13l7 10l8 14l10 12l8 12l11 11l8 11l10 13l10 10l9 9l10 9l11 8l11 4l16 6l14 6l12 5l13 4l12 5l12 5l17 4l16 1h11l20 -1h1
h10h1h2h18v-2l6 -3l14 -4l16 -3l-4 -20l-18 3l-14 6l-9 3h-9h-1h-1h-1h-10h-1h-12l-12 -1l-9 -1l-10 -3l-13 -4l-10 -2l-11 -5l-8 -5l-9 -5l-13 -7l-9 -7l-11 -8l-14 -7l-13 -6l-13 -10l-14 -10l-13 -14l-14 -14l-11 -14l-11 -15l-10 -15l-5 -9l-6 -9l-1 -2l-5 -9l-5 -11
l-5 -13l-3 -12l-3 -12l-3 -8v-11v-17v-18l1 -15l1 -17l1 -16l2 -16l2 -18l1 -15l2 -15l4 -16l4 -16l3 -14l6 -17l8 -18l5 -11l9 -23l5 -10l4 -10l8 -17l7 -8l7 -11l9 -16l5 -9l11 -14l13 -14l13 -10l14 -11l8 -7l14 -6l6 -4l7 -1l15 -1l15 -1h17h16h18h14l13 3l16 5l13 3
l16 6l17 7l17 8l17 9l9 5l9 5l10 8l11 7l11 8l12 10l9 7l11 10l7 8l8 9l8 11l9 12l6 10l5 10l7 16l6 10l5 12l7 16l7 14l3 11l5 17l4 15l4 13l3 14l3 12l2 12l2 14l1 13v15v14v15v14l-1 11l-3 13l-3 14l-3 13l-4 13l-3 13l-6 13l-4 11l-6 10l-7 14l-6 12l-6 10l-15 -2h-18
h-11h-10h-10h-10h-13h-13l-20 7l-17 13l-8 11l-5 10l-5 11l-4 22l-1 19l2 17l12 11l17 4h15l15 -3l12 -6l6 -1l13 -6l10 -6l11 -7l3 -3l12 -7l9 -6l8 -6l9 -6l8 -7l5 5l10 11l10 12l6 10l4 10l1 12v12l-1 12l-7 10l-9 10l12 16l13 -6l10 -9l9 -8l9 -10l10 -11l6 -12l4 -12
l3 -16v-12v-14l-7 -14l-8 -13l-9 -10l-11 -9l-15 -8zM606 577l-2 -1l3 -4l6 -14l7 -12l6 -12l4 -11l6 -15l5 -13l4 -13l3 -15l3 -14l3 -13l1 -15v-14v-15v-14v-15l-1 -15l-2 -14l-2 -14l-3 -12l-3 -14l-4 -15l-4 -15l-5 -17l-5 -13l-7 -14l-7 -16l-5 -12l-6 -12l-7 -14
l-5 -12l-8 -12l-9 -12l-8 -11l-10 -11l-7 -8l-13 -12l-9 -7l-12 -10l-11 -8l-11 -7l-10 -8l-11 -7l-9 -5l-19 -9l-17 -8l-17 -7l-18 -8l-13 -3l-18 -5l-15 -3h-16h-18l-4 -1h11h11h13h12l9 1l11 1l11 1l9 1l16 4l11 3l18 6l18 7l18 10l10 5l11 6l8 5l9 8l10 7l10 7l7 5l8 9
l8 8l8 7l7 8l8 10l9 9l7 9l7 9l7 10l6 11l6 10l6 11l6 11l5 9l6 12l5 10l2 12l4 13l4 12l3 12l4 13l3 11l1 12l3 12v13v12v12v12v11v12v11l-1 10l-2 18l-4 19l-4 16l-4 15l-6 15l-3 13l-7 9l-9 17l-8 15l-10 14zM612 601l10 4l11 6l9 7l7 8l6 11l5 8v10v10l-3 14l-2 8l-4 8
l-8 9l-2 2v-1v-14l-1 -16l-6 -16l-8 -12l-10 -14l-12 -11l-5 -5l7 -7l6 -8v-1z" />
    <glyph glyph-name="P" unicode="P" horiz-adv-x="708" 
d="M93 10h6l8 1v5v10v11v14v10v13v12l1 8l-3 -13l-3 -14l-2 -11l-2 -20l-3 -16zM168 290l5 -1l16 -4l11 -2l19 -2l20 -2h15h10h13l13 4l14 2l14 4l18 4l15 3l10 4l10 2l17 6l10 3l9 5l10 6l10 5l12 6l11 5l10 5l10 7l12 6l10 6l9 7l10 7l9 7l9 9l10 9l6 7l6 9l8 7l5 9l5 10
l6 9l8 14l3 18l2 17l1 15v17l-3 14l-6 13l-1 2l2 -18l1 -20v-18l-7 -18l-6 -14l-8 -12l-7 -9l-8 -10l-8 -7l-7 -8l-8 -8l-8 -8l-11 -10l-11 -9l-12 -11l-9 -6l-17 -10l-16 -9l-9 -6l-12 -6l-11 -5l-11 -5l-13 -5l-12 -6l-14 -5l-12 -4l-15 -4l-13 -3l-13 -6l-15 -3l-14 -2
l-13 -3h-11l-10 -2l-13 -2h-12h-15h-11h-12h-10zM83 329h1l8 -5l1 -1v17v15v15v14v14h-7l-9 -3l-7 -3l-1 -3l-4 -10l-1 -11v-10l2 -9l6 -8l9 -10zM115 395l-2 1v-12v-14v-15v-15v-18v-7l2 -1v4v15v10v11v14v11v11v5zM135 279v-11l-1 -10v-11l-1 -17l-1 -13l-1 -13v-11v-10
v-12l-2 -10v-10v-17v-19l-1 -16l-1 -13v-12v-13v-10v-14v-11v-12l-6 -17l-20 -7h-12v6l-17 2l1 10l2 16l3 14l2 20l2 13l3 14l3 13l1 14l1 14l1 16l1 16v16l1 16v18v17v18v15v17v15v8l-3 2l-14 10l-4 3l-10 7l-15 18l-7 20v16l2 17l11 14l4 2l2 3l16 11l14 1h4v5v13v11v16
v12v13v15v11l-1 12l-1 15v13v11l-1 12v12l-1 12l-1 12l-2 12v13l-1 10l-1 13v10l-1 11l-1 13l-2 10l-1 14l4 4l-2 5l15 13l10 -5l10 -6l12 -3l14 -4l10 -2l17 -4l19 -5l19 -5l9 -1h11h12h11h16h16h21h19h21h18l11 -2h11l13 -1l12 -2l11 -2l11 -1l20 -2l11 -3l17 -6l17 -8
l17 -8l11 -10l10 -9l10 -14l10 -11l8 -14l8 -11l8 -12l11 -10l10 -14l8 -17l3 -18v-19l-1 -17l-2 -19l-5 -20l-8 -18l-6 -9l-5 -10l-7 -11l-8 -9l-6 -7l-8 -9l-10 -9l-9 -9l-11 -9l-10 -7l-9 -7l-12 -8l-12 -6l-10 -7l-12 -5l-11 -5l-10 -6l-10 -5l-10 -6l-11 -5l-12 -3
l-17 -8l-10 -2l-10 -4l-17 -3l-18 -4l-14 -4l-14 -2l-15 -4h-15h-10h-15l-22 2l-19 2l-13 2l-16 4l-12 3l-11 2l-10 5h-1zM115 286l-2 1v-12v-17v-15v-11l1 15v11l1 10v15v3zM115 418v4v11v10v11v10v19v10v10v17v19l-2 14l-2 19v10l-1 6v-7l1 -12v-11v-13l1 -13l1 -14v-11
v-15v-13v-12v-16v-11v-13v-8zM135 403l5 -7l10 -16l-6 -18l-9 1v-9v-11v-10v-15v-8h3h12h13h15h12h11h15h10l11 2l12 2h11l11 3l14 2l13 3l13 4l13 5l15 4l12 4l12 3l12 6l13 5l11 5l11 5l10 6l9 6l16 9l17 8l7 6l10 9l11 11l11 8l8 8l8 8l7 8l8 7l6 8l7 9l6 10l6 12l5 14
v14l-1 18l-2 17l-4 18l-3 9l-7 16l-7 6l-7 8l-6 8l-8 6l-7 7l-9 6l-14 9l-9 4l-10 5l-11 2l-10 4l-13 2l-12 4h-9l-14 2l-10 1h-11l-10 1h-14h-11l-13 1l-12 1l-10 1h-10h-11l-13 1l-11 1l-10 1h-11l-23 4l-13 1l-14 2l-10 2l-13 2l-12 2l-12 2l-12 3l-20 7l2 -6l2 -13
l3 -16l4 -18v-11l2 -10l1 -16l1 -17l3 -17v-10l2 -19l2 -14v-21v-17v-10v-10v-19v-10v-11v-10v-11v-19z" />
    <glyph glyph-name="Q" unicode="Q" horiz-adv-x="890" 
d="M147 57l-6 5l-7 8l-8 10l-6 10l-7 9l-8 11l-5 13l-6 11l-5 13l-4 13l-5 14l-5 13l-5 19l-3 14l-4 14l-1 18v12v15v17v17l2 17v15l1 17l1 14l3 16l3 15l5 16l3 13l5 17l5 15l4 13l6 16l5 10l1 5l-3 -5l-5 -9l-6 -10l-8 -16l-4 -10l-7 -18l-5 -18l-2 -10l-2 -10l-1 -10
l-1 -11l-2 -11l-1 -11l-2 -12l-1 -11l-2 -12l-1 -11v-14v-12v-15v-15v-14v-17l1 -14l1 -10l3 -14l3 -10l3 -10l5 -10l5 -11l6 -11l4 -10l5 -8l4 -9l7 -9l7 -8l7 -9l6 -8l8 -6l15 -14zM504 708l8 -6l15 -9l16 -12l9 -7l14 -13l8 -8l8 -8l8 -9l7 -9l7 -9l8 -10l5 -11l6 -9
l10 -16l4 -13l7 -15l4 -14l6 -13l5 -13l5 -13l5 -14l5 -13l3 -15l2 -14v-14v-13v-15l-1 -13l-1 -14v-15l-2 -15l-2 -13l-3 -13l-3 -13l-3 -15l-5 -12l-5 -15l-4 -13l-5 -12l-5 -12l-5 -11l-5 -11l-5 -10l-4 -9l5 6l4 9l10 17l10 16l5 8l7 16l7 17l5 9l5 16l5 18l3 9l2 10
l2 10l1 12l1 12l3 11v13v10v12v11v13v11l-1 9l-2 10l-5 10l-2 10l-3 12l-5 11l-2 11l-5 10l-5 11l-5 11l-6 11l-5 10l-7 12l-5 9l-7 9l-6 9l-9 7l-10 12l-6 7l-10 9l-9 8l-11 10l-10 9l-10 9l-7 6l-12 8l-10 7l-11 5zM415 175l10 1h16l13 -1l12 -6l11 -6l15 -12l14 -13
l7 -10l13 -15l8 -7l7 -6l4 4l2 2l-5 9l-13 14l-12 13l-13 13l-10 7l-13 8l-13 7l-12 3h-17h-12l-9 -3zM563 75l-5 11l-3 -2l1 -1zM758 28l-3 6l-1 -6l-3 -13l-6 -23l-10 -19l-17 -8h-16l-12 1l-20 5l-19 8l-19 12l-8 6l-8 6l-3 1l2 -6l8 -15l5 -11l7 -12l7 -7l7 -6l10 -5
l10 -3l11 -2l11 -2h9h13h8l12 5l11 7l8 7l5 8l7 12v1l-4 4l7 7l1 8l1 10v2l-1 2l-3 10l-3 5zM786 -21v-1l-4 -12l-7 -14l-9 -12l-10 -9l-13 -9l-18 -7h-12h-13h-11l-13 2l-11 2l-14 5l-12 7l-11 8l-9 9l-9 14l-5 13l-8 15l-6 18l-6 16l-2 6l-5 3l-8 7l-15 14l-13 15l-1 1
l-2 -1l-9 -8l-9 -8l-10 -9l-10 -9l-10 -7l-10 -7l-9 -7l-10 -7l-12 -5l-11 -5l-11 -5l-10 -2l-11 -4l-14 -3h-10l-5 -2l-21 -4h-12h-10h-10h-12l-18 1l-11 1l-10 1l-10 2l-11 1l-11 3l-10 3l-20 6l-10 5l-10 5l-11 5l-10 7l-9 5l-13 7l-9 8l-9 6l-17 14l-8 8l-8 10l-7 9
l-7 8l-7 11l-6 9l-5 10l-4 10l-6 11l-5 11l-5 10l-5 12l-3 12l-3 14l-1 12l-1 16v17v14v15v15v12v14l1 13l2 12l1 11l2 12l1 11l2 11l1 11l1 10l2 12l2 10l7 20l7 20l4 10l8 18l6 10l5 9l6 10l10 17l5 9l7 11l7 9l8 9l7 9l7 8l5 11l7 8l6 8l14 16l11 13l10 12l9 12l10 10
l10 10l11 9l12 10l13 9l14 10l16 9l6 2v1h2l10 4h20h19h17h19l6 -1h12l13 -1l12 -1l15 -1l12 -3l13 -3l15 -4l11 -5l12 -4l16 -7l11 -7l10 -7l14 -8l9 -8l10 -9l10 -9l11 -10l9 -8l10 -9l8 -9l8 -10l9 -7l8 -11l7 -9l7 -11l7 -12l5 -12l6 -11l5 -11l5 -11l5 -12l4 -11l3 -11
l5 -12l2 -10l3 -10l4 -12l1 -13v-11v-13v-11v-12v-10v-15l-3 -13l-1 -10l-1 -12l-2 -12l-2 -10l-3 -11l-5 -18l-7 -18l-5 -9l-7 -17l-7 -16l-5 -10l-10 -16l-10 -17l-6 -9l-6 -9l-9 -14l-13 -14l-12 -11l-16 -12l-9 -7l-5 -4l4 -8l8 -17l7 -15l7 -16l2 -5l9 -8l7 -7l10 -7
l10 -6l8 -6l17 -10l15 -8l18 -3l8 -1h12l7 2l6 11l4 21l3 13l2 10l3 17l13 -3l10 6l7 -12l8 -13l1 -3l2 -2l7 -12l1 -9l3 -10v-14zM301 719l-8 -18l-7 4l-10 -4l-17 -12l-10 -10l-12 -12l-13 -13l-13 -14l-11 -11l-8 -10l-11 -11l-9 -10l-9 -12l-7 -11l-5 -10l-6 -12l-4 -11
l-7 -13l-7 -13l-4 -15l-5 -12l-4 -14l-4 -13l-5 -15l-5 -17l-3 -13l-5 -16l-3 -13l-3 -14l-1 -14l-1 -15v-17l-2 -17v-15v-17v-15v-12l1 -14l4 -14l3 -14l5 -17l3 -13l5 -14l4 -13l5 -11l6 -11l5 -11l6 -9l7 -9l6 -10l8 -8l7 -8l6 -8l7 -6l9 -7l9 -6l8 -7l8 -4l10 -5l21 -9
l20 -8l19 -6l10 -1l13 -2l21 -2l14 -1l10 -1h12h13h12l10 3l10 5l10 5l9 6l18 9l10 4l10 5l11 5l18 9l10 5l9 6l7 7l9 8l6 6l-6 6l-8 7l-15 17l-5 8l-14 11l-13 12l-8 4l-9 4l-7 1h-16l-12 -1h-1l-8 -8l-12 14l1 5v1l2 16l13 12l15 5h16h19l16 -5l17 -7l15 -10l10 -7l15 -15
l12 -13l15 -16l2 -4l7 8l9 11l7 9l5 9l6 11l6 10l7 13l5 10l5 11l5 11l5 12l5 12l4 11l5 15l3 12l3 13l3 13l3 13l2 11l2 15v13l1 16l1 11v15v13v12l-2 12l-3 13l-3 13l-5 12l-5 13l-5 13l-6 15l-4 12l-7 15l-4 13l-8 12l-8 11l-5 11l-6 8l-7 9l-7 9l-6 7l-8 8l-8 8l-14 11
l-7 7l-16 12l-13 9l-18 11l-16 9l-8 5l-17 7l-18 5l-10 3l-17 4l-11 2h-2h-15h-15h-16h-11h-13l-12 -2l-5 -2l-8 -4z" />
    <glyph glyph-name="R" unicode="R" horiz-adv-x="824" 
d="M78 714l-1 1l-4 12l-3 5l-2 2l-1 -1v-5l7 -12zM662 14l8 2l9 3l11 5l7 5l4 8l4 8v12v14l-2 12l-5 11l-7 11l-8 10l-5 3l1 -8v-16l-1 -16l-1 -13v-16l-5 -14l-6 -15zM418 88l7 -9l11 -16l12 -15l10 -11l14 -13l15 -8l18 -7l9 -4l10 -2l15 -1l-12 4l-18 8l-10 7l-11 7
l-10 7l-10 7l-9 8l-11 9l-9 9l-9 8zM290 274l-2 3l-7 11l-5 -1l-13 -3l-12 -2l-15 -2l-14 -2l-16 -2l-14 -2h-17l-9 -1l7 -1l9 -1l14 -2l20 -1h10l10 -1h10h11l9 1l9 1zM80 314l4 -2l13 -7l3 -1v14v15l1 15v14v14v14v14v13v10l-8 -1l-9 -5l-8 -7l-10 -9l-8 -11l-5 -7v-4v-10
l2 -18l3 -9l8 -17l12 -14zM141 293h5h14l15 1h15l14 2l16 2l14 2l13 2l12 2l12 2l-3 5l-9 17l-8 16l-5 8l-7 9l-6 9l-6 9l-5 8l-2 1l-7 10l-13 9l-14 10l-12 7l-12 5l-3 1h-15h-8v-4l2 -16v-16l1 -14l1 -18l1 -15v-13v-16v-14v-11zM121 347l-1 -14v-15v-17l-1 -4h1l1 -1v8
v14v16v13zM314 282l7 3l17 7l16 6l17 7l13 8l18 10l14 9l14 10l9 7l6 5l-12 -7l-14 -7l-15 -8l-12 -5l-17 -7l-14 -7l-14 -4l-16 -7l-13 -5l-12 -3l5 -7zM135 455l8 -1l11 -2l11 -2l5 -3l7 -2l13 -5l10 -7l9 -6l17 -12l12 -17l9 -9l10 -15l6 -9l10 -16l9 -18l10 -16l3 -3
l4 1l13 4l13 3l16 7l12 4l14 7l17 7l12 5l13 8l14 7l12 7l13 7l12 7l10 8l9 7l10 8l11 11l9 9l6 8l8 9l8 10l7 8l8 17l5 10l3 9l4 17v12v11l-1 9l-2 17l-4 18l-4 16l-9 12l-3 3l-8 8l-8 6l-9 8l-7 6l-11 5l-13 7l-3 2l-5 2l-10 5l-11 2l-6 2l-13 1l-14 3l-13 1l-13 2l-15 1
l-17 1h-6h-14h-11h-14h-13h-12h-13h-4l-13 -3l-13 -3l-16 -3l-21 -3l-15 -1l-15 -2h-17h-15h-15h-11v-8v-17v-9l1 -4l2 -14v-13l2 -13l1 -12l1 -15l2 -13l1 -15v-14l1 -14l1 -16l1 -16zM142 2l-2 -6h11l9 1l10 1l11 2h12h11l2 5h-4l-10 -2h-16h-10h-13zM121 267l-4 2v-13
l-1 -18l-2 -16l-1 -19l-1 -16v-17l-1 -17l-1 -15v-15l-1 -15l-1 -14v-12l-2 -12v-10v-10v-18v-14v-1l9 1l9 2l-2 11v14l-1 15v14v16v14v15v16v16v11v11v11v11v14v12v10v13v10v13zM323 265l4 -8l6 -10l6 -12l5 -10l8 -13l5 -11l3 -3l11 -17l11 -14l6 -9l6 -9l11 -14l12 -15
l7 -7l6 -8l14 -15l9 -8l9 -9l9 -7l9 -8l10 -7l10 -7l9 -7l10 -5l16 -8l16 -4l19 -5l9 -1h10l11 -1h18h9l8 2l8 7l5 8l6 13l3 10v12l1 15l1 14v16l-1 12l-3 7l-5 8l-11 5l9 18l17 -7l12 -9l8 -6l12 -9l10 -12l9 -13l7 -15l2 -16v-16v-16l-6 -14l-8 -12l-11 -9l-13 -5l-11 -5
l-12 -2l-11 -4h-12l-13 -3l-17 -2l-14 -2l-18 -1h-10h-19h-11l-19 1l-12 4l-11 4l-18 7l-19 10l-16 15l-12 11l-12 17l-11 16l-10 14l-12 18l-5 10l-10 19l-6 11l-4 11l-7 10l-10 21l-5 10l-2 3l-6 10l-11 15l-8 11l-5 10l-5 9l-3 7h-1l-20 -7l-11 -1l-11 -1h-11h-10l-10 1
h-10l-22 1l-14 2l-11 1l-15 3l-12 5h-1v-6v-10v-13v-10v-12v-14v-11v-11v-11v-11v-16v-16v-15v-14v-16v-14l1 -15v-12l2 -11l7 1h15h10h14l14 2l18 -10l2 -15l-3 -17l-17 -3h-11h-10l-11 -2l-10 -1l-11 -1h-12h-16h-19h-19l-15 1l-11 1l-18 1l-16 1h-8h-8v20h1h1l3 14l14 -3
h18l10 1l11 1l13 1h6v4v14v18v10v12l2 12v10l1 16l1 13v15l1 17l1 15v17l1 18l1 19l2 16l1 16v16v6l-4 3l-10 7l-11 8l-7 4l-12 8l-8 9l-12 16l-4 19v21l4 17v9l1 17l5 14l9 11l19 11l22 4h12v13v12v12v11v11v10v11v11v15v10v15v17v16v6l-1 4l-3 13l-3 12l-1 10l-14 5
l-13 10l-10 12l-7 19l-2 13v4v7l3 20l20 3l13 -8l10 -10l11 -18l7 -11l3 -11l10 -1l13 -2h10h16h15h12h16h14h14h14h14h7l4 1l14 2h15h13h15l16 -1l15 -2h6l12 -1h12l16 -1l12 -1l13 -1l13 -4l2 -1h1l19 -6q3 0 5 -1l12 -6l5 -2l12 -6l11 -7l2 -1l3 -2l12 -8l11 -11l9 -9
l5 -5l7 -7l9 -16l7 -18l4 -21v-11v-10v-12l-2 -12l-2 -13l-2 -10l-4 -18l-7 -19l-8 -17l-6 -10l-14 -15l-6 -9l-6 -8l-7 -9l-8 -8l-10 -8l-7 -6l-7 -8l-10 -8l-16 -12l-8 -6l-9 -7l-16 -10l-14 -9l-18 -12l-15 -8l-17 -7l-16 -6l-17 -7z" />
    <glyph glyph-name="S" unicode="S" horiz-adv-x="681" 
d="M179 460l-1 2l-8 10l-6 10l-6 10l-5 13l-4 12l-4 14l-2 14l-2 11l-2 10l-2 12v13l-1 13v10v10l1 20l-9 -16l-4 -14l-5 -15l-3 -15v-15v-19l1 -16l3 -11l4 -9l5 -8l7 -7l7 -9l8 -8l8 -8l7 -7l10 -4zM241 208l5 1l8 6l8 8l2 9v14l-3 13l-3 9l-8 15l-12 17l-6 7l-7 6l-17 11
l-9 3l-15 4h-10h-10h-8l-9 -3l-8 -5l12 2h12h16l12 -3l19 -10l13 -11l9 -9l8 -16l5 -18v-18v-18zM153 229v7v15l2 6l-1 -1l-6 -2v-6v-7l4 -11zM112 110l-4 6l-7 13l-5 12l-5 12l-9 21l-5 12l-2 12l-3 13v-7l2 -9l3 -14l4 -14l3 -13l4 -9l8 -11l5 -11l7 -10zM530 523l10 9
l5 7l8 9l4 8l1 9v10v11l-1 13l-1 12l-2 13l-3 13l-6 13l-4 11l-7 13l-7 9l-10 8l-10 10l-10 8l-11 7l-12 8l7 -7l10 -12l13 -12l12 -17l7 -10l8 -14l8 -17l6 -20v-18v-20l-2 -18l-3 -14l-5 -13zM421 488l8 18l8 -4h37l12 3l8 4l8 8l6 7l4 8l5 8l3 11l3 12l2 16v18v16l-4 14
l-8 15l-8 14l-5 8l-12 15l-11 12l-10 12l-12 11l-14 11l-11 6l-11 7l-14 5l-11 5l-10 2l-11 3l-10 2h-10h-11h-13h-9l-10 -2l-11 -2l-12 -3l-12 -3l-14 -5l-17 -8l-11 -5l-11 -6l-10 -5l-10 -6l-8 -5l-2 -2l-7 -9l-6 -8l-11 -16l-5 -10l-3 -10l-3 -10l-1 -16v-10v-10l1 -13
v-11l2 -10l2 -10l2 -11l2 -14l4 -12l2 -12l5 -9l6 -10l4 -8l6 -8l7 -7l8 -5l9 -5l19 -9l9 -3l11 -3l21 -5l20 -8l17 -7l15 -5l15 -6l17 -7l15 -7l17 -6l17 -5l11 -3l12 -4l16 -8l19 -9l16 -9l10 -7l9 -7l8 -6l3 -2l8 -7l10 -8l8 -8l8 -10l7 -10l9 -17l7 -16l4 -11l4 -10
l3 -11l1 -21v-11v-10l-1 -19l-5 -13l-5 -11l-6 -11l-7 -10l-8 -9l-6 -9l-9 -8l-9 -9l-13 -10l-12 -10l-1 -1l-9 -7l-11 -9l-14 -9l-14 -8l-11 -6l-11 -7l-12 -5l-12 -6l-13 -4l-11 -5l-14 -3h-14h-11h-11l-13 1l-11 2l-12 1l-11 3h-10l-13 3l-21 4l-13 5l-20 8l-10 6l-11 5
l-11 7l-6 6l-13 6l-15 10l-13 10l-14 7l-10 12l-11 9l-11 14l-5 11l-8 11l-4 13l-5 13l-4 16l-3 14l-2 11l-1 20l1 23l6 18l7 8v6l6 16l13 17l10 8l10 8l11 8l12 6l12 6l13 5h12h10h12l19 -4l13 -5l19 -13l9 -8l8 -9l14 -19l8 -17l5 -11l3 -17v-18l-4 -17l-14 -14l-12 -8
l-15 -4h-14h-13h-14l-16 5l-6 1l-17 7l-11 6l-12 12l-8 19v13l4 16l12 8l16 8h14l14 -1l2 -19l-11 -3l-4 -4l-2 -6v-13v-11l3 -7l9 -6l12 -2h11l10 3l6 3l1 8v16v16l-3 12l-6 12l-7 7l-11 9l-13 8l-8 1h-14h-10l-8 -2l-9 -3l-10 -5l-11 -6l-9 -5l-7 -7l-11 -9l-3 -4v-2v-14
l2 -10l2 -12l2 -10l4 -14l2 -10l3 -10l9 -21l5 -12l5 -12l7 -11l7 -13l7 -9l8 -9l7 -10l7 -8l8 -8l10 -7l1 -1h1l12 -7l14 -4l16 -5l17 -5l16 -5l13 -3h17h15h16h15h16h11l14 2l13 2l12 4l12 2l16 7l15 6l13 6l14 6l7 6l12 7l2 1l8 8l8 8l7 7l7 10l7 9l10 16l5 8l5 16l2 18
l1 9v10v10v10v10l-5 16l-5 15l-8 15l-5 7l-7 10l-11 14l-10 11l-6 3l-17 12l-18 11l-10 5l-10 6l-10 4l-11 4l-10 3l-11 4l-10 4l-11 3l-12 3l-12 5l-21 7l-11 3l-9 3l-10 2l-12 2l-13 2l-13 3l-12 4l-14 4l-12 5l-12 4l-13 4l-11 5l-11 5l-11 7l-12 6l-9 9l-8 8l-8 8l-9 9
l-7 9l-7 12l-4 11l-5 13l-1 20v19v17l3 17l5 17l6 16l9 18l9 15l12 13l8 8l8 8l8 8l9 8l7 6l9 10l18 11l15 9l17 6l10 4l16 8l18 3l19 4l15 1l11 1h11l17 1h18h17l15 -2l16 -3l14 -6l11 -7l12 -5l13 -6l12 -8l12 -9l13 -7l12 -10l10 -10l10 -8l9 -13l9 -15l4 -11l6 -15
l5 -15l2 -15l1 -12l1 -15v-11v-12l-3 -13l-6 -12l-8 -11l-7 -9l-13 -12l-11 -7l-12 -5l-13 -6l-13 -7l-13 -4l-2 5h-1h-43z" />
    <glyph glyph-name="T" unicode="T" horiz-adv-x="789" 
d="M561 582l-6 -3l10 3l13 2l9 3l10 3l18 5l16 8l13 8l11 8l9 11l6 7v10l-1 15l-2 11l-6 10l-8 10l-4 3v-2v-18l-5 -19l-10 -18l-8 -10l-8 -8l-8 -8l-11 -9l-10 -8l-11 -8zM262 596l4 -6l14 -4l16 -3l11 -2l-10 3l-14 5l-12 5zM248 601v1l-12 4l-11 4l-10 4l-12 6l-10 4
l-12 6l-18 10l-10 5l-19 8l-11 5l-10 4l-17 8l-9 4l-18 4l-16 5l-17 4l-18 1l-17 2l-17 2h-9h-9l-11 -3h2h15h12h15l13 -3l14 -3l13 -3l11 -2l13 -4l13 -3l13 -6l13 -6l12 -5l15 -8l11 -4l14 -8l12 -5l15 -6l12 -6l15 -6l16 -6l14 -7l4 -1zM317 364v-14l3 -18l1 -16l3 -19
v-18l1 -16l1 -15l1 -21l1 -19l1 -18v-16v-15v-16v-17v-16v-14v-13v-11l-1 -11v-18l-1 -13v-9h2h10h17h13h6l-2 4l-2 10l-2 11l-1 12l-2 13l-1 13l-4 16l-3 16l-1 11l-3 14l-2 10l-2 11l-2 11l-1 11l-2 11l-2 13l-2 11l-2 13l-3 13l-2 13l-2 12l-1 13l-2 14l-2 12l-3 14
l-2 16v13l-3 14zM-87 651l-20 6l6 14l12 4l-3 3l13 14l10 8l13 6l20 6h11h11l17 -2l17 -2l18 -1l21 -4l16 -5l18 -6l11 -4l17 -8l10 -4l11 -5l19 -8l12 -5l18 -10l10 -6l10 -4l12 -6l10 -4l9 -4l12 -4l13 -5l10 -3l12 -5l14 -3l10 -3l13 -4l12 -3l11 -4l11 -3l11 -2l14 -3
l10 -3l9 -3l10 -2l5 -1h14h18l13 2l17 3l17 4l13 3l17 4l14 6l11 5l15 6l9 6l10 8l9 7l8 8l8 8l6 8l8 14l3 13v16v13l-4 6l-12 10l12 16l16 -11l13 -10l13 -11l10 -12l8 -14l4 -17l1 -17l-2 -16l-8 -13l-11 -13l-13 -10l-15 -10l-18 -8l-20 -7l-10 -3l-11 -3l-13 -2l-10 -3
l-10 -1l-13 -3h-11l-10 -1l-11 -1l-15 -1h-11h-11h-12h-11h-20l-6 1h-1h-16l-17 1l-16 1h-15l-16 1l-16 2l-8 2v-2v-18l1 -10l1 -10l1 -11l3 -21l1 -11l3 -12l1 -15l3 -13l1 -13l3 -12l4 -17l2 -12l2 -13l3 -16v-13l2 -14l3 -14l2 -14l2 -14l1 -13l2 -10l2 -13l3 -13l2 -13
l2 -11l2 -13l2 -13l1 -11l2 -9l2 -11l2 -10l3 -16l1 -11l3 -14l4 -16l1 -15l2 -13l1 -12l2 -9l2 -12l-2 -18l-20 -8h-15h-17h-10h-10l-13 -5l-16 1l-12 2l-11 5l-6 2h-4l-15 1l-14 1l1 20h15h13l8 -3l10 -1l15 -3h10h7v9l1 13v18l1 11v11v13v14v16v17v16v15v16l-1 16l-1 21
l-1 19l-1 15l-1 18v16l-3 19l-1 16l-3 18v16v18v16l-2 17l-2 17v16l-3 16v19v14v12h6l-1 9l-1 10l-1 12v18v5h-1l-16 3l1 -6l4 -13l1 -16l1 -18l1 -15l1 -19v-16l1 -16v-10v-10v-16v-18v-18v-17v-18v-10v-10v-18l-1 -19v-19l-2 -11v-9l-1 -18l-3 -17v-10l-2 -16l-2 -17
l-1 -16l-2 -15l-2 -13l-2 -14l-1 -13l-4 -14l-3 -13l-2 -12l-2 -13l-5 -13l-18 6l3 11l2 13l2 12l3 15l4 12l1 11l2 14l2 13l2 15l1 16l2 17l2 16v10l3 17l1 16v11l2 11v17l1 19v18v10v10v18v17v18v18v16v10v10l-1 16v16l-1 17l-1 15l-1 18l-1 14l-4 13l-2 10l-2 7l-6 1
l-17 6l-14 7l-16 6l-15 6l-12 6l-15 6l-12 5l-14 8l-11 4l-15 8l-12 5l-13 6l-11 4l-13 3l-11 4l-11 2l-13 3l-14 3l-11 3h-13h-12h-13l-13 -2l-33 -10v-6z" />
    <glyph glyph-name="U" unicode="U" horiz-adv-x="767" 
d="M293 -3l-10 7l-12 10l-9 7l-11 7l-14 11l-9 7l-8 8l-8 10l-7 8l-12 12l-13 14l-6 10l-6 8l-14 15l-6 10l-10 15l-11 18l-5 12l-8 18l-7 17v-13v-15l1 -12l4 -12l4 -16l3 -12l6 -12l5 -15l6 -9l7 -10l7 -10l7 -8l8 -9l8 -6l10 -8l10 -8l13 -9l9 -7l14 -7l11 -6l14 -7
l14 -5l16 -5zM635 719l-1 2l-10 9l-9 3l-16 5h-10h-13h-9l-16 -6l-6 -6l-13 -12l-7 -8l-10 -15l-5 -9l-8 -14l-3 -13l4 10l5 11l7 9l8 10l10 8l8 7l16 11l18 7l16 3h12l17 -1l11 -7zM596 268l2 -7l-1 14v12l-1 11l-2 10l-1 11l-3 11l-3 11l-1 10l-4 18l-4 11l-4 19l-5 10
l-8 16l-8 18l-6 17l-10 14l-7 14l-7 13l-11 15l-7 14l-6 1v-14l2 -15l2 -12l4 -12l3 -12l3 -12l6 -11l4 -13l6 -11l4 -12l6 -10l6 -12l6 -11l8 -11l6 -13l4 -14l5 -11l6 -13l5 -12l7 -18zM538 33l3 2l12 12l10 13l6 8l6 9l4 10l5 10l4 10l3 11l-5 -11l-8 -18l-8 -14l-9 -13
l-9 -14l-12 -13zM57 677v20h17l28 -14l13 -14l8 -20l1 -13l2 -10l1 -13v-15v-12v-14v-14v-12v-16l-2 -15l-1 -14l-3 -16l-1 -14l-2 -13l-2 -15l-1 -12l-1 -12l-1 -16l-1 -14l-1 -15l-1 -17l-1 -15v-14l1 -19l2 -10l1 -16l3 -17l4 -17l4 -18l8 -19l8 -18l5 -10l11 -18l8 -15
l6 -8l14 -15l6 -8l6 -10l11 -12l12 -12l9 -10l6 -8l8 -6l7 -7l14 -11l11 -7l9 -7l12 -10l11 -7l12 -5l11 -5l9 -2l14 -3l12 -3l11 -1h12h11h11l18 1l7 2l17 4l14 5l15 7l12 7l12 8l10 9l12 12l10 11l9 12l7 13l8 14l8 16l7 16l4 15l3 11l2 13l2 14v13v14v12l-2 14l-4 12
l-4 13l-4 14l-5 16l-5 12l-6 13l-5 13l-4 12l-6 11l-6 11l-8 11l-6 12l-6 12l-4 12l-6 11l-4 13l-6 11l-5 14l-3 12l-4 14l-2 14l-2 15v16v14v14v12v12l1 11l-2 5l-1 13v10v18l2 19l5 17l8 16l5 9l12 17l9 10l13 12l10 8l22 10h13h13h12l20 -5l13 -5l16 -15l12 -19l6 -20
v-12l-3 -19l-13 -20l-20 -7h-14l-15 6l-9 2l-7 10l-4 4l-1 14v1v16h20v-14l1 -10l1 -1l4 -3l3 -2h4h7l5 5l4 4l-1 8v11l-1 7l-3 7l-7 6l-5 5l-11 -1h-10l-12 -3l-14 -5l-14 -9l-8 -7l-8 -6l-6 -8l-5 -7l-5 -9l-4 -10l-6 -10l-1 -9l-5 -11l-3 -11l-2 -10v-1l3 -9l3 -12l4 -9
l7 -16l6 -9l7 -14l9 -15l9 -13l7 -14l10 -16l6 -17l8 -18l8 -16l5 -12l6 -19l4 -11l4 -20l1 -10l3 -9l3 -13l1 -13l2 -10l1 -13v-12l1 -12l2 -23v-12l1 -12v-14v-12v-13v-14l-2 -14l-2 -12l-4 -12l-2 -13l-5 -11l-4 -12l-5 -10l-4 -12l-8 -11l-6 -8l-12 -15l-14 -14l-18 -12
l-17 -9l-13 -4l-9 -4l-10 -4l-12 -5l-12 -3l-11 -2l-21 -1l-7 -2l-20 -3h-16h-20h-19l-17 1l-22 2l-13 3l-18 4l-16 7l-16 5l-16 7l-11 6l-14 9l-11 7l-13 9l-10 8l-10 8l-10 8l-8 9l-9 10l-7 10l-7 10l-8 13l-5 15l-6 12l-5 14l-4 16l-4 14l-1 16v15v15v17v17v15v15v16v12
l1 15l1 14v3l-1 11v20v20v10v10v11v11v12v13v11v13l15 34l3 -1l1 10v14v12v14v14v12v15l-1 11l-2 10l-1 11l-4 14l-9 8l-20 10h-13z" />
    <glyph glyph-name="V" unicode="V" horiz-adv-x="803" 
d="M398 256l9 12l13 14l6 7l13 15l8 8l9 7l8 9l17 16l8 8l6 8l7 7l9 11l10 8l9 11l8 8l8 10l7 9l6 9l8 9l7 9l7 10l7 9l5 10l7 8l4 10l7 9l8 11l5 9l9 13l7 12l8 14l7 14l7 11l4 11l5 11l4 10l5 10l2 11l2 11v18v9l-2 18l-2 13l-7 12l-8 12l-7 7l-6 6l-10 4l-10 5l-9 5
l-10 2h-12h-13l-12 -1l-17 -3l-12 -3l-12 -5l-11 -5l-10 -7l-10 -9l-9 -9l-8 -11l-2 -10v-13l1 -10l1 -9l6 -16l7 -6l9 -7l9 -3l10 -2h13h10l12 3l7 6l3 6l-19 -7l-16 1l-16 3l-13 13l-3 16v13l4 16l8 15l15 15l13 6l13 6l15 3l15 1h15l11 -2l14 -3l13 -5l14 -10l10 -11
l7 -12l4 -15v-12v-11l-1 -15l-2 -12l-4 -14l-4 -14l-7 -16l-9 -15l-9 -15l-10 -15l-10 -15l-9 -12l-8 -11l-10 -12l-8 -13l-12 -10l-6 -8l-10 -12l-8 -10l-9 -11l-10 -11l-8 -11l-7 -10l-9 -9l-9 -10l-8 -11l-8 -11l-7 -12l-7 -10l-11 -13l-8 -8l-7 -10l-9 -11l-8 -13
l-10 -11l-9 -12l-8 -11v-2zM307 61v-11v-11v-12l-11 -17l-9 2v-1v-1l-1 -4h4h7l6 5l5 6l2 7v12l-1 9l-1 12zM38 679l11 -12l5 -10l12 -16l6 -10l12 -19l6 -11l7 -11l6 -12l6 -11l5 -9l-6 13l-7 15l-7 16l-7 15l-9 15l-7 14l-11 11l-7 10l-8 8zM-17 620l-8 -18l-13 5l-11 19
v19l5 20l8 11l-5 3l10 16l15 5h7l3 2l15 2h12h12l13 -6l11 -7l10 -10l9 -10l11 -13l9 -16l9 -15l7 -17l7 -16l7 -15l8 -16l7 -16l8 -18l7 -18l4 -14l6 -15l6 -14l5 -13l7 -15l4 -12l6 -13l4 -14l4 -10l6 -12l5 -15l3 -10l5 -10l4 -12l4 -11l1 -2l3 -4l5 -13l5 -11l5 -12
l4 -11l3 -10l5 -11l5 -12l4 -11l5 -12l8 -21l4 -11l4 -12l2 -10l4 -9l5 -11l1 -1l4 9l5 11l7 13l8 10l5 10l7 11l7 10l5 11l8 12l9 13l7 9l8 12l8 13l9 12l10 11l8 13l9 11l7 10l10 10l9 11l7 10l7 10l8 13l8 11l11 12l7 7l7 10l8 11l10 13l9 9l8 10l10 12l8 10l10 10l8 11
l10 12l8 11l9 12l10 13l8 15l9 15l9 15l7 12l2 12l4 14l2 10l1 13v11v10l-2 9l-5 8l-8 7l-10 8l-9 3l-12 3l-9 2h-13l-13 -1l-11 -3l-11 -4l-9 -4l-11 -11l-6 -11l-2 -10v-9l1 -8l5 -5l8 -1l12 -1l12 5l6 5l19 -6l5 -15l-8 -20l-13 -12l-20 -5h-12h-15l-14 2l-13 5l-11 9
l-11 10l-10 24l-1 11l-1 12v15l4 16l10 15l11 11l12 11l12 9l13 5l14 5l14 5l19 3l14 1h13h14l14 -4l11 -5l10 -5l12 -6l10 -8l9 -9l10 -14l7 -16l4 -15l2 -20v-11v-20l-2 -13l-4 -13l-5 -12l-4 -10l-5 -11l-4 -11l-7 -13l-7 -14l-8 -14l-9 -12l-7 -13l-7 -11l-8 -11l-5 -7
l-6 -10l-7 -10l-5 -8l-7 -11l-7 -10l-7 -9l-8 -9l-6 -9l-7 -9l-10 -12l-8 -8l-9 -11l-10 -8l-7 -9l-7 -9l-8 -8l-8 -8l-17 -16l-8 -9l-9 -9l-8 -6l-11 -13l-6 -9l-15 -14l-10 -13l-11 -13l-10 -13l-12 -11l-10 -11l-9 -12l-8 -11l-7 -12l-8 -15l-8 -14l-7 -14l-6 -12l2 -4
l6 -13l1 -11l4 -14l1 -14l1 -11v-14l-4 -15l-9 -10l-14 -9l-15 -2l-16 6l-5 16v15v10l1 12l4 12l4 11l8 21l2 4l-1 4l-3 18l-4 15l-4 12l-2 10l-1 3l-5 15l-5 12l-6 14l-7 17l-6 16l-7 17l-4 10l-7 19l-4 12l-7 18l-1 6l-4 5l-5 12l-6 12l-6 13l-6 11l-5 13l-6 13l-5 13
l-7 11l-8 14l-5 11l-5 12l-5 14l-4 12l-6 11l-6 11l-7 14l-7 10l-6 13l-5 10l-7 11l-6 11l-6 12l-7 11l-6 11l-10 19l-6 8l-12 18l-5 8l-10 11l-10 9l-10 4l-8 1h-1l-2 -1l-9 -10l-9 -12l-3 -14v-11l5 -9z" />
    <glyph glyph-name="W" unicode="W" horiz-adv-x="964" 
d="M755 431l3 5l7 15l8 17l7 16l8 18l6 16l9 22l8 18l7 18l5 16l6 15l3 14l4 13l5 12l3 11l1 9v11v13l-1 13v9l-3 9l-6 11l-4 10l-7 7l-9 7l-15 11l-14 3l9 -16l6 -13l5 -13l4 -15l3 -13l2 -12l1 -13v-12v-11l-1 -11l-1 -11l-4 -21l-3 -11l-1 -10l-4 -14l-3 -10l-4 -13
l-3 -14l-4 -13l-3 -14l-6 -17l-7 -15l-4 -15l-6 -17zM678 265l2 4l7 15l7 15l7 14l7 16l7 15l7 14l8 16l7 16l7 14l3 9l-10 -15l-7 -15l-7 -15l-6 -13l-7 -16l-9 -18l-9 -15l-6 -17l-6 -16zM634 123l-3 -11l-3 -9l-2 -12l-2 -13l-2 -13l-2 -10l-1 -15l-2 -16v-4l2 -6l3 -10
l5 -11l5 -9l7 -9h8l8 1l5 2l3 6v9l-1 16l-1 15l-4 17l-3 15l-3 12l-4 12l-3 11l-3 12l-6 15zM441 603l-2 -6l2 4v2zM337 355l-1 -2l-7 -16l-5 -13l-6 -15l-6 -13l-7 -14l-7 -15l-7 -17l-7 -15l-5 -16l-4 -18l-5 -13l-3 -19l-4 -14l-3 -13l-4 -12l-5 -12l-7 -19l-3 -11v-3
l3 -10v2l4 12l6 15l4 10l3 13l5 12l5 13l4 14l5 14l5 13l4 17l4 15l1 10l3 11l7 18l6 18l9 23l5 11l4 11l4 12l4 11zM238 6l-1 -2l1 -2v4zM73 530l5 -19l3 -10l5 -11l5 -11l4 -11l5 -12l4 -13l4 -12l2 -11l3 -11l4 -12l3 -11l4 -15l3 -12l4 -14l5 -13l4 -13l3 -12l3 -11
l5 -13l3 -11l3 -11l4 -12l4 -11l4 -12l5 -11l3 -12l4 -11l3 -11l3 -11l5 -12l3 -12l4 -10l2 -13l3 -9l6 -20l5 -19l1 -5v3l2 13l2 5v2l-4 12l-5 12l-3 14l-6 15l-4 10l-5 20l-2 11l-5 10l-3 12l-4 11l-3 13l-2 12l-3 10l-3 10l-4 12l-2 12l-6 11l-5 14l-6 16l-4 13l-5 14
l-6 16l-5 13l-4 15l-5 17l-4 11l-7 15l-4 14l-6 13l-2 12l-6 11l-4 11l-5 13zM-30 633l-5 10l4 15l-8 -16l-1 -16l9 4zM-6 637l-1 -2v-1l-5 -12l-5 -15l-3 1l3 -4l3 -4h3l6 12l8 12l1 2h-1v20h9l1 10l5 1l-2 8l-4 9l-4 8l-6 -1h-10l-9 -7l12 -5l3 1l9 -10l-7 -7v-5v-11h-6z
M-42 606l-20 4l2 9l1 27l12 24l8 9l8 9l17 11l16 2l14 -1l14 -16l4 -13l4 -10l5 -12l5 -12l6 -11l5 -11l7 -14l5 -12l5 -14l4 -13l6 -11l5 -13l5 -12l5 -13l4 -11l6 -13l4 -12l4 -13l4 -12l7 -15l4 -13l7 -17l4 -15l3 -13l6 -16l5 -14l4 -13l6 -14l5 -14l6 -13l4 -12l4 -12
l3 -10l3 -12l2 -12l3 -11l4 -11l3 -12l3 -10l4 -11l5 -20l2 -10l6 -15l5 -14v-2l2 5l5 10l2 10l3 15l4 12l3 19l5 15l4 18l7 18l7 15l7 17l7 15l7 14l6 13l6 15l5 13l7 16l5 10l4 17l5 15l6 15l5 15l6 16l7 15l8 16l8 15l8 12l4 12l5 11l5 14l7 11l5 10l5 10l6 21l7 18
l10 14l10 9l5 2l5 7l4 -3l11 2l16 -1l11 -16v-18l3 -15l3 -13l5 -14l3 -11l5 -17l7 -18l3 -10l6 -19l3 -12l3 -11l8 -22l5 -18l8 -20l6 -18l3 -12l7 -20l4 -11l8 -21l5 -11l3 -11l3 -11l4 -12l4 -11l7 -18l4 -17l7 -16l6 -18l2 -4l1 2l7 14l5 16l7 16l6 15l5 17l6 16l6 19
l9 17l9 16l7 16l6 13l7 15l7 17l11 15l7 16l7 15l4 15l6 17l7 15l4 15l3 14l4 13l3 14l4 13l3 10l4 12l1 10l3 11l4 19l1 11l1 9v11v12l-1 11l-2 10l-3 13l-4 13l-3 11l-6 11l-7 13l-8 6l-8 4l-6 -2l-13 -2l-13 -2l-14 -1l-5 19l20 10h17l15 -1h1h1l14 2h16l21 -5l19 -13
l11 -9l9 -11l6 -12l6 -11l5 -13v-13l1 -13v-13v-11l-1 -13l-5 -13l-3 -12l-4 -13l-5 -14l-6 -15l-5 -16l-7 -20l-8 -18l-9 -22l-6 -16l-8 -18l-7 -16l-8 -17l-7 -15l-7 -15l-7 -17l-7 -14l-7 -16l-8 -16l-7 -14l-7 -15l-7 -16l-7 -14l-7 -15l-7 -15l-6 -15l-7 -14l-5 -12
l-7 -12l-4 -12l-7 -11l-5 -11l-5 -9l-6 -10v-1l5 -14l4 -16l4 -15l5 -12l3 -11l4 -12l3 -14l3 -15l4 -19l1 -15l1 -18v-15l-9 -14l-13 -8l-14 -1l-16 2l-15 15l-7 11l-5 13l-1 1h-7l1 21l-2 5l-2 17v17v16v16l4 16l3 15l5 12l6 16l6 14l3 9l-3 9l-6 17l-6 16l-7 18l-6 17
l-5 18l-4 11l-4 12l-5 11l-3 11l-3 11l-8 21l-4 11l-7 20l-5 12l-4 18l-8 20l-7 18l-6 22l-5 11l-3 12l-6 19l-3 10l-5 18l-7 17l-3 11l-5 14l-3 15l-3 17v14l-1 4l-4 -1l-7 -1l-1 -15l-4 -16l-8 -14l-6 -15l-8 -13l-5 -10l-6 -12l-7 -16l-7 -10l-5 -11l-5 -13l-5 -13
l-5 -11l-5 -12l-4 -14l-6 -12l-3 -12l-4 -13l-3 -12l-5 -11l-3 -13l-5 -12l-4 -11l-4 -12l-4 -13l-5 -11l-9 -21l-6 -18l-5 -18l-3 -9l-1 -10l-4 -15l-4 -19l-7 -15l-5 -12l-4 -14l-5 -13l-3 -12l-5 -13l-4 -12l-6 -13l-2 -10l-3 -13l-12 3v-1v-11l3 -8l4 -15l1 -17l-1 -19
l-20 -12l-17 16l-1 14v1l-8 -2l-5 22l-2 10l-5 18l-3 10l-5 19l-6 20l-3 11l-2 11l-4 10l-3 12l-3 12l-5 11l-3 11l-4 11l-3 12l-3 11l-4 12l-4 11l-4 12l-5 11l-3 11l-3 13l-5 11l-3 12l-4 13l-3 13l-6 14l-3 14l-4 13l-3 11l-4 12l-3 13l-2 9l-4 12l-4 13l-3 12l-4 9
l-5 11l-5 11l-5 12l-6 23l-6 21l-7 21l-6 20l-3 13l-4 19v1l-7 -11l-8 -10l-10 -18l-19 -4l-15 10l-9 17v-1z" />
    <glyph glyph-name="X" unicode="X" horiz-adv-x="793" 
d="M506 637l-6 -9l-15 -21l-17 -20l-16 -21l-17 -22l-17 -23l-17 -23l-15 -21l-15 -21l-15 -20l-11 -15l9 -14l1 -1l4 5l12 17l13 18l14 18l11 18l10 13l9 17l14 18l11 16l10 13l9 15l9 14l7 13l6 10l5 11l6 11zM95 40l8 12l10 14l11 14l10 13l13 18l15 16l10 12l13 19
l13 17l10 17l9 15l9 18l14 20l12 17l11 16l11 18l14 15l11 16l11 18l10 13l-3 5l-5 9l-2 -2l-15 -22l-14 -23l-13 -21l-13 -23l-14 -23l-12 -20l-12 -19l-13 -21l-14 -19l-13 -20l-14 -18l-11 -17l-12 -20l-15 -19l-15 -18l-13 -15l-10 -11l-1 -1h1h8zM337 383l5 6l-2 3
l-8 12l-4 -6l5 -10zM25 20h-13l1 -4l4 2zM535 41l-1 2l-8 13l-7 10l-8 11l-8 13h-1l4 -6l5 -10l11 -15l7 -10l4 -7zM456 171l-6 8l-8 9l-5 7l7 -12l5 -10l9 -12l6 -8l-3 7zM412 269l-4 11l-6 10l-6 12l-7 9l-2 4l-4 6l-8 15l-4 7l-5 8l-1 3l-9 12l-3 5l-3 -5l8 -16l8 -15
l6 -8l7 -8l6 -9l6 -8l6 -9l6 -9zM280 469l-9 15l5 3l-5 7l-10 15l-12 14l-10 14l-11 15l-11 13l-13 14l-12 14l-12 13l-15 14l-13 12l-13 14l-13 10l-14 11l-10 7l-13 7l-14 6l8 -4l13 -9l10 -7l10 -7l12 -9l11 -11l10 -10l11 -10l11 -11l11 -11l8 -12l7 -10l11 -12l9 -12
l11 -11l8 -11l8 -10l8 -10l9 -12l8 -14l8 -11zM570 35h2h2l-1 1l-4 7l1 -5v-3zM474 17v4h10h16h10h13l-2 2h-3l-11 1l-9 1h-12h-10l-11 1l-3 -4l-1 -4l1 -2l8 1h4zM-30 -9l-4 20l18 3h10l-7 6l7 19l13 1h20h12h12h10l10 13l12 13l11 13l15 18l15 19l12 18l11 19l14 18l13 20
l14 19l11 19l12 19l12 20l14 23l13 23l15 21l14 23l15 22l6 12l-5 11l-14 18l-14 19l-14 17l-12 18l-15 19l-14 18l-15 20l-15 17l-17 17l-17 15l-16 15l-14 13l-17 13l-16 14l-15 13l-15 5h-13h-14l-11 -2l-10 -5l-4 -8l-18 10l8 12l18 9l15 4h16h9l-9 2l5 19l-7 1h-10h-11
h-8l-15 -9l-7 -7l-9 -13l-9 -11l-5 -10l-6 -15l-1 -13l1 -13l-20 -2l-1 15l1 17l8 19l7 12l9 13l9 13l11 11l21 13h14h11h12l12 -2l14 -4l13 -5l16 -6l15 -7l12 -9l14 -11l15 -12l13 -14l13 -12l15 -14l12 -13l12 -14l13 -14l13 -15l11 -15l10 -14l12 -14l10 -15l10 -14
l11 -14l8 -15l10 -13l7 -11l7 9l15 20l15 21l15 21l17 23l17 23l17 22l16 21l17 20l15 21l16 22l15 21l13 20l22 24l1 -1l1 1l16 -12l-7 -10l-6 -11l-4 -10l-4 -12l-5 -11l-7 -10l-5 -9l-7 -17l-6 -11l-5 -11l-6 -12l-9 -13l-9 -14l-9 -15l-10 -15l-11 -16l-14 -18l-9 -15
l-10 -15l-11 -18l-14 -18l-13 -18l-12 -17l-8 -10l4 -5l8 -12l3 -8l1 -2l5 -8l3 -4l11 -19l3 -6l6 -9l2 -3v-2l7 -11l9 -16l11 -16l8 -16l10 -13l10 -15l10 -15l8 -14l11 -15l10 -15l10 -14l9 -12l9 -12l10 -12l9 -11l9 -13l9 -14l6 -11l11 -18l11 -15v-1l14 -1l17 -2l13 -1
h13h11l16 -2l4 -12h5v-20h-14l-2 -2l-16 -1h-7l-10 -1l-14 -1l-11 -1l-12 -1h-12h-15h-14h-13h-12l-12 3l-11 1l-9 3h-10l-15 3h-14l-18 1l-11 16l3 16l13 14l19 1h10h12l10 -1l-2 3l-11 17l-7 10l-5 9l-5 10l-7 9l-5 10l-6 11l-5 8l-7 10l-6 8l-9 14l-7 10l-7 12l-7 13
l-7 13l-10 15l-9 16l-8 15l-9 16l-11 17l-10 17l-11 21l-6 11l-5 -6l-11 -16l-11 -18l-14 -15l-11 -16l-11 -18l-12 -17l-12 -18l-9 -18l-9 -15l-12 -19l-13 -17l-13 -19l-12 -14l-13 -14l-13 -18l-10 -13l-11 -14l-10 -14h4h11h13h10h14v-12l14 -1v-20l-20 -2h-12h-11
l-9 -1l-15 -2l-16 -1l-12 -2l-5 -11v-8h-20v12l2 5l-13 -3h-15h-16h-13h-10h-14zM297 448l9 -12l10 -16l1 -3l3 4l-4 6l-8 9z" />
    <glyph glyph-name="Y" unicode="Y" horiz-adv-x="786" 
d="M360 313l-4 -9l-4 -15v-2l1 3l4 13zM323 257l3 12l3 9l2 12v1v4l-2 12l-2 8l-6 8l-8 9l-7 12l-10 16l-6 8l-4 5l4 -12l4 -11l8 -22l5 -11l5 -15l2 -9l4 -11l2 -11l3 -11v-3zM22 685l18 10l7 -12l14 -14l-6 9l16 12l8 -12l11 -14l6 -8l12 -15l6 -8l8 -8l9 -10l6 -8l11 -11
l7 -11l8 -10l7 -8l9 -11l7 -10l8 -9l7 -9l7 -9l7 -9l7 -9l7 -9l7 -11l5 -10l5 -12l5 -8l4 -9l2 -2l7 -8l11 -12l8 -10l9 -12l7 -9l7 -9l6 -10l10 -16l7 -10l8 -9l7 -10l2 6l5 10l4 10l4 11l6 10l4 11l5 10l4 10l5 12l5 11l5 11l6 12l6 11l6 11l5 9l4 10l7 17l9 17l7 10l6 9
l6 9l7 9l7 10l8 11l12 12l7 8l6 8l15 16l15 15l16 14l10 7l3 3l9 6l10 10l7 11l8 10l15 5l4 -3v-2l4 3l15 4l18 -2l14 -8l10 -10l8 -13l4 -15v-15l-2 -16l-6 -18l-14 -16l-10 -9l-14 -8h-13l18 18l1 9l4 4l10 12l4 12l2 14v11l-2 9l-6 9l-6 6l-8 6h-10l-3 -1l-1 2h-3l-16 -3
l-1 -3l4 -6l-11 -9l-15 -9l-14 -10l-5 -4l-5 -4l-8 -9l-8 -9l-10 -11l-7 -8l-8 -10l-9 -11l-10 -12l-8 -12l-8 -12l-8 -12l-8 -12l-6 -11l-8 -13l-6 -11l-7 -11l-5 -12l-6 -12l-7 -14l-6 -14l-6 -14l-6 -14l-6 -13l-4 -16l-5 -13l-6 -16l-3 -14l-5 -14l-4 -15l-4 -13l-3 -14
l-5 -14l-2 -14v-12v-12v-14v-11v-12v-15v-13v-11v-15v-12v-5v-6v-6l1 -12v-11v-11v-10v-12v-11v-13l-1 -15l-20 1v14v15v14v10v11v11v11v8v6v6l-1 13v13v14l-1 13v14v13v13l-1 15v12v10l-3 -10l-6 -17l-2 -9l1 -8l1 -15l1 -15l1 -12l1 -13l1 -16v-10l1 -12v-11v-10v-10v-11
v-16v-12l-1 -14l-3 -10l-19 -6l-11 10l-2 19v15v15v10v19v19v16l1 15l1 15l2 18l3 17l2 13l-1 4l-2 14l-1 12l-1 12l-1 10l-3 11l-2 9l-4 11l-2 11l-3 11l-5 11l-8 24l-4 11l-4 10l-5 13l-4 12l-4 11l-5 9l-6 10l-6 11l-5 6l-9 12l-8 10l-7 9l-9 11l-12 12l-7 10l-11 11
l-7 10l-8 8l-9 10l-9 9l-6 10l-8 8l-10 11l-7 9l-8 9l-6 8l-14 14l-7 8l-15 15l-11 14l-14 16zM615 678l3 -5l4 -14l3 -12l2 -11v-11v-13l1 -9l-7 -6l16 2l6 4l4 3v6v13v13l-2 13l-3 14l-6 16l-4 7l-6 -1l-10 -8z" />
    <glyph glyph-name="Z" unicode="Z" horiz-adv-x="717" 
d="M563 718l-5 -2l-9 -5l-11 -8l-10 -8l-11 -12l-11 -14l-10 -13l-5 -7l8 3l12 6l13 7l8 6l11 11l6 7l7 10l3 8l2 8zM526 39l17 4l12 6l10 7l8 7l2 7v12l-2 12l-3 -9l-11 -16l-10 -11l-8 -8l-11 -9zM-29 43l-13 11l-3 4v-13l8 -2h7h1zM-3 53l8 5l15 8l13 10l14 11l13 10
l10 10l-5 1h-12h-20h-16l-14 -3l-11 -3l-13 -6l-11 -10l-5 -4v-3l9 -11l12 -10zM91 128l-5 1l-18 2l-18 2h-17h-16h-17h-11l-10 -3l-7 -5l-9 -6l-2 -7v-5l8 5l15 8l13 5l18 3h18h20h14l18 -3h2zM385 595h15h14h6l2 2l6 12l-10 -4l-19 -5zM143 607l14 -3l13 -2l15 -2l14 -2
l16 -2l14 -1h15h16l-19 2l-20 2l-19 2l-21 2l-18 2zM126 122l-4 -4l8 -2l15 -4l17 -5l17 -7l17 -6l17 -6l16 -7l17 -9l14 -5l17 -5l9 -3l-14 7l-12 7l-14 5l-15 7l-11 5l-16 7l-12 5l-16 7l-18 5l-17 5zM459 599l7 1l12 3l12 4l13 3l10 3l19 7l11 4l8 6l11 7l10 8l8 11l9 12
l5 11l3 10v13v10l-2 12l-5 2h-7l-3 -1l1 -12l-2 -12l-5 -12l-9 -12l-8 -9l-11 -11l-10 -8l-15 -9l-14 -6l-17 -6l-16 -6l-2 -4l-9 -12zM-1 723l20 -4l-2 -11v-14l3 -14l5 -6l14 -15l10 -7l12 -6l10 -7l15 -4l11 -3l14 -3l18 -1l16 -1l20 -2l18 -2l21 -2l19 -2l20 -2l19 -2
l18 -2l19 -2h15h23h19l19 4l18 5l19 5l19 6l12 3l2 2l6 10l8 12l7 11l7 9l6 8l7 9l8 8l11 9l10 8l9 6l15 10l15 4l5 -1h1l19 7h17l15 -10l6 -22v-12v-17l-5 -14l-5 -13l-11 -14l-10 -13l-12 -10l-11 -7l-12 -8l-13 -4l-17 -7l-12 -5l-13 -3l-12 -4l-14 -3l-14 -2l-9 -1
l-3 -5l-7 -12l-7 -11l-7 -13l-8 -12l-9 -13l-7 -14l-9 -13l-9 -14l-9 -13l-9 -13l-8 -11l-8 -13l-7 -11l-10 -10l-7 -8l-8 -11l-8 -11l-9 -10l-9 -12l-9 -12l-8 -11l-9 -12l-9 -13l-9 -11l-9 -12l-8 -10l-8 -11l-8 -8l-7 -10l-7 -8l-4 -9l-8 -11l-7 -10l-8 -11l-6 -10
l-7 -13l-9 -13l-8 -11l-1 -1l5 -1l19 -5l18 -7l18 -7l12 -5l16 -7l11 -5l15 -7l14 -5l14 -7l14 -7l14 -8l12 -6l12 -5l9 -5l21 -8l5 -2l11 -1l13 -2l15 -2l10 -2l14 -1l19 -2h17l14 1l16 10l10 7l10 6l9 7l8 8l8 9l9 14l6 16l3 15v13l19 2l2 -13l6 -11l5 -17l2 -16v-18
l-6 -15l-12 -11l-12 -9l-16 -6l-18 -6l-15 -4l-10 -2l-11 -5l-11 -2l-10 -3l-12 -2h-13h-13h-11h-13l-11 5l-11 3l-20 10l-7 4l-14 3l-12 1l-20 4l-15 3l-14 3l-17 5l-17 7l-16 5l-17 9l-16 7l-15 6l-17 6l-17 5l-17 5l-13 4l-18 4h-1l-3 -3l-9 -10l-9 -8l-9 -11l-9 -8
l-9 -8l-9 -7l-11 -7l-13 -6h-19l-6 1l-1 -1l-14 -6l-14 -3h-13l-20 10l-4 24v13l6 18v2v13v13l6 15l13 10l11 7l16 5h13h17h16h19l18 -2l18 -2l18 -3l9 11l16 18l12 17l11 14l12 17l11 17l13 17l11 14l13 17l12 15l10 14l14 17l12 15l10 14l12 18l14 18l12 20l13 19l12 21
l9 16l10 15l9 13l8 13l9 14l8 11l8 14l9 12l4 8h-9h-15h-21h-14h-16h-17h-14h-15h-15h-13h-16h-15l-16 1l-16 2l-14 2l-15 2l-15 2l-15 3l-14 3l-12 4l-11 2l-15 5l-13 5l-14 6l-13 8l-14 9l-9 8l-11 9l-10 12l-7 16l-5 13l8 2l-1 3v18z" />
    <glyph glyph-name="bracketleft" unicode="[" horiz-adv-x="358" 
d="M71 662l1 2h-2zM113 645h19h18l19 4l6 2h-12h-10h-7h-15l-14 3l-4 1h-1zM69 493v3v15l-2 -19v-24l-1 -26v-30v-22l1 -30l1 -23l2 -32v-27l2 -27l1 -29l1 -29v-23v-27v-23v-23l1 20l2 27l2 22l1 24v21v18v15l-1 20l-2 18l-3 21l-2 19l-3 21v22v21v21v21v19v17v6v11v12z
M94 -111l-3 7l-3 6v-4v-8zM96 421v26v25v28v30l-1 31l-1 28l-2 -14l-3 -15v-8v-9v-7v-9v-11v-5v-15v-3v-12v-11l2 -22l2 -22zM241 -188l-16 -2l-13 -1h-16h-18h-23l-17 2l-19 2l-18 7l-16 7l-1 -5l-4 -10l-20 -5l-9 8l-1 18v18v13v3l-1 11l1 2v11v17l1 18l2 18l1 18v21v21
v23v23v23v24v23v23v27v23l-1 29l-1 27l-2 29v27l-2 30l-1 25l-1 30v22v30l1 26v26l3 27l4 26l3 27l6 25l3 27l2 10l-7 4l-10 20l7 20l16 2l7 17h20l3 -8h10l11 -1h16h12h13h13h11h10h11h16l14 -6l-1 -1l16 -1l2 -19l-18 -5h-10l-13 -3h-3v-10l-11 -5l-10 -4l-18 -7l-23 -4
h-20h-19v-10l1 -25l1 -29l1 -31v-30v-28v-25v-26v-30v-23v-32l-5 -30l-5 -26l-2 -23l-2 -24v-19v-5v-16l-1 -23l-1 -23l-1 -25l-2 -22l-2 -23l-1 -23v-21v-29v-25l1 -24l3 -22l5 -16l6 -13l6 -12l4 -4l10 -1l16 -2l14 -1l18 -4l22 -8l12 -4l17 -12l3 -17l-1 -3l13 -5z
M124 -144l-6 5l-8 7l-13 1l-9 1v-2v-10l16 -1h14zM160 -150l17 -2l16 -3l13 -2l5 -2l1 5l-9 4l-10 4l-22 6l-16 4l-11 1l6 -5l8 -7z" />
    <glyph glyph-name="backslash" unicode="\" horiz-adv-x="400" 
d="M264 25l-6 14l-7 17l-3 7l-2 3l-6 8l7 -23l-8 -3v-2l8 -14l6 -5l13 -4l14 -3l-6 8zM98 437l-3 5l-4 8l7 -21l9 -20l-3 9zM181 243l5 -7l-1 2l-11 28l-9 28l-4 11l10 -34zM-32 708l20 2l2 -15l3 -8l5 -11l4 -11l7 -14l7 -14l7 -16l7 -17l7 -16l-2 17l-2 13l-6 15l-7 19
l2 24l20 2l3 -18l3 -13l3 -19l1 -4l2 -8l9 -27l10 -29l14 -34l13 -32l12 -36l5 -13l13 -22l15 -29l14 -30l13 -31l11 -33l9 -28l11 -26l12 -26l11 -23l10 -23l9 -24l4 -22l7 -20l3 -15l3 -6l5 -13l5 -8l7 -7l12 -19l10 -19l-8 -21h-17l-16 3l-17 6l-12 11l-10 18l-3 11
l-5 12l-5 13l-3 13l-4 11l-6 16l-5 16l-6 15l-6 18l-6 16l-7 17l-7 19l-7 18l-5 13l-4 10l-9 20l-10 20l-9 17l-9 15l-9 22l-7 16l-8 19l-7 21l-8 23l-7 18l-7 23l-5 16l-10 22l-8 22l-7 22l-5 18l-8 20v1l-8 18l-10 23l-10 21l-2 16l-4 10l-5 12z" />
    <glyph glyph-name="bracketright" unicode="]" horiz-adv-x="294" 
d="M113 668v4l-16 -4h15h1zM153 665l-6 8l-2 3h-5h-7v-9l14 -1zM114 643v1l-12 2l-16 1l-13 1l16 -4l20 -1h5zM147 574v18v16v15h-12v-23v-25v-1h12zM149 -174l-7 2l-1 -4l4 1zM84 -170l5 -3l9 -2l9 -1l14 -1q0 4 1 7h-8h-11h-11h-8zM150 30l-1 9v-10v-21v-20v-23l-1 -19
l-1 -18l-1 -15l-1 -17v-1v-6l2 13l2 13l1 17v16v17v16v16v17v16zM170 32l1 -9l2 -23v16v16v18v20v20v20v23v21v28v24v24v24v25l-1 27v23l-1 29l-1 24l-2 27l-1 10v-6v-22l-2 -24v-18v-38v-36v-37v-39v-45v-2l1 -5l1 -21l2 -23v-22l1 -17v-17v-15zM170 -36v-16v-16l-1 -19
l-2 -15l-3 -17l-1 -14v-10l1 -10l3 7l4 17l3 11v13v15v15v15v14l-1 11zM0 690l6 20l13 -4l11 -3l11 -3h13l14 -2l15 -1l13 -1h14h5v2l16 12l9 -3l12 -8l20 -1v-20h-3l3 -5l15 -15l-5 -21l-14 -8l2 -21l3 -28l1 -27l3 -28l4 -28l3 -29l1 -29l3 -28l2 -27l1 -26l1 -29v-23
l1 -27v-25v-24v-24v-24v-28v-21v-23v-20v-20v-20v-18v-16v-16v-16v-15l1 -15v-14v-15v-15v-15v-15l-3 -15l-6 -17l-6 -14l-5 -20l-11 -4l-14 -5l-13 -2h-15l-16 1l-11 1l-13 4l-12 7l-9 9l-5 5h-10h-11l-17 2h-15l-2 20l21 7l-7 4l9 18l17 -5l11 -2l9 -1h16h12h15l14 -2
l6 -1l1 7l1 20v21v17v19v20v19v20v20v18v17l-1 22v17v21l-1 21l-1 24v24v25l-1 24l-3 22v25v25v25v27v27v24v28v25v26l-1 24l-1 26l-1 25v25v23h-6l-22 1l-22 4l-19 10l-11 15l1 1l-4 1l-12 3l-17 1v20l16 1l10 1h5l-8 2l-13 3z" />
    <glyph glyph-name="asciicircum" unicode="^" horiz-adv-x="528" 
d="M237 667v-1h1zM51 277l-20 4l4 15l6 9l5 10l5 10l4 11l5 15l5 13l5 16l6 17l7 17l11 26l14 27l15 24l10 21l8 18l9 21l10 18l7 16l6 19l7 15l7 19l13 18l9 13l7 9l2 2v3l5 3l4 5l2 -1l5 4l11 -5l4 -5l3 -1l17 -20l7 -17l9 -17l9 -20l11 -18l10 -21l10 -19l12 -24l11 -25
l10 -27l8 -27l10 -22l8 -23l8 -20l1 -1l10 -22l7 -17l6 -14l7 -14l6 -14l-2 -19l-5 -2l3 -9l-19 -7l-8 20l-3 7l-5 8l-8 13l-12 19l-14 21l-15 24l-12 25l-13 24l-14 29l-13 30l-14 31l-14 36l-8 33l-6 26l-2 7v1l-5 15l-3 6l-4 7l-1 2l-2 -4l-7 -19l-7 -18l-8 -21l-9 -22
l-9 -21l-10 -22l-11 -18l-7 -14l-8 -16l-6 -13l-6 -10l-5 -9l-5 -9l-8 -17l-8 -20l-5 -10l-4 -10l-5 -16l-4 -14l-3 -17l-2 -10l-2 -17l-1 -14l-20 2l1 14l2 19l2 10l1 6l-3 -8l-4 -13l-5 -10l-5 -12l-6 -7z" />
    <glyph glyph-name="underscore" unicode="_" horiz-adv-x="652" 
d="M512 -108l-1 -3l8 1l4 1zM167 -92l8 -1h23h23h22h23h21h20h15h19h16h16h14l-12 1h-15h-14h-14h-11h-13h-12h-12h-13h-15h-14h-11h-13h-13h-12h-11h-15zM-40 -108v20h12l16 -1l6 -1l2 16l18 -1h11h10h11h11h11h11h13h13l12 1h10h13l14 1l13 1h15h11h12h13h13h11h14h15h13
h12h12h13h11h14h14h15l19 -1l12 -1l15 -1l12 -2l19 -2l9 -2l10 -1l11 -1l17 -3l14 -2l16 -2l17 -7l7 -11l-9 -18l-11 -2l-10 -2l-15 -2h-15h-18h-15h-20h-19h-20h-19l-22 1h-21h-21l-22 1h-20l-22 1h-21l-21 1h-22l-17 1l-19 2l-16 1h-17l-19 1l-16 3h-16l-16 2l-15 1l-15 3
l-16 1l-10 3l-12 1l-14 1h-12z" />
    <glyph glyph-name="grave" unicode="`" horiz-adv-x="291" 
d="M78 654l7 -9l9 -9l7 -8l-3 4l-7 9l-6 7zM160 589l-11 -5l4 -3l10 -9l8 -8l-2 7l-8 16zM131 598l-2 5l-7 5l-3 2l5 -6zM-6 728l18 10l6 -12l9 -7v4l20 4l1 -2l13 11l12 -7l12 -9l16 -11l12 -10l12 -9l13 -11l11 -15l9 -13l3 -14v-12v-2l6 -6l6 -12l6 -8l8 -18l5 -19
l-13 -19l-20 7l-10 10l-10 7l-11 11l-9 6l-9 8l-8 8l-6 8l-9 8l-7 8l-9 9l-11 13l-9 15l-7 11l-7 14l-3 6l-5 4l-14 9l-13 11z" />
    <glyph glyph-name="a" unicode="a" horiz-adv-x="633" 
d="M454 65l10 9l10 -11l4 -7l8 -1h14h10l4 -2v4v5l-6 7l-4 9l-8 8l-8 8l-10 11l-8 6l-8 5l-12 5l-12 6l-11 7l-4 5l1 -8l3 -15l3 -16l6 -11l5 -8l9 -11zM152 444l-6 -4l-7 -7l-15 -12l-12 -14l-5 -10l-7 -14l-1 -11l-15 1v-5v-14v-12l-2 -5l4 1h6l9 7l9 6l7 6l9 8l3 7l1 9
l1 12l4 12l5 13l5 12l5 10zM381 140l-4 29l-2 18l-2 12l-1 11l-3 17l-2 13l-2 13l-1 11l-1 12l1 14l2 3h-7h-12h-11h-12h-14l-9 -1l-11 -2l-13 -2l-13 -2l-13 -3l-15 -3l-18 -4l-13 -3l-17 -5l-14 -5l-15 -7l-18 -7l-15 -8l-14 -8l-14 -13l-14 -16l-11 -13l-9 -14l-6 -9
l-4 -9l-2 -9l-1 -17v-8l6 -13l5 -11l4 -10l5 -8l5 -10l5 -8l10 -14l10 -8l8 -2l11 -3l15 -4l20 -3l14 -3h20h15h17l10 3l14 8l11 6l11 10l9 6l10 7l8 6l11 10l12 10l12 7l11 9l10 7l12 8l10 7zM351 399l4 -6l6 -8l3 -4v2l-3 14v11l-4 19l-1 14l-3 11l-4 12l-6 10l-10 7l-6 2
l2 -2l6 -12l5 -11l2 -13l5 -22zM329 405l-2 14l-5 22l-2 11l-3 9l-4 8l-6 5l-11 4h-8h-11h-10l-9 -1l-10 -2l-10 -3l-11 -2l-11 -5l-13 -6l-9 -5l-14 -7l-8 -6l-4 -9l-5 -10l-5 -12l-5 -11l-2 -10l-1 -10l-1 -13l-7 -13l-11 -12l-9 -6l-9 -6l-13 -9l-16 -2l-16 5l-4 19v12
v14l2 14l8 14l8 8l4 8l5 -2l5 9l14 16l15 14l9 7l11 7l11 7l10 6l12 5l12 6l16 6l12 5l11 2l21 3h11h12h15h15h15h11l14 -4l14 -11l10 -16l6 -14l3 -13l1 -16l4 -19v-11l3 -12l1 -11l1 -14l2 -17v-1l5 -12l6 -15l-7 -3l1 -3l5 -1l7 -16l-9 -3l1 -2l2 -10l3 -12l1 -11l3 -17
l3 -15l4 -9l6 -16l5 -13l2 -11l4 -9l4 -11l5 -5l9 -5l10 -6l14 -5l10 -7l10 -8l10 -11l8 -8l10 -10l6 -11l6 -9l2 -15l-8 -18l-9 -1v-3h-28l-17 1l-18 5l-11 8l-9 11l-9 11l-7 10l-6 15l-2 8l-17 -5l-6 22l-3 -3l-10 -7l-12 -8l-10 -7l-11 -9l-12 -7l-10 -10l-13 -10l-8 -6
l-10 -7l-9 -6l-11 -10l-13 -8l-16 -8l-16 -5h-19h-15h-22l-16 3l-20 3l-17 4l-11 3l-12 4l-14 12l-12 16l-7 10l-5 10l-5 10l-4 10l-5 11l-8 17v12l1 21l4 11l4 13l8 11l9 14l11 15l16 16l16 15l16 10l17 8l18 7l15 7l16 5l17 7l15 3l18 4l15 3l13 3l13 2l13 2l13 2l11 1h14
h12h11h12h13l-2 14l-1 11l-7 10l-6 11l-11 14l-6 8l-7 9l-9 9z" />
    <glyph glyph-name="b" unicode="b" horiz-adv-x="592" 
d="M95 543l4 6l3 16l2 16l3 15l5 15l3 14l6 15l4 15l1 13l3 15l3 11v11l-1 9v8l-3 5l-5 -1l-10 -4l-10 -7l-4 -6l-2 -9l-3 -9v-1v-1l-1 -9l-1 -7v-5v-1l6 -5l-6 -6v-6v-10v-10l2 -12l1 -16v-15v-15v-13v-16zM465 225l3 9l3 13l1 14v12v12v11v11l-3 13l-7 9l-4 11l-8 11
l-7 11l1 -3l7 -19l3 -11l3 -11l3 -13l2 -11l1 -11l2 -22v-11v-14v-11zM342 458l-13 2l-10 4l-11 2l-21 3h-17h-9l-16 -2l-10 -6l-12 -5l-11 -5l-10 -5l-9 -7l-11 -8l-8 -6l-7 -9l-8 -8l-7 -8l-9 -13l-7 -9l-7 -11l-6 -8l-5 -10l-4 -10l-4 -9l-2 -9l-2 -10l-2 -10v-10l-2 -11
v-9l-1 -11l-1 -18v-11v-12v-10v-12v-11v-13l-1 -13v-2l3 2l6 -10l6 -10l6 -10l8 -8l10 -8l10 -9l13 -9l12 -9l11 -6l13 -7l9 -5l9 -5l12 -6h1l13 -3l11 -2l13 -2h12h1l16 1l15 1l11 2l11 6l7 3l9 7l11 8l16 9l2 2l7 6l13 13l2 2l7 10l6 8l9 15l7 9l5 9l2 3l7 16l4 17v13v14
v11v14v11l-2 20l-1 11l-2 9l-3 11l-3 11l-3 11l-5 17l-5 8l-8 16l-7 10l-7 11l-5 10l-7 9l-12 14l-14 11l-8 7zM166 443l-3 -1l-12 -10l-12 -10l-13 -14l-8 -9l-6 -7l-6 -8l-7 -7l1 -7h-5v-1v-8v-4v-12l1 2l4 10l5 12l8 10l7 11l7 9l9 13l9 10l8 8l7 9zM93 117v-1l-1 -16
v-18l-2 -16l-2 -11l-4 -16l-10 -13l-12 -8l-14 -3h-11h-14l-16 9l-8 12l-7 13l18 8l5 -11l6 -6l8 -5h8h9l8 1l6 4l6 7l1 7h-4v11l2 16v16l1 18l1 15l1 16v10l-3 7v12v15v17v17v19v19v18l2 17l2 9l1 17l3 11v10l2 19v6v10v5v14v8v13v10v11v12v13v14v12v11v16v11v14v16v13v15
v15l-1 14l-2 12v12v10v18v12l2 13v2l3 11l4 11l8 12l14 11l16 6l17 -1l13 -15l2 -14l1 -11v-13l-3 -13l-3 -13l-1 -15l-4 -17l-6 -15l-3 -14l-5 -15l-3 -13l-2 -16l-3 -16l-4 -16l-4 -16l-3 -9l-2 -15l-2 -16l-1 -15l-1 -15l-3 -16l-2 -14l-1 -9l6 9l10 9l13 14l14 12l12 10
l16 10l14 8l18 7l17 7l17 4l18 2h16h10h11l11 -2l10 -2l16 -5l16 -6l11 -6l1 -1l8 -4l11 -5l9 -7l12 -9l9 -8l7 -9l8 -8l13 -16l9 -10l13 -14l7 -10l7 -11l10 -13l4 -11l7 -11l5 -19v-13v-11v-12v-12l-1 -16l-3 -15l-3 -13l-5 -12l-8 -20l-8 -12l-7 -11l-7 -10l-5 -13
l-9 -13l-9 -12l-9 -10l-5 -5l-3 -6l-16 -15l-6 -4l-6 -6l-9 -7l-11 -6l-9 -6l-5 -2l-10 -7l-12 -6l-15 -4h-16l-18 1h-14h-2h-12l-12 2l-14 5l-2 1l-10 1l-18 7l-13 3l-16 6l-15 11l-9 6l-16 11l-11 11l-12 14z" />
    <glyph glyph-name="c" unicode="c" horiz-adv-x="568" 
d="M358 428l-3 -6l-6 -15l-2 -15v-12l3 -10l5 -7l5 -5l7 1l12 1l5 1v2l-4 15l-3 12l-4 16l-6 10l-8 11zM325 46l10 6l12 7l11 8l10 8l9 9l11 11l7 8l7 9l5 8l6 10l6 17l7 16l3 10l3 18l2 10v17v12v7l-4 6l-6 5h-6l-4 2l1 -6l-2 -12l-1 -13l-2 -16l-6 -16l-4 -11l-5 -14
l-4 -11l-3 -11l-4 -17l-5 -11l-10 -17l-9 -14l-12 -13l-10 -10l-9 -8zM380 431l3 -5l8 -12l-1 5l-4 8zM27 293l1 15l1 12l2 15l4 16l4 12l-4 -8l-5 -11l-3 -13v-19v-19zM403 372l3 3l-1 7l-1 10l-1 9l-7 -2l1 -3l3 -14zM401 455l18 -10l-6 -10v-5l3 -9l6 -14l2 -13l1 -12
l-1 -13l-11 -16l-7 -5l1 -5l-20 -4v2l-4 -1l-16 -1l-13 1l-13 9l-9 11l-5 18v16l2 19l8 17l8 15l-7 10l-4 6l-5 2l-18 7l-11 3l-11 3h-11h-11h-14h-14h-12h-11h-9l-9 -3l-13 -2l-13 -2l-13 -4l-13 -3l-10 -4l-10 -6l-8 -4l-4 -4l-7 -7l-7 -11l-10 -15l-10 -16l-8 -14l-7 -11
l-7 -13l-3 -12l-4 -14l-2 -13l-1 -12l-1 -15l-2 -15l-1 -18v-18v-17v-18l2 -13l5 -17l5 -15l7 -15l9 -15l10 -14l10 -14l12 -12l13 -10l12 -11l9 -6l11 -5l14 -5l11 -3l13 -4l14 -3l13 -3l17 -3l12 -2h2l13 4l16 4l10 2l12 7l11 5l8 7l9 8l10 10l10 11l9 12l8 15l3 9l4 17
l5 11l4 11l5 14l4 11l4 14l2 14l1 13l2 14l7 18l16 2l14 -2l12 -9l8 -14l2 -13v-12v-19l-2 -12l-3 -18l-5 -14l-7 -16l-6 -17l-6 -12l-7 -10l-7 -9l-9 -10l-11 -11l-9 -9l-12 -10l-11 -8l-14 -9l-14 -7l-16 -7l-16 -5h-16h-12h-16h-9l-10 -1l-12 -2h-11h-21h-14l-19 3l-13 6
l-9 5l-11 7l-11 8l-10 8l-9 7l-11 10l-10 10l-9 11l-11 15l-14 21l-11 24l-7 20l-6 17l-5 12l-2 15l-2 17l-1 32v32v20v21l5 17l5 13l7 14l8 17l10 14l7 9l9 12l10 9l13 10l14 10l10 6h1l2 2l16 16l18 11l13 5l11 4l11 4l12 3l12 1h10h10h11h10l20 -1l10 -1l18 -1l15 -5
l16 -6l16 -11l9 -8l2 -1l11 -5l4 -3l3 4l9 8l9 9l11 6l10 6l12 5l12 5l12 5l11 2l9 3l8 -18l-11 -5l-11 -2l-10 -3l-12 -5l-10 -5l-10 -6l-9 -4l-7 -7l-9 -8v-1l10 -8l5 -5z" />
    <glyph glyph-name="d" unicode="d" horiz-adv-x="605" 
d="M404 604v14v50v18l1 14l20 -2v10v9l-2 9l-4 11l-5 4l-7 1l-5 -7l-11 -17l-6 -8l-3 -10l-1 -10v-10l2 -9l4 -11l5 -14l3 -10l5 -18zM381 135l6 -1l5 -18v-15l1 -6v13v16v24v5l-8 -13zM417 136l-4 -1v-11v-16v-17v-14l1 -13l5 -16l6 -15l2 -4l9 -5l14 -4l18 -1l7 3l4 7
l4 11l3 11v7l-7 11l-6 7l-12 9l-11 10l-9 8l-8 9l-14 18zM429 628h-4v12v12v23v16v7l-1 -12v-18v-50v-32v-28v-30v-31l-1 -27l2 9l1 15l1 17l2 16v14v13v15v22v22v15zM293 58l7 7l6 8l8 12l11 12l6 8l7 7l7 9l11 14l13 17l9 14l10 14l4 8l1 4v11l-1 17v13v4v8v6v7l-1 12v13
v12v13l1 14v8v11l1 8l1 20l3 23l-4 -1l-4 10l-5 10l-6 7l-8 6l-8 7l-10 4l-11 7l-11 6l-12 4l-13 6l-11 6l-4 3l-14 2l-21 2l-21 1h-22h-19l-16 -3l-5 -3l-11 -5l-9 -5l-9 -5l-9 -7l-7 -5l-1 -1l-8 -11l-9 -11l-7 -7l-4 -8l-5 -9l-5 -10l-6 -13l-3 -8l-9 -26l-4 -26l-3 -18
v-4v-15v-4v-13v-4v-4v-4l3 -7l5 -10l11 -22l5 -11l5 -12l6 -10l5 -8l8 -8l7 -8l9 -10l6 -8l7 -7l11 -11l11 -10l8 -8l8 -8l7 -7l10 -6l16 -14l7 -6h4l11 -1h13l13 -1h10h7l4 2zM344 89l3 -5l1 1l1 9l-2 -3zM281 31l-8 -3l-8 -3h10l10 3l11 3l8 5l9 5l12 9l2 3h-1l-22 -12
l-2 -2l-15 -8h-6zM213 33h-4l-4 1l6 -3l14 -6h9l-6 2zM43 242l-4 18v15v11v14l1 13v13l1 15l2 11l1 14l4 13l5 10l10 17l9 9l10 12l11 10l10 8l9 8l1 1l6 7l8 8l9 9l10 9l9 7l19 12l21 4h11h10h10h20h11l21 -2l16 -1l19 -8l17 -11l11 -6l14 -10l22 -14l8 -6l11 -10l6 -7v4
l-1 15l-1 21v18v16l-2 10l-1 11l-1 12l-2 10l-2 11l-2 12l-1 9l-3 9l-6 19l-5 18l-3 10l-3 14l-6 11l-2 13v12l1 14l5 14l8 12l11 17l13 13l21 -1l15 -10l8 -17l2 -13v-11v-13l3 -10l2 -16v-19v-10l-1 -11v-16v-22v-22v-15v-13v-16l-2 -16l-1 -17l-1 -15l-3 -15l-3 -17
l-3 -13l-3 -13l-6 -17l-3 -15l2 -6v-22v-14v-15v-17v-16v-10l-1 -16l-1 -16v-17l-2 -16l-5 -22l-1 -1l1 -7l6 -19l3 -11l6 -12l5 -10l12 -16l6 -7l9 -8l9 -8l14 -11l8 -9l11 -17v-15l-3 -15l-6 -15l-8 -11l-17 -9l-26 1l-18 6l-13 7l-1 1l-2 -1l-2 5l-5 5l-10 14l-12 20
l-4 12l-4 11l-3 19v5l-2 -7l-4 -20l-8 -14l-9 -14l-10 -13l-14 -11l-11 -7l-10 -5l-13 -5l-14 -3h-14h-18h-24l-18 8l-13 7l-15 13l-22 24l-8 6l-10 9l-10 12l-9 14l-9 13l-9 14l-2 5l-14 18l-11 17l-13 24l-11 26l-3 23v1l-1 1v1v1z" />
    <glyph glyph-name="e" unicode="e" horiz-adv-x="543" 
d="M185 283l-11 1h-17l-16 1l-14 1l-11 1h-14h-14l-13 -1l-3 -1h8l41 -1l24 -1h22h18zM67 304l4 2l17 1h14h14l13 -1l14 -1l14 -1h17l11 -1h10h11l15 -1h14h10h20h19h10h17h10h16h16l11 1l13 4l11 2l7 5l9 8l6 9l2 3l1 8l2 12v17l1 13l1 10l1 16l-2 8l-4 8l-6 9l-4 4l-2 1
l-8 6l-10 6l-15 6l-13 5l-13 2l-14 4l-15 3l-18 4l-25 4l-15 3h-19h-14h-13l-15 -2l-11 -7l-17 -13l-11 -8l-8 -9l-10 -11l-6 -11l-10 -14l-9 -16l-8 -14l-6 -11l-6 -11l-7 -14l-8 -14l-7 -14zM252 51l-7 -1l12 -4l14 -3l10 -1h13l18 1l14 6l8 4l7 6l10 9l11 9l9 9l12 11
l8 9l6 9l4 12l3 15l3 15v15v11l-1 9l-4 3l-5 -1l-5 -3l-5 -7l-6 -10l-5 -9l-7 -11l-5 -9l-7 -10l-8 -11l-9 -12l-7 -8l-10 -12l-10 -9l-13 -12l-15 -8l-17 -7zM431 326v-3l-5 -16l-8 -16l-13 -13l-20 -8l-13 -3l-13 -3l-16 -2h-15h-14h-12h-16h-13h-20l-23 1h-23h-20h-20
h-22l-24 1l-41 1h-11h-10l-1 -8l-1 -18v-6l3 -16l3 -13l6 -15l7 -14l9 -14l6 -9l6 -8l12 -16l8 -9l6 -9l10 -12l6 -7l3 -2l8 -5l12 -5l10 -5l13 -4l2 -1l17 -1h14l16 1l14 2l14 3l15 7l11 6l11 10l10 9l8 10l7 8l9 12l8 11l5 8l5 9l7 11l5 9l8 12l7 9l13 9l17 -1l14 -11
l5 -17v-13v-17l-3 -17l-3 -17l-6 -15l-8 -12l-10 -11l-12 -11l-9 -9l-11 -11l-12 -9l-9 -6l-10 -6l-18 -8l-22 -1h-13l-12 1l-18 3l-12 4l-16 5l-12 5l-21 7l-6 2l-13 2l-16 8l-16 6l-8 7l-10 6l-11 8l-9 9l-9 8l-13 12l-11 16l-10 15l-9 17l-5 13l-5 14l-2 15v8l-2 24v9v6
v6v6v7l1 14l2 17l3 16l6 15l3 13l7 15l8 15l8 13l7 13l10 14l10 11l9 12l12 13l11 10l12 12l13 12l15 10l10 6l13 6l13 2h13h14h21h15l13 -1l13 -1l11 -1l12 -2l15 -2l14 -6l12 -5l12 -6l13 -8l12 -8l12 -12l5 -4l7 -6l12 -19l1 -4l2 -4l6 -12l1 -15v-15l-1 -16l-1 -11
l-5 -13l-4 -11z" />
    <glyph glyph-name="f" unicode="f" horiz-adv-x="398" 
d="M135 639l2 2l15 6l14 3h12h10h10h10h12l12 -1l11 -4l7 -2l7 1l3 4l-1 6l-3 10l-4 9l-1 1l-10 2l-15 2h-18h-18l-13 -3l-16 -6l-5 -2l-5 -8l-11 -11zM172 485h9l11 2l11 1l9 1l11 3l14 1l10 2l10 5l10 6l7 7l5 5v9l-1 7l-3 2h-5l-6 -5l-9 -6l-9 -6l-13 -6l-10 -6l-12 -5
l-15 -8l-16 -6zM-10 468l-8 18l12 5h13h13h17h23h12l10 -2v12l1 19v7v12v11v11l1 11l1 11l3 12l5 19l5 11l4 13l7 11l13 18l15 12l7 4l4 5l15 13l17 8h19l20 -1l15 -3l12 -4l16 -5l14 -11l-4 -8l2 -5l5 -16l-1 -14l-11 -14l-17 -5l-13 2l-9 4l-8 1h-12h-10h-10h-10h-10
l-10 -3l-11 -4l-7 -5l-9 -7l-4 -6l-4 -12l-4 -10l-3 -11l-5 -10l-3 -11l-2 -9l-1 -4v-2v-13v-15v-10v-11l9 3l11 3l13 4l11 3l12 3l13 3l14 6l15 8l10 5l10 6l13 6l9 4l7 6l12 7l17 2l13 -10l5 -17l-2 -17l-7 -13l-11 -9l-12 -8l-14 -7l-14 -2l-12 -1l-11 -3l-11 -1l-11 -1
l-11 -2h-12h-12h-17h-12h-13l-12 1v-1v-12v-15v-14v-11v-13v-11v-11l1 -17v-16l1 -16v-18v-5l3 -11l1 -18v-17v-17v-16v-13l1 -14v-5v-12v-10v-1l1 -19l2 -18l1 -18l1 -14l1 -15v-13l1 -13v-13v-12h-7v-4v-12h-20v12v21v14v10v20v17v10v16v10v11v10v1v10v12l-1 9l-1 19
l-2 19v20v11v11l-1 17v3l-1 4v6h-2l-3 33l-1 32v28v22v16v11v7l-10 -1h-12h-13h-13l-12 2l-13 1l-10 6z" />
    <glyph glyph-name="g" unicode="g" horiz-adv-x="579" 
d="M217 -173h-6l-16 3l-14 2l-15 1l-15 4l-16 6l-10 8l-10 11l-8 13l-3 12l-2 12l-1 10l-1 14v9l-3 13l-1 6l-5 1l-9 -1l-6 -1l1 -7l1 -11l3 -11l3 -14l7 -14l7 -11l6 -8l9 -14l9 -10l11 -13l13 -10l8 -1l11 -3h12h10l12 1l11 1zM438 391l1 -3l3 -11l1 -12l2 -8l4 -12v-14
l-1 -2l2 -7l6 -17l4 -19l5 -19l2 -16l2 -16v-17v-14v-15v-14v-16l-1 -17l-1 -18l-1 -15l-1 -16v-18l-2 -15l-2 -18l-2 -20l-3 -22l-5 -20l-7 -18l-6 -16l-4 -11l-8 -17l-11 -17l-12 -15l-14 -11l-13 -10l-15 -7l-16 -6l-8 -4l-2 -1l-11 -6l-10 -4l-10 -5l-17 -6l-12 -5
l-12 -2l-11 -4l-15 -4l-23 -6l-13 -1l-14 -1h-10h-14l-13 3l-12 3l-19 14l-13 13l-9 12l-9 14l-6 8l-9 13l-7 18l-5 14l-3 13l-1 15l3 19l18 9l15 1l17 -7l7 -14l3 -17v-11l1 -12l1 -10l2 -10l1 -8l6 -9l8 -9l6 -4l12 -4l13 -4l13 -1l16 -2l14 -3l14 -1h14h12l12 2l12 4
l10 3l15 4l10 2l9 2l6 3l9 6l9 5l16 12l7 6l10 10l10 11l6 13l6 18l4 18l3 11v9v12l2 11v10l1 16l1 13v14l1 15l2 15v11v14v14l-7 -8l-10 -11l-12 -11l-12 -10l-15 -10l-17 -9l-10 -8l-17 -7l-14 -7l-15 -6l-14 -4l-17 -4l-11 -1l-16 -2l-16 -2h-11h-17l-17 6l-16 8l-16 9
l-16 15l-9 12l-8 14l-7 9l-5 9l-6 12l-9 23l-5 17l-6 14l-5 12l-3 16l-4 20l-1 16l-2 15v13v13v19v17l1 16l5 17l3 12l5 12l8 12l8 14l9 12l9 12l8 10l11 9l12 10l12 8l9 6l12 7l18 7l21 6l17 3h12l16 1h18l19 -1l14 -3l11 -3l10 -4l20 -8l10 -5l18 -11l14 -12l12 -15l8 -12
l-4 22v14v10l-1 13l8 1l1 10h2v1v10l1 15l8 15l14 12l14 4l14 -1l12 -8l8 -12l4 -14l1 -13v-15l-6 -12l-6 -13l-10 -13l-5 -7l-6 -11l-3 -11l-2 -11zM426 316l-1 -6l1 -11l1 -10v-4l1 -11l3 -11l4 -20l1 -11l3 -15l2 -16l1 -15v-12v-13l-8 -17v-12v-16v-14v-13l-2 -15
l-1 -13v-14l-1 -15l-1 -14v-12l-2 -11v-10v-11l4 12l5 18l3 20l2 20l2 18l2 15v16l1 18l1 15l1 18l1 15v16v14v15v14v15l-2 16l-2 14l-5 19l-4 17l-5 16zM431 439l4 9l7 9l8 11l6 11l4 8v11l-1 9l-2 10l-4 6l-4 4l-6 -1l-6 -2l-8 -6l-4 -9l-1 -9v-10v-11l3 -11l2 -11l2 -13
v-5zM404 337l-1 1l-10 9l-8 16v15v9l-3 12l-2 11l-6 9l-10 13l-12 10l-16 9l-8 5l-18 8l-10 2l-11 3l-10 3l-17 1h-18l-16 -1h-10l-15 -3l-19 -4l-16 -7l-10 -5l-7 -6l-12 -8l-12 -10l-9 -7l-6 -8l-9 -12l-9 -12l-8 -12l-6 -10l-3 -10l-3 -12l-5 -15l-1 -12v-17v-19v-13v-11
l2 -15l1 -16l4 -18l3 -14l3 -10l6 -16l5 -17l9 -21l6 -10l5 -9l5 -9l8 -12l7 -10l14 -13l14 -7l14 -8l13 -4h13h9l16 2l16 2l9 1l15 4l14 4l13 4l14 7l15 7l8 6l19 11l13 8l10 10l12 9l10 11l9 10l9 8l3 1v8v13l-1 9h-4l-4 34l-1 30v20v15v10v9v1v1v13v11v8z" />
    <glyph glyph-name="h" unicode="h" horiz-adv-x="535" 
d="M88 578l3 7l7 17l5 17l4 17l4 13l2 12l1 13v12v11l-2 13l-2 16l-1 15l-1 12v8l-1 4l-3 -2l-6 -4l-6 -7l-6 -11l-3 -10v-12v-15v-11v-3h6l-1 -23l1 -1l7 -12l-8 -4v-16v-39v-17zM76 194l-2 -10l-1 -11l-3 -11l-8 -21l-4 -11l-5 -13l-4 -15l-2 -17v-15v-14l1 -11l3 -8
l8 -13l6 -7l7 -2l5 1l3 4l2 10v4h-5v10v11v12l4 10l-1 3h2l1 7v10v10v5h-3l-3 34v28zM406 276v1l-5 21l-2 11l-2 15l-4 19l-3 19l-2 10l-4 16l-3 9l-7 17l-5 8l-8 16l-9 12l-13 14l-12 14l-11 7l-11 5l-16 1h-10l-16 -1l-10 -3l-10 -3l-11 -5l-13 -7l-14 -9l-14 -10l-11 -9
l-12 -9l-12 -10l-9 -7l-8 -9l-8 -8l-7 -8l-7 -8l-10 -12l-7 -12l-4 -7l15 -5l-6 -19l-5 -11l-4 -14l-1 -8v-6v-11v-11v-14l2 -15l1 -16l2 -15l1 -14l1 -15l1 -13v-13v-14v-11v-12v-10v-10v-12l-2 -9l1 -3v-19v-11v-15l-4 -16l-9 -12l-17 -5l-17 4l-12 13l-10 17l-5 12l-1 15
v14v17l2 19l6 17l5 15l4 9l6 21l3 9l1 9l3 16l3 10l2 11l3 11l1 10l3 16l3 24l1 5l-1 12l-1 12l-5 -1l-1 17l3 9v3l-1 12l-1 11v11v12v11v10v11v13v11v11v11l1 10v4v7v4v8l1 7v8v14v16v16v16v20v39v19v10l-3 6l-2 13v11v11v15v16l5 14l8 15l10 11l12 6l17 2l11 -16l2 -12
l1 -12l1 -15l2 -16l2 -13v-13v-12l-1 -15l-2 -14l-4 -15l-4 -17l-7 -17l-7 -19l-8 -20l-5 -16l-4 -16l-3 -15l-1 -6v-3l-1 -11v-4v-7v-4v-6v-10v-10v-11l1 -13v-14v-14l1 -13v-2l2 3l10 14l9 8l7 8l8 8l8 9l11 9l12 10l12 9l11 9l16 10l14 9l13 9l13 5l12 5l12 3l20 1h10
l20 -1l17 -7l15 -11l12 -14l15 -16l9 -14l10 -16l5 -10l7 -17l5 -11l4 -18l2 -10l3 -19l2 -12h12v-37v-19l-1 -4l1 -9l3 -12l1 -12v-16l1 -9l3 -12v-12v-11v-10v-18v-11v-19v-10v-17v-14v-15v-14l-1 -16l-3 -12l-5 -12l-8 -13l-12 -11l-18 -8l-14 14l-1 15v12v10v10v14v13
l2 11l1 10l1 12l1 10l1 10l1 10l2 14l2 14l2 11l4 10l2 9l1 10l3 16l4 13l1 11l3 14l1 15zM414 206l-1 -7l-1 -10l-2 -13l-4 -10l-2 -9l-2 -12l-2 -14l-1 -10l-1 -10l-1 -10l-1 -12l-1 -10l-2 -11v-11v-14v-10v-10v-12l-1 -7l2 2l8 7l6 9l3 10l3 10l1 12v14v15v14v17v10v19
v11v18v10v11v10z" />
    <glyph glyph-name="i" unicode="i" horiz-adv-x="312" 
d="M179 29v-3l-6 -13l-10 -9l5 -1h8l11 2l4 6l2 7l-3 4zM75 118v-1l3 -13l2 -9l6 -11l8 -15l8 -13l8 -10l8 -8l13 -12l7 -4l9 -1l6 -1l4 5l2 7l2 9v1v1l-10 8l-8 6l-12 7l-12 12l-10 9l-10 9l-10 10l-8 8zM160 69l-2 7l-4 10l-5 9l-7 9l-9 8l-14 9l-12 11l-12 9l-12 10l-6 6
l3 -10l6 -12l9 -9l8 -8l10 -10l10 -9l10 -9l10 -10l10 -7zM181 53l6 -5l17 -12l9 -16l-4 -17l-10 -14l-21 -6h-12l-21 3l-18 7l-16 11l-16 16l-12 17l-9 17l-5 11l-3 10l-5 10l-4 10l-6 13l-2 10l-4 12l-3 14l-3 13l-3 18v15v14v13v12v14l1 15v15l2 14v11l1 12v12v11v15v12
l2 13l1 12l4 12l3 14l1 1v5l3 10l2 11l3 20l2 12l3 11l1 10l4 16l8 21l5 11l5 11l2 11h20l4 -18l-3 -16l-4 -11l-4 -16l-5 -13l-5 -21l-4 -11l-1 -11l-2 -15v-14v-15v-14l-1 -16l-1 -14l-2 -12v-11l-1 -13l-3 -14l-2 -14l-1 -9v-15l-3 -12l-1 -8v-1l1 -11l2 -12v-12l1 -11
v-16l1 -16v-4l11 11l11 -11l10 -8l12 -9l12 -11l14 -9l11 -10l9 -11l7 -13l4 -12l5 -15v-14zM84 654l2 -2l6 1l15 3l6 5l2 8v10v13l-1 13l-2 4l-5 2l-5 -3l-7 -8l-4 -7l-2 -8l-1 -18l5 -8zM71 694l2 7l6 11l11 12l17 7l17 -6l8 -14l3 -17v-15v-14l-6 -16l-12 -11l-23 -5
l-16 1l-11 9l-12 16l-5 14v18l5 27l17 22l27 24l30 18l10 -16l-28 -18l-25 -22l-13 -16z" />
    <glyph glyph-name="j" unicode="j" horiz-adv-x="217" 
d="M62 -73l-17 -10l-11 -4l-6 -3h7l11 3l8 3l5 6zM7 -137l8 4l15 11l11 7l8 7l2 2l-14 -4h-14h-13h-10h-10l-4 -3l-5 -7l-6 -9l-2 -9v-6h2l11 1l9 1l8 3zM77 414l-2 12l-3 15l-1 13l-2 12l-4 25l12 2l1 2l19 2l5 -16l2 -15v-11l2 -15v-22v-18l2 -13l1 -13l1 -13l1 -11l1 -17
v-22v-19v-12v-12v-11v-14v-20v-30v-18v-11v-12v-3v-7v-4l1 -17l2 -13l1 -13l1 -11v-20v-20v-20l-3 -12l-2 -7v-7l-3 -27l-3 -19l-6 -19l-6 -15l-4 -12l-10 -13l-10 -11l-9 -10l-13 -9l-11 -8l-15 -7l-5 -3l-15 -8l-10 -4l-19 -7l-19 10l-1 13l-5 11l-3 12l-1 12l3 17l16 9
h13h7l3 2l11 6l13 5l16 8l11 4l23 13l13 10l2 14l5 10l4 15l2 10l2 12l2 15v16l1 11l-1 14v15l-1 20l-1 18v19v20v20v21v23l-1 23l-1 22l-2 19l-3 12l-2 16l-2 14v17v16v16v13v1v14zM85 672l10 -13l-1 -16l-6 -16l-16 -9l-21 9l-2 18l1 13l8 13l14 9l12 2zM70 643l-1 1
l-2 -5l3 -1l2 1l1 5z" />
    <glyph glyph-name="k" unicode="k" horiz-adv-x="583" 
d="M100 356v8v12v11v11v11v12v12v10l-1 11l-2 15v22v11v11v10v11v13v13l1 12l1 11v11l1 10v11v10v10v17v20v10v10v15v6l-6 3l-7 1l-3 1l2 -5l-1 -10v-12v-14v-16l-1 -12l-1 -10l-1 -10l-1 -9v-20v-10v-10v-10v-10v-10v-12v-11v-11v-13v-9l2 -12l2 -20l2 -11l1 -10l2 -10
l2 -14l2 -10l2 -12l1 -11l2 -15zM291 400l12 11l11 11l11 10l12 11l12 13l10 15l15 19l11 17l14 21l12 20l12 21l9 15l8 14l8 13l3 10l4 12l4 5l-4 -1l-7 -6l-12 -10l-12 -13l-6 -7l-10 -16l-6 -7l-9 -18l-6 -11l-7 -11l-5 -11l-6 -10l-8 -11l-7 -12l-7 -9l-9 -15l-7 -12
l-7 -12l-8 -10l-8 -11l-8 -10l-7 -11zM322 171l1 -2l4 -10l10 -18l8 -17l7 -9l5 -10l11 -13l11 -14l7 -10l7 -7l7 -8l9 -8l12 -11l10 -6l11 -3l11 -1h8l4 2l-1 6l-2 9l-8 12l-6 10l-6 10l-7 8l-11 11l-7 10l-13 8l-10 11l-17 11l-16 11l-16 11l-9 6zM243 277l-1 1l-8 12
l-8 6l-13 6l2 4l-9 -9l-10 -9l-15 -15l-12 -12l-12 -11l-10 -8l-6 -4l-2 -2l-9 -8l-5 -7l-5 -6v-7l1 -11v-10l1 -10l1 -12v-11l1 -11v-11v-11v-17l2 -19l1 -17v-11v-12v-15v-11h-7v-3l4 -18l-20 -4l-4 20l-1 10l-3 14l-1 11l-2 13v15v13v10v15v11v14v16l-1 14v16v14l-1 11
l-1 13v12l-1 11l-1 12v13v14v10l-1 9l-1 12l-2 11l-1 11l-3 15l-1 13l-2 15l-1 11l-2 10l-2 10l-2 14l-2 12l-1 10l-2 11l-2 20l-2 12v11v13v11v11v12v10v10v10v10v10v20l1 11l1 10l1 10l1 10v16v14v12l1 12l4 17l17 5l15 -3l14 -11l4 -14v-17v-10v-10v-20v-17v-10v-10v-11
l-1 -10v-11l-1 -13l-1 -10v-13v-13v-11v-10v-11v-11v-20l2 -15l1 -13v-10v-12v-12v-11v-11v-11v-12v-11v-11v-12v-12v-11v-14v-22v-12v-12l6 5l3 2l8 8l10 10l13 12l15 14l8 6l9 8l9 9l4 4l4 4l10 10l8 11l11 11l6 10l9 12l8 10l9 13l7 10l7 11l8 10l8 11l8 10l5 10l9 12
l9 15l7 11l7 10l6 11l6 10l5 11l7 11l6 11l11 18l6 9l10 16l6 9l14 13l14 12l15 10l24 -9v-21l-6 -12l-3 -12l-8 -15l-8 -14l-9 -15l-12 -21l-14 -22l-14 -19l-11 -19l-15 -19l-10 -15l-14 -15l-12 -11l-11 -10l-11 -11l-14 -12l-12 -12l-13 -13l-11 -9l-10 -9l-13 -10
l-10 -7l-7 -7l9 -4l6 -5l6 2l6 -12l5 -9l1 -2l9 -10l10 -15l8 -14l7 -15l2 -4l4 -5l6 -8l8 -8l6 -8l8 -7l7 -8l13 -10l9 -6l16 -11l16 -11l17 -11l10 -11l15 -10l9 -12l9 -9l9 -10l8 -12l6 -10l8 -14l4 -15l-1 -18l-16 -12h-14l-15 1l-15 5l-14 8l-14 13l-9 8l-7 8l-9 9
l-7 10l-11 14l-11 15l-5 10l-7 9l-10 17l-10 20l-4 10l-5 10l-4 11l-5 11l-8 17l-4 9l-7 8l-6 9l-7 10l-4 10l-6 9z" />
    <glyph glyph-name="l" unicode="l" horiz-adv-x="348" 
d="M88 738l8 6l16 8l3 3l-10 2l-8 1l-3 -3l-3 -9zM59 325l6 8l10 8l8 8l7 9l8 11l8 12l8 9l10 10l10 14l9 10l4 10l7 10l5 10l5 11l4 10l3 13l5 12l3 10l2 13l2 13l5 11l6 15l3 9v12v10l-2 12l-1 13v16v10l-4 18l-1 3l-1 4l-4 10l-4 9l-7 11l-4 10l-6 10l-7 8l-6 8l-13 11
l-1 -1l-14 -9l-14 -8l-13 -11l-13 -10l-5 -7l-1 -2l-7 -14l-2 -12l-4 -15l-4 -14l-1 -11l-2 -14l-3 -12l-1 -10l-1 -12l-1 -13l-1 -12v-11l-1 -14l-1 -13v-13v-15v-14v-15v-14v-13l2 -14l2 -14l1 -14l1 -13l2 -13l1 -15l2 -13l1 -13v-3zM63 301l1 -7l2 -8l4 4l8 8l7 9l8 8
l14 15l8 8l6 9l7 9l11 15l6 9l7 8l7 9l6 10l9 15l4 14l8 20l8 20l7 14l3 16l2 14l1 15v6l-1 -2l-3 -9l-2 -11l-2 -13l-5 -12l-3 -12l-5 -13l-4 -12l-5 -11l-5 -12l-7 -10l-6 -10l-9 -12l-10 -14l-12 -12l-6 -7l-8 -12l-8 -11l-9 -11l-8 -8l-10 -8l-5 -8zM130 45l2 -3l7 -9
l9 -2h6l-14 7zM39 278l-2 -2l-8 -7l-7 -10l-7 -9h1l10 2l9 6l6 5l-2 11v4zM34 302l-1 8l-2 14l-1 11l-1 11l-2 11l-1 10l-1 11l-1 11l-2 10v12v10l-2 11l-1 11v11v10l-2 10l-2 20l-1 13l-1 10l-1 13v12v14v13v15v14l1 15l3 14l5 13l5 13l8 19l7 8l8 15l6 9l4 5l3 12l3 12
l8 19l5 15l13 9l16 1l17 -3l13 -5l3 -1h14l15 -8l10 -11l8 -12l4 -11l6 -13l5 -16l4 -15l2 -10l6 -15l4 -11l6 -19l2 -11l1 -11v-10v-10v-20v-11v-19l-1 -17l-2 -16l-5 -18l-7 -16l-8 -20l-8 -18l-4 -16l-9 -17l-8 -12l-7 -9l-7 -8l-6 -9l-11 -15l-7 -9l-6 -9l-10 -10
l-14 -15l-8 -8l-7 -9l-8 -8l-13 -13l-2 -2l1 -1l2 -14l2 -12l2 -11l1 -11l2 -10l2 -11l2 -11l2 -10l2 -10l3 -9l4 -13l7 -16l8 -17l8 -14l8 -13l8 -8l8 -8l9 -6l12 -7l12 -4l11 -4l9 -2l5 -1l7 1l10 5l9 5l13 7l11 -17l-11 -8l-9 -8l-14 -6h-14h-1l-14 -4l-15 -1l-14 -1h-11
l-17 6l-13 13l-7 12l-4 9l-7 11l-5 12l-6 12l-6 19l-3 10l-4 18l-7 14l-4 11l-4 18l-3 12l-4 17l-5 20l-1 10l-1 6l-11 -7l-14 -4l-13 -1l-12 3l6 20l-6 4l11 15l9 12l8 7l6 8z" />
    <glyph glyph-name="m" unicode="m" horiz-adv-x="834" 
d="M65 324v10v18v17v10v19v11v10v17l2 14l5 16l1 13l2 12l1 9v15v14l-1 12l-3 7l-7 5l2 -6l-2 -13l-2 -19v-10v-16v-11v-16l-3 -15l-1 -9v-13v-11v-14v-16v-15v-13l1 -12l3 -11zM679 51v5l6 13l5 17l5 16v11v12l-1 10l-1 14l-1 15l-2 14l-1 11l-1 1l-2 13l-2 8l-1 -4l-1 -4
v-1v-16v-14l-1 -15l-3 -14l-1 -10l-2 -13l-1 -9v-12v-11v-10v-10l1 -8zM711 85l-1 -5l-7 -19l-4 -11l-2 -11l-1 -7l3 -1l4 -1l2 6l5 15l1 13v5v16zM706 219h2l2 -14l2 -18v-2l4 -12l7 -10l5 -17l3 -11l4 -15v-15v-11l-1 -16l-3 -15v-10l-1 -11l-3 -13l-7 -15h-2l-6 -14
l-6 -13l-16 -11l-8 3h-8v3h-1l-10 11l-7 19l-3 15l-2 22v12v16v11v10l1 19l2 18l2 17l1 13l1 11l1 11l2 14l1 4v13v16l1 17l1 13v13l5 15v19l-1 9l-2 12l-1 12l-1 13l-2 9l-3 19l-4 21l-6 11l-11 12l-8 7l-12 14l-8 8l-9 9l-8 6l-10 2l-17 1l-16 4l-9 3h-12l-16 -1l-11 -2
l-17 -4l-8 -3l-6 -5l-10 -10l-8 -14l-9 -21l-6 -26l-7 -29l-7 -26l-7 -22l-5 -22l-6 -25l-4 -25v-2l1 -14l1 -16v-14l2 -15l2 -22v-16l1 -16v-16v-12v-13v-20l-1 -12l-2 -16v-9v-13v-12l-1 -14l-20 -2l-7 16l-2 22l-1 21l-1 22v26v24v26v23v21v21l3 19l4 14l-1 8l-1 16
l-2 19l-4 18l-3 14l-2 13l-5 14l-2 13l-4 16l-6 15l-4 12l-4 10l-5 11l-9 17l-10 14l-11 10l-13 8l-13 7l-16 3h-9h-12h-11l-9 -3l-12 -6l-8 -5l-13 -11l-7 -8l-11 -10l-10 -9l-10 -11l-8 -8l-12 -15l-11 -16l-4 -10l-10 -19l-6 -15l-8 -15l-7 -15l-3 -11v-5v-21l-1 -11
l-1 -13v-12l-2 -17v-18v-2v-2v-15v-15l1 -11v-12v-12v-12l1 -13l2 -14l4 -18l3 -19l1 -16l1 -12l3 -22l-20 -2l-3 20l-5 -1l-1 12v3l-13 3l2 11v14v18v12v10v14v21v11v4v7v13v11v16v15v13v9l-1 13l-2 12l-2 16l-2 13l-3 18l-4 13l-3 13l-1 16v13v15v16v14v11v13l1 13l3 13
v14v11v16v12l2 19l2 13l6 22h20l15 -11l7 -15l1 -16v-14v-15l-1 -11l-2 -12l-1 -15l-5 -16l-2 -12v-15v-10v-11v-19v-10v-17v-3l6 15l10 19l4 12l13 18l14 17l8 8l10 11l10 9l11 10l7 8l15 13l10 7l14 6l13 5h15h12h11l20 -5l17 -7l15 -10l13 -12l14 -18l9 -19l5 -11l4 -12
l4 -12l6 -15l6 -18l2 -13l5 -14l2 -13l3 -14l1 -5l3 17l7 22l7 26l7 27l8 28l9 23l10 18l12 12l10 9l12 5l19 4l13 2l18 1h14l13 -3l14 -4l15 -1l16 -4l12 -8l11 -11l8 -8l12 -14l1 -1l-3 7l18 8l5 -10l5 -12l4 -15l3 -15l3 -11l2 -12l3 -12l2 -14l1 -15l1 -19v-12l2 -12
v-11v-13l2 -11l2 -14l3 -13l2 -10h3l3 -13v-1zM643 496v-20h-10v20h10z" />
    <glyph glyph-name="n" unicode="n" horiz-adv-x="556" 
d="M61 471l-4 -15l-1 -13v-13l3 -12l3 -9l5 -10l6 -13l6 -15l5 -16l4 -9l-2 15l-4 20l-4 19l-5 21l-4 20l-4 17l-3 10zM436 74v4v9v15v19v19v14l-2 13l-2 17l-1 15l-2 19l-2 16l-2 17l-3 16l-4 13l-5 11v-16v-17v-16v-18l1 -16v-15v-14l2 -14v-12l3 -12l2 -14l3 -15l3 -18
l7 -15zM364 463v-8l2 -10l7 -13l5 -8l2 -3l-1 7l-5 18l-7 13zM102 33l-20 -2l-1 12l1 15l2 15v15l2 17l2 17l2 22l2 19l-1 9l-1 11l-1 11l-3 20l-2 18v18l-1 14l-2 18l-1 10l-1 5l-2 9l-4 17l-1 10l-6 16l-5 16l-6 13l-6 13l-5 10l-5 11l-3 16v15l1 17l6 20l3 9l19 7l10 -6
l5 -16l5 -10l4 -19l4 -20l5 -21l4 -19l3 -15l4 8l11 13l10 12l10 10l12 12l12 9l10 8l13 9l14 9l14 9l13 7l15 9l17 7l17 7l13 4l13 1l14 1h14l12 -2l13 -5l11 -9l7 -8l9 -10l9 -17l7 -22l2 -13l2 -14l2 -14l2 -15l1 -5l3 -6l5 -12l5 -14l6 -18l6 -18l5 -17l4 -15l3 -18
l2 -17l2 -16l2 -19l1 -15l2 -17l2 -13v-16v-19v-19v-15v-11l-3 -20l-9 -12l-20 4l-5 13l-3 12l-7 15l-5 20l-3 15l-2 14l-3 14v12l-2 14v16v15l-1 16v18v16v17v16v17v18l-1 16l-2 15l-1 7l-2 3l-6 12l-7 13l-8 13l-4 9l-7 8l-7 17l-4 14l-1 23h9l-6 4l-9 3l-8 2h-12l-12 -1
l-11 -1l-11 -2l-15 -7l-15 -7l-15 -9l-13 -7l-14 -9l-14 -7l-11 -9l-10 -8l-10 -9l-12 -10l-10 -10l-8 -10l-11 -13l-5 -9l-5 -11l-5 -9l1 -3l1 -17v-14v-20v-16v-17v-14v-16v-19v-16v-21l1 -12l1 -11l1 -11l1 -15l2 -16l1 -14l2 -13l3 -17l3 -18l7 -22l-18 -6l-9 24l-3 18
l-1 9l-1 -4l-1 -13z" />
    <glyph glyph-name="o" unicode="o" horiz-adv-x="574" 
d="M404 149l2 12l1 15l4 13l2 12l2 15v15l1 18v21v15l-1 14l-4 14l-5 18l-6 19l-6 16l-6 15l-4 8l-13 17l-9 9l-12 15l-11 10l-8 8l-9 6l-10 5l-12 6l-12 6l-10 6l-15 8l-9 2l-9 3h-8l-20 -3v4l-17 -6l-19 -10l-18 -9l-17 -13l-15 -12l-15 -15l-12 -12l-10 -12l-8 -15l-5 -8
l-1 -3l-9 -26l-8 -26l-7 -26l-4 -27v-23v-23v-17l7 -17l10 -19l13 -23l15 -22l4 -6l5 -3l10 -7l11 -8l12 -9l12 -6l10 -5l12 -6l11 -5l22 -5l11 -3l10 -1l11 -1l21 -2l11 -1h11h10h8l14 7l13 9l9 7l11 11l11 12l12 12l12 10l12 12zM365 443l11 -14l11 -11l13 -19l6 -10
l6 -15l6 -18l8 -19l5 -18l4 -8v15l-1 12l-3 14l-8 17l-4 10l-6 13l-10 11l-11 12l-8 10l-8 9zM286 39h-5h-11l-13 1l-21 2l-11 1l-12 1l-13 3l-22 7l-13 5l-12 6h-1l8 -6l16 -10l16 -7l17 -5l18 -1h19h26zM388 107l-5 -4l-12 -12l-11 -12l-11 -11l3 1l13 11l11 10l8 10z
M333 471l-1 3l4 1l-7 7l-12 6l-12 8l-7 5l-9 5l-4 1l-3 -9l6 -3l10 -6l12 -6l10 -6l12 -5zM349 458l4 -4l8 -7l-5 5zM376 461l2 -3l12 -10l10 -11l8 -10l9 -10l12 -13l8 -17l4 -10l8 -19l5 -16l1 -16v-15v-14v-11l-1 -11v-12l-1 -14l-1 -15l-2 -17l-3 -15l-4 -15l-4 -12
l-8 -19l-9 -17l-2 -9l-5 -13l-7 -16l-8 -13l-10 -12l-13 -12l-15 -11l-22 -12l-19 -9l-27 -12l-20 -4h-28h-19l-22 1l-19 7l-20 7l-18 12l-19 15l-15 16l-17 19l-10 14l-6 3l-9 11l-10 10l-7 10l-9 12l-6 12l-5 17l-4 20l-1 20v20v19l1 19l1 15l4 18l4 17l6 16l5 18l8 16
l5 8l10 24l14 24l11 17l17 18l14 12l21 12l17 9l15 6l17 7l14 5l16 4l14 2h11h10h16l14 -4l13 -5l9 -7l10 -6l14 -8l12 -13l5 -6h5l13 2l16 3l15 4l13 6l9 6l10 11l9 14l4 15l2 11l1 9l2 7l-9 2h-9v20h13l21 -12l2 -17l-1 -11l-2 -13l-6 -19l-11 -18l-12 -13l-13 -10l-17 -6
l-17 -6l-16 -3h-4z" />
    <glyph glyph-name="p" unicode="p" horiz-adv-x="577" 
d="M62 47v-9l1 -20v-12v-11v-12l4 -11l3 -12l2 -15l4 -17l3 -16l3 -17l2 -11l2 -13l2 -9l4 -13l3 -4h4l4 2l4 13l3 18v9v10v13l-3 9l-6 17l-8 19l-4 10l-6 20l-3 12l-3 10l-4 10l-7 17zM63 455h3v4l2 10l1 11l6 15l4 10l10 -4l1 10v15l-2 13l-5 7l-7 2l-5 1v-11l-4 -21
l-1 -14l-2 -16l-1 -21v-11zM440 162l6 9l3 11l3 12l4 17l-2 -6l-4 -15l-7 -19zM202 472l13 4l51 8l30 4h36h11l-14 4l-16 1h-20h-19l-22 -4l-17 -4l-21 -8zM100 384l-6 -13l-5 -16l-7 -23l-7 -24l-1 -2v-19v-16l-1 -15l-1 -13l-2 -11v-19l-3 -14v-1v-2l5 -19l2 -10l2 -1
l10 -10l9 -11l8 -9l9 -8l8 -7l13 -10l14 -10l18 -14l17 -10l14 -7l12 -3l11 -3l11 -1h13h14h16h14l10 1l10 3l11 2l13 6l20 12l20 13l17 13l9 7l4 8l9 16l9 19l6 14l5 19l4 15l6 16l1 19v20v20l-2 19l-2 19l-2 19l-3 16l-3 17l-4 14l-5 12l-4 11l-5 11l-11 17l-9 11l-8 8
l-11 5l-13 3h-27h-34l-30 -4l-49 -8l-24 -7l-26 -8l-22 -11l-19 -13l-15 -16zM42 305v14v30v25v20l1 19v17v18v18l1 23l2 16l1 14l4 23l6 21l21 5l17 -6l11 -15l4 -19v-17l-1 -12l-1 -13l-2 -13l-2 -12l-3 -20l-3 -13l-3 -9l2 3l6 10l11 11l12 8l13 11l21 12l23 12l23 9
l23 10l19 4l24 4h21h20l20 -1l18 -6l18 -9l15 -11l10 -9l2 -1l16 -9l16 -15l15 -17l9 -17l7 -18l7 -19l3 -22l4 -24l3 -19l1 -20v-14v-17v-17v-21l-1 -16l-4 -21l-3 -14l-5 -13l-10 -16l-15 -15l-10 -10l-11 -11l-6 -4l-3 -5l-12 -14l-8 -9l-17 -12l-25 -12l-11 -5l-15 -6
l-21 -6l-12 -1l-12 -1h-16h-13h-11l-13 1l-13 2l-13 3l-11 5l-13 4l-20 7l-12 5l-11 7l-11 8l-9 6l-10 6l-9 9l-9 11l-7 14l-8 10v-8l1 -18l2 -9l3 -20l1 -8l6 -16l4 -15l7 -15l4 -10l5 -12l3 -12l6 -20l2 -10l8 -17l6 -19l5 -11v-17v-10v-11l-3 -22l-10 -21l-14 -8l-18 2
l-11 12l-6 17l-2 11l-2 13l-2 11l-3 17l-3 16l-4 17l-2 15l-3 10l-4 15v14v11v12l-1 20v16v21l-1 23v23v17v19v15v20v20v20l1 16l1 8l-1 4v1h-3l-2 1l2 4l-1 17l3 19z" />
    <glyph glyph-name="q" unicode="q" horiz-adv-x="560" 
d="M52 188v5v11v10v12l2 11v11l1 12l2 12l2 11v10l5 20l4 18l4 17l6 13l4 14l5 12l5 10l5 13l4 10l-10 -12l-11 -18l-8 -15l-9 -18l-7 -16l-4 -17l-3 -16l-1 -18l-2 -18l-1 -15v-21v-13l4 -17l2 -14zM387 364l-4 13l-6 16l-8 14l-10 -6l-8 11l-13 24l-7 9l-7 8l-6 8l-8 7
l-9 7l-8 8l-12 5l-9 5l-13 2l-13 3h-14h-18l-15 -3l-15 -5l-19 -10l-2 -2l-6 -9l-6 -7l-4 -9l-6 -9l-6 -11l-9 -11l-7 -10l-4 -10l-5 -13l-5 -10l-5 -10l-4 -14l-4 -13l-4 -15l-4 -18l-5 -18v-10l-2 -13l-2 -10l-1 -10v-13l-2 -11v-10v-10v-11v-14v-11v-13l1 -11l1 -12
l2 -10l8 -13l8 -12l7 -6l14 -11l9 -8l14 -6l14 -5l12 -3l13 -3h14h13h5l12 7l9 5l8 7l10 6l9 7l10 7l7 6l9 8l8 7l14 14l8 8l15 12l8 6l12 14l5 10l7 13l8 13l5 11l4 10v1l4 19l3 9l2 16l2 19l1 10l1 18v11v11v17zM429 426v8v11v15v13v11v11v10l-2 8l-3 13l-3 4l-2 -4l-3 -8
l-4 -10l-4 -12v-2h8l7 -17l4 -14l1 -22zM409 -173v-1l3 -14l4 -17l7 -16l4 -11l4 -1l4 3l5 13v11v19v20v9l-1 5l-8 -11l-13 -9h-9zM426 -59l-6 -13l-5 -19l-6 -18l-1 -17v-15v-13l4 -1l5 5l7 10l3 8v11v15v10v11v10l-1 14v2zM122 51l8 -6l10 -2h3l-15 5zM26 277l-2 -7
l-1 -16l-2 -19v-19l1 -17l5 -18l5 -16l9 -20l8 -13l-6 12l-3 14l-4 12l-5 18l-2 14l-4 19v15v21l1 17v3zM409 364l-3 13l1 -9zM200 28h8h15l12 5l12 7l13 7l12 8l9 6l8 10l10 9l8 6l2 3l-7 -6l-13 -9l-10 -5l-14 -8l-12 -7l-9 -7l-13 -6l-14 -6h-4zM94 40l-7 4l2 4l-2 2
l-5 5l-13 14l-13 14l-11 18l-12 17l-10 17l-9 22l-7 18l-5 20l-1 21v19l2 21l1 18l7 21l6 19l8 21l8 21l11 21l11 19l12 20l12 15l14 17l16 17l16 17l18 17l18 16l17 11l20 9h16h15l21 -3l21 -10l12 -5l10 -6l12 -6l9 -7l10 -7l14 -11l14 -12l7 -9l10 -17l6 -8l5 -8v3v19
l2 14l3 16l3 5v3v14l6 16l4 10l5 12l20 12l17 -14l7 -17l2 -12v-12v-11v-11v-13v-15v-11v-10l-1 -21l-1 -18l-1 -17v-11l-1 -10v-11l-1 -11v-10v-11v-16v-16v-16v-15v-1q1 -2 1 -3h-1v-2v-16v-15v-1h1l2 -49l2 -54v-55l-4 -40l5 -15l1 -16l1 -16l1 -16v-13l1 -12v-12l1 -10
l1 -12l1 -10l1 -11l2 -18v-11v-20v-19v-15l-9 -21l-16 -11l-22 7l-8 17l-7 18l-6 19l-3 16l-1 11l-4 3l-2 15l-1 14v11l1 14l3 13l4 15l4 18l8 18l5 19l1 11l2 12l2 14l1 16l3 16v1l-1 2l-3 13l-4 13l-3 11l-1 13v12v13v17l1 16l2 19l1 19v11v16l-1 -2l-5 -11l-4 -11l-9 -19
l-9 -17l-9 -14l-6 -11l-6 -11l-8 -12l-7 -10l-6 -11l-7 -9l-9 -10l-10 -8l-8 -7l-8 -10l-11 -8l-14 -10l-13 -7l-14 -7l-16 -7h-19h-15h-18l-16 2l-15 3l-16 6l-9 6l-6 -6l-18 20z" />
    <glyph glyph-name="r" unicode="r" horiz-adv-x="450" 
d="M84 445h-1l1 -2v2zM176 450l-3 7l19 9l9 1l1 1l15 11l17 9l15 7l13 5l14 4l12 2l22 1h17l16 -10l8 -16l-1 -18l-16 -10l-13 -4l-11 -3l-12 -2h-14h-12h-10h-10h-14h-10h-13l-11 -3l-10 -4l-10 -7l-14 -10l-12 -12l-15 -15l-6 -12l-7 -12l-6 -12l-5 -11l-4 -16l-5 -16
l-4 -13l-4 -13l-2 -12v-15v-14v-2l1 -16v-16v-16v-19v-22v-28v-21l1 -21v-17l5 -23l6 -29l-20 -4l-6 29l-19 2l1 10v13v12v12v13v12v16v18v17v23v19v17v16v7l-5 1l2 24l3 16v10v23v22v20l-1 18v18v4l-6 -2l-5 13v24l2 11v2l-13 -3l-3 13v12v10v23v12v11v14l5 12l6 13l11 14
l13 7l20 2l16 -11l3 -20v-11v-18l-1 -14l-3 -13l-2 -13l-3 -15l-1 -16l-2 -16l-3 -15l-2 -18l-2 -18l-1 -16v-16l3 4l7 11l7 10l6 8l7 9l3 5l9 9l18 16v1h1l13 10zM282 485l6 -19l-8 -2h4h12l10 2l9 3l11 2l6 2l-1 4l-2 6l-8 4h-11l-20 -1zM82 465h5l1 15l3 17l2 13l3 13
l1 10v18v3l-2 -13l-3 -13l-3 -13l-2 -12l-2 -9l-1 -10l-1 -11zM97 554v6l-1 12l-2 1l-10 -2l-7 -3l-5 -8l-6 -11l-3 -8v-10v-11v-12v-15l2 1v2l2 11l2 12l3 13l3 13l2 13z" />
    <glyph glyph-name="s" unicode="s" horiz-adv-x="511" 
d="M173 282l-11 6l-16 7l-10 8l-11 6l-16 13l-15 20l-3 12l-3 7v-1v-1l4 -14l3 -9l6 -9l5 -9l11 -15l8 -7l11 -6l14 -4l9 -2zM344 495v-1l10 -7l11 -13l8 -11l5 -12l6 -11l5 -12l3 -15l3 -13l1 -12l5 -11l-4 -1l1 -10v-12l-8 -17l-23 -2l-12 13l-5 13l-3 12l-1 16v10v10v13
v14v3l-3 4l-12 11l-11 13l-9 9l-6 6l-15 8l-15 6l-8 1h-10h-18l-16 -1l-11 -2l-12 -1l-10 -3l-12 -2l-14 -7l-9 -5l-10 -6l-9 -7l-8 -4l-11 -9l-10 -13l-7 -12v-15v-11v-9l3 -12l6 -18l3 -10l11 -14l14 -11l9 -6l10 -6l14 -7l12 -6l11 -5l9 -3l11 -4l18 -7l13 -1l12 -2
l16 -3l13 -5l11 -5l2 -1l13 -2l18 -2l18 -8l16 -11l11 -11l8 -8l8 -11l6 -12l4 -14l3 -16v-7l4 -7l5 -19v-15l-1 -18l-6 -12l-6 -10l-8 -12l-3 -7l-7 -10l-8 -10l-17 -14l-11 -7l-10 -5l-12 -9l-20 -9h-15h-10h-14h-14l-16 1l-10 2h-14l-19 4l-17 6l-20 11l-9 7l-9 8l-10 9
l-4 6l-5 3l-12 7l-11 7l-12 10l-11 13l-8 13l-8 11l-6 11l-7 15l-9 21l-9 24l-4 15l-2 12v16l4 16l14 8l15 3h14l17 -2l10 -13l3 -14v-13v-18v-10l2 -19l2 -13l3 -14l2 -14l5 -16l10 -16l5 -9l5 -9l7 -10l2 -1l17 -10l17 -7l11 -7l18 -7l9 -2l11 -1h16h14h14h13l12 3l13 3
l15 6l16 7l19 11l8 5l7 6l6 7l2 4l4 15l2 9v9l1 11v12v14v1v1l-5 7l-5 10l-6 9l-7 9l-7 7l-6 8l-8 8l-8 7l-15 12l-11 5l-13 7h-2l-18 4l-10 2l-19 5l-15 5h-14h-11h-17l-13 1l-18 2l-11 2l-16 6l-15 8l-10 9l-13 17l-7 11l-6 11l-5 11l-4 18v16v14l1 13l3 13l2 12l8 16
l8 19l9 13l7 11l9 10l12 7l12 5l16 5l18 5l17 3l19 2h16h21l17 -1l18 -2l13 -3l12 -3l9 9l18 -17zM366 412v-3v-10v-10l1 -12l3 -10l3 -9l2 -5h3v5v8l-1 10l-2 11l-3 10l-4 12zM96 93l-5 10l-7 20l-2 14l-3 14l-2 15l-2 19v12v18v11l-1 8l-2 3h-7h-12l-11 -1l-4 -2v-6v-12
l2 -10l4 -13l7 -22l9 -21l7 -13l6 -11l6 -11l8 -11z" />
    <glyph glyph-name="t" unicode="t" horiz-adv-x="350" 
d="M100 575l1 9l5 17l2 16l2 10l4 16l4 17l3 10l1 9v9l-2 7l-2 1l-7 -3l-10 -7l-6 -8l-4 -12v-9v-11l1 -9l1 -14l1 -9l3 -14l3 -13v-12zM133 475h2l13 -3l11 -2l10 -2h9h15l12 3l14 7l7 6l4 6l1 4l-3 4h-11h-10l-10 -1l-12 -3l-11 -4l-14 -3l-14 -7zM168 448h-8h-8h-13
l-13 1l-12 2v-11v-11v-11v-19v-13v-11v-10v-21l-2 -18l-2 -19l-2 -17l-1 -11l-1 -10v-1v-9v-19v-11v-10v-11v-11v-11v-11v-19v-13l1 -13l5 -13l6 -11l9 -12l8 -8l10 -11l4 -3l11 -5l15 -8l15 -6l18 -2l9 2l1 -4l21 7l6 -20l-26 -7h-23l-13 1l-18 4l-12 9l-12 9l-3 3l-11 4
l-11 7l-12 8l-11 14l-8 16l-4 15l-1 16v17v18v21l2 19l2 20l1 21l1 19l1 14v12v12v11v14v12v12l-1 11v11v14l-1 14v14v12v10v11v1h-1l-10 3l-9 2l-12 1l-11 1h-1h-12h-4h-10h-1h-13h-11h-2h-7l-7 -5l-10 13l-7 7l-5 17l3 19l17 9h13h15h18l18 -5l15 -8l14 -7l13 -8l5 -3v1
l-1 11l-2 15v15v14v15v13v10l-3 11l-3 14l-1 11l-1 14l-1 11v11v13l6 18l10 12l14 11l19 5l16 -9l6 -15v-13l-1 -13l-3 -12l-4 -15l-4 -16l-2 -10l-2 -16l-5 -17l-2 -14l-2 -19l-2 -17v-10v-11l-1 -19l10 4l14 4l16 7l14 5l11 4l14 3l14 1h10l19 -2l15 -16l-3 -18l-8 -12
l-7 -6l2 -8l-29 -9h-17zM58 483l-3 1l-14 7l-13 8l-12 3h-16h-15h-9l-5 -1l1 -5l3 -9l4 -5h8h1h1h1h11h13h1h10h4h12h1h10z" />
    <glyph glyph-name="u" unicode="u" horiz-adv-x="546" 
d="M406 360v4l1 69h17l-4 24l-3 18l-4 12l-5 12l-8 9l-11 6l-5 1l-4 -7l-3 -12v-13v-12l2 -16l3 -12l5 -13l5 -13l4 -14l3 -13l3 -13l3 -11zM414 143l-4 -7v-18l1 -32l2 -33l6 -29v-11l1 2l4 5l1 8v9v10v11v9l-3 15v10l-3 12l-1 11l-3 13v11zM85 529l20 -2l-1 -10l-3 -17
l-5 -17l-5 -12l-6 -17l-3 -15l-1 -10l-2 -19l-2 -21v-14v-24v-21v-19v-17l5 -16l7 -25l8 -20l8 -21l8 -20l9 -22l6 -19l5 -15l3 -7l9 -17l9 -13l1 -1l8 -8l10 -13l15 -12l17 -10l14 -6l20 -4h21l20 1l20 10l17 13l18 17l15 18l12 13l11 14l10 17l7 12v4l3 24l5 28l3 32v4
l-1 8l-2 16l-2 14v15l-3 15l-1 14l-4 14l-3 14l-3 11l-3 13l-3 11l-4 14l-3 11l-7 15l-3 14l-2 18v14v15l5 18l12 17l21 1l17 -10l14 -15l5 -14l6 -14l3 -22l4 -27l2 -28v-17v-15v-16v-17l-1 -22v-21l-1 -18l-2 -15l-1 -17l-4 -20l-3 -20l-6 -21l3 -14v-15l4 -15v-11l3 -11
l1 -11l3 -14v-10l3 -15v-11v-11v-10v-11l-3 -14l-12 -13l-21 -4l-10 25l-6 31l-2 35l-1 19l-10 -14l-15 -15l-17 -13l-13 -11l-15 -9l-16 -11l-19 -9l-19 -3h-16h-15l-15 3l-16 5l-13 7l-14 10l-14 13l-14 15l-10 12l-3 4l-8 13h-1l-2 3l-8 16l-2 7l-5 8l-9 16l-9 17l-9 19
l-7 18l-7 19l-6 16l-5 18l-2 17l-1 20v22v24l1 25l1 24v8l2 22l3 20l1 9v16v10l-2 12l16 3l4 13l3 15z" />
    <glyph glyph-name="v" unicode="v" horiz-adv-x="547" 
d="M345 303l-8 -17l-11 -25l-10 -25l12 24l9 24zM64 440l4 -11l9 -31l9 -31l9 -27l8 -26l7 -26l7 -28l8 -29l11 -27l10 -27l10 -26l12 -26l11 -22l11 -19l8 -10l4 -5l4 1l8 8l6 8l9 11v1l-15 2l-21 10l-9 16l-4 11l-4 15l-7 17l-8 23l-8 25l-11 25l-11 31l-13 32l-10 29
l-11 27l-14 33l-10 27zM425 547l-7 -9l-8 -13l-7 -17l-6 -24l-7 -26l-8 -32l3 7l5 12h-1l5 9l3 12l7 16l6 18l8 22l4 15zM448 559l-3 -14l-3 -14l5 -1l-1 -17l-10 -21l-5 -12l-7 -18l-8 -19l-4 -18l-6 -18l-7 -24l-10 -27l-9 -25l-8 -18l-8 -17l-9 -20l-9 -24l-12 -26
l-13 -23l-10 -21l-9 -16l-10 -19l-14 -20l-10 -14l-13 -12h-1l-9 -16l-9 -11l-8 -10l-14 -12l-18 -3l-14 11l-8 14l-13 19l-11 24l-12 26l-10 26l-10 27l-11 29l-10 29l-7 28l-7 26l-8 26l-9 27l-9 31l-9 31l-7 25l-5 19l-4 15l-4 13l-3 14l-1 13v16h20v-16l1 -5l4 2l8 -14
l9 -18l10 -24l15 -34l10 -27l14 -33l11 -27l10 -29l13 -32l11 -31l11 -25l10 -27l6 -23l7 -17l4 -15l4 -9l5 -10l13 -4l12 -3l8 1l8 16l11 26l-9 4l14 37l13 31l13 30l14 35l16 35l15 31l14 31l12 34l9 36l7 26l8 24l7 19l10 17l14 16l17 6z" />
    <glyph glyph-name="w" unicode="w" horiz-adv-x="774" 
d="M320 459l-2 -7l-4 -15l-4 -16l-6 -19l-6 -24l-5 -23l-6 -25l-5 -17l-5 -18l-6 -17l-4 -15l-1 -16l-3 -16l-3 -15l-3 -14l-3 -14l-4 -15l-6 -17l-6 -16l-5 -15l-6 -13l-6 -10l-6 -13l-12 -13l-11 -8l2 -5h6l8 6l8 9l7 11l8 14l7 17l5 19l6 20l8 26l6 24l7 26l5 25l7 27
l7 26l5 22l6 26l6 26l6 29l6 29zM390 276v2l-2 15l-3 20l-3 19l-2 21l-2 22l-4 20l-4 20l-4 19l-3 13v-4l1 -20l1 -19l1 -16l1 -20v-17l3 -17l4 -18l6 -17l7 -17zM654 537l-1 -5l-5 -15l-5 -13l-4 -10l-3 -12l-5 -16l-5 -19l-6 -19l-5 -17l-3 -12l-4 -13l-3 -13l-3 -14
l-3 -14l-1 -15l-3 -17l-2 -15l-3 -17l-2 -13l-1 -12l-3 -15l-3 -12l-3 -15l-6 -16l-4 -12l-6 -13l6 12l7 16l7 15l5 15l7 16l6 17l6 15l3 12l3 14l4 13l6 18l3 14l2 12l3 13l4 11l4 15l4 15l1 12l4 13l1 9l2 13l3 16l1 22v24v12zM123 284l3 -8l5 -25l1 -6l8 -13l8 -17l7 -18
l7 -19l7 -17l5 -19l3 -14l3 -14l3 -14l2 -12v-1l4 3l10 11l4 9l6 12l6 11l5 13l6 16l4 17l4 13l3 14l3 14l3 15l3 14l1 16l4 19l6 17l5 18l5 17l6 23l5 23l6 26l6 19l4 16l4 15l6 17l6 18l6 15l9 21l8 15l21 4l11 -19l4 -12l4 -18l4 -19l4 -22l5 -20l4 -19l4 -20l4 -22
l2 -22l2 -21l3 -17l3 -22l2 -15l3 -18l6 -18l5 -19l6 -17l6 -16l6 -16l5 -16l5 -17l5 -18l7 -16l10 -18l8 -3l10 4l10 8l5 8l5 11l6 13l8 15l7 17l11 19l6 11l2 10l6 16l3 13l3 12l3 13l1 12l2 15l3 17l2 15l3 15l1 15l3 16l3 14l3 13l4 15l3 12l5 17l6 19l5 19l5 16l5 12
l4 12l5 11l3 15l5 14l11 18l23 -6l2 -21v-18v-24l-1 -24l-3 -18l-2 -11l-1 -11l-4 -13l-1 -12l-4 -17l-4 -15l-4 -11l-3 -11l-2 -12l-3 -16l-6 -18l-4 -13l-3 -14l-5 -12l-6 -15l-6 -19l-7 -16l-5 -15l-7 -15l-7 -16l-8 -16l-8 -22l-9 -21l-7 -18l-8 -18l-6 -15l-17 -21
l-22 -7l-15 1l-14 8l-13 13l-7 12l-6 13l-5 12l-7 16l-6 18l-5 16l-6 16l-5 14l-5 15l-7 15l-6 17l-9 16l-7 16l-9 17l-7 17l-8 19l-4 20l-3 19v19l-1 18l-1 16l-1 19l-1 22v20v15l-1 -7l-4 -30l-6 -29l-6 -29l-6 -26l-6 -26l-5 -22l-7 -28l-7 -25l-5 -25l-7 -26l-6 -26
l-8 -26l-6 -20l-7 -19l-7 -19l-8 -16l-9 -13l-10 -13l-18 -10l-6 1l8 -17l-18 -8l-14 29l-9 18l-12 13l-9 21l-7 18l-7 27l-3 21l-3 22l-2 7l-4 19l-5 20l-1 8l-7 13l-7 16l-8 16l-6 17l-5 17l-5 15l-5 16l-4 16l-4 15l-7 15l-4 17l-4 15l-5 17l-5 12l-5 12l-3 14v12l-1 10
l14 1l-2 19v16l1 13l13 17l20 5l19 -6l7 -17l2 -19v-20l1 -16v-17v-18v-18v-19v-17l2 -14l3 -18l3 -17l2 -17l4 -18l2 -18l4 -18zM82 416v12v19v18v18v17l-1 16v18l-2 17l-1 7h-5l-10 -1l-5 -7l1 -7v-16l2 -19l7 -36l6 -23l3 -14l4 -14zM562 173l-11 -19l-7 -15l-8 -15
l-6 -13l-5 -13l-9 -12l-14 -12l-20 -6l-3 1l5 -5l8 -4l7 -1l12 3l11 15l6 13l8 18l7 18l9 21l8 22z" />
    <glyph glyph-name="x" unicode="x" horiz-adv-x="612" 
d="M121 406l5 -8zM82 32l4 3l9 7l12 12l13 17l12 20l12 20l11 21l11 20l11 20l10 19l12 18l8 15l10 21l3 4l-1 1l-2 2l-3 -4l-6 -10l-11 -14l-6 -8l-9 -10l-8 -9l-6 -8l-7 -7l-7 -9l-7 -9l-7 -10l-7 -9l-10 -12l-7 -13l-7 -12l-9 -13l-9 -14l-6 -11l-5 -9l-4 -10l-5 -11
l-2 -8h10h3zM318 2l-8 18l18 7h12h10h13l16 1h10l-2 4l-5 6l-7 8l-11 12l-11 11l-11 13l-10 12l-10 13l-9 12l-11 14l-13 19l-10 15l-9 17l-11 14l-12 13l-13 19l-1 1l-8 -15l-8 -17l-12 -18l-10 -19l-11 -20l-11 -20l-11 -21l-12 -20l-14 -22l-15 -19l-8 -8h5l14 -2l15 -2
l14 -2v-20l-17 -1h-11h-16h-11h-10h-11h-4l-3 -3l-3 3h-4l-13 -1l-16 -1h-12h-13h-17v7l-10 -2l-11 -2l-4 20l11 2l16 2l10 1l12 1h10h12h2l2 3l3 11l5 13l4 10l5 11l8 11l9 14l7 13l7 12l9 15l10 12l7 9l7 10l7 9l7 9l7 9l8 8l8 9l7 8l6 8l11 14l6 10l5 7l-14 15l-13 16
l-13 17l-14 18l-15 18l-13 18l-13 19l-10 18l-7 16l-10 21l-8 22l-10 22l-8 19l-7 17l-7 21l-4 12l18 6l4 -12l7 -19l1 -2l6 2l13 -25l9 -15l12 -20l12 -19l9 -18l11 -18l11 -19l12 -20l10 -22l11 -19l14 -19l11 -18l10 -13l4 6l7 10l8 11l9 12l11 11l7 11l10 10l7 9l7 9h1
l10 16l14 20l11 21l12 18l11 18l1 4l8 13l6 10l8 16l6 13l6 12l20 -5v-21l-14 -19l-13 -17l-10 -13l-1 -2l-3 -8l-11 -20l-7 -11l-6 -11l-6 -10l-6 -9l-10 -15l-10 -11l-2 -5l-12 -19l-11 -19l-11 -19l-10 -23l-13 -23l-3 -4l7 -8l15 -19l14 -18l13 -15l12 -18l10 -13
l10 -15l10 -15l10 -10l12 -10l8 -8l10 -9l13 -12l13 -11l7 -11l-10 -8h1l7 -10l1 -7l3 6l12 -10h4h17h22h15h10h22l2 -19l-15 -3l-18 -1h-16h-14h-11h-14h-15h-15h-1l-13 -1h-12l-15 -2h-12v2h-2h-8z" />
    <glyph glyph-name="y" unicode="y" horiz-adv-x="588" 
d="M144 185l2 -6zM85 335v4l-1 13v12v11v15v16v12v11v19v15v17v16v12l-3 20l-3 13l-2 2l-3 -1l-4 -8l-5 -16l-1 -11l-1 -18v-21l1 -23l1 -19l3 -18l5 -20l5 -20l4 -18zM412 455l9 -3l-16 -46l-3 -6l7 9l8 11l7 10l6 11l7 14l5 11l7 16l3 11l5 18l4 12l3 7l-9 -11l-8 -14
l-11 -14l-7 -11l-9 -14zM386 411l-6 -11l-7 -14l-13 -19l-11 -15l-6 -12l-7 -12l-6 -10l-5 -12l-6 -14l-4 -12l-6 -11l-1 -10l-4 -12l-3 -14l-4 -13l-2 -8l6 11l6 12l7 13l1 1l2 5l5 11l4 11l6 15l5 17l7 15l7 14l7 16l13 24zM235 5l2 4l4 11l8 10l8 16l5 10l7 16l4 13l4 16
l5 16l4 18l2 10l4 20l-8 -14l-5 -11l-1 -2l-2 -13l-6 -15l-6 -14l-4 -14l-4 -15l-5 -13l-5 -13l-3 -14l-7 -17zM78 -167l3 -1l9 -1l12 -1h13l11 1l6 4l10 9l6 7l8 10l1 1l-15 -7l-12 -6l-20 -11l-11 -1l-15 -4h-6zM47 -144l3 -1l11 -2h9h12l13 4l9 1l16 9l14 6l16 7l6 6
l10 11l7 8l6 9l5 10l7 14l5 16l5 10l3 14l4 11l5 13l5 14l5 17l2 4l-3 -1l-14 12l-1 -1l-14 18l-6 9l-10 15l-9 14l-6 10l-10 14l-9 14l-8 15l-7 15l-5 12l-6 13l-6 16l-7 17l-7 18l-7 18l-6 13l-5 15l-5 13l-6 17l-7 21l-4 20l-5 20l-5 20l-3 20l-1 21l-1 23v21l1 20l1 13
l7 20l10 16l19 5l14 -12l7 -19l3 -22v-14v-16v-17v-15v-19v-11v-12v-16v-15v-11v-12l1 -11l1 -12v-10l2 -13l3 -13l4 -9l9 -19l5 -10l8 -18l9 -17l8 -15l8 -10l7 -18l9 -20l5 -9l8 -16l7 -15l7 -14l6 -12l5 -13l3 -9l5 -9l4 -4l-1 5l5 14l3 11l7 17l5 12l5 11l4 11l3 8l4 12
l2 14l4 14l3 15l2 11l3 15l4 13l3 14l4 12l3 10l6 13l4 12l6 14l5 12l6 12l7 12l8 12l11 17l11 17l7 14l8 15l6 12l10 14l8 14l10 13l9 12l7 13l11 14l8 14l10 13l10 13l13 7l16 -12l-2 -10l-1 -11l-4 -14l-4 -12l-5 -18l-5 -13l-7 -16l-5 -11l-7 -16l-8 -11l-7 -12l-8 -11
l-7 -10l-8 -11l-10 -13l-7 -11l-7 -8l-6 -13l-8 -14l-8 -14l-7 -13l-7 -15l-7 -12l-5 -13l-5 -10l-2 -4l-4 -10l-3 -13l-4 -13l-3 -12l-2 -11l-3 -13l-4 -23l-2 -10l-4 -20l-5 -16l-4 -16l-6 -15l-7 -16l-5 -12l-10 -16l-6 -10l-4 -9l-5 -10l-6 -14l-4 -11l-6 -16l-7 -9
l-11 -15l-7 -13l-8 -17l-4 -11l-7 -8l-8 -15l-10 -13l-8 -10l-8 -9l-12 -11l-12 -6l-15 -3h-15l-14 1l-13 1l-13 7l-8 8l-9 6l-9 6l-6 3l-15 4l4 20l19 -3z" />
    <glyph glyph-name="z" unicode="z" horiz-adv-x="536" 
d="M83 37l4 -1l20 -1l18 -1h11h14h11l18 2h16l15 1h16l14 1l10 1l19 1h10h14h14h14h11l16 -1h18h16h17l9 2l5 3l2 8l2 8l-1 8l-6 6l-7 5l-8 3l-11 3h-12h-18l-9 -2l-11 -2l-16 -7l-12 -4l-16 -6l-18 -6l-16 -3l-13 -3l-15 -3l-13 -1l-13 -3l-16 -2l-17 -2l-18 -2l-11 -1
l-11 -1h-19h-15h-12zM271 491l-16 3l-17 2l-10 1l-18 1l-10 3h-18h-10h-22h-10h-11l-20 -1l-10 -2l-10 -1l-12 -3l-14 -1l-10 -1h6h24l13 -1l12 -1l9 -1h11h10h10h11h10h10h17h16h13h14h10l18 2h4zM145 469h-7h-10h-11l-11 1l-12 1l-11 1h-24h-12h-9l-14 -2l12 -3l14 -3
l14 -1h14l14 1l14 1l14 2l16 1zM250 469l-17 -4l-19 -3l-11 -4l-11 -2l-12 -2l-24 -4l-18 -2l-16 -1l-14 -2l-14 -1l-16 -1h-14l-16 1l-16 3l-14 3l-11 5l-12 3l-15 15l8 18l14 10l11 4l12 3l13 2l13 2l10 1l12 1l12 3l12 1l10 2l22 1h11h10h22h10h20l12 -3l16 -1l10 -1
l19 -2l20 -4l9 -2l13 -1l14 -4l14 -4l17 -7l4 -3l11 -1l13 -12v-22l-13 -20l-5 -8l-3 -7l-10 -16l-8 -11l-7 -10l-9 -10l-8 -9l-8 -9l-8 -8l-9 -8l-14 -15l-7 -9l-8 -9l-8 -8l-8 -9l-7 -6l-1 -1l-9 -9l-9 -10l-8 -9l-13 -13l-12 -12l-8 -10l-11 -13l-12 -14l-2 -3l-1 -1
l-8 -16l-10 -17l-8 -16l-10 -18l-9 -16l-7 -15l-3 -11l-4 -13l-3 -8h1h8h15h19l9 1l11 1l18 2l17 2l14 2l15 3l13 1l13 3l13 3l14 3l18 6l16 4l10 4l18 7l13 4l11 2h20h14l15 -3l12 -5l11 -9l10 -12l3 -16l-2 -14l-6 -14l-13 -9l-15 -4h-19h-16h-18l-16 1h-11h-14h-14h-14
h-10l-17 -1l-10 -1l-16 -1h-16l-15 -1h-14l-18 -2h-13h-14h-11l-20 1l-22 1l-6 2v-18h-20v23l1 7l-1 1l-3 16v2l-6 4l-7 12l-4 13v13l3 17l8 16l11 17l8 10l10 11l7 9l9 10l10 11l10 10l10 9l10 10l10 8l12 10l13 9l2 2l3 3l10 12l11 11l8 9l11 12l8 9l10 11l6 10l9 12
l10 12l9 12l10 12l10 11l8 8l10 11l7 8l12 11l8 8l8 8l4 3l3 9l1 4l-1 3l-9 6l-10 4h-12h-14h-18h-13h-14h-5zM57 82l4 11l4 11l9 17l6 9l7 11l7 8l8 11l3 4l-5 -5l-7 -9l-10 -13l-8 -8l-9 -15l-8 -12l-1 -13v-7zM23 470l-2 16l-2 -1l-9 -2l-8 -6l3 -1l8 -3z" />
    <glyph glyph-name="braceleft" unicode="{" horiz-adv-x="473" 
d="M130 502l1 12l1 10l2 10v10l3 21l3 19l6 20l8 17l12 18l8 9l8 9l9 8l9 10l9 7l9 9l-6 -3l-7 -5l-12 -8l-11 -6l-8 -5l-9 -10l-6 -7l-10 -13l-5 -10l-6 -10l-3 -16l-2 -10l-2 -10l-2 -14l-1 -14v-13v-15l1 -15zM69 288l-14 -12l-15 -11l-6 -3l7 1l8 6l10 8l8 8zM329 713
l-1 1l-10 10l-11 5l-13 2h-14h-15l-9 -1l-9 -1l-10 -3l-11 -2l-10 -2l-9 -2l-10 -4l-18 -8l-10 -6l-8 -5l-7 -6l-8 -8l-6 -7l-4 -9l-6 -9l-4 -11l-5 -10l-2 -11l-2 -9v-8l3 11l6 14l7 10l10 15l6 9l13 12l10 7l11 6l10 6l9 7l14 6l21 8h17h13l11 -1l13 -2l5 -3h4l14 -1h14h1
zM54 244l-1 4l-3 -2zM116 17l-1 9v15l-1 12l-1 8v-17l1 -18zM312 -185l8 1l7 3l11 7l5 7l-13 -8l-11 -8zM87 212l1 -2l3 -3l8 -16l8 -17l2 -7l6 -16l6 -16l5 -19l3 -17l2 -15l2 -18l1 -11l1 -14v-15l1 -3v10v12v10v10v17l-2 18l-4 18l-4 11l-4 18l-3 9l-5 10l-9 16l-5 10
l-10 17zM194 -128h1l16 -11l10 -5l10 -5l16 -6l14 -7l15 -4l7 -1l8 1l9 1l10 6l12 6l10 5l2 1l4 5l11 13l5 14l20 -4v-17l-7 -9l3 -1l-2 -14l-5 -12l-11 -16l-15 -11l-13 -5l-18 -2l-19 1l-11 1l-19 6l-20 7l-9 7l-9 6l-8 6l-9 8l-5 4l-9 6l-19 14l-9 8l-9 12l-7 8l-7 11
l-7 11l-6 10l-5 11l-4 12l-5 12l-6 22l-4 14l-2 11l-2 11l-2 11l-1 20v17v11v18v10v18v11l-1 10l-1 11l-1 10v1l-7 16l-9 16l-3 8l-4 5l-12 13l-7 6l-10 4l-8 5l-12 4l-9 5h-7l-10 1l-17 1l-16 -2l-1 8h-1l-12 6l-10 7l7 19l12 -1h15l17 1l17 4l16 6l14 9l12 6l11 10l12 10
l9 11l8 8l1 1l5 13l7 15l1 2v2l1 16l2 11l2 19v19v10v10v19v9l-2 14l-2 22v13l-2 14l-1 11v13v12v12v15l2 11l4 13l5 12l4 11l6 11l6 11l8 9l8 8l9 8l10 7l12 6l18 8l12 4l11 4l10 2l11 2l10 3l11 1l11 1h15h16l17 -2l17 -9l12 -12l12 -12l9 -10l-11 -17l-11 3l-13 1h-14
l-16 1h-6h-1l-1 1h-7h-14l-9 -1l-11 -5l-12 -7l-14 -14l-9 -7l-9 -10l-9 -8l-8 -9l-6 -7l-10 -16l-8 -15l-4 -16l-3 -19l-3 -19v-10l-2 -10l-1 -10l-2 -16l-3 -14v-14l-4 -16l-4 -14l-3 -15l-4 -18l-3 -8l-2 -3l-5 -15l-2 -6l-1 -2l-1 -5l-4 -18l-5 -18l-6 -18l-5 -14
l-6 -13l-8 -12l-10 -10l7 -9l14 -15l6 -10l6 -8l12 -19l5 -10l9 -16l5 -12l5 -11l4 -18l4 -11l4 -20l2 -20v-19v-10v-10v-12v-10v-12v-11l1 -11v-10v-15v-13v-9l2 -5l3 -12l7 -12l7 -11l5 -11l6 -9l7 -9v-1z" />
    <glyph glyph-name="bar" unicode="|" horiz-adv-x="231" 
d="M84 50l-2 11l-1 23l-2 23l-2 14l-1 -11v-12v-12v-11v-11l-1 -9zM111 233l-1 -21l1 -4v7v18zM98 343v1l-1 22v17l-1 20v22l-1 22l-1 20l-1 -24v-21v-22v-24v-4l1 -10zM98 124l1 -15l1 4l2 11h-4zM72 704h20v-12v-8h5v-4h5l3 -15v-18l-2 -15l3 -15l4 -20l5 -24l5 -24l4 -26
l3 -25l2 -26l2 -28l1 -29v-28v-28v-23l-1 -25v-23v-24v-25v-24v-31l-4 -26l-3 -21l1 -6l2 -21v-31l2 -26l-1 -17l-16 -10h-3l-1 -8l-1 -20h-20v18l-1 13l-10 3l-19 13l-1 19v11v11v12v12l1 11v15l2 14l2 16l1 15l3 18v19v20v19v18l1 20l1 20l1 20l1 22l1 22l1 21l1 15l-1 20
l-3 20l-2 21l-1 16l-1 18v19v21v15l1 18v15l2 11l2 14l4 10v6v16l-1 15v12v10v12z" />
    <glyph glyph-name="braceright" unicode="}" horiz-adv-x="472" 
d="M138 600l-1 7l-2 8l-2 3l2 -5zM157 402l-3 11l-3 18l-1 16v15v12l-1 13l-2 11l-1 14v15l-1 9v-11v-12v-10v-11v-10v-11v-19v-11l1 -18l4 -14l5 -18l5 -11l2 -5l-5 19v8zM176 432v-15l1 -12l6 -14l7 -15l5 -12l6 -11l10 -12l8 -11l11 -5l-7 9l-7 11l-9 13l-8 17l-7 16
l-6 16l-6 15zM251 290v1h-1zM168 157l-5 -9l-4 -11l-3 -17l-1 -15v-22v-15v-14v-4l2 10l2 11l2 20l3 18v9l1 12l1 10zM196 63l-2 -4l-6 -22l-6 -16l-6 -14l-6 -14l-12 -28l-7 -15l-2 -4l-1 -2l-6 -16l-4 -7l-8 -16l-7 -16l-9 -16l4 3l8 8l10 9l10 10l10 12l10 11l7 12l7 12
l5 12l4 13l3 12l2 11l1 11l1 14v11v15v14zM297 235l-5 5h-1l-13 3l-17 4l-9 -4l-10 -9l-11 -12l5 2l11 2l16 5l11 1l10 2l10 1h3zM-54 658l-20 6l5 13l15 13l16 6l19 6l14 2h9v17h11l13 -2l12 -2l13 -6l11 -5l12 -6l14 -6l15 -8l12 -11l2 -2l15 -8l9 -9l10 -9l8 -9l8 -11
l9 -24l3 -12l1 -13l1 -16l1 -12v-15v-18l-3 -11l-1 -10l-1 -7l6 -15l5 -18l3 -14l5 -12l6 -15l6 -16l7 -16l8 -15l7 -13l7 -9l12 -15l5 -11l8 -14l10 -4l15 -7l11 -5l11 -2l21 -5l11 -2h7l9 7l13 -15l-10 -11l-8 -6v-4h-5l-3 -3l-11 -4l-12 -5h-1v-17l-10 -5l-16 -3l-10 -1
l-10 -2l-9 -1l-16 -5l-9 -2l-16 -6l-8 -4v-2l-5 -13l-3 -14l-1 -2l1 -16v-16v-13l2 -10l2 -15l1 -13l1 -15v-16v-15v-11l-1 -16l-1 -11l-2 -13l-3 -14l-6 -15l-5 -12l-7 -14l-9 -14l-10 -13l-12 -12l-10 -10l-10 -9l-8 -8l-12 -10l-10 -7l-9 -7l-10 -6l-19 -12l-20 -11
l-23 -8l-19 -1h-10h-11l-20 3l-18 9l-18 13l-13 13l12 16l12 -8l10 13l10 -2l13 -4l15 -3h16h9l18 4l8 5l10 5l9 5l10 7l8 8l10 9l9 10l9 13l9 14l8 14l1 2l4 17l3 16l1 13v18l1 15v12v17v14v15v22l1 17l3 21l6 13l8 15l8 9l7 9l10 8l9 15l8 8l5 7l6 12l9 -3l2 2l11 10l10 9
l-4 2l-11 7l-16 15l-8 8l-8 8l-8 9l-13 17l-6 8l-13 19l-5 12l-4 10l-5 11l-7 20l-4 18l-1 20v11v19v11v10v11v10v12v11v11v11l-1 10l-2 9l-4 19l-3 13l-2 10l-8 19l-4 10l-9 12l-5 7l-7 3l-19 7l-14 3l-11 4h-9h-11h-19l-12 -2l-17 -4l-12 -6l-9 -7zM164 372v-1v1z" />
    <glyph glyph-name="asciitilde" unicode="~" 
d="M267 256l15 -8l14 -8l12 -8l14 -8l14 -7l3 -1l-12 8l-10 7l-8 8l-10 4l-14 7l-14 5zM227 255l1 -1l9 -6l8 -6l16 -10l19 -8l4 -1l-12 7l-16 9l-17 10zM374 184l-13 3l-16 6h-1h-2l-13 1l-12 1l-11 2l-12 3l-11 3l4 -2l13 -6l11 -3l13 -4l14 -3l14 -1h15h7zM11 219l2 5v3
l-1 -3l-1 -1v-4zM55 250l-4 -3l-7 -7l-9 -12l-4 -10l-3 -11l-1 -6l2 5l5 11l5 9l11 16zM15 128l-20 -6l-2 11l-5 11l-7 18l-1 21v11v14l7 14l4 6v9l3 14l9 11l17 15l20 13l15 10l22 9l20 5l16 1h19l16 -1l17 -7l15 -9l2 -2l12 -4l7 -1l18 -4l19 -4l21 -5l18 -3l16 -7l14 -7
l12 -6l10 -8l10 -7l12 -8l11 -8l12 -7l9 -4l9 -2h1h1h1h1h2h1h5h3l12 3l13 4l14 8l12 8l12 11l12 10l11 10l9 11l9 12l7 11l1 7l2 10l1 17l-1 3l-6 14l-7 12l15 13l13 -9l5 -16h15l5 -19v-13v-14l-1 -14l-5 -16l-8 -14l-10 -14l-10 -13l-13 -12l-15 -9l-5 -3l-5 -4l-12 -9
l-13 -10l-17 -9l-15 -7l-16 -6h-20h-14h-15h-15l-16 1l-16 3l-15 4l-13 5l-15 6l-14 9l-9 8l-11 9l-10 10l-11 11l-7 8l-2 2l-10 7l-10 5l-10 6l-9 5l-11 5l-10 5l-11 2l-12 1l-11 -1l-9 -3l-9 -4l-13 -8l-9 -12l-7 -9l-6 -9l-9 -14l-5 -9l-5 -9l-6 -18l-4 -12l-9 -16l1 -1
l9 -5l12 -5l13 -8l-5 -19h-19l-19 14l-7 4z" />
    <glyph glyph-name="quoteleft" unicode="&#x2018;" horiz-adv-x="239" 
d="M100 519v-2h1v2l4 -2l2 6v4v1l-7 1v-1l1 -6h-1v-2l1 -1h-1zM115 499l1 -1v1h-1zM96 549h4l7 -1l-2 9h-11zM114 506l2 -1v2zM119 503l-2 -5l7 -1l3 4l-2 10zM125 694l8 -18l-6 -2l9 1l4 -20l-18 -4l-12 -5l-8 -4l-1 -1l-8 -10l-7 -10l-9 -14v-10v-15v-17v-11l2 -10v-2l1 1
h1l2 4h2l5 11l21 1l15 -15v-1l9 -11l2 -14l-1 -12l-1 -15l-8 -15l-13 -8l-14 -1l-14 3l-7 5l-1 1l-3 3l1 1l-12 19l-1 1l1 2l-1 12l-2 -2l-2 -7l-2 4l-3 11l-3 12l-1 12v14v11v10l1 16l6 17l4 13l6 13l8 10l13 10h1l4 5l7 8l13 18zM59 505l-5 -15l19 -13l2 2l-13 14z" />
    <glyph glyph-name="quoteright" unicode="&#x2019;" horiz-adv-x="274" 
d="M147 743l10 -9l3 -26l-1 -7h1l13 -13l2 -20l-2 -19l-10 -16l-14 -3l1 -13l2 -12l2 -16l1 -15l1 -16v-14v-21l-9 -16l-8 -11l-16 -12l-12 -8l-16 -7l-14 -1l-17 7l-11 11l14 14l9 -9l7 -3l7 1l11 5l10 6l14 10l6 7l5 10v17v14l-1 14l-1 15l-2 16l-2 12l-1 14v1h-2h-4h-6
v-1l-2 -1l-11 -26l-23 5l-6 16v5l-5 6l2 11l1 1l-3 2v20l13 14l9 21l18 2l12 -2l2 22l4 13z" />
    <glyph glyph-name="quotedblleft" unicode="&#x201c;" horiz-adv-x="374" 
d="M103 708l18 -36l-21 -9l-18 -18l-18 -23l-10 -16l-6 -28l-3 -25l-1 -19l13 -18l15 -10h1l35 -2l1 -18l-32 -24l-21 8l-27 18l-23 34l-1 33l3 29l10 38l14 22l20 27l26 24zM247 699l28 -30l-17 -15l-21 -12l-19 -22l-11 -14l-5 -15l-2 -17v-21l4 -21l6 -18l19 -9l32 1v-40
l-42 1l-39 21l-14 32l-6 29v27l2 23l9 27l17 20l23 26l23 14z" />
    <glyph glyph-name="quotedblright" unicode="&#x201d;" horiz-adv-x="360" 
d="M89 701l4 -2v-6l5 -1l17 -13v-16l-4 -11v-7v-16v-15l-4 -15l-3 -13l-3 -13l-5 -11l-4 -12l-8 -18l-8 -16l-8 -18l-11 -10l-12 -7l-10 18l10 5l7 6l6 14l8 16l8 18l4 10l3 11l3 11l3 13l4 13v9l-12 -9l-20 -1l-20 -2l-1 9l-3 1l-6 19l1 31l7 15l8 -4v12h11h10h1h1h1v1z
M59 664l-2 -8l-1 -15l1 -6h1l15 -1l8 8l5 8l4 6v3l-2 6v-11l-18 -8l-11 12v6zM234 702l1 -12l2 2l14 -12v2l-12 19zM226 654l-1 -3h2zM196 624l-6 18l1 1l-4 3v8v15l3 15l6 15l7 6l-4 -24l2 -17l2 -1v-2l4 -3l1 1l5 -4l2 3v15l1 6l-3 2l2 8l-1 -1v1l-2 -2l-1 -5v4l2 15
l-8 -6l-3 -15l1 -17l4 -4v-1l4 -4l2 1l3 -3l-1 6l5 6l4 4l-3 3v1l-2 2v1l-3 4v4l2 5l-1 1h-2l1 1l-2 -1l3 14l2 -3l6 5l-5 1l-3 -2l1 4l8 -3l10 8l19 -10v-18l-4 -12v5l-6 -9v-7l-6 -12l7 8l2 -10l3 -16l2 -13l1 -13l2 -12l3 -16l1 -12v-12v-10v-22l-10 -16l-8 -9l-10 -9
l-8 -8l-11 -11l-14 14l11 11l8 8l10 9l6 7l6 10v16v10v12l-1 10l-3 14l-2 14l-1 13l-2 11l-3 15l-5 -6l-15 -9zM213 701l1 4h-10l7 6l6 -8zM237 692v1h1zM246 658l5 7v8l-3 -8l-3 -3v-1z" />
    <glyph glyph-name="uni3000" unicode="&#x3000;" horiz-adv-x="1000" 
 />
  </font>
</defs>
</svg>
