<?xml version="1.0" standalone="no"?>
<!DOCTYPE svg PUBLIC "-//W3C//DTD SVG 1.1//EN" "http://www.w3.org/Graphics/SVG/1.1/DTD/svg11.dtd" >
<svg xmlns="http://www.w3.org/2000/svg" xmlns:xlink="http://www.w3.org/1999/xlink" version="1.1">
<metadata>
Created by FontForge 20161013 at Thu Oct  1 15:59:34 2009
 By ,,,
Copyright (c)2002,2009 by S. John Ross - email sjohn@io.com for licensing info
</metadata>
<defs>
<font id="AppleButter" horiz-adv-x="564" >
  <font-face 
    font-family="Apple Butter"
    font-weight="400"
    font-stretch="normal"
    units-per-em="1000"
    panose-1="2 0 5 3 0 0 0 2 0 3"
    ascent="800"
    descent="-200"
    x-height="490"
    cap-height="728"
    bbox="10 -269 1135 951"
    underline-thickness="20"
    underline-position="-153"
    unicode-range="U+0020-20AC"
  />
<missing-glyph horiz-adv-x="500" 
 />
    <glyph glyph-name=".notdef" horiz-adv-x="500" 
 />
    <glyph glyph-name=".null" horiz-adv-x="0" 
 />
    <glyph glyph-name="nonmarkingreturn" horiz-adv-x="500" 
 />
    <glyph glyph-name="space" unicode=" " horiz-adv-x="294" 
 />
    <glyph glyph-name="space" unicode="&#xa0;" horiz-adv-x="294" 
 />
    <glyph glyph-name="exclam" unicode="!" horiz-adv-x="196" 
d="M139 197q-18 -3 -32 -3q-33 0 -51.5 12.5t-18.5 44.5q0 17 11 52q26 74 33 155.5t7 157.5q-2 4 -13 12t-23 17.5t-22 19.5t-10 19q0 12 11 21.5t26 16t30 9.5t24 3q26 0 45.5 -12.5t19.5 -40.5q0 -8 -2.5 -20t-5.5 -23.5t-5.5 -19.5l-2.5 -8v-7q0 -20 -4.5 -57.5
t-9.5 -78t-9.5 -77t-4.5 -55.5v-19.5t2 -20.5q35 -46 35 -57q0 -37 -30 -41zM134 59q3 -14 3 -24q0 -23 -12.5 -34t-32.5 -11q-18 0 -30 13t-12 34q0 17 16 28.5t33 11.5q26 0 35 -18z" />
    <glyph glyph-name="quotedbl" unicode="&#x22;" horiz-adv-x="220" 
d="M191 703q9 -78 9 -80q0 -12 -2 -24t-6.5 -22t-12 -16.5t-17.5 -6.5q-16 0 -24.5 13.5t-12 30.5t-3.5 32v18q0 27 9.5 51t30.5 24t29 -20zM89 692q1 -5 2.5 -15t3 -21.5t2.5 -23t1 -18.5q0 -20 -6.5 -37t-28.5 -17q-20 0 -29 19t-11 43q-1 17 -1 29t-1 20q-1 10 -1 17
q9 29 38 29q25 0 31 -25z" />
    <glyph glyph-name="numbersign" unicode="#" horiz-adv-x="520" 
d="M498 266q1 -4 1 -12q0 -20 -15.5 -28t-36 -12t-41.5 -8t-31 -16v-64q-2 -23 -11 -38.5t-28 -15.5q-11 0 -26 11t-15 35q0 5 0.5 11.5t1.5 14.5q0 29 -8 52t-31 23q-26 0 -33 -25v-7q0 -12 2 -30t2 -26q0 -21 -9 -35.5t-28 -14.5q-34 0 -38 45v55q-3 19 -15 30.5t-33 11.5
q-9 0 -24 -2.5t-23 -2.5q-24 0 -37 22v6q0 7 0.5 13t7.5 11t23 8.5t47 5.5q21 1 32.5 9t17 21.5t6 32t0.5 40.5q0 28 -7.5 47t-33.5 19q-10 0 -23 -2t-28 -2q-19 0 -31 10.5t-12 28.5q0 35 48 35h7t9 -1h18q47 0 47 41q0 5 -2.5 17.5t-5.5 26.5t-5.5 26.5t-2.5 17.5
q0 29 37 29q2 0 5 -0.5t6 -0.5l18 -22q3 -7 6 -25.5t4 -50.5q1 -47 32 -64h7q33 0 48.5 9t15.5 34q0 5 -1 14t-2 19t-2 19t-1 14q0 53 35 53q15 0 26 -13t11 -52v-32q0 -32 7 -47q3 -4 17.5 -8t30.5 -9t28.5 -12.5t12.5 -17.5q0 -20 -12 -28.5t-27.5 -13t-31.5 -8t-24 -12.5
q1 -3 1 -9q0 -8 -1.5 -19.5l-3 -23t-2.5 -20.5t-1 -11q0 -39 28 -49h30q22 0 41 -4.5t26 -23.5zM303 426q-14 18 -42 18q-15 0 -22.5 -4.5t-11 -12t-3.5 -19v-24.5q0 -9 -0.5 -24t2 -29t10.5 -24t25 -10q20 0 30 15.5t12 44.5v69z" />
    <glyph glyph-name="dollar" unicode="$" horiz-adv-x="458" 
d="M426 535q-9 -22 -26 -22q-8 0 -21.5 3t-21.5 3q-11 0 -17 -7t-8.5 -17.5t-3 -23.5t-0.5 -24q0 -28 29 -40q35 -5 58 -30t23 -62q0 -32 -34 -109q-8 -12 -20 -22.5t-23 -21t-19.5 -22t-8.5 -25.5q0 -9 0.5 -21.5t1.5 -28.5q0 -23 -11.5 -42.5t-32.5 -19.5q-6 0 -13 1.5
t-13 7.5t-10 17.5t-4 30.5q0 3 0.5 6t0.5 6q0 24 -10 34q-19 -5 -20 -33q-2 -20 -7 -30t-11 -15t-13 -5.5t-12 -0.5q-14 0 -24 14.5t-19 56.5q-11 47 -33 47q-8 0 -16.5 -3.5t-19.5 -8.5q-26 2 -36.5 11.5t-10.5 25.5q0 4 3.5 15.5t11 23.5t20 21.5t31.5 11.5q2 0 14 -1
t36 -2q20 21 20 55q0 20 -8 49q-7 10 -66 44q-30 17 -39 41t-9 53q0 75 69 131q14 2 21.5 11t11.5 21.5t6 26.5t5 26t9 20t17 8q9 0 21 -3l15 -19v-10q0 -27 9.5 -43t29.5 -16q18 0 21 19v38q0 20 9.5 26.5t26.5 6.5q24 0 28 -19v-50q2 -19 10.5 -31.5t26.5 -12.5
q8 0 21.5 3.5t18.5 3.5q14 0 18 -9.5t4 -22.5v-9q-2 -10 -3 -19t-3 -18zM257 556q-1 6 -6.5 9t-11.5 3q-10 0 -11 -9q1 -6 1 -11v-10q0 -7 -1 -17t-2.5 -20.5t-2.5 -20t-1 -15.5q0 -25 11 -42h2q12 0 16 17t4 34q0 4 -0.5 7.5t-0.5 8.5q0 25 1 41.5t2 24.5zM360 312
q-6 15 -25 17q-12 -7 -12 -23q3 -29 4 -38t13 -9q9 0 14.5 15t5.5 38zM148 459q-2 10 -3.5 21t-4.5 20t-8.5 15t-14.5 7q-13 -13 -13 -38q0 -24 9.5 -38.5t20.5 -14.5q8 0 11 8t3 20zM238 320q-18 -6 -18 -29q0 -8 3 -25t3 -25q0 -10 -3 -16q10 -9 12 -9h1q3 6 5 14t2 19
q0 3 -0.5 6.5t-0.5 6.5q0 17 1 27.5t2 16.5z" />
    <glyph glyph-name="percent" unicode="%" horiz-adv-x="448" 
d="M412 194q-21 -29 -85 -29q-25 0 -44 11.5t-27 17.5q-9 7 -14.5 16t-9.5 17.5t-7.5 14.5t-9.5 6h-2q-15 -11 -35 -82q-13 -46 -51 -46q-17 0 -25.5 13t-8.5 25q0 10 4 21q17 42 41 103t56 144q0 2 0.5 2.5t0.5 2.5q0 8 -8 19q-3 -1 -14 -5.5t-23.5 -9t-25 -8.5t-18.5 -4
q-5 0 -9 1t-9 2q-14 7 -26.5 14t-21.5 16t-14.5 22.5t-5.5 33.5q0 22 10 40t25 31t31.5 19.5t29.5 6.5q12 0 27 -5q26 -11 37.5 -17t16.5 -13.5t7.5 -18t10.5 -29.5q11 1 18 11.5t12.5 25t10 31t11 30.5t15.5 23.5t24 9.5q20 0 32 -23q-2 -20 -11.5 -50.5t-20.5 -60.5
t-20.5 -54t-11.5 -31q-10 -22 -18 -43q-7 -18 -12.5 -37t-5.5 -32q8 0 21.5 4.5t28.5 10.5t28.5 10.5t21.5 4.5h3q38 0 62.5 -26.5t24.5 -69.5q0 -36 -16 -66zM122 517q-2 9 -14 9q-11 -9 -11 -17v-2q3 -6 19 -6q6 6 6 16zM338 263q0 9 -14 9q-10 -10 -10 -15q0 -9 20 -9
q5 3 5 10q0 3 -1 5z" />
    <glyph glyph-name="ampersand" unicode="&#x26;" horiz-adv-x="673" 
d="M650 390q2 -10 2 -14q0 -17 -21 -29q-1 0 -10 -1t-20.5 -3.5t-22.5 -7.5t-15 -15q-9 -87 -78 -183q-4 -7 -4 -16q0 -24 22 -33q6 1 18.5 10t25.5 19t24.5 18t16.5 8q15 0 27 -18q-5 -20 -13 -43.5t-19.5 -43.5t-25 -34t-29.5 -14q-11 0 -25 10t-29 22.5t-29.5 22.5
t-26.5 10q-7 0 -11 -1q-39 -28 -68 -45.5t-52.5 -27.5t-45 -14t-45.5 -5q-18 -8 -31 -8q-12 0 -36 9.5t-48 27t-42.5 42.5t-18.5 55q0 151 148 284q1 5 1 9.5v9.5q0 9 -4 26.5t-8.5 38t-8.5 40t-4 32.5v7q10 56 24.5 94t35.5 60.5t48.5 32t63.5 9.5q44 0 100 -24l27 -28
q28 -46 28 -98q0 -38 -18 -72t-60 -69t-67 -58t-33 -35q6 -38 47 -79q7 -7 18 -19t22 -23t21.5 -19.5t16.5 -8.5q17 0 35 25t18 72v11.5t-2 15.5v26q0 78 67 78h7q15 -1 32 -1t33 -3t27.5 -10t14.5 -22zM374 607q-14 30 -55 30q-38 0 -62 -22.5t-24 -78.5q0 -63 20 -83
q13 1 34.5 10t41.5 24.5t35 38t15 50.5q0 18 -5 31zM359 134q-9 16 -24.5 34t-34.5 36.5t-40 37t-41 36.5l-20 3q-97 -94 -97 -179q0 -45 31 -52h132q16 8 32.5 15.5t30 16.5t22.5 20.5t9 28.5v3z" />
    <glyph glyph-name="quotesingle" unicode="'" horiz-adv-x="120" 
d="M91 703q9 -78 9 -80q0 -12 -2 -24t-6.5 -22t-12 -16.5t-17.5 -6.5q-17 0 -25.5 13.5t-12 30.5t-4 32t-0.5 18q0 27 10.5 51t31.5 24t29 -20z" />
    <glyph glyph-name="parenleft" unicode="(" horiz-adv-x="331" 
d="M306 13q-21 -30 -79 -30q-25 0 -44 8t-24 22q1 4 1 8v7q0 26 -31 50q-57 43 -83 101t-26 136q0 48 7 86t23 76t42.5 80.5t66.5 98.5q0 5 -5.5 16.5t-5.5 16.5q0 4 1 6.5t2 4.5q40 12 62 18.5t28 6.5q33 0 48 -27v-7q0 -45 -48 -72q-65 -38 -77 -66q-23 -54 -36 -84.5
t-15 -36.5q-28 -71 -28 -129q0 -114 113 -181q16 -9 36 -17.5t36.5 -19t28 -22.5t11.5 -28q0 -11 -4 -22z" />
    <glyph glyph-name="parenright" unicode=")" horiz-adv-x="330" 
d="M25 698q20 29 78 29q27 0 45.5 -8.5t23.5 -20.5q-1 -5 -1 -9v-7q0 -24 31 -48q56 -47 82 -103.5t26 -135.5q0 -47 -7 -85.5t-23 -77t-42.5 -81t-65.5 -95.5q0 -8 5.5 -19t5.5 -16q0 -2 -1 -4.5t-2 -6.5q-40 -12 -62.5 -18.5t-27.5 -6.5q-33 0 -49 28v7q0 42 49 73
q66 38 76 66q23 54 36.5 84.5t15.5 35.5q28 72 28 130q0 57 -29 102.5t-84 77.5q-16 8 -35.5 17t-36.5 19t-28.5 22t-11.5 27q0 12 4 24z" />
    <glyph glyph-name="asterisk" unicode="*" horiz-adv-x="334" 
d="M310 476q-10 -10 -25 -10q-5 0 -16 6t-23 13t-22.5 13t-14.5 6q-11 0 -23 -12q0 -4 1 -12t1.5 -17.5t1.5 -18.5t1 -15q0 -40 -24 -57h-5q-16 0 -26 11.5t-10 39.5v15q0 3 0.5 5.5t0.5 4.5q0 18 -10 28h-3q-6 0 -15.5 -5.5t-20 -12t-20 -12t-13.5 -5.5q-13 0 -25 18
q1 10 13 26t26.5 33.5t26 33.5t12.5 27q0 2 -8.5 9.5t-18.5 17.5t-18 20.5t-8 18.5q0 14 10 20t20 6q12 0 23.5 -8.5t21.5 -8.5t14 10t7.5 22t9 22t17.5 10q8 0 12.5 -7.5t9 -17.5t9.5 -19t14 -13q5 0 12.5 2.5t15.5 5t15 5t11 2.5q14 0 21 -8.5t7 -16.5q0 -10 -7 -19.5
t-15.5 -19t-15.5 -20t-7 -22.5v-3q23 -17 43.5 -35.5t20.5 -36.5q0 -8 -4 -19z" />
    <glyph glyph-name="plus" unicode="+" horiz-adv-x="355" 
d="M333 245q2 -8 2 -12q0 -8 -2 -14.5t-9 -11t-20.5 -7t-36.5 -3.5q-12 -1 -20 -2.5t-13 -9t-8 -23t-6 -43.5q-2 -34 -29 -43q-36 0 -49 28l-0.5 13.5t-3.5 30t-9.5 32t-18.5 20.5q-2 2 -16 4t-30.5 6.5t-29.5 12.5t-13 21q0 17 12.5 27.5t30.5 10.5q6 0 19 -1.5t18 -1.5
q46 0 46 41v15q-2 6 -2 9.5v5.5q0 15 8.5 25t22.5 10q22 0 30 -19l8 -48q4 -29 25 -40q23 -1 42 -5q17 -3 32 -10t20 -18z" />
    <glyph glyph-name="comma" unicode="," horiz-adv-x="158" 
d="M138 77q0 -31 -13 -74q-13 -36 -19.5 -54.5t-11 -26t-9 -8t-13.5 -0.5q-14 0 -24 8.5t-10 24.5q0 10 6 18t6 16q0 7 -4.5 16t-10.5 18t-10.5 17.5t-4.5 14.5q0 9 6.5 18.5t17 17t23.5 12.5t27 5q31 0 44 -23z" />
    <glyph glyph-name="hyphen" unicode="-" horiz-adv-x="409" 
d="M386 245q3 -6 3 -16q0 -20 -15 -30.5t-34 -10.5q-1 0 -7 1t-14 2.5t-17 2.5t-16 1q-9 0 -13 -1q-1 0 -56 3.5t-166 11.5q-31 25 -31 42q0 12 11 23t31 11q6 0 13 -1t15 -3q8 0 16 0.5t17 0.5q40 0 77 -2t64.5 -4.5t43 -4.5t12.5 -2q3 -1 11.5 -2.5t19 -4.5t20.5 -7
t15 -10z" />
    <glyph glyph-name="period" unicode="." horiz-adv-x="123" 
d="M103 43q0 -32 -9.5 -44t-26.5 -12q-6 0 -14 3t-15.5 8.5t-12.5 13t-5 16.5q0 17 12.5 28.5t34.5 11.5q29 0 36 -25z" />
    <glyph glyph-name="slash" unicode="/" horiz-adv-x="346" 
d="M326 709q-3 -19 -7 -36.5t-10 -37t-15 -43t-22 -53.5q-20 -47 -29.5 -79.5t-17.5 -63.5t-17.5 -65.5t-28.5 -83.5q-27 -71 -42.5 -118t-26 -75t-20.5 -39.5t-27 -11.5q-14 0 -28.5 10t-14.5 25q0 2 2.5 10t8.5 25q9 18 23.5 56.5t30.5 81t31.5 81t24.5 55.5q19 61 47 152
t65 214q6 25 35 25q32 0 38 -29z" />
    <glyph glyph-name="zero" unicode="0" horiz-adv-x="534" 
d="M494 453q20 -66 20 -131t-19.5 -123t-55 -102.5t-84.5 -70.5t-108 -26q-54 0 -95.5 23.5t-69.5 59t-43 76.5t-16 76q-1 25 -2 45.5t-1 37.5q0 260 152 358q38 24 68.5 36.5t59.5 12.5q31 0 55.5 -12t41.5 -34q6 -8 15.5 -28.5t20 -43.5t20 -43.5t16.5 -28.5zM405 203
q36 60 36 123q0 78 -49 169q-8 14 -30 52t-61 101l-18 8q-44 -18 -81.5 -43t-60.5 -60q-29 -47 -42.5 -103t-13.5 -113q0 -49 12 -94.5t35.5 -81t56.5 -56.5t75 -21q27 0 51 9t43.5 24.5t31.5 37.5t15 48zM253 243q-13 2 -28 35q0 6 1 33.5t4.5 58.5t10.5 55.5t20 24.5
q25 0 33 -18q19 -88 19 -116q0 -30 -9 -53.5t-32 -23.5q-10 0 -19 4z" />
    <glyph glyph-name="one" unicode="1" horiz-adv-x="349" 
d="M308 -18q-44 -6 -93 -6q-78 0 -171 15q-24 19 -24 34q0 29 62 34q25 1 38 12t18 27.5t5.5 37t0.5 40.5q0 14 -2 41.5t-4 57.5t-4 57t-2 40q0 45 6 78q-2 8 -2 15.5v16.5q0 7 1 20t1.5 26.5t1.5 26.5t1 20q0 67 -32 95q-15 4 -30.5 6.5t-24.5 15.5q0 12 3.5 17t10.5 7.5
t17.5 3t25.5 2.5q30 6 43 6q20 0 39.5 -10.5t19.5 -32.5q0 -12 -6.5 -31.5t-6.5 -28.5q9 -71 9 -177v-63q-2 -21 -2 -37v-26q0 -152 22 -243q11 -13 59 -25q41 -7 41 -35q0 -9 -3 -19z" />
    <glyph glyph-name="two" unicode="2" horiz-adv-x="575" 
d="M529 -9h1q0 2 -197 2q-58 0 -106.5 -2.5t-87.5 -8.5q-25 2 -44 18.5t-19 39.5q0 5 15 56q30 94 115.5 193t231.5 206q38 38 38 81q0 22 -9 38.5t-31 29.5q1 -1 -8 3.5t-24 10t-34 10.5t-39 5q-48 0 -87.5 -17.5t-68.5 -54.5q-13 -13 -19 -73q-4 -49 -36 -49q-8 0 -23 4.5
t-30 12.5t-28.5 18t-18.5 21q0 30 34 35h3q24 0 41 25l27 44q90 105 214 105q13 0 25.5 -1.5t26.5 -3.5q80 -26 120 -66.5t40 -103.5q0 -51 -29 -85l-212 -168q-116 -107 -122 -228q11 -31 54 -31q6 0 24 2t35 2q9 0 13 -1q9 4 25.5 5t40.5 1q29 2 48.5 5.5t31.5 10t17 18
t6 29.5q14 14 30 14q12 0 20.5 -10t13 -24.5t6.5 -31t2 -30.5q0 -19 -3 -38z" />
    <glyph glyph-name="three" unicode="3" horiz-adv-x="520" 
d="M498 156q2 -6 2 -12v-12q0 -67 -53 -107.5t-159 -40.5q-17 0 -47 2t-61 4.5t-56.5 5t-32.5 3.5q-18 13 -24.5 39.5t-12.5 52.5q6 21 15 30t23 9q12 0 22.5 -9.5t20.5 -21t19.5 -21t18.5 -10.5q111 -12 121 -12q81 0 120 44q2 11 3 19t1 15q0 23 -18.5 38t-45 25
t-56.5 16.5t-53 11.5q-44 -6 -68 -6q-11 0 -19 4.5t-13 11t-7 13.5t-2 12q0 17 21 32.5t48.5 29.5t53.5 28t36 28q30 28 60.5 73t61.5 111v11q0 26 -13 43t-33 27t-44.5 14t-48.5 4q-17 0 -35.5 -1.5t-39.5 -6.5q-8 -1 -24 -11.5t-34 -22.5t-34 -22t-25 -10q-8 0 -19.5 9
t-22 23.5t-17.5 31.5t-7 33t10 22.5t21 6.5q9 0 17 -3.5t16 -7.5t17 -7.5t18 -3.5q24 0 69 19q26 11 44 15.5t31 6t23 1t21 -0.5q37 0 71.5 -8t60 -24t41 -40t15.5 -56q0 -30 -22 -75q-17 -39 -27 -59t-17.5 -32.5t-15 -23t-19.5 -29.5q-11 -13 -24 -24.5t-25 -22t-20 -19
t-8 -15.5q0 -4 5 -9l101 -52q61 -38 75 -87z" />
    <glyph glyph-name="four" unicode="4" horiz-adv-x="590" 
d="M554 -10q-37 -5 -73.5 -8t-72.5 -3h-16q-28 12 -31 30v2q0 9 8 20.5t18 22.5t19 21t10 16v5q0 6 1 15t2.5 18t2.5 16.5t1 11.5q0 27 -22 37h-20q-19 0 -48.5 2t-60 4t-56.5 4t-37 2q-36 0 -66 -5.5t-56 -15.5q-24 3 -37 33q0 13 10 37.5t22 51.5t22.5 51.5t11.5 38.5
q6 25 11 52.5t9 54t6.5 51t2.5 44.5q0 5 -0.5 10t-0.5 10q-3 6 -12.5 14t-20.5 17t-19.5 17.5t-8.5 16.5q0 20 19 28t50 8q30 0 45 -6t21 -16t6.5 -22.5t0.5 -25.5q0 -19 -4 -48.5t-9.5 -63.5t-12.5 -70.5t-13 -69.5t-10.5 -60.5t-4.5 -42.5q14 -11 34 -11q4 0 14.5 1.5
t22.5 3.5t23.5 3.5t19.5 1.5h3q0 -2 23 1.5t68 3.5q26 0 46 -5q38 2 38 23v3q1 17 1.5 37.5t0.5 45.5t-0.5 53.5t-1.5 60.5q7 19 21.5 23.5t34.5 4.5q33 0 47.5 -7.5t14.5 -20.5q0 -9 -6 -19q1 1 -7 -4.5t-17.5 -14.5t-18 -20t-8.5 -21q1 -11 2 -36t1.5 -58t1.5 -70.5
t2.5 -73t4.5 -66t7 -49.5q0 -1 9 -8t19.5 -17.5t19.5 -21.5t9 -20t-3 -18z" />
    <glyph glyph-name="five" unicode="5" horiz-adv-x="549" 
d="M511 713q14 -19 14 -43q0 -10 -2 -22.5t-7 -24t-14 -19t-23 -7.5q3 0 -12 4t-41 10t-59 14t-64.5 16t-57.5 15t-38 11q-3 -1 -7 -1h-9q-8 0 -24 2t-22 2q-23 0 -32 -22v-195q6 -31 22 -37q63 22 121 22q17 0 31.5 -1t28.5 -5h5q57 0 106.5 -29t75.5 -80q26 -69 26 -132
q0 -86 -45 -132t-130 -46q-19 0 -51 4t-64 9t-56.5 9t-28.5 5q-18 9 -30 9q-8 0 -14 -3q-32 -34 -51 -34q-17 0 -26.5 12t-9.5 29q0 7 3 19l6 24t6 22.5t3 15.5q15 25 46 25q10 0 22 -3q81 -72 230 -72q19 0 39 1t41 3q23 14 34 40.5t11 62.5q-1 56 -17.5 95.5t-51.5 54.5
q-41 17 -81.5 22.5t-69.5 5.5q-88 0 -134 -49q-14 -27 -46 -27q-8 0 -17 4t-27 21q2 48 8 120t16 169q0 4 0.5 8.5t0.5 9.5q0 10 -1 21t-2 20.5t-2 16.5t-1 9q0 56 68 56q12 0 36.5 -2.5t51.5 -6t51.5 -6t36.5 -2.5q23 -7 58 -20.5t81 -34.5h2q9 0 18.5 7t19 15t17.5 15
t13 7q7 0 19 -7z" />
    <glyph glyph-name="six" unicode="6" horiz-adv-x="499" 
d="M455 60q-16 -17 -32.5 -28.5t-40.5 -19.5t-59.5 -13t-90.5 -9q-26 3 -53 7t-53 7q-43 12 -64 36.5t-29.5 57.5t-9 72.5t-3.5 80.5q26 239 114 372v2q0 10 -8.5 18.5t-19 16.5t-19 16.5t-8.5 17.5q0 19 17 28.5t40 9.5q55 0 83.5 -8t34.5 -30l-4 -27
q-72 -76 -110.5 -177.5t-45.5 -229.5q7 -10 19 -10q9 0 40.5 18t84.5 45q22 12 41.5 24.5t36 23t30.5 17t26 6.5q27 0 72 -33q35 -68 35 -154q0 -35 -5.5 -68.5t-18.5 -68.5zM392 104q13 36 13 83q0 17 -1.5 36t-7 35t-15.5 26.5t-28 10.5q-44 -22 -86.5 -46t-85.5 -52
q2 1 -9 -5.5t-25.5 -17.5t-27.5 -25t-16 -28q3 -19 19 -31t37 -19.5t43.5 -10.5t38.5 -3q96 0 151 47z" />
    <glyph glyph-name="seven" unicode="7" horiz-adv-x="602" 
d="M582 673q-5 -31 -32 -64q-90 -125 -131.5 -250.5t-43.5 -258.5q1 -9 12 -19t24 -19.5t23 -19t10 -18.5q0 -12 -6.5 -20.5t-16 -14t-21.5 -8t-23 -2.5q-8 0 -20.5 1.5t-26 3t-26.5 3t-22 1.5q-17 0 -27 -3q-8 5 -20.5 15t-12.5 25q0 9 10.5 20t23.5 23t24 23.5t13 20.5
q17 65 30.5 129.5t29.5 128.5q19 74 48 133.5t64 103.5v1q0 13 -14 20t-53 7q-15 0 -34.5 -0.5t-42.5 -0.5h-15q-65 0 -103 13q-1 -1 -13.5 -1t-28 -2t-31 -6.5t-22.5 -14.5q0 -50 -17 -59h-6q-34 0 -44 36q-15 57 -20 64v5q0 34 34 47q-4 0 21.5 0t79.5 -2q55 0 99 14
q9 -3 27.5 -5t37.5 -3t35.5 -1.5t21.5 -1.5l174 -1q25 -13 31 -43z" />
    <glyph glyph-name="eight" unicode="8" horiz-adv-x="584" 
d="M536 35q-29 -23 -74.5 -36t-105.5 -17q-12 5 -28.5 7.5t-38.5 2.5q-5 0 -11 -0.5t-12 -0.5h-15q-46 0 -73 8q-158 45 -158 149q0 21 14.5 57t43.5 86q3 6 14.5 14t24.5 16.5t23.5 17t10.5 17.5q0 7 -4 16q-61 58 -61 154q0 32 6.5 64t21.5 58.5t41 45.5t65 26q8 2 46 2.5
t106 2.5l39 -27q30 -21 45.5 -54.5t15.5 -71.5q0 -74 -53 -166v-5q0 -24 26 -41q34 -20 57 -48.5t36.5 -59.5t19.5 -62.5t6 -57.5q0 -56 -28 -97zM372 604q-7 14 -14.5 22.5t-20.5 13t-33 6t-51 1.5q-36 0 -54 -17t-25.5 -38.5t-7.5 -41.5v-27q0 -37 17.5 -61t39 -38.5
t40.5 -20t22 -5.5q17 0 28 9q69 89 69 147q0 12 -2.5 25t-7.5 25zM470 112q3 11 5 21t2 21q0 50 -22 77.5t-56 41t-75.5 18t-79.5 9.5q-49 -12 -76 -25.5t-40 -29.5t-16 -34t-3 -40q0 -30 11.5 -49t30.5 -30.5t44.5 -16t52.5 -4.5q26 0 59 0.5t65 4t58.5 12t39.5 24.5z" />
    <glyph glyph-name="nine" unicode="9" horiz-adv-x="545" 
d="M523 709q2 -4 2 -9q0 -12 -11 -33q-31 -11 -42 -51l-14 -66q-14 -69 -29 -177t-26 -261q-2 -6 -2 -10q0 -9 6 -21.5t13 -25.5t13 -23t6 -14q0 -17 -17 -26t-46 -9h-9t-9 1q-34 3 -53.5 6t-30 7t-13.5 10.5t-3 17.5q0 7 6.5 14.5t15 14t16.5 12.5t10 10q8 13 14 30t9 40
q5 35 8.5 53.5t4.5 20.5q-1 11 -7 20t-16 14q-69 10 -124 29t-93.5 47t-59.5 64t-21 80q0 114 80 174q104 80 199 80q50 0 94 -25q21 8 45 18.5t41 10.5q26 0 43 -23zM351 639q-23 24 -60 24q-21 0 -124 -38q-64 -46 -64 -144v-9q6 -53 73 -97q73 -22 110 -22q26 0 44 9.5
t24 21.5q1 7 7 33l13.5 58.5t13.5 65.5t6 54v6z" />
    <glyph glyph-name="colon" unicode=":" horiz-adv-x="127" 
d="M103 338q3 -11 3 -20q0 -12 -8.5 -28t-25.5 -16q-13 0 -25 6t-27 32q2 29 16 39t32 10q23 0 35 -23zM106 43q0 -32 -9.5 -44t-26.5 -12q-6 0 -14 3t-15.5 8.5t-12.5 13t-5 16.5q0 17 12 28.5t35 11.5q29 0 36 -25z" />
    <glyph glyph-name="semicolon" unicode=";" horiz-adv-x="131" 
d="M100 287q-9 -15 -26 -15q-23 0 -37 13t-14 30t14 29t34 12q13 0 22.5 -9t9.5 -29q0 -13 -3 -31zM109 54q1 -5 1.5 -10t0.5 -10q0 -6 -3.5 -20.5t-11 -29.5t-18.5 -26.5t-26 -11.5q-20 0 -21 19q0 2 0.5 5t0.5 6q0 7 -2 18.5t-4 22.5t-4 19.5t-2 10.5q0 16 10.5 28
t31.5 12q26 0 47 -33z" />
    <glyph glyph-name="less" unicode="&#x3c;" horiz-adv-x="416" 
d="M392 65q3 -15 3 -27q0 -22 -9.5 -33t-23 -15.5t-27.5 -4.5h-22q-49 0 -68 28q0 6 3 15.5t6 20t6 20.5t3 16q0 19 -18 36q-3 2 -26 28.5t-55 60.5t-67.5 67t-62.5 49q-13 16 -13 33q0 11 4 22q64 74 116.5 130t94.5 96q12 24 12 35q0 4 -1 6q-11 12 -22 23t-11 21
q0 17 20 26.5t42 9.5q35 0 61.5 -12.5t26.5 -37.5q0 -17 -15 -38t-45 -54.5t-74.5 -83.5t-103.5 -124v-31l138 -138q39 -40 70.5 -76t57.5 -68z" />
    <glyph glyph-name="equal" unicode="=" horiz-adv-x="390" 
d="M320 254q-42 2 -104 5t-146 10q-32 15 -32 34q0 20 25 29q45 -1 109.5 -3.5t149.5 -8.5l9 -5q13 -10 13 -24q0 -6 -3 -15zM361 148q-9 -10 -44 -10q-42 0 -110.5 3t-167.5 7q-19 4 -19 42q9 12 29.5 19t42 10t39 4t19.5 2q29 0 80 -6.5t123 -18.5q17 -14 17 -28
q0 -12 -9 -24z" />
    <glyph glyph-name="greater" unicode="&#x3e;" horiz-adv-x="415" 
d="M23 648q-3 15 -3 27q0 22 9.5 33t23 15.5t27.5 4.5h23q48 0 67 -28q0 -6 -2.5 -16t-6 -20.5t-6 -20t-2.5 -15.5q0 -19 17 -36q2 -1 13 -14t28.5 -32.5t39.5 -43t45 -45.5t45 -41t41 -29q13 -18 13 -34q0 -5 -1 -10.5t-3 -10.5q-64 -74 -117 -130t-95 -96q-11 -22 -11 -35
q0 -6 5 -12.5t11.5 -12.5t11.5 -12t5 -13q0 -17 -20 -26.5t-42 -9.5q-16 0 -31.5 3t-28 9t-20.5 15.5t-8 22.5q0 25 28 53q18 19 37.5 40.5t44 50t56 66.5t72.5 90v31l-138 138q-39 39 -70.5 76t-57.5 68z" />
    <glyph glyph-name="question" unicode="?" horiz-adv-x="540" 
d="M423 369q-30 -23 -49 -42t-29 -33q0 -6 4.5 -18.5t9.5 -26t9.5 -25t4.5 -17.5q0 -11 -7.5 -19t-19 -13t-24 -7.5t-22.5 -2.5q-19 0 -30.5 7.5t-17.5 19.5t-8 27t-2 31q0 65 40 113q29 20 57.5 40t51.5 41t37 44.5t14 52.5q0 21 -7 44t-23.5 42t-43 31t-65.5 12
q-72 0 -136 -69q-11 -25 -11 -56q0 -47 23 -92v-4q0 -22 -28 -37q-22 3 -45 8t-42 12.5t-31.5 18t-12.5 24.5q0 15 8.5 20.5t19 8t20.5 5.5t13 13q-1 8 -1 15v15q0 48 17 82t47 55.5t71 31.5t89 10q53 0 93.5 -15t67.5 -42.5t41 -65t14 -82.5q0 -24 -5 -43t-16.5 -37
t-30 -36.5t-45.5 -40.5zM339 65q4 -8 4 -18q0 -14 -10.5 -30t-29.5 -16q-42 0 -47 45q5 45 47 45q28 0 36 -26z" />
    <glyph glyph-name="at" unicode="@" horiz-adv-x="631" 
d="M608 25q-11 -20 -31 -20q-10 0 -18 4.5t-16.5 10t-17 10t-18.5 4.5q-6 0 -23.5 -7t-38.5 -16t-42 -16t-35 -7q-5 0 -15 2q-30 -9 -61 -9q-44 1 -91.5 18.5t-88 54t-66.5 93t-26 135.5q0 46 8.5 94t25.5 100q5 9 15.5 26.5t22.5 37t22 37.5l15 27q128 131 239 131
q34 0 74.5 -25.5t76 -70.5t59.5 -107t24 -135q0 -41 -8 -77.5t-24 -63.5t-40 -42.5t-57 -15.5q-20 0 -38 8.5t-40 8.5q-8 0 -23.5 -3t-33.5 -6t-34.5 -6t-24.5 -3q-35 0 -62 21q-8 3 -21 12t-25.5 22.5t-21.5 31t-9 37.5q0 78 45 124t125 46q58 0 93 -32q9 -11 18.5 -35
t19.5 -50t21 -49.5t23 -33.5q18 3 34.5 28t16.5 68q0 134 -119 241q-43 17 -86 17q-49 0 -81 -22q-150 -111 -161 -360v-10q0 -37 13 -74.5t38.5 -67.5t62 -49t83.5 -19q91 0 168 69q23 35 51 35q7 0 8 1.5t5.5 -1.5t17 -14t41.5 -36q34 -27 34 -54q0 -9 -3 -18zM339 416
q-11 20 -34 20q-17 0 -34.5 -8.5t-31.5 -23t-23 -32t-9 -35.5q0 -29 23.5 -45.5t50.5 -16.5q32 0 48 26t16 59q0 9 -1 23t-5 33z" />
    <glyph glyph-name="A" unicode="A" 
d="M539 69q5 -7 5 -15q0 -25 -28 -36t-66 -11q-26 0 -40.5 14t-14.5 41q0 8 1.5 21t3 26.5t3 26.5t1.5 21q0 16 -1.5 27t-9.5 18.5t-26 12.5t-51 10q-6 -1 -13 -1.5t-16 -0.5t-20 0.5t-23 1.5t-23.5 1.5t-19.5 0.5h-14.5t-11.5 -1l-19 -20l-2 -155q-14 -34 -37 -42
q-29 -2 -42 -2t-11 0q-33 3 -44 24q0 13 8 20t17.5 14t18.5 18t12 33q7 61 9 63q37 368 259 506q7 1 21 7.5t29 14t28.5 13.5t19.5 6q19 0 34 -19v-19q0 -33 -1 -84.5l-2 -103t-2 -94t-1 -58.5q0 -137 15 -236q4 -5 12 -10t16.5 -10t15.5 -11t10 -12zM410 619q-6 16 -23 16
q-7 0 -11 -1q-156 -105 -198 -305q2 -12 17 -17.5t34.5 -7.5t39 -1.5t30.5 0.5q54 0 87 6l12 9q1 17 2.5 44.5t2.5 58.5t2.5 63t2 60t1 48t1.5 27z" />
    <glyph glyph-name="B" unicode="B" horiz-adv-x="516" 
d="M352 -9l-28 -2t-28 -1q-10 0 -34 2t-53.5 4.5t-60 4.5t-53.5 2q-9 0 -17 -0.5t-15 -0.5q-14 6 -22.5 10t-13 7.5t-6 7.5t-1.5 11q0 6 4 13t8.5 13.5t8.5 12.5t5 10q9 87 9 199q0 14 -0.5 42t-1.5 62.5t-2 72.5t-2 73.5t-1.5 65.5t-0.5 48q0 3 -4 8.5t-8.5 12.5t-8.5 13.5
t-4 11.5q0 10 12.5 17.5t30.5 12t39 6.5t39 2q8 0 26 -0.5t38.5 -1.5t39 -1.5t27.5 -0.5h2q38 0 92 -58q17 -34 24.5 -77t7.5 -96q0 -21 -3.5 -68t-11.5 -120l3 -24q19 -24 38 -48.5t34.5 -48.5t25.5 -47t10 -45q0 -16 -4.5 -32t-14 -29.5t-23.5 -22.5t-32 -12zM334 453
q-3 44 -6.5 86t-17.5 71q-11 18 -30 27t-42.5 12.5t-49.5 3.5h-50q-23 -17 -23 -58q0 -6 1 -16t2 -20.5t2 -20.5t1 -16q-2 -14 -3 -31t-1 -38q0 -29 1.5 -64t5.5 -77q16 -30 59 -30q27 0 48 3t37 12t26.5 25t17.5 43zM410 121q-26 35 -42 55t-27.5 29.5t-22 12t-25.5 2.5h-6
q-20 -11 -63 -11h-23q-50 0 -71 -19q-4 -14 -5 -27.5t-1 -24.5q0 -29 11 -44.5t28.5 -23t40 -9t46.5 -1.5q18 0 45.5 1.5t53 6.5t44 15t18.5 27q0 7 -1 11z" />
    <glyph glyph-name="C" unicode="C" horiz-adv-x="568" 
d="M544 85q4 -11 4 -23q0 -21 -19 -31q-15 6 -32 6q-36 0 -83 -30q-17 -3 -35 -5t-35 -2h-5q-78 0 -137.5 35t-100 88.5t-61 118t-20.5 123.5q0 40 9 82q22 56 52 106t66.5 87.5t78.5 59.5t90 22q73 0 141 -34h2q11 0 29 8t26 8q12 0 21 -12q-3 -17 -5.5 -36t-8 -35
t-14.5 -26.5t-24 -10.5q-12 0 -25.5 11.5t-27 25t-27.5 25t-26 11.5h-4q-18 3 -35 3q-48 -2 -95.5 -23.5t-83.5 -72.5q-38 -53 -55.5 -111t-17.5 -110q0 -72 33 -127q29 -42 47.5 -66t32.5 -38t26.5 -21t30.5 -15q5 0 20 -2t32 -5t32 -5t20 -2q24 0 37 11.5t22 26.5t17.5 29
t23.5 19h3q31 0 81 -63z" />
    <glyph glyph-name="D" unicode="D" horiz-adv-x="570" 
d="M539 312q11 -23 11 -53q-3 -22 -16 -63.5t-48 -95.5q-34 -51 -93.5 -76t-137.5 -25h-22q-22 -14 -57 -14q-6 0 -17.5 1t-23.5 2t-23.5 2t-17.5 1h-12t-10 -1q-17 1 -28 29v2q0 7 4.5 14.5t9.5 15t10 14t5 11.5q2 27 3 62.5t1 81.5v61.5t-1 68.5v76q0 62 1 111t4 86
q-2 9 -11.5 16.5t-20.5 15t-20 15t-9 16.5q0 10 9 17t22 11.5t28 6.5t27 2q-2 0 30 -4t95 -12q42 -20 67.5 -34t41.5 -26.5t24 -26t14 -32.5q14 -17 31 -43t34.5 -55.5t34 -60t29.5 -55.5t21.5 -42t10.5 -20zM466 235q-2 36 -42.5 115.5t-109.5 211.5q-9 16 -19 27.5
t-26.5 20t-42.5 16t-65 16.5q-11 0 -20 -23v-241l9 -33v-269l17 -17q13 -3 28 -3q10 0 29.5 2.5t41 6t41 6t29.5 2.5q24 10 47.5 28t41.5 40t29.5 46.5t11.5 47.5z" />
    <glyph glyph-name="E" unicode="E" horiz-adv-x="591" 
d="M571 631q0 -20 -9.5 -33.5t-26.5 -13.5q-11 0 -18.5 6.5t-13.5 15.5t-12.5 18.5t-16.5 14.5q-47 9 -129.5 16.5t-203.5 14.5q-16 -11 -20 -23q6 -60 6 -152v-92q1 -32 2 -58.5t2 -49.5q20 -11 53.5 -16t68.5 -7h10q17 0 38.5 2t29.5 2q20 0 37 -9.5t17 -29.5
q0 -11 -15 -25.5t-42 -14.5q-9 0 -27.5 3.5t-28.5 3.5h-9t-7 -1h-6q-8 0 -19.5 1t-22.5 2.5t-20.5 2.5t-13.5 1q-21 0 -30.5 -8.5t-12 -21.5t-1.5 -28.5t0 -29.5q1 -42 25 -62q22 3 49.5 5t61.5 2q42 0 84.5 -1.5t69.5 -1.5h30.5t23.5 1q7 2 13 12.5t12 22.5t13 21.5t16 9.5
q20 0 29 -27.5t11 -63.5v-3q0 -15 -7 -27t-23 -20q-57 0 -122.5 4.5t-140.5 12.5q-38 -3 -95.5 -5t-135.5 -3q-3 1 -11.5 7.5t-8.5 16.5q0 5 4.5 13.5t10.5 16.5q7 10 16 20q4 32 7 75t5 88t3 88t1.5 76t0.5 51.5t0 14.5q0 5 -3 101q-1 30 -5 54t-9 43q-8 5 -16 13.5
t-18 22.5v2q0 10 22 26l9 3q32 -3 75 -4t97 -1h67q37 1 69 1h60t53.5 1t45 -2t33 -12t19.5 -29v-54z" />
    <glyph glyph-name="F" unicode="F" horiz-adv-x="561" 
d="M533 684q8 -32 8 -50q0 -23 -8.5 -40.5t-27.5 -17.5q-14 0 -30.5 14.5t-33.5 28.5q-45 2 -111.5 5t-157.5 7q-19 -14 -22 -40t-3 -58q0 -115 20 -233q5 -9 14 -14t20 -7.5t23 -4t24 -2.5q8 1 15 1h15q44 0 145 -22q19 -7 19 -32q0 -23 -13 -33.5t-31 -10.5t-35.5 3
t-35.5 6t-39 6t-47 3q-49 0 -74 -27v-73q4 -44 46 -53q3 -17 3 -27q0 -20 -20 -27.5t-40 -7.5h2q0 3 -16.5 2.5t-37 1.5t-37 9.5t-16.5 27.5q0 7 5 15.5t11.5 17t12 16.5t5.5 14v86q0 87 -1 200.5t-5 256.5q-1 9 -10 15t-20 11.5t-20 11t-9 13.5q0 2 1 5.5t2 6.5l15 12
q22 3 47.5 5t55.5 2q11 0 33 -0.5t46.5 -1t46.5 -1t33 -0.5q38 0 71 3.5t61 8.5h7q74 0 94 -32z" />
    <glyph glyph-name="G" unicode="G" horiz-adv-x="647" 
d="M623 248q2 -9 3 -17t1 -16q0 -10 -1.5 -21.5t-5.5 -21t-11 -15.5t-18 -6q-7 0 -13 3.5t-12 7.5t-12.5 7.5t-14.5 3.5q-26 -51 -51 -102q-15 -29 -35.5 -45.5t-44 -24.5t-48.5 -9.5t-50 -1.5q-123 0 -196 60l-57 66q-26 35 -26 68v6.5t1 6.5q-5 21 -8.5 44t-3.5 46v14
q0 50 16.5 98.5t41.5 101.5q19 40 51 80t93 83q27 15 74.5 23t113.5 11q1 0 9 -3.5t17.5 -7t19 -6.5t14.5 -3q11 0 23 10t23 15q21 0 35 -24q-1 -84 -43 -106q-16 0 -31 8t-31 18t-34.5 18t-41.5 8q-71 0 -123.5 -34t-88 -85t-53 -111.5t-17.5 -113.5q0 -68 20 -110.5
t49 -66.5t63 -33t63 -9q32 0 60.5 5.5t49.5 17.5t33 31t12 46q0 10 -2.5 16.5t-10 11t-21 7t-34.5 4.5q-47 5 -47 36q0 19 18.5 28t53.5 12t84.5 3t111.5 1q12 0 32 -33z" />
    <glyph glyph-name="H" unicode="H" horiz-adv-x="675" 
d="M650 4q-65 -38 -89 -38q-29 0 -41.5 22.5t-12.5 51.5q0 7 1 18.5t2 24.5t2 24.5t1 18.5q0 8 -1 15.5t-2 14.5l-24 23h-12q-21 0 -54.5 3.5t-69 7t-67 7t-47.5 3.5q-17 0 -30.5 -1.5t-23 -8t-14.5 -19t-5 -33.5q0 -11 2 -34.5t2 -40.5v-9q9 -18 9 -33q0 -29 -22.5 -40.5
t-52.5 -11.5q-11 0 -23 1.5t-22 5t-16.5 10t-6.5 15.5q0 14 6.5 22.5t15.5 15t17.5 13.5t12.5 17q7 125 10 205t3 118q0 61 -3 115t-10 103q-19 10 -33 21q-12 9 -22 20t-10 22q0 12 8 21.5t20.5 15.5t27 9t27.5 3q46 0 60 -38q-3 -53 -3 -121t3 -141.5t4 -143.5l18 -12h315
l20 21q3 69 3 134q0 68 -3 132t-10 126q0 21 25 37h8q25 0 50.5 -3.5t36.5 -20.5v-6q0 -9 -6.5 -17.5t-14 -16t-14 -12.5t-6.5 -6v-538q1 -11 11.5 -20.5t22.5 -18t22 -17t10 -15.5q0 -11 -5 -21z" />
    <glyph glyph-name="I" unicode="I" horiz-adv-x="437" 
d="M416 -21q-14 -17 -38 -24.5t-56 -7.5q-6 0 -19 1t-29.5 2t-32.5 2t-28 1h-12q-29 2 -70.5 8.5t-96.5 17.5q-13 13 -13 25q0 17 17.5 26.5t36.5 9.5q8 0 24.5 -1.5t25.5 -1.5q26 0 38.5 16.5t17 43t4 58.5t-0.5 63v10q0 20 -1.5 58t-3 79t-2.5 78t-1 55q0 32 1.5 60.5
t3.5 54.5q-16 26 -75 34q-59 6 -75 41q0 24 32 40h18q18 0 44 -2t52.5 -4t49 -4t31.5 -2q17 0 33.5 1t30.5 5h25q20 -8 30.5 -18.5t10.5 -28.5q0 -8 -3 -15.5t-12 -13t-27 -8.5t-48 -3q-41 0 -51 -28v-82q0 -26 2.5 -46.5t7.5 -34.5q-2 -32 -3 -63t-1 -63q0 -61 3.5 -123
t10.5 -126q12 -31 87 -34q62 -2 62 -49v-7v0z" />
    <glyph glyph-name="J" unicode="J" horiz-adv-x="573" 
d="M552 671q0 -8 -5 -19.5t-11.5 -23t-11.5 -23t-5 -19.5q0 -5 1 -8q-1 -12 -1 -25v-27q0 -18 1.5 -55t3.5 -78t3.5 -78.5t1.5 -55.5v-20q0 -52 -8.5 -93.5t-19.5 -76.5q-9 -27 -28 -48.5t-43 -36.5t-51 -23t-51 -8q-50 0 -83.5 9.5t-58 27.5t-44.5 45t-44 62
q-10 16 -23.5 24t-25.5 13.5t-20 11.5t-8 18q0 9 7 22.5t17.5 25.5t22.5 21t22 9q30 0 45 -23q4 -6 9.5 -23.5t12 -37t13.5 -37.5t14 -25q19 -23 30.5 -36t21.5 -19.5t20 -8.5t26 -2q94 0 132 48q31 106 31 288q0 12 -2 73.5t-5 170.5q-32 35 -103 35q-4 0 -18 -1t-32 -2
t-36.5 -2t-31.5 -1h-14q-5 -1 -10.5 -1.5t-11.5 -0.5h-8.5t-11.5 1h-19q-22 0 -31.5 -10t-15.5 -21.5t-12 -21.5t-21 -10q-22 0 -37 26v4q0 14 -2.5 35.5t-2.5 29.5q0 48 45 48q31 0 63 -15q66 2 164 3t230 3q6 -5 14 -13t16 -20v-5z" />
    <glyph glyph-name="K" unicode="K" horiz-adv-x="571" 
d="M546 37q5 -13 5 -22q0 -18 -13.5 -26t-29.5 -10.5t-29.5 -2.5t-13.5 -2h3q-37 0 -50 37t-21 108q-10 92 -50 129h-17q-30 -19 -72 -50.5t-98 -78.5q0 -1 -0.5 -17.5t-1.5 -51.5q-3 -38 -23 -50t-50 -12q-10 0 -21.5 2t-21 6.5t-16 11.5t-6.5 16q0 7 5 22q27 21 39.5 40.5
t12.5 36.5v2q0 18 0.5 37t0.5 40q0 46 -1 100.5t-3 112t-5 117t-6 115.5q-8 10 -17.5 22.5t-9.5 22.5q0 9 6.5 15.5t16 10t20.5 5.5t20 2q30 0 44 -22q0 -11 2.5 -33.5t5.5 -47t5.5 -47t2.5 -33.5q0 -27 -4 -49.5t-4 -51.5q0 -38 1.5 -87t5.5 -109q6 -11 19 -11q4 0 10 3
t12.5 6.5t11.5 7t7 3.5q37 15 74.5 46t67.5 72t49 88.5t19 96.5q0 17 -1.5 41t-1.5 41q0 27 6 44t17 26.5t26 12.5t32 3h6q18 -2 28.5 -14.5t10.5 -28.5q0 -7 -8 -16.5t-17.5 -20t-17.5 -21t-8 -18.5q0 -17 1.5 -31.5t1.5 -29.5q0 -118 -56 -179q-25 -28 -25 -56
q0 -9 9.5 -31t21.5 -46.5t21.5 -48t9.5 -35.5v-9q0 -67 62 -103z" />
    <glyph glyph-name="L" unicode="L" horiz-adv-x="543" 
d="M516 106q-1 -3 -1 -7v-9q0 -10 1 -21.5t2.5 -21.5t3 -17.5t1.5 -10.5q0 -49 -65 -49q-20 0 -52.5 1.5t-66 4t-62 4t-41.5 1.5q-20 0 -37.5 -1.5t-34.5 -3.5h-43.5t-40.5 3.5t-33.5 11t-21.5 22.5v4q0 6 7 14t15.5 15.5t16 14t9.5 8.5q7 41 9.5 91.5t2.5 113.5
q0 66 -1.5 128.5t-1.5 107.5q0 77 3 118q-2 4 -12.5 11.5t-22 16.5t-21 18.5t-9.5 16.5q0 10 6 17t15.5 11.5t21 7t22.5 2.5q39 0 52.5 -21.5t13.5 -60.5q0 -7 -0.5 -19t-1.5 -25t-1.5 -25.5t-0.5 -20.5v-15t1 -14q1 -82 2.5 -139.5t2.5 -98.5t2 -70.5t3 -54.5t4.5 -51
t6.5 -60q14 -14 37 -14q4 0 14 1.5t21.5 3.5t22.5 3.5t19 1.5h3h-1q0 -1 81 -1q49 0 72 16q10 35 18 49.5t28 14.5q19 0 32 -23z" />
    <glyph glyph-name="M" unicode="M" horiz-adv-x="814" 
d="M791 40q2 -3 2 -11q0 -17 -9 -27.5t-22.5 -16.5t-29.5 -8.5t-29 -2.5q-20 0 -35.5 4t-33.5 31q-19 130 -32.5 252.5t-22.5 242.5q-2 1 -3 7t-3 13t-5.5 13.5t-10.5 9.5l-17 -19l-87 -172q-18 -18 -36 -18q-12 0 -25 11t-25 28.5t-23 38.5t-19 41q-23 56 -37.5 87.5
t-19.5 42.5q-9 -2 -14.5 -9t-9 -16t-5.5 -20t-4 -20q-1 -18 -5.5 -45.5t-9.5 -59t-11 -64.5t-11 -62t-9 -51.5t-5 -33.5q-12 -77 -18.5 -127t-6.5 -75q-6 -20 -20 -24.5t-34 -4.5q-65 0 -84 32v4q0 15 10.5 23t23.5 16t24.5 20.5t14.5 35.5q8 70 14 79q23 91 38 206t20 257
q-2 3 -7 8.5t-11 12.5t-10.5 14t-4.5 12q0 12 9 21t22.5 15t30 8.5t30.5 2.5q33 0 55 -9.5t30 -32.5l61 -150l22 -44q14 -22 34 -22h4q16 19 29 47t24 64q12 41 19.5 66.5t16 39.5t21 19t35.5 5q16 0 36.5 -1t38.5 -4t30 -10t12 -19q0 -6 -10 -14t-22 -15.5t-23 -14
t-12 -9.5l27 -205.5t10 -72.5q11 -78 24.5 -146t27.5 -126q3 -11 14.5 -16t24 -9t23.5 -9t14 -14z" />
    <glyph glyph-name="N" unicode="N" horiz-adv-x="591" 
d="M566 0q-9 -9 -21.5 -14.5t-27.5 -8t-31 -4t-32 -2.5q-49 12 -73 76q-21 60 -44 130.5t-48 139.5t-52 131t-56 105h-2q-7 0 -10 -6t-4 -15t-1 -20v-21q0 -40 2 -92t5 -101.5t5 -89.5t2 -55v-57t-4.5 -55.5t-16.5 -42t-36 -16.5h-3q-14 4 -29 6t-28 6t-23.5 10t-16.5 18v4
q0 25 28 42q19 5 29 20t14 36t4.5 45t2.5 47v17q0 22 -1.5 62.5t-3.5 87.5t-3.5 93.5t-1.5 81.5v29t1 26q-2 9 -13 18.5t-23.5 20t-22.5 21t-10 19.5q0 23 17.5 32.5t38.5 9.5q7 0 21.5 -3t31 -7t31 -7t20.5 -4l24 -28q15 -32 31.5 -64.5t31.5 -63t27 -58.5t18 -52l81 -202
q3 -4 15 -11l10 14q-1 13 -1 25.5v26.5v12q0 20 2 53.5t4.5 69t4.5 67t2 48.5q0 32 -5 61.5t-5 58.5q0 58 61 58q8 0 18.5 -1t19.5 -4t15.5 -9.5t6.5 -17.5q0 -8 -5 -20q-19 -12 -28 -31t-12.5 -42t-3 -49t0.5 -53q8 -46 8 -104q0 -10 -0.5 -29.5t-1 -41t-1 -41t-0.5 -29.5
q0 -108 22 -171l9 -9t17 -18t16.5 -21t7.5 -18t-5 -19z" />
    <glyph glyph-name="O" unicode="O" 
d="M472 564q72 -200 72 -317q0 -56 -15 -105t-45 -85.5t-75 -57.5t-105 -21q-37 0 -76 7.5t-73 25.5t-60 48t-36 76q-13 56 -26 115t-13 116q0 235 165 334q49 29 104 29q37 0 64 -13.5t47 -36.5t37 -53t35 -62zM457 179q6 37 6 78q0 68 -21 141.5t-63 157.5l-31.5 42
t-25.5 30.5t-23.5 19t-25.5 6.5q-19 0 -40 -15t-42 -29q-96 -82 -96 -229q0 -32 3.5 -64t8 -58t8.5 -43.5t5 -19.5q22 -77 75 -107t121 -30q26 0 47.5 5t38.5 18.5t30.5 37t24.5 59.5z" />
    <glyph glyph-name="P" unicode="P" horiz-adv-x="620" 
d="M573 634q27 -38 27 -92q-1 -66 -33 -114.5t-104 -83.5q-28 -14 -45 -23t-36.5 -19t-48 -23t-80.5 -34q-38 -16 -61 -34t-23 -54q0 -8 1.5 -22t3 -28.5t3 -28.5t1.5 -22q0 -60 -56 -74q-10 -1 -20.5 -1t-20.5 -2q-28 0 -42.5 14t-14.5 32q0 14 6.5 22t15 14t17 12.5
t13.5 17.5q3 25 3 52q0 52 -12 105q18 196 18 258q0 69 -9 125q-2 4 -11 12.5t-19 18t-18 19t-8 16.5q0 17 14.5 29t37.5 12q8 0 27.5 -2t31.5 -2h7q18 -3 35 -3q11 0 33 2t46.5 5t46.5 5t33 2q14 0 26.5 -1t24.5 -5q52 -12 85.5 -22t54 -21.5t31.5 -26t19 -35.5zM501 562
q-5 22 -14.5 37.5t-26.5 25t-43 13.5t-63 4q-36 0 -57 2t-35 4t-26 4t-29 2q-30 0 -41 -20l-6 -194q-1 -21 0.5 -41t5.5 -35.5t9.5 -25t13.5 -9.5q6 0 18 4.5t18 4.5q9 8 133 57q29 12 55.5 27.5t46.5 33.5t32 38.5t12 41.5q0 12 -3 26z" />
    <glyph glyph-name="Q" unicode="Q" horiz-adv-x="631" 
d="M604 115q7 -16 7 -27q0 -12 -5.5 -28.5t-14 -32t-20 -26t-23.5 -10.5q-9 0 -21 3q-6 1 -15 10l-19.5 19.5t-21 19t-18.5 8.5q-2 0 -3 -0.5t-3 -0.5q-46 -50 -127 -50q-53 0 -103 19q-4 3 -23 11.5t-41.5 20.5t-43.5 26t-28 29q-30 31 -45.5 69.5t-15.5 86.5q0 26 6 56
q6 9 12.5 35t14.5 56.5t18 58.5t23 42q109 207 259 207h10t10 -1q7 6 23 6q22 0 58 -25.5t76 -92.5q19 -32 26.5 -75.5t7.5 -87.5q0 -118 -51 -259q-2 -3 -2 -6.5v-6.5q0 -28 33 -41q44 0 60 -13zM464 260q14 75 22 121.5t8 63.5q0 76 -41 128q-6 6 -19 18.5t-30 25t-36 22
t-37 9.5t-36 -8t-36 -21t-37 -28.5t-38 -31.5q-100 -161 -100 -277q0 -97 58 -150t169 -72q3 -1 6.5 -1h6.5q7 0 21 4.5t28 13t24 21.5t10 30q0 23 -8.5 34t-21.5 16t-27.5 6.5t-27.5 4t-21.5 9.5t-8.5 24q0 8 6 19t16.5 21.5t25.5 18t32 7.5q33 0 69 -37q4 -4 9 -4
q6 0 9.5 5t4.5 8z" />
    <glyph glyph-name="R" unicode="R" horiz-adv-x="617" 
d="M592 -1q-9 -21 -37 -21q-46 0 -66.5 16.5t-25.5 58.5q-4 36 -8 66.5t-12 55.5t-23 45.5t-40 36.5h-5q-41 0 -92 -48q-38 -38 -59 -54.5t-32 -26t-13.5 -18.5t-2.5 -31v-14q2 -6 2 -9.5v-6.5q0 -39 -25 -55q-30 -5 -46 -8.5t-18 -3.5q-23 0 -36 14.5t-13 29.5
q0 12 7.5 20.5t17.5 15t19.5 13t13.5 13.5q9 69 9 156v15q0 18 -1.5 55.5t-3.5 82t-3.5 89t-1.5 77.5q0 14 0.5 26.5t0.5 23.5q-1 12 -13 21t-26.5 17t-26.5 16t-12 19q0 13 7.5 22t20.5 14.5t29 8t34 2.5h17t19 -2l26 -9q27 -3 59 -3q11 0 32.5 1t45 2t44.5 2t32 1
q128 0 189 -69q10 -30 10 -64q0 -118 -146 -238q-11 -19 -11 -31q0 -7 4 -11q38 -35 66.5 -95.5t45.5 -147.5q17 -12 35 -24.5t18 -29.5q0 -8 -5 -16zM500 592q-50 46 -156 46h-20t-29 -1h-47q-19 0 -35.5 0.5t-30.5 1.5l-12 -8q-9 -45 -9 -99q0 -11 2 -40.5t4.5 -66
t4.5 -74.5t2 -66v-15.5t-1 -15.5q9 -9 19 -9q6 0 14.5 4t16 9t14 9t8.5 5q27 31 106 97q44 36 72 64.5t44.5 54.5t23.5 50.5t9 53.5z" />
    <glyph glyph-name="S" unicode="S" horiz-adv-x="584" 
d="M554 707q10 -14 10 -31q0 -6 -6 -21t-14.5 -30t-18.5 -27t-19 -12q-14 0 -33 11t-39 24t-38.5 24t-32.5 11h-2q-253 -20 -261 -225v1q0 -21 11.5 -37t29.5 -26.5t40.5 -16t44.5 -5.5q10 0 31 2t44.5 4.5t44.5 4.5t30 2q39 0 68.5 -12.5t49 -35t29.5 -53t10 -66.5
q0 -37 -8.5 -67.5t-29 -54.5t-54.5 -43t-85 -34q-26 -6 -50 -6q-12 0 -37 4.5t-52.5 9.5t-52 9.5t-36.5 4.5q-16 0 -31 -3q-2 -1 -7 -5t-11 -8.5t-12.5 -8.5t-10.5 -4q-18 0 -26.5 15.5t-8.5 33.5q0 11 5 25.5t13 28.5t18 24.5t21 14.5h8q30 0 67 -19q42 -23 80.5 -40
t83.5 -17q36 0 62 13.5t43 34t25 45.5t8 48q0 44 -27 66t-72 22q-9 0 -22.5 -1t-28 -2t-28 -2t-21.5 -1q-38 0 -79.5 7.5t-76 27t-57.5 52.5t-23 84q0 33 6 57q18 27 36 53.5t37.5 50t40.5 41.5t44 27q56 49 157 49q82 0 144 -33q4 1 10.5 4t14 7t14.5 7t12 3q9 0 18 -6z
" />
    <glyph glyph-name="T" unicode="T" horiz-adv-x="570" 
d="M550 698q-2 -20 -2.5 -39t-3.5 -36t-11 -30t-25 -20h-3q-26 0 -38 31q-2 16 -13.5 25.5t-27 14t-33 6t-32.5 3.5q-25 -8 -35 -28q-3 -37 -5 -76.5t-2 -82.5q0 -12 4 -105t12 -270l31 -31q17 -18 17 -38q0 -21 -17 -32t-46 -11h-22q-8 2 -13 2h-9q-12 0 -21 -2t-17 -5
q-17 5 -23.5 13t-6.5 21q0 12 9.5 20t21 18.5t21 27t9.5 45.5q0 7 -0.5 17t-1 20.5t-1 19.5t-0.5 14q-5 21 -8 55t-5 74t-2.5 82t-0.5 79t-0.5 65.5t-1.5 41.5q-2 9 -3 19.5t-3.5 20t-8.5 17.5t-16 12h-7q-13 0 -32.5 2t-27.5 2q-39 0 -50 -26q-9 -22 -13.5 -31.5
t-17.5 -14.5q-19 0 -29 14.5t-14.5 31t-5 28.5t-0.5 7q0 32 26 41t66 9h8q51 0 80.5 1.5t52.5 3t46.5 3t61.5 1.5h152q29 -9 37 -30z" />
    <glyph glyph-name="U" unicode="U" horiz-adv-x="599" 
d="M576 698q1 -5 2 -9t1 -8t-6.5 -17t-18.5 -39q0 -6 1.5 -23t3.5 -41t4.5 -51.5t4 -54.5t3 -51t1.5 -39v-30.5t-2 -28.5q-6 -66 -11 -119t-18.5 -94t-41 -70t-77.5 -47q-39 1 -78 2.5t-74 5t-66 11t-54 21.5q-57 12 -78 88q1 121 5 243t12 250q-1 12 -12 21.5t-23.5 18
t-23 16t-10.5 16.5q0 17 11.5 29.5t27.5 21t32 12.5t25 4q30 0 44.5 -15t14.5 -30q0 -4 -2 -10t-4 -13t-4 -12.5t-2 -8.5q-5 -42 -9 -99.5t-6 -130.5q-2 -91 -6.5 -151t-4.5 -90q0 -60 58 -91q23 -10 72 -18t124 -16q123 46 123 247q0 6 -1 38.5t-3 92.5q-1 15 -8 45.5
t-15 65.5t-14.5 67.5t-6.5 51.5q0 29 9 49t42 20h12.5t14 -2.5t15.5 -8.5t17 -19z" />
    <glyph glyph-name="V" unicode="V" horiz-adv-x="632" 
d="M608 685q3 -12 3 -22q0 -25 -22 -32q-48 -21 -76 -80q-18 -47 -36 -99t-36.5 -114t-37 -136.5t-36.5 -166.5q-8 -20 -21.5 -33.5t-31.5 -13.5q-21 0 -35 16.5t-23 45t-15 66.5t-13 81q-37 103 -70.5 210.5t-65.5 220.5q-2 2 -13 8t-24.5 14t-24 17.5t-10.5 20.5t10.5 19
t23.5 12.5t25.5 6.5t15.5 2q30 0 46 -25q14 -54 38.5 -134.5t61.5 -187.5q12 -52 27.5 -103t34.5 -103q5 -3 8.5 -4.5t5.5 -3.5q3 -2 5 -2q9 11 15.5 30.5t11.5 39.5q5 23 9 50q4 10 11 31t15 48.5t17.5 58.5t19 60.5t19 54.5t17.5 40q6 22 11 46t14 43.5t22.5 32.5t36.5 13
h3q18 -3 29 -5.5t17.5 -5.5t10 -7t7.5 -10z" />
    <glyph glyph-name="W" unicode="W" horiz-adv-x="784" 
d="M762 679q1 -5 1 -13q0 -18 -9 -25.5t-21 -13.5t-23.5 -15.5t-15.5 -30.5q-5 -35 -9.5 -54t-6.5 -23q-12 -69 -26 -172t-31 -244v-4q0 -6 5.5 -14.5t12 -16.5t12 -15.5t5.5 -12.5q0 -11 -10.5 -19.5t-24.5 -14.5t-27 -9t-18 -3q-34 0 -52 22t-25 59q-16 77 -28 96
q-12 25 -21 40.5t-16.5 25.5t-15 15t-18.5 8q-10 -12 -19.5 -29.5t-17.5 -42.5q-8 -27 -21 -60t-31 -61.5t-40 -47.5t-49 -19h-3q-26 0 -42 4.5t-25 11.5t-12 15t-3 14q0 9 4 16q31 19 31 55q0 6 -2.5 20.5t-6 30t-6.5 28.5t-4 17q-8 99 -16.5 183.5t-18.5 156.5
q-6 19 -11 37.5t-23 26.5h-9q-23 0 -39 8.5t-16 30.5q0 8 7 17q32 63 91 71q36 -3 47 -43q28 -89 41 -182.5t13 -187.5v-24q2 -17 4 -36.5t5.5 -37.5t9.5 -34t15 -27q10 5 23.5 25t32.5 54q7 25 15 52.5t19.5 51t27 40t39.5 19.5q44 -15 71 -70l40 -97q7 -15 20 -31
q19 10 19 20q2 2 11.5 61.5t29.5 177.5q12 72 20 131.5t11 109.5q10 22 36 22q25 0 41.5 -4.5t27 -11.5t16.5 -14t9 -13z" />
    <glyph glyph-name="X" unicode="X" horiz-adv-x="631" 
d="M605 104q4 -5 5 -10.5t1 -11.5q0 -8 -8 -23t-20.5 -30t-26.5 -26.5t-26 -11.5q-2 0 -38 18q-11 13 -30.5 47.5t-43 74.5t-47.5 78t-42 57l-18 -3q-16 -18 -34.5 -45t-36.5 -57t-34.5 -59t-28.5 -52t-18.5 -36t-4.5 -10q-16 -22 -35 -22q-8 0 -21 6t-25.5 15.5t-22 21.5
t-9.5 25q0 14 10 23.5t26 19t34.5 22t35.5 33.5q18 24 39.5 51t40 55.5t31 58t12.5 58.5q0 13 -22.5 46.5t-50.5 88.5q-11 20 -23.5 41.5t-25.5 39.5t-25.5 30t-22.5 12q-6 0 -19 -3.5t-21 -3.5q-17 0 -28.5 16t-11.5 28t11 25.5t25.5 25t29 19.5t21.5 8t19 -5
q2 -2 20.5 -30.5t53.5 -85.5q24 -39 40.5 -65t29.5 -44.5t25 -33t27 -30.5q11 1 20.5 11t17.5 23t13.5 24t8.5 14q21 32 49 80t63 114q21 18 43 18q17 0 30 -12.5t22 -29t13.5 -33t4.5 -23.5q0 -18 -9.5 -27.5t-20.5 -9.5q-8 0 -15 5.5t-17 5.5q-23 0 -43.5 -32t-43.5 -80
q-12 -26 -25.5 -47t-24.5 -37.5t-18.5 -29t-7.5 -22.5q0 -17 11 -42t30.5 -55.5t45.5 -65t56 -70.5l11.5 -1t26 -3.5t27 -7.5t15.5 -13z" />
    <glyph glyph-name="Y" unicode="Y" horiz-adv-x="578" 
d="M557 692q1 -3 1 -9q0 -19 -12.5 -36.5t-23.5 -33.5q-5 -45 -18 -97.5t-35.5 -103.5t-55.5 -94.5t-78 -69.5q-15 -21 -15 -52q0 -9 2 -24.5t4.5 -31.5t5 -28.5t3.5 -15.5q2 -6 13.5 -14t24 -17t22.5 -18.5t10 -18.5q0 -23 -22 -35t-54 -14q-2 0 -21 1t-55 2q-17 6 -32 13
t-15 27q0 7 7.5 16t16 18.5t16 19.5t7.5 19v2q0 50 -3.5 84.5t-8.5 53.5q-40 22 -76.5 46t-53.5 56q-66 87 -66 186q0 37 9 72q2 6 2 10q0 7 -5.5 18.5t-12.5 23t-12.5 20.5t-5.5 12q0 13 15.5 23.5t38.5 10.5q30 0 42 -22.5t12 -49.5q0 -9 -2 -24t-4 -30.5t-4 -30.5t-2 -24
q0 -42 12 -79t34.5 -64.5t54.5 -43.5t71 -16q19 0 38 8q113 83 113 279q0 33 -3 69q25 35 71 35q35 0 50 -28z" />
    <glyph glyph-name="Z" unicode="Z" horiz-adv-x="572" 
d="M552 685q-2 -39 -30 -82q-27 -38 -47.5 -65.5t-35.5 -49.5t-25 -39t-16 -33q38 -16 55.5 -29t17.5 -36q0 -16 -15 -29t-50 -13q-14 0 -34 2.5t-41 2.5q-46 0 -62 -36q-50 -56 -137 -181v-4q0 -13 7 -18.5t17.5 -7t22 -1t20.5 0.5q146 0 242 21q-1 -2 4.5 7t14.5 19.5
t19.5 20t20.5 9.5q15 0 22.5 -11.5t11 -28.5t4 -36.5t1.5 -36.5q-1 -27 -32 -40q-15 0 -47 2.5t-67 5.5t-67 5.5t-47 2.5q-44 0 -87 -8q-16 4 -48 4h-19q-35 -2 -52 -3t-19 -1q-8 1 -17.5 12.5t-9.5 31.5q0 19 8 35.5t20 32t26 30.5t26 30l90 114q4 7 4 10q0 14 -34 25h-4
q-18 0 -31 27v3q0 39 22 49t66 10q73 0 73 -2h-1q37 32 75.5 83t82.5 123v3q0 15 -15 22q-32 5 -81.5 8t-115.5 3q-26 0 -55 -0.5t-61 -1.5q-3 -3 -7.5 -13t-11.5 -21t-15.5 -19.5t-20.5 -8.5q-18 0 -30 22q0 7 -2.5 18.5t-6 24.5t-6 25t-2.5 19q0 18 13 34t36 16
q6 0 15.5 -3.5t19.5 -7.5t19.5 -7.5t15.5 -3.5l75 3q20 -2 43.5 -3t51.5 -1q91 0 145 2t68 2q24 -17 30 -40z" />
    <glyph glyph-name="bracketleft" unicode="[" horiz-adv-x="278" 
d="M247 763q11 -35 11 -56q0 -28 -16 -43t-57 -19q-40 -2 -53 -22q4 -54 6 -101.5t2 -86.5v-26.5t-1 -24.5q0 -9 -2.5 -30t-6 -49t-7 -60t-7 -63t-5.5 -58t-2 -45q9 -20 54 -20q13 0 25 4t25 4q23 0 33 -18.5t10 -41.5q0 -5 -1 -18.5t-4.5 -27.5t-11 -24.5t-20.5 -10.5
q-25 0 -31.5 8t-10 17t-11.5 17t-35 8q-10 0 -22 -0.5t-27 -0.5h-4q-45 0 -58 34q1 28 5 62t12 77q12 69 18.5 113t8.5 75t2 56v56q0 149 -37 244q1 4 4.5 10.5t10.5 13t16.5 11t21.5 4.5q6 0 16 -1.5t20.5 -3t20 -3t14.5 -1.5q18 0 26.5 9t14 19.5t11.5 19.5t18 9
q14 0 24 -16z" />
    <glyph glyph-name="backslash" unicode="\" horiz-adv-x="346" 
d="M326 32q-6 -28 -38 -28q-29 0 -35 25q-37 124 -65 214t-47 151q-10 19 -25 57t-31 80.5t-30.5 80.5t-23.5 57q-6 15 -8.5 24t-2.5 11q0 15 14.5 24.5t31.5 9.5h6q15 -5 23.5 -19t18.5 -42t24.5 -72.5t40.5 -109.5q25 -63 39 -115.5t20 -94.5q1 -3 9.5 -23t19 -46.5
t21.5 -53.5t16 -43q8 -23 13.5 -44.5t8.5 -42.5z" />
    <glyph glyph-name="bracketright" unicode="]" horiz-adv-x="278" 
d="M32 -56q-5 17 -8.5 31t-3.5 25q0 28 16 44t59 18q19 1 32 7t20 16q-9 111 -9 188v26.5t1 23.5q1 9 3.5 30t6 49t7 60t7 63t5.5 58t2 45q-9 20 -55 20q-14 0 -25 -4t-25 -4q-23 0 -32.5 19t-9.5 42q0 5 1 18t4.5 27t11 25t19.5 11q16 0 24 -6.5t12.5 -14.5t8 -16.5
t10.5 -12.5q4 -1 26 -1h24.5t32.5 1h7q43 0 54 -34q0 -28 -4 -62t-12 -76q-12 -71 -18.5 -115t-8.5 -74.5t-2 -55.5v-56q0 -150 37 -243q-2 -10 -16 -25t-37 -15q-6 0 -16 1.5t-20.5 3t-20 3t-14.5 1.5q-19 0 -27.5 -9t-14 -19.5t-11.5 -19.5t-18 -9q-13 0 -23 16z" />
    <glyph glyph-name="asciicircum" unicode="^" horiz-adv-x="434" 
d="M412 481q-14 -34 -49 -49q-49 5 -70 63q-14 38 -27 61t-23 31l-18 -5q-11 -18 -25.5 -42.5t-31 -47t-33.5 -38.5t-33 -16q1 0 -11.5 2.5t-28.5 10t-29 21t-13 34.5q0 19 10 28.5t31 15.5q24 5 38 11.5t23.5 15.5t17.5 22t19 32q20 34 32 52.5t20 26.5t14.5 9.5t16.5 1.5
q11 0 20 -4q12 -20 37.5 -62t52.5 -89q9 -14 19.5 -20.5t20 -12t16 -12.5t6.5 -21q0 -5 -0.5 -9.5t-1.5 -9.5z" />
    <glyph glyph-name="underscore" unicode="_" horiz-adv-x="849" 
d="M826 0q1 -3 2 -7t1 -8q0 -26 -28 -41h-35.5t-92 0.5t-127 1.5t-142.5 3t-138 4.5t-112 6.5h-73q-44 3 -61 33q3 28 25 39l12 6q167 -8 336.5 -12t344.5 -4h63q10 -4 25 -22z" />
    <glyph glyph-name="grave" unicode="`" horiz-adv-x="179" 
d="M20 700q9 19 28 19q15 0 30 -13.5t30 -35t28 -49t23 -54.5q-2 -6 -13 -17.5t-25 -11.5q-11 0 -16 2.5t-10.5 12t-15.5 27.5t-31 48q-28 41 -28 72z" />
    <glyph glyph-name="a" unicode="a" horiz-adv-x="451" 
d="M426 51q5 -10 5 -16q0 -35 -106 -35q-5 1 -11.5 7.5t-14.5 13t-15.5 12t-13.5 5.5q-7 0 -13 -3q-87 -50 -121 -50q-29 0 -52 19q-64 33 -64 121q0 9 1 22.5t1.5 28t1.5 28t1 21.5v18.5t-2 16.5q14 48 29.5 86.5t34.5 66t42.5 42t52.5 14.5q6 0 19 -3.5t27.5 -7.5
t27.5 -7.5t19 -3.5q29 0 50 37q49 0 55 -18q0 -11 -11 -24q-11 -10 -17 -23.5t-8 -29.5t-2 -34v-36q0 -112 7 -174.5t40 -69.5q22 -3 37 -24zM282 165q3 54 3 96q0 36 -3 61t-12 41.5t-26 24t-46 7.5q-41 0 -63.5 -25t-33.5 -59.5t-13.5 -70t-2.5 -56.5q0 -25 2.5 -45.5
t10 -35t21 -22.5t36.5 -8h4q14 1 29.5 10t31 22.5t31.5 29t31 30.5z" />
    <glyph glyph-name="b" unicode="b" horiz-adv-x="464" 
d="M444 188q0 -44 -6 -80.5t-20 -62.5t-36 -40t-53 -14q-14 0 -37.5 6t-47.5 13.5t-43.5 13.5t-25.5 7q-14 -17 -28.5 -32t-32.5 -17q-24 0 -47 10t-23 29q0 9 5.5 21.5t11.5 26t11.5 26t5.5 21.5v3q2 81 4 141.5t4 101.5q2 48 2 81v-1q0 54 -2.5 103.5t-7.5 93.5
q-2 6 -11 13.5t-19.5 15t-19 15.5t-8.5 15q0 19 19 27.5t40 8.5q33 0 48 -17.5t15 -59.5v-21q0 -13 0.5 -21.5t1.5 -13.5l7 -157q7 -10 18 -10q4 0 11.5 4.5t15.5 10t15 10.5t11 7q42 18 85 18q42 0 66 -18q38 -52 53 -132q5 -22 18 -146zM342 76q28 55 28 130q0 73 -28 169
q-9 26 -58 26h-11q-35 -5 -64 -30t-52 -68q0 -7 -0.5 -18.5t-1.5 -24t-1.5 -25t-0.5 -20.5q0 -95 67 -119q27 -15 48 -21.5t38 -6.5q20 0 36 8z" />
    <glyph glyph-name="c" unicode="c" horiz-adv-x="402" 
d="M382 466q0 -69 -41 -97h-4q-11 0 -24.5 10t-27.5 21.5t-28 21.5t-25 10h-4q-12 3 -24 3q-29 0 -50 -13t-35 -35.5t-21 -52t-7 -61.5q0 -26 5 -61.5t18.5 -68t38 -55.5t64.5 -23q10 0 26.5 10t34 22t33 22t21.5 10q20 0 35 -38q-14 -72 -125 -100q-100 0 -166 85
q-56 117 -56 199q0 40 13.5 77.5t33.5 66.5t42.5 48t41.5 23h13q99 0 139 -24q2 -1 7 -1q13 0 28.5 8t22.5 8q12 0 21 -15z" />
    <glyph glyph-name="d" unicode="d" horiz-adv-x="543" 
d="M519 9q-25 -28 -62 -28q-32 0 -49 15t-19 30v28q-1 15 -13 22q-24 -1 -65 -38q-20 -17 -37.5 -25t-33.5 -12t-29.5 -4h-24.5q-49 0 -73 28q-93 69 -93 206q0 35 10.5 68t28.5 63t41 55.5t48 44.5q56 28 119 28q69 0 115 -37q3 -1 9 -1q13 0 16 15l3 236q14 23 44 23
q19 0 38 -8.5t19 -28.5q0 -7 -7.5 -14.5t-16.5 -16t-16.5 -17t-7.5 -17.5q0 -20 2 -40t2 -43q0 -21 -2 -62.5t-4 -87t-4 -86.5t-2 -61q0 -90 15 -159q1 -1 9 -7t18 -14.5t18 -18.5t8 -19q0 -8 -4 -17zM391 337q-41 80 -136 80q-16 0 -43.5 -9t-54 -31t-46 -58t-19.5 -91
q0 -25 7 -52.5t20.5 -50.5t33 -38t43.5 -15q6 0 11.5 1t11.5 3q21 7 34 12.5t28 17.5t37 35t62 65q14 31 14 79q0 23 -3 52z" />
    <glyph glyph-name="e" unicode="e" horiz-adv-x="499" 
d="M479 121q-4 -31 -24.5 -56t-50 -43t-63.5 -27.5t-65 -9.5q-30 0 -69 8t-87 23q-100 71 -100 199q0 89 46 151t143 101q7 0 23.5 2.5t35 6t35 6t23.5 2.5q44 0 72 -34l32 -43q4 -5 5 -12.5t1 -15.5q0 -22 -11.5 -39.5t-31 -35t-45.5 -37.5t-54 -47q-59 -55 -94 -83.5
t-35 -46.5q0 -15 21 -22.5t42 -8.5h-1h18h22t31 1q91 24 109 91q11 17 31 17t30 -13t11 -34zM325 420q-8 2 -14.5 2h-13.5q-49 0 -88.5 -21.5t-67 -53t-42 -68t-14.5 -66.5q0 -22 7 -39t19 -17q2 0 4.5 1t4.5 2q64 51 218 203q8 13 8 24q0 8 -7 19z" />
    <glyph glyph-name="f" unicode="f" horiz-adv-x="381" 
d="M342 657q11 -38 15 -61t4 -30q0 -34 -22 -53h-8q-19 0 -29 8t-15 20t-7.5 25.5t-6.5 25.5t-12.5 20t-24.5 8t-29 -13t-22 -34t-14 -48t-5 -55q0 -15 2.5 -45.5t7.5 -77.5q3 -2 5 -12t6 -22t9 -24t14 -17q31 -5 55.5 -11.5t35.5 -29.5q-1 -20 -19 -27.5t-39.5 -14
t-39.5 -16.5t-18 -34q0 -7 1 -11q-1 -5 -1 -10v-11t1 -16.5l2 -21l2 -21t1 -16.5q0 -40 -26.5 -51.5t-72.5 -11.5q-19 0 -34 9.5t-15 27.5q0 24 10 33t23 12.5t25 8t15 19.5q-2 16 -2 31.5t-1 29.5q-2 21 -9.5 31t-18 14t-22 4.5t-21 1.5t-16 6t-6.5 18q0 21 27 36
q16 4 28 6.5t20 10t12 23t4 44.5q0 13 -3 41.5t-6.5 60t-6.5 60t-3 42.5q0 108 89 155q32 5 52 7.5t28 2.5q60 0 81 -47z" />
    <glyph glyph-name="g" unicode="g" horiz-adv-x="439" 
d="M417 466q2 -8 2 -12q0 -11 -10 -14.5t-22 -9t-22 -17t-10 -37.5q0 -36 2.5 -54t2.5 -16q-2 -17 -3 -36.5t-1 -41.5q0 -26 1.5 -55.5t6.5 -62.5q10 -74 15.5 -122t5.5 -69q0 -82 -29 -151q-17 -17 -42 -25.5t-60 -8.5q-4 0 -17 1t-30 1.5t-34.5 1.5t-29.5 1q-10 0 -14 -1
q-17 5 -33.5 9.5t-30 12.5t-22 20.5t-8.5 34.5q0 14 3.5 29.5t10.5 29t17.5 22t24.5 8.5q19 0 25 -12t8.5 -27.5t6 -29.5t17.5 -17q46 -7 66.5 -10.5t17.5 -3.5q44 0 63 34q-1 4 -1 15q0 15 2 34.5t2 25.5q0 40 -22 61q-9 -1 -17 -1h-16q-112 0 -164 46q-30 45 -44.5 88
t-14.5 84q0 30 8 60q57 199 170 216q37 4 77 7.5t67 17.5q54 -1 75 -26zM285 397q-20 18 -46 18q-33 0 -59.5 -24t-45.5 -58.5t-29 -73t-10 -66.5t6.5 -52.5t19.5 -43t31 -29t41 -10.5q39 0 59 16t24 30q15 187 15 205q0 46 -6 88z" />
    <glyph glyph-name="h" unicode="h" horiz-adv-x="492" 
d="M472 19q-2 -32 -20.5 -41.5t-43.5 -9.5q-27 0 -39 14.5t-12 36.5q0 3 9 57q-2 7 -2 17v24q0 10 0.5 24.5t1.5 30.5t1.5 32t0.5 29q0 60 -18 94t-59 48h-9q-85 0 -142 -81q1 -56 3 -115.5t2 -113.5v-40t-2 -35q-19 -22 -58 -22q-10 0 -21.5 1t-21 5t-16 11t-6.5 18
q0 7 5 19q44 18 44 72v51q0 34 1 50.5t2.5 26.5t3 18.5t1.5 27.5q0 10 -1.5 30.5t-3 43t-2.5 43t-1 30.5v22t2 20q-5 20 -5 43q0 6 0.5 16.5t1 21.5t1 21t0.5 16q0 60 -38 89v3q0 15 13 27.5t40 12.5q34 0 47 -22.5t13 -61.5q0 -37 -3 -75.5t-3 -61.5q0 -42 8 -60l16 -10
q92 40 138 40q26 0 49 -10t41 -25.5t29 -35t13 -38.5q2 -5 4 -48t5 -121q3 -103 31 -159z" />
    <glyph glyph-name="i" unicode="i" horiz-adv-x="236" 
d="M141 616q-9 -25 -36 -25q-23 0 -38.5 14.5t-19.5 36.5q0 4 2 13.5t7 18.5t13.5 16t22.5 7q22 0 36.5 -13t14.5 -39v-13.5t-2 -15.5zM213 -9q-19 -21 -65 -23h-82q-16 0 -30.5 10t-14.5 30q0 24 30 35q13 5 19 15t8.5 23t2.5 27.5v29.5q0 51 -5 110t-14 127
q-15 19 -21.5 30.5t-6.5 16.5q0 35 55 53h4q53 0 53 -54q0 -11 -1.5 -27.5t-1.5 -29.5q0 -26 5 -41q8 -38 12.5 -99t6.5 -145q2 -4 10 -13.5t16.5 -20.5t15.5 -21.5t7 -17.5q0 -4 -1 -7.5t-2 -7.5z" />
    <glyph glyph-name="j" unicode="j" horiz-adv-x="464" 
d="M397 664q4 -15 4 -28q0 -18 -10.5 -27t-26.5 -9q-18 0 -30 13t-12 32q0 4 0.5 11t4.5 14t12 11.5t22 4.5q28 0 36 -22zM439 457q5 -10 5 -17t-8.5 -16.5t-18 -20t-18 -21t-8.5 -20.5q0 -5 1 -8v-70q0 -126 2.5 -225.5t9.5 -174.5q-3 -53 -19 -83.5t-41 -46t-58 -19.5
t-69 -4q-58 0 -148 18q-46 15 -49 70q4 18 11 35.5t16.5 31.5t21 22.5t24.5 8.5q14 0 23.5 -10.5t9.5 -25.5q0 -8 -4.5 -23.5t-4.5 -23.5q0 -14 12 -24q6 0 21 -2t32.5 -4.5t33 -4.5t22.5 -2q29 0 45 10t23.5 28.5t9 45.5t1.5 60q0 61 1.5 95t3 57t3 45t1.5 60
q0 54 -3 113.5t-10 126.5q6 28 40 31q48 1 54 6q21 -3 32 -18z" />
    <glyph glyph-name="k" unicode="k" horiz-adv-x="450" 
d="M429 457q0 -2 0.5 -4t0.5 -4q0 -10 -8 -20.5t-18 -20.5q-11 -11 -26 -23q1 2 -5 -8.5t-14 -26t-15 -33t-7 -30.5q0 -7 1 -11q15 -18 25 -40t17 -47.5t12.5 -53t11.5 -56.5q19 -32 19 -50t-13.5 -26t-45.5 -13q-33 0 -48 26q6 46 6 78q0 24 -3.5 50t-12 47.5t-21.5 35.5
t-31 14q-49 0 -91 -44q2 -26 4 -61.5t2 -83.5v-30q-30 -41 -96 -41q-29 0 -41 13t-12 28q0 3 1 7l2 8q-2 -1 7 5.5t21 18t22.5 26t10.5 29.5l8 454q3 7 3 15t-8.5 24.5t-18.5 33t-18.5 30t-8.5 16.5q0 9 16 22t46 13q22 0 33.5 -14.5t16.5 -37t6 -51t1 -55.5
q0 -10 -0.5 -31.5t-1 -45.5t-1 -46t-0.5 -33q0 -18 -0.5 -37.5t2 -36t9 -27t20.5 -10.5q35 0 55 16t30.5 40.5t16 55.5t11.5 61q15 22 52 22q7 0 18 -1t22 -4.5t21 -11t15 -20.5z" />
    <glyph glyph-name="l" unicode="l" horiz-adv-x="241" 
d="M216 7q-26 -33 -81 -33q-3 0 -21 1t-39 5.5t-38 13t-17 24.5q0 9 6.5 16.5t15 16t17 19t12.5 24.5q0 3 2.5 21t5.5 45t5.5 62t2.5 73q0 9 -0.5 29.5t-1.5 49.5t-1.5 63.5t-0.5 70.5q0 23 1 40t1 34q0 9 -8.5 24t-18.5 30.5t-18.5 29.5t-8.5 22q0 17 11.5 27.5t29.5 10.5
h-1q4 0 10 -1q10 -1 32 -3q12 -8 28 -22q12 -83 12 -249v-89q0 -91 4 -160.5t11 -119.5q1 -1 9 -7.5t18 -15t18 -18t8 -17.5q0 -7 -5 -17z" />
    <glyph glyph-name="m" unicode="m" horiz-adv-x="668" 
d="M647 15q0 -20 -17.5 -32t-46.5 -12q-39 0 -53.5 23t-14.5 70q0 22 3 51q7 59 10 98t3 60q0 19 -1 40.5t-5 39.5t-12.5 30t-23.5 12q-17 0 -34 -6t-32 -17t-26 -25.5t-15 -31.5v-308q0 -17 -23 -28q-62 8 -62 71q0 6 1.5 21t3.5 32.5t3.5 32.5t1.5 21q0 21 -4 33
q0 11 0.5 21.5t0.5 21.5q0 88 -13 139q-6 11 -28 11q-13 0 -27 -5.5t-28 -14.5t-27.5 -20.5t-24.5 -22.5q0 -60 2.5 -104.5t6 -76t6 -52t2.5 -31.5q0 -59 -30 -77h-12q-43 0 -72.5 6.5t-29.5 23.5t23 31q17 10 25.5 31t12 46.5t3.5 51.5v47q0 34 -3 69q-5 13 -5 27v8t2 12
v22q0 23 -8.5 34.5t-19.5 17.5t-22 9t-16 11v4q0 24 29 32q19 4 29.5 7t16 4.5t8 2.5t5.5 1q8 0 18 -6t19.5 -13.5t18 -13.5t13.5 -6q8 0 19 6q55 28 103 28q44 0 69 -25q47 17 79 24.5t51 7.5q31 0 51 -12.5t31 -36t15.5 -56.5t4.5 -74q0 -42 -2 -84.5t-2 -71.5
q0 -25 1 -44t3 -32q3 -5 10.5 -10.5t15 -11.5t13.5 -13t7 -14v-4z" />
    <glyph glyph-name="n" unicode="n" horiz-adv-x="480" 
d="M458 28q1 -3 1 -10q0 -13 -6.5 -21.5t-16 -14t-21.5 -8t-22 -2.5q-17 0 -28 7.5t-18 19.5t-9.5 27t-2.5 30q0 7 2.5 25t5 39l5 42t2.5 34v7q0 1 0.5 10.5t1 22t1 26t0.5 22.5q0 19 -3 38.5t-10 35.5t-17 25.5t-24 9.5q-75 0 -127 -70q-3 -20 -3 -41q0 -15 3.5 -46.5
t8 -66t8 -66.5t3.5 -47q0 -42 -12.5 -65.5t-44.5 -25.5q-51 1 -51 47q0 13 14 48q4 38 6 73t2 68q0 102 -18 186q-7 8 -18.5 12t-22.5 8t-19 10.5t-8 20.5q0 23 22 34l40 13q26 10 43 10q27 0 41 -28q0 -6 6 -11l12 -12q2 0 3.5 -0.5t3.5 -0.5q11 0 22.5 4.5t27 10t37 10
t51.5 4.5q50 0 72 -37l21 -60q1 -11 2 -23.5t1 -26.5q0 -9 -1 -28.5t-1.5 -41t-1.5 -41t-1 -29.5q0 -101 38 -157z" />
    <glyph glyph-name="o" unicode="o" horiz-adv-x="399" 
d="M341 407q38 -62 38 -150q0 -46 -10.5 -90t-35.5 -76q-23 -30 -41.5 -48.5t-34 -29t-30.5 -14.5t-32 -5q-93 1 -134 62.5t-41 169.5q0 47 8 89.5t23 82.5q4 13 15.5 29.5t30 31.5t43 25t54.5 10q91 0 147 -87zM267 360q-2 1 -11 10t-21 19.5t-25 19t-23 8.5
q-30 0 -49.5 -20.5t-30 -50.5t-14.5 -63t-4 -58q0 -31 7 -60.5t19.5 -52t30 -36t39.5 -13.5q31 0 52 21t34 51.5t18.5 64t5.5 57.5q0 60 -28 103z" />
    <glyph glyph-name="p" unicode="p" horiz-adv-x="515" 
d="M494 104q-11 -37 -23 -60t-28 -36.5t-37.5 -18.5t-49.5 -5q-21 0 -39 3.5t-34 11.5h-2q-8 0 -18 3.5t-20 7.5t-18.5 7.5t-13.5 3.5q-9 0 -14.5 -5t-8.5 -13t-3.5 -17.5t-0.5 -17.5q0 -10 2.5 -30t6 -41t6 -39.5t2.5 -26.5q0 -45 -25.5 -67.5t-91.5 -22.5q-18 0 -34 9
t-16 27q0 25 32 41q19 6 29.5 16t15.5 24t6 30t1 34q0 5 -0.5 10.5t-0.5 10.5v94q-3 27 -3 76q0 15 0.5 34t1 40t1 42.5t0.5 41.5q0 38 -2 68t-6 53q-3 3 -17.5 8.5t-30 12t-28.5 15t-13 17.5q0 13 8.5 22.5t21.5 15.5t29 8.5t30 2.5q37 0 66 -18l4 -6t11 -14t14 -14.5
t13 -6.5q2 0 5.5 1t6.5 2q97 43 119 43q20 0 40 -9q30 -25 50.5 -54t33 -68t17.5 -92.5t5 -127.5v-26zM401 91q10 24 15.5 51t5.5 56q0 25 -5 59t-16 64t-28.5 51t-41.5 21q-2 0 -3 -0.5t-2 -0.5q-81 -19 -134 -89q1 -6 1.5 -13t0.5 -15q0 -18 -1.5 -34.5t-3 -30.5t-3 -23.5
t-1.5 -13.5q0 -29 10 -52q37 -19 75 -36t68 -17q36 0 63 23z" />
    <glyph glyph-name="q" unicode="q" horiz-adv-x="489" 
d="M464 -191q4 -7 4 -15q0 -12 -12.5 -27t-41.5 -15q-23 1 -38.5 4t-25.5 10.5t-14.5 21t-4.5 36.5q0 18 1.5 46.5t1.5 55.5q0 39 -6 68q-17 9 -45 9h-8q-10 -1 -17.5 -1.5t-14.5 -0.5q-14 0 -23 3h-3q-32 0 -67 15t-64 44.5t-47.5 72t-18.5 98.5q0 61 21 110t52 83.5
t67 53.5t66 19q9 0 22.5 -3t28.5 -6t28.5 -6t22.5 -3q12 0 20 4t15 9.5t14 9.5t17 4q9 0 20.5 -3t21 -8.5t16 -13.5t6.5 -19q0 -12 -7.5 -18.5t-17.5 -11.5t-18.5 -11t-10.5 -17q1 -21 2 -44.5t1 -49.5q0 -17 -1 -49.5t-2 -68.5t-2 -68.5t-1 -48.5q0 -81 9 -144v-41
t1.5 -24.5t3.5 -15.5t7 -15q18 -5 42 -29zM335 384q-11 20 -39.5 28t-57.5 8q-39 0 -67 -16.5t-45.5 -42.5t-26 -58.5t-8.5 -65.5q0 -39 11.5 -70t30.5 -52t43.5 -32t49.5 -11q38 0 62 12t40 45q3 119 5 181.5t2 73.5z" />
    <glyph glyph-name="r" unicode="r" horiz-adv-x="438" 
d="M417 358q0 -20 -7 -32t-21 -12q-16 0 -33 12.5t-34 28t-32 28t-26 12.5q-18 0 -34 -10t-30.5 -25t-27.5 -33.5t-24 -35.5q-2 -14 -3 -27t-1 -27q0 -4 5.5 -49.5t16.5 -133.5q0 -2 0.5 -4.5t0.5 -4.5q0 -24 -16.5 -39t-49.5 -15q-12 0 -25.5 2.5t-24.5 7.5t-18 12.5
t-7 17.5q0 14 24 32q16 13 23.5 29t9 33.5t0.5 35t-1 35.5q0 101 -12 205q-2 2 -10 8t-17 14t-16 16.5t-7 16.5q0 20 20 29.5t41 9.5q22 0 44 -11q5 -3 6.5 -13.5t4 -22t8 -20t17.5 -8.5h2q50 53 123 53h12.5t12.5 -1q31 -20 51 -33.5t31 -25t16 -22t8 -25.5v-8z" />
    <glyph glyph-name="s" unicode="s" horiz-adv-x="380" 
d="M359 209q1 -8 1 -15.5v-14.5q0 -81 -29 -110q-59 -56 -143 -56h-4q-7 0 -18.5 3t-24.5 6t-25 6t-19 3q-24 0 -39 -15q-22 0 -37 24v6q0 6 4.5 19.5t13 27.5t21 24.5t28.5 10.5q9 0 23.5 -8t29.5 -17t29.5 -17t23.5 -8q13 0 29.5 7.5t31.5 20t25 28t10 31.5q0 32 -26 44
t-67 14q-44 1 -74 10.5t-48.5 23.5t-26.5 33t-8 40v8q2 30 11 56.5t27 46.5t45 32t65 12q53 0 87 -19q1 0 1.5 -0.5t2.5 -0.5q5 0 13 2.5t16 5.5t15 5.5t11 2.5q16 0 22 -22q-5 -36 -19 -63.5t-34 -27.5q-10 0 -22 7.5t-24.5 16.5t-24.5 16.5t-21 7.5h-2q-4 1 -12 1
q-14 0 -28.5 -4.5t-27.5 -13t-21 -21t-8 -28.5v-5q0 -36 34 -50q55 -1 92 -6t61 -15.5t38 -26.5t22 -38z" />
    <glyph glyph-name="t" unicode="t" horiz-adv-x="445" 
d="M420 129q-6 -30 -19 -56t-33 -45.5t-46 -30.5t-57 -11q-32 0 -54.5 13t-38 34.5t-23.5 48.5t-11 56q-6 60 -11 114.5t-9 105.5q-12 10 -65 18q-43 7 -43 37v6q0 15 14.5 21.5t32.5 10t35 6t23 8.5v2q0 10 4.5 22.5t4.5 17.5q2 45 3 68.5t2 27.5v8t-1 14q-19 15 -35.5 31
t-16.5 28q0 10 7 17.5t18 12.5t25 7.5t29 2.5q8 0 16 -0.5t17 -1.5l15 -15q4 -8 4 -21q0 -6 -2 -14.5t-4 -17.5t-4.5 -17t-2.5 -12l1 -6v-3q-1 -4 -2 -15t-2 -23.5t-2 -24t-1 -16.5q0 -23 1 -39.5t5.5 -27t14 -16t26.5 -5.5h27q23 0 36 -13.5t13 -36.5q0 -9 -3 -15.5
t-13 -11.5t-28 -7.5t-49 -2.5q-17 -2 -21 -7v-3q0 -3 2 -21t5.5 -43t7 -53.5t6.5 -52.5t5 -39.5t2 -14.5q14 -53 49 -53q20 0 36.5 16.5t31.5 59.5q18 50 55 50q12 0 19.5 -8.5t7.5 -20.5q0 -8 -2 -21t-2 -22z" />
    <glyph glyph-name="u" unicode="u" horiz-adv-x="423" 
d="M403 444q-3 -58 -3 -115t-5 -114q-5 -63 -28 -113t-57 -83q-33 -11 -67 -24t-59 -13q-27 0 -47 12.5t-33 33t-19.5 47.5t-6.5 56q0 11 2 35.5t4.5 51.5t4.5 51.5t2 36.5q0 17 -2 33t-5 30q-4 3 -13 6t-19 7t-19 10t-13 15q0 44 21 52q4 1 16 4.5t25.5 7.5t25.5 7t18 3
q26 0 38 -24q-1 -11 -2.5 -33.5t-3 -50t-3 -57t-3 -55t-2 -44.5t-0.5 -24q0 -91 42 -133q44 1 71 20t41.5 48.5t19 67t4.5 76.5q0 65 -18 163q0 12 3 24.5t8.5 23t13.5 17t19 6.5q20 0 37 -25l12 -37v0z" />
    <glyph glyph-name="v" unicode="v" horiz-adv-x="467" 
d="M445 466q2 -5 2 -9v-7q0 -11 -7.5 -28t-16 -35.5t-16 -35.5t-7.5 -28q-19 -34 -50.5 -99t-76.5 -164q-3 -13 -6 -27.5t-8 -26.5t-14 -20t-25 -8q-26 0 -42 26q-3 10 -8 34.5t-12 57.5t-15 71t-17 74.5t-17.5 67.5t-16.5 51q-2 4 -13.5 10t-24.5 13.5t-23.5 16t-10.5 17.5
q0 4 1 7t2 8q1 4 7.5 13.5t16.5 19t23.5 16.5t28.5 7q28 0 37 -22q25 -137 83 -291q4 -9 12 -9q4 0 11 5q23 39 37 62.5t18 31.5q18 34 28.5 73.5t20.5 73.5t22.5 56.5t34.5 22.5q17 0 42 -25z" />
    <glyph glyph-name="w" unicode="w" horiz-adv-x="567" 
d="M544 462q1 -4 2 -7t1 -7q0 -6 -5.5 -16.5t-12 -20t-12.5 -17l-6 -7.5q3 -96 3 -121q0 -161 -47 -250q-41 -41 -78 -41q-6 0 -11.5 0.5t-12.5 3t-16 8t-24 14.5q-26 17 -40 17h-6.5t-6.5 -2q-34 -31 -74 -31q-18 0 -34 6q-103 40 -127 155q3 44 5 110t3 156q-25 27 -25 44
q0 11 7.5 18.5t19 12t23.5 6.5t21 2q31 0 43.5 -15.5t12.5 -38.5q0 -11 -4 -26.5t-12 -35.5q-9 -26 -14 -45.5t-6.5 -36.5t-1.5 -34.5v-39.5q0 -100 55 -147q7 -4 14 -4q14 0 24 12.5t16.5 31.5t9.5 42t3 45q0 15 -3.5 48t-8 69.5t-8.5 69.5t-5 48v6q0 19 11.5 37t33.5 18
q25 0 40 -24q6 -20 9.5 -51.5t6 -68t4.5 -73.5t3 -68.5t1.5 -53t1.5 -26.5q2 -5 8 -16t15 -23t20 -21t23 -9q17 0 28.5 15.5t19 39.5t11 52t3.5 54q0 28 -7.5 85.5t-23.5 145.5q2 17 18.5 30t39.5 13q43 0 72 -38z" />
    <glyph glyph-name="x" unicode="x" horiz-adv-x="501" 
d="M479 43q2 -8 2 -12q0 -19 -19 -32q-7 0 -19 -1.5t-25.5 -3t-26 -3t-19.5 -1.5q-48 0 -67 35q-8 70 -55 123h-2q-8 0 -18 -13t-20.5 -33t-22.5 -43t-25 -43t-27 -33t-29 -13q-10 0 -24 9t-14 26q0 12 9 32q3 10 22.5 36.5t41.5 58t40 61.5t18 48q0 35 -33 71
q-46 95 -113 95h-4q-29 15 -29 44q0 17 13.5 28.5t43.5 18.5h5q44 0 86 -51l62 -93q12 -17 24 -17q3 0 5 1q26 25 53.5 64.5t52.5 78.5q8 4 18 4q12 0 22.5 -8.5t10.5 -28.5q0 -11 -10.5 -28.5t-23 -35.5t-24 -33.5t-14.5 -21.5q-2 -4 -9 -14.5t-15 -23t-14 -24.5t-6 -20
q0 -10 5 -22q14 -26 27.5 -53.5t29 -50.5t35 -38t46.5 -15q2 0 5 0.5t5 0.5q18 -2 26 -26z" />
    <glyph glyph-name="y" unicode="y" horiz-adv-x="471" 
d="M447 438q-3 -5 -12 -9.5t-18.5 -9.5t-18.5 -10.5t-12 -11.5v-86t-1 -204q0 -88 2.5 -159.5t7.5 -128.5q-5 -34 -21.5 -48t-48.5 -14q-26 0 -47.5 9.5t-21.5 32.5q0 16 8.5 24.5t18.5 17.5t19 21t11 34v6q0 15 -3 60q-11 22 -44 22h-9t-10 -2h-19q-45 0 -81 14t-62 39
t-40 58.5t-14 72.5v5q0 18 5.5 51t12.5 68t13 65.5t7 42.5q-2 4 -10 11t-16.5 15t-15.5 16t-7 14q0 18 19.5 26t38.5 10h60q5 -3 17 -12t12 -22q0 -26 -17 -62q-17 -37 -25 -69t-11 -57.5t-3 -43.5v-26q0 -91 55 -130q40 -8 54 -8q39 0 59.5 22t29.5 55t9.5 71t0.5 70v30
q0 29 -1 66t-4 83q13 14 30.5 22t43.5 8q9 0 20 -1t20.5 -4t16 -9t6.5 -17q0 -4 -1 -8.5t-3 -9.5z" />
    <glyph glyph-name="z" unicode="z" horiz-adv-x="499" 
d="M479 22q0 -30 -28.5 -37t-74.5 -7q-49 0 -86.5 2.5t-57.5 2.5h-11t-8 -1l-135 -3q-11 3 -30 28q1 20 15.5 49.5t46 73.5t80.5 104.5t120 143.5q1 2 1 7q0 11 -16 21q-58 6 -181 9q-3 -3 -8 -13.5t-11.5 -21t-14.5 -19t-17 -8.5q-22 0 -32.5 22.5t-10.5 49.5q0 22 6 42
l22 20q63 1 156.5 2t220.5 1l22 -14q12 -12 12 -29q0 -10 -4 -21q-25 -24 -51.5 -50t-61 -64.5t-79.5 -94.5t-106 -141q-1 -4 -1 -11q0 -21 19 -22l181 8q7 3 13 17.5t12.5 30.5t15 29t20.5 13q16 0 26.5 -10.5t17 -27.5t10.5 -38.5t8 -42.5z" />
    <glyph glyph-name="braceleft" unicode="{" horiz-adv-x="278" 
d="M256 16q1 -7 1.5 -13t0.5 -12q0 -23 -8 -36.5t-25 -13.5q-8 0 -20 7.5t-25.5 16t-26 16t-21.5 7.5t-19 -3q-45 22 -63.5 48t-18.5 60q0 10 7 30t15 41.5t15 40t7 26.5q0 32 -40 60q-9 13 -9 27q0 7 5.5 19t12.5 25t12.5 25t5.5 19q0 12 -9 26q-33 46 -33 110q0 33 7.5 59
t25.5 47.5t46.5 39t70.5 34.5q6 4 8.5 14t6 20.5t10 18.5t18.5 8q10 0 17.5 -6t12 -14.5t6.5 -18.5t2 -19q0 -12 -1 -22.5t-9 -20.5t-27.5 -20t-56.5 -21q-32 -10 -47.5 -31t-15.5 -50q0 -14 9.5 -38t21.5 -49.5t21.5 -49t9.5 -35.5q0 -26 -15 -50q0 -6 2.5 -21.5t5 -33.5
t5 -34.5t2.5 -25.5q0 -21 -7.5 -37.5t-16 -30t-16 -26t-7.5 -26.5q0 -18 20 -25.5t46 -13.5t49.5 -16t31.5 -32z" />
    <glyph glyph-name="bar" unicode="|" horiz-adv-x="134" 
d="M59 794q3 1 7 2t7 1q26 0 41 -28q0 -132 -1 -253q-1 -52 -2 -107t-2.5 -107t-3.5 -98.5t-5 -81.5q-2 -21 -2 -41.5t-2 -38t-8.5 -31.5t-21.5 -23q-28 3 -40 25l-6 12q8 169 12.5 340t4.5 349v55q6 10 22 25z" />
    <glyph glyph-name="braceright" unicode="}" horiz-adv-x="278" 
d="M23 709q-2 7 -2 13v12q0 23 8 35.5t25 12.5q8 0 20.5 -7.5t26 -16t26 -16t20.5 -7.5t19 3q45 -20 63.5 -46t18.5 -61q0 -11 -7 -31t-15 -41t-15 -39.5t-7 -25.5q0 -34 40 -62q9 -14 9 -26q0 -7 -5.5 -19t-12.5 -25t-12.5 -25t-5.5 -19q0 -15 9 -25q17 -23 24.5 -51.5
t7.5 -60.5q0 -34 -8 -60.5t-25.5 -47.5t-46 -38.5t-69.5 -33.5q-6 -4 -9 -14t-7 -20.5t-9.5 -18.5t-17.5 -8q-11 0 -18 6t-11.5 15t-6.5 19t-2 19q0 12 1 22.5t9 20.5t27.5 20.5t56.5 21.5q63 19 63 79q0 13 -9.5 37t-21.5 49.5t-21.5 49t-9.5 36.5q0 26 15 50
q0 6 -2.5 21.5t-5 33.5t-5 35t-2.5 25q0 21 7.5 37.5t16 30t16 26t7.5 26.5q0 18 -20 28.5t-56 14.5q-58 6 -71 46z" />
    <glyph glyph-name="asciitilde" unicode="~" horiz-adv-x="364" 
d="M340 462q-10 -30 -36.5 -54.5t-56.5 -28.5h-9q-53 0 -117 61h-4q-7 0 -17.5 -4t-21 -8.5t-19 -8.5t-12.5 -4q-7 0 -17 7.5t-10 23.5q0 19 13.5 34t31.5 25t34.5 15t22.5 5q12 0 24.5 -4t40.5 -27q12 -10 22 -15.5t19 -5.5t18.5 6.5t19.5 14t20 14t21 6.5q20 0 28.5 -13.5
t8.5 -24.5q0 -9 -4 -14z" />
    <glyph glyph-name="copyright" unicode="&#xa9;" horiz-adv-x="570" 
d="M550 354q-3 -66 -27 -116t-61 -83.5t-84 -50.5t-97 -17q-57 0 -104.5 19.5t-82.5 55t-54.5 85.5t-19.5 110q0 42 8.5 78t25.5 69q0 1 15.5 17.5t38.5 36.5t49 37.5t46 20.5q47 6 83.5 10.5t66.5 4.5q79 0 133 -24q19 -21 30 -50.5t17.5 -63t9.5 -69.5t7 -70zM470 338
q2 14 3.5 29.5t2.5 29.5q0 34 -16 53q-11 -3 -16.5 -14.5t-11.5 -23.5t-14 -21.5t-23 -9.5q-6 0 -20 7.5t-30.5 16t-31.5 16t-24 7.5q-14 0 -25.5 -6.5t-20.5 -17.5t-14 -25t-5 -28t6.5 -24.5t16.5 -18t20.5 -11t18.5 -3.5t19 6t23 13.5t22.5 14t18.5 6.5q16 0 28.5 -12
t12.5 -25q0 -22 -11.5 -37t-28 -24.5t-35.5 -13.5t-34 -4q-35 0 -63.5 12.5t-49 32.5t-32 45.5t-11.5 51.5v12q1 24 12.5 47t29.5 40t41 27.5t47 10.5q40 0 82 -30q3 -1 10 -1q5 0 12 4t15 9t15.5 9t13.5 4q10 0 18 -5q4 7 4 15q0 29 -17.5 44.5t-44.5 17.5q-29 2 -45 2
t-18 1q-32 -8 -65 -17t-66 -19q-30 -12 -49 -31.5t-30 -44t-15 -52.5t-4 -56q0 -38 17 -73.5t45 -62.5t64.5 -43.5t74.5 -16.5q34 0 65.5 14.5t56.5 40t40 59.5t16 73z" />
    <glyph glyph-name="FL00B0h" unicode="&#xb0;" horiz-adv-x="344" 
d="M62 471q-30 39 -30 90q0 44 17.5 73.5t41 48t47.5 26.5t36 8q71 0 102 -36.5t31 -102.5q0 -80 -37 -120.5t-96 -40.5q-70 0 -112 54zM123 561q0 -11 2.5 -21t10.5 -20l7 -3h-4l2 -2l10 -7.5t12 -8t10 -6t5 -2.5q16 0 25.5 9.5t15 23.5t7 28.5t1.5 25.5q0 27 -13 49.5
t-34 22.5q-17 0 -27.5 -10t-17.5 -24t-9.5 -29t-2.5 -26zM280 481l-1 -1z" />
    <glyph glyph-name="acute" unicode="&#xb4;" horiz-adv-x="179" 
d="M159 700q0 -31 -28 -72q-21 -30 -31 -48t-15.5 -27.5t-10.5 -12t-16 -2.5q-14 0 -25 11.5t-13 17.5q10 27 23 54.5t28 49t30 35t30 13.5q18 0 28 -19z" />
    <glyph glyph-name="FL00BAh" unicode="&#xba;" horiz-adv-x="344" 
d="M62 471q-30 39 -30 90q0 44 17.5 73.5t41 48t47.5 26.5t36 8q71 0 102 -36.5t31 -102.5q0 -80 -37 -120.5t-96 -40.5q-70 0 -112 54zM123 561q0 -11 2.5 -21t10.5 -20l7 -3h-4l2 -2l10 -7.5t12 -8t10 -6t5 -2.5q16 0 25.5 9.5t15 23.5t7 28.5t1.5 25.5q0 27 -13 49.5
t-34 22.5q-17 0 -27.5 -10t-17.5 -24t-9.5 -29t-2.5 -26zM280 481l-1 -1z" />
    <glyph glyph-name="Agrave" unicode="&#xc0;" 
d="M539 69q5 -7 5 -15q0 -25 -28 -36t-66 -11q-26 0 -40.5 14t-14.5 41q0 8 1.5 21t3 26.5t3 26.5t1.5 21q0 16 -1.5 27t-9.5 18.5t-26 12.5t-51 10q-6 -1 -13 -1.5t-16 -0.5t-20 0.5t-23 1.5t-23.5 1.5t-19.5 0.5h-14.5t-11.5 -1l-19 -20l-2 -155q-14 -34 -37 -42
q-29 -2 -42 -2t-11 0q-33 3 -44 24q0 13 8 20t17.5 14t18.5 18t12 33q7 61 9 63q37 368 259 506q7 1 21 7.5t29 14t28.5 13.5t19.5 6q19 0 34 -19v-19q0 -33 -1 -84.5l-2 -103t-2 -94t-1 -58.5q0 -137 15 -236q4 -5 12 -10t16.5 -10t15.5 -11t10 -12zM410 619q-6 16 -23 16
q-7 0 -11 -1q-156 -105 -198 -305q2 -12 17 -17.5t34.5 -7.5t39 -1.5t30.5 0.5q54 0 87 6l12 9q1 17 2.5 44.5t2.5 58.5t2.5 63t2 60t1 48t1.5 27zM212 932q9 19 28 19q15 0 30 -13.5t30 -35t28 -49t23 -54.5q-2 -6 -13 -17.5t-25 -11.5q-11 0 -16 2.5t-10.5 12t-15.5 27.5
t-31 48q-28 41 -28 72z" />
    <glyph glyph-name="Aacute" unicode="&#xc1;" 
d="M539 69q5 -7 5 -15q0 -25 -28 -36t-66 -11q-26 0 -40.5 14t-14.5 41q0 8 1.5 21t3 26.5t3 26.5t1.5 21q0 16 -1.5 27t-9.5 18.5t-26 12.5t-51 10q-6 -1 -13 -1.5t-16 -0.5t-20 0.5t-23 1.5t-23.5 1.5t-19.5 0.5h-14.5t-11.5 -1l-19 -20l-2 -155q-14 -34 -37 -42
q-29 -2 -42 -2t-11 0q-33 3 -44 24q0 13 8 20t17.5 14t18.5 18t12 33q7 61 9 63q37 368 259 506q7 1 21 7.5t29 14t28.5 13.5t19.5 6q19 0 34 -19v-19q0 -33 -1 -84.5l-2 -103t-2 -94t-1 -58.5q0 -137 15 -236q4 -5 12 -10t16.5 -10t15.5 -11t10 -12zM410 619q-6 16 -23 16
q-7 0 -11 -1q-156 -105 -198 -305q2 -12 17 -17.5t34.5 -7.5t39 -1.5t30.5 0.5q54 0 87 6l12 9q1 17 2.5 44.5t2.5 58.5t2.5 63t2 60t1 48t1.5 27zM351 932q0 -31 -28 -72q-21 -30 -31 -48t-15.5 -27.5t-10.5 -12t-16 -2.5q-14 0 -25 11.5t-13 17.5q10 27 23 54.5t28 49
t30 35t30 13.5q18 0 28 -19z" />
    <glyph glyph-name="AE" unicode="&#xc6;" horiz-adv-x="1155" 
d="M539 69q5 -7 5 -15q0 -25 -28 -36t-66 -11q-26 0 -40.5 14t-14.5 41q0 8 1.5 21t3 26.5t3 26.5t1.5 21q0 16 -1.5 27t-9.5 18.5t-26 12.5t-51 10q-6 -1 -13 -1.5t-16 -0.5t-20 0.5t-23 1.5t-23.5 1.5t-19.5 0.5h-14.5t-11.5 -1l-19 -20l-2 -155q-14 -34 -37 -42
q-29 -2 -42 -2t-11 0q-33 3 -44 24q0 13 8 20t17.5 14t18.5 18t12 33q7 61 9 63q37 368 259 506q7 1 21 7.5t29 14t28.5 13.5t19.5 6q19 0 34 -19v-19q0 -33 -1 -84.5l-2 -103t-2 -94t-1 -58.5q0 -137 15 -236q4 -5 12 -10t16.5 -10t15.5 -11t10 -12zM410 619q-6 16 -23 16
q-7 0 -11 -1q-156 -105 -198 -305q2 -12 17 -17.5t34.5 -7.5t39 -1.5t30.5 0.5q54 0 87 6l12 9q1 17 2.5 44.5t2.5 58.5t2.5 63t2 60t1 48t1.5 27zM1135 631q0 -20 -9.5 -33.5t-26.5 -13.5q-11 0 -18.5 6.5t-13.5 15.5t-12.5 18.5t-16.5 14.5q-47 9 -129.5 16.5t-203.5 14.5
q-16 -11 -20 -23q6 -60 6 -152v-92q1 -32 2 -58.5t2 -49.5q20 -11 53.5 -16t68.5 -7h10q17 0 38.5 2t29.5 2q20 0 37 -9.5t17 -29.5q0 -11 -15 -25.5t-42 -14.5q-9 0 -27.5 3.5t-28.5 3.5h-9t-7 -1h-6q-8 0 -19.5 1t-22.5 2.5t-20.5 2.5t-13.5 1q-21 0 -30.5 -8.5t-12 -21.5
t-1.5 -28.5t0 -29.5q1 -42 25 -62q22 3 49.5 5t61.5 2q42 0 84.5 -1.5t69.5 -1.5h30.5t23.5 1q7 2 13 12.5t12 22.5t13 21.5t16 9.5q20 0 29 -27.5t11 -63.5v-3q0 -15 -7 -27t-23 -20q-57 0 -122.5 4.5t-140.5 12.5q-38 -3 -95.5 -5t-135.5 -3q-3 1 -11.5 7.5t-8.5 16.5
q0 5 4.5 13.5t10.5 16.5q7 10 16 20q4 32 7 75t5 88t3 88t1.5 76t0.5 51.5t0 14.5q0 5 -3 101q-1 30 -5 54t-9 43q-8 5 -16 13.5t-18 22.5v2q0 10 22 26l9 3q32 -3 75 -4t97 -1h67q37 1 69 1h60t53.5 1t45 -2t33 -12t19.5 -29v-54z" />
    <glyph glyph-name="Egrave" unicode="&#xc8;" horiz-adv-x="591" 
d="M571 631q0 -20 -9.5 -33.5t-26.5 -13.5q-11 0 -18.5 6.5t-13.5 15.5t-12.5 18.5t-16.5 14.5q-47 9 -129.5 16.5t-203.5 14.5q-16 -11 -20 -23q6 -60 6 -152v-92q1 -32 2 -58.5t2 -49.5q20 -11 53.5 -16t68.5 -7h10q17 0 38.5 2t29.5 2q20 0 37 -9.5t17 -29.5
q0 -11 -15 -25.5t-42 -14.5q-9 0 -27.5 3.5t-28.5 3.5h-9t-7 -1h-6q-8 0 -19.5 1t-22.5 2.5t-20.5 2.5t-13.5 1q-21 0 -30.5 -8.5t-12 -21.5t-1.5 -28.5t0 -29.5q1 -42 25 -62q22 3 49.5 5t61.5 2q42 0 84.5 -1.5t69.5 -1.5h30.5t23.5 1q7 2 13 12.5t12 22.5t13 21.5t16 9.5
q20 0 29 -27.5t11 -63.5v-3q0 -15 -7 -27t-23 -20q-57 0 -122.5 4.5t-140.5 12.5q-38 -3 -95.5 -5t-135.5 -3q-3 1 -11.5 7.5t-8.5 16.5q0 5 4.5 13.5t10.5 16.5q7 10 16 20q4 32 7 75t5 88t3 88t1.5 76t0.5 51.5t0 14.5q0 5 -3 101q-1 30 -5 54t-9 43q-8 5 -16 13.5
t-18 22.5v2q0 10 22 26l9 3q32 -3 75 -4t97 -1h67q37 1 69 1h60t53.5 1t45 -2t33 -12t19.5 -29v-54zM226 932q9 19 28 19q15 0 30 -13.5t30 -35t28 -49t23 -54.5q-2 -6 -13 -17.5t-25 -11.5q-11 0 -16 2.5t-10.5 12t-15.5 27.5t-31 48q-28 41 -28 72z" />
    <glyph glyph-name="FL00C9h" unicode="&#xc9;" horiz-adv-x="591" 
d="M571 685q-6 20 -19.5 29t-33 12t-45 2t-53.5 -1h-60t-69 -1h-67q-54 0 -97 1t-75 4l-9 -3q-22 -16 -22 -26v-2q10 -14 18 -22.5t16 -13.5q5 -19 9 -43t5 -54q3 -96 3 -101q0 4 0 -14.5t-0.5 -51.5t-1.5 -76t-3 -88t-5 -88t-7 -75q-9 -10 -16 -20q-6 -8 -10.5 -16.5
t-4.5 -13.5q0 -10 8.5 -16.5t11.5 -7.5q78 1 135.5 3t95.5 5q75 -8 140.5 -12.5t122.5 -4.5q16 8 23 20t7 27v3q-2 36 -11 63.5t-29 27.5q-9 0 -16 -9.5t-13 -21.5t-12 -22.5t-13 -12.5q-10 -1 -23.5 -1h-30.5q-27 0 -69.5 1.5t-84.5 1.5q-34 0 -61.5 -2t-49.5 -5
q-24 20 -25 62q1 14 0 29.5t1.5 28.5t12 21.5t30.5 8.5q4 0 13.5 -1t20.5 -2.5t22.5 -2.5t19.5 -1h6q3 1 7 1h9q10 0 28.5 -3.5t27.5 -3.5q27 0 42 14.5t15 25.5q0 20 -17 29.5t-37 9.5q-8 0 -29.5 -2t-38.5 -2h-10q-35 2 -68.5 7t-53.5 16q-1 23 -2 49.5t-2 58.5v92
q0 92 -6 152q4 12 20 23q121 -7 203.5 -14.5t129.5 -16.5q10 -5 16.5 -14.5t12.5 -18.5t13.5 -15.5t18.5 -6.5q17 0 26.5 13.5t9.5 33.5v54zM298 885q13 -10 13 -24q0 -16 -15.5 -29t-40 -23t-56 -17.5t-62.5 -11.5q-4 3 -11.5 14t-7.5 25q0 12 3 17t14 8.5t31.5 9
t56.5 20.5q32 13 56 13h9.5t9.5 -2z" />
    <glyph glyph-name="Igrave" unicode="&#xcc;" horiz-adv-x="437" 
d="M416 -21q-14 -17 -38 -24.5t-56 -7.5q-6 0 -19 1t-29.5 2t-32.5 2t-28 1h-12q-29 2 -70.5 8.5t-96.5 17.5q-13 13 -13 25q0 17 17.5 26.5t36.5 9.5q8 0 24.5 -1.5t25.5 -1.5q26 0 38.5 16.5t17 43t4 58.5t-0.5 63v10q0 20 -1.5 58t-3 79t-2.5 78t-1 55q0 32 1.5 60.5
t3.5 54.5q-16 26 -75 34q-59 6 -75 41q0 24 32 40h18q18 0 44 -2t52.5 -4t49 -4t31.5 -2q17 0 33.5 1t30.5 5h25q20 -8 30.5 -18.5t10.5 -28.5q0 -8 -3 -15.5t-12 -13t-27 -8.5t-48 -3q-41 0 -51 -28v-82q0 -26 2.5 -46.5t7.5 -34.5q-2 -32 -3 -63t-1 -63q0 -61 3.5 -123
t10.5 -126q12 -31 87 -34q62 -2 62 -49v-7v0zM149 932q9 19 28 19q15 0 30 -13.5t30 -35t28 -49t23 -54.5q-2 -6 -13 -17.5t-25 -11.5q-11 0 -16 2.5t-10.5 12t-15.5 27.5t-31 48q-28 41 -28 72z" />
    <glyph glyph-name="Iacute" unicode="&#xcd;" horiz-adv-x="437" 
d="M416 -21q-14 -17 -38 -24.5t-56 -7.5q-6 0 -19 1t-29.5 2t-32.5 2t-28 1h-12q-29 2 -70.5 8.5t-96.5 17.5q-13 13 -13 25q0 17 17.5 26.5t36.5 9.5q8 0 24.5 -1.5t25.5 -1.5q26 0 38.5 16.5t17 43t4 58.5t-0.5 63v10q0 20 -1.5 58t-3 79t-2.5 78t-1 55q0 32 1.5 60.5
t3.5 54.5q-16 26 -75 34q-59 6 -75 41q0 24 32 40h18q18 0 44 -2t52.5 -4t49 -4t31.5 -2q17 0 33.5 1t30.5 5h25q20 -8 30.5 -18.5t10.5 -28.5q0 -8 -3 -15.5t-12 -13t-27 -8.5t-48 -3q-41 0 -51 -28v-82q0 -26 2.5 -46.5t7.5 -34.5q-2 -32 -3 -63t-1 -63q0 -61 3.5 -123
t10.5 -126q12 -31 87 -34q62 -2 62 -49v-7v0zM288 932q0 -31 -28 -72q-21 -30 -31 -48t-15.5 -27.5t-10.5 -12t-16 -2.5q-14 0 -25 11.5t-13 17.5q10 27 23 54.5t28 49t30 35t30 13.5q18 0 28 -19z" />
    <glyph glyph-name="Ograve" unicode="&#xd2;" 
d="M472 564q72 -200 72 -317q0 -56 -15 -105t-45 -85.5t-75 -57.5t-105 -21q-37 0 -76 7.5t-73 25.5t-60 48t-36 76q-13 56 -26 115t-13 116q0 235 165 334q49 29 104 29q37 0 64 -13.5t47 -36.5t37 -53t35 -62zM457 179q6 37 6 78q0 68 -21 141.5t-63 157.5l-31.5 42
t-25.5 30.5t-23.5 19t-25.5 6.5q-19 0 -40 -15t-42 -29q-96 -82 -96 -229q0 -32 3.5 -64t8 -58t8.5 -43.5t5 -19.5q22 -77 75 -107t121 -30q26 0 47.5 5t38.5 18.5t30.5 37t24.5 59.5zM212 932q9 19 28 19q15 0 30 -13.5t30 -35t28 -49t23 -54.5q-2 -6 -13 -17.5t-25 -11.5
q-11 0 -16 2.5t-10.5 12t-15.5 27.5t-31 48q-28 41 -28 72z" />
    <glyph glyph-name="Oacute" unicode="&#xd3;" 
d="M472 564q72 -200 72 -317q0 -56 -15 -105t-45 -85.5t-75 -57.5t-105 -21q-37 0 -76 7.5t-73 25.5t-60 48t-36 76q-13 56 -26 115t-13 116q0 235 165 334q49 29 104 29q37 0 64 -13.5t47 -36.5t37 -53t35 -62zM457 179q6 37 6 78q0 68 -21 141.5t-63 157.5l-31.5 42
t-25.5 30.5t-23.5 19t-25.5 6.5q-19 0 -40 -15t-42 -29q-96 -82 -96 -229q0 -32 3.5 -64t8 -58t8.5 -43.5t5 -19.5q22 -77 75 -107t121 -30q26 0 47.5 5t38.5 18.5t30.5 37t24.5 59.5zM351 932q0 -31 -28 -72q-21 -30 -31 -48t-15.5 -27.5t-10.5 -12t-16 -2.5
q-14 0 -25 11.5t-13 17.5q10 27 23 54.5t28 49t30 35t30 13.5q18 0 28 -19z" />
    <glyph glyph-name="Oslash" unicode="&#xd8;" 
d="M472 564q72 -200 72 -317q0 -56 -15 -105t-45 -85.5t-75 -57.5t-105 -21q-37 0 -76 7.5t-73 25.5t-60 48t-36 76q-13 56 -26 115t-13 116q0 235 165 334q49 29 104 29q37 0 64 -13.5t47 -36.5t37 -53t35 -62zM457 179q6 37 6 78q0 68 -21 141.5t-63 157.5l-31.5 42
t-25.5 30.5t-23.5 19t-25.5 6.5q-19 0 -40 -15t-42 -29q-96 -82 -96 -229q0 -32 3.5 -64t8 -58t8.5 -43.5t5 -19.5q22 -77 75 -107t121 -30q26 0 47.5 5t38.5 18.5t30.5 37t24.5 59.5zM435 709q-3 -19 -7 -36.5t-10 -37t-15 -43t-22 -53.5q-20 -47 -29.5 -79.5t-17.5 -63.5
t-17.5 -65.5t-28.5 -83.5q-27 -71 -42.5 -118t-26 -75t-20.5 -39.5t-27 -11.5q-14 0 -28.5 10t-14.5 25q0 2 2.5 10t8.5 25q9 18 23.5 56.5t30.5 81t31.5 81t24.5 55.5q19 61 47 152t65 214q6 25 35 25q32 0 38 -29z" />
    <glyph glyph-name="Ugrave" unicode="&#xd9;" horiz-adv-x="599" 
d="M576 698q1 -5 2 -9t1 -8t-6.5 -17t-18.5 -39q0 -6 1.5 -23t3.5 -41t4.5 -51.5t4 -54.5t3 -51t1.5 -39v-30.5t-2 -28.5q-6 -66 -11 -119t-18.5 -94t-41 -70t-77.5 -47q-39 1 -78 2.5t-74 5t-66 11t-54 21.5q-57 12 -78 88q1 121 5 243t12 250q-1 12 -12 21.5t-23.5 18
t-23 16t-10.5 16.5q0 17 11.5 29.5t27.5 21t32 12.5t25 4q30 0 44.5 -15t14.5 -30q0 -4 -2 -10t-4 -13t-4 -12.5t-2 -8.5q-5 -42 -9 -99.5t-6 -130.5q-2 -91 -6.5 -151t-4.5 -90q0 -60 58 -91q23 -10 72 -18t124 -16q123 46 123 247q0 6 -1 38.5t-3 92.5q-1 15 -8 45.5
t-15 65.5t-14.5 67.5t-6.5 51.5q0 29 9 49t42 20h12.5t14 -2.5t15.5 -8.5t17 -19zM230 932q9 19 28 19q15 0 30 -13.5t30 -35t28 -49t23 -54.5q-2 -6 -13 -17.5t-25 -11.5q-11 0 -16 2.5t-10.5 12t-15.5 27.5t-31 48q-28 41 -28 72z" />
    <glyph glyph-name="Uacute" unicode="&#xda;" horiz-adv-x="599" 
d="M576 698q1 -5 2 -9t1 -8t-6.5 -17t-18.5 -39q0 -6 1.5 -23t3.5 -41t4.5 -51.5t4 -54.5t3 -51t1.5 -39v-30.5t-2 -28.5q-6 -66 -11 -119t-18.5 -94t-41 -70t-77.5 -47q-39 1 -78 2.5t-74 5t-66 11t-54 21.5q-57 12 -78 88q1 121 5 243t12 250q-1 12 -12 21.5t-23.5 18
t-23 16t-10.5 16.5q0 17 11.5 29.5t27.5 21t32 12.5t25 4q30 0 44.5 -15t14.5 -30q0 -4 -2 -10t-4 -13t-4 -12.5t-2 -8.5q-5 -42 -9 -99.5t-6 -130.5q-2 -91 -6.5 -151t-4.5 -90q0 -60 58 -91q23 -10 72 -18t124 -16q123 46 123 247q0 6 -1 38.5t-3 92.5q-1 15 -8 45.5
t-15 65.5t-14.5 67.5t-6.5 51.5q0 29 9 49t42 20h12.5t14 -2.5t15.5 -8.5t17 -19zM369 932q0 -31 -28 -72q-21 -30 -31 -48t-15.5 -27.5t-10.5 -12t-16 -2.5q-14 0 -25 11.5t-13 17.5q10 27 23 54.5t28 49t30 35t30 13.5q18 0 28 -19z" />
    <glyph glyph-name="Yacute" unicode="&#xdd;" horiz-adv-x="578" 
d="M557 692q1 -3 1 -9q0 -19 -12.5 -36.5t-23.5 -33.5q-5 -45 -18 -97.5t-35.5 -103.5t-55.5 -94.5t-78 -69.5q-15 -21 -15 -52q0 -9 2 -24.5t4.5 -31.5t5 -28.5t3.5 -15.5q2 -6 13.5 -14t24 -17t22.5 -18.5t10 -18.5q0 -23 -22 -35t-54 -14q-2 0 -21 1t-55 2q-17 6 -32 13
t-15 27q0 7 7.5 16t16 18.5t16 19.5t7.5 19v2q0 50 -3.5 84.5t-8.5 53.5q-40 22 -76.5 46t-53.5 56q-66 87 -66 186q0 37 9 72q2 6 2 10q0 7 -5.5 18.5t-12.5 23t-12.5 20.5t-5.5 12q0 13 15.5 23.5t38.5 10.5q30 0 42 -22.5t12 -49.5q0 -9 -2 -24t-4 -30.5t-4 -30.5t-2 -24
q0 -42 12 -79t34.5 -64.5t54.5 -43.5t71 -16q19 0 38 8q113 83 113 279q0 33 -3 69q25 35 71 35q35 0 50 -28zM358 932q0 -31 -28 -72q-21 -30 -31 -48t-15.5 -27.5t-10.5 -12t-16 -2.5q-14 0 -25 11.5t-13 17.5q10 27 23 54.5t28 49t30 35t30 13.5q18 0 28 -19z" />
    <glyph glyph-name="agrave" unicode="&#xe0;" horiz-adv-x="451" 
d="M426 51q5 -10 5 -16q0 -35 -106 -35q-5 1 -11.5 7.5t-14.5 13t-15.5 12t-13.5 5.5q-7 0 -13 -3q-87 -50 -121 -50q-29 0 -52 19q-64 33 -64 121q0 9 1 22.5t1.5 28t1.5 28t1 21.5v18.5t-2 16.5q14 48 29.5 86.5t34.5 66t42.5 42t52.5 14.5q6 0 19 -3.5t27.5 -7.5
t27.5 -7.5t19 -3.5q29 0 50 37q49 0 55 -18q0 -11 -11 -24q-11 -10 -17 -23.5t-8 -29.5t-2 -34v-36q0 -112 7 -174.5t40 -69.5q22 -3 37 -24zM282 165q3 54 3 96q0 36 -3 61t-12 41.5t-26 24t-46 7.5q-41 0 -63.5 -25t-33.5 -59.5t-13.5 -70t-2.5 -56.5q0 -25 2.5 -45.5
t10 -35t21 -22.5t36.5 -8h4q14 1 29.5 10t31 22.5t31.5 29t31 30.5zM156 700q9 19 28 19q15 0 30 -13.5t30 -35t28 -49t23 -54.5q-2 -6 -13 -17.5t-25 -11.5q-11 0 -16 2.5t-10.5 12t-15.5 27.5t-31 48q-28 41 -28 72z" />
    <glyph glyph-name="aacute" unicode="&#xe1;" horiz-adv-x="451" 
d="M426 51q5 -10 5 -16q0 -35 -106 -35q-5 1 -11.5 7.5t-14.5 13t-15.5 12t-13.5 5.5q-7 0 -13 -3q-87 -50 -121 -50q-29 0 -52 19q-64 33 -64 121q0 9 1 22.5t1.5 28t1.5 28t1 21.5v18.5t-2 16.5q14 48 29.5 86.5t34.5 66t42.5 42t52.5 14.5q6 0 19 -3.5t27.5 -7.5
t27.5 -7.5t19 -3.5q29 0 50 37q49 0 55 -18q0 -11 -11 -24q-11 -10 -17 -23.5t-8 -29.5t-2 -34v-36q0 -112 7 -174.5t40 -69.5q22 -3 37 -24zM282 165q3 54 3 96q0 36 -3 61t-12 41.5t-26 24t-46 7.5q-41 0 -63.5 -25t-33.5 -59.5t-13.5 -70t-2.5 -56.5q0 -25 2.5 -45.5
t10 -35t21 -22.5t36.5 -8h4q14 1 29.5 10t31 22.5t31.5 29t31 30.5zM295 700q0 -31 -28 -72q-21 -30 -31 -48t-15.5 -27.5t-10.5 -12t-16 -2.5q-14 0 -25 11.5t-13 17.5q10 27 23 54.5t28 49t30 35t30 13.5q18 0 28 -19z" />
    <glyph glyph-name="ae" unicode="&#xe6;" horiz-adv-x="950" 
d="M426 51q5 -10 5 -16q0 -35 -106 -35q-5 1 -11.5 7.5t-14.5 13t-15.5 12t-13.5 5.5q-7 0 -13 -3q-87 -50 -121 -50q-29 0 -52 19q-64 33 -64 121q0 9 1 22.5t1.5 28t1.5 28t1 21.5v18.5t-2 16.5q14 48 29.5 86.5t34.5 66t42.5 42t52.5 14.5q6 0 19 -3.5t27.5 -7.5
t27.5 -7.5t19 -3.5q29 0 50 37q49 0 55 -18q0 -11 -11 -24q-11 -10 -17 -23.5t-8 -29.5t-2 -34v-36q0 -112 7 -174.5t40 -69.5q22 -3 37 -24zM282 165q3 54 3 96q0 36 -3 61t-12 41.5t-26 24t-46 7.5q-41 0 -63.5 -25t-33.5 -59.5t-13.5 -70t-2.5 -56.5q0 -25 2.5 -45.5
t10 -35t21 -22.5t36.5 -8h4q14 1 29.5 10t31 22.5t31.5 29t31 30.5zM930 121q-4 -31 -24.5 -56t-50 -43t-63.5 -27.5t-65 -9.5q-30 0 -69 8t-87 23q-100 71 -100 199q0 89 46 151t143 101q7 0 23.5 2.5t35 6t35 6t23.5 2.5q44 0 72 -34l32 -43q4 -5 5 -12.5t1 -15.5
q0 -22 -11.5 -39.5t-31 -35t-45.5 -37.5t-54 -47q-59 -55 -94 -83.5t-35 -46.5q0 -15 21 -22.5t42 -8.5h-1h18h22t31 1q91 24 109 91q11 17 31 17t30 -13t11 -34zM776 420q-8 2 -14.5 2h-13.5q-49 0 -88.5 -21.5t-67 -53t-42 -68t-14.5 -66.5q0 -22 7 -39t19 -17q2 0 4.5 1
t4.5 2q64 51 218 203q8 13 8 24q0 8 -7 19z" />
    <glyph glyph-name="egrave" unicode="&#xe8;" horiz-adv-x="499" 
d="M479 121q-4 -31 -24.5 -56t-50 -43t-63.5 -27.5t-65 -9.5q-30 0 -69 8t-87 23q-100 71 -100 199q0 89 46 151t143 101q7 0 23.5 2.5t35 6t35 6t23.5 2.5q44 0 72 -34l32 -43q4 -5 5 -12.5t1 -15.5q0 -22 -11.5 -39.5t-31 -35t-45.5 -37.5t-54 -47q-59 -55 -94 -83.5
t-35 -46.5q0 -15 21 -22.5t42 -8.5h-1h18h22t31 1q91 24 109 91q11 17 31 17t30 -13t11 -34zM325 420q-8 2 -14.5 2h-13.5q-49 0 -88.5 -21.5t-67 -53t-42 -68t-14.5 -66.5q0 -22 7 -39t19 -17q2 0 4.5 1t4.5 2q64 51 218 203q8 13 8 24q0 8 -7 19zM180 700q9 19 28 19
q15 0 30 -13.5t30 -35t28 -49t23 -54.5q-2 -6 -13 -17.5t-25 -11.5q-11 0 -16 2.5t-10.5 12t-15.5 27.5t-31 48q-28 41 -28 72z" />
    <glyph glyph-name="FL00E9h" unicode="&#xe9;" horiz-adv-x="499" 
d="M479 121q-1 21 -11 34t-30 13t-31 -17q-18 -67 -109 -91q-18 -1 -31 -1h-22h-18h1q-21 1 -42 8.5t-21 22.5q0 18 35 46.5t94 83.5q28 27 54 47t45.5 37.5t31 35t11.5 39.5q0 8 -1 15.5t-5 12.5l-32 43q-28 34 -72 34q-7 0 -23.5 -2.5t-35 -6t-35 -6t-23.5 -2.5
q-97 -39 -143 -101t-46 -151q0 -128 100 -199q48 -15 87 -23t69 -8q31 0 65 9.5t63.5 27.5t50 43t24.5 56zM339 406q7 -11 7 -19q0 -11 -8 -24q-154 -152 -218 -203q-2 -1 -4.5 -2t-4.5 -1q-12 0 -19 17t-7 39q0 30 14.5 66.5t42 68t67 53t88.5 21.5h13.5t14.5 -2zM326 667
q13 -10 13 -24q0 -16 -15.5 -29t-40 -23t-56 -17.5t-62.5 -11.5q-4 3 -11.5 14t-7.5 25q0 12 3 17t14 8.5t31.5 9t56.5 20.5q32 13 56 13h9.5t9.5 -2z" />
    <glyph glyph-name="ograve" unicode="&#xf2;" horiz-adv-x="399" 
d="M341 407q38 -62 38 -150q0 -46 -10.5 -90t-35.5 -76q-23 -30 -41.5 -48.5t-34 -29t-30.5 -14.5t-32 -5q-93 1 -134 62.5t-41 169.5q0 47 8 89.5t23 82.5q4 13 15.5 29.5t30 31.5t43 25t54.5 10q91 0 147 -87zM267 360q-2 1 -11 10t-21 19.5t-25 19t-23 8.5
q-30 0 -49.5 -20.5t-30 -50.5t-14.5 -63t-4 -58q0 -31 7 -60.5t19.5 -52t30 -36t39.5 -13.5q31 0 52 21t34 51.5t18.5 64t5.5 57.5q0 60 -28 103zM130 700q9 19 28 19q15 0 30 -13.5t30 -35t28 -49t23 -54.5q-2 -6 -13 -17.5t-25 -11.5q-11 0 -16 2.5t-10.5 12t-15.5 27.5
t-31 48q-28 41 -28 72z" />
    <glyph glyph-name="oacute" unicode="&#xf3;" horiz-adv-x="399" 
d="M341 407q38 -62 38 -150q0 -46 -10.5 -90t-35.5 -76q-23 -30 -41.5 -48.5t-34 -29t-30.5 -14.5t-32 -5q-93 1 -134 62.5t-41 169.5q0 47 8 89.5t23 82.5q4 13 15.5 29.5t30 31.5t43 25t54.5 10q91 0 147 -87zM267 360q-2 1 -11 10t-21 19.5t-25 19t-23 8.5
q-30 0 -49.5 -20.5t-30 -50.5t-14.5 -63t-4 -58q0 -31 7 -60.5t19.5 -52t30 -36t39.5 -13.5q31 0 52 21t34 51.5t18.5 64t5.5 57.5q0 60 -28 103zM269 700q0 -31 -28 -72q-21 -30 -31 -48t-15.5 -27.5t-10.5 -12t-16 -2.5q-14 0 -25 11.5t-13 17.5q10 27 23 54.5t28 49
t30 35t30 13.5q18 0 28 -19z" />
    <glyph glyph-name="ugrave" unicode="&#xf9;" horiz-adv-x="423" 
d="M403 444q-3 -58 -3 -115t-5 -114q-5 -63 -28 -113t-57 -83q-33 -11 -67 -24t-59 -13q-27 0 -47 12.5t-33 33t-19.5 47.5t-6.5 56q0 11 2 35.5t4.5 51.5t4.5 51.5t2 36.5q0 17 -2 33t-5 30q-4 3 -13 6t-19 7t-19 10t-13 15q0 44 21 52q4 1 16 4.5t25.5 7.5t25.5 7t18 3
q26 0 38 -24q-1 -11 -2.5 -33.5t-3 -50t-3 -57t-3 -55t-2 -44.5t-0.5 -24q0 -91 42 -133q44 1 71 20t41.5 48.5t19 67t4.5 76.5q0 65 -18 163q0 12 3 24.5t8.5 23t13.5 17t19 6.5q20 0 37 -25l12 -37v0zM142 700q9 19 28 19q15 0 30 -13.5t30 -35t28 -49t23 -54.5
q-2 -6 -13 -17.5t-25 -11.5q-11 0 -16 2.5t-10.5 12t-15.5 27.5t-31 48q-28 41 -28 72z" />
    <glyph glyph-name="uacute" unicode="&#xfa;" horiz-adv-x="423" 
d="M403 444q-3 -58 -3 -115t-5 -114q-5 -63 -28 -113t-57 -83q-33 -11 -67 -24t-59 -13q-27 0 -47 12.5t-33 33t-19.5 47.5t-6.5 56q0 11 2 35.5t4.5 51.5t4.5 51.5t2 36.5q0 17 -2 33t-5 30q-4 3 -13 6t-19 7t-19 10t-13 15q0 44 21 52q4 1 16 4.5t25.5 7.5t25.5 7t18 3
q26 0 38 -24q-1 -11 -2.5 -33.5t-3 -50t-3 -57t-3 -55t-2 -44.5t-0.5 -24q0 -91 42 -133q44 1 71 20t41.5 48.5t19 67t4.5 76.5q0 65 -18 163q0 12 3 24.5t8.5 23t13.5 17t19 6.5q20 0 37 -25l12 -37v0zM281 700q0 -31 -28 -72q-21 -30 -31 -48t-15.5 -27.5t-10.5 -12
t-16 -2.5q-14 0 -25 11.5t-13 17.5q10 27 23 54.5t28 49t30 35t30 13.5q18 0 28 -19z" />
    <glyph glyph-name="yacute" unicode="&#xfd;" horiz-adv-x="471" 
d="M447 438q-3 -5 -12 -9.5t-18.5 -9.5t-18.5 -10.5t-12 -11.5v-86t-1 -204q0 -88 2.5 -159.5t7.5 -128.5q-5 -34 -21.5 -48t-48.5 -14q-26 0 -47.5 9.5t-21.5 32.5q0 16 8.5 24.5t18.5 17.5t19 21t11 34v6q0 15 -3 60q-11 22 -44 22h-9t-10 -2h-19q-45 0 -81 14t-62 39
t-40 58.5t-14 72.5v5q0 18 5.5 51t12.5 68t13 65.5t7 42.5q-2 4 -10 11t-16.5 15t-15.5 16t-7 14q0 18 19.5 26t38.5 10h60q5 -3 17 -12t12 -22q0 -26 -17 -62q-17 -37 -25 -69t-11 -57.5t-3 -43.5v-26q0 -91 55 -130q40 -8 54 -8q39 0 59.5 22t29.5 55t9.5 71t0.5 70v30
q0 29 -1 66t-4 83q13 14 30.5 22t43.5 8q9 0 20 -1t20.5 -4t16 -9t6.5 -17q0 -4 -1 -8.5t-3 -9.5zM305 700q0 -31 -28 -72q-21 -30 -31 -48t-15.5 -27.5t-10.5 -12t-16 -2.5q-14 0 -25 11.5t-13 17.5q10 27 23 54.5t28 49t30 35t30 13.5q18 0 28 -19z" />
    <glyph glyph-name="FL02C6h" unicode="&#x2c6;" horiz-adv-x="434" 
d="M412 481q-14 -34 -49 -49q-49 5 -70 63q-14 38 -27 61t-23 31l-18 -5q-11 -18 -25.5 -42.5t-31 -47t-33.5 -38.5t-33 -16q1 0 -11.5 2.5t-28.5 10t-29 21t-13 34.5q0 19 10 28.5t31 15.5q24 5 38 11.5t23.5 15.5t17.5 22t19 32q20 34 32 52.5t20 26.5t14.5 9.5t16.5 1.5
q11 0 20 -4q12 -20 37.5 -62t52.5 -89q9 -14 19.5 -20.5t20 -12t16 -12.5t6.5 -21q0 -5 -0.5 -9.5t-1.5 -9.5z" />
    <glyph glyph-name="FL02DCh" unicode="&#x2dc;" horiz-adv-x="364" 
d="M340 462q-10 -30 -36.5 -54.5t-56.5 -28.5h-9q-53 0 -117 61h-4q-7 0 -17.5 -4t-21 -8.5t-19 -8.5t-12.5 -4q-7 0 -17 7.5t-10 23.5q0 19 13.5 34t31.5 25t34.5 15t22.5 5q12 0 24.5 -4t40.5 -27q12 -10 22 -15.5t19 -5.5t18.5 6.5t19.5 14t20 14t21 6.5q20 0 28.5 -13.5
t8.5 -24.5q0 -9 -4 -14z" />
    <glyph glyph-name="endash" unicode="&#x2013;" horiz-adv-x="599" 
d="M575 245q4 -8 4 -16q0 -18 -21.5 -29.5t-52.5 -11.5q-2 0 -11 1t-21 2.5t-25 2.5t-25 1h-10.5t-9.5 -1q-2 0 -85 3.5t-251 11.5q-47 25 -47 42q0 12 16 23t48 11q9 0 19.5 -1t22.5 -3q12 0 24.5 0.5t26.5 0.5q27 0 57.5 -1t65.5 -3q174 -9 175 -9q3 0 16 -1.5t29 -4.5
t31.5 -7.5t23.5 -10.5z" />
    <glyph glyph-name="emdash" unicode="&#x2014;" horiz-adv-x="828" 
d="M801 245q7 -7 7 -16q0 -16 -30 -28.5t-76 -12.5q-3 0 -14 1t-26 2.5t-33 2.5t-34 1h-15t-14 -1q-2 0 -126.5 3.5t-376.5 11.5q-43 14 -43 34q0 14 19 27t70 13h19.5t21.5 -2q17 0 36.5 0.5t39.5 0.5q41 0 87 -1t98 -3q261 -9 262 -9q4 0 19.5 -1.5t35.5 -4t40.5 -7
t32.5 -11.5z" />
    <glyph glyph-name="quoteleft" unicode="&#x2018;" horiz-adv-x="158" 
d="M20 557q0 15 6 40t13 48.5t12.5 40t5.5 15.5q14 20 30 20q14 0 23.5 -9.5t9.5 -23.5q0 -9 -5.5 -18t-5.5 -17q0 -6 4.5 -15t10 -18t10 -18t4.5 -15q0 -9 -6.5 -18.5t-17 -17t-23.5 -12t-27 -4.5q-31 0 -44 22z" />
    <glyph glyph-name="quoteright" unicode="&#x2019;" horiz-adv-x="158" 
d="M138 694q0 -31 -13 -74q-13 -36 -19.5 -54.5t-11 -26t-9 -8t-13.5 -0.5q-14 0 -24 8.5t-10 24.5q0 10 6 18t6 16q0 7 -4.5 16t-10.5 18t-10.5 17.5t-4.5 14.5q0 9 6.5 18.5t17 17t23.5 12.5t27 5q31 0 44 -23z" />
    <glyph glyph-name="quotesinglbase" unicode="&#x201a;" horiz-adv-x="158" 
d="M138 77q0 -31 -13 -74q-13 -36 -19.5 -54.5t-11 -26t-9 -8t-13.5 -0.5q-14 0 -24 8.5t-10 24.5q0 10 6 18t6 16q0 7 -4.5 16t-10.5 18t-10.5 17.5t-4.5 14.5q0 9 6.5 18.5t17 17t23.5 12.5t27 5q31 0 44 -23z" />
    <glyph glyph-name="quotedblleft" unicode="&#x201c;" horiz-adv-x="308" 
d="M20 557q0 15 6 40t13 48.5t12.5 40t5.5 15.5q14 20 30 20q14 0 23.5 -9.5t9.5 -23.5q0 -9 -5 -18t-5 -17q0 -6 4.5 -15t9.5 -18t9.5 -18t4.5 -15q0 -9 -6.5 -18.5t-17 -17t-23.5 -12t-27 -4.5q-31 0 -44 22zM163 566q-1 4 -1 12q0 10 5.5 31t14.5 43t21.5 38.5t26.5 16.5
q27 0 27 -31q-1 -8 -1 -14v-11q0 -10 1 -10q0 1 4.5 -5t10.5 -15t11 -18.5t5 -15.5q0 -27 -37 -45h-51q-29 3 -37 24z" />
    <glyph glyph-name="quotedblright" unicode="&#x201d;" horiz-adv-x="308" 
d="M288 694q0 -14 -3.5 -32.5t-9.5 -41.5q-13 -36 -19.5 -54.5t-11 -26t-9 -8t-13.5 -0.5q-14 0 -24 8.5t-10 24.5q0 6 5 15t5 19q0 7 -4.5 16t-9.5 18t-9.5 17.5t-4.5 14.5q0 9 6.5 18.5t17 17t23.5 12.5t27 5q31 0 44 -23zM145 685q1 -4 1 -12q0 -6 -5 -27.5t-14 -44
t-22 -40.5t-28 -18q-11 0 -18.5 8.5t-7.5 24.5q1 8 1 13.5v10.5q0 9 -1 10q0 -1 -4.5 5t-10.5 15t-11 19t-5 17q0 25 37 43h52q28 -3 36 -24z" />
    <glyph glyph-name="quotedblbase" unicode="&#x201e;" horiz-adv-x="320" 
d="M147 77q0 -31 -13 -74q-13 -36 -19.5 -54.5t-11 -26t-9 -8t-13.5 -0.5q-14 0 -24 8.5t-10 24.5q0 10 6 18t6 16q0 7 -4.5 16t-10.5 18t-10.5 17.5t-4.5 14.5q0 9 6.5 18.5t17 17t23.5 12.5t27 5q31 0 44 -23zM290 77q0 -31 -13 -74q-13 -36 -19.5 -54.5t-11 -26t-9 -8
t-13.5 -0.5q-14 0 -24 8.5t-10 24.5q0 10 6 18t6 16q0 7 -4.5 16t-10.5 18t-10.5 17.5t-4.5 14.5q0 9 6.5 18.5t17 17t23.5 12.5t27 5q31 0 44 -23z" />
    <glyph glyph-name="ellipsis" unicode="&#x2026;" horiz-adv-x="413" 
d="M103 43q0 -32 -9.5 -44t-26.5 -12q-6 0 -14 3t-15.5 8.5t-12.5 13t-5 16.5q0 17 12.5 28.5t34.5 11.5q29 0 36 -25zM248 43q0 -32 -9.5 -44t-26.5 -12q-6 0 -14 3t-15.5 8.5t-12.5 13t-5 16.5q0 17 12.5 28.5t34.5 11.5q29 0 36 -25zM393 43q0 -32 -9.5 -44t-26.5 -12
q-6 0 -14 3t-15.5 8.5t-12.5 13t-5 16.5q0 17 12.5 28.5t34.5 11.5q29 0 36 -25z" />
    <glyph glyph-name="Euro" unicode="&#x20ac;" horiz-adv-x="726" 
d="M602 684q8 -2 20 3q7 3 13 6.5t14 4.5q13 1 18 -5t6 -15t-1.5 -19.5t-4.5 -18.5q-4 -20 -12.5 -37.5t-28.5 -25.5q-18 2 -31 13.5t-25.5 24.5t-26.5 24.5t-32 13.5q-37 3 -70.5 -1.5t-65.5 -24.5q-23 -13 -42 -31t-36 -38l-8 -12t-9.5 -19t-3 -17.5t11.5 -8.5
q14 -1 28.5 -1t28.5 -2q17 -2 32.5 -5.5t31.5 -5.5q32 -2 58 7t39 40q4 10 6.5 15.5t13.5 7.5q5 1 14.5 0t12.5 -7q7 -15 14 -31t10.5 -33t1.5 -34t-12 -33q-15 -16 -32.5 -17.5t-35.5 3t-37 10.5t-38 4q-22 5 -42.5 6t-42.5 3q-11 1 -21.5 1.5t-21.5 1.5q-9 1 -17 3.5
t-15.5 2.5t-14 -3.5t-12.5 -13.5q-5 -8 -6.5 -16.5t-3.5 -17.5q-1 -8 -4 -16.5t-2 -16.5q0 -9 1.5 -20t5.5 -20t11.5 -14t19.5 -3q32 6 66 -3.5t65 -13.5q12 -2 19.5 -2t13.5 2t12 6.5t16 11.5q5 5 9.5 10t10.5 7q6 5 20 1q11 -3 20 -9.5t13 -17.5q3 -24 2 -48.5t-18 -41.5
q-14 -11 -23.5 -12.5t-19 1.5t-19.5 8t-25 7q-24 4 -48 9l-48 10q-5 1 -17 4t-24.5 4.5t-22.5 0t-10 -10.5q1 -4 5 -10t6 -8q7 -9 13 -18t12 -17q24 -34 57 -61q34 -28 73.5 -42t83.5 -9q2 0 3 0.5t3 0.5q24 0 36 17.5t21.5 35.5t23 29t41.5 0q9 -10 21.5 -20.5t21.5 -22
t13 -25t-3 -29.5q-6 -12 -15 -14t-19.5 -0.5t-21.5 4.5t-21 2q-20 -18 -42 -26t-46 -10.5t-49.5 -1t-50.5 2.5q-43 8 -79.5 32t-65.5 55q-16 16 -29 33t-25 35q-6 10 -11 19t-10 19q-4 8 -8 18.5t-9 18.5q-6 11 -23 10.5t-26 -5.5q-9 -7 -14.5 -17t-11.5 -20t-14 -17.5
t-21 -8.5q-10 -1 -16.5 2.5t-11.5 9.5t-8 13.5t-5 14.5q-7 24 -8 48.5t10 47.5q11 13 25 16.5t29 1.5t29.5 -6t28.5 -5q6 -1 8.5 3t4 9.5t1 11.5t-0.5 9q-2 16 2 31.5t6 31.5q1 8 1.5 16t-1.5 16q-3 7 -10 6t-15 -6t-15 -11t-10 -9q-15 -11 -30 -13t-30 12
q-14 19 -15.5 44.5t6.5 46.5q5 14 18 21t25 9q15 4 33 -2.5t32 -9.5q18 -6 33 -6q8 0 15.5 5t13.5 13t11 16.5t9 14.5q12 17 26 33t28 31q29 30 64 52.5t77 27.5h17q21 0 42 -1t41 -6q22 -3 38 -10q11 -4 18.5 -8.5t15.5 -5.5z" />
    </font>
</defs>
</svg>
