<?xml version="1.0" encoding="UTF-8" standalone="no"?>
<!-- Created with Inkscape (http://www.inkscape.org/) -->

<svg
   xmlns:dc="http://purl.org/dc/elements/1.1/"
   xmlns:cc="http://creativecommons.org/ns#"
   xmlns:rdf="http://www.w3.org/1999/02/22-rdf-syntax-ns#"
   xmlns:svg="http://www.w3.org/2000/svg"
   xmlns="http://www.w3.org/2000/svg"
   xmlns:sodipodi="http://sodipodi.sourceforge.net/DTD/sodipodi-0.dtd"
   xmlns:inkscape="http://www.inkscape.org/namespaces/inkscape"
   version="1.1"
   id="svg2"
   xml:space="preserve"
   width="141.47914"
   height="100.59468"
   viewBox="0 0 141.47914 100.59468"
   sodipodi:docname="170014-OWQ554-310.eps"
   inkscape:version="0.92+devel unknown"><metadata
     id="metadata8"><rdf:RDF><cc:Work
         rdf:about=""><dc:format>image/svg+xml</dc:format><dc:type
           rdf:resource="http://purl.org/dc/dcmitype/StillImage" /><dc:title></dc:title></cc:Work></rdf:RDF></metadata><defs
     id="defs6" /><sodipodi:namedview
     pagecolor="#ffffff"
     bordercolor="#666666"
     inkscape:document-rotation="0"
     borderopacity="1"
     objecttolerance="10"
     gridtolerance="10"
     guidetolerance="10"
     inkscape:pageopacity="0"
     inkscape:pageshadow="2"
     inkscape:window-width="1600"
     inkscape:window-height="709"
     id="namedview4"
     showgrid="false"
     fit-margin-top="0"
     fit-margin-left="0"
     fit-margin-right="0"
     fit-margin-bottom="0"
     inkscape:zoom="0.80099998"
     inkscape:cx="430.6626"
     inkscape:cy="17.204013"
     inkscape:window-x="0"
     inkscape:window-y="0"
     inkscape:window-maximized="0"
     inkscape:current-layer="g10" /><g
     id="g10"
     inkscape:groupmode="layer"
     inkscape:label="ink_ext_XXXXXX"
     transform="matrix(1.3333333,0,0,-1.3333333,-66.216318,416.72399)"><g
       id="g12"
       transform="scale(0.1)"><path
         d="m 2771.93,1079.44 -57.78,18.98 c -13.65,4.49 -19.39,20.66 -11.62,32.74 l 62.08,96.54 c 10.76,16.72 -4.49,38 -23.79,33.18 l -96.87,-24.22 c -13.69,-3.42 -27.01,6.78 -27.28,20.89 l -0.46,23.63 c -0.32,16.9 -18.8,27.1 -33.27,18.4 l -30.65,-18.44 c -19.99,-12.03 -42.47,11.3 -29.7,30.83 l 118.58,181.43 c 10.26,15.68 -2.6,36.18 -21.18,33.79 l -33.41,-4.29 c -13.81,-1.78 -25.77,9.59 -24.7,23.47 l 8.21,106.27 c 1.32,17.09 -16.59,29.03 -31.87,21.25 l -109.74,-55.95 c -10.86,-5.54 -24.14,-1.17 -29.6,9.73 l -9.84,19.62 c -8.74,17.44 -34.2,15.66 -40.44,-2.84 l -8.67,-25.73 c -7.58,-22.48 -40.5,-18.63 -42.68,5 l -13.44,145.58 c -1.58,17.11 -21.32,25.86 -35.05,15.54 l -8.17,-6.13 c -9,-6.76 -21.65,-5.61 -29.3,2.64 l -85.07,91.89 0.98,-10.59 -2.96,10.1 -44.49,-117.31 c -3.98,-10.48 -15.22,-16.29 -26.07,-13.46 l -9.99,2.61 c -16.61,4.34 -31.54,-11.21 -26.56,-27.63 l 42.43,-139.71 c 6.9,-22.72 -22.14,-38.7 -37.64,-20.73 l -17.77,20.63 c -12.74,14.77 -36.98,6.84 -38.52,-12.61 l -1.75,-22.06 c -0.96,-12.15 -11.63,-21.19 -23.77,-20.15 l -122.74,10.54 c -17.09,1.47 -29.19,-16.35 -21.52,-31.69 l 47.56,-95.29 c 6.22,-12.45 -0.58,-27.48 -14.03,-31.04 l -32.39,-8.55 c -18.11,-4.79 -22.3,-28.59 -6.91,-39.27 L 1961.56,1208 c 18.67,-12.97 7.76,-42.29 -14.85,-39.88 l -31.69,3.37 c -16.31,1.74 -28.7,-14.38 -22.82,-29.69 l 9.31,-24.29 c 5.05,-13.17 -3.45,-27.63 -17.43,-29.61 l -98.87,-13.99 c -19.7,-2.79 -25.83,-28.25 -9.56,-39.7 l 93.8,-66.038 c 11.76,-8.274 12.53,-25.41 1.57,-34.692 v 0 c -15.75,-13.351 -6.01,-39.039 14.62,-38.718 352.24,5.437 541.31,46.359 886.29,184.678 v 0"
         style="fill:#b06426;fill-opacity:1;fill-rule:evenodd;stroke:none"
         id="path16"
         inkscape:connector-curvature="0" /><path
         d="m 2771.93,1079.44 -53.13,17.46 c -16.01,5.25 -22.74,24.21 -13.61,38.38 l 54.24,84.37 c 12.62,19.62 -5.27,44.56 -27.9,38.9 l -82.97,-20.73 c -16.04,-4.01 -31.67,7.94 -31.98,24.48 l -0.24,12.33 c -0.38,19.8 -22.04,31.78 -39.02,21.57 l -10.85,-6.53 c -23.44,-14.1 -49.79,13.25 -34.83,36.15 l 105.03,160.69 c 12.02,18.4 -3.04,42.44 -24.83,39.63 l -20.64,-2.64 c -16.19,-2.08 -30.21,11.24 -28.95,27.52 l 7.32,94.87 c 1.54,20.05 -19.45,34.06 -37.37,24.93 l -100.32,-51.14 c -12.73,-6.5 -28.31,-1.38 -34.71,11.39 l -4.05,8.08 c -10.26,20.46 -40.11,18.37 -47.42,-3.31 l -0.05,-0.15 c -8.89,-26.36 -47.49,-21.85 -50.04,5.86 l -11.18,120.99 c -1.85,20.07 -24.99,30.32 -41.11,18.22 v 0 c -10.55,-7.92 -25.38,-6.58 -34.35,3.1 l -82.75,89.38 0.98,-10.59 -2.96,10.1 -2.46,-6.4 184.55,-907.729 c 2.84,-13.949 16.48,-23.062 30.41,-20.101 132.74,28.199 264.9,72.57 435.19,140.92 v 0"
         style="fill:#352316;fill-opacity:1;fill-rule:evenodd;stroke:none"
         id="path18"
         inkscape:connector-curvature="0" /><path
         d="m 2373.61,1019.08 c 106.91,46.57 172.94,79.08 285.54,148.81 l 20.45,11.83 c -90.92,-80.07 -197.6,-131.06 -306.25,-180.579 -52.47,-24.153 -42.62,-31.539 -36.95,-60.371 9.86,-49.52 19.72,-121.461 8.88,-125.399 -29.07,-10.34 -35.73,74.41 -39.43,124.418 -2.47,34 -5.16,34 -69.96,30.551 -109.87,-6.16 -218.51,-8.379 -327.17,17.492 l 23.65,-0.73 c 131.06,-8.633 204.49,-6.661 318.8,2.199 45.33,3.461 55.68,-7.129 48.28,24.639 -10.6,44.85 -209.41,213.6 -253.76,245.14 -54.68,38.68 -92.87,72.42 -141.65,117.51 50.25,-38.18 93.86,-74.64 146.59,-110.12 115.79,-77.86 143.61,-111.85 209.89,-183.04 36.47,-39.18 35.49,-44.35 19.97,8.86 -20.71,71.44 -42.14,144.61 -40.66,230.36 1.48,94.59 -15.52,94.11 -30.55,188.22 -8.62,54.2 -15.04,96.33 -11.57,151.77 7.88,-54.46 9.35,-91.91 20.44,-149.8 17.98,-94.11 35.24,-93.37 35.48,-188.48 0,-84.24 22.18,-155.94 43.85,-225.91 16.01,-52.72 11.82,-55.19 23.4,0.74 19.95,96.08 25.88,139.45 84.5,266.56 26.62,57.66 45.08,111.61 67.99,170.25 -18.22,-64.06 -33.26,-112.59 -59.86,-173.94 -24.63,-56.91 -104.21,-297.61 -91.14,-350.82 4.68,-19.72 31.28,1.22 51.24,9.84 v 0"
         style="fill:#352316;fill-opacity:1;fill-rule:evenodd;stroke:none"
         id="path20"
         inkscape:connector-curvature="0" /><path
         d="m 3375.77,841.711 -46.24,39.668 c -10.9,9.34 -10.02,26.449 1.76,34.652 l 94.27,65.5 c 16.32,11.348 10.34,36.819 -9.33,39.709 l -98.95,14.54 c -13.95,2.05 -22.37,16.53 -17.24,29.67 l 8.67,22.21 c 6.14,15.73 -7.05,32.2 -23.74,29.65 l -35.5,-5.41 c -23.03,-3.52 -34.94,26.57 -15.72,39.75 l 178.94,122.86 c 15.42,10.59 11.35,34.4 -6.72,39.26 l -32.51,8.74 c -13.43,3.6 -20.15,18.64 -13.89,31.05 l 48.09,95.25 c 7.71,15.29 -4.29,33.13 -21.37,31.74 l -122.77,-10.04 c -12.14,-0.99 -22.76,8.09 -23.67,20.23 l -1.64,22.16 c -1.43,19.42 -25.59,27.47 -38.4,12.79 l -18.18,-20.86 c -15.58,-17.86 -44.47,-1.75 -37.49,20.88 l 43.16,139.82 c 5.06,16.38 -9.8,31.98 -26.42,27.7 l -9.89,-2.55 c -10.87,-2.79 -22.11,3.08 -26.02,13.61 l -43.62,117.47 -3.2,-10.1 1,10.34 -85.57,-91.52 c -7.66,-8.19 -20.28,-9.29 -29.23,-2.52 l -8.41,6.36 c -13.68,10.33 -33.4,1.68 -35.05,-15.39 l -14.08,-145.65 c -2.29,-23.59 -35.17,-27.29 -42.65,-4.81 l -8.66,26.08 c -6.15,18.48 -31.54,20.38 -40.36,3.02 l -10.04,-19.75 c -5.52,-10.85 -18.82,-15.12 -29.63,-9.53 L 2666,1624.92 c -15.22,7.87 -33.18,-3.95 -31.96,-21.04 l 7.6,-106.34 c 0.99,-13.87 -11,-25.14 -24.78,-23.3 l -33.37,4.45 c -18.54,2.47 -31.47,-17.92 -21.32,-33.63 l 113.43,-175.72 c 12.32,-19.09 -8.93,-42.01 -28.89,-31.18 l -28.31,15.38 c -14.4,7.81 -31.97,-2.36 -32.38,-18.74 l -0.65,-26.08 c -0.35,-14.09 -13.71,-24.2 -27.36,-20.7 l -96.73,24.76 c -19.25,4.93 -34.61,-16.26 -23.93,-33.02 l 61.64,-96.82 c 7.71,-12.11 1.9,-28.24 -11.76,-32.65 v 0 c -19.62,-6.32 -20.41,-33.75 -1.24,-41.31 327.68,-129.32 518.16,-163.55 889.78,-167.269 v 0"
         style="fill:#ea2f21;fill-opacity:1;fill-rule:evenodd;stroke:none"
         id="path22"
         inkscape:connector-curvature="0" /><path
         d="m 3375.77,841.711 -42.51,36.461 c -12.78,10.969 -11.76,31.047 2.06,40.66 l 82.36,57.219 c 19.15,13.32 12.12,43.199 -10.95,46.589 l -84.73,12.45 c -16.37,2.4 -26.24,19.4 -20.22,34.81 l 4.54,11.63 c 7.2,18.45 -8.27,37.79 -27.85,34.8 l -12.6,-1.93 c -27.02,-4.13 -40.99,31.17 -18.45,46.65 l 158.48,108.8 c 18.1,12.43 13.32,40.36 -7.88,46.06 l -20.05,5.39 c -15.76,4.23 -23.64,21.87 -16.29,36.43 l 42.92,85.03 c 9.06,17.94 -5.03,38.87 -25.06,37.24 l -112.22,-9.18 c -14.23,-1.16 -26.69,9.49 -27.75,23.74 l -0.68,9.27 c -1.69,22.79 -30.03,32.23 -45.05,15.01 l -0.43,-0.5 c -18.27,-20.95 -52.18,-2.06 -43.98,24.5 l 35.87,116.19 c 5.93,19.23 -11.51,37.52 -30.99,32.51 v 0 c -12.77,-3.28 -25.94,3.61 -30.53,15.96 l -42.43,114.26 -3.2,-10.1 1,10.34 -4.44,-4.92 -175.46,-909.658 c -2.69,-13.973 6.44,-27.59 20.44,-30.152 133.34,-24.461 272.58,-33.719 456.08,-35.559 v 0"
         style="fill:#d52424;fill-opacity:1;fill-rule:evenodd;stroke:none"
         id="path24"
         inkscape:connector-curvature="0" /><path
         d="m 2966.05,945.422 c 116.53,2.226 189.97,7.387 320.52,28.828 l 23.66,3.211 c -114.8,-39.43 -232.57,-46.082 -352.05,-50.512 -57.91,-2.211 -51.25,-12.808 -57.16,-41.64 -9.87,-49.52 -28.07,-119.989 -39.67,-119.477 -30.79,1.469 -4.69,82.52 11.1,130.078 10.6,32.52 8.13,33.5 -53.22,54.93 -103.72,36.219 -204.97,75.64 -295.63,141.17 l 21.43,-9.85 c 117.75,-57.89 186.5,-84.262 295.62,-119.48 43.38,-14.051 48.78,-27.848 53.98,4.429 7.36,45.581 -112.11,277.401 -141.18,323.231 -35.72,56.66 -58.14,102.24 -85.99,162.6 31.78,-54.2 58.15,-104.71 93.38,-157.68 77.35,-116.03 90.15,-157.92 124.41,-249.07 18.73,-50.26 16,-54.69 21.92,0.49 7.9,73.91 16.03,149.8 50.02,228.62 37.44,86.73 21.68,92.89 43.61,185.52 12.57,53.47 22.91,94.61 47.29,144.62 -13.78,-53.21 -26.61,-88.45 -38.43,-146.08 -19.21,-93.87 -2.96,-99.79 -38.93,-187.75 -32.03,-78.09 -38.9,-152.74 -45.81,-225.66 -4.93,-54.95 -9.85,-55.43 22.17,-8.13 54.94,81.29 77.11,118.99 179.84,214.08 46.56,43.13 84.02,85.99 127.63,131.57 -41.15,-52.24 -73.68,-91.41 -121.71,-138.22 -44.35,-43.11 -209.91,-235.27 -218.03,-289.48 -2.97,-19.95 29.56,-10.84 51.23,-10.348 v 0"
         style="fill:#352316;fill-opacity:1;fill-rule:evenodd;stroke:none"
         id="path26"
         inkscape:connector-curvature="0" /><path
         d="m 3894.12,4284.83 c 118.99,-42.12 75.64,-42.12 194.62,0 258.44,91.89 413.65,-123.67 369.06,-412.91 -44.6,-289.23 -183.53,-448.14 -457.23,-413.16 -3.23,0.25 -6.17,0.74 -9.13,1.23 -2.95,-0.49 -5.9,-0.98 -8.87,-1.23 -273.7,-34.98 -412.9,123.93 -457.49,413.16 -44.34,289.24 110.62,504.8 369.04,412.91 v 0"
         style="fill:#d52424;fill-opacity:1;fill-rule:evenodd;stroke:none"
         id="path28"
         inkscape:connector-curvature="0" /><path
         d="m 3894.12,4284.83 c 118.99,-42.12 75.64,-42.12 194.62,0 152.02,54.21 268.29,1.73 329.14,-109.38 -67.24,-331.12 -359.93,-580.2 -710.99,-580.2 -29.31,0 -58.14,1.72 -86.72,5.17 -47.05,68.98 -77.84,160.63 -95.09,271.5 -44.34,289.24 110.62,504.8 369.04,412.91 v 0"
         style="fill:#ea2f21;fill-opacity:1;fill-rule:evenodd;stroke:none"
         id="path30"
         inkscape:connector-curvature="0" /><path
         d="m 4197.9,4422.05 c -4.45,-46.55 -34.99,-88.44 -82.04,-105.19 -46.82,-16.51 -97.08,-3.45 -129.84,29.82 4.45,46.56 35.23,88.44 82.03,105.19 46.82,16.51 97.09,3.45 129.85,-29.82 v 0"
         style="fill:#6f441f;fill-opacity:1;fill-rule:evenodd;stroke:none"
         id="path32"
         inkscape:connector-curvature="0" /><path
         d="m 4197.9,4422.05 c -1.73,-17.97 -7.4,-35.47 -16.53,-50.99 -24.87,-18.97 -56.4,-30.55 -90.9,-30.55 -37.69,0 -72.17,13.8 -97.8,35.97 12.08,34 38.68,62.33 75.38,75.39 46.82,16.51 97.09,3.45 129.85,-29.82 v 0"
         style="fill:#945d29;fill-opacity:1;fill-rule:evenodd;stroke:none"
         id="path34"
         inkscape:connector-curvature="0" /><path
         d="m 3685.96,4155.73 c 31.04,0 55.61,-26.69 52.14,-58.46 -2.62,-23.95 -22.3,-43.6 -46.25,-46.17 -31.75,-3.41 -58.38,21.15 -58.38,52.16 0,29.06 23.41,52.47 52.49,52.47 v 0"
         style="fill:#ffffff;fill-opacity:1;fill-rule:evenodd;stroke:none"
         id="path36"
         inkscape:connector-curvature="0" /><path
         d="m 3990.69,4253.3 c -1.22,102.48 -30.05,188.47 -115.79,267.8 -19.45,15.77 29.82,64.79 51.74,33.51 55.68,-69.24 87.71,-183.3 85.01,-298.11 -8.14,-2.22 -14.31,-3.45 -20.96,-3.2 v 0"
         style="fill:#352316;fill-opacity:1;fill-rule:evenodd;stroke:none"
         id="path38"
         inkscape:connector-curvature="0" /><path
         d="m 2584.72,3966.78 c 24.14,136.73 -76.37,289.97 -370.29,425.96 0,0 -2.7,-63.56 -76.36,-300.56 -106.19,-341.47 395.9,-414.4 446.65,-125.4 v 0"
         style="fill:#ad1b29;fill-opacity:1;fill-rule:evenodd;stroke:none"
         id="path40"
         inkscape:connector-curvature="0" /><path
         d="m 2214.43,4392.74 c 0,0 -2.7,-63.56 -76.36,-300.56 -64.05,-205.72 92.87,-313.88 238.72,-304.26 10.1,379.89 -162.36,604.82 -162.36,604.82 v 0"
         style="fill:#761734;fill-opacity:1;fill-rule:evenodd;stroke:none"
         id="path42"
         inkscape:connector-curvature="0" /><path
         d="m 2401.67,3720.16 c -6.41,56.17 -10.84,117.27 -17.5,178.86 0.75,0.99 1.24,1.72 1.74,2.71 20.94,49.28 105.43,68.49 155.94,85.98 -50.99,-1.97 -124.66,-20.45 -161.12,-58.63 -3.94,32.77 -8.87,65.53 -15.02,97.56 1.71,0.74 3.2,2.22 3.94,3.94 17.24,41.14 87.45,57.41 129.33,72.19 -44.34,-1.97 -109.63,-18.97 -137.96,-54.21 -7.88,36.23 -17.98,71.21 -31.04,103.97 9.37,19.71 43.85,27.84 64.54,34.99 -21.93,-0.98 -53.46,-9.12 -68.23,-25.87 -4.19,9.85 -8.87,19.46 -13.56,29.07 -15.52,30.05 -17.23,25.37 -31.78,52.23 5.42,-33.02 8.38,-24.15 21.43,-56.91 5.18,-12.81 9.87,-25.62 14.06,-38.43 -18.74,9.85 -47.8,10.34 -67.27,6.65 22.18,-2.47 58.39,-2.47 71.45,-20.7 v 0 c 10.6,-35.97 18.23,-73.17 23.9,-110.86 -37.2,20.44 -95.35,21.18 -134.27,14.04 41.63,-4.68 108.39,-4.93 137.47,-35.72 4.68,-36.22 7.89,-73.17 10.35,-109.88 -44.35,25.87 -116.04,27.34 -164.08,18.97 50.51,-5.92 131.31,-6.9 165.8,-44.35 3.2,-50.26 5.42,-100.52 9.61,-149.05 0.99,-8.87 9.11,-15.52 17.99,-14.53 8.86,0.98 15.27,9.11 14.28,17.98 v 0"
         style="fill:#352316;fill-opacity:1;fill-rule:evenodd;stroke:none"
         id="path44"
         inkscape:connector-curvature="0" /><path
         d="m 2647.78,3677.29 c -24.14,136.73 76.38,289.97 370.29,425.97 0,0 2.71,-63.32 76.36,-300.32 106.19,-341.47 -395.89,-414.39 -446.65,-125.65 v 0"
         style="fill:#f2541b;fill-opacity:1;fill-rule:evenodd;stroke:none"
         id="path46"
         inkscape:connector-curvature="0" /><path
         d="m 3018.07,4103.26 c 0,0 2.71,-63.32 76.36,-300.32 64.07,-205.72 -92.88,-313.88 -238.72,-304.27 -10.1,379.66 162.36,604.59 162.36,604.59 v 0"
         style="fill:#e34c1e;fill-opacity:1;fill-rule:evenodd;stroke:none"
         id="path48"
         inkscape:connector-curvature="0" /><path
         d="m 2830.83,3430.68 c 6.4,56.17 10.85,117.51 17.49,179.1 -0.73,0.74 -1.22,1.73 -1.72,2.71 -20.94,49.28 -105.44,68.25 -155.95,85.74 51,-1.97 124.66,-20.2 161.13,-58.63 3.93,32.76 8.86,65.53 15.03,97.56 -1.74,0.98 -3.21,2.46 -3.94,4.18 -17.26,41.15 -87.46,57.41 -129.35,72.2 44.35,-1.98 109.63,-18.98 137.96,-54.46 7.88,36.22 17.99,71.21 31.05,103.97 -9.37,19.71 -43.86,27.84 -64.56,35.23 21.94,-0.99 53.47,-9.36 68.25,-26.11 4.19,9.85 8.88,19.7 13.55,29.07 15.52,30.05 17.24,25.37 31.79,52.23 -5.43,-32.77 -8.39,-23.89 -21.44,-56.92 -5.19,-12.56 -9.87,-25.37 -14.05,-38.43 18.73,10.1 47.81,10.35 67.27,6.9 -22.18,-2.71 -58.41,-2.71 -71.45,-20.94 v 0 c -10.59,-35.96 -18.24,-72.92 -23.9,-110.62 37.2,20.2 95.35,21.19 134.27,13.8 -41.65,-4.68 -108.41,-4.93 -137.47,-35.48 -4.68,-36.46 -7.89,-73.17 -10.36,-110.13 44.37,26.12 116.04,27.6 163.83,18.97 -50.24,-5.91 -131.05,-6.65 -165.55,-44.09 -3.2,-50.5 -5.42,-100.52 -9.6,-149.3 -0.98,-8.87 -9.13,-15.28 -17.98,-14.29 -8.88,0.99 -15.28,8.87 -14.3,17.74 v 0"
         style="fill:#352316;fill-opacity:1;fill-rule:evenodd;stroke:none"
         id="path50"
         inkscape:connector-curvature="0" /><path
         d="m 2593.1,4094.88 c -36.46,83.27 3.7,196.6 170.23,328.66 0,0 11.34,-39.91 95.1,-179.6 C 2978.9,4042.9 2670.2,3918.48 2593.1,4094.88 v 0"
         style="fill:#945d29;fill-opacity:1;fill-rule:evenodd;stroke:none"
         id="path52"
         inkscape:connector-curvature="0" /><path
         d="m 2763.33,4423.54 c 0,0 11.34,-39.91 95.1,-179.6 72.67,-121.22 -10.59,-214.35 -105.2,-230.85 -65.04,240.46 10.1,410.45 10.1,410.45 v 0"
         style="fill:#6f441f;fill-opacity:1;fill-rule:evenodd;stroke:none"
         id="path54"
         inkscape:connector-curvature="0" /><path
         d="m 2748.07,3966.04 c -4.68,36.7 -11.34,76.37 -16.52,116.77 -0.74,0.25 -1.23,0.74 -1.73,1.48 -20.93,28.09 -77.6,27.1 -112.57,30.55 32.76,6.65 82.52,6.41 111.84,-12.57 -2.7,21.69 -4.69,43.36 -5.66,64.55 -1.24,0.25 -2.46,0.99 -3.21,1.97 -17.25,23.66 -64.54,23.16 -93.62,26.12 28.83,5.42 72.93,4.68 96.32,-13.31 -0.47,24.14 0.51,48.05 3.94,70.96 -9.11,11.33 -32.25,11.08 -46.56,12.57 14.05,2.7 35.48,2.46 47.54,-6.17 1,7.15 2.48,13.8 3.97,20.7 5.16,21.68 7.13,18.72 12.05,38.18 1.73,-21.68 -1.47,-16.5 -4.92,-39.66 -1.23,-8.87 -2.21,-17.74 -2.71,-26.6 10.35,9.36 28.83,14.04 41.87,14.77 -13.78,-4.92 -36.94,-10.59 -42.36,-24.39 h -0.25 c -0.99,-24.64 -0.25,-49.27 1.98,-74.15 20.69,18.73 57.39,28.08 83.51,29.57 -25.87,-9.37 -68.24,-19.96 -82.04,-43.86 2.47,-23.9 6.17,-48.05 10.35,-71.94 24.39,23.65 69.72,35.72 101.5,37.7 -31.03,-11.58 -82.53,-24.65 -98.54,-53.96 5.66,-32.52 11.82,-64.79 16.75,-96.58 0.98,-5.91 -3.21,-11.08 -9.11,-12.07 -5.93,-0.74 -11.08,3.45 -11.82,9.37 v 0"
         style="fill:#352316;fill-opacity:1;fill-rule:evenodd;stroke:none"
         id="path56"
         inkscape:connector-curvature="0" /><path
         d="m 537.219,3854.68 c -45.09,210.64 192.894,212.86 208.418,327.66 5.668,41.64 9.363,67.02 11.574,82.54 7.887,-13.56 20.699,-35.73 41.394,-72.19 57.645,-100.51 279.125,-13.06 316.325,-225.43 56.41,-322.49 -508.735,-432.62 -577.711,-112.58 v 0"
         style="fill:#352316;fill-opacity:1;fill-rule:evenodd;stroke:none"
         id="path58"
         inkscape:connector-curvature="0" /><path
         d="m 635.758,3998.31 c 16.258,3.2 32.031,-7.39 35.234,-23.66 2.949,-16.25 -7.64,-32.02 -23.902,-35.23 -16.262,-3.19 -32.027,7.4 -35.231,23.66 -3.203,16.26 7.387,32.02 23.899,35.23 v 0"
         style="fill:#ffffff;fill-opacity:1;fill-rule:evenodd;stroke:none"
         id="path60"
         inkscape:connector-curvature="0" /><path
         d="m 980.172,3991.65 c 20.938,291.21 331.598,203.75 395.408,347.39 23.15,51.73 37.2,83.51 46.07,102.73 5.18,-20.7 13.3,-54.45 26.61,-109.39 36.95,-152.75 358.2,-122.94 326.18,-413.16 -48.78,-441 -826.049,-370.04 -794.268,72.43 v 0"
         style="fill:#b06426;fill-opacity:1;fill-rule:evenodd;stroke:none"
         id="path62"
         inkscape:connector-curvature="0" /><path
         d="m 1732.31,3789.63 c -151.02,-255.73 -640.29,-209.17 -736.372,73.42 68.492,38.68 210.142,56.91 371.262,42.13 168.27,-15.28 309.44,-62.08 365.11,-115.55 v 0"
         style="fill:#e1a766;fill-opacity:1;fill-rule:evenodd;stroke:none"
         id="path64"
         inkscape:connector-curvature="0" /><path
         d="m 1715.81,3764.5 c -161.13,-219.02 -593.98,-177.87 -708.29,69.73 72.68,33.5 206.21,48.29 356.23,34.73 156.45,-14.28 289.23,-55.67 352.06,-104.46 v 0"
         style="fill:#b7551e;fill-opacity:1;fill-rule:evenodd;stroke:none"
         id="path66"
         inkscape:connector-curvature="0" /><path
         d="m 1634.99,4123.46 c 22.43,-1.97 38.94,-21.68 36.96,-44.1 -1.97,-22.42 -21.93,-38.93 -44.34,-36.95 -22.18,2.21 -38.68,21.93 -36.71,44.34 1.97,22.43 21.93,38.93 44.09,36.71 v 0"
         style="fill:#ffffff;fill-opacity:1;fill-rule:evenodd;stroke:none"
         id="path68"
         inkscape:connector-curvature="0" /><path
         d="m 4258.11,1484.87 c -3.69,22.18 -14.77,39.68 -26.85,45.1 -9.6,-9.12 -14.28,-29.32 -10.34,-51.26 3.7,-22.17 14.53,-39.66 26.6,-45.08 9.86,9.11 14.29,29.32 10.59,51.24 v 0"
         style="fill:#d52424;fill-opacity:1;fill-rule:evenodd;stroke:none"
         id="path100"
         inkscape:connector-curvature="0" /><path
         d="m 4178.79,1544.01 c 82.29,-15.28 137.23,0.98 199.8,-25.62 v -4.69 c -78.59,19.72 -210.39,0.26 -217.05,25.37 -0.74,3.95 2.72,7.64 7.64,8.38 3.94,0.5 7.64,-0.97 9.61,-3.44 v 0"
         style="fill:#432a16;fill-opacity:1;fill-rule:evenodd;stroke:none"
         id="path102"
         inkscape:connector-curvature="0" /><path
         d="m 4403.72,1475.03 c 6.89,-22.67 4.93,-44.6 -4.19,-55.68 -13.54,4.18 -27.34,21.18 -34.25,44.1 -6.65,21.68 -4.93,42.61 2.96,53.94 -3.93,13.3 0.49,33.02 12.81,51.74 13.05,19.96 31.04,32.29 45.35,32.53 5.4,-13.07 1.21,-34.75 -11.83,-54.7 -3.96,-6.16 -8.39,-11.57 -13.07,-16 12.33,1.72 26.11,1.22 40.66,-1.73 31.28,-6.42 55.43,-22.92 62.57,-40.4 -13.55,-13.32 -42.38,-18.74 -73.42,-12.33 -12.06,2.71 -22.91,6.65 -32.52,11.59 1.97,-4.2 3.7,-8.38 4.93,-13.06 v 0"
         style="fill:#d52424;fill-opacity:1;fill-rule:evenodd;stroke:none"
         id="path104"
         inkscape:connector-curvature="0" /><path
         d="m 4393.37,1745.53 c 57.16,-10.84 95.34,0.5 138.94,-17.98 v -3.2 c -54.68,13.8 -146.32,0.24 -151.01,17.74 -0.49,2.71 1.97,5.18 5.43,5.66 2.69,0.24 5.16,-0.48 6.64,-2.22 v 0"
         style="fill:#432a16;fill-opacity:1;fill-rule:evenodd;stroke:none"
         id="path106"
         inkscape:connector-curvature="0" /><path
         d="m 4549.81,1697.49 c 4.68,-15.76 3.2,-31.04 -2.95,-38.67 -9.37,2.95 -19.22,14.78 -23.9,30.55 -4.44,15.27 -3.46,29.8 1.97,37.69 -2.46,9.11 0.49,22.91 8.87,35.72 9.11,14.05 21.68,22.67 31.53,22.67 3.95,-9.12 0.99,-24.14 -7.88,-37.94 -2.96,-4.2 -5.91,-7.89 -9.36,-11.08 8.63,1.22 18.23,0.73 28.33,-1.24 21.68,-4.44 38.68,-16.02 43.6,-28.08 -9.36,-9.37 -29.56,-13.07 -51,-8.63 -8.37,1.73 -16.01,4.68 -22.66,8.12 1.23,-2.95 2.47,-5.9 3.45,-9.11 v 0"
         style="fill:#d52424;fill-opacity:1;fill-rule:evenodd;stroke:none"
         id="path108"
         inkscape:connector-curvature="0" /><path
         d="m 4015.95,1254.77 c -51.5,66.02 -103.48,89.93 -133.04,151.27 l 3.2,3.45 c 46.08,-66.76 157.91,-139.2 146.1,-162.36 -1.98,-3.44 -6.91,-4.18 -11.34,-1.23 -3.2,2.22 -4.92,5.67 -4.92,8.87 v 0"
         style="fill:#432a16;fill-opacity:1;fill-rule:evenodd;stroke:none"
         id="path110"
         inkscape:connector-curvature="0" /><path
         d="m 3892.76,1455.31 c 9.86,21.68 26.13,36.72 39.92,38.93 7.39,-12.07 6.65,-34 -3.21,-55.68 -9.61,-20.7 -24.64,-35.23 -37.94,-38.68 -5.92,-12.31 -22.42,-24.39 -43.6,-30.31 -23.16,-6.4 -44.84,-3.68 -55.68,5.67 4.44,13.31 21.93,26.86 44.84,33.27 7.14,1.97 14.04,2.96 20.44,3.43 -10.34,6.66 -20.44,16.27 -29.31,28.1 -19.23,25.37 -26.37,53.95 -20.2,71.69 18.97,0.99 44.09,-14.04 63.06,-39.42 7.4,-9.85 13.06,-20.2 16.76,-30.04 1.23,4.18 2.95,8.62 4.92,13.04 v 0"
         style="fill:#d52424;fill-opacity:1;fill-rule:evenodd;stroke:none"
         id="path112"
         inkscape:connector-curvature="0" /><path
         d="m 4434.51,1703.91 c -10.34,19.95 -26.11,33.25 -39.42,34.72 -6.41,-11.82 -4.43,-32.26 5.92,-52.22 10.35,-19.96 26.36,-33.26 39.42,-34.5 6.41,11.59 4.68,32.28 -5.92,52 v 0"
         style="fill:#d52424;fill-opacity:1;fill-rule:evenodd;stroke:none"
         id="path114"
         inkscape:connector-curvature="0" /><path
         d="m 3919.62,1293.69 c 22.41,0.25 41.39,8.15 48.78,19.46 -7.64,10.84 -26.86,18.49 -49.28,18.24 -22.17,-0.25 -41.38,-8.37 -48.53,-19.46 7.39,-10.84 26.61,-18.74 49.03,-18.24 v 0"
         style="fill:#d52424;fill-opacity:1;fill-rule:evenodd;stroke:none"
         id="path116"
         inkscape:connector-curvature="0" /><path
         d="m 4131.24,1745.53 c 7.88,21.2 13.8,32.77 21.92,42.62 l 19.72,-5.66 c -14.78,-42.87 -13.56,-64.31 -33.02,-135.51 -44.83,-164.57 33.76,-50.74 135.74,28.83 21.2,16.75 45.09,33.76 71.7,51 87.95,57.4 113.57,76.38 168.27,139.94 l 9.85,-5.92 c -37.21,-68.73 -95.09,-109.38 -161.61,-158.41 -217.79,-159.65 -236.76,-342.94 -360.43,-569.85 -24.63,-45.09 -231.57,-513.922 -278.15,-401.828 -31.53,108.399 176.65,338.758 229.12,428.678 127.37,218.54 115.06,422.78 176.89,586.11 v 0"
         style="fill:#6c4319;fill-opacity:1;fill-rule:evenodd;stroke:none"
         id="path118"
         inkscape:connector-curvature="0" /><path
         d="m 4141.59,1563.72 c 23.89,8.61 75.14,66.03 134.01,112.09 21.2,16.75 45.09,33.76 71.7,51 87.95,57.4 113.57,76.38 168.27,139.94 l 9.85,-5.92 c -37.21,-68.73 -95.09,-109.38 -161.61,-158.41 -217.79,-159.65 -236.76,-342.94 -360.43,-569.85 -24.63,-45.09 -231.57,-513.922 -278.15,-401.828 -10.34,35.477 5.18,84.27 32.52,136.738 158.17,1.231 261.64,415.13 344.67,606.07 l 39.17,90.17"
         style="fill:#432a16;fill-opacity:1;fill-rule:evenodd;stroke:none"
         id="path120"
         inkscape:connector-curvature="0" /><path
         d="m 4146.3,2675.58 c 135.1,-86.43 183.07,-252.82 107,-371.74 -9.03,-14.11 -19.57,-26.95 -31.11,-38.58 -90.98,26.01 -195.01,73.27 -298.14,139.23 -72.02,46.08 -135.84,96.28 -188.87,146.86 5.85,22.87 15.41,45.12 28.56,65.66 71.29,111.45 226.11,141.38 356.57,73.72 64.88,89.53 176.14,128.61 196.58,85.12 20.72,-43.95 -72.77,-37.39 -171.22,-99.87 l 0.63,-0.4"
         style="fill:#352316;fill-opacity:1;fill-rule:evenodd;stroke:none"
         id="path122"
         inkscape:connector-curvature="0" /><path
         d="m 4025.5,2601.94 61.28,15.78 -15.8,61.28 -61.27,-15.78 z m -77.12,-19.98 61.27,15.79 -15.78,61.27 -61.28,-15.78 z m -77.21,-19.64 61.27,15.79 -15.91,61.07 -61.28,-15.79 z m -77.12,-19.97 61.26,15.78 -15.76,61.27 -61.28,-15.78 z m 328.41,2.24 61.27,15.79 -15.76,61.27 -61.3,-15.77 z m -76.99,-19.78 61.28,15.8 -15.77,61.27 -61.3,-15.77 z m -77.33,-19.84 61.27,15.79 -15.78,61.28 -61.28,-15.78 z m -77.12,-19.97 61.27,15.79 -15.78,61.27 -61.29,-15.79 z m 251.41,-17.53 61.29,15.77 -15.79,61.29 -61.27,-15.78 z m -77.32,-19.83 61.27,15.78 -15.78,61.26 -61.27,-15.77 z m -77,-19.79 61.28,15.8 -15.78,61.26 -61.28,-15.79 z m 174.11,-37.36 61.27,15.78 -15.8,61.28 -61.27,-15.78 z m -77.13,-19.99 61.28,15.78 -15.79,61.29 -61.28,-15.78 z m 96.96,-57.35 61.27,15.79 -15.76,61.28 -61.29,-15.79 z m -26.21,356.33 c 6.98,-5.07 14.21,-10.27 20.94,-15.73 l 3.03,-12.2 8.44,2.22 c 4.84,-4.28 9.59,-8.77 14.11,-13.13 l -18.57,-4.79 15.79,-61.28 45.9,11.87 c 3.04,-4.85 5.93,-9.92 8.61,-14.87 l -50.32,-12.84 15.78,-61.27 59.24,15.33 c 1.54,-5.37 2.86,-10.61 4.07,-16.05 l -59.25,-15.33 15.79,-61.3 49.91,13.12 c 0.05,-5.88 -0.46,-11.7 -0.82,-17.3 l -45.09,-11.52 15.77,-61.27 11.16,2.8 c -4.72,-11.02 -10.39,-21.72 -17.03,-32.1 -0.8,-1.24 -1.59,-2.49 -2.39,-3.73 l -3.39,12.99 -61.27,-15.79 5.91,-22.78 c -6.34,1.99 -12.33,4.06 -18.53,6.28 l -3.23,12.3 -18.1,-4.51 c -8.74,3.26 -17.36,6.72 -26.17,10.31 l 40.21,10.26 -15.77,61.27 -61.27,-15.79 11.48,-45.08 c -6.45,2.67 -12.8,5.56 -19.14,8.45 l -8.42,32.59 -38.15,-9.82 c -7.17,3.41 -14.29,7.37 -21.74,11.26 l 55.92,14.26 -15.79,61.28 -61.28,-15.78 14.45,-56.04 c -6.47,3.55 -13.18,7.26 -19.69,10.83 l -10.81,41.14 -40.68,-10.54 c -3.73,2.39 -7.46,4.77 -11.4,7.29 -2.5,1.6 -4.99,3.19 -7.49,4.79 l 55.71,14.38 -15.78,61.27 -61.27,-15.78 14.09,-55.22 c -6.93,4.72 -13.64,9.3 -20.36,13.89 l -9.78,37.26 -31.23,-8.1 c -5.74,4.27 -11.29,8.41 -16.84,12.52 l 44.08,11.29 -15.79,61.29 -61.29,-15.79 10.1,-38.63 c -7.33,5.88 -14.5,11.62 -21.5,17.56 l -4.5,17.22 -11.77,-3.3 c -5.06,4.41 -10.01,9.04 -14.87,13.32 l 22.64,5.7 -15.77,61.26 -10.14,-2.57 c 3.49,6.83 7.33,13.73 11.45,20.16 2.66,4.16 5.37,7.97 8.11,11.77 l 2.22,-9.3 61.28,15.77 -11.44,44.75 c 4.79,3.37 9.46,6.54 14.52,9.43 l 12.98,-50.12 61.28,15.8 -15.58,60.25 c 5.18,1.67 10.41,2.99 15.85,4.19 l 15.56,-60.26 61.28,15.8 -13.27,51.47 c 5.54,-0.04 11.28,-0.2 17.03,-0.36 l 11.95,-47.13 61.28,15.78 -4.81,19.46 c 6.12,-1.87 12.24,-3.74 18.3,-6.15 l 2.55,-9.24 12.67,3.3 c 8.05,-3.39 15.78,-6.88 23.44,-10.9 l -32.11,-8.12 15.79,-61.27 61.28,15.78 -8.06,31.77"
         style="fill:#b06426;fill-opacity:1;fill-rule:evenodd;stroke:none"
         id="path124"
         inkscape:connector-curvature="0" /><path
         d="m 4190.63,2274.9 c -9.09,-25.18 -21.13,-49.94 -36.4,-73.81 -93.2,-145.68 -267.85,-200.65 -389.88,-122.59 -122.23,78.19 -145.57,259.82 -52.38,405.5 11.96,18.68 25.44,36.08 40.04,51.6 49.52,-45.12 107.49,-89.82 172.04,-131.11 91.52,-58.54 183.51,-102.17 266.58,-129.59 v 0"
         style="fill:#d52424;fill-opacity:1;fill-rule:evenodd;stroke:none"
         id="path126"
         inkscape:connector-curvature="0" /><path
         d="m 4190.63,2274.9 c -9.09,-25.18 -21.13,-49.94 -36.4,-73.81 -6.11,-9.54 -12.64,-18.82 -19.31,-27.43 -132.55,-72.83 -304.7,-70.33 -446.84,20.6 -6.85,4.38 -13.58,8.98 -20.29,13.55 -26.33,84.12 -12.9,186.96 44.18,276.19 11.96,18.68 25.44,36.08 40.04,51.6 49.52,-45.12 107.49,-89.82 172.04,-131.11 91.52,-58.54 183.51,-102.17 266.58,-129.59 v 0"
         style="fill:#ea2f21;fill-opacity:1;fill-rule:evenodd;stroke:none"
         id="path128"
         inkscape:connector-curvature="0" /><path
         d="m 4190.63,2274.9 c -4.67,-12.78 -9.91,-25.54 -16.24,-38.16 -82.47,25.57 -172.66,67.46 -261.91,124.55 -70.55,45.13 -132.86,94.94 -184.45,145.49 7.53,10.41 15.61,19.85 23.98,28.82 49.52,-45.12 107.49,-89.82 172.04,-131.11 91.52,-58.54 183.51,-102.17 266.58,-129.59 v 0"
         style="fill:#d52424;fill-opacity:1;fill-rule:evenodd;stroke:none"
         id="path130"
         inkscape:connector-curvature="0" /><path
         d="m 4190.63,2274.9 c -3.76,-10.46 -8.07,-20.85 -12.94,-31.2 -84.78,27.04 -178.9,71.46 -272.49,131.32 -66,42.23 -125.08,87.92 -175.38,134.13 7.07,9.22 14.55,18.17 22.19,26.45 49.52,-45.12 107.49,-89.82 172.04,-131.11 91.52,-58.54 183.51,-102.17 266.58,-129.59 v 0"
         style="fill:#d52424;fill-opacity:1;fill-rule:evenodd;stroke:none"
         id="path132"
         inkscape:connector-curvature="0" /><path
         d="m 3422.27,2619.21 c 116.64,37.72 237.48,-12.96 269.83,-113.18 3.95,-11.95 6.45,-24.17 7.52,-36.13 -59.68,-40.82 -152.92,-78.44 -228.49,-102.86 -75.57,-24.43 -121.44,-38.21 -176.77,-45.05 -10.58,14.19 -18.89,30.01 -24.69,47.58 -28.75,89.21 22.37,187.87 116.27,234.96 -52.97,78.01 -55.95,175.04 -14.73,181.56 42.71,6.81 15.32,-70.29 41.97,-170.02 3,1.12 6,2.25 9.09,3.14 v 0"
         style="fill:#352316;fill-opacity:1;fill-rule:evenodd;stroke:none"
         id="path134"
         inkscape:connector-curvature="0" /><path
         d="m 3371.4,2480.65 18.64,45.68 -45.47,18.72 -18.87,-45.76 z m -23.68,-57.57 18.89,45.77 -45.68,18.64 -18.97,-45.53 z m -23.74,-57.33 18.97,45.54 -45.76,18.88 -18.65,-45.69 z m 128.4,148.72 18.96,45.53 -45.77,18.87 -18.66,-45.68 z m -23.44,-57.48 18.65,45.69 -45.68,18.64 -18.73,-45.46 z m -23.65,-57.56 18.65,45.68 -45.53,18.96 -18.88,-45.77 z m -23.74,-57.34 18.73,45.47 -45.54,18.94 -18.87,-45.77 z m 152.13,206.06 18.64,45.68 -45.53,18.95 -18.89,-45.77 z m -23.75,-57.35 18.73,45.45 -45.53,18.97 -18.87,-45.77 z m -23.65,-57.55 18.88,45.76 -45.7,18.65 -18.72,-45.45 z m -23.74,-57.33 18.96,45.54 -45.78,18.86 -18.64,-45.67 z m 128.37,148.71 18.97,45.53 -45.76,18.87 -18.65,-45.68 z m -23.42,-57.48 18.64,45.69 -45.67,18.64 -18.65,-45.69 z m -23.64,-57.56 18.64,45.68 -45.46,18.72 -18.96,-45.53 z m 104.64,91.37 18.96,45.55 -45.78,18.86 -18.88,-45.77 z m -23.66,-57.55 18.88,45.77 -45.69,18.63 -18.73,-45.46 z m -195.47,177.94 c 5.17,1.66 10.27,2.8 15.51,4.25 l -14.3,-34.84 45.55,-18.97 18.88,45.77 -28.91,11.79 c 9.46,1.45 18.72,2.01 28.05,2.38 l 5.63,-2.37 0.92,2.45 c 4.76,-0.06 9.28,-0.2 13.82,-0.34 l -2.95,-6.9 45.77,-18.86 6.93,17.33 c 4.17,-1.33 8.35,-2.67 12.3,-4.07 l -7.44,-18.05 45.56,-18.97 6.27,15.53 c 3.82,-2.51 7.34,-4.88 10.72,-7.56 l -5.22,-12.75 33.57,-13.71 c 6.62,-7.79 12.61,-16.06 17.87,-25.14 l -17.54,-42.36 37.94,-15.5 c 0.52,-3.5 1.04,-6.99 1.33,-10.56 -1.21,-0.97 -2.28,-1.65 -3.59,-2.4 l -40.45,16.67 -18.96,-45.55 5.62,-2.36 c -8.41,-4.22 -16.83,-8.43 -25.35,-12.41 l 3.15,7.75 -45.76,18.89 -18.65,-45.68 8.81,-3.81 c -9.62,-3.87 -19.29,-7.5 -28.9,-11.37 l 3.28,8.08 -45.53,18.96 -18.88,-45.77 3.73,-1.5 c -2.4,-0.63 -4.7,-1.49 -7.01,-2.36 -4.69,-1.5 -9.4,-3.02 -13.86,-4.42 l 0.48,1.5 -45.68,18.64 -15.93,-38.86 c -11.09,-3.39 -21.37,-6.19 -31.73,-8.75 l -33.33,13.8 -9.51,-23.04 c -4.95,-0.82 -9.91,-1.62 -14.87,-2.42 l 12.51,30.48 -45.69,18.64 -2.55,-6.51 c -0.44,1.17 -0.87,2.32 -1.3,3.47 -2.06,6.87 -3.79,13.58 -5.14,20.7 l 2.14,-0.77 18.72,45.45 -22.08,9.08 c 0.67,4.46 1.46,8.7 2.24,12.93 l 24.63,-10.22 18.87,45.76 -26.78,11.02 c 1.73,3.8 4.02,7.55 6.06,11.22 l 25.5,-10.43 18.96,45.52 -13.7,5.66 c 3.23,3.3 6.77,6.49 10,9.8 l 8.48,-3.66 6.72,16.47 c 6.28,4.99 12.74,9.52 19.6,13.68 l -14.53,-34.93 45.68,-18.65 18.73,45.46 -37.7,15.59 c 4.82,2.59 9.87,5.28 15,7.73 l 27.72,-11.44 10.57,25.81"
         style="fill:#b06426;fill-opacity:1;fill-rule:evenodd;stroke:none"
         id="path136"
         inkscape:connector-curvature="0" /><path
         d="m 3685.98,2469.78 c 0,0 0.6,-1.62 1.81,-4.84 8.84,-25.63 45.81,-145.17 1.49,-225.49 -26.87,-49.03 -83.81,-56.46 -88.15,-128.35 -50.32,51.37 -98.08,19.5 -150.82,38.66 -85.99,31.4 -136.79,145.75 -147.01,170.86 -1.45,3.15 -2.05,4.75 -2.05,4.75 l 190.89,76.12 193.84,68.29"
         style="fill:#b06426;fill-opacity:1;fill-rule:evenodd;stroke:none"
         id="path138"
         inkscape:connector-curvature="0" /><path
         d="m 3685.98,2469.78 c 0,0 0.6,-1.62 1.81,-4.84 1.64,-4.39 3.7,-11.26 6.3,-20.28 -59.22,-36.44 -142.41,-69.24 -210.9,-91.51 -74.65,-24.09 -120.19,-38.02 -174.75,-44.8 -2.13,4.98 -4.02,9.28 -5.14,12.27 -1.45,3.15 -2.05,4.75 -2.05,4.75 l 190.89,76.12 193.84,68.29"
         style="fill:#9d5e1d;fill-opacity:1;fill-rule:evenodd;stroke:none"
         id="path140"
         inkscape:connector-curvature="0" /><path
         d="m 640.004,1495.21 -0.488,0.48 0.98,-1.71 z M 1044.77,771.379 c -1.22,103.961 -8.12,200.051 -38.17,256.461 -94.358,176.65 -198.573,204 -366.596,467.37 -9.606,23.65 -3.445,41.38 11.828,61.83 -0.988,-5.66 -4.187,-24.38 -4.684,-29.8 -2.46,-35.73 111.856,-169.51 193.149,-245.39 60.363,-56.66 50.016,-46.57 38.433,23.15 -7.632,47.8 -13.304,104.22 -24.144,181.84 L 844,1589.8 l 26.113,-99.03 c 50.254,-200.79 22.168,-225.18 84.989,-327.43 54.938,-89.18 52.228,-99.53 49.518,-5.17 -1.97,70.22 5.66,145.61 34,235.54 33.26,106.17 103.47,336.04 194.38,414.13 v -0.24 c -74.16,-96.09 -139.2,-311.91 -170.49,-422.53 -15.03,-52.47 -22.66,-100.51 -25.86,-145.6 -1.97,-31.77 -1.73,-62.32 0,-91.89 2.71,-41.89 0.73,-71.2 37.45,-12.57 65.28,104.71 145.59,213.86 213.34,300.08 22.92,29.32 32.28,67.26 39.18,103.23 5.42,-42.38 3.45,-38.44 -8.88,-77.85 -9.11,-28.57 -61.09,-111.87 -115.54,-196.35 -31.04,-48.3 -76.86,-86.97 -13.3,-62.09 64.3,25.13 107.91,59.87 206.2,117.02 23.65,13.55 62.09,29.55 82.53,45.57 l -0.24,-0.73 c 0.24,0.25 43.61,40.4 50.74,5.66 -22.16,14.05 -11.57,3.21 -39.16,-13.05 -12.56,-16.75 -66.77,-47.06 -79.82,-55.92 -148.56,-100.77 -243.9,-133.79 -288,-170.99 -77.85,-66.03 -63.06,-94.36 -48.53,-192.41 6.65,-44.84 8.61,-78.098 11.09,-164.821 0.24,-10.839 -8.38,-19.707 -19.22,-19.961 -10.59,-0.238 -19.47,8.383 -19.72,18.981 v 0"
         style="fill:#6c4319;fill-opacity:1;fill-rule:evenodd;stroke:none"
         id="path142"
         inkscape:connector-curvature="0" /><path
         d="m 652.512,1470.32 c 6.898,2.48 10.84,10.11 8.871,17 1.472,0 2.957,0.26 4.437,0.75 5.66,1.97 8.375,7.89 6.399,13.55 -1.969,5.42 -8.125,8.13 -13.551,6.15 -4.43,-1.47 -7.141,-6.15 -6.895,-10.58 -2.71,0.73 -5.914,0.73 -8.875,-0.25 -3.445,-1.24 -6.156,-3.7 -7.628,-6.66 -2.465,4.44 -7.891,6.66 -13.063,4.94 -5.422,-2.22 -8.129,-8.14 -6.156,-13.56 1.969,-5.66 8.129,-8.38 13.551,-6.41 1.964,0.75 3.695,1.98 4.675,3.71 v -0.26 c 2.715,-7.15 10.84,-11.08 18.235,-8.38 v 0"
         style="fill:#612b2f;fill-opacity:1;fill-rule:evenodd;stroke:none"
         id="path144"
         inkscape:connector-curvature="0" /><path
         d="m 531.305,1804.4 c 8.867,3.21 18.468,-0.97 22.422,-9.6 1.23,1.47 2.949,2.47 4.921,3.21 6.899,2.7 14.54,-1 17.247,-7.89 2.464,-6.9 -1.231,-14.79 -8.129,-17.25 -5.664,-1.97 -12.075,0 -15.52,4.93 -1.973,-3.2 -4.933,-5.67 -8.871,-7.15 -4.191,-1.72 -8.867,-1.47 -12.812,0.25 1.234,-6.4 -2.219,-13.06 -8.622,-15.28 -6.898,-2.46 -14.535,0.98 -17,8.14 -2.461,6.89 0.989,14.53 7.879,16.98 2.711,1 5.176,1 7.645,0.51 v 0 c -3.453,9.36 1.476,19.71 10.84,23.15 v 0"
         style="fill:#612b2f;fill-opacity:1;fill-rule:evenodd;stroke:none"
         id="path146"
         inkscape:connector-curvature="0" /><path
         d="m 539.434,1776.06 c 52.964,19.48 119.234,-29.56 148.308,-109.13 28.821,-79.58 9.363,-159.64 -43.605,-178.86 -52.719,-19.47 -119.242,29.56 -148.063,109.14 -29.07,79.59 -9.609,159.66 43.36,178.85 v 0"
         style="fill:#be4020;fill-opacity:1;fill-rule:evenodd;stroke:none"
         id="path148"
         inkscape:connector-curvature="0" /><path
         d="m 539.434,1776.06 c 52.964,19.48 119.234,-29.56 148.308,-109.13 5.664,-15.78 9.363,-31.28 11.578,-46.56 -8.379,-39.92 -32.765,-72.68 -68.734,-85.74 -41.879,-15.26 -88.441,-0.24 -122.441,34.74 -4.434,8.62 -8.625,17.98 -12.071,27.84 -29.07,79.59 -9.609,159.66 43.36,178.85 v 0"
         style="fill:#e43e20;fill-opacity:1;fill-rule:evenodd;stroke:none"
         id="path150"
         inkscape:connector-curvature="0" /><path
         d="m 601.516,1722.12 c 9.363,3.45 19.711,-1.47 23.164,-10.84 3.441,-9.37 -1.481,-19.71 -10.848,-23.16 -9.363,-3.45 -19.953,1.24 -23.156,10.84 -3.449,9.35 1.234,19.71 10.84,23.16 v 0"
         style="fill:#ffffff;fill-opacity:1;fill-rule:evenodd;stroke:none"
         id="path152"
         inkscape:connector-curvature="0" /><path
         d="m 870.543,1429.68 c 5.668,0.74 9.602,5.42 9.359,11.08 1.231,-0.49 2.223,-0.49 3.45,-0.49 4.437,0.49 7.39,4.44 6.898,8.87 -0.488,4.43 -4.434,7.39 -8.867,6.91 -3.449,-0.51 -6.164,-3.22 -6.903,-6.65 -1.722,0.98 -4.183,1.46 -6.406,1.22 -2.703,-0.24 -5.176,-1.72 -6.89,-3.45 -0.985,3.69 -4.684,6.17 -8.625,5.66 -4.192,-0.73 -7.391,-4.68 -6.653,-8.86 0.489,-4.44 4.438,-7.39 8.867,-6.9 1.477,0.24 2.957,0.74 3.942,1.73 v 0 c 0.742,-5.92 6.164,-9.85 11.828,-9.12 v 0"
         style="fill:#612b2f;fill-opacity:1;fill-rule:evenodd;stroke:none"
         id="path154"
         inkscape:connector-curvature="0" /><path
         d="m 837.527,1694.52 c 6.903,0.73 13.301,-3.94 14.782,-10.84 1.23,0.99 2.711,1.49 4.191,1.73 5.418,0.49 10.59,-3.2 11.332,-8.88 0.488,-5.41 -3.203,-10.58 -8.871,-11.08 -4.434,-0.73 -8.863,1.97 -10.594,5.92 -1.972,-1.97 -4.429,-3.22 -7.637,-3.69 -3.449,-0.51 -6.648,0.47 -9.363,2.46 0,-4.93 -3.691,-9.12 -8.867,-9.87 -5.426,-0.74 -10.344,3.21 -11.082,8.88 -0.738,5.42 3.199,10.35 8.621,11.08 1.969,0.25 3.941,0 5.668,-0.98 v 0.25 c -0.988,7.37 4.43,14.05 11.82,15.02 v 0"
         style="fill:#612b2f;fill-opacity:1;fill-rule:evenodd;stroke:none"
         id="path156"
         inkscape:connector-curvature="0" /><path
         d="m 838.762,1672.35 c 41.879,5.42 82.527,-41.39 90.414,-104.7 7.887,-63.07 -19.711,-118.51 -61.586,-123.68 -42.137,-5.42 -82.535,41.64 -90.418,104.7 -7.887,63.08 19.703,118.5 61.59,123.68 v 0"
         style="fill:#f14a1c;fill-opacity:1;fill-rule:evenodd;stroke:none"
         id="path158"
         inkscape:connector-curvature="0" /><path
         d="m 838.762,1672.35 c 41.879,5.42 82.527,-41.39 90.414,-104.7 1.472,-12.33 1.726,-24.41 0.734,-35.97 -12.808,-27.84 -35.961,-47.79 -64.539,-51.25 -33.266,-4.19 -65.043,14.54 -84.016,45.58 -1.722,7.4 -3.203,14.78 -4.183,22.66 -7.887,63.08 19.703,118.5 61.59,123.68 v 0"
         style="fill:#f25620;fill-opacity:1;fill-rule:evenodd;stroke:none"
         id="path160"
         inkscape:connector-curvature="0" /><path
         d="m 875.219,1622.59 c 7.394,0.98 14.293,-4.44 15.277,-11.84 0.988,-7.38 -4.437,-14.28 -11.824,-15.27 -7.641,-0.99 -14.285,4.43 -15.274,11.82 -0.992,7.41 4.192,14.29 11.821,15.29 v 0"
         style="fill:#ffffff;fill-opacity:1;fill-rule:evenodd;stroke:none"
         id="path162"
         inkscape:connector-curvature="0" /><path
         d="m 1335.92,2035.74 c 8.37,-4.19 12.07,-14.28 8.62,-22.91 1.97,0 3.94,-0.25 5.66,-1.23 6.66,-3.45 9.37,-11.34 6.16,-17.98 -3.45,-6.67 -11.33,-9.36 -17.98,-5.92 -5.67,2.71 -8.38,8.63 -7.15,14.3 -3.69,-0.74 -7.63,-0.26 -11.33,1.71 -4.19,1.97 -7.14,5.42 -8.62,9.37 -3.94,-5.42 -11.08,-7.14 -17,-4.18 -6.65,3.19 -9.36,11.32 -6.16,17.72 3.45,6.66 11.34,9.37 17.99,6.16 2.46,-1.23 4.43,-2.96 5.66,-5.16 v 0 c 4.44,8.86 15.28,12.57 24.15,8.12 v 0"
         style="fill:#612b2f;fill-opacity:1;fill-rule:evenodd;stroke:none"
         id="path164"
         inkscape:connector-curvature="0" /><path
         d="m 1177.75,1717.43 c 6.65,-3.19 14.78,-0.74 18.48,5.42 0.99,-1.23 2.22,-2.2 3.69,-2.95 5.18,-2.47 11.34,-0.24 14.05,4.92 2.47,5.18 0.49,11.59 -4.68,14.06 -4.44,2.2 -9.61,0.97 -12.57,-2.47 -1.48,2.71 -3.45,4.93 -6.4,6.4 -3.21,1.72 -6.9,1.98 -10.11,0.99 1.48,4.92 -0.73,10.34 -5.42,12.56 -5.17,2.71 -11.57,0.51 -14.03,-4.68 -2.72,-5.18 -0.5,-11.57 4.68,-14.04 1.97,-0.98 3.94,-1.49 5.9,-1.23 v 0 c -3.44,-6.91 -0.49,-15.53 6.41,-18.98 v 0"
         style="fill:#612b2f;fill-opacity:1;fill-rule:evenodd;stroke:none"
         id="path166"
         inkscape:connector-curvature="0" /><path
         d="m 1321.13,2010.36 c 50.51,-24.88 60.85,-106.91 23.16,-182.55 -37.69,-75.89 -109.13,-117.27 -159.4,-92.15 -50.5,25.14 -60.84,106.93 -23.4,182.82 37.69,75.62 109.14,117.02 159.64,91.88 v 0"
         style="fill:#f14a1c;fill-opacity:1;fill-rule:evenodd;stroke:none"
         id="path168"
         inkscape:connector-curvature="0" /><path
         d="m 1321.13,2010.36 c 50.51,-24.88 60.85,-106.91 23.16,-182.55 -7.39,-15.03 -16.01,-28.58 -25.62,-40.65 -34.73,-21.44 -75.13,-26.36 -109.63,-9.36 -39.9,19.7 -61.1,63.8 -59.13,112.34 3.2,9.37 7.15,18.97 11.58,28.34 37.69,75.62 109.14,117.02 159.64,91.88 v 0"
         style="fill:#f25620;fill-opacity:1;fill-rule:evenodd;stroke:none"
         id="path170"
         inkscape:connector-curvature="0" /><path
         d="m 1324.83,1928.33 c 8.87,-4.43 12.56,-15.52 8.13,-24.4 -4.43,-9.11 -15.27,-12.8 -24.39,-8.12 -8.87,4.42 -12.56,15.26 -8.13,24.14 4.44,9.11 15.27,12.8 24.39,8.38 v 0"
         style="fill:#ffffff;fill-opacity:1;fill-rule:evenodd;stroke:none"
         id="path172"
         inkscape:connector-curvature="0" /><path
         d="m 1295.51,1416.13 c 5.67,-1.23 11.09,1.72 12.57,7.15 0.98,-0.74 1.97,-1.48 3.2,-1.73 4.43,-0.98 8.62,1.73 9.61,5.91 0.98,4.2 -1.73,8.61 -5.91,9.61 -3.45,0.74 -7.15,-1 -8.63,-3.95 -1.47,1.73 -3.44,2.95 -5.91,3.7 -2.46,0.49 -5.17,0 -7.39,-0.98 0.25,3.69 -2.22,7.38 -6.16,8.13 -4.19,1.23 -8.37,-1.48 -9.61,-5.67 -0.98,-4.43 1.73,-8.62 5.92,-9.61 1.72,-0.49 3.2,-0.25 4.68,0.26 v 0 c -1.48,-5.67 1.97,-11.6 7.63,-12.82 v 0"
         style="fill:#612b2f;fill-opacity:1;fill-rule:evenodd;stroke:none"
         id="path174"
         inkscape:connector-curvature="0" /><path
         d="m 1357.59,1675.8 c 6.91,-1.73 11.34,-8.38 10.11,-15.27 1.47,0.24 2.95,0.24 4.68,0 5.17,-1.48 8.62,-6.9 7.39,-12.32 -1.23,-5.18 -6.66,-8.62 -12.07,-7.4 -4.69,1.24 -7.64,4.93 -7.89,9.37 -2.46,-0.99 -5.42,-1.48 -8.37,-0.75 -3.45,1 -6.16,2.96 -8.13,5.42 -1.73,-4.42 -6.65,-7.14 -11.58,-5.89 -5.42,1.22 -8.62,6.64 -7.39,12.06 1.23,5.42 6.65,8.87 12.07,7.4 1.97,-0.27 3.69,-1.49 4.93,-2.72 v 0 c 1.72,7.13 9.11,11.82 16.25,10.1 v 0"
         style="fill:#612b2f;fill-opacity:1;fill-rule:evenodd;stroke:none"
         id="path176"
         inkscape:connector-curvature="0" /><path
         d="m 1351.19,1654.61 c 41.14,-9.85 62.57,-68 47.79,-129.82 -14.78,-61.85 -60.11,-103.98 -101.25,-94.13 -41.14,9.61 -62.57,67.76 -47.79,129.59 14.78,62.08 60.11,104.21 101.25,94.36 v 0"
         style="fill:#f14a1c;fill-opacity:1;fill-rule:evenodd;stroke:none"
         id="path178"
         inkscape:connector-curvature="0" /><path
         d="m 1351.19,1654.61 c 41.14,-9.85 62.57,-68 47.79,-129.82 -2.96,-12.08 -6.9,-23.42 -12.07,-34.01 -21.68,-21.43 -50.5,-32.02 -78.59,-25.38 -32.51,7.88 -55.42,36.47 -62.32,72.43 0.74,7.4 1.96,15.04 3.94,22.42 14.78,62.08 60.11,104.21 101.25,94.36 v 0"
         style="fill:#f25620;fill-opacity:1;fill-rule:evenodd;stroke:none"
         id="path180"
         inkscape:connector-curvature="0" /><path
         d="m 1367.7,1595.23 c 7.39,-1.72 11.83,-9.11 10.1,-16.5 -1.73,-7.38 -9.11,-11.83 -16.51,-10.1 -7.14,1.72 -11.83,9.11 -10.1,16.5 1.72,7.16 9.12,11.83 16.51,10.1 v 0"
         style="fill:#ffffff;fill-opacity:1;fill-rule:evenodd;stroke:none"
         id="path182"
         inkscape:connector-curvature="0" /><path
         d="m 1597.8,1536.11 c 5.67,-4.19 7.14,-12.33 3.44,-18.23 1.48,-0.25 2.96,-0.99 4.19,-1.73 4.44,-3.44 5.67,-9.85 2.23,-14.28 -3.21,-4.68 -9.62,-5.67 -14.3,-2.22 -3.69,2.7 -5.17,7.64 -3.45,11.82 -2.95,0 -5.91,0.74 -8.37,2.47 -2.71,2.21 -4.68,5.16 -5.18,8.36 -3.45,-3.68 -9.11,-4.18 -13.3,-0.97 -4.68,3.19 -5.67,9.61 -2.22,14.04 3.21,4.68 9.61,5.68 14.29,2.22 1.48,-1.24 2.71,-2.71 3.45,-4.44 v 0 c 4.43,6.16 13.06,7.39 19.22,2.96 v 0"
         style="fill:#612b2f;fill-opacity:1;fill-rule:evenodd;stroke:none"
         id="path184"
         inkscape:connector-curvature="0" /><path
         d="m 1437.91,1317.33 c 4.68,-3.44 10.84,-2.47 14.54,1.73 0.49,-0.98 1.23,-1.97 2.46,-2.71 3.44,-2.72 8.61,-1.72 11.09,1.73 2.71,3.69 1.97,8.61 -1.73,11.33 -2.95,2.21 -6.9,1.97 -9.61,-0.24 -0.73,2.21 -1.96,4.18 -3.94,5.66 -2.46,1.48 -4.92,2.22 -7.63,1.97 1.96,3.45 0.98,7.89 -2.23,10.1 -3.69,2.71 -8.61,1.98 -11.32,-1.72 -2.71,-3.45 -1.97,-8.63 1.71,-11.33 1.23,-0.74 2.71,-1.24 4.44,-1.49 v 0 c -3.69,-4.67 -2.46,-11.57 2.22,-15.03 v 0"
         style="fill:#612b2f;fill-opacity:1;fill-rule:evenodd;stroke:none"
         id="path186"
         inkscape:connector-curvature="0" /><path
         d="m 1583.51,1518.86 c 34.49,-25.12 31.78,-87.94 -6.16,-140.18 -38.19,-52.22 -97.07,-73.91 -131.8,-48.53 -34.74,25.12 -32.03,87.95 6.15,140.17 37.94,52.24 97.07,73.92 131.81,48.54 v 0"
         style="fill:#be4020;fill-opacity:1;fill-rule:evenodd;stroke:none"
         id="path188"
         inkscape:connector-curvature="0" /><path
         d="m 1583.51,1518.86 c 34.49,-25.12 31.78,-87.94 -6.16,-140.18 -7.64,-10.34 -15.77,-19.46 -24.64,-27.1 -28.82,-11.82 -59.86,-10.35 -83.51,6.9 -27.34,19.96 -37.7,55.92 -30.06,92.14 3.7,6.66 7.89,13.3 12.56,19.7 37.94,52.24 97.07,73.92 131.81,48.54 v 0"
         style="fill:#e43e20;fill-opacity:1;fill-rule:evenodd;stroke:none"
         id="path190"
         inkscape:connector-curvature="0" /><path
         d="m 1575.63,1456.79 c 6.15,-4.45 7.38,-13.31 2.95,-19.48 -4.43,-6.16 -13.06,-7.39 -19.22,-2.94 -6.4,4.43 -7.63,13.05 -3.2,19.45 4.68,6.16 13.3,7.39 19.47,2.97 v 0"
         style="fill:#ffffff;fill-opacity:1;fill-rule:evenodd;stroke:none"
         id="path192"
         inkscape:connector-curvature="0" /><path
         d="m 2084.89,2690.35 c -57.11,242.52 -126.63,310.68 -20.94,568.12 -53.71,9.61 -107.16,19.21 -160.87,28.82 -44.1,-185.02 31.28,-397.87 181.81,-596.94 v 0"
         style="fill:#352316;fill-opacity:1;fill-rule:evenodd;stroke:none"
         id="path194"
         inkscape:connector-curvature="0" /><path
         d="m 2378.76,2388.43 v -211.62 c 1.49,-0.27 2.97,-0.75 4.2,-1.98 l 24.63,-21.68 c 3.2,-2.96 3.45,-7.89 0.74,-10.85 v 0 c -2.95,-3.2 -7.89,-3.44 -10.84,-0.74 l -18.73,16.53 -0.24,-29.33 c 0,-4.19 -3.45,-7.64 -7.63,-7.64 v 0 c -4.19,0 -7.64,3.45 -7.64,7.64 v 31.03 l -20.45,-18.23 c -2.95,-2.7 -7.89,-2.46 -10.84,0.74 v 0 c -2.72,2.96 -2.47,7.89 0.74,10.85 l 24.63,21.68 c 1.73,1.48 3.95,2.21 5.92,1.98 v 211.62 h 15.51"
         style="fill:#382116;fill-opacity:1;fill-rule:evenodd;stroke:none"
         id="path196"
         inkscape:connector-curvature="0" /><path
         d="m 2720.72,2461.11 c 0,0 21.44,-12.07 48.78,-28.08 12.33,-10.35 49.77,-41.64 84,-69.49 -66.26,4.94 -207.67,7.64 -207.67,7.64 l 74.89,89.93"
         style="fill:#382116;fill-opacity:1;fill-rule:evenodd;stroke:none"
         id="path198"
         inkscape:connector-curvature="0" /><path
         d="m 2709.64,2481.06 c 0,0 159.37,-139.69 143.86,-117.52 -15.52,22.17 -85.24,219.03 -85.24,219.03 l -58.62,-101.51"
         style="fill:#602e15;fill-opacity:1;fill-rule:evenodd;stroke:none"
         id="path200"
         inkscape:connector-curvature="0" /><path
         d="m 2689.91,2830.91 c 196.86,-139.44 185.03,-507.76 -187.96,-516.14 -432.61,-9.61 -489.52,426.7 -492.97,730.23 247.35,-275.94 484.09,-74.89 680.93,-214.09 v 0"
         style="fill:#f2541b;fill-opacity:1;fill-rule:evenodd;stroke:none"
         id="path202"
         inkscape:connector-curvature="0" /><path
         d="m 2706.44,2576.66 c 20.2,2.71 38.92,-11.59 41.62,-31.79 2.71,-20.44 -11.58,-38.92 -31.79,-41.64 -20.43,-2.7 -38.91,11.34 -41.62,31.78 -2.71,20.21 11.58,38.94 31.79,41.65 v 0"
         style="fill:#382116;fill-opacity:1;fill-rule:evenodd;stroke:none"
         id="path204"
         inkscape:connector-curvature="0" /><path
         d="m 2716.53,2565.07 c 7.64,1.24 15.03,-4.43 16.02,-12.06 0.98,-7.89 -4.45,-15.04 -12.33,-16.26 -7.89,-1 -15.02,4.42 -16,12.3 -1.24,7.9 4.43,15.04 12.31,16.02 v 0"
         style="fill:#ffffff;fill-opacity:1;fill-rule:evenodd;stroke:none"
         id="path206"
         inkscape:connector-curvature="0" /><path
         d="m 2585.95,2624.7 c -1.47,-7.41 -3.44,-15.03 -5.66,-22.42 -34.25,-106.2 -148.31,-164.57 -254.49,-130.08 -106.18,34.23 -164.57,148.05 -130.32,254.25 6.4,19.7 15.52,37.94 26.85,53.95 57.89,-51.24 137.23,-96.34 229.61,-125.9 45.57,-14.78 90.67,-24.63 134.01,-29.8 v 0"
         style="fill:#f8f683;fill-opacity:1;fill-rule:evenodd;stroke:none"
         id="path208"
         inkscape:connector-curvature="0" /><path
         d="m 2469.44,2386.95 v -211.63 c 1.47,-0.25 2.94,-0.74 3.93,-1.97 l 24.64,-21.68 c 3.2,-2.96 3.45,-7.89 0.73,-10.84 v 0 c -2.7,-3.2 -7.63,-3.45 -10.84,-0.74 l -18.71,16.51 v -29.31 c 0,-4.2 -3.45,-7.65 -7.89,-7.65 v 0 c -4.19,0 -7.64,3.45 -7.64,7.65 l 0.26,31.03 -20.46,-18.23 c -3.2,-2.71 -8.12,-2.46 -10.84,0.74 v 0 c -2.7,2.95 -2.45,7.88 0.74,10.84 l 24.64,21.68 c 1.47,1.48 3.69,2.22 5.92,1.97 v 211.63 h 15.52"
         style="fill:#382116;fill-opacity:1;fill-rule:evenodd;stroke:none"
         id="path210"
         inkscape:connector-curvature="0" /><path
         d="m 2494.31,2411.34 c 0.25,-1.23 0.25,-2.46 0.25,-3.7 0,-14.78 -18.23,-26.84 -40.64,-26.84 -22.67,0 -40.91,12.06 -40.91,26.84 0,0.98 0,1.98 0.25,2.71 10.1,-5.16 24.14,-8.61 39.67,-8.61 16.26,0 31.03,3.69 41.38,9.6 v 0"
         style="fill:#cc2d23;fill-opacity:1;fill-rule:evenodd;stroke:none"
         id="path212"
         inkscape:connector-curvature="0" /><path
         d="m 1737.84,260.082 c 0,-4.613 0.72,-8.512 2.15,-11.73 1.42,-3.231 3.38,-5.661 5.85,-7.301 2.5,-1.629 5.2,-2.469 8.14,-2.469 2.98,0 5.7,0.789 8.16,2.348 2.46,1.539 4.44,3.922 5.9,7.129 1.47,3.203 2.21,7.222 2.21,12.023 0,4.508 -0.74,8.387 -2.21,11.66 -1.46,3.219 -3.45,5.707 -5.96,7.43 -2.5,1.707 -5.24,2.57 -8.22,2.57 -3.1,0 -5.88,-0.883 -8.32,-2.621 -2.44,-1.781 -4.34,-4.289 -5.68,-7.59 -1.35,-3.301 -2.02,-7.109 -2.02,-11.449 z m 33.33,-24.91 v 1.699 c -2.27,-2.621 -4.52,-4.742 -6.73,-6.359 -2.2,-1.641 -4.62,-2.891 -7.2,-3.731 -2.59,-0.871 -5.41,-1.269 -8.47,-1.269 -4.06,0 -7.81,0.84 -11.28,2.558 -3.45,1.711 -6.44,4.18 -8.96,7.36 -2.53,3.179 -4.44,6.91 -5.75,11.242 -1.3,4.297 -1.95,8.969 -1.95,13.976 0,10.571 2.59,18.844 7.76,24.762 5.18,5.91 11.98,8.871 20.43,8.871 4.87,0 9,-0.84 12.34,-2.511 3.37,-1.661 6.62,-4.258 9.81,-7.731 v 25.02 c 0,3.48 0.69,6.101 2.09,7.871 1.38,1.781 3.36,2.672 5.92,2.672 2.57,0 4.55,-0.821 5.94,-2.454 1.38,-1.636 2.08,-4.039 2.08,-7.226 v -74.75 c 0,-3.223 -0.75,-5.641 -2.24,-7.25 -1.49,-1.613 -3.41,-2.41 -5.78,-2.41 -2.32,0 -4.23,0.82 -5.73,2.5 -1.52,1.668 -2.28,4.07 -2.28,7.16"
         style="fill:#352316;fill-opacity:1;fill-rule:nonzero;stroke:none"
         id="path214"
         inkscape:connector-curvature="0" /><path
         d="m 1812.76,265.398 h 30.74 c -0.42,5.801 -1.99,10.153 -4.69,13.012 -2.72,2.891 -6.29,4.32 -10.71,4.32 -4.22,0 -7.7,-1.46 -10.4,-4.359 -2.71,-2.941 -4.36,-7.242 -4.94,-12.973 z m 33.15,-9.617 h -33.15 c 0.04,-3.84 0.81,-7.23 2.34,-10.172 1.5,-2.937 3.51,-5.16 6.01,-6.64 2.51,-1.5 5.27,-2.227 8.29,-2.227 2.03,0 3.87,0.219 5.55,0.688 1.69,0.5 3.3,1.23 4.88,2.25 1.58,1.011 3.02,2.101 4.35,3.269 1.32,1.153 3.04,2.742 5.15,4.723 0.86,0.726 2.11,1.109 3.73,1.109 1.74,0 3.14,-0.472 4.21,-1.441 1.07,-0.949 1.62,-2.281 1.62,-4.031 0,-1.528 -0.6,-3.309 -1.8,-5.36 -1.2,-2.051 -3.02,-4.008 -5.44,-5.91 -2.43,-1.867 -5.45,-3.437 -9.13,-4.68 -3.64,-1.25 -7.86,-1.847 -12.63,-1.847 -10.88,0 -19.34,3.09 -25.38,9.289 -6.05,6.219 -9.07,14.629 -9.07,25.281 0,5.008 0.75,9.648 2.24,13.93 1.49,4.277 3.66,7.937 6.51,11.019 2.86,3.059 6.38,5.41 10.56,7.051 4.18,1.629 8.81,2.449 13.91,2.449 6.61,0 12.3,-1.39 17.03,-4.191 4.74,-2.801 8.29,-6.399 10.65,-10.828 2.36,-4.43 3.54,-8.942 3.54,-13.532 0,-4.281 -1.22,-7.019 -3.66,-8.289 -2.43,-1.261 -5.88,-1.91 -10.31,-1.91"
         style="fill:#352316;fill-opacity:1;fill-rule:nonzero;stroke:none"
         id="path216"
         inkscape:connector-curvature="0" /><path
         d="m 1923.13,247.672 c 0,-4.68 -1.13,-8.692 -3.41,-12.024 -2.27,-3.339 -5.63,-5.867 -10.1,-7.578 -4.43,-1.718 -9.85,-2.558 -16.22,-2.558 -6.08,0 -11.3,0.929 -15.64,2.777 -4.35,1.871 -7.56,4.191 -9.63,6.973 -2.07,2.82 -3.1,5.617 -3.1,8.429 0,1.879 0.65,3.45 1.99,4.789 1.32,1.321 2.99,1.961 5.03,1.961 1.77,0 3.14,-0.421 4.09,-1.293 0.95,-0.878 1.86,-2.089 2.73,-3.656 1.74,-3.043 3.82,-5.262 6.24,-6.781 2.42,-1.481 5.71,-2.231 9.9,-2.231 3.4,0 6.18,0.77 8.36,2.258 2.16,1.532 3.25,3.254 3.25,5.203 0,2.969 -1.12,5.129 -3.38,6.5 -2.26,1.379 -5.97,2.68 -11.15,3.93 -5.84,1.43 -10.58,2.961 -14.24,4.57 -3.67,1.571 -6.6,3.688 -8.79,6.289 -2.19,2.602 -3.28,5.821 -3.28,9.622 0,3.378 1.01,6.597 3.03,9.617 2.04,3.019 5.02,5.429 8.99,7.242 3.94,1.801 8.7,2.699 14.29,2.699 4.39,0 8.33,-0.461 11.82,-1.379 3.51,-0.89 6.43,-2.133 8.77,-3.66 2.33,-1.531 4.11,-3.223 5.33,-5.082 1.22,-1.867 1.83,-3.668 1.83,-5.457 0,-1.941 -0.65,-3.543 -1.95,-4.801 -1.31,-1.222 -3.16,-1.851 -5.56,-1.851 -1.74,0 -3.22,0.5 -4.43,1.492 -1.22,1 -2.63,2.488 -4.19,4.469 -1.29,1.648 -2.8,2.98 -4.54,3.98 -1.73,0.988 -4.1,1.469 -7.08,1.469 -3.06,0 -5.6,-0.629 -7.64,-1.942 -2.01,-1.308 -3.03,-2.918 -3.03,-4.859 0,-1.789 0.74,-3.238 2.22,-4.391 1.5,-1.136 3.51,-2.089 6.04,-2.828 2.52,-0.75 5.99,-1.648 10.43,-2.718 5.25,-1.282 9.54,-2.84 12.87,-4.59 3.33,-1.782 5.85,-3.883 7.59,-6.321 1.7,-2.421 2.56,-5.179 2.56,-8.269"
         style="fill:#352316;fill-opacity:1;fill-rule:nonzero;stroke:none"
         id="path218"
         inkscape:connector-curvature="0" /><path
         d="m 1948.83,284.789 v -48.988 c 0,-3.391 -0.81,-5.961 -2.42,-7.692 -1.62,-1.738 -3.66,-2.597 -6.16,-2.597 -2.48,0 -4.49,0.867 -6.05,2.66 -1.55,1.769 -2.32,4.328 -2.32,7.629 v 48.488 c 0,3.352 0.77,5.871 2.32,7.582 1.56,1.68 3.57,2.539 6.05,2.539 2.5,0 4.54,-0.859 6.16,-2.539 1.61,-1.711 2.42,-4.07 2.42,-7.082 z m -8.38,17.492 c -2.37,0 -4.38,0.739 -6.05,2.18 -1.69,1.437 -2.52,3.488 -2.52,6.16 0,2.391 0.85,4.359 2.57,5.91 1.72,1.559 3.72,2.34 6,2.34 2.2,0 4.13,-0.711 5.83,-2.121 1.69,-1.41 2.55,-3.449 2.55,-6.129 0,-2.629 -0.83,-4.66 -2.49,-6.129 -1.65,-1.461 -3.61,-2.211 -5.89,-2.211"
         style="fill:#352316;fill-opacity:1;fill-rule:nonzero;stroke:none"
         id="path220"
         inkscape:connector-curvature="0" /><path
         d="m 1973.96,260.512 c 0,-6.883 1.5,-12.071 4.5,-15.582 3,-3.52 6.88,-5.282 11.65,-5.282 2.8,0 5.47,0.75 7.97,2.262 2.51,1.52 4.54,3.801 6.12,6.828 1.56,3.051 2.36,6.731 2.36,11.071 0,6.933 -1.53,12.312 -4.57,16.16 -3.04,3.84 -7.04,5.773 -12.01,5.773 -4.84,0 -8.72,-1.851 -11.64,-5.543 -2.92,-3.668 -4.38,-8.91 -4.38,-15.687 z M 2023.08,282 v -49.25 c 0,-5.609 -0.61,-10.461 -1.82,-14.531 -1.19,-4.028 -3.12,-7.399 -5.77,-10.047 -2.65,-2.633 -6.12,-4.621 -10.4,-5.891 -4.27,-1.289 -9.61,-1.929 -15.98,-1.929 -5.83,0 -11.05,0.828 -15.64,2.457 -4.59,1.632 -8.13,3.75 -10.62,6.32 -2.47,2.601 -3.72,5.242 -3.72,7.98 0,2.071 0.69,3.77 2.1,5.063 1.41,1.32 3.12,1.969 5.09,1.969 2.49,0 4.66,-1.11 6.52,-3.301 0.91,-1.11 1.85,-2.258 2.82,-3.391 0.99,-1.14 2.06,-2.097 3.23,-2.91 1.19,-0.809 2.61,-1.418 4.26,-1.809 1.66,-0.39 3.56,-0.57 5.71,-0.57 4.39,0 7.79,0.602 10.21,1.82 2.43,1.219 4.13,2.918 5.1,5.129 0.97,2.18 1.54,4.52 1.7,7.039 0.17,2.493 0.3,6.543 0.37,12.071 -2.61,-3.649 -5.62,-6.41 -9.03,-8.321 -3.41,-1.886 -7.48,-2.847 -12.2,-2.847 -5.67,0 -10.62,1.461 -14.87,4.351 -4.24,2.899 -7.5,6.938 -9.76,12.157 -2.29,5.222 -3.42,11.23 -3.42,18.062 0,5.098 0.69,9.699 2.07,13.789 1.4,4.102 3.37,7.551 5.94,10.36 2.56,2.82 5.51,4.929 8.87,6.371 3.34,1.41 7.03,2.14 11.04,2.14 4.81,0 8.97,-0.929 12.49,-2.761 3.51,-1.84 6.78,-4.731 9.81,-8.668 v 2.308 c 0,2.93 0.71,5.199 2.17,6.832 1.45,1.59 3.32,2.418 5.59,2.418 3.26,0 5.44,-1.07 6.51,-3.199 1.08,-2.129 1.63,-5.199 1.63,-9.211"
         style="fill:#352316;fill-opacity:1;fill-rule:nonzero;stroke:none"
         id="path222"
         inkscape:connector-curvature="0" /><path
         d="m 2050,285.031 v -2.051 c 2.98,3.93 6.24,6.821 9.78,8.661 3.54,1.839 7.6,2.769 12.19,2.769 4.48,0 8.47,-0.98 11.99,-2.922 3.52,-1.949 6.15,-4.699 7.89,-8.246 1.11,-2.082 1.84,-4.32 2.17,-6.711 0.32,-2.41 0.5,-5.472 0.5,-9.199 v -31.531 c 0,-3.391 -0.78,-5.961 -2.33,-7.692 -1.56,-1.738 -3.57,-2.597 -6.05,-2.597 -2.54,0 -4.58,0.867 -6.15,2.66 -1.58,1.769 -2.35,4.328 -2.35,7.629 v 28.258 c 0,5.57 -0.79,9.851 -2.34,12.812 -1.55,2.949 -4.65,4.438 -9.28,4.438 -3.02,0 -5.78,-0.899 -8.26,-2.707 -2.48,-1.793 -4.3,-4.262 -5.46,-7.422 -0.83,-2.508 -1.24,-7.219 -1.24,-14.149 v -21.23 c 0,-3.43 -0.8,-6.02 -2.39,-7.731 -1.6,-1.718 -3.66,-2.558 -6.18,-2.558 -2.44,0 -4.44,0.867 -6.02,2.66 -1.57,1.769 -2.36,4.328 -2.36,7.629 v 48.988 c 0,3.223 0.7,5.641 2.12,7.231 1.4,1.589 3.32,2.39 5.77,2.39 1.49,0 2.83,-0.359 4.03,-1.07 1.2,-0.699 2.17,-1.75 2.89,-3.141 0.72,-1.418 1.08,-3.14 1.08,-5.168"
         style="fill:#352316;fill-opacity:1;fill-rule:nonzero;stroke:none"
         id="path224"
         inkscape:connector-curvature="0" /><path
         d="m 2119.97,265.398 h 30.72 c -0.42,5.801 -1.98,10.153 -4.69,13.012 -2.71,2.891 -6.27,4.32 -10.71,4.32 -4.22,0 -7.69,-1.46 -10.4,-4.359 -2.71,-2.941 -4.34,-7.242 -4.92,-12.973 z m 33.14,-9.617 h -33.14 c 0.03,-3.84 0.81,-7.23 2.31,-10.172 1.53,-2.937 3.53,-5.16 6.03,-6.64 2.5,-1.5 5.27,-2.227 8.29,-2.227 2.03,0 3.88,0.219 5.55,0.688 1.68,0.5 3.3,1.23 4.88,2.25 1.57,1.011 3.01,2.101 4.35,3.269 1.31,1.153 3.03,2.742 5.14,4.723 0.88,0.726 2.11,1.109 3.73,1.109 1.74,0 3.15,-0.472 4.22,-1.441 1.08,-0.949 1.61,-2.281 1.61,-4.031 0,-1.528 -0.6,-3.309 -1.8,-5.36 -1.2,-2.051 -3.01,-4.008 -5.43,-5.91 -2.42,-1.867 -5.46,-3.437 -9.12,-4.68 -3.67,-1.25 -7.88,-1.847 -12.64,-1.847 -10.88,0 -19.34,3.09 -25.39,9.289 -6.03,6.219 -9.06,14.629 -9.06,25.281 0,5.008 0.74,9.648 2.23,13.93 1.49,4.277 3.66,7.937 6.53,11.019 2.85,3.059 6.37,5.41 10.54,7.051 4.18,1.629 8.83,2.449 13.91,2.449 6.63,0 12.3,-1.39 17.04,-4.191 4.74,-2.801 8.29,-6.399 10.65,-10.828 2.35,-4.43 3.54,-8.942 3.54,-13.532 0,-4.281 -1.22,-7.019 -3.66,-8.289 -2.44,-1.261 -5.88,-1.91 -10.31,-1.91"
         style="fill:#352316;fill-opacity:1;fill-rule:nonzero;stroke:none"
         id="path226"
         inkscape:connector-curvature="0" /><path
         d="m 2188.86,260.082 c 0,-4.613 0.7,-8.512 2.14,-11.73 1.43,-3.231 3.39,-5.661 5.87,-7.301 2.48,-1.629 5.19,-2.469 8.13,-2.469 2.98,0 5.71,0.789 8.16,2.348 2.47,1.539 4.43,3.922 5.9,7.129 1.47,3.203 2.2,7.222 2.2,12.023 0,4.508 -0.73,8.387 -2.2,11.66 -1.47,3.219 -3.46,5.707 -5.96,7.43 -2.5,1.707 -5.24,2.57 -8.23,2.57 -3.1,0 -5.87,-0.883 -8.31,-2.621 -2.44,-1.781 -4.34,-4.289 -5.69,-7.59 -1.34,-3.301 -2.01,-7.109 -2.01,-11.449 z m 33.33,-24.91 v 1.699 c -2.27,-2.621 -4.52,-4.742 -6.73,-6.359 -2.21,-1.641 -4.62,-2.891 -7.19,-3.731 -2.6,-0.871 -5.41,-1.269 -8.48,-1.269 -4.06,0 -7.82,0.84 -11.27,2.558 -3.46,1.711 -6.45,4.18 -8.97,7.36 -2.52,3.179 -4.44,6.91 -5.74,11.242 -1.31,4.297 -1.96,8.969 -1.96,13.976 0,10.571 2.58,18.844 7.76,24.762 5.17,5.91 11.99,8.871 20.42,8.871 4.89,0 9.01,-0.84 12.36,-2.511 3.35,-1.661 6.62,-4.258 9.8,-7.731 v 25.02 c 0,3.48 0.7,6.101 2.09,7.871 1.38,1.781 3.36,2.672 5.92,2.672 2.57,0 4.54,-0.821 5.94,-2.454 1.38,-1.636 2.07,-4.039 2.07,-7.226 v -74.75 c 0,-3.223 -0.73,-5.641 -2.22,-7.25 -1.5,-1.613 -3.42,-2.41 -5.79,-2.41 -2.31,0 -4.22,0.82 -5.74,2.5 -1.51,1.668 -2.27,4.07 -2.27,7.16"
         style="fill:#352316;fill-opacity:1;fill-rule:nonzero;stroke:none"
         id="path228"
         inkscape:connector-curvature="0" /><path
         d="m 2292.27,259.57 c 0,-6.738 1.54,-11.91 4.63,-15.539 3.08,-3.633 7.12,-5.449 12.13,-5.449 4.26,0 7.94,1.867 11.02,5.566 3.08,3.711 4.63,9 4.63,15.934 0,4.457 -0.63,8.316 -1.93,11.527 -1.28,3.243 -3.1,5.731 -5.46,7.512 -2.36,1.738 -5.11,2.621 -8.26,2.621 -3.22,0 -6.1,-0.883 -8.63,-2.621 -2.52,-1.781 -4.51,-4.32 -5.96,-7.641 -1.44,-3.339 -2.17,-7.3 -2.17,-11.91 z m -0.8,50.352 v -25.883 c 3.18,3.32 6.43,5.852 9.75,7.602 3.3,1.781 7.4,2.64 12.29,2.64 5.62,0 10.56,-1.332 14.8,-4.011 4.23,-2.661 7.53,-6.54 9.87,-11.598 2.34,-5.07 3.51,-11.09 3.51,-18.024 0,-5.156 -0.66,-9.859 -1.95,-14.148 -1.31,-4.27 -3.2,-7.98 -5.69,-11.129 -2.48,-3.141 -5.5,-5.59 -9.03,-7.301 -3.54,-1.718 -7.43,-2.558 -11.7,-2.558 -2.61,0 -5.07,0.308 -7.36,0.929 -2.29,0.61 -4.26,1.418 -5.87,2.45 -1.6,1 -2.98,2.039 -4.12,3.121 -1.14,1.078 -2.65,2.687 -4.5,4.859 v -1.699 c 0,-3.172 -0.78,-5.57 -2.3,-7.231 -1.52,-1.632 -3.47,-2.429 -5.84,-2.429 -2.4,0 -4.31,0.797 -5.74,2.429 -1.43,1.661 -2.15,4.059 -2.15,7.231 v 74.008 c 0,3.441 0.7,6.039 2.08,7.789 1.4,1.769 3.33,2.633 5.81,2.633 2.61,0 4.62,-0.821 6.03,-2.5 1.4,-1.68 2.11,-4.051 2.11,-7.18"
         style="fill:#352316;fill-opacity:1;fill-rule:nonzero;stroke:none"
         id="path230"
         inkscape:connector-curvature="0" /><path
         d="m 2363.66,223.379 1.55,3.793 -20.86,52.527 c -1.27,3.012 -1.92,5.199 -1.92,6.571 0,1.46 0.37,2.8 1.12,4.039 0.75,1.25 1.76,2.242 3.07,2.98 1.3,0.742 2.66,1.121 4.06,1.121 2.44,0 4.28,-0.781 5.53,-2.328 1.25,-1.562 2.34,-3.773 3.29,-6.672 l 14.34,-41.719 13.59,38.797 c 1.08,3.153 2.05,5.602 2.93,7.391 0.87,1.769 1.78,2.98 2.75,3.59 0.98,0.633 2.35,0.941 4.13,0.941 1.29,0 2.52,-0.359 3.7,-1.039 1.17,-0.68 2.09,-1.59 2.73,-2.75 0.63,-1.16 0.96,-2.379 0.96,-3.672 -0.17,-0.777 -0.43,-1.89 -0.81,-3.359 -0.38,-1.43 -0.83,-2.93 -1.36,-4.391 l -22.09,-57.847 c -1.92,-5.102 -3.77,-9.082 -5.6,-11.981 -1.82,-2.902 -4.22,-5.141 -7.23,-6.68 -3,-1.562 -7.05,-2.339 -12.14,-2.339 -4.96,0 -8.69,0.539 -11.16,1.597 -2.49,1.102 -3.74,3.063 -3.74,5.91 0,1.942 0.58,3.45 1.77,4.512 1.18,1.051 2.94,1.609 5.25,1.609 0.91,0 1.8,-0.148 2.67,-0.398 1.08,-0.25 2.01,-0.383 2.79,-0.383 1.94,0 3.48,0.301 4.6,0.883 1.12,0.578 2.12,1.566 3.01,3.008 0.89,1.43 1.91,3.531 3.07,6.289"
         style="fill:#352316;fill-opacity:1;fill-rule:nonzero;stroke:none"
         id="path232"
         inkscape:connector-curvature="0" /><path
         d="m 2609.18,292.941 h 4.04 v 5.079 c 0,5.339 0.65,9.539 1.99,12.66 1.33,3.129 3.64,5.402 6.86,6.84 3.2,1.41 7.59,2.14 13.16,2.14 9.94,0 14.87,-2.398 14.87,-7.281 0,-1.57 -0.52,-2.918 -1.58,-4.027 -0.99,-1.11 -2.23,-1.672 -3.65,-1.672 -0.64,0 -1.8,0.121 -3.43,0.379 -1.56,0.222 -2.97,0.371 -4.08,0.371 -3.05,0 -5.01,-0.93 -5.92,-2.711 -0.81,-1.809 -1.26,-4.367 -1.26,-7.75 v -4.028 h 4.13 c 6.48,0 9.68,-1.929 9.68,-5.859 0,-2.723 -0.85,-4.5 -2.57,-5.25 -1.71,-0.75 -4.09,-1.133 -7.11,-1.133 h -4.13 v -44.898 c 0,-3.332 -0.8,-5.891 -2.44,-7.629 -1.57,-1.793 -3.6,-2.652 -6.15,-2.652 -2.4,0 -4.38,0.859 -5.99,2.652 -1.6,1.738 -2.38,4.297 -2.38,7.629 v 44.898 h -4.67 c -2.53,0 -4.46,0.563 -5.84,1.723 -1.37,1.117 -2.06,2.609 -2.06,4.43 0,4.078 2.85,6.089 8.53,6.089"
         style="fill:#352316;fill-opacity:1;fill-rule:nonzero;stroke:none"
         id="path234"
         inkscape:connector-curvature="0" /><path
         d="m 2664.66,249.969 v -14.168 c 0,-3.422 -0.86,-6.012 -2.45,-7.711 -1.61,-1.738 -3.66,-2.57 -6.12,-2.57 -2.51,0 -4.5,0.851 -6.06,2.601 -1.54,1.731 -2.35,4.301 -2.35,7.68 v 47.211 c 0,7.609 2.73,11.429 8.23,11.429 2.84,0 4.86,-0.89 6.11,-2.671 1.25,-1.79 1.92,-4.411 2.07,-7.891 2,3.48 4.08,6.101 6.2,7.891 2.17,1.781 4.98,2.671 8.56,2.671 3.57,0 7.01,-0.89 10.36,-2.671 3.37,-1.79 5.05,-4.161 5.05,-7.079 0,-2.07 -0.73,-3.793 -2.14,-5.121 -1.43,-1.359 -2.97,-2.031 -4.61,-2.031 -0.66,0 -2.17,0.41 -4.53,1.172 -2.39,0.738 -4.5,1.129 -6.3,1.129 -2.48,0 -4.51,-0.668 -6.08,-1.949 -1.59,-1.34 -2.82,-3.243 -3.69,-5.789 -0.85,-2.59 -1.44,-5.661 -1.78,-9.172 -0.33,-3.539 -0.47,-7.879 -0.47,-12.961"
         style="fill:#352316;fill-opacity:1;fill-rule:nonzero;stroke:none"
         id="path236"
         inkscape:connector-curvature="0" /><path
         d="m 2709.41,265.441 h 30.74 c -0.41,5.778 -1.97,10.118 -4.68,12.981 -2.74,2.887 -6.27,4.308 -10.72,4.308 -4.22,0 -7.69,-1.429 -10.4,-4.359 -2.72,-2.922 -4.37,-7.223 -4.94,-12.93 m 33.16,-9.64 h -33.16 c 0.05,-3.84 0.8,-7.25 2.32,-10.18 1.53,-2.922 3.52,-5.141 6.03,-6.652 2.52,-1.481 5.26,-2.219 8.3,-2.219 2.04,0 3.88,0.211 5.55,0.73 1.67,0.461 3.3,1.211 4.87,2.231 1.59,1 3.02,2.07 4.34,3.269 1.34,1.129 3.06,2.711 5.17,4.7 0.89,0.718 2.12,1.14 3.72,1.14 1.74,0 3.13,-0.488 4.23,-1.461 1.1,-0.957 1.6,-2.289 1.6,-4.027 0,-1.551 -0.59,-3.332 -1.74,-5.363 -1.24,-2.071 -3.05,-4.02 -5.46,-5.93 -2.46,-1.848 -5.49,-3.437 -9.15,-4.668 -3.64,-1.242 -7.87,-1.851 -12.63,-1.851 -10.91,0 -19.37,3.082 -25.4,9.281 -6.03,6.23 -9.08,14.66 -9.08,25.289 0,5.019 0.76,9.66 2.27,13.941 1.46,4.321 3.64,7.969 6.53,11.039 2.83,3.078 6.34,5.41 10.52,7.059 4.17,1.633 8.81,2.441 13.91,2.441 6.6,0 12.31,-1.41 17.03,-4.23 4.75,-2.758 8.34,-6.371 10.66,-10.82 2.37,-4.438 3.54,-8.93 3.54,-13.551 0,-4.227 -1.24,-6.989 -3.67,-8.258 -2.44,-1.27 -5.87,-1.91 -10.3,-1.91"
         style="fill:#352316;fill-opacity:1;fill-rule:nonzero;stroke:none"
         id="path238"
         inkscape:connector-curvature="0" /><path
         d="m 2779.93,265.441 h 30.72 c -0.42,5.778 -2,10.118 -4.67,12.981 -2.76,2.887 -6.29,4.308 -10.74,4.308 -4.22,0 -7.68,-1.429 -10.42,-4.359 -2.69,-2.922 -4.34,-7.223 -4.89,-12.93 m 33.15,-9.64 h -33.15 c 0.03,-3.84 0.81,-7.25 2.32,-10.18 1.5,-2.922 3.51,-5.141 6.01,-6.652 2.51,-1.481 5.26,-2.219 8.31,-2.219 2,0 3.88,0.211 5.52,0.73 1.71,0.461 3.3,1.211 4.89,2.231 1.59,1 3.02,2.07 4.35,3.269 1.3,1.129 3.02,2.711 5.15,4.7 0.88,0.718 2.13,1.14 3.72,1.14 1.75,0 3.16,-0.488 4.26,-1.461 1.06,-0.957 1.56,-2.289 1.56,-4.027 0,-1.551 -0.56,-3.332 -1.79,-5.363 -1.16,-2.071 -2.97,-4.02 -5.42,-5.93 -2.41,-1.848 -5.49,-3.437 -9.14,-4.668 -3.62,-1.242 -7.88,-1.851 -12.62,-1.851 -10.91,0 -19.36,3.082 -25.41,9.281 -6.04,6.23 -9.08,14.66 -9.08,25.289 0,5.019 0.76,9.66 2.28,13.941 1.47,4.321 3.64,7.969 6.51,11.039 2.83,3.078 6.34,5.41 10.54,7.059 4.18,1.633 8.82,2.441 13.92,2.441 6.59,0 12.27,-1.41 17.08,-4.23 4.7,-2.758 8.27,-6.371 10.59,-10.82 2.36,-4.438 3.57,-8.93 3.57,-13.551 0,-4.227 -1.25,-6.989 -3.68,-8.258 -2.45,-1.27 -5.88,-1.91 -10.29,-1.91"
         style="fill:#352316;fill-opacity:1;fill-rule:nonzero;stroke:none"
         id="path240"
         inkscape:connector-curvature="0" /><path
         d="m 2883.44,260.27 c 0,4.48 -0.71,8.332 -2.06,11.531 -1.36,3.23 -3.27,5.668 -5.66,7.371 -2.41,1.726 -5.12,2.598 -8.06,2.598 -4.66,0 -8.62,-1.879 -11.82,-5.532 -3.21,-3.687 -4.84,-9.109 -4.84,-16.277 0,-6.719 1.62,-11.992 4.82,-15.731 3.18,-3.75 7.09,-5.621 11.84,-5.621 2.8,0 5.44,0.832 7.83,2.442 2.42,1.648 4.34,4.101 5.77,7.347 1.45,3.301 2.18,7.25 2.18,11.872 m -33.25,24.628 v -2.039 c 3.19,3.95 6.51,6.832 9.98,8.661 3.39,1.859 7.31,2.8 11.65,2.8 5.19,0 10.03,-1.359 14.42,-4.05 4.39,-2.688 7.83,-6.622 10.38,-11.79 2.57,-5.21 3.84,-11.308 3.84,-18.39 0,-5.211 -0.74,-10.02 -2.2,-14.391 -1.45,-4.367 -3.51,-8 -6.07,-10.969 -2.56,-2.941 -5.6,-5.238 -9.08,-6.851 -3.54,-1.57 -7.27,-2.359 -11.29,-2.359 -4.83,0 -8.92,0.96 -12.19,2.91 -3.29,1.91 -6.43,4.789 -9.44,8.531 V 211.52 c 0,-7.418 -2.7,-11.18 -8.12,-11.18 -3.21,0 -5.28,0.969 -6.34,2.89 -0.99,1.95 -1.54,4.731 -1.54,8.43 v 73.172 c 0,3.227 0.7,5.609 2.1,7.227 1.4,1.57 3.34,2.382 5.78,2.382 2.4,0 4.35,-0.812 5.86,-2.449 1.53,-1.652 2.26,-3.992 2.26,-7.094"
         style="fill:#352316;fill-opacity:1;fill-rule:nonzero;stroke:none"
         id="path242"
         inkscape:connector-curvature="0" /><path
         d="m 2925.92,284.832 v -49.051 c 0,-3.359 -0.8,-5.929 -2.41,-7.66 -1.65,-1.75 -3.68,-2.601 -6.16,-2.601 -2.49,0 -4.48,0.859 -6.06,2.652 -1.53,1.797 -2.33,4.34 -2.33,7.609 v 48.559 c 0,3.332 0.8,5.859 2.33,7.531 1.58,1.738 3.57,2.57 6.06,2.57 2.48,0 4.51,-0.832 6.16,-2.57 1.61,-1.672 2.41,-4.062 2.41,-7.039 m -8.4,17.5 c -2.36,0 -4.38,0.738 -6.04,2.18 -1.68,1.48 -2.52,3.48 -2.52,6.129 0,2.41 0.85,4.371 2.59,5.949 1.72,1.531 3.69,2.32 5.97,2.32 2.23,0 4.16,-0.699 5.85,-2.078 1.69,-1.441 2.55,-3.512 2.55,-6.191 0,-2.61 -0.83,-4.649 -2.47,-6.121 -1.66,-1.45 -3.62,-2.188 -5.93,-2.188"
         style="fill:#352316;fill-opacity:1;fill-rule:nonzero;stroke:none"
         id="path244"
         inkscape:connector-curvature="0" /><path
         d="m 2980.56,233.242 -14.93,24.617 -9.2,-8.687 v -13.5 c 0,-3.25 -0.87,-5.762 -2.59,-7.5 -1.68,-1.793 -3.7,-2.652 -5.93,-2.652 -2.61,0 -4.67,0.851 -6.14,2.601 -1.5,1.731 -2.26,4.301 -2.26,7.68 v 72.32 c 0,3.75 0.75,6.609 2.17,8.578 1.46,1.992 3.55,2.961 6.23,2.961 2.62,0 4.65,-0.898 6.21,-2.699 1.51,-1.75 2.31,-4.391 2.31,-7.859 V 267.98 l 19.05,20.012 c 2.37,2.469 4.15,4.188 5.41,5.09 1.23,0.906 2.74,1.359 4.5,1.359 2.14,0 3.89,-0.679 5.34,-2.019 1.38,-1.34 2.08,-3.051 2.08,-5.063 0,-2.48 -2.31,-5.808 -6.88,-9.937 l -9.01,-8.262 17.39,-27.328 c 1.26,-2.043 2.21,-3.551 2.76,-4.613 0.55,-1.047 0.86,-2.09 0.86,-3.02 0,-2.711 -0.75,-4.801 -2.24,-6.367 -1.45,-1.562 -3.42,-2.312 -5.78,-2.312 -2.08,0 -3.69,0.519 -4.79,1.679 -1.12,1.102 -2.68,3.141 -4.56,6.043"
         style="fill:#352316;fill-opacity:1;fill-rule:nonzero;stroke:none"
         id="path246"
         inkscape:connector-curvature="0" /><path
         d="m 3017.38,225.52 c -2.55,0 -4.74,0.812 -6.63,2.492 -1.84,1.617 -2.79,3.937 -2.79,6.949 0,2.519 0.9,4.699 2.67,6.508 1.8,1.82 3.98,2.73 6.6,2.73 2.59,0 4.8,-0.91 6.69,-2.687 1.82,-1.801 2.75,-4.012 2.75,-6.551 0,-2.961 -0.93,-5.281 -2.75,-6.93 -1.89,-1.699 -4.06,-2.511 -6.54,-2.511"
         style="fill:#352316;fill-opacity:1;fill-rule:nonzero;stroke:none"
         id="path248"
         inkscape:connector-curvature="0" /><path
         d="m 3101.69,246.488 c 0,-2.09 -0.64,-4.367 -1.91,-6.758 -1.25,-2.429 -3.19,-4.691 -5.77,-6.871 -2.58,-2.168 -5.83,-3.918 -9.77,-5.238 -3.93,-1.32 -8.37,-2 -13.27,-2 -10.5,0 -18.69,3.059 -24.56,9.149 -5.85,6.109 -8.79,14.3 -8.79,24.582 0,6.968 1.32,13.109 4.03,18.449 2.66,5.32 6.57,9.469 11.64,12.398 5.1,2.922 11.22,4.371 18.27,4.371 4.4,0 8.42,-0.648 12.1,-1.929 3.66,-1.27 6.75,-2.95 9.33,-4.969 2.52,-2.051 4.47,-4.203 5.8,-6.492 1.35,-2.301 2,-4.438 2,-6.43 0,-2.02 -0.73,-3.75 -2.23,-5.16 -1.54,-1.41 -3.37,-2.11 -5.47,-2.11 -1.44,0 -2.61,0.372 -3.54,1.079 -0.96,0.73 -1.99,1.902 -3.14,3.543 -2.07,3.117 -4.21,5.5 -6.5,7.058 -2.25,1.582 -5.12,2.36 -8.59,2.36 -4.98,0 -9.05,-1.95 -12.12,-5.872 -3.05,-3.886 -4.6,-9.269 -4.6,-16.027 0,-3.191 0.41,-6.141 1.21,-8.82 0.76,-2.653 1.89,-4.942 3.39,-6.821 1.51,-1.871 3.31,-3.3 5.41,-4.269 2.12,-1.012 4.44,-1.492 6.95,-1.492 3.4,0 6.31,0.793 8.73,2.383 2.46,1.57 4.6,3.968 6.46,7.187 1.02,1.902 2.14,3.391 3.32,4.473 1.19,1.058 2.67,1.617 4.41,1.617 2.07,0 3.79,-0.789 5.15,-2.359 1.38,-1.579 2.06,-3.258 2.06,-5.032"
         style="fill:#352316;fill-opacity:1;fill-rule:nonzero;stroke:none"
         id="path250"
         inkscape:connector-curvature="0" /><path
         d="m 3157.82,259.961 c 0,6.91 -1.54,12.289 -4.56,16.129 -3.04,3.89 -7.11,5.808 -12.24,5.808 -3.33,0 -6.25,-0.859 -8.78,-2.566 -2.52,-1.723 -4.46,-4.25 -5.82,-7.613 -1.37,-3.367 -2.07,-7.278 -2.07,-11.758 0,-4.43 0.67,-8.289 2.03,-11.59 1.35,-3.332 3.28,-5.851 5.78,-7.621 2.54,-1.75 5.47,-2.648 8.86,-2.648 5.13,0 9.2,1.937 12.24,5.839 3.02,3.848 4.56,9.207 4.56,16.02 m 17.01,0 c 0,-5.031 -0.79,-9.699 -2.31,-13.981 -1.62,-4.261 -3.88,-7.921 -6.88,-10.968 -2.96,-3.063 -6.54,-5.41 -10.65,-7.051 -4.18,-1.629 -8.82,-2.449 -13.97,-2.449 -5.14,0 -9.77,0.82 -13.88,2.5 -4.07,1.617 -7.64,4 -10.63,7.07 -2.99,3.109 -5.28,6.75 -6.87,10.957 -1.49,4.191 -2.28,8.84 -2.28,13.922 0,5.148 0.81,9.84 2.35,14.09 1.56,4.301 3.82,7.949 6.77,10.949 2.94,3.012 6.5,5.34 10.66,6.992 4.21,1.637 8.83,2.449 13.88,2.449 5.13,0 9.77,-0.812 13.97,-2.492 4.17,-1.64 7.73,-4.019 10.73,-7.07 3,-3.09 5.26,-6.719 6.81,-10.91 1.52,-4.258 2.3,-8.879 2.3,-14.008"
         style="fill:#352316;fill-opacity:1;fill-rule:nonzero;stroke:none"
         id="path252"
         inkscape:connector-curvature="0" /><path
         d="M 3239.49,258.719 V 236.18 c 0,-3.571 -0.78,-6.211 -2.41,-8.008 -1.64,-1.793 -3.73,-2.66 -6.39,-2.66 -2.56,0 -4.67,0.867 -6.22,2.66 -1.62,1.797 -2.44,4.437 -2.44,8.008 v 27.011 c 0,4.258 -0.13,7.59 -0.4,9.957 -0.3,2.321 -1.1,4.293 -2.37,5.774 -1.29,1.527 -3.33,2.297 -6.09,2.297 -5.55,0 -9.2,-1.887 -10.95,-5.75 -1.74,-3.778 -2.65,-9.239 -2.65,-16.387 V 236.18 c 0,-3.5 -0.8,-6.18 -2.37,-8 -1.63,-1.758 -3.71,-2.668 -6.3,-2.668 -2.6,0 -4.69,0.91 -6.34,2.668 -1.63,1.82 -2.44,4.5 -2.44,8 v 48.511 c 0,3.18 0.72,5.618 2.19,7.258 1.5,1.68 3.43,2.492 5.81,2.492 2.33,0 4.24,-0.812 5.83,-2.312 1.53,-1.57 2.31,-3.707 2.31,-6.449 v -1.59 c 2.96,3.492 6.12,6.082 9.44,7.711 3.37,1.711 7.07,2.519 11.2,2.519 4.25,0 7.91,-0.859 10.96,-2.55 3.07,-1.688 5.58,-4.282 7.6,-7.68 2.86,3.441 5.93,6.019 9.2,7.711 3.28,1.679 6.88,2.519 10.86,2.519 4.62,0 8.64,-0.941 11.98,-2.738 3.35,-1.812 5.85,-4.441 7.51,-7.82 1.45,-3.102 2.15,-7.903 2.15,-14.481 V 236.18 c 0,-3.571 -0.78,-6.211 -2.39,-8.008 -1.6,-1.793 -3.75,-2.66 -6.4,-2.66 -2.59,0 -4.67,0.91 -6.31,2.668 -1.64,1.82 -2.46,4.5 -2.46,8 v 28.519 c 0,3.653 -0.16,6.563 -0.45,8.742 -0.3,2.207 -1.15,4.047 -2.5,5.539 -1.38,1.469 -3.46,2.239 -6.23,2.239 -2.23,0 -4.34,-0.688 -6.37,-2.008 -2.01,-1.289 -3.57,-3.121 -4.7,-5.301 -1.21,-2.859 -1.86,-7.941 -1.86,-15.191"
         style="fill:#352316;fill-opacity:1;fill-rule:nonzero;stroke:none"
         id="path254"
         inkscape:connector-curvature="0" /><path
         d="m 2450.56,264.07 c -0.02,0.02 -0.02,0.051 -0.02,0.121 0,-0.07 0,-0.101 0.02,-0.121"
         style="fill:#352316;fill-opacity:1;fill-rule:nonzero;stroke:none"
         id="path256"
         inkscape:connector-curvature="0" /><path
         d="m 2451.41,258.641 c 0.02,0 0.02,0 0.03,0 -0.34,1.558 -0.58,3.078 -0.79,4.589 0.21,-1.531 0.45,-3.05 0.76,-4.589"
         style="fill:#352316;fill-opacity:1;fill-rule:nonzero;stroke:none"
         id="path258"
         inkscape:connector-curvature="0" /><path
         d="m 2457.02,242.91 c -0.03,0.082 -0.06,0.141 -0.11,0.231 0.05,-0.09 0.08,-0.149 0.11,-0.231"
         style="fill:#352316;fill-opacity:1;fill-rule:nonzero;stroke:none"
         id="path260"
         inkscape:connector-curvature="0" /><path
         d="m 2456.49,243.961 c -0.15,0.289 -0.28,0.59 -0.43,0.871 0.15,-0.312 0.28,-0.582 0.43,-0.871"
         style="fill:#352316;fill-opacity:1;fill-rule:nonzero;stroke:none"
         id="path262"
         inkscape:connector-curvature="0" /><path
         d="m 2452.99,252.59 c 0.83,-2.621 1.82,-5.16 2.99,-7.57 -1.18,2.468 -2.16,5.011 -2.97,7.57 h -0.02"
         style="fill:#352316;fill-opacity:1;fill-rule:nonzero;stroke:none"
         id="path264"
         inkscape:connector-curvature="0" /><path
         d="m 2516.16,329 c 3.28,0 5.7,-0.262 8.47,-0.73 l 0.79,5 c 0,0 -7.66,2.339 -17.72,1.531 l -0.79,2.711 c 3.12,0.66 5.47,3.437 5.47,6.758 0,3.82 -3.1,6.89 -6.91,6.89 -3.81,0 -6.9,-3.07 -6.9,-6.89 0,-3.321 2.34,-6.098 5.46,-6.758 l 0.88,-3.02 c -10.68,-1.472 -19.18,-5.633 -19.18,-5.633 l 1.5,-4.617 c 6.47,2.16 12.07,3.469 17.15,4.008 4.98,0.531 8.73,0.75 11.78,0.75"
         style="fill:#352316;fill-opacity:1;fill-rule:nonzero;stroke:none"
         id="path266"
         inkscape:connector-curvature="0" /><path
         d="m 2456.9,303.801 0.03,0.039 c 0.26,0.32 0.5,0.64 0.75,0.941 l -2.06,1.457 -3.17,2.344 c -0.18,-0.242 -5.21,-4.863 -9.16,-13.383 -0.18,0.262 -0.38,0.52 -0.6,0.77 -1.19,1.312 -2.84,1.953 -4.95,1.922 -0.03,0 -0.06,0 -0.1,0 -1.3,0 -2.2,0.441 -2.78,0.98 0.58,0.719 0.93,1.66 0.93,2.688 0,2.41 -1.96,4.363 -4.37,4.363 -2.42,0 -4.38,-1.953 -4.38,-4.363 0,-2.418 1.96,-4.368 4.38,-4.368 0.37,0 0.73,0.051 1.08,0.129 1.08,-1.211 2.79,-2.238 5.28,-2.179 1.29,0.011 2.23,-0.332 2.86,-1.02 0.73,-0.789 0.97,-1.941 1.05,-2.801 -0.01,-0.011 -0.01,-0.019 -0.03,-0.019 -2.84,-7.781 -2.03,-17.461 -2.03,-17.461 l 6.91,-0.281 c 0.14,3.531 0.65,9.691 2.43,14.589 3.44,9.481 7.76,15.391 7.93,15.653"
         style="fill:#352316;fill-opacity:1;fill-rule:nonzero;stroke:none"
         id="path268"
         inkscape:connector-curvature="0" /><path
         d="m 2576.28,323.23 c -2.4,0 -4.37,-1.941 -4.37,-4.359 0,-0.371 0.07,-0.75 0.17,-1.101 -1.21,-1.071 -2.26,-2.782 -2.22,-5.282 0.02,-1.297 -0.31,-2.238 -1,-2.859 -0.55,-0.481 -1.25,-0.758 -1.94,-0.918 -5.14,7.219 -11.47,11.598 -11.47,11.598 L 2550.49,315 c 3.75,-3.41 7.58,-7.68 11.29,-13.008 2.57,-3.683 5.23,-8.441 7.42,-13.16 l 6.71,3.16 c 0,0 -3.06,7.559 -7.37,14.34 0.75,0.25 1.51,0.66 2.17,1.25 1.31,1.18 1.96,2.859 1.91,4.957 0,1.352 0.45,2.27 0.97,2.891 0.75,-0.578 1.69,-0.95 2.69,-0.95 2.44,0 4.38,1.981 4.38,4.391 0,2.418 -1.94,4.359 -4.38,4.359"
         style="fill:#352316;fill-opacity:1;fill-rule:nonzero;stroke:none"
         id="path270"
         inkscape:connector-curvature="0" /><path
         d="m 2558.93,263.082 c -9.21,-4.48 -24.37,-10.402 -44.32,-13.203 -7.84,-1.078 -15.43,-1.481 -22.42,-1.481 -9.09,0 -17.12,0.672 -23.28,1.454 -7.04,0.89 -12.53,1.98 -15.9,2.738 0.81,-2.559 1.79,-5.102 2.97,-7.57 0.02,-0.071 0.05,-0.141 0.08,-0.188 0.15,-0.281 0.28,-0.582 0.43,-0.871 0.14,-0.289 0.28,-0.551 0.42,-0.82 0.05,-0.09 0.08,-0.149 0.11,-0.231 1.98,-3.719 4.36,-7.14 7.07,-10.121 9.41,-10.269 19,-11.918 19.09,-11.937 l 0.15,-0.012 0.13,-0.039 c 0.09,-0.051 8.6,-2.789 21.52,-2.789 12.71,0 25.19,2.578 37.09,7.636 8.81,4.512 17.14,11.344 21.26,17.454 3.2,4.707 5.5,9.75 6.86,14.988 0.73,2.781 1.29,7.23 0.97,11.93 -2.6,-1.758 -6.7,-4.239 -12.23,-6.938"
         style="fill:#352316;fill-opacity:1;fill-rule:nonzero;stroke:none"
         id="path272"
         inkscape:connector-curvature="0" /><path
         d="m 2486.19,306.43 c 10.16,0 18.4,-8.25 18.4,-18.43 0,-10.16 -8.24,-18.398 -18.4,-18.398 -10.17,0 -18.42,8.238 -18.42,18.398 0,10.18 8.25,18.43 18.42,18.43 z m 53.86,-0.461 c 6.28,0 11.39,-5.11 11.39,-11.399 0,-6.281 -5.11,-11.398 -11.39,-11.398 -6.29,0 -11.4,5.117 -11.4,11.398 0,6.289 5.11,11.399 11.4,11.399 z m -80.19,-4.36 c -0.28,-0.398 -4.27,-6.039 -7.42,-14.711 -2.37,-6.507 -2.26,-15.976 -2.26,-16.097 v -0.02 c 0,-2.222 0.12,-4.41 0.36,-6.59 0,-0.07 0,-0.101 0.02,-0.121 0.03,-0.289 0.07,-0.539 0.09,-0.84 0.21,-1.511 0.45,-3.031 0.79,-4.589 4.57,-1.161 31.87,-7.539 62.4,-3.282 19.14,2.68 33.65,8.321 42.47,12.602 7.34,3.551 12.04,6.769 13.87,8.098 -1.82,6.711 -6.81,17.25 -11.4,23.82 -13.11,18.73 -27.24,23.543 -34.48,24.73 -2.78,0.45 -4.99,0.711 -8.14,0.711 -2.92,0 -6.55,-0.23 -11.39,-0.738 -4.86,-0.512 -10.27,-1.793 -16.55,-3.891 -8.81,-2.953 -16.78,-7.582 -23.05,-13.39 l -0.21,-0.192 c -0.94,-0.871 -2.87,-2.679 -5.1,-5.5"
         style="fill:#352316;fill-opacity:1;fill-rule:nonzero;stroke:none"
         id="path274"
         inkscape:connector-curvature="0" /></g><path
       transform="scale(0.1)"
       d="m 879.16,2664.23 c 12.813,-41.89 -61.094,-101.51 -164.808,-133.29 -103.965,-31.54 -198.329,-23.4 -211.129,18.47 -29.321,95.85 44.09,254.26 120.715,277.67 76.613,23.4 224.183,-61.6 255.222,-162.85 v 0"
       style="fill:#971a1f;fill-opacity:1;fill-rule:evenodd;stroke:none"
       id="path70"
       inkscape:connector-curvature="0" /><path
       transform="scale(0.1)"
       d="m 662.367,2731.98 c 23.403,0 42.125,-18.72 42.125,-42.14 0,-23.15 -18.722,-41.87 -42.125,-41.87 -23.156,0 -41.879,18.72 -41.879,41.87 0,23.42 18.723,42.14 41.879,42.14 z m 174.18,4.18 c 19.211,-21.68 34.238,-45.82 42.125,-70.71 -4.192,-1.47 -8.871,-2.46 -13.551,-2.46 -23.402,0 -42.129,18.97 -42.129,42.14 0,12.31 5.176,23.4 13.555,31.03 z m -83.27,65.3 c 20.45,-11.34 40.649,-25.14 58.625,-40.9 -1.222,-22.18 -19.457,-39.91 -42.129,-39.91 -23.148,0 -41.875,18.72 -41.875,42.12 0,17.25 10.348,32.03 25.379,38.69 z m -187.48,-17.5 c 17.976,21.43 37.937,36.96 58.141,43.12 3.945,1.23 7.878,1.97 12.312,2.71 3.203,-5.91 5.18,-13.06 5.18,-20.45 0,-23.17 -18.731,-42.12 -42.133,-42.12 -13.551,0 -25.867,6.64 -33.5,16.74 z M 501.98,2647.48 c 5.176,25.86 14.043,51.72 25.625,75.87 22.915,-0.24 41.395,-18.96 41.395,-42.13 0,-23.15 -18.727,-42.12 -42.137,-42.12 -9.359,0 -17.98,3.2 -24.883,8.38 z m 287.754,-86.23 c -10.593,-5.43 -21.683,-10.35 -33.504,-15.29 -22.91,0.51 -41.14,19.23 -41.14,42.14 0,23.16 18.723,41.88 42.121,41.88 23.164,0 41.887,-18.72 41.887,-41.88 0,-10.1 -3.453,-19.46 -9.364,-26.85 z m -197.089,52.22 c 23.16,0 42.128,-18.97 42.128,-42.13 0,-23.15 -18.968,-42.12 -42.128,-42.12 -23.157,0 -42.125,18.97 -42.125,42.12 0,23.16 18.968,42.13 42.125,42.13 v 0"
       style="fill:#fbc689;fill-opacity:1;fill-rule:evenodd;stroke:none"
       id="path72"
       inkscape:connector-curvature="0" /><path
       transform="scale(0.1)"
       d="m 760.664,2547.7 c 8.871,-18.97 16.262,-40.9 24.391,-59.13 20.941,-47.8 22.172,-94.37 -11.828,-109.39 -34.243,-15.03 -75.137,-16.02 -111.594,55.19 -14.043,27.34 -17.996,55.92 -15.031,81.3 21.425,3.19 44.339,8.12 67.75,15.27 16.257,4.92 31.781,10.6 46.312,16.76 v 0"
       style="fill:#bc8934;fill-opacity:1;fill-rule:evenodd;stroke:none"
       id="path74"
       inkscape:connector-curvature="0" /><path
       transform="scale(0.1)"
       d="m 760.664,2547.7 c 2.957,-6.42 5.914,-13.3 8.621,-20.21 -17.73,-7.39 -36.211,-14.04 -55.672,-19.95 -22.672,-6.9 -45.332,-12.32 -67.754,-16.26 -0.492,8.38 -0.25,16.5 0.743,24.39 21.425,3.19 44.339,8.12 67.75,15.27 16.257,4.92 31.781,10.6 46.312,16.76 v 0"
       style="fill:#9d5e1d;fill-opacity:1;fill-rule:evenodd;stroke:none"
       id="path76"
       inkscape:connector-curvature="0" /><path
       transform="scale(0.1)"
       d="m 880.641,2655.36 c 0.984,-41.16 -69.723,-94.86 -166.289,-124.42 -96.829,-29.31 -185.27,-24.39 -207.438,10.34 36.211,-9.35 112.332,-0.48 196.598,25.14 84.258,25.62 152.246,60.85 177.129,88.94 v 0"
       style="fill:#fbc689;fill-opacity:1;fill-rule:evenodd;stroke:none"
       id="path78"
       inkscape:connector-curvature="0" /><path
       transform="scale(0.1)"
       d="m 1484.72,2779.03 c 0,-65.77 -167.28,-119 -373.73,-119 -206.205,0 -373.486,53.23 -373.486,119 0,150.78 221.23,346.4 373.486,346.4 152.5,0 373.73,-187 373.73,-346.4 v 0"
       style="fill:#cc2d23;fill-opacity:1;fill-rule:evenodd;stroke:none"
       id="path80"
       inkscape:connector-curvature="0" /><path
       transform="scale(0.1)"
       d="m 1184.65,2667.43 c 4.19,-31.29 5.42,-66.02 8.87,-95.83 9.11,-77.62 -9.37,-145.6 -65.04,-152.01 -55.43,-6.66 -114.8,9.84 -135.992,128.35 -8.133,45.33 -1.476,88.2 14.042,123.43 32.28,-4.93 67.26,-7.63 103.97,-7.63 25.62,0 50.5,1.22 74.15,3.69 v 0"
       style="fill:#bc8934;fill-opacity:1;fill-rule:evenodd;stroke:none"
       id="path82"
       inkscape:connector-curvature="0" /><path
       transform="scale(0.1)"
       d="m 1184.65,2667.43 c 1.23,-10.6 2.46,-21.69 3.45,-32.77 -28.83,-2.96 -58.39,-4.43 -88.69,-4.43 -35.97,0 -70.95,2.21 -104.703,6.16 2.961,12.31 6.903,23.89 11.823,34.98 32.28,-4.93 67.26,-7.63 103.97,-7.63 25.62,0 50.5,1.22 74.15,3.69 v 0"
       style="fill:#9d5e1d;fill-opacity:1;fill-rule:evenodd;stroke:none"
       id="path84"
       inkscape:connector-curvature="0" /><path
       transform="scale(0.1)"
       d="m 1482.26,2765.73 c -20.7,-59.63 -179.11,-105.7 -371.27,-105.7 -192.162,0 -350.326,46.07 -371.017,105.7 60.355,-29.31 203.738,-50.01 371.017,-50.01 167.53,0 310.9,20.7 371.27,50.01 v 0"
       style="fill:#fbc689;fill-opacity:1;fill-rule:evenodd;stroke:none"
       id="path86"
       inkscape:connector-curvature="0" /><path
       transform="scale(0.1)"
       d="m 1050.14,3070.24 c 23.4,0 42.63,-15.02 42.63,-33.51 0,-18.72 -19.23,-33.75 -42.63,-33.75 -23.65,0 -42.62,15.03 -42.62,33.75 0,18.49 18.97,33.51 42.62,33.51 v 0"
       style="fill:#ffffff;fill-opacity:1;fill-rule:evenodd;stroke:none"
       id="path88"
       inkscape:connector-curvature="0" /><path
       transform="scale(0.1)"
       d="m 967.813,2965.05 c 11.578,0 21.187,-7.65 21.187,-17.01 0,-9.11 -9.609,-16.75 -21.187,-16.75 -11.829,0 -21.434,7.64 -21.434,16.75 0,9.36 9.605,17.01 21.434,17.01 v 0"
       style="fill:#ffffff;fill-opacity:1;fill-rule:evenodd;stroke:none"
       id="path90"
       inkscape:connector-curvature="0" /><path
       transform="scale(0.1)"
       d="m 1308.82,2580.22 c -8.38,-27.35 39.66,-66.04 107.17,-86.72 67.74,-20.71 129.09,-15.28 137.46,12.06 18.97,62.34 -28.57,165.56 -78.58,180.6 -50.02,15.27 -146.1,-39.92 -166.05,-105.94 v 0"
       style="fill:#d52424;fill-opacity:1;fill-rule:evenodd;stroke:none"
       id="path92"
       inkscape:connector-curvature="0" /><path
       transform="scale(0.1)"
       d="m 1385.92,2504.34 c -5.91,-12.33 -10.58,-26.62 -16.01,-38.45 -13.55,-31.03 -14.28,-61.58 7.89,-71.18 22.17,-9.87 48.78,-10.6 72.43,35.96 9.11,17.74 11.83,36.22 9.85,52.72 -14.04,2.22 -28.83,5.42 -44.09,10.11 -10.6,3.19 -20.7,6.89 -30.07,10.84 v 0"
       style="fill:#bc8934;fill-opacity:1;fill-rule:evenodd;stroke:none"
       id="path94"
       inkscape:connector-curvature="0" /><path
       transform="scale(0.1)"
       d="m 1385.92,2504.34 c -1.97,-4.2 -3.94,-8.63 -5.66,-13.06 11.58,-4.93 23.66,-9.37 36.21,-13.06 14.78,-4.68 29.57,-8.13 44.11,-10.59 0.24,5.42 0.24,10.59 -0.5,15.76 -14.04,2.22 -28.83,5.42 -44.09,10.11 -10.6,3.19 -20.7,6.89 -30.07,10.84 v 0"
       style="fill:#9d5e1d;fill-opacity:1;fill-rule:evenodd;stroke:none"
       id="path96"
       inkscape:connector-curvature="0" /><path
       transform="scale(0.1)"
       d="m 1307.83,2574.31 c -0.74,-26.61 45.33,-61.59 108.16,-80.81 63.06,-19.23 120.71,-16.02 135,6.64 -23.4,-6.16 -73.17,-0.24 -127.86,16.51 -54.94,16.51 -99.29,39.42 -115.3,57.66 v 0"
       style="fill:#fbc689;fill-opacity:1;fill-rule:evenodd;stroke:none"
       id="path98"
       inkscape:connector-curvature="0" /></g></svg>