<?xml version="1.0" encoding="UTF-8" standalone="no"?>
<!-- Created with Inkscape (http://www.inkscape.org/) -->

<svg
   xmlns:dc="http://purl.org/dc/elements/1.1/"
   xmlns:cc="http://creativecommons.org/ns#"
   xmlns:rdf="http://www.w3.org/1999/02/22-rdf-syntax-ns#"
   xmlns:svg="http://www.w3.org/2000/svg"
   xmlns="http://www.w3.org/2000/svg"
   xmlns:sodipodi="http://sodipodi.sourceforge.net/DTD/sodipodi-0.dtd"
   xmlns:inkscape="http://www.inkscape.org/namespaces/inkscape"
   version="1.1"
   id="svg2"
   xml:space="preserve"
   width="131.44243"
   height="134.76012"
   viewBox="0 0 131.44243 134.76012"
   sodipodi:docname="170014-OWQ554-310.eps"
   inkscape:version="0.92+devel unknown"><metadata
     id="metadata8"><rdf:RDF><cc:Work
         rdf:about=""><dc:format>image/svg+xml</dc:format><dc:type
           rdf:resource="http://purl.org/dc/dcmitype/StillImage" /><dc:title></dc:title></cc:Work></rdf:RDF></metadata><defs
     id="defs6" /><sodipodi:namedview
     pagecolor="#ffffff"
     bordercolor="#666666"
     inkscape:document-rotation="0"
     borderopacity="1"
     objecttolerance="10"
     gridtolerance="10"
     guidetolerance="10"
     inkscape:pageopacity="0"
     inkscape:pageshadow="2"
     inkscape:window-width="1600"
     inkscape:window-height="709"
     id="namedview4"
     showgrid="false"
     inkscape:zoom="0.80099998"
     inkscape:cx="76.677413"
     inkscape:cy="77.987236"
     inkscape:window-x="103"
     inkscape:window-y="34"
     inkscape:window-maximized="0"
     inkscape:current-layer="g10"
     fit-margin-top="0"
     fit-margin-left="0"
     fit-margin-right="0"
     fit-margin-bottom="0" /><g
     id="g10"
     inkscape:groupmode="layer"
     inkscape:label="ink_ext_XXXXXX"
     transform="matrix(1.3333333,0,0,-1.3333333,-283.11252,589.80532)"><path
       inkscape:connector-curvature="0"
       id="path16"
       style="fill:#b06426;fill-opacity:1;fill-rule:evenodd;stroke:none;stroke-width:0.1"
       d="m 277.193,107.944 -5.778,1.898 c -1.365,0.449 -1.939,2.066 -1.162,3.274 l 6.208,9.654 c 1.076,1.672 -0.449,3.8 -2.379,3.318 l -9.687,-2.422 c -1.369,-0.342 -2.701,0.678 -2.728,2.089 l -0.046,2.363 c -0.032,1.69 -1.88,2.71 -3.327,1.84 l -3.065,-1.844 c -1.999,-1.203 -4.247,1.13 -2.97,3.083 l 11.858,18.143 c 1.026,1.568 -0.26,3.618 -2.118,3.379 l -3.341,-0.429 c -1.381,-0.178 -2.577,0.959 -2.47,2.347 l 0.821,10.627 c 0.132,1.709 -1.659,2.903 -3.187,2.125 l -10.974,-5.595 c -1.086,-0.554 -2.414,-0.117 -2.96,0.973 l -0.984,1.962 c -0.874,1.744 -3.42,1.566 -4.044,-0.284 l -0.867,-2.573 c -0.758,-2.248 -4.05,-1.863 -4.268,0.5 l -1.344,14.558 c -0.158,1.711 -2.132,2.586 -3.505,1.554 l -0.817,-0.613 c -0.9,-0.676 -2.165,-0.561 -2.93,0.264 l -8.507,9.189 0.098,-1.059 -0.296,1.01 -4.449,-11.731 c -0.398,-1.048 -1.522,-1.629 -2.607,-1.346 l -0.999,0.261 c -1.661,0.434 -3.154,-1.121 -2.656,-2.763 l 4.243,-13.971 c 0.69,-2.272 -2.214,-3.87 -3.764,-2.073 l -1.777,2.063 c -1.274,1.477 -3.698,0.684 -3.852,-1.261 l -0.175,-2.206 c -0.096,-1.215 -1.163,-2.119 -2.377,-2.015 l -12.274,1.054 c -1.709,0.147 -2.919,-1.635 -2.152,-3.169 l 4.756,-9.529 c 0.622,-1.245 -0.058,-2.748 -1.403,-3.104 l -3.239,-0.855 c -1.811,-0.479 -2.23,-2.859 -0.691,-3.927 L 196.156,120.8 c 1.867,-1.297 0.776,-4.229 -1.485,-3.988 l -3.169,0.337 c -1.631,0.174 -2.87,-1.438 -2.282,-2.969 l 0.931,-2.429 c 0.505,-1.317 -0.345,-2.763 -1.743,-2.961 l -9.887,-1.399 c -1.97,-0.279 -2.583,-2.825 -0.956,-3.97 l 9.38,-6.6038 c 1.176,-0.8274 1.253,-2.541 0.157,-3.4692 v 0 c -1.575,-1.3351 -0.601,-3.9039 1.462,-3.8718 35.224,0.5437 54.131,4.6359 88.629,18.4678 v 0" /><path
       inkscape:connector-curvature="0"
       id="path18"
       style="fill:#352316;fill-opacity:1;fill-rule:evenodd;stroke:none;stroke-width:0.1"
       d="m 277.193,107.944 -5.313,1.746 c -1.601,0.525 -2.274,2.421 -1.361,3.838 l 5.424,8.437 c 1.262,1.962 -0.527,4.456 -2.79,3.89 l -8.297,-2.073 c -1.604,-0.401 -3.167,0.794 -3.198,2.448 l -0.024,1.233 c -0.038,1.98 -2.204,3.178 -3.902,2.157 l -1.085,-0.653 c -2.344,-1.41 -4.979,1.325 -3.483,3.615 l 10.503,16.069 c 1.202,1.84 -0.304,4.244 -2.483,3.963 l -2.064,-0.264 c -1.619,-0.208 -3.021,1.124 -2.895,2.752 l 0.732,9.487 c 0.154,2.005 -1.945,3.406 -3.737,2.493 l -10.032,-5.114 c -1.273,-0.65 -2.831,-0.138 -3.471,1.139 l -0.405,0.808 c -1.026,2.046 -4.011,1.837 -4.742,-0.331 l -0.005,-0.015 c -0.889,-2.636 -4.749,-2.185 -5.004,0.586 l -1.118,12.099 c -0.185,2.007 -2.499,3.032 -4.111,1.822 v 0 c -1.055,-0.792 -2.538,-0.658 -3.435,0.31 l -8.275,8.938 0.098,-1.059 -0.296,1.01 -0.246,-0.64 18.455,-90.7729 c 0.284,-1.3949 1.648,-2.3062 3.041,-2.0101 13.274,2.8199 26.49,7.257 43.519,14.092 v 0" /><path
       inkscape:connector-curvature="0"
       id="path20"
       style="fill:#352316;fill-opacity:1;fill-rule:evenodd;stroke:none;stroke-width:0.1"
       d="m 237.361,101.908 c 10.691,4.657 17.294,7.908 28.554,14.881 l 2.045,1.183 c -9.092,-8.007 -19.76,-13.106 -30.625,-18.0579 -5.247,-2.4153 -4.262,-3.1539 -3.695,-6.0371 0.986,-4.952 1.972,-12.1461 0.888,-12.5399 -2.907,-1.034 -3.573,7.441 -3.943,12.4418 -0.247,3.4 -0.516,3.4 -6.996,3.0551 -10.987,-0.616 -21.851,-0.8379 -32.717,1.7492 l 2.365,-0.073 c 13.106,-0.8633 20.449,-0.6661 31.88,0.2199 4.533,0.3461 5.568,-0.7129 4.828,2.4639 -1.06,4.485 -20.941,21.36 -25.376,24.514 -5.468,3.868 -9.287,7.242 -14.165,11.751 5.025,-3.818 9.386,-7.464 14.659,-11.012 11.579,-7.786 14.361,-11.185 20.989,-18.304 3.647,-3.918 3.549,-4.435 1.997,0.886 -2.071,7.144 -4.214,14.461 -4.066,23.036 0.148,9.459 -1.552,9.411 -3.055,18.822 -0.862,5.42 -1.504,9.633 -1.157,15.177 0.788,-5.446 0.935,-9.191 2.044,-14.98 1.798,-9.411 3.524,-9.337 3.548,-18.848 0,-8.424 2.218,-15.594 4.385,-22.591 1.601,-5.272 1.182,-5.519 2.34,0.074 1.995,9.608 2.588,13.945 8.45,26.656 2.662,5.766 4.508,11.161 6.799,17.025 -1.822,-6.406 -3.326,-11.259 -5.986,-17.394 -2.463,-5.691 -10.421,-29.761 -9.114,-35.082 0.468,-1.972 3.128,0.122 5.124,0.984 v 0" /><path
       inkscape:connector-curvature="0"
       id="path22"
       style="fill:#ea2f21;fill-opacity:1;fill-rule:evenodd;stroke:none;stroke-width:0.1"
       d="m 337.577,84.1711 -4.624,3.9668 c -1.09,0.934 -1.002,2.6449 0.176,3.4652 l 9.427,6.55 c 1.632,1.1348 1.034,3.6819 -0.933,3.9709 l -9.895,1.454 c -1.395,0.205 -2.237,1.653 -1.724,2.967 l 0.867,2.221 c 0.614,1.573 -0.705,3.22 -2.374,2.965 l -3.55,-0.541 c -2.303,-0.352 -3.494,2.657 -1.572,3.975 l 17.894,12.286 c 1.542,1.059 1.135,3.44 -0.672,3.926 l -3.251,0.874 c -1.343,0.36 -2.015,1.864 -1.389,3.105 l 4.809,9.525 c 0.771,1.529 -0.429,3.313 -2.137,3.174 l -12.277,-1.004 c -1.214,-0.099 -2.276,0.809 -2.367,2.023 l -0.164,2.216 c -0.143,1.942 -2.559,2.747 -3.84,1.279 l -1.818,-2.086 c -1.558,-1.786 -4.447,-0.175 -3.749,2.088 l 4.316,13.982 c 0.506,1.638 -0.98,3.198 -2.642,2.77 l -0.989,-0.255 c -1.087,-0.279 -2.211,0.308 -2.602,1.361 l -4.362,11.747 -0.32,-1.01 0.1,1.034 -8.557,-9.152 c -0.766,-0.819 -2.028,-0.929 -2.923,-0.252 l -0.841,0.636 c -1.368,1.033 -3.34,0.168 -3.505,-1.539 l -1.408,-14.565 c -0.229,-2.359 -3.517,-2.729 -4.265,-0.481 l -0.866,2.608 c -0.615,1.848 -3.154,2.038 -4.036,0.302 l -1.004,-1.975 c -0.552,-1.085 -1.882,-1.512 -2.963,-0.953 l -10.947,5.663 c -1.522,0.787 -3.318,-0.395 -3.196,-2.104 l 0.76,-10.634 c 0.099,-1.387 -1.1,-2.514 -2.478,-2.33 l -3.337,0.445 c -1.854,0.247 -3.147,-1.792 -2.132,-3.363 l 11.343,-17.572 c 1.232,-1.909 -0.893,-4.201 -2.889,-3.118 l -2.831,1.538 c -1.44,0.781 -3.197,-0.236 -3.238,-1.874 l -0.065,-2.608 c -0.035,-1.409 -1.371,-2.42 -2.736,-2.07 l -9.673,2.476 c -1.925,0.493 -3.461,-1.626 -2.393,-3.302 l 6.164,-9.682 c 0.771,-1.211 0.19,-2.824 -1.176,-3.265 v 0 c -1.962,-0.632 -2.041,-3.375 -0.124,-4.131 32.768,-12.932 51.816,-16.355 88.978,-16.7269 v 0" /><path
       inkscape:connector-curvature="0"
       id="path24"
       style="fill:#d52424;fill-opacity:1;fill-rule:evenodd;stroke:none;stroke-width:0.1"
       d="m 337.577,84.1711 -4.251,3.6461 c -1.278,1.0969 -1.176,3.1047 0.206,4.066 l 8.236,5.7219 c 1.915,1.332 1.212,4.3199 -1.095,4.6589 l -8.473,1.245 c -1.637,0.24 -2.624,1.94 -2.022,3.481 l 0.454,1.163 c 0.72,1.845 -0.827,3.779 -2.785,3.48 l -1.26,-0.193 c -2.702,-0.413 -4.099,3.117 -1.845,4.665 l 15.848,10.88 c 1.81,1.243 1.332,4.036 -0.788,4.606 l -2.005,0.539 c -1.576,0.423 -2.364,2.187 -1.629,3.643 l 4.292,8.503 c 0.906,1.794 -0.503,3.887 -2.506,3.724 l -11.222,-0.918 c -1.423,-0.116 -2.669,0.949 -2.775,2.374 l -0.068,0.927 c -0.169,2.279 -3.003,3.223 -4.505,1.501 l -0.043,-0.05 c -1.827,-2.095 -5.218,-0.206 -4.398,2.45 l 3.587,11.619 c 0.593,1.923 -1.151,3.752 -3.099,3.251 v 0 c -1.277,-0.328 -2.594,0.361 -3.053,1.596 l -4.243,11.426 -0.32,-1.01 0.1,1.034 -0.444,-0.492 -17.546,-90.9658 c -0.269,-1.3973 0.644,-2.759 2.044,-3.0152 13.334,-2.4461 27.258,-3.3719 45.608,-3.5559 v 0" /><path
       inkscape:connector-curvature="0"
       id="path26"
       style="fill:#352316;fill-opacity:1;fill-rule:evenodd;stroke:none;stroke-width:0.1"
       d="m 296.605,94.5422 c 11.653,0.2226 18.997,0.7387 32.052,2.8828 l 2.366,0.3211 c -11.48,-3.943 -23.257,-4.6082 -35.205,-5.0512 -5.791,-0.2211 -5.125,-1.2808 -5.716,-4.164 -0.987,-4.952 -2.807,-11.9989 -3.967,-11.9477 -3.079,0.1469 -0.469,8.252 1.11,13.0078 1.06,3.252 0.813,3.35 -5.322,5.493 -10.372,3.6219 -20.497,7.564 -29.563,14.117 l 2.143,-0.985 c 11.775,-5.789 18.65,-8.4262 29.562,-11.948 4.338,-1.4051 4.878,-2.7848 5.398,0.4429 0.736,4.5581 -11.211,27.7401 -14.118,32.3231 -3.572,5.666 -5.814,10.224 -8.599,16.26 3.178,-5.42 5.815,-10.471 9.338,-15.768 7.735,-11.603 9.015,-15.792 12.441,-24.907 1.873,-5.026 1.6,-5.469 2.192,0.049 0.79,7.391 1.603,14.98 5.002,22.862 3.744,8.673 2.168,9.289 4.361,18.552 1.257,5.347 2.291,9.461 4.729,14.462 -1.378,-5.321 -2.661,-8.845 -3.843,-14.608 -1.921,-9.387 -0.296,-9.979 -3.893,-18.775 -3.203,-7.809 -3.89,-15.274 -4.581,-22.566 -0.493,-5.495 -0.985,-5.543 2.217,-0.813 5.494,8.129 7.711,11.899 17.984,21.408 4.656,4.313 8.402,8.599 12.763,13.157 -4.115,-5.224 -7.368,-9.141 -12.171,-13.822 -4.435,-4.311 -20.991,-23.527 -21.803,-28.948 -0.297,-1.995 2.956,-1.084 5.123,-1.0348 v 0" /><path
       inkscape:connector-curvature="0"
       id="path28"
       style="fill:#d52424;fill-opacity:1;fill-rule:evenodd;stroke:none;stroke-width:0.1"
       d="m 389.412,428.483 c 11.899,-4.212 7.564,-4.212 19.462,0 25.844,9.189 41.365,-12.367 36.906,-41.291 -4.46,-28.923 -18.353,-44.814 -45.723,-41.316 -0.323,0.025 -0.617,0.074 -0.913,0.123 -0.295,-0.049 -0.59,-0.098 -0.887,-0.123 -27.37,-3.498 -41.29,12.393 -45.749,41.316 -4.434,28.924 11.062,50.48 36.904,41.291 v 0" /><path
       inkscape:connector-curvature="0"
       id="path30"
       style="fill:#ea2f21;fill-opacity:1;fill-rule:evenodd;stroke:none;stroke-width:0.1"
       d="m 389.412,428.483 c 11.899,-4.212 7.564,-4.212 19.462,0 15.202,5.421 26.829,0.173 32.914,-10.938 -6.724,-33.112 -35.993,-58.02 -71.099,-58.02 -2.931,0 -5.814,0.172 -8.672,0.517 -4.705,6.898 -7.784,16.063 -9.509,27.15 -4.434,28.924 11.062,50.48 36.904,41.291 v 0" /><path
       inkscape:connector-curvature="0"
       id="path32"
       style="fill:#6f441f;fill-opacity:1;fill-rule:evenodd;stroke:none;stroke-width:0.1"
       d="m 419.79,442.205 c -0.445,-4.655 -3.499,-8.844 -8.204,-10.519 -4.682,-1.651 -9.708,-0.345 -12.984,2.982 0.445,4.656 3.523,8.844 8.203,10.519 4.682,1.651 9.709,0.345 12.985,-2.982 v 0" /><path
       inkscape:connector-curvature="0"
       id="path34"
       style="fill:#945d29;fill-opacity:1;fill-rule:evenodd;stroke:none;stroke-width:0.1"
       d="m 419.79,442.205 c -0.173,-1.797 -0.74,-3.547 -1.653,-5.099 -2.487,-1.897 -5.64,-3.055 -9.09,-3.055 -3.769,0 -7.217,1.38 -9.78,3.597 1.208,3.4 3.868,6.233 7.538,7.539 4.682,1.651 9.709,0.345 12.985,-2.982 v 0" /><path
       inkscape:connector-curvature="0"
       id="path36"
       style="fill:#ffffff;fill-opacity:1;fill-rule:evenodd;stroke:none;stroke-width:0.1"
       d="m 368.596,415.573 c 3.104,0 5.561,-2.669 5.214,-5.846 -0.262,-2.395 -2.23,-4.36 -4.625,-4.617 -3.175,-0.341 -5.838,2.115 -5.838,5.216 0,2.906 2.341,5.247 5.249,5.247 v 0" /><path
       inkscape:connector-curvature="0"
       id="path38"
       style="fill:#352316;fill-opacity:1;fill-rule:evenodd;stroke:none;stroke-width:0.1"
       d="m 399.069,425.33 c -0.122,10.248 -3.005,18.847 -11.579,26.78 -1.945,1.577 2.982,6.479 5.174,3.351 5.568,-6.924 8.771,-18.33 8.501,-29.811 -0.814,-0.222 -1.431,-0.345 -2.096,-0.32 v 0" /><path
       inkscape:connector-curvature="0"
       id="path40"
       style="fill:#ad1b29;fill-opacity:1;fill-rule:evenodd;stroke:none;stroke-width:0.1"
       d="m 258.472,396.678 c 2.414,13.673 -7.637,28.997 -37.029,42.596 0,0 -0.27,-6.356 -7.636,-30.056 -10.619,-34.147 39.59,-41.44 44.665,-12.54 v 0" /><path
       inkscape:connector-curvature="0"
       id="path42"
       style="fill:#761734;fill-opacity:1;fill-rule:evenodd;stroke:none;stroke-width:0.1"
       d="m 221.443,439.274 c 0,0 -0.27,-6.356 -7.636,-30.056 -6.405,-20.572 9.287,-31.388 23.872,-30.426 1.01,37.989 -16.236,60.482 -16.236,60.482 v 0" /><path
       inkscape:connector-curvature="0"
       id="path44"
       style="fill:#352316;fill-opacity:1;fill-rule:evenodd;stroke:none;stroke-width:0.1"
       d="m 240.167,372.016 c -0.641,5.617 -1.084,11.727 -1.75,17.886 0.075,0.099 0.124,0.172 0.174,0.271 2.094,4.928 10.543,6.849 15.594,8.598 -5.099,-0.197 -12.466,-2.045 -16.112,-5.863 -0.394,3.277 -0.887,6.553 -1.502,9.756 0.171,0.074 0.32,0.222 0.394,0.394 1.724,4.114 8.745,5.741 12.933,7.219 -4.434,-0.197 -10.963,-1.897 -13.796,-5.421 -0.788,3.623 -1.798,7.121 -3.104,10.397 0.937,1.971 4.385,2.784 6.454,3.499 -2.193,-0.098 -5.346,-0.912 -6.823,-2.587 -0.419,0.985 -0.887,1.946 -1.356,2.907 -1.552,3.005 -1.723,2.537 -3.178,5.223 0.542,-3.302 0.838,-2.415 2.143,-5.691 0.518,-1.281 0.987,-2.562 1.406,-3.843 -1.874,0.985 -4.78,1.034 -6.727,0.665 2.218,-0.247 5.839,-0.247 7.145,-2.07 v 0 c 1.06,-3.597 1.823,-7.317 2.39,-11.086 -3.72,2.044 -9.535,2.118 -13.427,1.404 4.163,-0.468 10.839,-0.493 13.747,-3.572 0.468,-3.622 0.789,-7.317 1.035,-10.988 -4.435,2.587 -11.604,2.734 -16.408,1.897 5.051,-0.592 13.131,-0.69 16.58,-4.435 0.32,-5.026 0.542,-10.052 0.961,-14.905 0.099,-0.887 0.911,-1.552 1.799,-1.453 0.886,0.098 1.527,0.911 1.428,1.798 v 0" /><path
       inkscape:connector-curvature="0"
       id="path46"
       style="fill:#f2541b;fill-opacity:1;fill-rule:evenodd;stroke:none;stroke-width:0.1"
       d="m 264.778,367.729 c -2.414,13.673 7.638,28.997 37.029,42.597 0,0 0.271,-6.332 7.636,-30.032 10.619,-34.147 -39.589,-41.439 -44.665,-12.565 v 0" /><path
       inkscape:connector-curvature="0"
       id="path48"
       style="fill:#e34c1e;fill-opacity:1;fill-rule:evenodd;stroke:none;stroke-width:0.1"
       d="m 301.807,410.326 c 0,0 0.271,-6.332 7.636,-30.032 6.407,-20.572 -9.288,-31.388 -23.872,-30.427 -1.01,37.966 16.236,60.459 16.236,60.459 v 0" /><path
       inkscape:connector-curvature="0"
       id="path50"
       style="fill:#352316;fill-opacity:1;fill-rule:evenodd;stroke:none;stroke-width:0.1"
       d="m 283.083,343.068 c 0.64,5.617 1.085,11.751 1.749,17.91 -0.073,0.074 -0.122,0.173 -0.172,0.271 -2.094,4.928 -10.544,6.825 -15.595,8.574 5.1,-0.197 12.466,-2.02 16.113,-5.863 0.393,3.276 0.886,6.553 1.503,9.756 -0.174,0.098 -0.321,0.246 -0.394,0.418 -1.726,4.115 -8.746,5.741 -12.935,7.22 4.435,-0.198 10.963,-1.898 13.796,-5.446 0.788,3.622 1.799,7.121 3.105,10.397 -0.937,1.971 -4.386,2.784 -6.456,3.523 2.194,-0.099 5.347,-0.936 6.825,-2.611 0.419,0.985 0.888,1.97 1.355,2.907 1.552,3.005 1.724,2.537 3.179,5.223 -0.543,-3.277 -0.839,-2.389 -2.144,-5.692 -0.519,-1.256 -0.987,-2.537 -1.405,-3.843 1.873,1.01 4.781,1.035 6.727,0.69 -2.218,-0.271 -5.841,-0.271 -7.145,-2.094 v 0 c -1.059,-3.596 -1.824,-7.292 -2.39,-11.062 3.72,2.02 9.535,2.119 13.427,1.38 -4.165,-0.468 -10.841,-0.493 -13.747,-3.548 -0.468,-3.646 -0.789,-7.317 -1.036,-11.013 4.437,2.612 11.604,2.76 16.383,1.897 -5.024,-0.591 -13.105,-0.665 -16.555,-4.409 -0.32,-5.05 -0.542,-10.052 -0.96,-14.93 -0.098,-0.887 -0.913,-1.528 -1.798,-1.429 -0.888,0.099 -1.528,0.887 -1.43,1.774 v 0" /><path
       inkscape:connector-curvature="0"
       id="path52"
       style="fill:#945d29;fill-opacity:1;fill-rule:evenodd;stroke:none;stroke-width:0.1"
       d="m 259.31,409.488 c -3.646,8.327 0.37,19.66 17.023,32.866 0,0 1.134,-3.991 9.51,-17.96 C 297.89,404.29 267.02,391.848 259.31,409.488 v 0" /><path
       inkscape:connector-curvature="0"
       id="path54"
       style="fill:#6f441f;fill-opacity:1;fill-rule:evenodd;stroke:none;stroke-width:0.1"
       d="m 276.333,442.354 c 0,0 1.134,-3.991 9.51,-17.96 7.267,-12.122 -1.059,-21.435 -10.52,-23.085 -6.504,24.046 1.01,41.045 1.01,41.045 v 0" /><path
       inkscape:connector-curvature="0"
       id="path56"
       style="fill:#352316;fill-opacity:1;fill-rule:evenodd;stroke:none;stroke-width:0.1"
       d="m 274.807,396.604 c -0.468,3.67 -1.134,7.637 -1.652,11.677 -0.074,0.025 -0.123,0.074 -0.173,0.148 -2.093,2.809 -7.76,2.71 -11.257,3.055 3.276,0.665 8.252,0.641 11.184,-1.257 -0.27,2.169 -0.469,4.336 -0.566,6.455 -0.124,0.025 -0.246,0.099 -0.321,0.197 -1.725,2.366 -6.454,2.316 -9.362,2.612 2.883,0.542 7.293,0.468 9.632,-1.331 -0.047,2.414 0.051,4.805 0.394,7.096 -0.911,1.133 -3.225,1.108 -4.656,1.257 1.405,0.27 3.548,0.246 4.754,-0.617 0.1,0.715 0.248,1.38 0.397,2.07 0.516,2.168 0.713,1.872 1.205,3.818 0.173,-2.168 -0.147,-1.65 -0.492,-3.966 -0.123,-0.887 -0.221,-1.774 -0.271,-2.66 1.035,0.936 2.883,1.404 4.187,1.477 -1.378,-0.492 -3.694,-1.059 -4.236,-2.439 h -0.025 c -0.099,-2.464 -0.025,-4.927 0.198,-7.415 2.069,1.873 5.739,2.808 8.351,2.957 -2.587,-0.937 -6.824,-1.996 -8.204,-4.386 0.247,-2.39 0.617,-4.805 1.035,-7.194 2.439,2.365 6.972,3.572 10.15,3.77 -3.103,-1.158 -8.253,-2.465 -9.854,-5.396 0.566,-3.252 1.182,-6.479 1.675,-9.658 0.098,-0.591 -0.321,-1.108 -0.911,-1.207 -0.593,-0.074 -1.108,0.345 -1.182,0.937 v 0" /><path
       inkscape:connector-curvature="0"
       id="path58"
       style="fill:#352316;fill-opacity:1;fill-rule:evenodd;stroke:none;stroke-width:0.1"
       d="m 53.7219,385.468 c -4.509,21.064 19.2894,21.286 20.8418,32.766 0.5668,4.164 0.9363,6.702 1.1574,8.254 0.7887,-1.356 2.0699,-3.573 4.1394,-7.219 5.7645,-10.051 27.9125,-1.306 31.6325,-22.543 5.641,-32.249 -50.8735,-43.262 -57.7711,-11.258 v 0" /><path
       inkscape:connector-curvature="0"
       id="path60"
       style="fill:#ffffff;fill-opacity:1;fill-rule:evenodd;stroke:none;stroke-width:0.1"
       d="m 63.5758,399.831 c 1.6258,0.32 3.2031,-0.739 3.5234,-2.366 0.2949,-1.625 -0.764,-3.202 -2.3902,-3.523 -1.6262,-0.319 -3.2027,0.74 -3.5231,2.366 -0.3203,1.626 0.7387,3.202 2.3899,3.523 v 0" /><path
       inkscape:connector-curvature="0"
       id="path62"
       style="fill:#b06426;fill-opacity:1;fill-rule:evenodd;stroke:none;stroke-width:0.1"
       d="m 98.0172,399.165 c 2.0938,29.121 33.1598,20.375 39.5408,34.739 2.315,5.173 3.72,8.351 4.607,10.273 0.518,-2.07 1.33,-5.445 2.661,-10.939 3.695,-15.275 35.82,-12.294 32.618,-41.316 -4.878,-44.1 -82.6049,-37.004 -79.4268,7.243 v 0" /><path
       inkscape:connector-curvature="0"
       id="path64"
       style="fill:#e1a766;fill-opacity:1;fill-rule:evenodd;stroke:none;stroke-width:0.1"
       d="m 173.231,378.963 c -15.102,-25.573 -64.029,-20.917 -73.6372,7.342 6.8492,3.868 21.0142,5.691 37.1262,4.213 16.827,-1.528 30.944,-6.208 36.511,-11.555 v 0" /><path
       inkscape:connector-curvature="0"
       id="path66"
       style="fill:#b7551e;fill-opacity:1;fill-rule:evenodd;stroke:none;stroke-width:0.1"
       d="m 171.581,376.45 c -16.113,-21.902 -59.398,-17.787 -70.829,6.973 7.268,3.35 20.621,4.829 35.623,3.473 15.645,-1.428 28.923,-5.567 35.206,-10.446 v 0" /><path
       inkscape:connector-curvature="0"
       id="path68"
       style="fill:#ffffff;fill-opacity:1;fill-rule:evenodd;stroke:none;stroke-width:0.1"
       d="m 163.499,412.346 c 2.243,-0.197 3.894,-2.168 3.696,-4.41 -0.197,-2.242 -2.193,-3.893 -4.434,-3.695 -2.218,0.221 -3.868,2.193 -3.671,4.434 0.197,2.243 2.193,3.893 4.409,3.671 v 0" /><path
       inkscape:connector-curvature="0"
       id="path100"
       style="fill:#d52424;fill-opacity:1;fill-rule:evenodd;stroke:none;stroke-width:0.1"
       d="m 425.811,148.487 c -0.369,2.218 -1.477,3.968 -2.685,4.51 -0.96,-0.912 -1.428,-2.932 -1.034,-5.126 0.37,-2.217 1.453,-3.966 2.66,-4.508 0.986,0.911 1.429,2.932 1.059,5.124 v 0" /><path
       inkscape:connector-curvature="0"
       id="path102"
       style="fill:#432a16;fill-opacity:1;fill-rule:evenodd;stroke:none;stroke-width:0.1"
       d="m 417.879,154.401 c 8.229,-1.528 13.723,0.098 19.98,-2.562 v -0.469 c -7.859,1.972 -21.039,0.026 -21.705,2.537 -0.074,0.395 0.272,0.764 0.764,0.838 0.394,0.05 0.764,-0.097 0.961,-0.344 v 0" /><path
       inkscape:connector-curvature="0"
       id="path104"
       style="fill:#d52424;fill-opacity:1;fill-rule:evenodd;stroke:none;stroke-width:0.1"
       d="m 440.372,147.503 c 0.689,-2.267 0.493,-4.46 -0.419,-5.568 -1.354,0.418 -2.734,2.118 -3.425,4.41 -0.665,2.168 -0.493,4.261 0.296,5.394 -0.393,1.33 0.049,3.302 1.281,5.174 1.305,1.996 3.104,3.229 4.535,3.253 0.54,-1.307 0.121,-3.475 -1.183,-5.47 -0.396,-0.616 -0.839,-1.157 -1.307,-1.6 1.233,0.172 2.611,0.122 4.066,-0.173 3.128,-0.642 5.543,-2.292 6.257,-4.04 -1.355,-1.332 -4.238,-1.874 -7.342,-1.233 -1.206,0.271 -2.291,0.665 -3.252,1.159 0.197,-0.42 0.37,-0.838 0.493,-1.306 v 0" /><path
       inkscape:connector-curvature="0"
       id="path106"
       style="fill:#432a16;fill-opacity:1;fill-rule:evenodd;stroke:none;stroke-width:0.1"
       d="m 439.337,174.553 c 5.716,-1.084 9.534,0.05 13.894,-1.798 v -0.32 c -5.468,1.38 -14.632,0.024 -15.101,1.774 -0.049,0.271 0.197,0.518 0.543,0.566 0.269,0.024 0.516,-0.048 0.664,-0.222 v 0" /><path
       inkscape:connector-curvature="0"
       id="path108"
       style="fill:#d52424;fill-opacity:1;fill-rule:evenodd;stroke:none;stroke-width:0.1"
       d="m 454.981,169.749 c 0.468,-1.576 0.32,-3.104 -0.295,-3.867 -0.937,0.295 -1.922,1.478 -2.39,3.055 -0.444,1.527 -0.346,2.98 0.197,3.769 -0.246,0.911 0.049,2.291 0.887,3.572 0.911,1.405 2.168,2.267 3.153,2.267 0.395,-0.912 0.099,-2.414 -0.788,-3.794 -0.296,-0.42 -0.591,-0.789 -0.936,-1.108 0.863,0.122 1.823,0.073 2.833,-0.124 2.168,-0.444 3.868,-1.602 4.36,-2.808 -0.936,-0.937 -2.956,-1.307 -5.1,-0.863 -0.837,0.173 -1.601,0.468 -2.266,0.812 0.123,-0.295 0.247,-0.59 0.345,-0.911 v 0" /><path
       inkscape:connector-curvature="0"
       id="path110"
       style="fill:#432a16;fill-opacity:1;fill-rule:evenodd;stroke:none;stroke-width:0.1"
       d="m 401.595,125.477 c -5.15,6.602 -10.348,8.993 -13.304,15.127 l 0.32,0.345 c 4.608,-6.676 15.791,-13.92 14.61,-16.236 -0.198,-0.344 -0.691,-0.418 -1.134,-0.123 -0.32,0.222 -0.492,0.567 -0.492,0.887 v 0" /><path
       inkscape:connector-curvature="0"
       id="path112"
       style="fill:#d52424;fill-opacity:1;fill-rule:evenodd;stroke:none;stroke-width:0.1"
       d="m 389.276,145.531 c 0.986,2.168 2.613,3.672 3.992,3.893 0.739,-1.207 0.665,-3.4 -0.321,-5.568 -0.961,-2.07 -2.464,-3.523 -3.794,-3.868 -0.592,-1.231 -2.242,-2.439 -4.36,-3.031 -2.316,-0.64 -4.484,-0.368 -5.568,0.567 0.444,1.331 2.193,2.686 4.484,3.327 0.714,0.197 1.404,0.296 2.044,0.343 -1.034,0.666 -2.044,1.627 -2.931,2.81 -1.923,2.537 -2.637,5.395 -2.02,7.169 1.897,0.099 4.409,-1.404 6.306,-3.942 0.74,-0.985 1.306,-2.02 1.676,-3.004 0.123,0.418 0.295,0.862 0.492,1.304 v 0" /><path
       inkscape:connector-curvature="0"
       id="path114"
       style="fill:#d52424;fill-opacity:1;fill-rule:evenodd;stroke:none;stroke-width:0.1"
       d="m 443.451,170.391 c -1.034,1.995 -2.611,3.325 -3.942,3.472 -0.641,-1.182 -0.443,-3.226 0.592,-5.222 1.035,-1.996 2.636,-3.326 3.942,-3.45 0.641,1.159 0.468,3.228 -0.592,5.2 v 0" /><path
       inkscape:connector-curvature="0"
       id="path116"
       style="fill:#d52424;fill-opacity:1;fill-rule:evenodd;stroke:none;stroke-width:0.1"
       d="m 391.962,129.369 c 2.241,0.025 4.139,0.815 4.878,1.946 -0.764,1.084 -2.686,1.849 -4.928,1.824 -2.217,-0.025 -4.138,-0.837 -4.853,-1.946 0.739,-1.084 2.661,-1.874 4.903,-1.824 v 0" /><path
       inkscape:connector-curvature="0"
       id="path118"
       style="fill:#6c4319;fill-opacity:1;fill-rule:evenodd;stroke:none;stroke-width:0.1"
       d="m 413.124,174.553 c 0.788,2.12 1.38,3.277 2.192,4.262 l 1.972,-0.566 c -1.478,-4.287 -1.356,-6.431 -3.302,-13.551 -4.483,-16.457 3.376,-5.074 13.574,2.883 2.12,1.675 4.509,3.376 7.17,5.1 8.795,5.74 11.357,7.638 16.827,13.994 l 0.985,-0.592 c -3.721,-6.873 -9.509,-10.938 -16.161,-15.841 -21.779,-15.965 -23.676,-34.294 -36.043,-56.985 -2.463,-4.509 -23.157,-51.3922 -27.815,-40.1828 -3.153,10.8399 17.665,33.8758 22.912,42.8678 12.737,21.854 11.506,42.278 17.689,58.611 v 0" /><path
       inkscape:connector-curvature="0"
       id="path120"
       style="fill:#432a16;fill-opacity:1;fill-rule:evenodd;stroke:none;stroke-width:0.1"
       d="m 414.159,156.372 c 2.389,0.861 7.514,6.603 13.401,11.209 2.12,1.675 4.509,3.376 7.17,5.1 8.795,5.74 11.357,7.638 16.827,13.994 l 0.985,-0.592 c -3.721,-6.873 -9.509,-10.938 -16.161,-15.841 -21.779,-15.965 -23.676,-34.294 -36.043,-56.985 -2.463,-4.509 -23.157,-51.3922 -27.815,-40.1828 -1.034,3.5477 0.518,8.427 3.252,13.6738 15.817,0.1231 26.164,41.513 34.467,60.607 l 3.917,9.017" /><path
       inkscape:connector-curvature="0"
       id="path122"
       style="fill:#352316;fill-opacity:1;fill-rule:evenodd;stroke:none;stroke-width:0.1"
       d="m 414.63,267.558 c 13.51,-8.643 18.307,-25.282 10.7,-37.174 -0.903,-1.411 -1.957,-2.695 -3.111,-3.858 -9.098,2.601 -19.501,7.327 -29.814,13.923 -7.202,4.608 -13.584,9.628 -18.887,14.686 0.585,2.287 1.541,4.512 2.856,6.566 7.129,11.145 22.611,14.138 35.657,7.372 6.488,8.953 17.614,12.861 19.658,8.512 2.072,-4.395 -7.277,-3.739 -17.122,-9.987 l 0.063,-0.04" /><path
       inkscape:connector-curvature="0"
       id="path124"
       style="fill:#b06426;fill-opacity:1;fill-rule:evenodd;stroke:none;stroke-width:0.1"
       d="m 402.55,260.194 6.128,1.578 -1.58,6.128 -6.127,-1.578 z m -7.712,-1.998 6.127,1.579 -1.578,6.127 -6.128,-1.578 z m -7.721,-1.964 6.127,1.579 -1.591,6.107 -6.128,-1.579 z m -7.712,-1.997 6.126,1.578 -1.576,6.127 -6.128,-1.578 z m 32.841,0.224 6.127,1.579 -1.576,6.127 -6.13,-1.577 z m -7.699,-1.978 6.128,1.58 -1.577,6.127 -6.13,-1.577 z m -7.733,-1.984 6.127,1.579 -1.578,6.128 -6.128,-1.578 z m -7.712,-1.997 6.127,1.579 -1.578,6.127 -6.129,-1.579 z m 25.141,-1.753 6.129,1.577 -1.579,6.129 -6.127,-1.578 z m -7.732,-1.983 6.127,1.578 -1.578,6.126 -6.127,-1.577 z m -7.7,-1.979 6.128,1.58 -1.578,6.126 -6.128,-1.579 z m 17.411,-3.736 6.127,1.578 -1.58,6.128 -6.127,-1.578 z m -7.713,-1.999 6.128,1.578 -1.579,6.129 -6.128,-1.578 z m 9.696,-5.735 6.127,1.579 -1.576,6.128 -6.129,-1.579 z m -2.621,35.633 c 0.698,-0.507 1.421,-1.027 2.094,-1.573 l 0.303,-1.22 0.844,0.222 c 0.484,-0.428 0.959,-0.877 1.411,-1.313 l -1.857,-0.479 1.579,-6.128 4.59,1.187 c 0.304,-0.485 0.593,-0.992 0.861,-1.487 l -5.032,-1.284 1.578,-6.127 5.924,1.533 c 0.154,-0.537 0.286,-1.061 0.407,-1.605 l -5.925,-1.533 1.579,-6.13 4.991,1.312 c 0.005,-0.588 -0.046,-1.17 -0.082,-1.73 l -4.509,-1.152 1.577,-6.127 1.116,0.28 c -0.472,-1.102 -1.039,-2.172 -1.703,-3.21 -0.08,-0.124 -0.159,-0.249 -0.239,-0.373 l -0.339,1.299 -6.127,-1.579 0.591,-2.278 c -0.634,0.199 -1.233,0.406 -1.853,0.628 l -0.323,1.23 -1.81,-0.451 c -0.874,0.326 -1.736,0.672 -2.617,1.031 l 4.021,1.026 -1.577,6.127 -6.127,-1.579 1.148,-4.508 c -0.645,0.267 -1.28,0.556 -1.914,0.845 l -0.842,3.259 -3.815,-0.982 c -0.717,0.341 -1.429,0.737 -2.174,1.126 l 5.592,1.426 -1.579,6.128 -6.128,-1.578 1.445,-5.604 c -0.647,0.355 -1.318,0.726 -1.969,1.083 l -1.081,4.114 -4.068,-1.054 c -0.373,0.239 -0.746,0.477 -1.14,0.729 -0.25,0.16 -0.499,0.319 -0.749,0.479 l 5.571,1.438 -1.578,6.127 -6.127,-1.578 1.409,-5.522 c -0.693,0.472 -1.364,0.93 -2.036,1.389 l -0.978,3.726 -3.123,-0.81 c -0.574,0.427 -1.129,0.841 -1.684,1.252 l 4.408,1.129 -1.579,6.129 -6.129,-1.579 1.01,-3.863 c -0.733,0.588 -1.45,1.162 -2.15,1.756 l -0.45,1.722 -1.177,-0.33 c -0.506,0.441 -1.001,0.904 -1.487,1.332 l 2.264,0.57 -1.577,6.126 -1.014,-0.257 c 0.349,0.683 0.733,1.373 1.145,2.016 0.266,0.416 0.537,0.797 0.811,1.177 l 0.222,-0.93 6.128,1.577 -1.144,4.475 c 0.479,0.337 0.946,0.654 1.452,0.943 l 1.298,-5.012 6.128,1.58 -1.558,6.025 c 0.518,0.167 1.041,0.299 1.585,0.419 l 1.556,-6.026 6.128,1.58 -1.327,5.147 c 0.554,-0.004 1.128,-0.02 1.703,-0.036 l 1.195,-4.713 6.128,1.578 -0.481,1.946 c 0.612,-0.187 1.224,-0.374 1.83,-0.615 l 0.255,-0.924 1.267,0.33 c 0.805,-0.339 1.578,-0.688 2.344,-1.09 l -3.211,-0.812 1.579,-6.127 6.128,1.578 -0.806,3.177" /><path
       inkscape:connector-curvature="0"
       id="path126"
       style="fill:#d52424;fill-opacity:1;fill-rule:evenodd;stroke:none;stroke-width:0.1"
       d="m 419.063,227.49 c -0.909,-2.518 -2.113,-4.994 -3.64,-7.381 -9.32,-14.568 -26.785,-20.065 -38.988,-12.259 -12.223,7.819 -14.557,25.982 -5.238,40.55 1.196,1.868 2.544,3.608 4.004,5.16 4.952,-4.512 10.749,-8.982 17.204,-13.111 9.152,-5.854 18.351,-10.217 26.658,-12.959 v 0" /><path
       inkscape:connector-curvature="0"
       id="path128"
       style="fill:#ea2f21;fill-opacity:1;fill-rule:evenodd;stroke:none;stroke-width:0.1"
       d="m 419.063,227.49 c -0.909,-2.518 -2.113,-4.994 -3.64,-7.381 -0.611,-0.954 -1.264,-1.882 -1.931,-2.743 -13.255,-7.283 -30.47,-7.033 -44.684,2.06 -0.685,0.438 -1.358,0.898 -2.029,1.355 -2.633,8.412 -1.29,18.696 4.418,27.619 1.196,1.868 2.544,3.608 4.004,5.16 4.952,-4.512 10.749,-8.982 17.204,-13.111 9.152,-5.854 18.351,-10.217 26.658,-12.959 v 0" /><path
       inkscape:connector-curvature="0"
       id="path130"
       style="fill:#d52424;fill-opacity:1;fill-rule:evenodd;stroke:none;stroke-width:0.1"
       d="m 419.063,227.49 c -0.467,-1.278 -0.991,-2.554 -1.624,-3.816 -8.247,2.557 -17.266,6.746 -26.191,12.455 -7.055,4.513 -13.286,9.494 -18.445,14.549 0.753,1.041 1.561,1.985 2.398,2.882 4.952,-4.512 10.749,-8.982 17.204,-13.111 9.152,-5.854 18.351,-10.217 26.658,-12.959 v 0" /><path
       inkscape:connector-curvature="0"
       id="path132"
       style="fill:#d52424;fill-opacity:1;fill-rule:evenodd;stroke:none;stroke-width:0.1"
       d="m 419.063,227.49 c -0.376,-1.046 -0.807,-2.085 -1.294,-3.12 -8.478,2.704 -17.89,7.146 -27.249,13.132 -6.6,4.223 -12.508,8.792 -17.538,13.413 0.707,0.922 1.455,1.817 2.219,2.645 4.952,-4.512 10.749,-8.982 17.204,-13.111 9.152,-5.854 18.351,-10.217 26.658,-12.959 v 0" /><path
       inkscape:connector-curvature="0"
       id="path134"
       style="fill:#352316;fill-opacity:1;fill-rule:evenodd;stroke:none;stroke-width:0.1"
       d="m 342.227,261.921 c 11.664,3.772 23.748,-1.296 26.983,-11.318 0.395,-1.195 0.645,-2.417 0.752,-3.613 -5.968,-4.082 -15.292,-7.844 -22.849,-10.286 -7.557,-2.443 -12.144,-3.821 -17.677,-4.505 -1.058,1.419 -1.889,3.001 -2.469,4.758 -2.875,8.921 2.237,18.787 11.627,23.496 -5.297,7.801 -5.595,17.504 -1.473,18.156 4.271,0.681 1.532,-7.029 4.197,-17.002 0.3,0.112 0.6,0.225 0.909,0.314 v 0" /><path
       inkscape:connector-curvature="0"
       id="path136"
       style="fill:#b06426;fill-opacity:1;fill-rule:evenodd;stroke:none;stroke-width:0.1"
       d="m 337.14,248.065 1.864,4.568 -4.547,1.872 -1.887,-4.576 z m -2.368,-5.757 1.889,4.577 -4.568,1.864 -1.897,-4.553 z m -2.374,-5.733 1.897,4.554 -4.576,1.888 -1.865,-4.569 z m 12.84,14.872 1.896,4.553 -4.577,1.887 -1.866,-4.568 z m -2.344,-5.748 1.865,4.569 -4.568,1.864 -1.873,-4.546 z m -2.365,-5.756 1.865,4.568 -4.553,1.896 -1.888,-4.577 z m -2.374,-5.734 1.873,4.547 -4.554,1.894 -1.887,-4.577 z m 15.213,20.606 1.864,4.568 -4.553,1.895 -1.889,-4.577 z m -2.375,-5.735 1.873,4.545 -4.553,1.897 -1.887,-4.577 z m -2.365,-5.755 1.888,4.576 -4.57,1.865 -1.872,-4.545 z m -2.374,-5.733 1.896,4.554 -4.578,1.886 -1.864,-4.567 z m 12.837,14.871 1.897,4.553 -4.576,1.887 -1.865,-4.568 z m -2.342,-5.748 1.864,4.569 -4.567,1.864 -1.865,-4.569 z m -2.364,-5.756 1.864,4.568 -4.546,1.872 -1.896,-4.553 z m 10.464,9.137 1.896,4.555 -4.578,1.886 -1.888,-4.577 z m -2.366,-5.755 1.888,4.577 -4.569,1.863 -1.873,-4.546 z m -19.547,17.794 c 0.517,0.166 1.027,0.28 1.551,0.425 l -1.43,-3.484 4.555,-1.897 1.888,4.577 -2.891,1.179 c 0.946,0.145 1.872,0.201 2.805,0.238 l 0.563,-0.237 0.092,0.245 c 0.476,-0.006 0.928,-0.02 1.382,-0.034 l -0.295,-0.69 4.577,-1.886 0.693,1.733 c 0.417,-0.133 0.835,-0.267 1.23,-0.407 l -0.744,-1.805 4.556,-1.897 0.627,1.553 c 0.382,-0.251 0.734,-0.488 1.072,-0.756 l -0.522,-1.275 3.357,-1.371 c 0.662,-0.779 1.261,-1.606 1.787,-2.514 l -1.754,-4.236 3.794,-1.55 c 0.052,-0.35 0.104,-0.699 0.133,-1.056 -0.121,-0.097 -0.228,-0.165 -0.359,-0.24 l -4.045,1.667 -1.896,-4.555 0.562,-0.236 c -0.841,-0.422 -1.683,-0.843 -2.535,-1.241 l 0.315,0.775 -4.576,1.889 -1.865,-4.568 0.881,-0.381 c -0.962,-0.387 -1.929,-0.75 -2.89,-1.137 l 0.328,0.808 -4.553,1.896 -1.888,-4.577 0.373,-0.15 c -0.24,-0.063 -0.47,-0.149 -0.701,-0.236 -0.469,-0.15 -0.94,-0.302 -1.386,-0.442 l 0.048,0.15 -4.568,1.864 -1.593,-3.886 c -1.109,-0.339 -2.137,-0.619 -3.173,-0.875 l -3.333,1.38 -0.951,-2.304 c -0.495,-0.082 -0.991,-0.162 -1.487,-0.242 l 1.251,3.048 -4.569,1.864 -0.255,-0.651 c -0.044,0.117 -0.087,0.232 -0.13,0.347 -0.206,0.687 -0.379,1.358 -0.514,2.07 l 0.214,-0.077 1.872,4.545 -2.208,0.908 c 0.067,0.446 0.146,0.87 0.224,1.293 l 2.463,-1.022 1.887,4.576 -2.678,1.102 c 0.173,0.38 0.402,0.755 0.606,1.122 l 2.55,-1.043 1.896,4.552 -1.37,0.566 c 0.323,0.33 0.677,0.649 1,0.98 l 0.848,-0.366 0.672,1.647 c 0.628,0.499 1.274,0.952 1.96,1.368 l -1.453,-3.493 4.568,-1.865 1.873,4.546 -3.77,1.559 c 0.482,0.259 0.987,0.528 1.5,0.773 l 2.772,-1.144 1.057,2.581" /><path
       inkscape:connector-curvature="0"
       id="path138"
       style="fill:#b06426;fill-opacity:1;fill-rule:evenodd;stroke:none;stroke-width:0.1"
       d="m 368.598,246.978 c 0,0 0.06,-0.162 0.181,-0.484 0.884,-2.563 4.581,-14.517 0.149,-22.549 -2.687,-4.903 -8.381,-5.646 -8.815,-12.835 -5.032,5.137 -9.808,1.95 -15.082,3.866 -8.599,3.14 -13.679,14.575 -14.701,17.086 -0.145,0.315 -0.205,0.475 -0.205,0.475 l 19.089,7.612 19.384,6.829" /><path
       inkscape:connector-curvature="0"
       id="path140"
       style="fill:#9d5e1d;fill-opacity:1;fill-rule:evenodd;stroke:none;stroke-width:0.1"
       d="m 368.598,246.978 c 0,0 0.06,-0.162 0.181,-0.484 0.164,-0.439 0.37,-1.126 0.63,-2.028 -5.922,-3.644 -14.241,-6.924 -21.09,-9.151 -7.465,-2.409 -12.019,-3.802 -17.475,-4.48 -0.213,0.498 -0.402,0.928 -0.514,1.227 -0.145,0.315 -0.205,0.475 -0.205,0.475 l 19.089,7.612 19.384,6.829" /><path
       inkscape:connector-curvature="0"
       id="path142"
       style="fill:#6c4319;fill-opacity:1;fill-rule:evenodd;stroke:none;stroke-width:0.1"
       d="m 64.0004,149.521 -0.0488,0.048 0.098,-0.171 z M 104.477,77.1379 c -0.122,10.3961 -0.812,20.0051 -3.817,25.6461 -9.4358,17.665 -19.8573,20.4 -36.6596,46.737 -0.9606,2.365 -0.3445,4.138 1.1828,6.183 -0.0988,-0.566 -0.4187,-2.438 -0.4684,-2.98 -0.246,-3.573 11.1856,-16.951 19.3149,-24.539 6.0363,-5.666 5.0016,-4.657 3.8433,2.315 -0.7632,4.78 -1.3304,10.422 -2.4144,18.184 L 84.4,158.98 l 2.6113,-9.903 c 5.0254,-20.079 2.2168,-22.518 8.4989,-32.743 5.4938,-8.918 5.2228,-9.953 4.9518,-0.517 -0.197,7.022 0.566,14.561 3.4,23.554 3.326,10.617 10.347,33.604 19.438,41.413 v -0.024 c -7.416,-9.609 -13.92,-31.191 -17.049,-42.253 -1.503,-5.247 -2.266,-10.051 -2.586,-14.56 -0.197,-3.177 -0.173,-6.232 0,-9.189 0.271,-4.189 0.073,-7.12 3.745,-1.257 6.528,10.471 14.559,21.386 21.334,30.008 2.292,2.932 3.228,6.726 3.918,10.323 0.542,-4.238 0.345,-3.844 -0.888,-7.785 -0.911,-2.857 -6.109,-11.187 -11.554,-19.635 -3.104,-4.83 -7.686,-8.697 -1.33,-6.209 6.43,2.513 10.791,5.987 20.62,11.702 2.365,1.355 6.209,2.955 8.253,4.557 l -0.024,-0.073 c 0.024,0.025 4.361,4.04 5.074,0.566 -2.216,1.405 -1.157,0.321 -3.916,-1.305 -1.256,-1.675 -6.677,-4.706 -7.982,-5.592 -14.856,-10.077 -24.39,-13.379 -28.8,-17.099 -7.785,-6.603 -6.306,-9.436 -4.853,-19.241 0.665,-4.484 0.861,-7.8098 1.109,-16.4821 0.024,-1.0839 -0.838,-1.9707 -1.922,-1.9961 -1.059,-0.0238 -1.947,0.8383 -1.972,1.8981 v 0" /><path
       inkscape:connector-curvature="0"
       id="path144"
       style="fill:#612b2f;fill-opacity:1;fill-rule:evenodd;stroke:none;stroke-width:0.1"
       d="m 65.2512,147.032 c 0.6898,0.248 1.084,1.011 0.8871,1.7 0.1472,0 0.2957,0.026 0.4437,0.075 0.566,0.197 0.8375,0.789 0.6399,1.355 -0.1969,0.542 -0.8125,0.813 -1.3551,0.615 -0.443,-0.147 -0.7141,-0.615 -0.6895,-1.058 -0.271,0.073 -0.5914,0.073 -0.8875,-0.025 -0.3445,-0.124 -0.6156,-0.37 -0.7628,-0.666 -0.2465,0.444 -0.7891,0.666 -1.3063,0.494 -0.5422,-0.222 -0.8129,-0.814 -0.6156,-1.356 0.1969,-0.566 0.8129,-0.838 1.3551,-0.641 0.1964,0.075 0.3695,0.198 0.4675,0.371 v -0.026 c 0.2715,-0.715 1.084,-1.108 1.8235,-0.838 v 0" /><path
       inkscape:connector-curvature="0"
       id="path146"
       style="fill:#612b2f;fill-opacity:1;fill-rule:evenodd;stroke:none;stroke-width:0.1"
       d="m 53.1305,180.44 c 0.8867,0.321 1.8468,-0.097 2.2422,-0.96 0.123,0.147 0.2949,0.247 0.4921,0.321 0.6899,0.27 1.454,-0.1 1.7247,-0.789 0.2464,-0.69 -0.1231,-1.479 -0.8129,-1.725 -0.5664,-0.197 -1.2075,0 -1.552,0.493 -0.1973,-0.32 -0.4933,-0.567 -0.8871,-0.715 -0.4191,-0.172 -0.8867,-0.147 -1.2812,0.025 0.1234,-0.64 -0.2219,-1.306 -0.8622,-1.528 -0.6898,-0.246 -1.4535,0.098 -1.7,0.814 -0.2461,0.689 0.0989,1.453 0.7879,1.698 0.2711,0.1 0.5176,0.1 0.7645,0.051 v 0 c -0.3453,0.936 0.1476,1.971 1.084,2.315 v 0" /><path
       inkscape:connector-curvature="0"
       id="path148"
       style="fill:#be4020;fill-opacity:1;fill-rule:evenodd;stroke:none;stroke-width:0.1"
       d="m 53.9434,177.606 c 5.2964,1.948 11.9234,-2.956 14.8308,-10.913 2.8821,-7.958 0.9363,-15.964 -4.3605,-17.886 -5.2719,-1.947 -11.9242,2.956 -14.8063,10.914 -2.907,7.959 -0.9609,15.966 4.336,17.885 v 0" /><path
       inkscape:connector-curvature="0"
       id="path150"
       style="fill:#e43e20;fill-opacity:1;fill-rule:evenodd;stroke:none;stroke-width:0.1"
       d="m 53.9434,177.606 c 5.2964,1.948 11.9234,-2.956 14.8308,-10.913 0.5664,-1.578 0.9363,-3.128 1.1578,-4.656 -0.8379,-3.992 -3.2765,-7.268 -6.8734,-8.574 -4.1879,-1.526 -8.8441,-0.024 -12.2441,3.474 -0.4434,0.862 -0.8625,1.798 -1.2071,2.784 -2.907,7.959 -0.9609,15.966 4.336,17.885 v 0" /><path
       inkscape:connector-curvature="0"
       id="path152"
       style="fill:#ffffff;fill-opacity:1;fill-rule:evenodd;stroke:none;stroke-width:0.1"
       d="m 60.1516,172.212 c 0.9363,0.345 1.9711,-0.147 2.3164,-1.084 0.3441,-0.937 -0.1481,-1.971 -1.0848,-2.316 -0.9363,-0.345 -1.9953,0.124 -2.3156,1.084 -0.3449,0.935 0.1234,1.971 1.084,2.316 v 0" /><path
       inkscape:connector-curvature="0"
       id="path154"
       style="fill:#612b2f;fill-opacity:1;fill-rule:evenodd;stroke:none;stroke-width:0.1"
       d="m 87.0543,142.968 c 0.5668,0.074 0.9602,0.542 0.9359,1.108 0.1231,-0.049 0.2223,-0.049 0.345,-0.049 0.4437,0.049 0.739,0.444 0.6898,0.887 -0.0488,0.443 -0.4434,0.739 -0.8867,0.691 -0.3449,-0.051 -0.6164,-0.322 -0.6903,-0.665 -0.1722,0.098 -0.4183,0.146 -0.6406,0.122 -0.2703,-0.024 -0.5176,-0.172 -0.689,-0.345 -0.0985,0.369 -0.4684,0.617 -0.8625,0.566 -0.4192,-0.073 -0.7391,-0.468 -0.6653,-0.886 0.0489,-0.444 0.4438,-0.739 0.8867,-0.69 0.1477,0.024 0.2957,0.074 0.3942,0.173 v 0 c 0.0742,-0.592 0.6164,-0.985 1.1828,-0.912 v 0" /><path
       inkscape:connector-curvature="0"
       id="path156"
       style="fill:#612b2f;fill-opacity:1;fill-rule:evenodd;stroke:none;stroke-width:0.1"
       d="m 83.7527,169.452 c 0.6903,0.073 1.3301,-0.394 1.4782,-1.084 0.123,0.099 0.2711,0.149 0.4191,0.173 0.5418,0.049 1.059,-0.32 1.1332,-0.888 0.0488,-0.541 -0.3203,-1.058 -0.8871,-1.108 -0.4434,-0.073 -0.8863,0.197 -1.0594,0.592 -0.1972,-0.197 -0.4429,-0.322 -0.7637,-0.369 -0.3449,-0.051 -0.6648,0.047 -0.9363,0.246 0,-0.493 -0.3691,-0.912 -0.8867,-0.987 -0.5426,-0.074 -1.0344,0.321 -1.1082,0.888 -0.0738,0.542 0.3199,1.035 0.8621,1.108 0.1969,0.025 0.3941,0 0.5668,-0.098 v 0.025 c -0.0988,0.737 0.443,1.405 1.182,1.502 v 0" /><path
       inkscape:connector-curvature="0"
       id="path158"
       style="fill:#f14a1c;fill-opacity:1;fill-rule:evenodd;stroke:none;stroke-width:0.1"
       d="m 83.8762,167.235 c 4.1879,0.542 8.2527,-4.139 9.0414,-10.47 0.7887,-6.307 -1.9711,-11.851 -6.1586,-12.368 -4.2137,-0.542 -8.2535,4.164 -9.0418,10.47 -0.7887,6.308 1.9703,11.85 6.159,12.368 v 0" /><path
       inkscape:connector-curvature="0"
       id="path160"
       style="fill:#f25620;fill-opacity:1;fill-rule:evenodd;stroke:none;stroke-width:0.1"
       d="m 83.8762,167.235 c 4.1879,0.542 8.2527,-4.139 9.0414,-10.47 0.1472,-1.233 0.1726,-2.441 0.0734,-3.597 -1.2808,-2.784 -3.5961,-4.779 -6.4539,-5.125 -3.3266,-0.419 -6.5043,1.454 -8.4016,4.558 -0.1722,0.74 -0.3203,1.478 -0.4183,2.266 -0.7887,6.308 1.9703,11.85 6.159,12.368 v 0" /><path
       inkscape:connector-curvature="0"
       id="path162"
       style="fill:#ffffff;fill-opacity:1;fill-rule:evenodd;stroke:none;stroke-width:0.1"
       d="m 87.5219,162.259 c 0.7394,0.098 1.4293,-0.444 1.5277,-1.184 0.0988,-0.738 -0.4437,-1.428 -1.1824,-1.527 -0.7641,-0.099 -1.4285,0.443 -1.5274,1.182 -0.0992,0.741 0.4192,1.429 1.1821,1.529 v 0" /><path
       inkscape:connector-curvature="0"
       id="path164"
       style="fill:#612b2f;fill-opacity:1;fill-rule:evenodd;stroke:none;stroke-width:0.1"
       d="m 133.592,203.574 c 0.837,-0.419 1.207,-1.428 0.862,-2.291 0.197,0 0.394,-0.025 0.566,-0.123 0.666,-0.345 0.937,-1.134 0.616,-1.798 -0.345,-0.667 -1.133,-0.936 -1.798,-0.592 -0.567,0.271 -0.838,0.863 -0.715,1.43 -0.369,-0.074 -0.763,-0.026 -1.133,0.171 -0.419,0.197 -0.714,0.542 -0.862,0.937 -0.394,-0.542 -1.108,-0.714 -1.7,-0.418 -0.665,0.319 -0.936,1.132 -0.616,1.772 0.345,0.666 1.134,0.937 1.799,0.616 0.246,-0.123 0.443,-0.296 0.566,-0.516 v 0 c 0.444,0.886 1.528,1.257 2.415,0.812 v 0" /><path
       inkscape:connector-curvature="0"
       id="path166"
       style="fill:#612b2f;fill-opacity:1;fill-rule:evenodd;stroke:none;stroke-width:0.1"
       d="m 117.775,171.743 c 0.665,-0.319 1.478,-0.074 1.848,0.542 0.099,-0.123 0.222,-0.22 0.369,-0.295 0.518,-0.247 1.134,-0.024 1.405,0.492 0.247,0.518 0.049,1.159 -0.468,1.406 -0.444,0.22 -0.961,0.097 -1.257,-0.247 -0.148,0.271 -0.345,0.493 -0.64,0.64 -0.321,0.172 -0.69,0.198 -1.011,0.099 0.148,0.492 -0.073,1.034 -0.542,1.256 -0.517,0.271 -1.157,0.051 -1.403,-0.468 -0.272,-0.518 -0.05,-1.157 0.468,-1.404 0.197,-0.098 0.394,-0.149 0.59,-0.123 v 0 c -0.344,-0.691 -0.049,-1.553 0.641,-1.898 v 0" /><path
       inkscape:connector-curvature="0"
       id="path168"
       style="fill:#f14a1c;fill-opacity:1;fill-rule:evenodd;stroke:none;stroke-width:0.1"
       d="m 132.113,201.036 c 5.051,-2.488 6.085,-10.691 2.316,-18.255 -3.769,-7.589 -10.913,-11.727 -15.94,-9.215 -5.05,2.514 -6.084,10.693 -2.34,18.282 3.769,7.562 10.914,11.702 15.964,9.188 v 0" /><path
       inkscape:connector-curvature="0"
       id="path170"
       style="fill:#f25620;fill-opacity:1;fill-rule:evenodd;stroke:none;stroke-width:0.1"
       d="m 132.113,201.036 c 5.051,-2.488 6.085,-10.691 2.316,-18.255 -0.739,-1.503 -1.601,-2.858 -2.562,-4.065 -3.473,-2.144 -7.513,-2.636 -10.963,-0.936 -3.99,1.97 -6.11,6.38 -5.913,11.234 0.32,0.937 0.715,1.897 1.158,2.834 3.769,7.562 10.914,11.702 15.964,9.188 v 0" /><path
       inkscape:connector-curvature="0"
       id="path172"
       style="fill:#ffffff;fill-opacity:1;fill-rule:evenodd;stroke:none;stroke-width:0.1"
       d="m 132.483,192.833 c 0.887,-0.443 1.256,-1.552 0.813,-2.44 -0.443,-0.911 -1.527,-1.28 -2.439,-0.812 -0.887,0.442 -1.256,1.526 -0.813,2.414 0.444,0.911 1.527,1.28 2.439,0.838 v 0" /><path
       inkscape:connector-curvature="0"
       id="path174"
       style="fill:#612b2f;fill-opacity:1;fill-rule:evenodd;stroke:none;stroke-width:0.1"
       d="m 129.551,141.613 c 0.567,-0.123 1.109,0.172 1.257,0.715 0.098,-0.074 0.197,-0.148 0.32,-0.173 0.443,-0.098 0.862,0.173 0.961,0.591 0.098,0.42 -0.173,0.861 -0.591,0.961 -0.345,0.074 -0.715,-0.1 -0.863,-0.395 -0.147,0.173 -0.344,0.295 -0.591,0.37 -0.246,0.049 -0.517,0 -0.739,-0.098 0.025,0.369 -0.222,0.738 -0.616,0.813 -0.419,0.123 -0.837,-0.148 -0.961,-0.567 -0.098,-0.443 0.173,-0.862 0.592,-0.961 0.172,-0.049 0.32,-0.025 0.468,0.026 v 0 c -0.148,-0.567 0.197,-1.16 0.763,-1.282 v 0" /><path
       inkscape:connector-curvature="0"
       id="path176"
       style="fill:#612b2f;fill-opacity:1;fill-rule:evenodd;stroke:none;stroke-width:0.1"
       d="m 135.759,167.58 c 0.691,-0.173 1.134,-0.838 1.011,-1.527 0.147,0.024 0.295,0.024 0.468,0 0.517,-0.148 0.862,-0.69 0.739,-1.232 -0.123,-0.518 -0.666,-0.862 -1.207,-0.74 -0.469,0.124 -0.764,0.493 -0.789,0.937 -0.246,-0.099 -0.542,-0.148 -0.837,-0.075 -0.345,0.1 -0.616,0.296 -0.813,0.542 -0.173,-0.442 -0.665,-0.714 -1.158,-0.589 -0.542,0.122 -0.862,0.664 -0.739,1.206 0.123,0.542 0.665,0.887 1.207,0.74 0.197,-0.027 0.369,-0.149 0.493,-0.272 v 0 c 0.172,0.713 0.911,1.182 1.625,1.01 v 0" /><path
       inkscape:connector-curvature="0"
       id="path178"
       style="fill:#f14a1c;fill-opacity:1;fill-rule:evenodd;stroke:none;stroke-width:0.1"
       d="m 135.119,165.461 c 4.114,-0.985 6.257,-6.8 4.779,-12.982 -1.478,-6.185 -6.011,-10.398 -10.125,-9.413 -4.114,0.961 -6.257,6.776 -4.779,12.959 1.478,6.208 6.011,10.421 10.125,9.436 v 0" /><path
       inkscape:connector-curvature="0"
       id="path180"
       style="fill:#f25620;fill-opacity:1;fill-rule:evenodd;stroke:none;stroke-width:0.1"
       d="m 135.119,165.461 c 4.114,-0.985 6.257,-6.8 4.779,-12.982 -0.296,-1.208 -0.69,-2.342 -1.207,-3.401 -2.168,-2.143 -5.05,-3.202 -7.859,-2.538 -3.251,0.788 -5.542,3.647 -6.232,7.243 0.074,0.74 0.196,1.504 0.394,2.242 1.478,6.208 6.011,10.421 10.125,9.436 v 0" /><path
       inkscape:connector-curvature="0"
       id="path182"
       style="fill:#ffffff;fill-opacity:1;fill-rule:evenodd;stroke:none;stroke-width:0.1"
       d="m 136.77,159.523 c 0.739,-0.172 1.183,-0.911 1.01,-1.65 -0.173,-0.738 -0.911,-1.183 -1.651,-1.01 -0.714,0.172 -1.183,0.911 -1.01,1.65 0.172,0.716 0.912,1.183 1.651,1.01 v 0" /><path
       inkscape:connector-curvature="0"
       id="path184"
       style="fill:#612b2f;fill-opacity:1;fill-rule:evenodd;stroke:none;stroke-width:0.1"
       d="m 159.78,153.611 c 0.567,-0.419 0.714,-1.233 0.344,-1.823 0.148,-0.025 0.296,-0.099 0.419,-0.173 0.444,-0.344 0.567,-0.985 0.223,-1.428 -0.321,-0.468 -0.962,-0.567 -1.43,-0.222 -0.369,0.27 -0.517,0.764 -0.345,1.182 -0.295,0 -0.591,0.074 -0.837,0.247 -0.271,0.221 -0.468,0.516 -0.518,0.836 -0.345,-0.368 -0.911,-0.418 -1.33,-0.097 -0.468,0.319 -0.567,0.961 -0.222,1.404 0.321,0.468 0.961,0.568 1.429,0.222 0.148,-0.124 0.271,-0.271 0.345,-0.444 v 0 c 0.443,0.616 1.306,0.739 1.922,0.296 v 0" /><path
       inkscape:connector-curvature="0"
       id="path186"
       style="fill:#612b2f;fill-opacity:1;fill-rule:evenodd;stroke:none;stroke-width:0.1"
       d="m 143.791,131.733 c 0.468,-0.344 1.084,-0.247 1.454,0.173 0.049,-0.098 0.123,-0.197 0.246,-0.271 0.344,-0.272 0.861,-0.172 1.109,0.173 0.271,0.369 0.197,0.861 -0.173,1.133 -0.295,0.221 -0.69,0.197 -0.961,-0.024 -0.073,0.221 -0.196,0.418 -0.394,0.566 -0.246,0.148 -0.492,0.222 -0.763,0.197 0.196,0.345 0.098,0.789 -0.223,1.01 -0.369,0.271 -0.861,0.198 -1.132,-0.172 -0.271,-0.345 -0.197,-0.863 0.171,-1.133 0.123,-0.074 0.271,-0.124 0.444,-0.149 v 0 c -0.369,-0.467 -0.246,-1.157 0.222,-1.503 v 0" /><path
       inkscape:connector-curvature="0"
       id="path188"
       style="fill:#be4020;fill-opacity:1;fill-rule:evenodd;stroke:none;stroke-width:0.1"
       d="m 158.351,151.886 c 3.449,-2.512 3.178,-8.794 -0.616,-14.018 -3.819,-5.222 -9.707,-7.391 -13.18,-4.853 -3.474,2.512 -3.203,8.795 0.615,14.017 3.794,5.224 9.707,7.392 13.181,4.854 v 0" /><path
       inkscape:connector-curvature="0"
       id="path190"
       style="fill:#e43e20;fill-opacity:1;fill-rule:evenodd;stroke:none;stroke-width:0.1"
       d="m 158.351,151.886 c 3.449,-2.512 3.178,-8.794 -0.616,-14.018 -0.764,-1.034 -1.577,-1.946 -2.464,-2.71 -2.882,-1.182 -5.986,-1.035 -8.351,0.69 -2.734,1.996 -3.77,5.592 -3.006,9.214 0.37,0.666 0.789,1.33 1.256,1.97 3.794,5.224 9.707,7.392 13.181,4.854 v 0" /><path
       inkscape:connector-curvature="0"
       id="path192"
       style="fill:#ffffff;fill-opacity:1;fill-rule:evenodd;stroke:none;stroke-width:0.1"
       d="m 157.563,145.679 c 0.615,-0.445 0.738,-1.331 0.295,-1.948 -0.443,-0.616 -1.306,-0.739 -1.922,-0.294 -0.64,0.443 -0.763,1.305 -0.32,1.945 0.468,0.616 1.33,0.739 1.947,0.297 v 0" /><path
       inkscape:connector-curvature="0"
       id="path194"
       style="fill:#352316;fill-opacity:1;fill-rule:evenodd;stroke:none;stroke-width:0.1"
       d="m 208.489,269.035 c -5.711,24.252 -12.663,31.068 -2.094,56.812 -5.371,0.961 -10.716,1.921 -16.087,2.882 -4.41,-18.502 3.128,-39.787 18.181,-59.694 v 0" /><path
       inkscape:connector-curvature="0"
       id="path196"
       style="fill:#382116;fill-opacity:1;fill-rule:evenodd;stroke:none;stroke-width:0.1"
       d="m 237.876,238.843 v -21.162 c 0.149,-0.027 0.297,-0.075 0.42,-0.198 l 2.463,-2.168 c 0.32,-0.296 0.345,-0.789 0.074,-1.085 v 0 c -0.295,-0.32 -0.789,-0.344 -1.084,-0.074 l -1.873,1.653 -0.024,-2.933 c 0,-0.419 -0.345,-0.764 -0.763,-0.764 v 0 c -0.419,0 -0.764,0.345 -0.764,0.764 v 3.103 l -2.045,-1.823 c -0.295,-0.27 -0.789,-0.246 -1.084,0.074 v 0 c -0.272,0.296 -0.247,0.789 0.074,1.085 l 2.463,2.168 c 0.173,0.148 0.395,0.221 0.592,0.198 v 21.162 h 1.551" /><path
       inkscape:connector-curvature="0"
       id="path198"
       style="fill:#382116;fill-opacity:1;fill-rule:evenodd;stroke:none;stroke-width:0.1"
       d="m 272.072,246.111 c 0,0 2.144,-1.207 4.878,-2.808 1.233,-1.035 4.977,-4.164 8.4,-6.949 -6.626,0.494 -20.767,0.764 -20.767,0.764 l 7.489,8.993" /><path
       inkscape:connector-curvature="0"
       id="path200"
       style="fill:#602e15;fill-opacity:1;fill-rule:evenodd;stroke:none;stroke-width:0.1"
       d="m 270.964,248.106 c 0,0 15.937,-13.969 14.386,-11.752 -1.552,2.217 -8.524,21.903 -8.524,21.903 l -5.862,-10.151" /><path
       inkscape:connector-curvature="0"
       id="path202"
       style="fill:#f2541b;fill-opacity:1;fill-rule:evenodd;stroke:none;stroke-width:0.1"
       d="m 268.991,283.091 c 19.686,-13.944 18.503,-50.776 -18.796,-51.614 -43.261,-0.961 -48.952,42.67 -49.297,73.023 24.735,-27.594 48.409,-7.489 68.093,-21.409 v 0" /><path
       inkscape:connector-curvature="0"
       id="path204"
       style="fill:#382116;fill-opacity:1;fill-rule:evenodd;stroke:none;stroke-width:0.1"
       d="m 270.644,257.666 c 2.02,0.271 3.892,-1.159 4.162,-3.179 0.271,-2.044 -1.158,-3.892 -3.179,-4.164 -2.043,-0.27 -3.891,1.134 -4.162,3.178 -0.271,2.021 1.158,3.894 3.179,4.165 v 0" /><path
       inkscape:connector-curvature="0"
       id="path206"
       style="fill:#ffffff;fill-opacity:1;fill-rule:evenodd;stroke:none;stroke-width:0.1"
       d="m 271.653,256.507 c 0.764,0.124 1.503,-0.443 1.602,-1.206 0.098,-0.789 -0.445,-1.504 -1.233,-1.626 -0.789,-0.1 -1.502,0.442 -1.6,1.23 -0.124,0.79 0.443,1.504 1.231,1.602 v 0" /><path
       inkscape:connector-curvature="0"
       id="path208"
       style="fill:#f8f683;fill-opacity:1;fill-rule:evenodd;stroke:none;stroke-width:0.1"
       d="m 258.595,262.47 c -0.147,-0.741 -0.344,-1.503 -0.566,-2.242 -3.425,-10.62 -14.831,-16.457 -25.449,-13.008 -10.618,3.423 -16.457,14.805 -13.032,25.425 0.64,1.97 1.552,3.794 2.685,5.395 5.789,-5.124 13.723,-9.634 22.961,-12.59 4.557,-1.478 9.067,-2.463 13.401,-2.98 v 0" /><path
       inkscape:connector-curvature="0"
       id="path210"
       style="fill:#382116;fill-opacity:1;fill-rule:evenodd;stroke:none;stroke-width:0.1"
       d="m 246.944,238.695 v -21.163 c 0.147,-0.025 0.294,-0.074 0.393,-0.197 l 2.464,-2.168 c 0.32,-0.296 0.345,-0.789 0.073,-1.084 v 0 c -0.27,-0.32 -0.763,-0.345 -1.084,-0.074 l -1.871,1.651 v -2.931 c 0,-0.42 -0.345,-0.765 -0.789,-0.765 v 0 c -0.419,0 -0.764,0.345 -0.764,0.765 l 0.026,3.103 -2.046,-1.823 c -0.32,-0.271 -0.812,-0.246 -1.084,0.074 v 0 c -0.27,0.295 -0.245,0.788 0.074,1.084 l 2.464,2.168 c 0.147,0.148 0.369,0.222 0.592,0.197 v 21.163 h 1.552" /><path
       inkscape:connector-curvature="0"
       id="path212"
       style="fill:#cc2d23;fill-opacity:1;fill-rule:evenodd;stroke:none;stroke-width:0.1"
       d="m 249.431,241.134 c 0.025,-0.123 0.025,-0.246 0.025,-0.37 0,-1.478 -1.823,-2.684 -4.064,-2.684 -2.267,0 -4.091,1.206 -4.091,2.684 0,0.098 0,0.198 0.025,0.271 1.01,-0.516 2.414,-0.861 3.967,-0.861 1.626,0 3.103,0.369 4.138,0.96 v 0" /><path
       inkscape:connector-curvature="0"
       id="path214"
       style="fill:#352316;fill-opacity:1;fill-rule:nonzero;stroke:none;stroke-width:0.1"
       d="m 173.784,26.0082 c 0,-0.4613 0.072,-0.8512 0.215,-1.173 0.142,-0.3231 0.338,-0.5661 0.585,-0.7301 0.25,-0.1629 0.52,-0.2469 0.814,-0.2469 0.298,0 0.57,0.0789 0.816,0.2348 0.246,0.1539 0.444,0.3922 0.59,0.7129 0.147,0.3203 0.221,0.7222 0.221,1.2023 0,0.4508 -0.074,0.8387 -0.221,1.166 -0.146,0.3219 -0.345,0.5707 -0.596,0.743 -0.25,0.1707 -0.524,0.257 -0.822,0.257 -0.31,0 -0.588,-0.0883 -0.832,-0.2621 -0.244,-0.1781 -0.434,-0.4289 -0.568,-0.759 -0.135,-0.3301 -0.202,-0.7109 -0.202,-1.1449 z m 3.333,-2.491 v 0.1699 c -0.227,-0.2621 -0.452,-0.4742 -0.673,-0.6359 -0.22,-0.1641 -0.462,-0.2891 -0.72,-0.3731 -0.259,-0.0871 -0.541,-0.1269 -0.847,-0.1269 -0.406,0 -0.781,0.084 -1.128,0.2558 -0.345,0.1711 -0.644,0.418 -0.896,0.736 -0.253,0.3179 -0.444,0.691 -0.575,1.1242 -0.13,0.4297 -0.195,0.8969 -0.195,1.3976 0,1.0571 0.259,1.8844 0.776,2.4762 0.518,0.591 1.198,0.8871 2.043,0.8871 0.487,0 0.9,-0.084 1.234,-0.2511 0.337,-0.1661 0.662,-0.4258 0.981,-0.7731 v 2.502 c 0,0.348 0.069,0.6101 0.209,0.7871 0.138,0.1781 0.336,0.2672 0.592,0.2672 0.257,0 0.455,-0.0821 0.594,-0.2454 0.138,-0.1636 0.208,-0.4039 0.208,-0.7226 v -7.475 c 0,-0.3223 -0.075,-0.5641 -0.224,-0.725 -0.149,-0.1613 -0.341,-0.241 -0.578,-0.241 -0.232,0 -0.423,0.082 -0.573,0.25 -0.152,0.1668 -0.228,0.407 -0.228,0.716" /><path
       inkscape:connector-curvature="0"
       id="path216"
       style="fill:#352316;fill-opacity:1;fill-rule:nonzero;stroke:none;stroke-width:0.1"
       d="m 181.276,26.5398 h 3.074 c -0.042,0.5801 -0.199,1.0153 -0.469,1.3012 -0.272,0.2891 -0.629,0.432 -1.071,0.432 -0.422,0 -0.77,-0.146 -1.04,-0.4359 -0.271,-0.2941 -0.436,-0.7242 -0.494,-1.2973 z m 3.315,-0.9617 h -3.315 c 0.004,-0.384 0.081,-0.723 0.234,-1.0172 0.15,-0.2937 0.351,-0.516 0.601,-0.664 0.251,-0.15 0.527,-0.2227 0.829,-0.2227 0.203,0 0.387,0.0219 0.555,0.0688 0.169,0.05 0.33,0.123 0.488,0.225 0.158,0.1011 0.302,0.2101 0.435,0.3269 0.132,0.1153 0.304,0.2742 0.515,0.4723 0.086,0.0726 0.211,0.1109 0.373,0.1109 0.174,0 0.314,-0.0472 0.421,-0.1441 0.107,-0.0949 0.162,-0.2281 0.162,-0.4031 0,-0.1528 -0.06,-0.3309 -0.18,-0.536 -0.12,-0.2051 -0.302,-0.4008 -0.544,-0.591 -0.243,-0.1867 -0.545,-0.3437 -0.913,-0.468 -0.364,-0.125 -0.786,-0.1847 -1.263,-0.1847 -1.088,0 -1.934,0.309 -2.538,0.9289 -0.605,0.6219 -0.907,1.4629 -0.907,2.5281 0,0.5008 0.075,0.9648 0.224,1.393 0.149,0.4277 0.366,0.7937 0.651,1.1019 0.286,0.3059 0.638,0.541 1.056,0.7051 0.418,0.1629 0.881,0.2449 1.391,0.2449 0.661,0 1.23,-0.139 1.703,-0.4191 0.474,-0.2801 0.829,-0.6399 1.065,-1.0828 0.236,-0.443 0.354,-0.8942 0.354,-1.3532 0,-0.4281 -0.122,-0.7019 -0.366,-0.8289 -0.243,-0.1261 -0.588,-0.191 -1.031,-0.191" /><path
       inkscape:connector-curvature="0"
       id="path218"
       style="fill:#352316;fill-opacity:1;fill-rule:nonzero;stroke:none;stroke-width:0.1"
       d="m 192.313,24.7672 c 0,-0.468 -0.113,-0.8692 -0.341,-1.2024 -0.227,-0.3339 -0.563,-0.5867 -1.01,-0.7578 -0.443,-0.1718 -0.985,-0.2558 -1.622,-0.2558 -0.608,0 -1.13,0.0929 -1.564,0.2777 -0.435,0.1871 -0.756,0.4191 -0.963,0.6973 -0.207,0.282 -0.31,0.5617 -0.31,0.8429 0,0.1879 0.065,0.345 0.199,0.4789 0.132,0.1321 0.299,0.1961 0.503,0.1961 0.177,0 0.314,-0.0421 0.409,-0.1293 0.095,-0.0878 0.186,-0.2089 0.273,-0.3656 0.174,-0.3043 0.382,-0.5262 0.624,-0.6781 0.242,-0.1481 0.571,-0.2231 0.99,-0.2231 0.34,0 0.618,0.077 0.836,0.2258 0.216,0.1532 0.325,0.3254 0.325,0.5203 0,0.2969 -0.112,0.5129 -0.338,0.65 -0.226,0.1379 -0.597,0.268 -1.115,0.393 -0.584,0.143 -1.058,0.2961 -1.424,0.457 -0.367,0.1571 -0.66,0.3688 -0.879,0.6289 -0.219,0.2602 -0.328,0.5821 -0.328,0.9622 0,0.3378 0.101,0.6597 0.303,0.9617 0.204,0.3019 0.502,0.5429 0.899,0.7242 0.394,0.1801 0.87,0.2699 1.429,0.2699 0.439,0 0.833,-0.0461 1.182,-0.1379 0.351,-0.089 0.643,-0.2133 0.877,-0.366 0.233,-0.1531 0.411,-0.3223 0.533,-0.5082 0.122,-0.1867 0.183,-0.3668 0.183,-0.5457 0,-0.1941 -0.065,-0.3543 -0.195,-0.4801 -0.131,-0.1222 -0.316,-0.1851 -0.556,-0.1851 -0.174,0 -0.322,0.05 -0.443,0.1492 -0.122,0.1 -0.263,0.2488 -0.419,0.4469 -0.129,0.1648 -0.28,0.298 -0.454,0.398 -0.173,0.0988 -0.41,0.1469 -0.708,0.1469 -0.306,0 -0.56,-0.0629 -0.764,-0.1942 -0.201,-0.1308 -0.303,-0.2918 -0.303,-0.4859 0,-0.1789 0.074,-0.3238 0.222,-0.4391 0.15,-0.1136 0.351,-0.2089 0.604,-0.2828 0.252,-0.075 0.599,-0.1648 1.043,-0.2718 0.525,-0.1282 0.954,-0.284 1.287,-0.459 0.333,-0.1782 0.585,-0.3883 0.759,-0.6321 0.17,-0.2421 0.256,-0.5179 0.256,-0.8269" /><path
       inkscape:connector-curvature="0"
       id="path220"
       style="fill:#352316;fill-opacity:1;fill-rule:nonzero;stroke:none;stroke-width:0.1"
       d="m 194.883,28.4789 v -4.8988 c 0,-0.3391 -0.081,-0.5961 -0.242,-0.7692 -0.162,-0.1738 -0.366,-0.2597 -0.616,-0.2597 -0.248,0 -0.449,0.0867 -0.605,0.266 -0.155,0.1769 -0.232,0.4328 -0.232,0.7629 v 4.8488 c 0,0.3352 0.077,0.5871 0.232,0.7582 0.156,0.168 0.357,0.2539 0.605,0.2539 0.25,0 0.454,-0.0859 0.616,-0.2539 0.161,-0.1711 0.242,-0.407 0.242,-0.7082 z m -0.838,1.7492 c -0.237,0 -0.438,0.0739 -0.605,0.218 -0.169,0.1437 -0.252,0.3488 -0.252,0.616 0,0.2391 0.085,0.4359 0.257,0.591 0.172,0.1559 0.372,0.234 0.6,0.234 0.22,0 0.413,-0.0711 0.583,-0.2121 0.169,-0.141 0.255,-0.3449 0.255,-0.6129 0,-0.2629 -0.083,-0.466 -0.249,-0.6129 -0.165,-0.1461 -0.361,-0.2211 -0.589,-0.2211" /><path
       inkscape:connector-curvature="0"
       id="path222"
       style="fill:#352316;fill-opacity:1;fill-rule:nonzero;stroke:none;stroke-width:0.1"
       d="m 197.396,26.0512 c 0,-0.6883 0.15,-1.2071 0.45,-1.5582 0.3,-0.352 0.688,-0.5282 1.165,-0.5282 0.28,0 0.547,0.075 0.797,0.2262 0.251,0.152 0.454,0.3801 0.612,0.6828 0.156,0.3051 0.236,0.6731 0.236,1.1071 0,0.6933 -0.153,1.2312 -0.457,1.616 -0.304,0.384 -0.704,0.5773 -1.201,0.5773 -0.484,0 -0.872,-0.1851 -1.164,-0.5543 -0.292,-0.3668 -0.438,-0.891 -0.438,-1.5687 z m 4.912,2.1488 v -4.925 c 0,-0.5609 -0.061,-1.0461 -0.182,-1.4531 -0.119,-0.4028 -0.312,-0.7399 -0.577,-1.0047 -0.265,-0.2633 -0.612,-0.4621 -1.04,-0.5891 -0.427,-0.1289 -0.961,-0.1929 -1.598,-0.1929 -0.583,0 -1.105,0.0828 -1.564,0.2457 -0.459,0.1632 -0.813,0.375 -1.062,0.632 -0.247,0.2601 -0.372,0.5242 -0.372,0.798 0,0.2071 0.069,0.377 0.21,0.5063 0.141,0.132 0.312,0.1969 0.509,0.1969 0.249,0 0.466,-0.111 0.652,-0.3301 0.091,-0.111 0.185,-0.2258 0.282,-0.3391 0.099,-0.114 0.206,-0.2097 0.323,-0.291 0.119,-0.0809 0.261,-0.1418 0.426,-0.1809 0.166,-0.039 0.356,-0.057 0.571,-0.057 0.439,0 0.779,0.0602 1.021,0.182 0.243,0.1219 0.413,0.2918 0.51,0.5129 0.097,0.218 0.154,0.452 0.17,0.7039 0.017,0.2493 0.03,0.6543 0.037,1.2071 -0.261,-0.3649 -0.562,-0.641 -0.903,-0.8321 -0.341,-0.1886 -0.748,-0.2847 -1.22,-0.2847 -0.567,0 -1.062,0.1461 -1.487,0.4351 -0.424,0.2899 -0.75,0.6938 -0.976,1.2157 -0.229,0.5222 -0.342,1.123 -0.342,1.8062 0,0.5098 0.069,0.9699 0.207,1.3789 0.14,0.4102 0.337,0.7551 0.594,1.036 0.256,0.282 0.551,0.4929 0.887,0.6371 0.334,0.141 0.703,0.214 1.104,0.214 0.481,0 0.897,-0.0929 1.249,-0.2761 0.351,-0.184 0.678,-0.4731 0.981,-0.8668 v 0.2308 c 0,0.293 0.071,0.5199 0.217,0.6832 0.145,0.159 0.332,0.2418 0.559,0.2418 0.326,0 0.544,-0.107 0.651,-0.3199 0.108,-0.2129 0.163,-0.5199 0.163,-0.9211" /><path
       inkscape:connector-curvature="0"
       id="path224"
       style="fill:#352316;fill-opacity:1;fill-rule:nonzero;stroke:none;stroke-width:0.1"
       d="M 205,28.5031 V 28.298 c 0.298,0.393 0.624,0.6821 0.978,0.8661 0.354,0.1839 0.76,0.2769 1.219,0.2769 0.448,0 0.847,-0.098 1.199,-0.2922 0.352,-0.1949 0.615,-0.4699 0.789,-0.8246 0.111,-0.2082 0.184,-0.432 0.217,-0.6711 0.032,-0.241 0.05,-0.5472 0.05,-0.9199 v -3.1531 c 0,-0.3391 -0.078,-0.5961 -0.233,-0.7692 -0.156,-0.1738 -0.357,-0.2597 -0.605,-0.2597 -0.254,0 -0.458,0.0867 -0.615,0.266 -0.158,0.1769 -0.235,0.4328 -0.235,0.7629 v 2.8258 c 0,0.557 -0.079,0.9851 -0.234,1.2812 -0.155,0.2949 -0.465,0.4438 -0.928,0.4438 -0.302,0 -0.578,-0.0899 -0.826,-0.2707 -0.248,-0.1793 -0.43,-0.4262 -0.546,-0.7422 -0.083,-0.2508 -0.124,-0.7219 -0.124,-1.4149 v -2.123 c 0,-0.343 -0.08,-0.602 -0.239,-0.7731 -0.16,-0.1718 -0.366,-0.2558 -0.618,-0.2558 -0.244,0 -0.444,0.0867 -0.602,0.266 -0.157,0.1769 -0.236,0.4328 -0.236,0.7629 v 4.8988 c 0,0.3223 0.07,0.5641 0.212,0.7231 0.14,0.1589 0.332,0.239 0.577,0.239 0.149,0 0.283,-0.0359 0.403,-0.107 0.12,-0.0699 0.217,-0.175 0.289,-0.3141 0.072,-0.1418 0.108,-0.314 0.108,-0.5168" /><path
       inkscape:connector-curvature="0"
       id="path226"
       style="fill:#352316;fill-opacity:1;fill-rule:nonzero;stroke:none;stroke-width:0.1"
       d="m 211.997,26.5398 h 3.072 c -0.042,0.5801 -0.198,1.0153 -0.469,1.3012 -0.271,0.2891 -0.627,0.432 -1.071,0.432 -0.422,0 -0.769,-0.146 -1.04,-0.4359 -0.271,-0.2941 -0.434,-0.7242 -0.492,-1.2973 z m 3.314,-0.9617 h -3.314 c 0.003,-0.384 0.081,-0.723 0.231,-1.0172 0.153,-0.2937 0.353,-0.516 0.603,-0.664 0.25,-0.15 0.527,-0.2227 0.829,-0.2227 0.203,0 0.388,0.0219 0.555,0.0688 0.168,0.05 0.33,0.123 0.488,0.225 0.157,0.1011 0.301,0.2101 0.435,0.3269 0.131,0.1153 0.303,0.2742 0.514,0.4723 0.088,0.0726 0.211,0.1109 0.373,0.1109 0.174,0 0.315,-0.0472 0.422,-0.1441 0.108,-0.0949 0.161,-0.2281 0.161,-0.4031 0,-0.1528 -0.06,-0.3309 -0.18,-0.536 -0.12,-0.2051 -0.301,-0.4008 -0.543,-0.591 -0.242,-0.1867 -0.546,-0.3437 -0.912,-0.468 -0.367,-0.125 -0.788,-0.1847 -1.264,-0.1847 -1.088,0 -1.934,0.309 -2.539,0.9289 -0.603,0.6219 -0.906,1.4629 -0.906,2.5281 0,0.5008 0.074,0.9648 0.223,1.393 0.149,0.4277 0.366,0.7937 0.653,1.1019 0.285,0.3059 0.637,0.541 1.054,0.7051 0.418,0.1629 0.883,0.2449 1.391,0.2449 0.663,0 1.23,-0.139 1.704,-0.4191 0.474,-0.2801 0.829,-0.6399 1.065,-1.0828 0.235,-0.443 0.354,-0.8942 0.354,-1.3532 0,-0.4281 -0.122,-0.7019 -0.366,-0.8289 -0.244,-0.1261 -0.588,-0.191 -1.031,-0.191" /><path
       inkscape:connector-curvature="0"
       id="path228"
       style="fill:#352316;fill-opacity:1;fill-rule:nonzero;stroke:none;stroke-width:0.1"
       d="m 218.886,26.0082 c 0,-0.4613 0.07,-0.8512 0.214,-1.173 0.143,-0.3231 0.339,-0.5661 0.587,-0.7301 0.248,-0.1629 0.519,-0.2469 0.813,-0.2469 0.298,0 0.571,0.0789 0.816,0.2348 0.247,0.1539 0.443,0.3922 0.59,0.7129 0.147,0.3203 0.22,0.7222 0.22,1.2023 0,0.4508 -0.073,0.8387 -0.22,1.166 -0.147,0.3219 -0.346,0.5707 -0.596,0.743 -0.25,0.1707 -0.524,0.257 -0.823,0.257 -0.31,0 -0.587,-0.0883 -0.831,-0.2621 -0.244,-0.1781 -0.434,-0.4289 -0.569,-0.759 -0.134,-0.3301 -0.201,-0.7109 -0.201,-1.1449 z m 3.333,-2.491 v 0.1699 c -0.227,-0.2621 -0.452,-0.4742 -0.673,-0.6359 -0.221,-0.1641 -0.462,-0.2891 -0.719,-0.3731 -0.26,-0.0871 -0.541,-0.1269 -0.848,-0.1269 -0.406,0 -0.782,0.084 -1.127,0.2558 -0.346,0.1711 -0.645,0.418 -0.897,0.736 -0.252,0.3179 -0.444,0.691 -0.574,1.1242 -0.131,0.4297 -0.196,0.8969 -0.196,1.3976 0,1.0571 0.258,1.8844 0.776,2.4762 0.517,0.591 1.199,0.8871 2.042,0.8871 0.489,0 0.901,-0.084 1.236,-0.2511 0.335,-0.1661 0.662,-0.4258 0.98,-0.7731 v 2.502 c 0,0.348 0.07,0.6101 0.209,0.7871 0.138,0.1781 0.336,0.2672 0.592,0.2672 0.257,0 0.454,-0.0821 0.594,-0.2454 0.138,-0.1636 0.207,-0.4039 0.207,-0.7226 v -7.475 c 0,-0.3223 -0.073,-0.5641 -0.222,-0.725 -0.15,-0.1613 -0.342,-0.241 -0.579,-0.241 -0.231,0 -0.422,0.082 -0.574,0.25 -0.151,0.1668 -0.227,0.407 -0.227,0.716" /><path
       inkscape:connector-curvature="0"
       id="path230"
       style="fill:#352316;fill-opacity:1;fill-rule:nonzero;stroke:none;stroke-width:0.1"
       d="m 229.227,25.957 c 0,-0.6738 0.154,-1.191 0.463,-1.5539 0.308,-0.3633 0.712,-0.5449 1.213,-0.5449 0.426,0 0.794,0.1867 1.102,0.5566 0.308,0.3711 0.463,0.9 0.463,1.5934 0,0.4457 -0.063,0.8316 -0.193,1.1527 -0.128,0.3243 -0.31,0.5731 -0.546,0.7512 -0.236,0.1738 -0.511,0.2621 -0.826,0.2621 -0.322,0 -0.61,-0.0883 -0.863,-0.2621 -0.252,-0.1781 -0.451,-0.432 -0.596,-0.7641 -0.144,-0.3339 -0.217,-0.73 -0.217,-1.191 z m -0.08,5.0352 v -2.5883 c 0.318,0.332 0.643,0.5852 0.975,0.7602 0.33,0.1781 0.74,0.264 1.229,0.264 0.562,0 1.056,-0.1332 1.48,-0.4011 0.423,-0.2661 0.753,-0.654 0.987,-1.1598 0.234,-0.507 0.351,-1.109 0.351,-1.8024 0,-0.5156 -0.066,-0.9859 -0.195,-1.4148 -0.131,-0.427 -0.32,-0.798 -0.569,-1.1129 -0.248,-0.3141 -0.55,-0.559 -0.903,-0.7301 -0.354,-0.1718 -0.743,-0.2558 -1.17,-0.2558 -0.261,0 -0.507,0.0308 -0.736,0.0929 -0.229,0.061 -0.426,0.1418 -0.587,0.245 -0.16,0.1 -0.298,0.2039 -0.412,0.3121 -0.114,0.1078 -0.265,0.2687 -0.45,0.4859 v -0.1699 c 0,-0.3172 -0.078,-0.557 -0.23,-0.7231 -0.152,-0.1632 -0.347,-0.2429 -0.584,-0.2429 -0.24,0 -0.431,0.0797 -0.574,0.2429 -0.143,0.1661 -0.215,0.4059 -0.215,0.7231 v 7.4008 c 0,0.3441 0.07,0.6039 0.208,0.7789 0.14,0.1769 0.333,0.2633 0.581,0.2633 0.261,0 0.462,-0.0821 0.603,-0.25 0.14,-0.168 0.211,-0.4051 0.211,-0.718" /><path
       inkscape:connector-curvature="0"
       id="path232"
       style="fill:#352316;fill-opacity:1;fill-rule:nonzero;stroke:none;stroke-width:0.1"
       d="m 236.366,22.3379 0.155,0.3793 -2.086,5.2527 c -0.127,0.3012 -0.192,0.5199 -0.192,0.6571 0,0.146 0.037,0.28 0.112,0.4039 0.075,0.125 0.176,0.2242 0.307,0.298 0.13,0.0742 0.266,0.1121 0.406,0.1121 0.244,0 0.428,-0.0781 0.553,-0.2328 0.125,-0.1562 0.234,-0.3773 0.329,-0.6672 l 1.434,-4.1719 1.359,3.8797 c 0.108,0.3153 0.205,0.5602 0.293,0.7391 0.087,0.1769 0.178,0.298 0.275,0.359 0.098,0.0633 0.235,0.0941 0.413,0.0941 0.129,0 0.252,-0.0359 0.37,-0.1039 0.117,-0.068 0.209,-0.159 0.273,-0.275 0.063,-0.116 0.096,-0.2379 0.096,-0.3672 -0.017,-0.0777 -0.043,-0.189 -0.081,-0.3359 -0.038,-0.143 -0.083,-0.293 -0.136,-0.4391 l -2.209,-5.7847 c -0.192,-0.5102 -0.377,-0.9082 -0.56,-1.1981 -0.182,-0.2902 -0.422,-0.5141 -0.723,-0.668 -0.3,-0.1562 -0.705,-0.2339 -1.214,-0.2339 -0.496,0 -0.869,0.0539 -1.116,0.1597 -0.249,0.1102 -0.374,0.3063 -0.374,0.591 0,0.1942 0.058,0.345 0.177,0.4512 0.118,0.1051 0.294,0.1609 0.525,0.1609 0.091,0 0.18,-0.0148 0.267,-0.0398 0.108,-0.025 0.201,-0.0383 0.279,-0.0383 0.194,0 0.348,0.0301 0.46,0.0883 0.112,0.0578 0.212,0.1566 0.301,0.3008 0.089,0.143 0.191,0.3531 0.307,0.6289" /><path
       inkscape:connector-curvature="0"
       id="path234"
       style="fill:#352316;fill-opacity:1;fill-rule:nonzero;stroke:none;stroke-width:0.1"
       d="m 260.918,29.2941 h 0.404 v 0.5079 c 0,0.5339 0.065,0.9539 0.199,1.266 0.133,0.3129 0.364,0.5402 0.686,0.684 0.32,0.141 0.759,0.214 1.316,0.214 0.994,0 1.487,-0.2398 1.487,-0.7281 0,-0.157 -0.052,-0.2918 -0.158,-0.4027 -0.099,-0.111 -0.223,-0.1672 -0.365,-0.1672 -0.064,0 -0.18,0.0121 -0.343,0.0379 -0.156,0.0222 -0.297,0.0371 -0.408,0.0371 -0.305,0 -0.501,-0.093 -0.592,-0.2711 -0.081,-0.1809 -0.126,-0.4367 -0.126,-0.775 v -0.4028 h 0.413 c 0.648,0 0.968,-0.1929 0.968,-0.5859 0,-0.2723 -0.085,-0.45 -0.257,-0.525 -0.171,-0.075 -0.409,-0.1133 -0.711,-0.1133 h -0.413 v -4.4898 c 0,-0.3332 -0.08,-0.5891 -0.244,-0.7629 -0.157,-0.1793 -0.36,-0.2652 -0.615,-0.2652 -0.24,0 -0.438,0.0859 -0.599,0.2652 -0.16,0.1738 -0.238,0.4297 -0.238,0.7629 v 4.4898 h -0.467 c -0.253,0 -0.446,0.0563 -0.584,0.1723 -0.137,0.1117 -0.206,0.2609 -0.206,0.443 0,0.4078 0.285,0.6089 0.853,0.6089" /><path
       inkscape:connector-curvature="0"
       id="path236"
       style="fill:#352316;fill-opacity:1;fill-rule:nonzero;stroke:none;stroke-width:0.1"
       d="m 266.466,24.9969 v -1.4168 c 0,-0.3422 -0.086,-0.6012 -0.245,-0.7711 -0.161,-0.1738 -0.366,-0.257 -0.612,-0.257 -0.251,0 -0.45,0.0851 -0.606,0.2601 -0.154,0.1731 -0.235,0.4301 -0.235,0.768 v 4.7211 c 0,0.7609 0.273,1.1429 0.823,1.1429 0.284,0 0.486,-0.089 0.611,-0.2671 0.125,-0.179 0.192,-0.4411 0.207,-0.7891 0.2,0.348 0.408,0.6101 0.62,0.7891 0.217,0.1781 0.498,0.2671 0.856,0.2671 0.357,0 0.701,-0.089 1.036,-0.2671 0.337,-0.179 0.505,-0.4161 0.505,-0.7079 0,-0.207 -0.073,-0.3793 -0.214,-0.5121 -0.143,-0.1359 -0.297,-0.2031 -0.461,-0.2031 -0.066,0 -0.217,0.041 -0.453,0.1172 -0.239,0.0738 -0.45,0.1129 -0.63,0.1129 -0.248,0 -0.451,-0.0668 -0.608,-0.1949 -0.159,-0.134 -0.282,-0.3243 -0.369,-0.5789 -0.085,-0.259 -0.144,-0.5661 -0.178,-0.9172 -0.033,-0.3539 -0.047,-0.7879 -0.047,-1.2961" /><path
       inkscape:connector-curvature="0"
       id="path238"
       style="fill:#352316;fill-opacity:1;fill-rule:nonzero;stroke:none;stroke-width:0.1"
       d="m 270.941,26.5441 h 3.074 c -0.041,0.5778 -0.197,1.0118 -0.468,1.2981 -0.274,0.2887 -0.627,0.4308 -1.072,0.4308 -0.422,0 -0.769,-0.1429 -1.04,-0.4359 -0.272,-0.2922 -0.437,-0.7223 -0.494,-1.293 m 3.316,-0.964 h -3.316 c 0.005,-0.384 0.08,-0.725 0.232,-1.018 0.153,-0.2922 0.352,-0.5141 0.603,-0.6652 0.252,-0.1481 0.526,-0.2219 0.83,-0.2219 0.204,0 0.388,0.0211 0.555,0.073 0.167,0.0461 0.33,0.1211 0.487,0.2231 0.159,0.1 0.302,0.207 0.434,0.3269 0.134,0.1129 0.306,0.2711 0.517,0.47 0.089,0.0718 0.212,0.114 0.372,0.114 0.174,0 0.313,-0.0488 0.423,-0.1461 0.11,-0.0957 0.16,-0.2289 0.16,-0.4027 0,-0.1551 -0.059,-0.3332 -0.174,-0.5363 -0.124,-0.2071 -0.305,-0.402 -0.546,-0.593 -0.246,-0.1848 -0.549,-0.3437 -0.915,-0.4668 -0.364,-0.1242 -0.787,-0.1851 -1.263,-0.1851 -1.091,0 -1.937,0.3082 -2.54,0.9281 -0.603,0.623 -0.908,1.466 -0.908,2.5289 0,0.5019 0.076,0.966 0.227,1.3941 0.146,0.4321 0.364,0.7969 0.653,1.1039 0.283,0.3078 0.634,0.541 1.052,0.7059 0.417,0.1633 0.881,0.2441 1.391,0.2441 0.66,0 1.231,-0.141 1.703,-0.423 0.475,-0.2758 0.834,-0.6371 1.066,-1.082 0.237,-0.4438 0.354,-0.893 0.354,-1.3551 0,-0.4227 -0.124,-0.6989 -0.367,-0.8258 -0.244,-0.127 -0.587,-0.191 -1.03,-0.191" /><path
       inkscape:connector-curvature="0"
       id="path240"
       style="fill:#352316;fill-opacity:1;fill-rule:nonzero;stroke:none;stroke-width:0.1"
       d="m 277.993,26.5441 h 3.072 c -0.042,0.5778 -0.2,1.0118 -0.467,1.2981 -0.276,0.2887 -0.629,0.4308 -1.074,0.4308 -0.422,0 -0.768,-0.1429 -1.042,-0.4359 -0.269,-0.2922 -0.434,-0.7223 -0.489,-1.293 m 3.315,-0.964 h -3.315 c 0.003,-0.384 0.081,-0.725 0.232,-1.018 0.15,-0.2922 0.351,-0.5141 0.601,-0.6652 0.251,-0.1481 0.526,-0.2219 0.831,-0.2219 0.2,0 0.388,0.0211 0.552,0.073 0.171,0.0461 0.33,0.1211 0.489,0.2231 0.159,0.1 0.302,0.207 0.435,0.3269 0.13,0.1129 0.302,0.2711 0.515,0.47 0.088,0.0718 0.213,0.114 0.372,0.114 0.175,0 0.316,-0.0488 0.426,-0.1461 0.106,-0.0957 0.156,-0.2289 0.156,-0.4027 0,-0.1551 -0.056,-0.3332 -0.179,-0.5363 -0.116,-0.2071 -0.297,-0.402 -0.542,-0.593 -0.241,-0.1848 -0.549,-0.3437 -0.914,-0.4668 -0.362,-0.1242 -0.788,-0.1851 -1.262,-0.1851 -1.091,0 -1.936,0.3082 -2.541,0.9281 -0.604,0.623 -0.908,1.466 -0.908,2.5289 0,0.5019 0.076,0.966 0.228,1.3941 0.147,0.4321 0.364,0.7969 0.651,1.1039 0.283,0.3078 0.634,0.541 1.054,0.7059 0.418,0.1633 0.882,0.2441 1.392,0.2441 0.659,0 1.227,-0.141 1.708,-0.423 0.47,-0.2758 0.827,-0.6371 1.059,-1.082 0.236,-0.4438 0.357,-0.893 0.357,-1.3551 0,-0.4227 -0.125,-0.6989 -0.368,-0.8258 -0.245,-0.127 -0.588,-0.191 -1.029,-0.191" /><path
       inkscape:connector-curvature="0"
       id="path242"
       style="fill:#352316;fill-opacity:1;fill-rule:nonzero;stroke:none;stroke-width:0.1"
       d="m 288.344,26.027 c 0,0.448 -0.071,0.8332 -0.206,1.1531 -0.136,0.323 -0.327,0.5668 -0.566,0.7371 -0.241,0.1726 -0.512,0.2598 -0.806,0.2598 -0.466,0 -0.862,-0.1879 -1.182,-0.5532 -0.321,-0.3687 -0.484,-0.9109 -0.484,-1.6277 0,-0.6719 0.162,-1.1992 0.482,-1.5731 0.318,-0.375 0.709,-0.5621 1.184,-0.5621 0.28,0 0.544,0.0832 0.783,0.2442 0.242,0.1648 0.434,0.4101 0.577,0.7347 0.145,0.3301 0.218,0.725 0.218,1.1872 m -3.325,2.4628 v -0.2039 c 0.319,0.395 0.651,0.6832 0.998,0.8661 0.339,0.1859 0.731,0.28 1.165,0.28 0.519,0 1.003,-0.1359 1.442,-0.405 0.439,-0.2688 0.783,-0.6622 1.038,-1.179 0.257,-0.521 0.384,-1.1308 0.384,-1.839 0,-0.5211 -0.074,-1.002 -0.22,-1.4391 -0.145,-0.4367 -0.351,-0.8 -0.607,-1.0969 -0.256,-0.2941 -0.56,-0.5238 -0.908,-0.6851 -0.354,-0.157 -0.727,-0.2359 -1.129,-0.2359 -0.483,0 -0.892,0.096 -1.219,0.291 -0.329,0.191 -0.643,0.4789 -0.944,0.8531 V 21.152 c 0,-0.7418 -0.27,-1.118 -0.812,-1.118 -0.321,0 -0.528,0.0969 -0.634,0.289 -0.099,0.195 -0.154,0.4731 -0.154,0.843 v 7.3172 c 0,0.3227 0.07,0.5609 0.21,0.7227 0.14,0.157 0.334,0.2382 0.578,0.2382 0.24,0 0.435,-0.0812 0.586,-0.2449 0.153,-0.1652 0.226,-0.3992 0.226,-0.7094" /><path
       inkscape:connector-curvature="0"
       id="path244"
       style="fill:#352316;fill-opacity:1;fill-rule:nonzero;stroke:none;stroke-width:0.1"
       d="m 292.592,28.4832 v -4.9051 c 0,-0.3359 -0.08,-0.5929 -0.241,-0.766 -0.165,-0.175 -0.368,-0.2601 -0.616,-0.2601 -0.249,0 -0.448,0.0859 -0.606,0.2652 -0.153,0.1797 -0.233,0.434 -0.233,0.7609 v 4.8559 c 0,0.3332 0.08,0.5859 0.233,0.7531 0.158,0.1738 0.357,0.257 0.606,0.257 0.248,0 0.451,-0.0832 0.616,-0.257 0.161,-0.1672 0.241,-0.4062 0.241,-0.7039 m -0.84,1.75 c -0.236,0 -0.438,0.0738 -0.604,0.218 -0.168,0.148 -0.252,0.348 -0.252,0.6129 0,0.241 0.085,0.4371 0.259,0.5949 0.172,0.1531 0.369,0.232 0.597,0.232 0.223,0 0.416,-0.0699 0.585,-0.2078 0.169,-0.1441 0.255,-0.3512 0.255,-0.6191 0,-0.261 -0.083,-0.4649 -0.247,-0.6121 -0.166,-0.145 -0.362,-0.2188 -0.593,-0.2188" /><path
       inkscape:connector-curvature="0"
       id="path246"
       style="fill:#352316;fill-opacity:1;fill-rule:nonzero;stroke:none;stroke-width:0.1"
       d="m 298.056,23.3242 -1.493,2.4617 -0.92,-0.8687 v -1.35 c 0,-0.325 -0.087,-0.5762 -0.259,-0.75 -0.168,-0.1793 -0.37,-0.2652 -0.593,-0.2652 -0.261,0 -0.467,0.0851 -0.614,0.2601 -0.15,0.1731 -0.226,0.4301 -0.226,0.768 v 7.232 c 0,0.375 0.075,0.6609 0.217,0.8578 0.146,0.1992 0.355,0.2961 0.623,0.2961 0.262,0 0.465,-0.0898 0.621,-0.2699 0.151,-0.175 0.231,-0.4391 0.231,-0.7859 V 26.798 l 1.905,2.0012 c 0.237,0.2469 0.415,0.4188 0.541,0.509 0.123,0.0906 0.274,0.1359 0.45,0.1359 0.214,0 0.389,-0.0679 0.534,-0.2019 0.138,-0.134 0.208,-0.3051 0.208,-0.5063 0,-0.248 -0.231,-0.5808 -0.688,-0.9937 l -0.901,-0.8262 1.739,-2.7328 c 0.126,-0.2043 0.221,-0.3551 0.276,-0.4613 0.055,-0.1047 0.086,-0.209 0.086,-0.302 0,-0.2711 -0.075,-0.4801 -0.224,-0.6367 -0.145,-0.1562 -0.342,-0.2312 -0.578,-0.2312 -0.208,0 -0.369,0.0519 -0.479,0.1679 -0.112,0.1102 -0.268,0.3141 -0.456,0.6043" /><path
       inkscape:connector-curvature="0"
       id="path248"
       style="fill:#352316;fill-opacity:1;fill-rule:nonzero;stroke:none;stroke-width:0.1"
       d="m 301.738,22.552 c -0.255,0 -0.474,0.0812 -0.663,0.2492 -0.184,0.1617 -0.279,0.3937 -0.279,0.6949 0,0.2519 0.09,0.4699 0.267,0.6508 0.18,0.182 0.398,0.273 0.66,0.273 0.259,0 0.48,-0.091 0.669,-0.2687 0.182,-0.1801 0.275,-0.4012 0.275,-0.6551 0,-0.2961 -0.093,-0.5281 -0.275,-0.693 -0.189,-0.1699 -0.406,-0.2511 -0.654,-0.2511" /><path
       inkscape:connector-curvature="0"
       id="path250"
       style="fill:#352316;fill-opacity:1;fill-rule:nonzero;stroke:none;stroke-width:0.1"
       d="m 310.169,24.6488 c 0,-0.209 -0.064,-0.4367 -0.191,-0.6758 -0.125,-0.2429 -0.319,-0.4691 -0.577,-0.6871 -0.258,-0.2168 -0.583,-0.3918 -0.977,-0.5238 -0.393,-0.132 -0.837,-0.2 -1.327,-0.2 -1.05,0 -1.869,0.3059 -2.456,0.9149 -0.585,0.6109 -0.879,1.43 -0.879,2.4582 0,0.6968 0.132,1.3109 0.403,1.8449 0.266,0.532 0.657,0.9469 1.164,1.2398 0.51,0.2922 1.122,0.4371 1.827,0.4371 0.44,0 0.842,-0.0648 1.21,-0.1929 0.366,-0.127 0.675,-0.295 0.933,-0.4969 0.252,-0.2051 0.447,-0.4203 0.58,-0.6492 0.135,-0.2301 0.2,-0.4438 0.2,-0.643 0,-0.202 -0.073,-0.375 -0.223,-0.516 -0.154,-0.141 -0.337,-0.211 -0.547,-0.211 -0.144,0 -0.261,0.0372 -0.354,0.1079 -0.096,0.073 -0.199,0.1902 -0.314,0.3543 -0.207,0.3117 -0.421,0.55 -0.65,0.7058 -0.225,0.1582 -0.512,0.236 -0.859,0.236 -0.498,0 -0.905,-0.195 -1.212,-0.5872 -0.305,-0.3886 -0.46,-0.9269 -0.46,-1.6027 0,-0.3191 0.041,-0.6141 0.121,-0.882 0.076,-0.2653 0.189,-0.4942 0.339,-0.6821 0.151,-0.1871 0.331,-0.33 0.541,-0.4269 0.212,-0.1012 0.444,-0.1492 0.695,-0.1492 0.34,0 0.631,0.0793 0.873,0.2383 0.246,0.157 0.46,0.3968 0.646,0.7187 0.102,0.1902 0.214,0.3391 0.332,0.4473 0.119,0.1058 0.267,0.1617 0.441,0.1617 0.207,0 0.379,-0.0789 0.515,-0.2359 0.138,-0.1579 0.206,-0.3258 0.206,-0.5032" /><path
       inkscape:connector-curvature="0"
       id="path252"
       style="fill:#352316;fill-opacity:1;fill-rule:nonzero;stroke:none;stroke-width:0.1"
       d="m 315.782,25.9961 c 0,0.691 -0.154,1.2289 -0.456,1.6129 -0.304,0.389 -0.711,0.5808 -1.224,0.5808 -0.333,0 -0.625,-0.0859 -0.878,-0.2566 -0.252,-0.1723 -0.446,-0.425 -0.582,-0.7613 -0.137,-0.3367 -0.207,-0.7278 -0.207,-1.1758 0,-0.443 0.067,-0.8289 0.203,-1.159 0.135,-0.3332 0.328,-0.5851 0.578,-0.7621 0.254,-0.175 0.547,-0.2648 0.886,-0.2648 0.513,0 0.92,0.1937 1.224,0.5839 0.302,0.3848 0.456,0.9207 0.456,1.602 m 1.701,0 c 0,-0.5031 -0.079,-0.9699 -0.231,-1.3981 -0.162,-0.4261 -0.388,-0.7921 -0.688,-1.0968 -0.296,-0.3063 -0.654,-0.541 -1.065,-0.7051 -0.418,-0.1629 -0.882,-0.2449 -1.397,-0.2449 -0.514,0 -0.977,0.082 -1.388,0.25 -0.407,0.1617 -0.764,0.4 -1.063,0.707 -0.299,0.3109 -0.528,0.675 -0.687,1.0957 -0.149,0.4191 -0.228,0.884 -0.228,1.3922 0,0.5148 0.081,0.984 0.235,1.409 0.156,0.4301 0.382,0.7949 0.677,1.0949 0.294,0.3012 0.65,0.534 1.066,0.6992 0.421,0.1637 0.883,0.2449 1.388,0.2449 0.513,0 0.977,-0.0812 1.397,-0.2492 0.417,-0.164 0.773,-0.4019 1.073,-0.707 0.3,-0.309 0.526,-0.6719 0.681,-1.091 0.152,-0.4258 0.23,-0.8879 0.23,-1.4008" /><path
       inkscape:connector-curvature="0"
       id="path254"
       style="fill:#352316;fill-opacity:1;fill-rule:nonzero;stroke:none;stroke-width:0.1"
       d="M 323.949,25.8719 V 23.618 c 0,-0.3571 -0.078,-0.6211 -0.241,-0.8008 -0.164,-0.1793 -0.373,-0.266 -0.639,-0.266 -0.256,0 -0.467,0.0867 -0.622,0.266 -0.162,0.1797 -0.244,0.4437 -0.244,0.8008 v 2.7011 c 0,0.4258 -0.013,0.759 -0.04,0.9957 -0.03,0.2321 -0.11,0.4293 -0.237,0.5774 -0.129,0.1527 -0.333,0.2297 -0.609,0.2297 -0.555,0 -0.92,-0.1887 -1.095,-0.575 -0.174,-0.3778 -0.265,-0.9239 -0.265,-1.6387 V 23.618 c 0,-0.35 -0.08,-0.618 -0.237,-0.8 -0.163,-0.1758 -0.371,-0.2668 -0.63,-0.2668 -0.26,0 -0.469,0.091 -0.634,0.2668 -0.163,0.182 -0.244,0.45 -0.244,0.8 v 4.8511 c 0,0.318 0.072,0.5618 0.219,0.7258 0.15,0.168 0.343,0.2492 0.581,0.2492 0.233,0 0.424,-0.0812 0.583,-0.2312 0.153,-0.157 0.231,-0.3707 0.231,-0.6449 v -0.159 c 0.296,0.3492 0.612,0.6082 0.944,0.7711 0.337,0.1711 0.707,0.2519 1.12,0.2519 0.425,0 0.791,-0.0859 1.096,-0.255 0.307,-0.1688 0.558,-0.4282 0.76,-0.768 0.286,0.3441 0.593,0.6019 0.92,0.7711 0.328,0.1679 0.688,0.2519 1.086,0.2519 0.462,0 0.864,-0.0941 1.198,-0.2738 0.335,-0.1812 0.585,-0.4441 0.751,-0.782 0.145,-0.3102 0.215,-0.7903 0.215,-1.4481 V 23.618 c 0,-0.3571 -0.078,-0.6211 -0.239,-0.8008 -0.16,-0.1793 -0.375,-0.266 -0.64,-0.266 -0.259,0 -0.467,0.091 -0.631,0.2668 -0.164,0.182 -0.246,0.45 -0.246,0.8 v 2.8519 c 0,0.3653 -0.016,0.6563 -0.045,0.8742 -0.03,0.2207 -0.115,0.4047 -0.25,0.5539 -0.138,0.1469 -0.346,0.2239 -0.623,0.2239 -0.223,0 -0.434,-0.0688 -0.637,-0.2008 -0.201,-0.1289 -0.357,-0.3121 -0.47,-0.5301 -0.121,-0.2859 -0.186,-0.7941 -0.186,-1.5191" /><path
       inkscape:connector-curvature="0"
       id="path256"
       style="fill:#352316;fill-opacity:1;fill-rule:nonzero;stroke:none;stroke-width:0.1"
       d="m 245.056,26.407 c -0.002,0.002 -0.002,0.0051 -0.002,0.0121 0,-0.007 0,-0.0101 0.002,-0.0121" /><path
       inkscape:connector-curvature="0"
       id="path258"
       style="fill:#352316;fill-opacity:1;fill-rule:nonzero;stroke:none;stroke-width:0.1"
       d="m 245.141,25.8641 c 0.002,0 0.002,0 0.003,0 -0.034,0.1558 -0.058,0.3078 -0.079,0.4589 0.021,-0.1531 0.045,-0.305 0.076,-0.4589" /><path
       inkscape:connector-curvature="0"
       id="path260"
       style="fill:#352316;fill-opacity:1;fill-rule:nonzero;stroke:none;stroke-width:0.1"
       d="m 245.702,24.291 c -0.003,0.0082 -0.006,0.0141 -0.011,0.0231 0.005,-0.009 0.008,-0.0149 0.011,-0.0231" /><path
       inkscape:connector-curvature="0"
       id="path262"
       style="fill:#352316;fill-opacity:1;fill-rule:nonzero;stroke:none;stroke-width:0.1"
       d="m 245.649,24.3961 c -0.015,0.0289 -0.028,0.059 -0.043,0.0871 0.015,-0.0312 0.028,-0.0582 0.043,-0.0871" /><path
       inkscape:connector-curvature="0"
       id="path264"
       style="fill:#352316;fill-opacity:1;fill-rule:nonzero;stroke:none;stroke-width:0.1"
       d="m 245.299,25.259 c 0.083,-0.2621 0.182,-0.516 0.299,-0.757 -0.118,0.2468 -0.216,0.5011 -0.297,0.757 h -0.002" /><path
       inkscape:connector-curvature="0"
       id="path266"
       style="fill:#352316;fill-opacity:1;fill-rule:nonzero;stroke:none;stroke-width:0.1"
       d="m 251.616,32.9 c 0.328,0 0.57,-0.0262 0.847,-0.073 l 0.079,0.5 c 0,0 -0.766,0.2339 -1.772,0.1531 l -0.079,0.2711 c 0.312,0.066 0.547,0.3437 0.547,0.6758 0,0.382 -0.31,0.689 -0.691,0.689 -0.381,0 -0.69,-0.307 -0.69,-0.689 0,-0.3321 0.234,-0.6098 0.546,-0.6758 l 0.088,-0.302 c -1.068,-0.1472 -1.918,-0.5633 -1.918,-0.5633 l 0.15,-0.4617 c 0.647,0.216 1.207,0.3469 1.715,0.4008 0.498,0.0531 0.873,0.075 1.178,0.075" /><path
       inkscape:connector-curvature="0"
       id="path268"
       style="fill:#352316;fill-opacity:1;fill-rule:nonzero;stroke:none;stroke-width:0.1"
       d="m 245.69,30.3801 0.003,0.0039 c 0.026,0.032 0.05,0.064 0.075,0.0941 l -0.206,0.1457 -0.317,0.2344 c -0.018,-0.0242 -0.521,-0.4863 -0.916,-1.3383 -0.018,0.0262 -0.038,0.052 -0.06,0.077 -0.119,0.1312 -0.284,0.1953 -0.495,0.1922 -0.003,0 -0.006,0 -0.01,0 -0.13,0 -0.22,0.0441 -0.278,0.098 0.058,0.0719 0.093,0.166 0.093,0.2688 0,0.241 -0.196,0.4363 -0.437,0.4363 -0.242,0 -0.438,-0.1953 -0.438,-0.4363 0,-0.2418 0.196,-0.4368 0.438,-0.4368 0.037,0 0.073,0.0051 0.108,0.0129 0.108,-0.1211 0.279,-0.2238 0.528,-0.2179 0.129,0.0011 0.223,-0.0332 0.286,-0.102 0.073,-0.0789 0.097,-0.1941 0.105,-0.2801 -0.001,-0.0011 -0.001,-0.0019 -0.003,-0.0019 -0.284,-0.7781 -0.203,-1.7461 -0.203,-1.7461 l 0.691,-0.0281 c 0.014,0.3531 0.065,0.9691 0.243,1.4589 0.344,0.9481 0.776,1.5391 0.793,1.5653" /><path
       inkscape:connector-curvature="0"
       id="path270"
       style="fill:#352316;fill-opacity:1;fill-rule:nonzero;stroke:none;stroke-width:0.1"
       d="m 257.628,32.323 c -0.24,0 -0.437,-0.1941 -0.437,-0.4359 0,-0.0371 0.007,-0.075 0.017,-0.1101 -0.121,-0.1071 -0.226,-0.2782 -0.222,-0.5282 0.002,-0.1297 -0.031,-0.2238 -0.1,-0.2859 -0.055,-0.0481 -0.125,-0.0758 -0.194,-0.0918 -0.514,0.7219 -1.147,1.1598 -1.147,1.1598 L 255.049,31.5 c 0.375,-0.341 0.758,-0.768 1.129,-1.3008 0.257,-0.3683 0.523,-0.8441 0.742,-1.316 l 0.671,0.316 c 0,0 -0.306,0.7559 -0.737,1.434 0.075,0.025 0.151,0.066 0.217,0.125 0.131,0.118 0.196,0.2859 0.191,0.4957 0,0.1352 0.045,0.227 0.097,0.2891 0.075,-0.0578 0.169,-0.095 0.269,-0.095 0.244,0 0.438,0.1981 0.438,0.4391 0,0.2418 -0.194,0.4359 -0.438,0.4359" /><path
       inkscape:connector-curvature="0"
       id="path272"
       style="fill:#352316;fill-opacity:1;fill-rule:nonzero;stroke:none;stroke-width:0.1"
       d="m 255.893,26.3082 c -0.921,-0.448 -2.437,-1.0402 -4.432,-1.3203 -0.784,-0.1078 -1.543,-0.1481 -2.242,-0.1481 -0.909,0 -1.712,0.0672 -2.328,0.1454 -0.704,0.089 -1.253,0.198 -1.59,0.2738 0.081,-0.2559 0.179,-0.5102 0.297,-0.757 0.002,-0.0071 0.005,-0.0141 0.008,-0.0188 0.015,-0.0281 0.028,-0.0582 0.043,-0.0871 0.014,-0.0289 0.028,-0.0551 0.042,-0.082 0.005,-0.009 0.008,-0.0149 0.011,-0.0231 0.198,-0.3719 0.436,-0.714 0.707,-1.0121 0.941,-1.0269 1.9,-1.1918 1.909,-1.1937 l 0.015,-0.0012 0.013,-0.0039 c 0.009,-0.0051 0.86,-0.2789 2.152,-0.2789 1.271,0 2.519,0.2578 3.709,0.7636 0.881,0.4512 1.714,1.1344 2.126,1.7454 0.32,0.4707 0.55,0.975 0.686,1.4988 0.073,0.2781 0.129,0.723 0.097,1.193 -0.26,-0.1758 -0.67,-0.4239 -1.223,-0.6938" /><path
       inkscape:connector-curvature="0"
       id="path274"
       style="fill:#352316;fill-opacity:1;fill-rule:nonzero;stroke:none;stroke-width:0.1"
       d="m 248.619,30.643 c 1.016,0 1.84,-0.825 1.84,-1.843 0,-1.016 -0.824,-1.8398 -1.84,-1.8398 -1.017,0 -1.842,0.8238 -1.842,1.8398 0,1.018 0.825,1.843 1.842,1.843 z m 5.386,-0.0461 c 0.628,0 1.139,-0.511 1.139,-1.1399 0,-0.6281 -0.511,-1.1398 -1.139,-1.1398 -0.629,0 -1.14,0.5117 -1.14,1.1398 0,0.6289 0.511,1.1399 1.14,1.1399 z m -8.019,-0.436 c -0.028,-0.0398 -0.427,-0.6039 -0.742,-1.4711 -0.237,-0.6507 -0.226,-1.5976 -0.226,-1.6097 v -0.002 c 0,-0.2222 0.012,-0.441 0.036,-0.659 0,-0.007 0,-0.0101 0.002,-0.0121 0.003,-0.0289 0.007,-0.0539 0.009,-0.084 0.021,-0.1511 0.045,-0.3031 0.079,-0.4589 0.457,-0.1161 3.187,-0.7539 6.24,-0.3282 1.914,0.268 3.365,0.8321 4.247,1.2602 0.734,0.3551 1.204,0.6769 1.387,0.8098 -0.182,0.6711 -0.681,1.725 -1.14,2.382 -1.311,1.873 -2.724,2.3543 -3.448,2.473 -0.278,0.045 -0.499,0.0711 -0.814,0.0711 -0.292,0 -0.655,-0.023 -1.139,-0.0738 -0.486,-0.0512 -1.027,-0.1793 -1.655,-0.3891 -0.881,-0.2953 -1.678,-0.7582 -2.305,-1.339 l -0.021,-0.0192 c -0.094,-0.0871 -0.287,-0.2679 -0.51,-0.55" /><path
       transform="scale(0.1)"
       d="m 879.16,2664.23 c 12.813,-41.89 -61.094,-101.51 -164.808,-133.29 -103.965,-31.54 -198.329,-23.4 -211.129,18.47 -29.321,95.85 44.09,254.26 120.715,277.67 76.613,23.4 224.183,-61.6 255.222,-162.85 v 0"
       style="fill:#971a1f;fill-opacity:1;fill-rule:evenodd;stroke:none"
       id="path70"
       inkscape:connector-curvature="0" /><path
       transform="scale(0.1)"
       d="m 662.367,2731.98 c 23.403,0 42.125,-18.72 42.125,-42.14 0,-23.15 -18.722,-41.87 -42.125,-41.87 -23.156,0 -41.879,18.72 -41.879,41.87 0,23.42 18.723,42.14 41.879,42.14 z m 174.18,4.18 c 19.211,-21.68 34.238,-45.82 42.125,-70.71 -4.192,-1.47 -8.871,-2.46 -13.551,-2.46 -23.402,0 -42.129,18.97 -42.129,42.14 0,12.31 5.176,23.4 13.555,31.03 z m -83.27,65.3 c 20.45,-11.34 40.649,-25.14 58.625,-40.9 -1.222,-22.18 -19.457,-39.91 -42.129,-39.91 -23.148,0 -41.875,18.72 -41.875,42.12 0,17.25 10.348,32.03 25.379,38.69 z m -187.48,-17.5 c 17.976,21.43 37.937,36.96 58.141,43.12 3.945,1.23 7.878,1.97 12.312,2.71 3.203,-5.91 5.18,-13.06 5.18,-20.45 0,-23.17 -18.731,-42.12 -42.133,-42.12 -13.551,0 -25.867,6.64 -33.5,16.74 z M 501.98,2647.48 c 5.176,25.86 14.043,51.72 25.625,75.87 22.915,-0.24 41.395,-18.96 41.395,-42.13 0,-23.15 -18.727,-42.12 -42.137,-42.12 -9.359,0 -17.98,3.2 -24.883,8.38 z m 287.754,-86.23 c -10.593,-5.43 -21.683,-10.35 -33.504,-15.29 -22.91,0.51 -41.14,19.23 -41.14,42.14 0,23.16 18.723,41.88 42.121,41.88 23.164,0 41.887,-18.72 41.887,-41.88 0,-10.1 -3.453,-19.46 -9.364,-26.85 z m -197.089,52.22 c 23.16,0 42.128,-18.97 42.128,-42.13 0,-23.15 -18.968,-42.12 -42.128,-42.12 -23.157,0 -42.125,18.97 -42.125,42.12 0,23.16 18.968,42.13 42.125,42.13 v 0"
       style="fill:#fbc689;fill-opacity:1;fill-rule:evenodd;stroke:none"
       id="path72"
       inkscape:connector-curvature="0" /><path
       transform="scale(0.1)"
       d="m 760.664,2547.7 c 8.871,-18.97 16.262,-40.9 24.391,-59.13 20.941,-47.8 22.172,-94.37 -11.828,-109.39 -34.243,-15.03 -75.137,-16.02 -111.594,55.19 -14.043,27.34 -17.996,55.92 -15.031,81.3 21.425,3.19 44.339,8.12 67.75,15.27 16.257,4.92 31.781,10.6 46.312,16.76 v 0"
       style="fill:#bc8934;fill-opacity:1;fill-rule:evenodd;stroke:none"
       id="path74"
       inkscape:connector-curvature="0" /><path
       transform="scale(0.1)"
       d="m 760.664,2547.7 c 2.957,-6.42 5.914,-13.3 8.621,-20.21 -17.73,-7.39 -36.211,-14.04 -55.672,-19.95 -22.672,-6.9 -45.332,-12.32 -67.754,-16.26 -0.492,8.38 -0.25,16.5 0.743,24.39 21.425,3.19 44.339,8.12 67.75,15.27 16.257,4.92 31.781,10.6 46.312,16.76 v 0"
       style="fill:#9d5e1d;fill-opacity:1;fill-rule:evenodd;stroke:none"
       id="path76"
       inkscape:connector-curvature="0" /><path
       transform="scale(0.1)"
       d="m 880.641,2655.36 c 0.984,-41.16 -69.723,-94.86 -166.289,-124.42 -96.829,-29.31 -185.27,-24.39 -207.438,10.34 36.211,-9.35 112.332,-0.48 196.598,25.14 84.258,25.62 152.246,60.85 177.129,88.94 v 0"
       style="fill:#fbc689;fill-opacity:1;fill-rule:evenodd;stroke:none"
       id="path78"
       inkscape:connector-curvature="0" /><path
       transform="scale(0.1)"
       d="m 1484.72,2779.03 c 0,-65.77 -167.28,-119 -373.73,-119 -206.205,0 -373.486,53.23 -373.486,119 0,150.78 221.23,346.4 373.486,346.4 152.5,0 373.73,-187 373.73,-346.4 v 0"
       style="fill:#cc2d23;fill-opacity:1;fill-rule:evenodd;stroke:none"
       id="path80"
       inkscape:connector-curvature="0" /><path
       transform="scale(0.1)"
       d="m 1184.65,2667.43 c 4.19,-31.29 5.42,-66.02 8.87,-95.83 9.11,-77.62 -9.37,-145.6 -65.04,-152.01 -55.43,-6.66 -114.8,9.84 -135.992,128.35 -8.133,45.33 -1.476,88.2 14.042,123.43 32.28,-4.93 67.26,-7.63 103.97,-7.63 25.62,0 50.5,1.22 74.15,3.69 v 0"
       style="fill:#bc8934;fill-opacity:1;fill-rule:evenodd;stroke:none"
       id="path82"
       inkscape:connector-curvature="0" /><path
       transform="scale(0.1)"
       d="m 1184.65,2667.43 c 1.23,-10.6 2.46,-21.69 3.45,-32.77 -28.83,-2.96 -58.39,-4.43 -88.69,-4.43 -35.97,0 -70.95,2.21 -104.703,6.16 2.961,12.31 6.903,23.89 11.823,34.98 32.28,-4.93 67.26,-7.63 103.97,-7.63 25.62,0 50.5,1.22 74.15,3.69 v 0"
       style="fill:#9d5e1d;fill-opacity:1;fill-rule:evenodd;stroke:none"
       id="path84"
       inkscape:connector-curvature="0" /><path
       transform="scale(0.1)"
       d="m 1482.26,2765.73 c -20.7,-59.63 -179.11,-105.7 -371.27,-105.7 -192.162,0 -350.326,46.07 -371.017,105.7 60.355,-29.31 203.738,-50.01 371.017,-50.01 167.53,0 310.9,20.7 371.27,50.01 v 0"
       style="fill:#fbc689;fill-opacity:1;fill-rule:evenodd;stroke:none"
       id="path86"
       inkscape:connector-curvature="0" /><path
       transform="scale(0.1)"
       d="m 1050.14,3070.24 c 23.4,0 42.63,-15.02 42.63,-33.51 0,-18.72 -19.23,-33.75 -42.63,-33.75 -23.65,0 -42.62,15.03 -42.62,33.75 0,18.49 18.97,33.51 42.62,33.51 v 0"
       style="fill:#ffffff;fill-opacity:1;fill-rule:evenodd;stroke:none"
       id="path88"
       inkscape:connector-curvature="0" /><path
       transform="scale(0.1)"
       d="m 967.813,2965.05 c 11.578,0 21.187,-7.65 21.187,-17.01 0,-9.11 -9.609,-16.75 -21.187,-16.75 -11.829,0 -21.434,7.64 -21.434,16.75 0,9.36 9.605,17.01 21.434,17.01 v 0"
       style="fill:#ffffff;fill-opacity:1;fill-rule:evenodd;stroke:none"
       id="path90"
       inkscape:connector-curvature="0" /><path
       transform="scale(0.1)"
       d="m 1308.82,2580.22 c -8.38,-27.35 39.66,-66.04 107.17,-86.72 67.74,-20.71 129.09,-15.28 137.46,12.06 18.97,62.34 -28.57,165.56 -78.58,180.6 -50.02,15.27 -146.1,-39.92 -166.05,-105.94 v 0"
       style="fill:#d52424;fill-opacity:1;fill-rule:evenodd;stroke:none"
       id="path92"
       inkscape:connector-curvature="0" /><path
       transform="scale(0.1)"
       d="m 1385.92,2504.34 c -5.91,-12.33 -10.58,-26.62 -16.01,-38.45 -13.55,-31.03 -14.28,-61.58 7.89,-71.18 22.17,-9.87 48.78,-10.6 72.43,35.96 9.11,17.74 11.83,36.22 9.85,52.72 -14.04,2.22 -28.83,5.42 -44.09,10.11 -10.6,3.19 -20.7,6.89 -30.07,10.84 v 0"
       style="fill:#bc8934;fill-opacity:1;fill-rule:evenodd;stroke:none"
       id="path94"
       inkscape:connector-curvature="0" /><path
       transform="scale(0.1)"
       d="m 1385.92,2504.34 c -1.97,-4.2 -3.94,-8.63 -5.66,-13.06 11.58,-4.93 23.66,-9.37 36.21,-13.06 14.78,-4.68 29.57,-8.13 44.11,-10.59 0.24,5.42 0.24,10.59 -0.5,15.76 -14.04,2.22 -28.83,5.42 -44.09,10.11 -10.6,3.19 -20.7,6.89 -30.07,10.84 v 0"
       style="fill:#9d5e1d;fill-opacity:1;fill-rule:evenodd;stroke:none"
       id="path96"
       inkscape:connector-curvature="0" /><path
       transform="scale(0.1)"
       d="m 1307.83,2574.31 c -0.74,-26.61 45.33,-61.59 108.16,-80.81 63.06,-19.23 120.71,-16.02 135,6.64 -23.4,-6.16 -73.17,-0.24 -127.86,16.51 -54.94,16.51 -99.29,39.42 -115.3,57.66 v 0"
       style="fill:#fbc689;fill-opacity:1;fill-rule:evenodd;stroke:none"
       id="path98"
       inkscape:connector-curvature="0" /></g></svg>