<?xml version="1.0" encoding="UTF-8" standalone="no"?>
<!-- Created with Inkscape (http://www.inkscape.org/) -->

<svg
   xmlns:dc="http://purl.org/dc/elements/1.1/"
   xmlns:cc="http://creativecommons.org/ns#"
   xmlns:rdf="http://www.w3.org/1999/02/22-rdf-syntax-ns#"
   xmlns:svg="http://www.w3.org/2000/svg"
   xmlns="http://www.w3.org/2000/svg"
   xmlns:sodipodi="http://sodipodi.sourceforge.net/DTD/sodipodi-0.dtd"
   xmlns:inkscape="http://www.inkscape.org/namespaces/inkscape"
   version="1.1"
   id="svg2"
   xml:space="preserve"
   width="129.55466"
   height="272.76562"
   viewBox="0 0 129.55466 272.76563"
   sodipodi:docname="21169-NTOHYH.eps"
   inkscape:version="0.92+devel unknown"><metadata
     id="metadata8"><rdf:RDF><cc:Work
         rdf:about=""><dc:format>image/svg+xml</dc:format><dc:type
           rdf:resource="http://purl.org/dc/dcmitype/StillImage" /><dc:title></dc:title></cc:Work></rdf:RDF></metadata><defs
     id="defs6" /><sodipodi:namedview
     pagecolor="#ffffff"
     bordercolor="#666666"
     inkscape:document-rotation="0"
     borderopacity="1"
     objecttolerance="10"
     gridtolerance="10"
     guidetolerance="10"
     inkscape:pageopacity="0"
     inkscape:pageshadow="2"
     inkscape:window-width="1414"
     inkscape:window-height="827"
     id="namedview4"
     showgrid="false"
     inkscape:zoom="0.50067504"
     inkscape:cx="-331.26261"
     inkscape:cy="150.90695"
     inkscape:window-x="0"
     inkscape:window-y="0"
     inkscape:window-maximized="0"
     inkscape:current-layer="g10" /><g
     id="g10"
     inkscape:groupmode="layer"
     inkscape:label="ink_ext_XXXXXX"
     transform="matrix(1.3333333,0,0,-1.3333333,-864.54265,655.13865)"><path
       inkscape:connector-curvature="0"
       id="path16"
       style="fill:#723405;fill-opacity:1;fill-rule:nonzero;stroke:none;stroke-width:0.1"
       d="m 283.402,24.223 c -0.256,-0.0472 -0.524,-0.071 -0.805,-0.071 -0.622,0 -1.198,0.1308 -1.726,0.3949 -0.528,0.2621 -0.986,0.639 -1.371,1.125 -0.388,0.4871 -0.681,1.0601 -0.879,1.7191 -0.2,0.6598 -0.301,1.3711 -0.301,2.136 0,1.6218 0.397,2.8871 1.189,3.791 0.791,0.905 1.833,1.3578 3.125,1.3578 0.271,0 0.527,-0.0168 0.768,-0.0508 v -1.8691 h -0.027 c -0.476,0 -0.899,-0.1329 -1.272,-0.402 -0.375,-0.268 -0.665,-0.6551 -0.871,-1.159 -0.207,-0.5039 -0.308,-1.0879 -0.308,-1.7519 v 0 c 0,-0.7039 0.108,-1.3 0.328,-1.795 0.218,-0.4949 0.517,-0.8671 0.896,-1.1152 0.38,-0.2519 0.795,-0.3769 1.245,-0.3769 h 0.009 z m 2.622,1.4122 v 0.2558 c -0.348,-0.3988 -0.691,-0.723 -1.03,-0.973 -0.34,-0.25 -0.706,-0.441 -1.102,-0.57 -0.158,-0.0531 -0.321,-0.0941 -0.49,-0.125 v 1.9329 c 0.452,0.0011 0.866,0.1203 1.242,0.357 0.375,0.2371 0.675,0.6012 0.901,1.091 0.225,0.491 0.336,1.1051 0.336,1.8391 0,0.6898 -0.111,1.284 -0.336,1.782 -0.226,0.4961 -0.529,0.8762 -0.912,1.1391 -0.375,0.257 -0.786,0.3871 -1.231,0.3918 v 1.8691 c 0.421,-0.059 0.795,-0.1711 1.121,-0.332 0.514,-0.2578 1.014,-0.6532 1.501,-1.184 v 3.8289 c 0,0.5312 0.106,0.9332 0.319,1.2051 0.211,0.2718 0.513,0.4078 0.907,0.4078 0.392,0 0.693,-0.125 0.905,-0.375 0.214,-0.25 0.32,-0.618 0.32,-1.1059 V 25.6352 c 0,-0.4954 -0.115,-0.8653 -0.342,-1.1122 -0.229,-0.246 -0.523,-0.371 -0.883,-0.371 -0.355,0 -0.647,0.1289 -0.879,0.3839 -0.231,0.259 -0.347,0.6231 -0.347,1.0993" /><path
       inkscape:connector-curvature="0"
       id="path18"
       style="fill:#723405;fill-opacity:1;fill-rule:nonzero;stroke:none;stroke-width:0.1"
       d="m 294.737,28.7859 h -2.35 c 0.006,-0.589 0.125,-1.1058 0.355,-1.555 0.232,-0.452 0.539,-0.7899 0.922,-1.018 0.329,-0.1949 0.687,-0.307 1.073,-0.334 V 24.157 c -1.535,0.05 -2.74,0.5231 -3.613,1.4211 -0.926,0.9481 -1.388,2.2379 -1.388,3.8649 0,0.766 0.115,1.4769 0.343,2.1332 0.228,0.6547 0.561,1.216 0.996,1.6859 0.438,0.4688 0.976,0.8258 1.615,1.077 0.618,0.241 1.3,0.366 2.047,0.3738 v -1.8027 h -0.005 c -0.645,0 -1.176,-0.2223 -1.59,-0.6692 -0.415,-0.4469 -0.666,-1.1082 -0.755,-1.9808 v 0 h 2.35 z m 0,-2.907 c 0.065,-0.0039 0.129,-0.007 0.195,-0.007 0.309,0 0.594,0.0351 0.85,0.1082 0.257,0.075 0.505,0.1859 0.746,0.3418 0.242,0.1551 0.461,0.323 0.664,0.498 0.203,0.1801 0.465,0.4211 0.789,0.7242 0.132,0.1137 0.323,0.1707 0.571,0.1707 0.265,0 0.48,-0.0738 0.644,-0.2187 0.164,-0.1473 0.248,-0.3512 0.248,-0.6172 0,-0.234 -0.091,-0.5078 -0.275,-0.8219 -0.186,-0.314 -0.462,-0.614 -0.831,-0.9031 -0.372,-0.2867 -0.836,-0.525 -1.398,-0.716 -0.559,-0.191 -1.204,-0.2859 -1.932,-0.2859 -0.092,0 -0.182,0.0019 -0.271,0.005 z m 2.721,2.907 h -2.721 v 1.4743 h 2.352 c -0.064,0.8867 -0.305,1.55 -0.718,1.9898 -0.414,0.4391 -0.958,0.6578 -1.634,0.6602 v 1.8027 h 0.082 c 1.012,0 1.88,-0.2117 2.606,-0.641 0.725,-0.4258 1.269,-0.9789 1.629,-1.6559 0.36,-0.6781 0.542,-1.3691 0.542,-2.0699 0,-0.6531 -0.188,-1.075 -0.56,-1.2699 -0.373,-0.191 -0.899,-0.2903 -1.578,-0.2903 v 0" /><path
       inkscape:connector-curvature="0"
       id="path20"
       style="fill:#723405;fill-opacity:1;fill-rule:nonzero;stroke:none;stroke-width:0.1"
       d="m 309.273,27.5441 c 0,-0.716 -0.173,-1.3293 -0.522,-1.839 -0.349,-0.5102 -0.863,-0.8961 -1.544,-1.1582 -0.681,-0.2641 -1.508,-0.3949 -2.483,-0.3949 -0.931,0 -1.729,0.1429 -2.394,0.4281 -0.664,0.2847 -1.156,0.6429 -1.473,1.0687 -0.316,0.4274 -0.474,0.8551 -0.474,1.2871 0,0.2852 0.1,0.5289 0.304,0.7301 0.203,0.202 0.46,0.3039 0.77,0.3039 0.272,0 0.48,-0.066 0.626,-0.198 0.146,-0.1328 0.286,-0.3207 0.418,-0.561 0.266,-0.464 0.585,-0.807 0.955,-1.0359 0.37,-0.2281 0.875,-0.341 1.516,-0.341 0.518,0 0.944,0.1148 1.277,0.3461 0.332,0.232 0.498,0.4957 0.498,0.7937 0,0.4563 -0.172,0.7871 -0.518,0.9961 -0.345,0.2102 -0.914,0.409 -1.706,0.6 -0.892,0.2199 -1.618,0.4551 -2.178,0.6981 -0.561,0.2422 -1.009,0.564 -1.344,0.9629 -0.336,0.4 -0.504,0.8902 -0.504,1.4722 0,0.5188 0.154,1.0098 0.465,1.4727 0.31,0.4613 0.767,0.8301 1.374,1.1051 0.603,0.2781 1.333,0.414 2.187,0.414 0.672,0 1.276,-0.0687 1.81,-0.2097 0.536,-0.1372 0.982,-0.3262 1.341,-0.5594 0.357,-0.2328 0.629,-0.4938 0.815,-0.7778 0.188,-0.2859 0.28,-0.564 0.28,-0.8371 0,-0.2968 -0.1,-0.541 -0.298,-0.732 -0.2,-0.1879 -0.483,-0.2848 -0.851,-0.2848 -0.266,0 -0.492,0.077 -0.68,0.2297 -0.185,0.152 -0.399,0.3782 -0.64,0.6821 -0.196,0.2531 -0.426,0.4562 -0.693,0.6101 -0.266,0.1508 -0.628,0.2262 -1.084,0.2262 -0.468,0 -0.857,-0.0992 -1.167,-0.3 -0.31,-0.1981 -0.465,-0.4453 -0.465,-0.7442 0,-0.273 0.113,-0.496 0.34,-0.6699 0.23,-0.175 0.536,-0.3179 0.923,-0.4312 0.387,-0.1141 0.917,-0.2528 1.596,-0.418 0.803,-0.198 1.46,-0.432 1.97,-0.7039 0.509,-0.2711 0.896,-0.593 1.16,-0.9641 0.262,-0.3699 0.393,-0.7918 0.393,-1.2668" /><path
       inkscape:connector-curvature="0"
       id="path22"
       style="fill:#723405;fill-opacity:1;fill-rule:nonzero;stroke:none;stroke-width:0.1"
       d="m 313.204,33.223 v 0 -7.4929 c 0,-0.5199 -0.123,-0.9141 -0.371,-1.1793 -0.247,-0.2656 -0.56,-0.3988 -0.939,-0.3988 -0.38,0 -0.69,0.1359 -0.926,0.4089 -0.239,0.2731 -0.356,0.6621 -0.356,1.1692 v 7.4179 c 0,0.5122 0.117,0.8989 0.356,1.1579 0.236,0.2601 0.546,0.389 0.926,0.389 0.379,0 0.692,-0.1289 0.939,-0.389 0.248,-0.259 0.371,-0.6207 0.371,-1.0829 z m -1.282,2.677 c -0.361,0 -0.669,0.1121 -0.927,0.334 -0.256,0.2199 -0.383,0.534 -0.383,0.9398 0,0.3684 0.13,0.6692 0.394,0.9082 0.262,0.2371 0.568,0.3559 0.916,0.3559 0.336,0 0.634,-0.1078 0.892,-0.3238 0.26,-0.2153 0.39,-0.5282 0.39,-0.9403 0,-0.4 -0.127,-0.7109 -0.381,-0.9359 C 312.57,36.0141 312.27,35.9 311.922,35.9 v 0" /><path
       inkscape:connector-curvature="0"
       id="path24"
       style="fill:#723405;fill-opacity:1;fill-rule:nonzero;stroke:none;stroke-width:0.1"
       d="m 319.543,24.457 c -0.252,-0.0441 -0.52,-0.066 -0.802,-0.066 -0.868,0 -1.626,0.2199 -2.276,0.6641 -0.648,0.4429 -1.147,1.0629 -1.495,1.8609 -0.349,0.7988 -0.522,1.7192 -0.522,2.7641 0,0.7781 0.105,1.482 0.317,2.109 0.214,0.6269 0.515,1.1558 0.908,1.5859 0.392,0.4309 0.846,0.7559 1.357,0.975 0.513,0.216 1.077,0.3258 1.692,0.3258 0.289,0 0.562,-0.0219 0.821,-0.0656 V 32.757 h -0.042 c -0.742,0 -1.336,-0.282 -1.781,-0.8449 -0.447,-0.5633 -0.67,-1.3652 -0.67,-2.4019 v 0 c 0,-1.0512 0.229,-1.8461 0.688,-2.3852 0.459,-0.5391 1.053,-0.8082 1.782,-0.8082 h 0.023 z m 0,-4.15 -0.176,-0.0011 c -0.893,0 -1.69,0.125 -2.394,0.375 -0.702,0.2511 -1.243,0.573 -1.624,0.9691 -0.379,0.3949 -0.57,0.802 -0.57,1.2211 0,0.316 0.108,0.5738 0.325,0.773 0.214,0.2 0.474,0.2989 0.778,0.2989 0.379,0 0.712,-0.168 0.997,-0.502 0.139,-0.1711 0.282,-0.3449 0.432,-0.5191 0.149,-0.1739 0.314,-0.3231 0.493,-0.4469 0.181,-0.1219 0.398,-0.2141 0.652,-0.2738 0.252,-0.0582 0.544,-0.0903 0.873,-0.0903 0.073,0 0.145,0 0.214,0.0032 z m 5.02,12.4879 v -7.5308 c 0,-0.8621 -0.093,-1.602 -0.277,-2.2243 -0.182,-0.6187 -0.476,-1.132 -0.882,-1.5378 -0.406,-0.404 -0.936,-0.7051 -1.591,-0.9 -0.615,-0.186 -1.372,-0.284 -2.27,-0.295 v 1.8071 c 0.569,0.0179 1.019,0.1097 1.35,0.2769 0.369,0.186 0.629,0.4488 0.778,0.7848 0.149,0.3332 0.236,0.6933 0.261,1.0762 0.025,0.3851 0.045,0.9992 0.057,1.85 -0.4,-0.559 -0.859,-0.9848 -1.383,-1.2758 -0.317,-0.1774 -0.671,-0.2992 -1.063,-0.3692 v 1.8598 c 0.421,0.0051 0.82,0.1223 1.196,0.3473 0.384,0.2328 0.696,0.58 0.938,1.0449 0.238,0.4668 0.359,1.0289 0.359,1.6949 0,1.057 -0.232,1.8813 -0.697,2.4691 -0.458,0.5782 -1.056,0.8731 -1.796,0.884 v 1.8532 c 0.398,-0.0672 0.762,-0.1864 1.088,-0.3563 0.537,-0.2828 1.038,-0.725 1.5,-1.3258 v 0.3508 c 0,0.452 0.11,0.7981 0.332,1.0473 0.223,0.2437 0.507,0.3687 0.856,0.3687 0.5,0 0.832,-0.1629 0.996,-0.4879 0.165,-0.3261 0.248,-0.7968 0.248,-1.4121" /><path
       inkscape:connector-curvature="0"
       id="path26"
       style="fill:#723405;fill-opacity:1;fill-rule:nonzero;stroke:none;stroke-width:0.1"
       d="m 328.685,33.2621 v -0.3152 c 0.454,0.6019 0.953,1.0453 1.495,1.3269 0.541,0.2801 1.163,0.4211 1.866,0.4211 0.683,0 1.295,-0.148 1.833,-0.4469 0.538,-0.2968 0.941,-0.7191 1.206,-1.2621 0.172,-0.3168 0.282,-0.6597 0.332,-1.0257 0.051,-0.3684 0.078,-0.8352 0.078,-1.4051 v -4.825 c 0,-0.5199 -0.12,-0.9141 -0.357,-1.1793 -0.239,-0.2656 -0.546,-0.3988 -0.926,-0.3988 -0.387,0 -0.7,0.1359 -0.941,0.4089 -0.241,0.2731 -0.36,0.6621 -0.36,1.1692 v 4.3207 c 0,0.8543 -0.12,1.5094 -0.357,1.9613 -0.239,0.452 -0.71,0.6789 -1.42,0.6789 -0.461,0 -0.883,-0.1359 -1.263,-0.4121 -0.38,-0.2769 -0.659,-0.6559 -0.836,-1.1359 -0.126,-0.3871 -0.19,-1.1078 -0.19,-2.1641 v -3.2488 c 0,-0.525 -0.121,-0.9211 -0.366,-1.1832 -0.243,-0.2641 -0.558,-0.3949 -0.944,-0.3949 -0.374,0 -0.681,0.1359 -0.922,0.4089 -0.24,0.2731 -0.361,0.6621 -0.361,1.1692 v 7.4929 c 0,0.4938 0.108,0.8629 0.323,1.1071 0.216,0.2418 0.51,0.3648 0.883,0.3648 0.229,0 0.434,-0.0531 0.619,-0.1621 0.182,-0.1078 0.33,-0.2687 0.441,-0.482 0.111,-0.2168 0.167,-0.4809 0.167,-0.7887" /><path
       inkscape:connector-curvature="0"
       id="path28"
       style="fill:#723405;fill-opacity:1;fill-rule:nonzero;stroke:none;stroke-width:0.1"
       d="m 341.737,28.7859 h -2.35 c 0.007,-0.589 0.125,-1.1058 0.357,-1.555 0.23,-0.452 0.537,-0.7899 0.921,-1.018 0.328,-0.1949 0.686,-0.307 1.072,-0.334 V 24.157 c -1.535,0.05 -2.739,0.5239 -3.614,1.4211 -0.924,0.9481 -1.386,2.2379 -1.386,3.8649 0,0.766 0.114,1.4769 0.341,2.1332 0.228,0.6547 0.562,1.216 0.999,1.6859 0.436,0.4688 0.975,0.8258 1.614,1.077 0.617,0.241 1.3,0.366 2.046,0.3738 v -1.8027 h -0.004 c -0.646,0 -1.177,-0.2223 -1.592,-0.6692 -0.415,-0.4469 -0.665,-1.1082 -0.754,-1.9808 v 0 h 2.35 z m 0,-2.907 c 0.065,-0.0039 0.129,-0.007 0.195,-0.007 0.31,0 0.594,0.0351 0.851,0.1082 0.255,0.075 0.504,0.1859 0.746,0.3418 0.24,0.1551 0.461,0.323 0.665,0.498 0.202,0.1801 0.464,0.4211 0.787,0.7242 0.133,0.1137 0.323,0.1707 0.57,0.1707 0.266,0 0.482,-0.0738 0.646,-0.2187 0.165,-0.1473 0.247,-0.3512 0.247,-0.6172 0,-0.234 -0.092,-0.5078 -0.275,-0.8219 -0.185,-0.314 -0.462,-0.614 -0.832,-0.9031 -0.371,-0.2867 -0.835,-0.525 -1.396,-0.716 -0.56,-0.191 -1.205,-0.2859 -1.933,-0.2859 -0.091,0 -0.181,0.0019 -0.271,0.005 z m 2.721,2.907 h -2.721 v 1.4743 h 2.352 c -0.064,0.8867 -0.303,1.55 -0.718,1.9898 -0.414,0.4398 -0.959,0.6578 -1.634,0.6602 v 1.8027 h 0.082 c 1.012,0 1.88,-0.2117 2.606,-0.641 0.725,-0.4258 1.268,-0.9789 1.63,-1.6559 0.36,-0.6781 0.541,-1.3691 0.541,-2.0699 0,-0.6531 -0.187,-1.075 -0.561,-1.2699 -0.373,-0.191 -0.898,-0.2903 -1.577,-0.2903 v 0" /><path
       inkscape:connector-curvature="0"
       id="path30"
       style="fill:#723405;fill-opacity:1;fill-rule:nonzero;stroke:none;stroke-width:0.1"
       d="m 352.407,24.223 c -0.256,-0.0472 -0.524,-0.071 -0.806,-0.071 -0.622,0 -1.197,0.1308 -1.724,0.3949 -0.529,0.2621 -0.987,0.639 -1.373,1.125 -0.387,0.4871 -0.68,1.0601 -0.878,1.7191 -0.2,0.6598 -0.301,1.3711 -0.301,2.136 0,1.6218 0.397,2.8871 1.189,3.791 0.791,0.905 1.833,1.3578 3.125,1.3578 0.271,0 0.528,-0.0168 0.768,-0.0508 v -1.8691 h -0.028 c -0.475,0 -0.9,-0.1329 -1.274,-0.402 -0.373,-0.268 -0.663,-0.6551 -0.869,-1.159 -0.206,-0.5039 -0.307,-1.0879 -0.307,-1.7519 v 0 c 0,-0.7039 0.107,-1.3 0.327,-1.795 0.219,-0.4949 0.517,-0.8671 0.898,-1.1152 0.379,-0.2519 0.794,-0.3769 1.243,-0.3769 h 0.01 z m 2.621,1.4122 v 0.2558 c -0.348,-0.3988 -0.691,-0.723 -1.031,-0.973 -0.339,-0.25 -0.704,-0.441 -1.101,-0.57 -0.157,-0.0531 -0.32,-0.0941 -0.489,-0.125 v 1.9329 c 0.453,0.0011 0.866,0.1203 1.239,0.357 0.377,0.2371 0.678,0.6012 0.903,1.091 0.224,0.491 0.338,1.1051 0.338,1.8391 0,0.6898 -0.114,1.284 -0.338,1.782 -0.225,0.4961 -0.528,0.8762 -0.912,1.1391 -0.375,0.257 -0.784,0.3871 -1.23,0.3918 v 1.8691 c 0.421,-0.059 0.795,-0.1711 1.121,-0.332 0.513,-0.2578 1.014,-0.6532 1.5,-1.184 v 3.8289 c 0,0.5312 0.107,0.9332 0.319,1.2051 0.212,0.2718 0.514,0.4078 0.908,0.4078 0.391,0 0.693,-0.125 0.906,-0.375 0.211,-0.25 0.318,-0.618 0.318,-1.1059 V 25.6352 c 0,-0.4954 -0.114,-0.8653 -0.341,-1.1122 -0.229,-0.246 -0.523,-0.371 -0.883,-0.371 -0.356,0 -0.649,0.1289 -0.879,0.3839 -0.232,0.259 -0.348,0.6231 -0.348,1.0993" /><path
       inkscape:connector-curvature="0"
       id="path32"
       style="fill:#723405;fill-opacity:1;fill-rule:nonzero;stroke:none;stroke-width:0.1"
       d="M 365.626,37.0699 V 33.109 c 0.488,0.5058 0.984,0.8949 1.492,1.1648 0.321,0.1692 0.692,0.2871 1.111,0.3481 v -1.866 c -0.459,-0.0149 -0.872,-0.1489 -1.235,-0.402 -0.387,-0.268 -0.69,-0.659 -0.912,-1.168 -0.222,-0.5089 -0.332,-1.1168 -0.332,-1.8187 v 0 c 0,-1.0332 0.235,-1.825 0.708,-2.3793 0.453,-0.5328 1.043,-0.8109 1.771,-0.8309 v -1.9449 c -0.131,0.0207 -0.259,0.05 -0.384,0.0828 -0.352,0.0961 -0.653,0.2192 -0.898,0.375 -0.246,0.1539 -0.457,0.3141 -0.633,0.4801 -0.172,0.1648 -0.403,0.4129 -0.688,0.741 v -0.2558 c 0,-0.4883 -0.117,-0.8582 -0.352,-1.1082 -0.232,-0.25 -0.53,-0.375 -0.892,-0.375 -0.367,0 -0.66,0.125 -0.878,0.375 -0.219,0.25 -0.328,0.6199 -0.328,1.1082 v 11.3207 c 0,0.5261 0.106,0.923 0.318,1.1921 0.212,0.268 0.509,0.4028 0.888,0.4028 0.4,0 0.706,-0.127 0.922,-0.3828 0.215,-0.2578 0.322,-0.6231 0.322,-1.0981 z m 2.603,-2.448 c 0.241,0.0359 0.498,0.0539 0.77,0.0539 0.861,0 1.615,-0.2028 2.266,-0.611 0.647,-0.4109 1.151,-1.0019 1.508,-1.7777 0.358,-0.7742 0.538,-1.6953 0.538,-2.7601 0,-0.7848 -0.1,-1.5032 -0.299,-2.1598 -0.2,-0.6543 -0.491,-1.2231 -0.869,-1.7031 -0.38,-0.4821 -0.841,-0.8551 -1.382,-1.1172 -0.541,-0.2641 -1.139,-0.3949 -1.791,-0.3949 -0.257,0 -0.504,0.0199 -0.741,0.0601 v 1.9449 l 0.086,-0.0011 c 0.651,0 1.214,0.2839 1.685,0.85 0.472,0.5679 0.708,1.3793 0.708,2.4371 0,0.6832 -0.099,1.2738 -0.294,1.766 -0.197,0.4941 -0.476,0.8769 -0.836,1.1449 -0.36,0.2691 -0.783,0.4031 -1.263,0.4031 l -0.086,-0.0011 v 1.866" /><path
       inkscape:connector-curvature="0"
       id="path34"
       style="fill:#723405;fill-opacity:1;fill-rule:nonzero;stroke:none;stroke-width:0.1"
       d="m 376.673,23.8289 0.236,0.5813 -3.191,8.0347 c -0.196,0.461 -0.295,0.7973 -0.295,1.0063 0,0.2226 0.058,0.4277 0.172,0.6168 0.114,0.1898 0.27,0.3422 0.469,0.4558 0.201,0.1153 0.408,0.1711 0.624,0.1711 0.373,0 0.653,-0.1187 0.844,-0.3558 0.192,-0.2371 0.359,-0.577 0.504,-1.0211 l 2.194,-6.3809 2.081,5.9359 c 0.164,0.479 0.312,0.8579 0.445,1.129 0.134,0.273 0.273,0.457 0.422,0.55 0.149,0.0968 0.36,0.1429 0.633,0.1429 0.196,0 0.384,-0.0508 0.565,-0.1558 0.181,-0.1051 0.319,-0.2461 0.418,-0.4243 0.098,-0.175 0.147,-0.3628 0.147,-0.5589 -0.026,-0.118 -0.065,-0.2899 -0.124,-0.5137 -0.058,-0.2203 -0.126,-0.4473 -0.208,-0.6742 l -3.381,-8.852 c -0.292,-0.7781 -0.577,-1.389 -0.855,-1.832 -0.28,-0.4442 -0.647,-0.7852 -1.107,-1.0219 -0.459,-0.2383 -1.078,-0.3562 -1.858,-0.3562 -0.759,0 -1.329,0.0832 -1.708,0.2461 -0.381,0.166 -0.57,0.466 -0.57,0.9031 0,0.2969 0.09,0.5269 0.271,0.6879 0.179,0.1621 0.448,0.2441 0.801,0.2441 0.139,0 0.277,-0.0199 0.409,-0.059 0.165,-0.0371 0.307,-0.0562 0.427,-0.0562 0.297,0 0.532,0.0441 0.703,0.1332 0.171,0.0879 0.324,0.2418 0.461,0.4609 0.136,0.218 0.293,0.5399 0.471,0.9629" /><path
       inkscape:connector-curvature="0"
       id="path36"
       style="fill:#723405;fill-opacity:1;fill-rule:nonzero;stroke:none;stroke-width:0.1"
       d="m 414.235,34.4711 h 0.618 V 35.25 c 0,0.8141 0.1,1.4559 0.308,1.9379 0.203,0.4769 0.554,0.8262 1.046,1.0441 0.49,0.216 1.163,0.327 2.017,0.327 1.519,0 2.273,-0.368 2.273,-1.116 0,-0.2379 -0.08,-0.443 -0.241,-0.6149 -0.155,-0.1679 -0.343,-0.2562 -0.558,-0.2562 -0.1,0 -0.278,0.0199 -0.527,0.0601 -0.238,0.0328 -0.453,0.0559 -0.624,0.0559 -0.466,0 -0.766,-0.141 -0.905,-0.4149 -0.127,-0.2761 -0.195,-0.6691 -0.195,-1.1851 v -0.6168 h 0.634 c 0.989,0 1.48,-0.2973 1.48,-0.8961 0,-0.4191 -0.127,-0.6898 -0.392,-0.8039 C 418.907,32.6559 418.545,32.6 418.081,32.6 h -0.634 v -6.8711 c 0,-0.5109 -0.12,-0.9008 -0.369,-1.168 -0.241,-0.273 -0.555,-0.407 -0.943,-0.407 -0.366,0 -0.671,0.134 -0.918,0.407 -0.244,0.2672 -0.364,0.6571 -0.364,1.168 V 32.6 h -0.714 c -0.388,0 -0.682,0.084 -0.893,0.2609 -0.209,0.1719 -0.315,0.4012 -0.315,0.6782 0,0.6238 0.435,0.932 1.304,0.932" /><path
       inkscape:connector-curvature="0"
       id="path38"
       style="fill:#723405;fill-opacity:1;fill-rule:nonzero;stroke:none;stroke-width:0.1"
       d="m 422.724,27.8969 v -2.168 c 0,-0.5238 -0.133,-0.918 -0.374,-1.1801 -0.246,-0.266 -0.559,-0.3949 -0.937,-0.3949 -0.381,0 -0.688,0.1313 -0.927,0.4012 -0.237,0.2629 -0.36,0.6551 -0.36,1.1738 v 7.2223 c 0,1.166 0.419,1.75 1.26,1.75 0.434,0 0.743,-0.1352 0.934,-0.4102 0.189,-0.2719 0.295,-0.6719 0.317,-1.207 0.308,0.5351 0.624,0.9351 0.948,1.207 0.332,0.275 0.763,0.4102 1.311,0.4102 0.548,0 1.071,-0.1352 1.584,-0.4102 0.516,-0.2719 0.771,-0.6351 0.771,-1.084 0,-0.314 -0.11,-0.58 -0.326,-0.7812 -0.219,-0.209 -0.454,-0.3117 -0.706,-0.3117 -0.099,0 -0.331,0.064 -0.692,0.1789 -0.365,0.1148 -0.688,0.1738 -0.963,0.1738 -0.38,0 -0.692,-0.1027 -0.932,-0.2988 -0.242,-0.2032 -0.43,-0.4961 -0.564,-0.8852 -0.129,-0.3949 -0.219,-0.8668 -0.273,-1.4039 -0.048,-0.5437 -0.071,-1.2031 -0.071,-1.982" /><path
       inkscape:connector-curvature="0"
       id="path40"
       style="fill:#723405;fill-opacity:1;fill-rule:nonzero;stroke:none;stroke-width:0.1"
       d="m 431.921,28.7891 h -2.351 c 0.01,-0.5891 0.124,-1.109 0.355,-1.5582 0.236,-0.4457 0.541,-0.7868 0.926,-1.0168 0.328,-0.1942 0.682,-0.3051 1.07,-0.3332 V 24.159 c -1.539,0.05 -2.74,0.5211 -3.612,1.4172 -0.924,0.9519 -1.39,2.2418 -1.39,3.8679 0,0.7668 0.116,1.4789 0.346,2.1348 0.225,0.6582 0.558,1.216 0.999,1.6891 0.436,0.4699 0.969,0.8281 1.613,1.0781 0.614,0.2391 1.295,0.3641 2.044,0.373 v -1.8089 h -0.002 c -0.647,0 -1.178,-0.2192 -1.593,-0.6692 -0.414,-0.4461 -0.667,-1.1039 -0.756,-1.9769 v 0 h 2.351 z m 0,-2.9082 c 0.065,-0.0039 0.131,-0.0059 0.198,-0.0059 0.31,0 0.593,0.032 0.849,0.1109 0.254,0.0692 0.505,0.186 0.746,0.3403 0.243,0.1527 0.461,0.3187 0.664,0.5 0.203,0.1758 0.466,0.416 0.791,0.7187 0.133,0.1129 0.324,0.1742 0.567,0.1742 0.269,0 0.482,-0.0742 0.649,-0.2211 0.166,-0.148 0.244,-0.3511 0.244,-0.6171 0,-0.236 -0.089,-0.509 -0.269,-0.82 -0.186,-0.3179 -0.463,-0.6168 -0.836,-0.907 -0.373,-0.2848 -0.838,-0.5269 -1.396,-0.7129 -0.561,-0.191 -1.206,-0.2871 -1.933,-0.2871 -0.092,0 -0.183,0.002 -0.274,0.0051 z m 2.724,2.9082 h -2.724 v 1.475 h 2.35 c -0.061,0.8847 -0.297,1.55 -0.713,1.9859 -0.417,0.4418 -0.957,0.659 -1.637,0.6602 v 1.8089 h 0.084 c 1.01,0 1.88,-0.2132 2.605,-0.6461 0.725,-0.423 1.276,-0.9761 1.63,-1.6539 0.361,-0.6812 0.542,-1.3683 0.542,-2.073 0,-0.65 -0.189,-1.0711 -0.562,-1.266 -0.373,-0.193 -0.897,-0.291 -1.575,-0.291 v 0" /><path
       inkscape:connector-curvature="0"
       id="path42"
       style="fill:#723405;fill-opacity:1;fill-rule:nonzero;stroke:none;stroke-width:0.1"
       d="m 442.71,28.7891 h -2.351 c 0.006,-0.5891 0.125,-1.109 0.355,-1.5582 0.231,-0.4457 0.539,-0.7868 0.92,-1.0168 0.328,-0.195 0.686,-0.3051 1.076,-0.3332 v -1.7231 c -1.538,0.0492 -2.741,0.5211 -3.619,1.4184 -0.923,0.9519 -1.388,2.2418 -1.388,3.8679 0,0.7668 0.116,1.4789 0.347,2.1348 0.227,0.6582 0.559,1.216 0.998,1.6891 0.433,0.4699 0.971,0.8281 1.613,1.0781 0.615,0.2398 1.301,0.3648 2.049,0.373 v -1.8089 h -0.007 c -0.646,0 -1.176,-0.2192 -1.593,-0.6692 -0.413,-0.4461 -0.667,-1.1039 -0.751,-1.9769 v 0 h 2.351 z m 0,-2.9082 c 0.064,-0.0039 0.13,-0.0059 0.197,-0.0059 0.307,0 0.592,0.032 0.844,0.1109 0.258,0.0692 0.505,0.186 0.75,0.3403 0.242,0.1527 0.46,0.3187 0.664,0.5 0.199,0.1758 0.464,0.416 0.788,0.7187 0.136,0.1129 0.326,0.1742 0.568,0.1742 0.269,0 0.484,-0.0742 0.65,-0.2211 0.166,-0.148 0.241,-0.3511 0.241,-0.6171 0,-0.236 -0.087,-0.509 -0.274,-0.82 -0.176,-0.3179 -0.455,-0.6168 -0.83,-0.907 -0.37,-0.2848 -0.84,-0.5269 -1.395,-0.7129 -0.559,-0.191 -1.207,-0.2871 -1.935,-0.2871 -0.09,0 -0.18,0.002 -0.268,0.0039 z m 2.722,2.9082 h -2.722 v 1.475 h 2.35 c -0.063,0.8847 -0.303,1.55 -0.715,1.9859 -0.419,0.441 -0.958,0.6578 -1.635,0.6602 v 1.8089 h 0.08 c 1.008,0 1.879,-0.2132 2.613,-0.6461 0.72,-0.423 1.266,-0.9761 1.62,-1.6539 0.36,-0.6812 0.546,-1.3683 0.546,-2.073 0,-0.65 -0.191,-1.0711 -0.562,-1.266 -0.375,-0.193 -0.9,-0.291 -1.575,-0.291 v 0" /><path
       inkscape:connector-curvature="0"
       id="path44"
       style="fill:#723405;fill-opacity:1;fill-rule:nonzero;stroke:none;stroke-width:0.1"
       d="m 451.111,33.2422 v -0.3113 c 0.487,0.6 0.995,1.0421 1.525,1.325 0.329,0.18 0.689,0.3031 1.079,0.3679 v -1.8636 c -0.685,-0.018 -1.267,-0.3012 -1.741,-0.8422 -0.493,-0.5668 -0.739,-1.3961 -0.739,-2.4942 0,-1.0258 0.244,-1.832 0.735,-2.4058 0.473,-0.5551 1.049,-0.8399 1.745,-0.8578 v -1.9551 c -0.441,0.066 -0.828,0.198 -1.162,0.3969 -0.503,0.2921 -0.982,0.7332 -1.442,1.305 v -3.8922 c 0,-1.1359 -0.416,-1.7097 -1.243,-1.7097 -0.49,0 -0.808,0.1461 -0.972,0.4379 -0.151,0.3 -0.233,0.7261 -0.233,1.2922 v 11.1937 c 0,0.4961 0.106,0.859 0.319,1.107 0.216,0.2403 0.513,0.3653 0.886,0.3653 0.369,0 0.666,-0.125 0.895,-0.375 0.236,-0.2543 0.348,-0.6102 0.348,-1.084 z m 2.604,1.3816 c 0.225,0.0383 0.461,0.0582 0.704,0.0582 0.795,0 1.535,-0.207 2.207,-0.6172 0.672,-0.4148 1.198,-1.016 1.588,-1.807 0.39,-0.7949 0.586,-1.7297 0.586,-2.8137 0,-0.7953 -0.112,-1.53 -0.336,-2.2011 -0.223,-0.6668 -0.537,-1.2262 -0.928,-1.6782 -0.394,-0.4519 -0.856,-0.8027 -1.39,-1.0468 -0.542,-0.241 -1.111,-0.3641 -1.727,-0.3641 -0.247,0 -0.482,0.018 -0.704,0.0512 v 1.9551 l 0.068,-0.0012 c 0.429,0 0.831,0.125 1.196,0.3719 0.372,0.2543 0.666,0.6269 0.885,1.1269 0.221,0.5024 0.332,1.1082 0.332,1.8172 v 0 c 0,0.682 -0.107,1.2719 -0.315,1.7609 -0.208,0.493 -0.499,0.868 -0.866,1.1282 -0.368,0.2629 -0.783,0.3968 -1.232,0.3968 l -0.068,-7e-4 v 1.8636" /><path
       inkscape:connector-curvature="0"
       id="path46"
       style="fill:#723405;fill-opacity:1;fill-rule:nonzero;stroke:none;stroke-width:0.1"
       d="m 462.695,33.2289 v 0 -7.5019 c 0,-0.5161 -0.123,-0.909 -0.369,-1.1719 -0.25,-0.2699 -0.561,-0.4012 -0.94,-0.4012 -0.382,0 -0.686,0.1332 -0.929,0.407 -0.234,0.2762 -0.356,0.6661 -0.356,1.1661 v 7.4269 c 0,0.5102 0.122,0.8949 0.356,1.1551 0.243,0.264 0.547,0.3922 0.929,0.3922 0.379,0 0.69,-0.1282 0.94,-0.3922 0.246,-0.2602 0.369,-0.6211 0.369,-1.0801 z m -1.283,2.6789 c -0.363,0 -0.668,0.1141 -0.923,0.3344 -0.26,0.2226 -0.388,0.5316 -0.388,0.9379 0,0.3668 0.13,0.6699 0.397,0.909 0.262,0.2339 0.565,0.355 0.914,0.355 0.34,0 0.636,-0.1062 0.893,-0.3191 0.26,-0.2191 0.39,-0.534 0.39,-0.9449 0,-0.4012 -0.127,-0.711 -0.378,-0.9371 -0.254,-0.2211 -0.554,-0.3352 -0.905,-0.3352 v 0" /><path
       inkscape:connector-curvature="0"
       id="path48"
       style="fill:#723405;fill-opacity:1;fill-rule:nonzero;stroke:none;stroke-width:0.1"
       d="m 471.056,25.3379 -2.284,3.766 -1.408,-1.3289 v -2.0648 c 0,-0.4993 -0.134,-0.8821 -0.398,-1.1493 -0.256,-0.273 -0.565,-0.407 -0.905,-0.407 -0.4,0 -0.716,0.1313 -0.942,0.4012 -0.225,0.2629 -0.343,0.6558 -0.343,1.1738 v 11.0633 c 0,0.5726 0.115,1.0109 0.331,1.3137 0.222,0.3043 0.545,0.4531 0.954,0.4531 0.399,0 0.712,-0.1371 0.948,-0.4121 0.234,-0.2699 0.355,-0.6739 0.355,-1.202 v -6.2937 l 2.916,3.0629 c 0.362,0.3757 0.631,0.641 0.826,0.7781 0.19,0.1387 0.42,0.209 0.689,0.209 0.326,0 0.595,-0.1032 0.817,-0.3094 0.211,-0.2059 0.32,-0.466 0.32,-0.7727 0,-0.38 -0.355,-0.8882 -1.055,-1.5222 l -1.378,-1.2629 2.659,-4.1828 c 0.195,-0.3133 0.339,-0.5442 0.424,-0.7063 0.084,-0.1578 0.13,-0.3187 0.13,-0.4621 0,-0.4129 -0.113,-0.734 -0.34,-0.975 -0.225,-0.2359 -0.523,-0.3539 -0.885,-0.3539 -0.318,0 -0.565,0.082 -0.735,0.2563 -0.17,0.1738 -0.407,0.4839 -0.696,0.9277" /><path
       inkscape:connector-curvature="0"
       id="path50"
       style="fill:#723405;fill-opacity:1;fill-rule:nonzero;stroke:none;stroke-width:0.1"
       d="m 476.69,24.1539 c -0.391,0 -0.727,0.127 -1.013,0.3813 -0.284,0.25 -0.428,0.6058 -0.428,1.0648 0,0.3859 0.137,0.718 0.41,0.9961 0.274,0.2789 0.607,0.418 1.008,0.418 0.396,0 0.735,-0.1391 1.021,-0.4121 0.28,-0.2758 0.423,-0.6122 0.423,-1.002 0,-0.452 -0.143,-0.807 -0.423,-1.0602 -0.286,-0.2589 -0.618,-0.3859 -0.998,-0.3859" /><path
       inkscape:connector-curvature="0"
       id="path52"
       style="fill:#723405;fill-opacity:1;fill-rule:nonzero;stroke:none;stroke-width:0.1"
       d="m 489.589,27.3641 c 0,-0.32 -0.096,-0.6672 -0.291,-1.034 -0.191,-0.3699 -0.487,-0.7172 -0.886,-1.0492 -0.393,-0.3329 -0.891,-0.602 -1.495,-0.8039 -0.6,-0.202 -1.279,-0.3071 -2.029,-0.3071 -1.608,0 -2.859,0.4699 -3.759,1.4012 -0.895,0.9367 -1.346,2.1891 -1.346,3.7609 0,1.0668 0.204,2.0059 0.62,2.8239 0.408,0.814 1.003,1.448 1.782,1.8929 0.779,0.4481 1.715,0.6723 2.794,0.6723 0.672,0 1.288,-0.1 1.851,-0.2973 0.562,-0.1949 1.032,-0.4508 1.425,-0.759 0.388,-0.3128 0.686,-0.6429 0.891,-0.991 0.207,-0.3519 0.306,-0.6816 0.306,-0.9879 0,-0.307 -0.113,-0.5718 -0.342,-0.7871 -0.236,-0.2148 -0.515,-0.325 -0.839,-0.325 -0.218,0 -0.398,0.0571 -0.54,0.166 -0.145,0.1133 -0.304,0.2903 -0.48,0.543 -0.316,0.4774 -0.646,0.8422 -0.996,1.0781 -0.343,0.245 -0.779,0.3641 -1.313,0.3641 -0.761,0 -1.383,-0.2992 -1.853,-0.8988 -0.469,-0.5953 -0.703,-1.4203 -0.703,-2.4543 0,-0.4867 0.062,-0.9391 0.182,-1.3481 0.118,-0.4066 0.292,-0.7539 0.521,-1.0429 0.23,-0.2879 0.503,-0.5047 0.825,-0.6547 0.324,-0.1532 0.682,-0.2242 1.065,-0.2242 0.52,0 0.965,0.1191 1.336,0.3589 0.376,0.2411 0.704,0.6071 0.987,1.1032 0.158,0.2918 0.326,0.5168 0.509,0.6839 0.182,0.1622 0.409,0.2481 0.674,0.2481 0.318,0 0.581,-0.1231 0.788,-0.3621 0.21,-0.2399 0.316,-0.4988 0.316,-0.7699" /><path
       inkscape:connector-curvature="0"
       id="path54"
       style="fill:#723405;fill-opacity:1;fill-rule:nonzero;stroke:none;stroke-width:0.1"
       d="m 495.616,24.152 h -0.012 c -0.785,0 -1.493,0.1269 -2.121,0.3832 -0.623,0.25 -1.17,0.6148 -1.626,1.082 -0.46,0.4769 -0.809,1.034 -1.051,1.6769 -0.231,0.6438 -0.352,1.3547 -0.352,2.1317 0,0.7851 0.124,1.5062 0.359,2.1574 0.243,0.6539 0.589,1.2117 1.04,1.6727 0.45,0.4621 0.992,0.816 1.63,1.0703 0.643,0.25 1.349,0.375 2.121,0.375 h 0.012 v -1.9184 h -0.012 c -0.508,0 -0.955,-0.134 -1.343,-0.3937 -0.387,-0.2621 -0.68,-0.6512 -0.89,-1.1653 -0.209,-0.5136 -0.314,-1.1136 -0.314,-1.798 0,-0.6797 0.101,-1.268 0.308,-1.7746 0.208,-0.5102 0.503,-0.8973 0.887,-1.1653 0.385,-0.2668 0.834,-0.405 1.352,-0.405 h 0.012 z m 5.165,5.2738 c 0,-0.7719 -0.124,-1.4848 -0.357,-2.1387 -0.247,-0.6519 -0.592,-1.2152 -1.05,-1.6801 -0.455,-0.4679 -1.002,-0.8281 -1.631,-1.08 -0.636,-0.2461 -1.342,-0.3731 -2.127,-0.375 v 1.9289 c 0.78,0.0031 1.403,0.2992 1.863,0.8921 0.463,0.5911 0.697,1.4122 0.697,2.4528 v 0 c 0,1.0582 -0.234,1.8812 -0.697,2.4691 -0.46,0.591 -1.083,0.884 -1.863,0.8879 v 1.9184 c 0.78,-0.0024 1.49,-0.1274 2.127,-0.3832 0.637,-0.25 1.182,-0.6129 1.643,-1.0801 0.459,-0.4719 0.803,-1.027 1.041,-1.6711 0.232,-0.6508 0.354,-1.3598 0.354,-2.141" /><path
       inkscape:connector-curvature="0"
       id="path56"
       style="fill:#723405;fill-opacity:1;fill-rule:nonzero;stroke:none;stroke-width:0.1"
       d="m 510.673,29.234 v -3.4449 c 0,-0.5469 -0.121,-0.952 -0.37,-1.2282 -0.25,-0.273 -0.572,-0.4089 -0.979,-0.4089 -0.391,0 -0.714,0.1359 -0.951,0.4089 -0.247,0.2762 -0.372,0.6813 -0.372,1.2282 v 4.1308 c 0,0.652 -0.02,1.161 -0.063,1.5231 -0.045,0.3539 -0.167,0.657 -0.363,0.8832 -0.196,0.2367 -0.508,0.3519 -0.929,0.3519 -0.852,0 -1.409,-0.289 -1.676,-0.8812 -0.27,-0.5758 -0.407,-1.4117 -0.407,-2.5071 v -3.5007 c 0,-0.5391 -0.124,-0.9473 -0.363,-1.2243 -0.248,-0.2738 -0.566,-0.4128 -0.964,-0.4128 -0.395,0 -0.716,0.139 -0.966,0.4128 -0.252,0.277 -0.376,0.6852 -0.376,1.2243 v 7.4179 c 0,0.4891 0.11,0.861 0.335,1.111 0.229,0.2582 0.525,0.3832 0.889,0.3832 0.357,0 0.652,-0.1231 0.892,-0.3551 0.235,-0.2391 0.354,-0.5672 0.354,-0.9859 v -0.2454 c 0.453,0.5352 0.935,0.9321 1.445,1.1821 0.515,0.259 1.082,0.3851 1.712,0.3851 0.651,0 1.211,-0.1312 1.677,-0.389 0.47,-0.2621 0.855,-0.6559 1.161,-1.1782 0.441,0.5293 0.91,0.9231 1.411,1.1821 0.5,0.2562 1.051,0.3851 1.662,0.3851 0.706,0 1.321,-0.1429 1.834,-0.4179 0.51,-0.2801 0.891,-0.6801 1.146,-1.1961 0.222,-0.4731 0.331,-1.211 0.331,-2.2168 v -5.0621 c 0,-0.5469 -0.123,-0.952 -0.368,-1.2282 -0.246,-0.273 -0.574,-0.4089 -0.979,-0.4089 -0.395,0 -0.713,0.139 -0.964,0.4128 -0.25,0.277 -0.376,0.6852 -0.376,1.2243 V 30.15 c 0,0.5582 -0.025,1.002 -0.071,1.3379 -0.046,0.3359 -0.175,0.6191 -0.381,0.8461 -0.212,0.2289 -0.532,0.3441 -0.953,0.3441 -0.341,0 -0.668,-0.1062 -0.974,-0.307 -0.308,-0.1992 -0.548,-0.4762 -0.721,-0.8121 -0.185,-0.4399 -0.283,-1.2129 -0.283,-2.325" /><path
       inkscape:connector-curvature="0"
       id="path58"
       style="fill:#723405;fill-opacity:1;fill-rule:nonzero;stroke:none;stroke-width:0.1"
       d="m 389.967,30.0531 c -0.002,0.0059 -0.002,0.0098 -0.002,0.0168 0,-0.007 0,-0.0109 0.002,-0.0168" /><path
       inkscape:connector-curvature="0"
       id="path60"
       style="fill:#723405;fill-opacity:1;fill-rule:nonzero;stroke:none;stroke-width:0.1"
       d="m 390.099,29.225 h 0.002 c -0.05,0.2352 -0.088,0.4691 -0.12,0.7008 0.032,-0.2328 0.07,-0.4688 0.118,-0.7008" /><path
       inkscape:connector-curvature="0"
       id="path62"
       style="fill:#723405;fill-opacity:1;fill-rule:nonzero;stroke:none;stroke-width:0.1"
       d="m 390.956,26.8168 c -0.006,0.0102 -0.011,0.0211 -0.017,0.0344 0.006,-0.0133 0.011,-0.0242 0.017,-0.0344" /><path
       inkscape:connector-curvature="0"
       id="path64"
       style="fill:#723405;fill-opacity:1;fill-rule:nonzero;stroke:none;stroke-width:0.1"
       d="m 390.874,26.9781 c -0.021,0.0438 -0.043,0.0887 -0.064,0.1328 0.021,-0.0461 0.043,-0.089 0.064,-0.1328" /><path
       inkscape:connector-curvature="0"
       id="path66"
       style="fill:#723405;fill-opacity:1;fill-rule:nonzero;stroke:none;stroke-width:0.1"
       d="m 390.339,28.2969 c 0.127,-0.4 0.28,-0.7879 0.457,-1.1578 -0.18,0.3789 -0.33,0.7668 -0.454,1.1578 h -0.003" /><path
       inkscape:connector-curvature="0"
       id="path68"
       style="fill:#723405;fill-opacity:1;fill-rule:nonzero;stroke:none;stroke-width:0.1"
       d="m 400.004,39.9891 c 0.503,0 0.872,-0.0403 1.296,-0.1102 l 0.119,0.7621 c 0,0 -1.171,0.361 -2.709,0.234 l -0.122,0.4148 c 0.478,0.1012 0.838,0.5262 0.838,1.034 0,0.5821 -0.475,1.0551 -1.058,1.0551 -0.582,0 -1.055,-0.473 -1.055,-1.0551 0,-0.5078 0.359,-0.9328 0.836,-1.034 l 0.133,-0.4628 c -1.634,-0.2239 -2.934,-0.8622 -2.934,-0.8622 l 0.231,-0.7046 c 0.987,0.3289 1.846,0.5289 2.623,0.6128 0.762,0.0821 1.335,0.1161 1.802,0.1161" /><path
       inkscape:connector-curvature="0"
       id="path70"
       style="fill:#723405;fill-opacity:1;fill-rule:nonzero;stroke:none;stroke-width:0.1"
       d="m 390.937,36.1309 0.005,0.0082 c 0.038,0.05 0.077,0.0968 0.114,0.1418 l -0.313,0.2261 -0.488,0.3559 c -0.027,-0.0367 -0.795,-0.7438 -1.401,-2.0469 -0.025,0.041 -0.056,0.0809 -0.089,0.1199 -0.182,0.1969 -0.436,0.2981 -0.759,0.293 h -0.016 c -0.199,0 -0.337,0.066 -0.427,0.1481 0.09,0.1121 0.145,0.255 0.145,0.4121 0,0.3687 -0.301,0.6699 -0.67,0.6699 -0.369,0 -0.668,-0.3012 -0.668,-0.6699 0,-0.37 0.299,-0.6692 0.668,-0.6692 0.058,0 0.112,0.011 0.167,0.0211 0.165,-0.1828 0.425,-0.3422 0.808,-0.334 0.196,0.002 0.341,-0.0492 0.436,-0.155 0.112,-0.1211 0.15,-0.2961 0.16,-0.427 -10e-4,-0.002 -10e-4,-0.0059 -0.003,-0.0059 -0.435,-1.1902 -0.31,-2.6703 -0.31,-2.6703 l 1.057,-0.0418 c 0.022,0.5391 0.099,1.4821 0.372,2.2309 0.526,1.45 1.185,2.3562 1.212,2.393" /><path
       inkscape:connector-curvature="0"
       id="path72"
       style="fill:#723405;fill-opacity:1;fill-rule:nonzero;stroke:none;stroke-width:0.1"
       d="m 409.203,39.1059 c -0.367,0 -0.669,-0.2989 -0.669,-0.668 0,-0.059 0.01,-0.1141 0.024,-0.166 -0.183,-0.166 -0.342,-0.4278 -0.336,-0.811 0.002,-0.1968 -0.048,-0.3398 -0.156,-0.4371 -0.085,-0.075 -0.19,-0.1136 -0.295,-0.1398 -0.788,1.1019 -1.756,1.775 -1.756,1.775 l -0.758,-0.8129 c 0.573,-0.5223 1.159,-1.175 1.727,-1.9902 0.395,-0.5649 0.799,-1.2899 1.137,-2.0149 l 1.024,0.4871 c 0,0 -0.467,1.1539 -1.126,2.1918 0.115,0.0391 0.23,0.1012 0.332,0.191 0.2,0.1821 0.297,0.4371 0.292,0.7582 -0.002,0.2079 0.067,0.3489 0.149,0.4411 0.113,-0.0872 0.257,-0.1422 0.411,-0.1422 0.371,0 0.671,0.3 0.671,0.6699 0,0.3691 -0.3,0.668 -0.671,0.668" /><path
       inkscape:connector-curvature="0"
       id="path74"
       style="fill:#723405;fill-opacity:1;fill-rule:nonzero;stroke:none;stroke-width:0.1"
       d="m 406.547,29.9039 c -1.409,-0.6871 -3.728,-1.5937 -6.781,-2.0199 -1.199,-0.1649 -2.361,-0.2281 -3.429,-0.2281 -1.391,0 -2.619,0.1043 -3.563,0.223 -1.076,0.1371 -1.917,0.302 -2.431,0.418 0.123,-0.391 0.273,-0.7789 0.454,-1.1578 0.003,-0.0102 0.007,-0.0211 0.013,-0.0282 0.021,-0.0441 0.042,-0.089 0.065,-0.1328 0.021,-0.0441 0.043,-0.0871 0.065,-0.1269 0.005,-0.0114 0.01,-0.0242 0.017,-0.0344 0.302,-0.5699 0.666,-1.0938 1.079,-1.5477 1.442,-1.5761 2.907,-1.8242 2.922,-1.8261 l 0.022,-0.0032 0.023,-0.0078 c 0.013,-0.0039 1.313,-0.4242 3.291,-0.4242 1.945,0 3.854,0.391 5.675,1.166 1.346,0.6891 2.621,1.7364 3.253,2.6703 0.488,0.7219 0.841,1.4938 1.049,2.295 0.112,0.4257 0.2,1.1058 0.148,1.8238 -0.397,-0.266 -1.023,-0.6469 -1.872,-1.059" /><path
       inkscape:connector-curvature="0"
       id="path76"
       style="fill:#723405;fill-opacity:1;fill-rule:nonzero;stroke:none;stroke-width:0.1"
       d="m 391.39,35.7969 c -0.041,-0.059 -0.653,-0.925 -1.136,-2.2528 -0.361,-0.9953 -0.346,-2.4429 -0.346,-2.4601 v -0.0031 c 0,-0.3387 0.019,-0.677 0.057,-1.011 0,-0.007 0,-0.0109 0.002,-0.0168 0.005,-0.0429 0.012,-0.084 0.015,-0.1273 0.03,-0.2317 0.069,-0.4656 0.12,-0.7008 0.475,-0.1211 2.561,-0.6109 5.316,-0.707 v 2.3832 h -0.001 c -1.555,0 -2.815,1.259 -2.815,2.8148 0,1.5559 1.26,2.8168 2.815,2.8168 v 0 h 0.001 v 2.0742 c -1.225,-0.4531 -2.33,-1.1199 -3.216,-1.939 l -0.033,-0.0289 C 392.027,36.507 391.73,36.232 391.39,35.7969 Z m 4.028,-7.2789 c 1.296,-0.045 2.738,-0.0039 4.231,0.2039 1.54,0.2152 2.885,0.5551 4.011,0.9261 v 3.329 h -0.001 c -0.962,0 -1.742,0.7832 -1.742,1.7441 0,0.9629 0.78,1.7437 1.742,1.7437 v 0 h 0.001 v 1.8981 c -0.974,0.6152 -1.835,0.8601 -2.412,0.9531 -0.424,0.0699 -0.763,0.1098 -1.244,0.1098 -0.447,0 -1.002,-0.0348 -1.743,-0.1129 -0.742,-0.0789 -1.572,-0.2738 -2.532,-0.5961 -0.104,-0.0348 -0.208,-0.0719 -0.311,-0.1098 v -2.0742 c 1.557,0 2.816,-1.2609 2.816,-2.8168 0,-1.5551 -1.259,-2.814 -2.816,-2.8148 z m 8.242,1.13 c 1.013,0.334 1.849,0.6911 2.488,1.0008 1.121,0.543 1.842,1.0364 2.12,1.2383 -0.277,1.0277 -1.042,2.6399 -1.743,3.6457 -0.963,1.3781 -1.963,2.2621 -2.865,2.8301 v -1.8981 c 0.961,-7e-4 1.742,-0.7808 1.742,-1.7437 0,-0.9609 -0.781,-1.7441 -1.742,-1.7441 v -3.329" /><path
       inkscape:connector-curvature="0"
       id="path78"
       style="fill:#ffb763;fill-opacity:1;fill-rule:evenodd;stroke:none;stroke-width:0.1"
       d="m 507.341,553.657 c 17.404,28.245 35.332,115.402 6.399,71.418 -28.932,-43.984 -16.033,-5.593 -17.24,24.039 -1.289,31.646 -5.607,83.804 -18.542,44.136 -12.934,-39.668 -14.432,-11.661 -40.621,19.128 -26.907,31.633 -29.805,21.936 -19.494,-7.861 9.262,-26.773 24.403,-54.42 -2.313,-43.434 -26.715,10.987 -52.559,20.032 -20.585,-14.074 31.974,-34.106 64.679,-55.325 34.167,-44.694 -30.511,10.63 -51.709,15.429 -23.849,-9.659 18.288,-16.467 30.634,-27.607 58.371,-41.694 16.119,-8.187 32.73,-15.117 43.707,2.695" /><path
       inkscape:connector-curvature="0"
       id="path80"
       style="fill:#c9781c;fill-opacity:1;fill-rule:nonzero;stroke:none;stroke-width:0.1"
       d="m 498.573,484.075 c -0.286,-9.35 8.234,-2.003 7.836,2.453 -6.133,68.836 -39.651,159.78 -72.375,220.94 -3.054,5.707 -7.973,7.434 -3.209,-1.568 29.121,-55.036 69.653,-159.396 67.748,-221.825" /><path
       inkscape:connector-curvature="0"
       id="path82"
       style="fill:#c9781c;fill-opacity:1;fill-rule:nonzero;stroke:none;stroke-width:0.1"
       d="m 491.278,560.803 c -1.805,-1.902 0.554,-6.756 1.253,-5.735 10.561,15.454 24.494,42.848 28.843,61.192 0.397,1.677 -0.935,3.856 -1.697,1.242 -4.66,-15.984 -16.344,-44.007 -28.399,-56.699" /><path
       inkscape:connector-curvature="0"
       id="path84"
       style="fill:#c9781c;fill-opacity:1;fill-rule:nonzero;stroke:none;stroke-width:0.1"
       d="m 471.55,620.448 c -1.319,-2.199 2.177,-6.417 2.618,-5.289 6.668,17.053 13.771,46.321 13.624,64.918 -0.014,1.7 -1.852,3.538 -1.971,0.859 -0.73,-16.38 -5.467,-45.803 -14.271,-60.488" /><path
       inkscape:connector-curvature="0"
       id="path86"
       style="fill:#c9781c;fill-opacity:1;fill-rule:nonzero;stroke:none;stroke-width:0.1"
       d="m 469.696,620.328 c 2.574,-0.65 3.281,-5.977 2.125,-5.484 -17.457,7.453 -44.375,23.185 -58.205,36.338 -1.264,1.203 -1.352,3.737 0.739,1.937 12.786,-11.003 38.158,-28.446 55.341,-32.791" /><path
       inkscape:connector-curvature="0"
       id="path88"
       style="fill:#c9781c;fill-opacity:1;fill-rule:nonzero;stroke:none;stroke-width:0.1"
       d="m 487.607,561.99 c 2.645,-0.399 3.959,-5.607 2.749,-5.228 -18.29,5.721 -46.976,18.742 -62.295,30.451 -1.401,1.07 -1.778,3.572 0.517,1.988 14.029,-9.679 41.367,-24.541 59.029,-27.211" /><path
       inkscape:connector-curvature="0"
       id="path90"
       style="fill:#e76f32;fill-opacity:1;fill-rule:evenodd;stroke:none;stroke-width:0.1"
       d="m 645.287,160.228 c 11.208,-7.886 19.481,-45.918 20.872,-25.046 1.391,20.872 34.786,-13.915 32.003,-2.783 -2.782,11.131 39.724,2.283 21.896,17.696 -13.725,11.865 -16.329,31.005 8.717,25.438 25.046,-5.565 -4.174,18.09 12.523,23.656 16.698,5.566 -11.132,9.347 1.391,19.087 12.524,9.741 -11.131,3.177 -30.612,-0.998 -19.48,-4.174 -16.697,13.914 -8.348,23.655 8.348,9.74 -15.015,13.309 -9.741,30.612 7.588,24.892 -26.259,-26.855 -26.438,-11.132 -0.256,22.568 -7.195,-13.939 -23.893,-16.722 -16.697,-2.783 -16.931,11.719 -20.109,19.481 -5.512,13.461 -8.112,-9.978 -12.917,-4.519 -7.854,8.925 5.697,-25.913 -9.871,-12.155 -14.181,12.533 5.435,-27.96 -11.132,-19.48 -16.149,8.266 29.222,-29.221 6.958,-26.438 -22.264,2.783 -38.961,0 -16.697,-6.957 22.262,-6.957 36.176,-16.697 23.654,-19.48 -12.523,-2.784 15.307,2.783 8.349,-13.915 -6.957,-16.698 -2.784,-12.523 9.74,-2.783 12.523,9.741 19.185,5.927 23.655,2.783" /><path
       inkscape:connector-curvature="0"
       id="path92"
       style="fill:#723405;fill-opacity:1;fill-rule:nonzero;stroke:none;stroke-width:0.1"
       d="m 626.064,79.5852 c -0.161,-6.9063 -10.039,-1.4293 -9.602,1.8578 6.74,50.791 37.196,117.74 61.576,162.698 2.275,4.194 3.767,1.029 0.214,-5.59 -21.72,-40.459 -51.108,-112.857 -52.188,-158.9658" /><path
       inkscape:connector-curvature="0"
       id="path94"
       style="fill:#723405;fill-opacity:1;fill-rule:nonzero;stroke:none;stroke-width:0.1"
       d="m 645.714,172.438 c 1.714,-2.581 -3.324,-7.391 -4.008,-6.071 -10.56,20.408 -18.452,57.612 -21.028,80.403 -0.24,2.126 2.466,-0.704 2.858,-4.05 2.399,-20.454 10.738,-53.049 22.178,-70.282" /><path
       inkscape:connector-curvature="0"
       id="path96"
       style="fill:#723405;fill-opacity:1;fill-rule:nonzero;stroke:none;stroke-width:0.1"
       d="m 646.589,167.807 c -2.406,-1.952 -7.674,2.605 -6.425,3.412 19.31,12.455 57.421,21.569 79.863,26.305 2.093,0.441 -0.465,-2.522 -3.758,-3.231 -20.133,-4.338 -53.616,-13.457 -69.68,-26.486" /><path
       inkscape:connector-curvature="0"
       id="path98"
       style="fill:#723405;fill-opacity:1;fill-rule:nonzero;stroke:none;stroke-width:0.1"
       d="m 627.977,206.001 c 0.784,-0.916 2.159,2.146 -0.069,3.745 -6.522,6.124 -17.694,11.59 -25.958,14.977 -0.77,0.316 -0.359,-1.841 0.853,-2.343 7.407,-3.072 19.934,-10.263 25.174,-16.379" /><path
       inkscape:connector-curvature="0"
       id="path100"
       style="fill:#723405;fill-opacity:1;fill-rule:nonzero;stroke:none;stroke-width:0.1"
       d="m 625.099,220.646 c 0.612,-0.715 1.684,1.673 -0.053,2.921 -5.089,4.78 -13.807,9.044 -20.254,11.687 -0.602,0.246 -0.28,-1.437 0.665,-1.828 5.779,-2.398 15.554,-8.008 19.642,-12.78" /><path
       inkscape:connector-curvature="0"
       id="path102"
       style="fill:#723405;fill-opacity:1;fill-rule:nonzero;stroke:none;stroke-width:0.1"
       d="m 632.987,198.353 c -0.531,-1.082 -2.624,1.541 -0.864,3.644 4.795,7.554 14.257,15.626 21.419,20.961 0.668,0.497 0.805,-1.694 -0.243,-2.481 -6.411,-4.818 -16.757,-14.897 -20.312,-22.124" /><path
       inkscape:connector-curvature="0"
       id="path104"
       style="fill:#723405;fill-opacity:1;fill-rule:nonzero;stroke:none;stroke-width:0.1"
       d="m 628.699,211.14 c -0.415,-0.845 -2.048,1.202 -0.675,2.843 3.742,5.894 11.124,12.192 16.712,16.355 0.522,0.389 0.629,-1.321 -0.189,-1.936 -5.002,-3.759 -13.074,-11.623 -15.848,-17.262" /><path
       inkscape:connector-curvature="0"
       id="path106"
       style="fill:#723405;fill-opacity:1;fill-rule:nonzero;stroke:none;stroke-width:0.1"
       d="m 634.052,185.397 c 0.785,-0.916 2.159,2.144 -0.069,3.744 -6.521,6.125 -17.693,11.591 -25.957,14.977 -0.77,0.316 -0.359,-1.841 0.853,-2.344 7.407,-3.072 19.934,-10.261 25.173,-16.377" /><path
       inkscape:connector-curvature="0"
       id="path108"
       style="fill:#723405;fill-opacity:1;fill-rule:nonzero;stroke:none;stroke-width:0.1"
       d="m 625.079,228.237 c -0.262,-0.53 -1.288,0.757 -0.425,1.788 2.353,3.707 6.994,7.666 10.508,10.284 0.327,0.244 0.396,-0.83 -0.119,-1.217 -3.145,-2.364 -8.221,-7.309 -9.964,-10.855" /><path
       inkscape:connector-curvature="0"
       id="path110"
       style="fill:#723405;fill-opacity:1;fill-rule:nonzero;stroke:none;stroke-width:0.1"
       d="m 659.44,200.095 c -0.931,-0.766 -1.752,2.487 0.718,3.677 7.488,4.898 19.439,8.34 28.164,10.241 0.815,0.177 0.034,-1.875 -1.246,-2.16 -7.828,-1.74 -21.413,-6.644 -27.636,-11.758" /><path
       inkscape:connector-curvature="0"
       id="path112"
       style="fill:#723405;fill-opacity:1;fill-rule:nonzero;stroke:none;stroke-width:0.1"
       d="m 661.26,211.348 c 0.067,-1.016 2.543,0.359 1.845,2.565 -1.314,7.435 -6.104,16.773 -9.977,23.237 -0.362,0.603 -1.174,-1.062 -0.608,-2.014 3.454,-5.819 8.289,-17.007 8.74,-23.788" /><path
       inkscape:connector-curvature="0"
       id="path114"
       style="fill:#723405;fill-opacity:1;fill-rule:nonzero;stroke:none;stroke-width:0.1"
       d="m 668.554,220.155 c -0.797,-0.655 -1.5,2.127 0.613,3.144 6.402,4.188 16.622,7.132 24.083,8.757 0.696,0.152 0.029,-1.604 -1.065,-1.847 -6.694,-1.486 -18.311,-5.682 -23.631,-10.054" /><path
       inkscape:connector-curvature="0"
       id="path116"
       style="fill:#723405;fill-opacity:1;fill-rule:nonzero;stroke:none;stroke-width:0.1"
       d="m 671.681,230.038 c 0.053,-0.819 2.049,0.289 1.487,2.068 -1.06,5.994 -4.921,13.522 -8.044,18.733 -0.292,0.486 -0.945,-0.857 -0.49,-1.624 2.784,-4.691 6.681,-13.71 7.047,-19.177" /><path
       inkscape:connector-curvature="0"
       id="path118"
       style="fill:#723405;fill-opacity:1;fill-rule:nonzero;stroke:none;stroke-width:0.1"
       d="m 660.446,179.845 c -1.028,-0.631 1.779,-2.47 3.709,-0.523 7.075,5.477 14.233,15.647 18.879,23.274 0.434,0.712 -1.761,0.645 -2.448,-0.472 -4.201,-6.831 -13.274,-18.069 -20.14,-22.279" /><path
       inkscape:connector-curvature="0"
       id="path120"
       style="fill:#723405;fill-opacity:1;fill-rule:nonzero;stroke:none;stroke-width:0.1"
       d="m 654.132,174.637 c -1.198,0.143 0.585,2.986 3.152,2.021 8.715,-2.026 19.463,-8.284 26.866,-13.278 0.691,-0.466 -1.332,-1.32 -2.421,-0.591 -6.667,4.455 -19.602,10.885 -27.597,11.848" /><path
       inkscape:connector-curvature="0"
       id="path122"
       style="fill:#723405;fill-opacity:1;fill-rule:nonzero;stroke:none;stroke-width:0.1"
       d="m 678.375,183.699 c -1.011,0.122 0.495,2.522 2.662,1.708 7.358,-1.711 16.431,-6.995 22.682,-11.211 0.583,-0.392 -1.124,-1.114 -2.045,-0.499 -5.629,3.762 -16.548,9.19 -23.299,10.002" /><path
       inkscape:connector-curvature="0"
       id="path124"
       style="fill:#723405;fill-opacity:1;fill-rule:nonzero;stroke:none;stroke-width:0.1"
       d="m 697.857,190.424 c -0.803,0.097 0.394,2.005 2.118,1.357 5.849,-1.36 13.063,-5.56 18.033,-8.913 0.464,-0.312 -0.894,-0.886 -1.625,-0.397 -4.476,2.991 -13.158,7.306 -18.526,7.953" /><path
       inkscape:connector-curvature="0"
       id="path126"
       style="fill:#723405;fill-opacity:1;fill-rule:nonzero;stroke:none;stroke-width:0.1"
       d="m 688.695,190.136 c -0.825,-0.506 1.427,-1.982 2.977,-0.419 5.677,4.394 11.42,12.556 15.148,18.675 0.348,0.571 -1.413,0.517 -1.965,-0.379 -3.37,-5.482 -10.651,-14.498 -16.16,-17.877" /><path
       inkscape:connector-curvature="0"
       id="path128"
       style="fill:#d1b963;fill-opacity:1;fill-rule:evenodd;stroke:none;stroke-width:0.1"
       d="m 655.394,721.506 c 21.496,0.978 37.4,-26.399 29.616,-52.049 -7.933,-26.139 2.589,-22.422 17.21,-0.805 12.56,18.571 42.396,15.536 52.504,0.858 11.932,-17.331 3.471,-54.942 -30.315,-59.354 -20.572,-2.685 -18.701,-10.285 1.049,-9.906 26.995,0.517 21.922,-28.627 14.502,-37.353 -12.867,-15.129 -37.688,-15.396 -57.886,2.426 -20.197,17.822 -23.343,18.922 -36.412,1.101 -13.068,-17.822 -50.651,-28.164 -60.068,-12.492 -8.698,14.473 5.94,38.019 27.326,40.395 21.386,2.376 2.376,8.317 -14.258,8.317 -16.633,0 -50.686,20.774 -36.83,49.29 12.106,24.915 42.143,21.697 57.028,5.363 14.729,-16.162 15.115,-2.673 3.844,20.197 -6.619,13.432 1.832,42.611 32.69,44.012" /><path
       inkscape:connector-curvature="0"
       id="path130"
       style="fill:#a08443;fill-opacity:1;fill-rule:nonzero;stroke:none;stroke-width:0.1"
       d="m 637.694,486.967 c -3.014,-7.565 10.226,-6.187 11.271,-2.42 16.146,58.186 14.04,144.846 8.367,204.853 -0.529,5.599 -3.609,2.856 -2.813,-5.961 4.866,-53.902 3.299,-145.977 -16.825,-196.472" /><path
       inkscape:connector-curvature="0"
       id="path132"
       style="fill:#a08443;fill-opacity:1;fill-rule:nonzero;stroke:none;stroke-width:0.1"
       d="m 661.761,607.374 c -2.216,-2.798 -4.585,6.108 -3.382,7.327 18.587,18.851 50.059,34.513 74.107,45.469 2.243,1.022 3.797,-1.847 0.273,-3.471 -21.551,-9.927 -56.203,-30.642 -70.998,-49.325" /><path
       inkscape:connector-curvature="0"
       id="path134"
       style="fill:#a08443;fill-opacity:1;fill-rule:nonzero;stroke:none;stroke-width:0.1"
       d="m 657.877,605.623 c 2.569,-2.477 3.728,6.664 2.373,7.712 -20.937,16.201 -47.351,25.323 -72.646,32.97 -2.359,0.713 -3.516,-2.337 0.195,-3.476 22.681,-6.963 52.921,-20.667 70.078,-37.206" /><path
       inkscape:connector-curvature="0"
       id="path136"
       style="fill:#a08443;fill-opacity:1;fill-rule:nonzero;stroke:none;stroke-width:0.1"
       d="m 656.186,612.726 c 1.698,2.536 4.323,-4.893 3.38,-6.015 -14.559,-17.332 -34.977,-29.742 -54.727,-40.716 -1.843,-1.023 -3.362,1.316 -0.469,2.94 17.693,9.928 40.477,26.861 51.816,43.791" /><path
       inkscape:connector-curvature="0"
       id="path138"
       style="fill:#a08443;fill-opacity:1;fill-rule:nonzero;stroke:none;stroke-width:0.1"
       d="m 660.365,613.736 c -1.91,2.381 -3.888,-5.245 -2.853,-6.282 15.99,-16.02 37.398,-26.635 58.016,-35.875 1.924,-0.862 3.237,1.599 0.214,2.969 -18.477,8.376 -42.629,23.293 -55.377,39.188" /><path
       inkscape:connector-curvature="0"
       id="path140"
       style="fill:#c08946;fill-opacity:1;fill-rule:evenodd;stroke:none;stroke-width:0.1"
       d="m 570.294,496.865 c -24.698,-12.375 -41.402,-55.479 -39.128,-73.968 7.124,-57.927 49.206,-59.789 33.984,-118.274 77.277,68.057 61.597,159.703 5.144,192.242" /><path
       inkscape:connector-curvature="0"
       id="path142"
       style="fill:#754913;fill-opacity:1;fill-rule:evenodd;stroke:none;stroke-width:0.1"
       d="m 556.53,280.975 c 2.747,3.666 21.642,47.037 23.999,53.716 13.13,37.203 17.226,115.588 -10.396,160.042 22.292,-44.473 29.882,-141.403 -18.774,-211.139 -5.518,-7.909 0.366,-11.824 5.171,-2.619" /><path
       inkscape:connector-curvature="0"
       id="path144"
       style="fill:#754913;fill-opacity:1;fill-rule:evenodd;stroke:none;stroke-width:0.1"
       d="m 587.637,377.071 c -4.614,20.953 -31.008,47.517 -51.883,50.782 13.46,-5.598 41.614,-24.819 49.977,-58.131 0.795,-3.17 3.207,4.079 1.906,7.349" /><path
       inkscape:connector-curvature="0"
       id="path146"
       style="fill:#754913;fill-opacity:1;fill-rule:evenodd;stroke:none;stroke-width:0.1"
       d="m 588.515,412.861 c -3.738,16.978 -24.807,36.114 -41.707,38.757 11.109,-4.62 34.343,-20.482 41.246,-47.975 0.656,-2.617 1.535,6.519 0.461,9.218" /><path
       inkscape:connector-curvature="0"
       id="path148"
       style="fill:#754913;fill-opacity:1;fill-rule:evenodd;stroke:none;stroke-width:0.1"
       d="m 585.259,449.853 c -2.695,12.236 -17.045,25.49 -29.226,27.395 8.007,-3.33 24.753,-14.763 29.728,-34.577 0.473,-1.886 0.271,5.235 -0.502,7.182" /><path
       inkscape:connector-curvature="0"
       id="path150"
       style="fill:#754913;fill-opacity:1;fill-rule:evenodd;stroke:none;stroke-width:0.1"
       d="m 589.07,392.631 c 5.38,5.246 16.658,14.078 26.387,9.478 -8.68,0.215 -18.771,-5.216 -26.795,-14.329 -0.757,-0.858 -0.601,4.143 0.408,4.851" /><path
       inkscape:connector-curvature="0"
       id="path152"
       style="fill:#754913;fill-opacity:1;fill-rule:evenodd;stroke:none;stroke-width:0.1"
       d="m 588.762,429.434 c 3.466,6.314 13.206,14.297 22.584,9.601 -8.044,0.389 -16.602,-4.951 -22.561,-14.333 -0.559,-0.881 -0.898,4.061 -0.023,4.732" /><path
       inkscape:connector-curvature="0"
       id="path154"
       style="fill:#754913;fill-opacity:1;fill-rule:evenodd;stroke:none;stroke-width:0.1"
       d="m 582.898,464.304 c 1.564,3.991 8.97,8.336 14.051,5.983 -3.911,-0.543 -11.058,-4.664 -13.184,-11.491 -0.202,-0.644 -1.204,4.947 -0.867,5.508" /><path
       inkscape:connector-curvature="0"
       id="path156"
       style="fill:#e76f32;fill-opacity:1;fill-rule:evenodd;stroke:none;stroke-width:0.1"
       d="m 144.589,150.346 c -19.15,0 -50.1691,0.597 -38.821,8.361 11.347,7.766 -47.7817,28.669 -19.7106,25.086 28.0716,-3.584 -34.0437,20.307 -12.5429,17.32 21.5023,-2.986 -26.8758,22.098 -13.7364,18.515 13.1399,-3.583 -11.3484,9.556 -5.375,14.335 5.9731,4.777 16.7231,-20.308 16.7231,-10.154 0,10.154 17.9176,-28.071 17.3203,-16.126 -0.5969,11.945 20.3075,-23.293 17.3215,-8.959 -2.987,14.335 23.889,-27.474 23.889,-5.973 0,21.502 -14.334,26.28 -22.695,37.031 -8.3612,10.75 -7.1682,16.126 7.764,4.778 14.931,-11.348 -17.3197,51.962 -0.597,37.03 16.723,-14.932 -5.375,28.071 7.167,17.32 12.543,-10.751 -5.973,54.351 3.584,36.434 9.556,-17.918 16.723,-45.99 23.89,-35.238 7.168,10.75 -2.389,-23.892 10.751,-12.543 13.139,11.347 -10.154,-55.545 12.542,-35.836 22.696,19.71 -19.709,-51.365 -7.764,-54.351 11.945,-2.986 14.334,6.57 23.293,18.515 8.959,11.945 7.764,-7.764 16.722,2.389 8.96,10.154 10.751,0.597 18.516,11.348 7.765,10.751 24.487,26.279 16.126,12.543 -8.361,-13.737 -34.044,-32.252 -21.502,-32.252 12.543,0 -29.862,-14.932 -16.723,-15.529 13.14,-0.597 -34.043,-22.099 -17.918,-23.891 16.126,-1.792 1.213,-10.153 -38.224,-10.153" /><path
       inkscape:connector-curvature="0"
       id="path158"
       style="fill:#754913;fill-opacity:1;fill-rule:nonzero;stroke:none;stroke-width:0.1"
       d="m 142.236,73.9801 c -2.125,-7.8949 5.911,-3.502 6.514,0.3758 9.323,59.9131 0.902,144.3101 -11.749,203.4981 -1.18,5.522 -3.373,8.375 -1.552,-0.327 11.134,-53.189 20.972,-150.841 6.787,-203.5469" /><path
       inkscape:connector-curvature="0"
       id="path160"
       style="fill:#754913;fill-opacity:1;fill-rule:nonzero;stroke:none;stroke-width:0.1"
       d="m 149.229,193.346 c -0.387,-1.922 -1.485,7.776 -1.201,8.673 4.396,13.858 14.605,24.19 23.641,35.547 0.843,1.059 2.068,0.43 0.749,-1.244 -8.069,-10.23 -20.608,-30.146 -23.189,-42.976" /><path
       inkscape:connector-curvature="0"
       id="path162"
       style="fill:#754913;fill-opacity:1;fill-rule:nonzero;stroke:none;stroke-width:0.1"
       d="m 144.193,238.744 c -0.236,-1.173 -0.907,4.75 -0.733,5.298 2.685,8.464 9.639,20.282 15.157,27.218 0.515,0.647 1.264,0.264 0.458,-0.759 -4.929,-6.249 -13.304,-23.92 -14.882,-31.757" /><path
       inkscape:connector-curvature="0"
       id="path164"
       style="fill:#754913;fill-opacity:1;fill-rule:nonzero;stroke:none;stroke-width:0.1"
       d="m 150.236,153.27 c -0.981,-1.697 1.08,7.842 1.637,8.601 8.597,11.725 38.356,29.436 50.55,37.307 1.137,0.733 2.098,-0.254 0.311,-1.418 -10.917,-7.112 -45.948,-33.159 -52.498,-44.49" /><path
       inkscape:connector-curvature="0"
       id="path166"
       style="fill:#754913;fill-opacity:1;fill-rule:nonzero;stroke:none;stroke-width:0.1"
       d="m 151.952,151.592 c 0.981,-1.697 -1.08,7.842 -1.638,8.601 -11.529,10.551 -52.516,32.386 -63.6941,40.663 -1.0879,0.805 -0.1394,-1.653 1.6469,-2.816 10.918,-7.112 57.1352,-35.117 63.6852,-46.448" /><path
       inkscape:connector-curvature="0"
       id="path168"
       style="fill:#754913;fill-opacity:1;fill-rule:nonzero;stroke:none;stroke-width:0.1"
       d="m 147.555,193.734 c 0.897,-1.742 -0.7,7.886 -1.219,8.671 -8.019,12.127 -20.665,19.272 -32.463,27.723 -1.101,0.788 -2.108,-0.151 -0.381,-1.4 10.561,-7.633 28.07,-23.359 34.063,-34.994" /><path
       inkscape:connector-curvature="0"
       id="path170"
       style="fill:#754913;fill-opacity:1;fill-rule:nonzero;stroke:none;stroke-width:0.1"
       d="m 144.706,229.667 c 0.458,-1.106 -0.026,4.835 -0.303,5.339 -4.265,7.788 -13.369,18.043 -20.121,23.784 -0.63,0.536 -1.291,0.015 -0.303,-0.833 6.042,-5.181 17.668,-20.905 20.727,-28.29" /><path
       inkscape:connector-curvature="0"
       id="path172"
       style="fill:#c08946;fill-opacity:1;fill-rule:evenodd;stroke:none;stroke-width:0.1"
       d="m 305.123,116.752 c -25.185,-0.238 -57.625,30.877 -55.153,68.4 2.135,32.413 57.375,105.08 56.468,77.878 -0.613,-18.353 27.891,-26.289 41.356,-56.103 12.047,-26.677 2.601,-89.745 -42.671,-90.175" /><path
       inkscape:connector-curvature="0"
       id="path174"
       style="fill:#754913;fill-opacity:1;fill-rule:nonzero;stroke:none;stroke-width:0.1"
       d="m 331.115,65.0289 c 3.369,-6.623 -8.779,-6.473 -10.042,-3.1371 -19.52,51.5392 -24.821,130.4752 -24.662,185.4872 0.016,5.132 3.043,2.895 3.054,-5.185 0.065,-49.393 9.156,-132.948 31.65,-177.1651" /><path
       inkscape:connector-curvature="0"
       id="path176"
       style="fill:#754913;fill-opacity:1;fill-rule:nonzero;stroke:none;stroke-width:0.1"
       d="m 306.919,133.361 c 2.733,-1.368 1.283,-6.892 0.051,-6.097 -19.051,12.282 -38.09,27.437 -48.766,49.996 -3.123,6.601 -0.648,6.202 2.514,1.4 11.141,-20.59 27.956,-36.166 46.201,-45.299" /><path
       inkscape:connector-curvature="0"
       id="path178"
       style="fill:#754913;fill-opacity:1;fill-rule:nonzero;stroke:none;stroke-width:0.1"
       d="m 301.891,168.338 c 2.013,-1.008 0.623,-6.689 -0.286,-6.104 -14.038,9.051 -28.573,22.237 -36.44,38.861 -2.302,4.864 -0.477,4.57 1.853,1.031 8.21,-15.172 21.427,-27.058 34.873,-33.788" /><path
       inkscape:connector-curvature="0"
       id="path180"
       style="fill:#754913;fill-opacity:1;fill-rule:nonzero;stroke:none;stroke-width:0.1"
       d="m 299.299,202.27 c 1.417,-0.709 0.116,-5.674 -0.524,-5.262 -9.879,6.369 -20.109,15.649 -25.645,27.349 -1.62,3.423 -0.337,3.216 1.304,0.726 5.778,-10.679 15.402,-18.077 24.865,-22.813" /><path
       inkscape:connector-curvature="0"
       id="path182"
       style="fill:#754913;fill-opacity:1;fill-rule:nonzero;stroke:none;stroke-width:0.1"
       d="m 301.427,189.414 c -1.596,-0.799 -0.262,-7.04 0.458,-6.576 11.123,7.172 22.64,17.62 28.873,30.792 1.824,3.854 0.487,4.02 -1.36,1.217 -6.505,-12.022 -17.319,-20.101 -27.971,-25.433" /><path
       inkscape:connector-curvature="0"
       id="path184"
       style="fill:#754913;fill-opacity:1;fill-rule:nonzero;stroke:none;stroke-width:0.1"
       d="m 298.915,217.466 c -1.068,-0.534 0.812,-5.105 1.294,-4.795 7.443,4.8 14.25,12.622 18.421,21.436 1.221,2.58 0.115,3.461 -1.466,0.962 -4.353,-8.045 -11.12,-14.035 -18.249,-17.603" /><path
       inkscape:connector-curvature="0"
       id="path186"
       style="fill:#754913;fill-opacity:1;fill-rule:nonzero;stroke:none;stroke-width:0.1"
       d="m 305.153,153.325 c -2.025,-1.013 -0.627,-6.725 0.287,-6.137 14.116,9.1 28.729,22.359 36.639,39.073 2.315,4.891 0.481,4.596 -1.862,1.037 -8.256,-15.256 -21.545,-27.206 -35.064,-33.973" /><path
       inkscape:connector-curvature="0"
       id="path188"
       style="fill:#c08946;fill-opacity:1;fill-rule:evenodd;stroke:none;stroke-width:0.1"
       d="M 90.134,530.856 C 62.1008,557.367 50.2148,589.752 56.8613,624.785 63.2805,658.617 105.15,688.049 130.113,730.793 195.367,640.781 149.56,551.04 90.134,530.856" /><path
       inkscape:connector-curvature="0"
       id="path190"
       style="fill:#754913;fill-opacity:1;fill-rule:nonzero;stroke:none;stroke-width:0.1"
       d="m 90.5129,473.755 c -7.0129,28.679 -2.8945,76.692 -2.3441,83.511 -9.7672,5.744 -27.5379,23.511 -32.8961,42.422 7.4011,-13.082 20.5132,-29.452 33.314,-37.848 0.8293,8.207 2.0649,15.987 3.5918,23.444 -15.8633,9.63 -32.6363,34.471 -31.1363,52.49 6.032,-16.533 16.5516,-37.707 32.0555,-48.198 2.1668,9.722 4.8093,18.909 7.6623,27.8 -13.2705,8.103 -28.5245,28.987 -24.6479,44.333 0.882,-11.718 15.9836,-33.711 25.9609,-40.303 1.812,5.482 3.691,10.862 5.572,16.198 0.019,0.065 0.042,0.128 0.068,0.191 l 1.176,3.33 c 1.132,3.202 2.258,6.393 3.368,9.585 -8.494,6.448 -17.2804,20.283 -16.5961,34.356 0.2754,-0.892 0.5664,-1.783 0.8723,-2.668 3.8438,-11.146 9.9308,-21.441 17.1588,-27.522 3.621,10.603 6.969,21.273 9.532,32.469 -4.629,4.109 -8.316,13.021 -8.777,20.452 4.593,-8.348 6.48,-12.229 9.818,-15.66 2.274,11.087 5.619,25.124 5.848,38.656 4.472,-18.449 -0.528,-37.111 -4.508,-52.172 8.253,3.653 16.374,10.909 23.363,19.881 -4.187,-11.885 -15.384,-21.752 -24.731,-24.861 -2.192,-7.708 -4.677,-15.238 -7.274,-22.75 -0.025,-0.102 -0.06,-0.201 -0.104,-0.301 -1.249,-3.608 -2.522,-7.211 -3.8,-10.83 l -0.114,-0.319 c 17.159,2.836 36.283,18.191 45.378,31.703 -3.115,-16.568 -29.884,-34.301 -46.906,-36.035 -3.875,-11.007 -7.718,-22.225 -10.963,-34.15 12.867,0.459 27.283,7.766 40.043,17.482 8.131,6.192 15.557,13.33 21.477,20.291 -13.814,-24.875 -39.733,-41.81 -62.6029,-41.868 -2.0281,-7.908 -3.7703,-16.145 -5.0715,-24.848 19.4124,-2.421 43.1194,11.418 58.5034,21.066 -10.002,-12.04 -33.677,-26.453 -59.0686,-25.088 -3.7039,-20.705 -1.7781,-81.013 4.8039,-96.983 1.6417,-3.982 -5.791,-6.396 -8.0254,2.744" /><path
       inkscape:connector-curvature="0"
       id="path192"
       style="fill:#ffb763;fill-opacity:1;fill-rule:evenodd;stroke:none;stroke-width:0.1"
       d="m 200.629,363.02 c 37.277,0 72.33,12.982 64.912,57.493 -7.419,44.511 -50.075,51.928 -50.075,83.458 0,31.528 -9.273,-7.419 -31.528,-31.53 -22.255,-24.109 -46.71,-38.827 -43.865,-68.364 3.234,-33.553 26.968,-41.057 60.556,-41.057" /><path
       inkscape:connector-curvature="0"
       id="path194"
       style="fill:#c9781c;fill-opacity:1;fill-rule:nonzero;stroke:none;stroke-width:0.1"
       d="m 209.843,301.432 c 2.261,-7.079 -9.704,-4.98 -10.415,-1.484 -10.988,54.005 -3.539,132.768 5.455,187.04 0.84,5.063 3.468,2.369 2.18,-5.608 -7.87,-48.763 -12.319,-132.691 2.78,-179.948" /><path
       inkscape:connector-curvature="0"
       id="path196"
       style="fill:#c9781c;fill-opacity:1;fill-rule:nonzero;stroke:none;stroke-width:0.1"
       d="m 198.61,382.073 c -2.769,-0.591 -2.868,-9.48 -1.577,-9.053 19.939,6.588 41.787,19.589 56.604,37.341 4.335,5.195 2.022,5.413 -1.929,1.839 -14.777,-15.877 -34.612,-26.176 -53.098,-30.127" /><path
       inkscape:connector-curvature="0"
       id="path198"
       style="fill:#c9781c;fill-opacity:1;fill-rule:nonzero;stroke:none;stroke-width:0.1"
       d="m 200.464,416.721 c -2.246,-0.481 -3.478,-8.364 -2.431,-8.018 16.173,5.345 35.045,16.563 47.062,30.961 3.516,4.214 1.641,4.391 -1.565,1.492 -11.985,-12.878 -28.073,-21.23 -43.066,-24.435" /><path
       inkscape:connector-curvature="0"
       id="path200"
       style="fill:#c9781c;fill-opacity:1;fill-rule:nonzero;stroke:none;stroke-width:0.1"
       d="m 203.188,452.018 c -1.397,-0.299 -2.59766,-7.08103 -1.947,-6.866 10.06434,3.32598 22.242,12.183 29.72,21.142 2.187,2.622 0.89029,2.86488 -0.974,0.929 -7.59429,-7.88591 -17.468,-13.211 -26.799,-15.205"
       sodipodi:nodetypes="cscsc" /><path
       inkscape:connector-curvature="0"
       id="path202"
       style="fill:#c9781c;fill-opacity:1;fill-rule:nonzero;stroke:none;stroke-width:0.1"
       d="m 195.143,400.813 c 2.164,-0.462 2.241,-7.409 1.232,-7.076 -15.582,5.15 -32.655,15.31 -44.234,29.182 -3.388,4.06 -1.581,4.23 1.507,1.438 11.548,-12.408 27.048,-20.457 41.495,-23.544" /><path
       inkscape:connector-curvature="0"
       id="path204"
       style="fill:#c9781c;fill-opacity:1;fill-rule:nonzero;stroke:none;stroke-width:0.1"
       d="m 198.071,434.111 c 1.434,-0.306 1.486,-4.912 0.817,-4.69 -10.33,3.414 -21.651,10.149 -29.327,19.348 -2.247,2.691 -1.048,2.803 1,0.953 7.656,-8.227 17.932,-13.563 27.51,-15.611" /><path
       inkscape:connector-curvature="0"
       id="path206"
       style="fill:#c9781c;fill-opacity:1;fill-rule:nonzero;stroke:none;stroke-width:0.1"
       d="m 202.97,465.107 c 0.849,-0.181 0.293,-5.122 -0.103,-4.991 -6.118,2.022 -10.481,6.237 -15.027,11.684 -1.33,1.594 0.314,2.011 1.527,0.915 4.534,-4.872 7.931,-6.395 13.603,-7.608" /><path
       inkscape:connector-curvature="0"
       id="path208"
       style="fill:#723405;fill-opacity:1;fill-rule:evenodd;stroke:none;stroke-width:0.1"
       d="m 319.985,359.178 c -4.281,-15.199 -0.9,-43.961 6.808,-59.857 2.654,-5.471 -2.581,-6.881 -4.278,-3.276 -7.988,16.963 -10.682,48.421 -4.926,64.963 2.874,8.261 3.976,3.779 2.396,-1.83" /><path
       inkscape:connector-curvature="0"
       id="path210"
       style="fill:#e76f32;fill-opacity:1;fill-rule:evenodd;stroke:none;stroke-width:0.1"
       d="m 313.711,355.665 c -6.963,-0.51 -19.79,3.212 -21.655,30.046 24.866,-10.257 24.34,-23.602 21.655,-30.046" /><path
       inkscape:connector-curvature="0"
       id="path212"
       style="fill:#f5864f;fill-opacity:1;fill-rule:evenodd;stroke:none;stroke-width:0.1"
       d="m 324.498,348.077 c -1.235,6.872 1.124,20.018 27.616,24.68 -7.599,-25.803 -20.926,-26.676 -27.616,-24.68" /><path
       inkscape:connector-curvature="0"
       id="path214"
       style="fill:#f5864f;fill-opacity:1;fill-rule:evenodd;stroke:none;stroke-width:0.1"
       d="m 313.47,331.572 c -6.357,-2.889 -19.678,-3.84 -30.721,20.687 26.879,-1.011 31.007,-13.712 30.721,-20.687" /><path
       inkscape:connector-curvature="0"
       id="path216"
       style="fill:#f5864f;fill-opacity:1;fill-rule:evenodd;stroke:none;stroke-width:0.1"
       d="m 321.099,368.436 c -4.382,5.437 -8.62,18.101 12.385,34.904 5.714,-26.284 -5.559,-33.445 -12.385,-34.904" /><path
       inkscape:connector-curvature="0"
       id="path218"
       style="fill:#e76f32;fill-opacity:1;fill-rule:evenodd;stroke:none;stroke-width:0.1"
       d="m 324.657,323.384 c 6.505,-2.538 19.859,-2.761 29.546,22.333 -26.784,-2.477 -30.213,-15.385 -29.546,-22.333" /><path
       inkscape:connector-curvature="0"
       id="path220"
       style="fill:#e76f32;fill-opacity:1;fill-rule:evenodd;stroke:none;stroke-width:0.1"
       d="m 418.973,346.93 c 25.71,1.223 101.615,67.335 66.111,57.541 -35.505,-9.794 24.486,40.402 -6.121,29.384 -30.608,-11.019 12.242,41.625 -14.692,34.28 -26.935,-7.346 -19.741,31.707 -28.16,31.832 -8.418,0.124 -13.527,-35.381 -29.382,-25.711 -15.854,9.67 -0.899,-33.395 -25.385,-19.589 -24.486,13.806 14.755,-51.821 -8.896,-37.953 -23.648,13.868 3.673,-68.561 46.525,-69.784" /><path
       inkscape:connector-curvature="0"
       id="path222"
       style="fill:#723405;fill-opacity:1;fill-rule:nonzero;stroke:none;stroke-width:0.1"
       d="m 432.215,287.165 c 2.26,-7.07 -9.694,-4.974 -10.404,-1.481 -10.975,53.945 -3.536,132.62 5.45,186.831 0.838,5.057 3.463,2.366 2.177,-5.602 -7.862,-48.708 -12.305,-132.543 2.777,-179.748" /><path
       inkscape:connector-curvature="0"
       id="path224"
       style="fill:#723405;fill-opacity:1;fill-rule:nonzero;stroke:none;stroke-width:0.1"
       d="m 421.225,367.424 c -2.8,-0.4 -3.508,-9.25 -2.193,-8.914 20.322,5.199 42.985,16.657 58.967,33.332 4.676,4.88 2.387,5.255 -1.797,1.965 -15.814,-14.809 -36.286,-23.712 -54.977,-26.383" /><path
       inkscape:connector-curvature="0"
       id="path226"
       style="fill:#723405;fill-opacity:1;fill-rule:nonzero;stroke:none;stroke-width:0.1"
       d="m 423.049,402.065 c -2.273,-0.309 -4.091,-8.069 -3.022,-7.803 16.509,4.11 36.149,13.87 49.198,27.31 3.818,3.934 1.963,4.25 -1.447,1.604 -12.904,-11.929 -29.554,-19.043 -44.729,-21.111" /><path
       inkscape:connector-curvature="0"
       id="path228"
       style="fill:#723405;fill-opacity:1;fill-rule:nonzero;stroke:none;stroke-width:0.1"
       d="m 425.568,437.583 c -1.396,-0.298 -2.596,-7.072 -1.945,-6.856 10.052,3.321 22.217,12.168 29.686,21.117 2.185,2.619 1.019,2.728 -0.973,0.928 -7.45,-8.005 -17.448,-13.197 -26.768,-15.189" /><path
       inkscape:connector-curvature="0"
       id="path230"
       style="fill:#723405;fill-opacity:1;fill-rule:nonzero;stroke:none;stroke-width:0.1"
       d="m 419.08,384.499 c 2.161,-0.462 2.238,-7.4 1.231,-7.067 -15.565,5.144 -32.62,15.292 -44.185,29.149 -3.384,4.055 -1.579,4.225 1.506,1.436 11.535,-12.394 27.018,-20.433 41.448,-23.518" /><path
       inkscape:connector-curvature="0"
       id="path232"
       style="fill:#723405;fill-opacity:1;fill-rule:nonzero;stroke:none;stroke-width:0.1"
       d="m 420.456,419.697 c 1.433,-0.305 1.484,-4.906 0.815,-4.685 -10.319,3.41 -21.625,10.138 -29.293,19.326 -2.245,2.688 -1.047,2.801 0.998,0.951 7.647,-8.217 17.913,-13.547 27.48,-15.592" /><path
       inkscape:connector-curvature="0"
       id="path234"
       style="fill:#723405;fill-opacity:1;fill-rule:nonzero;stroke:none;stroke-width:0.1"
       d="m 425.349,450.659 c 0.848,-0.181 0.293,-5.117 -0.102,-4.986 -6.111,2.019 -10.471,6.229 -15.012,11.67 -1.328,1.593 0.315,2.009 1.527,0.915 4.528,-4.867 7.922,-6.388 13.587,-7.599" /><path
       inkscape:connector-curvature="0"
       id="path236"
       style="fill:#edb832;fill-opacity:1;fill-rule:nonzero;stroke:none;stroke-width:0.1"
       d="m 314.007,432.073 c -0.312,-1.737 -1.973,-2.893 -3.71,-2.582 -1.737,0.311 -2.893,1.972 -2.582,3.709 5.053,28.04 -1.253,78.215 -14.989,133.365 -13.527,54.301 -34.257,113.298 -58.468,160.703 -0.8,1.578 -0.169,3.505 1.409,4.304 1.578,0.8 3.505,0.168 4.304,-1.41 24.412,-47.795 45.316,-107.287 58.956,-162.051 13.938,-55.957 20.292,-107.112 15.08,-136.038" /><path
       inkscape:connector-curvature="0"
       id="path238"
       style="fill:#edb832;fill-opacity:1;fill-rule:evenodd;stroke:none;stroke-width:0.1"
       d="m 309.282,499.977 c -2.87,5.302 24.453,36.092 33.543,19.302 7.654,-14.138 -29.55,-26.677 -33.543,-19.302" /><path
       inkscape:connector-curvature="0"
       id="path240"
       style="fill:#edb832;fill-opacity:1;fill-rule:evenodd;stroke:none;stroke-width:0.1"
       d="m 309.078,499.583 c -1.096,-5.929 -41.695,-12.735 -38.226,6.039 2.92,15.811 39.749,2.209 38.226,-6.039" /><path
       inkscape:connector-curvature="0"
       id="path242"
       style="fill:#edb832;fill-opacity:1;fill-rule:evenodd;stroke:none;stroke-width:0.1"
       d="m 304.626,527.738 c -3.211,6.964 33.977,43.819 44.146,21.768 8.564,-18.568 -39.679,-31.453 -44.146,-21.768" /><path
       inkscape:connector-curvature="0"
       id="path244"
       style="fill:#edb832;fill-opacity:1;fill-rule:evenodd;stroke:none;stroke-width:0.1"
       d="m 304.54,526.861 c -1.076,-7.592 -52.307,-18.399 -48.896,5.643 2.871,20.246 50.393,4.918 48.896,-5.643" /><path
       inkscape:connector-curvature="0"
       id="path246"
       style="fill:#edb832;fill-opacity:1;fill-rule:evenodd;stroke:none;stroke-width:0.1"
       d="m 298.43,556.922 c -4.482,6.892 29.291,51.73 43.481,29.903 11.95,-18.381 -37.248,-39.491 -43.481,-29.903" /><path
       inkscape:connector-curvature="0"
       id="path248"
       style="fill:#edb832;fill-opacity:1;fill-rule:evenodd;stroke:none;stroke-width:0.1"
       d="m 298.2,555.756 c -1.863,-8.008 -57.591,-14.746 -51.694,10.611 4.965,21.355 54.283,0.529 51.694,-10.611" /><path
       inkscape:connector-curvature="0"
       id="path250"
       style="fill:#edb832;fill-opacity:1;fill-rule:evenodd;stroke:none;stroke-width:0.1"
       d="m 288.59,594.429 c -4.966,7.759 33.237,57.725 48.962,33.154 13.241,-20.692 -42.055,-43.948 -48.962,-33.154" /><path
       inkscape:connector-curvature="0"
       id="path252"
       style="fill:#edb832;fill-opacity:1;fill-rule:evenodd;stroke:none;stroke-width:0.1"
       d="m 288.626,592.259 c -2.086,-8.973 -64.529,-16.524 -57.924,11.89 5.565,23.928 60.826,0.592 57.924,-11.89" /><path
       inkscape:connector-curvature="0"
       id="path254"
       style="fill:#edb832;fill-opacity:1;fill-rule:evenodd;stroke:none;stroke-width:0.1"
       d="m 277.748,629.865 c -4.675,6.54 26.385,51.793 41.187,31.082 12.463,-17.439 -34.685,-40.179 -41.187,-31.082" /><path
       inkscape:connector-curvature="0"
       id="path256"
       style="fill:#edb832;fill-opacity:1;fill-rule:evenodd;stroke:none;stroke-width:0.1"
       d="m 277.72,627.972 c -2.066,-7.769 -56.735,-12.641 -50.194,11.96 5.508,20.717 53.067,-1.153 50.194,-11.96" /><path
       inkscape:connector-curvature="0"
       id="path258"
       style="fill:#edb832;fill-opacity:1;fill-rule:evenodd;stroke:none;stroke-width:0.1"
       d="m 266.395,661.743 c -4.963,5.376 17.95,49.767 33.668,32.744 13.235,-14.336 -26.763,-40.222 -33.668,-32.744" /><path
       inkscape:connector-curvature="0"
       id="path260"
       style="fill:#edb832;fill-opacity:1;fill-rule:evenodd;stroke:none;stroke-width:0.1"
       d="m 266.003,660.428 c -1.88,-7.071 -51.639,-11.506 -45.686,10.886 5.015,18.855 48.301,-1.05 45.686,-10.886" /><path
       inkscape:connector-curvature="0"
       id="path262"
       style="fill:#edb832;fill-opacity:1;fill-rule:evenodd;stroke:none;stroke-width:0.1"
       d="m 255.175,691.423 c -3.561,3.855 12.876,35.699 24.151,23.487 9.494,-10.283 -19.198,-28.852 -24.151,-23.487" /><path
       inkscape:connector-curvature="0"
       id="path264"
       style="fill:#edb832;fill-opacity:1;fill-rule:evenodd;stroke:none;stroke-width:0.1"
       d="m 254.895,690.479 c -1.35,-5.073 -37.044,-8.254 -32.773,7.808 3.597,13.527 34.648,-0.752 32.773,-7.808" /><path
       inkscape:connector-curvature="0"
       id="path266"
       style="fill:#edb832;fill-opacity:1;fill-rule:evenodd;stroke:none;stroke-width:0.1"
       d="m 244.043,714.646 c -3.123,2.754 7.266,29.225 17.156,20.502 8.33,-7.347 -12.811,-24.334 -17.156,-20.502" /><path
       inkscape:connector-curvature="0"
       id="path268"
       style="fill:#edb832;fill-opacity:1;fill-rule:evenodd;stroke:none;stroke-width:0.1"
       d="m 243.897,713.878 c -1.046,-4.031 -29.357,-6.714 -26.039,6.051 2.794,10.75 27.497,-0.443 26.039,-6.051" /><path
       inkscape:connector-curvature="0"
       id="path270"
       style="fill:#edb832;fill-opacity:1;fill-rule:evenodd;stroke:none;stroke-width:0.1"
       d="m 238.462,726.056 c -3.322,-1.317 -19.52,16.937 -8.997,21.104 8.862,3.509 13.621,-19.274 8.997,-21.104" /><path
       inkscape:connector-curvature="0"
       id="path272"
       style="fill:#d4a01e;fill-opacity:1;fill-rule:evenodd;stroke:none;stroke-width:0.1"
       d="m 312.14,501.725 c 9.402,9.169 21.712,14.794 27.647,15.568 -6.941,3.11 -22.399,-4.275 -27.647,-15.568" /><path
       inkscape:connector-curvature="0"
       id="path274"
       style="fill:#d4a01e;fill-opacity:1;fill-rule:evenodd;stroke:none;stroke-width:0.1"
       d="m 306.9,500.783 c -12.526,3.945 -26.049,3.416 -31.697,1.43 4.795,5.906 21.921,6.283 31.697,-1.43" /><path
       inkscape:connector-curvature="0"
       id="path276"
       style="fill:#d4a01e;fill-opacity:1;fill-rule:evenodd;stroke:none;stroke-width:0.1"
       d="m 301.859,528.192 c -15.778,4.969 -32.814,4.302 -39.927,1.801 6.039,7.44 27.614,7.915 39.927,-1.801" /><path
       inkscape:connector-curvature="0"
       id="path278"
       style="fill:#d4a01e;fill-opacity:1;fill-rule:evenodd;stroke:none;stroke-width:0.1"
       d="m 307.604,528.55 c 12.184,11.189 27.896,17.807 35.399,18.557 -8.623,4.178 -28.365,-4.537 -35.399,-18.557" /><path
       inkscape:connector-curvature="0"
       id="path280"
       style="fill:#d4a01e;fill-opacity:1;fill-rule:evenodd;stroke:none;stroke-width:0.1"
       d="m 294.87,557.607 c -17.2,6.303 -36.077,6.436 -44.073,4.034 7.059,7.921 30.949,7.343 44.073,-4.034" /><path
       inkscape:connector-curvature="0"
       id="path282"
       style="fill:#d4a01e;fill-opacity:1;fill-rule:evenodd;stroke:none;stroke-width:0.1"
       d="m 301.028,558 c 12.797,13.107 29.771,21.371 38.02,22.654 -9.786,4.099 -31.088,-6.728 -38.02,-22.654" /><path
       inkscape:connector-curvature="0"
       id="path284"
       style="fill:#d4a01e;fill-opacity:1;fill-rule:evenodd;stroke:none;stroke-width:0.1"
       d="m 284.832,594.716 c -18.153,7.4 -38.338,8.266 -46.981,6.004 7.853,8.2 33.381,6.667 46.981,-6.004" /><path
       inkscape:connector-curvature="0"
       id="path286"
       style="fill:#d4a01e;fill-opacity:1;fill-rule:evenodd;stroke:none;stroke-width:0.1"
       d="m 291.21,595.161 c 12.975,14.696 30.672,24.442 39.421,26.255 -10.68,3.857 -32.867,-8.86 -39.421,-26.255" /><path
       inkscape:connector-curvature="0"
       id="path288"
       style="fill:#d4a01e;fill-opacity:1;fill-rule:evenodd;stroke:none;stroke-width:0.1"
       d="m 274.2,630.048 c -17.015,6.782 -35.882,7.445 -43.942,5.268 7.279,7.719 31.143,6.471 43.942,-5.268" /><path
       inkscape:connector-curvature="0"
       id="path290"
       style="fill:#d4a01e;fill-opacity:1;fill-rule:evenodd;stroke:none;stroke-width:0.1"
       d="m 279.948,630.757 c 11.212,14.485 27.127,24.639 35.176,26.858 -10.191,2.951 -30.113,-10.244 -35.176,-26.858" /><path
       inkscape:connector-curvature="0"
       id="path292"
       style="fill:#d4a01e;fill-opacity:1;fill-rule:evenodd;stroke:none;stroke-width:0.1"
       d="m 262.029,663.242 c -15.449,5.915 -32.494,6.281 -39.745,4.216 6.478,7.06 28.042,6.229 39.745,-4.216" /><path
       inkscape:connector-curvature="0"
       id="path294"
       style="fill:#d4a01e;fill-opacity:1;fill-rule:evenodd;stroke:none;stroke-width:0.1"
       d="m 267.008,664.172 c 9.216,13.738 22.933,23.861 30.05,26.353 -9.364,2.037 -26.507,-11.073 -30.05,-26.353" /><path
       inkscape:connector-curvature="0"
       id="path296"
       style="fill:#d4a01e;fill-opacity:1;fill-rule:evenodd;stroke:none;stroke-width:0.1"
       d="m 252.074,691.956 c -10.914,4.419 -23.039,4.911 -28.227,3.54 4.706,4.937 20.041,4.052 28.227,-3.54" /><path
       inkscape:connector-curvature="0"
       id="path298"
       style="fill:#d4a01e;fill-opacity:1;fill-rule:evenodd;stroke:none;stroke-width:0.1"
       d="m 257.308,693.646 c 6.317,9.936 15.903,17.379 20.923,19.276 -6.697,1.285 -18.668,-8.342 -20.923,-19.276" /><path
       inkscape:connector-curvature="0"
       id="path300"
       style="fill:#d4a01e;fill-opacity:1;fill-rule:evenodd;stroke:none;stroke-width:0.1"
       d="m 241.538,714.77 c -8.315,3.367 -17.553,3.741 -21.506,2.697 3.585,3.76 15.27,3.086 21.506,-2.697" /><path
       inkscape:connector-curvature="0"
       id="path302"
       style="fill:#d4a01e;fill-opacity:1;fill-rule:evenodd;stroke:none;stroke-width:0.1"
       d="m 245.756,716.47 c 3.776,8.49 10.393,15.416 14.092,17.48 -5.379,0.225 -13.603,-8.682 -14.092,-17.48" /><path
       inkscape:connector-curvature="0"
       id="path304"
       style="fill:#d4a01e;fill-opacity:1;fill-rule:evenodd;stroke:none;stroke-width:0.1"
       d="m 237.742,728.428 c -3.693,6.822 -7.117,13.91 -7.765,17.382 -1.504,-4.513 2.549,-13.787 7.765,-17.382" /><path
       inkscape:connector-curvature="0"
       id="path306"
       style="fill:#edb832;fill-opacity:1;fill-rule:nonzero;stroke:none;stroke-width:0.1"
       d="m 429.551,76.5102 c -0.952,-0.8731 -2.033,0.6109 -2.414,3.3128 -0.382,2.702 0.082,5.6 1.033,6.4719 9.749,8.961 30.683,45.8811 46.184,91.3671 10.501,30.819 18.44,65.379 18.479,97.289 0.004,2.836 0.839,4.97 1.865,4.766 1.027,-0.205 1.856,-2.669 1.854,-5.505 -0.044,-34.745 -8.387,-71.494 -19.423,-103.88 -15.874,-46.578 -37.468,-84.53 -47.578,-93.8218" /><path
       inkscape:connector-curvature="0"
       id="path308"
       style="fill:#d4a01e;fill-opacity:1;fill-rule:evenodd;stroke:none;stroke-width:0.1"
       d="m 459.141,148.421 c -10.451,6.74 -36.632,40.024 -26.466,49.42 12.528,11.577 27.924,-39.965 30.382,-46.379 2.819,-7.353 1.946,-6.822 -3.916,-3.041" /><path
       inkscape:connector-curvature="0"
       id="path310"
       style="fill:#edb832;fill-opacity:1;fill-rule:evenodd;stroke:none;stroke-width:0.1"
       d="m 470.309,174.302 c -8.794,5.672 -30.829,33.683 -22.273,41.59 10.543,9.742 23.5,-33.633 25.568,-39.032 2.374,-6.187 1.639,-5.741 -3.295,-2.558" /><path
       inkscape:connector-curvature="0"
       id="path312"
       style="fill:none;stroke:#d4a01e;stroke-width:0.21600001;stroke-linecap:butt;stroke-linejoin:miter;stroke-miterlimit:22.92560005;stroke-dasharray:none;stroke-opacity:1"
       d="m 470.309,174.302 c -8.794,5.672 -30.829,33.683 -22.273,41.59 10.543,9.742 23.5,-33.633 25.568,-39.032 2.374,-6.187 1.639,-5.741 -3.295,-2.558 z" /><path
       inkscape:connector-curvature="0"
       id="path314"
       style="fill:#edb832;fill-opacity:1;fill-rule:evenodd;stroke:none;stroke-width:0.1"
       d="m 478.316,198.333 c -7.76,5.006 -27.206,29.726 -19.655,36.703 9.304,8.598 20.738,-29.681 22.565,-34.445 2.092,-5.46 1.445,-5.067 -2.91,-2.258" /><path
       inkscape:connector-curvature="0"
       id="path316"
       style="fill:#edb832;fill-opacity:1;fill-rule:evenodd;stroke:none;stroke-width:0.1"
       d="m 482.365,221.336 c -6.039,3.895 -21.169,23.129 -15.294,28.559 7.24,6.689 16.137,-23.096 17.557,-26.802 1.629,-4.249 1.126,-3.943 -2.263,-1.757" /><path
       inkscape:connector-curvature="0"
       id="path318"
       style="fill:#edb832;fill-opacity:1;fill-rule:evenodd;stroke:none;stroke-width:0.1"
       d="m 486.101,243.458 c -5.006,3.23 -17.547,19.172 -12.677,23.673 6,5.545 13.375,-19.144 14.553,-22.216 1.35,-3.522 0.932,-3.268 -1.876,-1.457" /><path
       inkscape:connector-curvature="0"
       id="path320"
       style="fill:#d4a01e;fill-opacity:1;fill-rule:evenodd;stroke:none;stroke-width:0.1"
       d="m 490.165,262.322 c -3.628,2.341 -12.717,13.896 -9.187,17.158 4.348,4.019 9.693,-13.875 10.546,-16.101 0.979,-2.553 0.676,-2.369 -1.359,-1.057" /><path
       inkscape:connector-curvature="0"
       id="path322"
       style="fill:#d4a01e;fill-opacity:1;fill-rule:evenodd;stroke:none;stroke-width:0.1"
       d="m 494.013,275.635 c -1.938,4.391 -3.313,20.679 1.959,21.549 6.495,1.072 0.517,-18.811 -0.051,-21.4 -0.652,-2.968 -0.821,-2.612 -1.908,-0.149" /><path
       inkscape:connector-curvature="0"
       id="path324"
       style="fill:#edb832;fill-opacity:1;fill-rule:evenodd;stroke:none;stroke-width:0.1"
       d="m 471.798,144.423 c 12.433,-0.206 52.7,12.906 49.472,26.368 -3.978,16.586 -45.428,-17.698 -51.038,-21.663 -6.429,-4.545 -5.41,-4.589 1.566,-4.705" /><path
       inkscape:connector-curvature="0"
       id="path326"
       style="fill:#edb832;fill-opacity:1;fill-rule:evenodd;stroke:none;stroke-width:0.1"
       d="m 481.176,171.035 c 10.465,0.149 43.997,12.219 40.932,23.458 -3.775,13.851 -37.754,-16.06 -42.371,-19.541 -5.29,-3.989 -4.431,-4 1.439,-3.917" /><path
       inkscape:connector-curvature="0"
       id="path328"
       style="fill:#edb832;fill-opacity:1;fill-rule:evenodd;stroke:none;stroke-width:0.1"
       d="m 489.001,196.789 c 9.191,0.9 37.794,13.981 34.272,23.64 -4.337,11.903 -32.021,-16.901 -35.825,-20.301 -4.359,-3.897 -3.603,-3.844 1.553,-3.339" /><path
       inkscape:connector-curvature="0"
       id="path330"
       style="fill:#d4a01e;fill-opacity:1;fill-rule:evenodd;stroke:none;stroke-width:0.1"
       d="m 492.114,218.879 c 7.138,0.833 29.2,11.423 26.322,18.887 -3.546,9.197 -24.668,-13.612 -27.578,-16.311 -3.336,-3.096 -2.748,-3.043 1.256,-2.576" /><path
       inkscape:connector-curvature="0"
       id="path332"
       style="fill:#edb832;fill-opacity:1;fill-rule:evenodd;stroke:none;stroke-width:0.1"
       d="m 495.097,241.945 c 5.927,0.575 24.382,8.994 22.119,15.225 -2.791,7.68 -20.664,-10.88 -23.119,-13.07 -2.815,-2.511 -2.326,-2.477 1,-2.155" /><path
       inkscape:connector-curvature="0"
       id="path334"
       style="fill:#edb832;fill-opacity:1;fill-rule:evenodd;stroke:none;stroke-width:0.1"
       d="m 497.554,261.815 c 4.273,0.603 17.37,7.284 15.532,11.724 -2.263,5.472 -14.617,-8.532 -16.325,-10.196 -1.958,-1.907 -1.606,-1.867 0.793,-1.528" /><path
       inkscape:connector-curvature="0"
       id="path336"
       style="fill:#edb832;fill-opacity:1;fill-rule:evenodd;stroke:none;stroke-width:0.1"
       d="m 444.763,119.135 c -11.157,8.222 -37.973,47.06 -26.012,56.805 14.736,12.009 28.289,-46.39 30.579,-53.696 2.625,-8.373 1.691,-7.722 -4.567,-3.109" /><path
       inkscape:connector-curvature="0"
       id="path338"
       style="fill:#edb832;fill-opacity:1;fill-rule:evenodd;stroke:none;stroke-width:0.1"
       d="m 458.564,113.81 c 13.817,-1.091 59.516,10.702 56.859,25.899 -3.276,18.727 -51.759,-16.536 -58.274,-20.558 -7.466,-4.609 -6.336,-4.729 1.415,-5.341" /><path
       inkscape:connector-curvature="0"
       id="path340"
       style="fill:#edb832;fill-opacity:1;fill-rule:evenodd;stroke:none;stroke-width:0.1"
       d="m 431.144,95.4281 c -13.651,7.5369 -49.256,46.9359 -37.342,59.5599 14.681,15.556 38.356,-47.607 41.981,-55.422 4.155,-8.957 3.019,-8.368 -4.639,-4.1379" /><path
       inkscape:connector-curvature="0"
       id="path342"
       style="fill:#d4a01e;fill-opacity:1;fill-rule:evenodd;stroke:none;stroke-width:0.1"
       d="m 446.259,89.1621 c 15.087,-3.9383 68.038,0.0969 68.096,17.4549 0.074,21.391 -60.598,-8.0908 -68.609,-11.258 -9.182,-3.6301 -7.953,-3.9871 0.513,-6.1969" /><path
       inkscape:connector-curvature="0"
       id="path344"
       style="fill:#d4a01e;fill-opacity:1;fill-rule:evenodd;stroke:none;stroke-width:0.1"
       d="m 710.155,491.354 c 15.261,-27.672 -2.853,-33.795 -0.106,-47.491 -13.195,11.079 -11.129,37.231 0.106,47.491" /><path
       inkscape:connector-curvature="0"
       id="path346"
       style="fill:#d4a01e;fill-opacity:1;fill-rule:evenodd;stroke:none;stroke-width:0.1"
       d="m 679.02,479.816 c 29.658,-10.912 21.166,-26.146 31.029,-35.953 -15.208,0.461 -32.797,20.84 -31.029,35.953" /><path
       inkscape:connector-curvature="0"
       id="path348"
       style="fill:#d4a01e;fill-opacity:1;fill-rule:nonzero;stroke:none;stroke-width:0.1"
       d="m 676.015,287.146 c -0.982,-1.128 -2.419,0.437 -3.212,3.497 -0.793,3.058 -0.64,6.453 0.341,7.582 6.561,7.57 19.151,37.185 26.935,72.828 5.237,23.979 8.244,50.461 5.577,74.13 -0.368,3.262 0.314,5.827 1.521,5.726 1.208,-0.1 2.485,-2.827 2.853,-6.091 3.034,-26.929 -0.151,-55.981 -5.798,-81.836 -8.069,-36.947 -21.284,-67.835 -28.217,-75.836" /><path
       inkscape:connector-curvature="0"
       id="path350"
       style="fill:#d4a01e;fill-opacity:1;fill-rule:evenodd;stroke:none;stroke-width:0.1"
       d="m 745.573,346.406 c -28.553,-13.539 -33.557,4.915 -47.395,3.011 11.865,12.493 37.841,8.831 47.395,-3.011" /><path
       inkscape:connector-curvature="0"
       id="path352"
       style="fill:#edb832;fill-opacity:1;fill-rule:evenodd;stroke:none;stroke-width:0.1"
       d="m 735.96,378.19 c -12.704,-28.936 -27.391,-19.528 -37.782,-28.773 1.389,15.151 22.807,31.461 37.782,28.773" /><path
       inkscape:connector-curvature="0"
       id="path354"
       style="fill:#edb832;fill-opacity:1;fill-rule:evenodd;stroke:none;stroke-width:0.1"
       d="m 648.407,354.005 c 17.53,-26.294 31.31,-13.037 42.199,-21.784 -3.753,16.814 -27.917,27.029 -42.199,21.784" /><path
       inkscape:connector-curvature="0"
       id="path356"
       style="fill:#d4a01e;fill-opacity:1;fill-rule:evenodd;stroke:none;stroke-width:0.1"
       d="m 672.992,376.323 c -3.978,-31.349 13.455,-30.831 17.614,-44.102 6.598,13.709 -3.386,38.71 -17.614,44.102" /><path
       inkscape:connector-curvature="0"
       id="path358"
       style="fill:#edb832;fill-opacity:1;fill-rule:evenodd;stroke:none;stroke-width:0.1"
       d="m 755.345,423.196 c -24.039,-20.512 -33.68,-3.999 -46.543,-9.443 8.2,15.153 34.233,18.387 46.543,9.443" /><path
       inkscape:connector-curvature="0"
       id="path360"
       style="fill:#edb832;fill-opacity:1;fill-rule:evenodd;stroke:none;stroke-width:0.1"
       d="m 737.782,451.377 c -4.726,-31.246 -21.357,-25.99 -28.98,-37.624 -2.606,14.99 13.821,36.317 28.98,37.624" /><path
       inkscape:connector-curvature="0"
       id="path362"
       style="fill:#edb832;fill-opacity:1;fill-rule:evenodd;stroke:none;stroke-width:0.1"
       d="m 661.085,409.627 c 20.249,-24.262 32.527,-9.603 44.293,-17.132 -5.537,16.316 -30.656,23.878 -44.293,17.132" /><path
       inkscape:connector-curvature="0"
       id="path364"
       style="fill:#d4a01e;fill-opacity:1;fill-rule:evenodd;stroke:none;stroke-width:0.1"
       d="m 683.134,434.454 c -0.594,-31.596 16.684,-29.21 22.244,-41.959 5.088,14.339 -7.522,38.123 -22.244,41.959" /><path
       inkscape:connector-curvature="0"
       id="path366"
       style="fill:#d4a01e;fill-opacity:1;fill-rule:evenodd;stroke:none;stroke-width:0.1"
       d="M 76.2766,446.786 C 62,424.192 70.1633,408.552 81.4902,401.686 c 16.7239,15.23 9.1348,32.824 -5.2136,45.1" /><path
       inkscape:connector-curvature="0"
       id="path368"
       style="fill:#d4a01e;fill-opacity:1;fill-rule:evenodd;stroke:none;stroke-width:0.1"
       d="M 117.969,412.402 C 91.2695,411.207 83.0996,395.569 83.9387,382.35 c 22.0543,-5.02 32.1563,11.262 34.0303,30.052" /><path
       inkscape:connector-curvature="0"
       id="path370"
       style="fill:#edb832;fill-opacity:1;fill-rule:evenodd;stroke:none;stroke-width:0.1"
       d="m 118.021,377.303 c -18.3015,5.98 -27.7827,-2.485 -30.5784,-11.608 13.5914,-8.99 24.5384,-0.583 30.5784,11.608" /><path
       inkscape:connector-curvature="0"
       id="path372"
       style="fill:#edb832;fill-opacity:1;fill-rule:evenodd;stroke:none;stroke-width:0.1"
       d="m 61.5957,396.589 c 15.4426,2.099 21.7606,-6.021 22.6594,-13.692 -12.1313,-5.181 -19.625,3.107 -22.6594,13.692" /><path
       inkscape:connector-curvature="0"
       id="path374"
       style="fill:#d4a01e;fill-opacity:1;fill-rule:nonzero;stroke:none;stroke-width:0.1"
       d="m 105.181,336.005 c -0.057,-1.598 -0.481,-2.542 -0.947,-2.108 -6.6957,6.264 -12.9567,17.495 -17.0875,30.228 -4.3887,13.531 -6.5164,29.797 -7.8504,47.76 -0.4152,5.587 2.3238,1.937 2.5379,-0.947 1.2336,-16.618 3.0676,-31.135 7.1387,-43.685 1.6484,-5.083 3.5253,-9.729 5.6269,-13.85 2.9199,-5.725 10.7284,-13.225 10.5814,-17.398" /><path
       inkscape:connector-curvature="0"
       id="path376"
       style="fill:#edb832;fill-opacity:1;fill-rule:nonzero;stroke:none;stroke-width:0.1"
       d="m 102.838,337.299 c 0.405,-0.031 1.228,-0.721 1.838,-1.541 0.608,-0.821 0.774,-1.462 0.368,-1.432 -5.842,0.458 -12.5936,3.334 -19.7354,8.046 -7.5898,5.006 -15.6055,12.073 -23.4363,20.511 -0.716,0.771 -1.1758,1.623 -1.0278,1.901 0.1477,0.278 0.8489,-0.122 1.5649,-0.893 7.2437,-7.807 14.6676,-14.351 21.7066,-18.994 6.7387,-4.446 13.1406,-7.161 18.722,-7.598" /><path
       inkscape:connector-curvature="0"
       id="path378"
       style="fill:#d4a01e;fill-opacity:1;fill-rule:evenodd;stroke:none;stroke-width:0.1"
       d="m 41.4707,372.785 c 24.0059,2.389 33.3289,-10.522 34.2922,-22.44 -19.052,-7.341 -30.1848,5.897 -34.2922,22.44" /><path
       inkscape:connector-curvature="0"
       id="path380"
       style="fill:#edb832;fill-opacity:1;fill-rule:evenodd;stroke:none;stroke-width:0.1"
       d="m 52.9855,329.716 c 7.0606,9.38 14.7555,8.461 19.3387,4.876 -3.6543,-9.24 -12.0625,-8.86 -19.3387,-4.876" /><path
       inkscape:connector-curvature="0"
       id="path382"
       style="fill:#edb832;fill-opacity:1;fill-rule:evenodd;stroke:none;stroke-width:0.1"
       d="m 73.5984,317.939 c -3.6636,11.154 1.4883,16.944 7.0493,18.657 5.4949,-8.28 0.3789,-14.963 -7.0493,-18.657" /><path
       inkscape:connector-curvature="0"
       id="path384"
       style="fill:#d4a01e;fill-opacity:1;fill-rule:evenodd;stroke:none;stroke-width:0.1"
       d="m 88.0254,323.38 c -5.3047,6.587 -3.3027,11.799 0.0098,14.367 5.8086,-4.184 4.0578,-9.989 -0.0098,-14.367" /><path
       inkscape:connector-curvature="0"
       id="path386"
       style="fill:#d4a01e;fill-opacity:1;fill-rule:evenodd;stroke:none;stroke-width:0.1"
       d="m 71.3215,343.558 c 1.5406,-6.671 5.8601,-8.003 9.1512,-7.178 0.2402,5.789 -4.3301,7.578 -9.1512,7.178" /><path
       inkscape:connector-curvature="0"
       id="path388"
       style="fill:#edb832;fill-opacity:1;fill-rule:nonzero;stroke:none;stroke-width:0.1"
       d="m 102.992,335.081 c 0.648,0.272 0.97,0.593 0.719,0.717 -3.615,1.775 -9.2032,2.601 -15.077,2.315 -6.2414,-0.302 -13.2539,-1.959 -20.841,-4.207 -2.3594,-0.699 -0.4344,-1.256 0.784,-0.895 7.0187,2.079 13.2675,3.585 19.0558,3.866 2.3445,0.113 4.5457,0.064 6.5652,-0.157 2.8071,-0.309 7.103,-2.349 8.794,-1.639" /></g></svg>